<svg width="27" height="27" viewBox="0 0 27 27" fill="none" xmlns="http://www.w3.org/2000/svg">
	<path d="M15.9424 26.875C16.8564 26.875 17.5039 26.0879 17.9736 24.8691L26.2891 3.14746C26.5176 2.56348 26.6445 2.04297 26.6445 1.61133C26.6445 0.786133 26.1367 0.27832 25.3115 0.27832C24.8799 0.27832 24.3594 0.405273 23.7754 0.633789L1.93945 9C0.873047 9.40625 0.0478516 10.0537 0.0478516 10.9805C0.0478516 12.1484 0.936523 12.542 2.15527 12.9102L11.3213 15.6016L13.9873 24.6533C14.3682 25.9355 14.7617 26.875 15.9424 26.875ZM11.8926 13.6719L3.13281 10.9932C2.92969 10.9297 2.86621 10.8789 2.86621 10.79C2.86621 10.7012 2.91699 10.6377 3.10742 10.5615L20.2715 4.06152C21.2871 3.68066 22.2646 3.17285 23.2041 2.74121C22.3662 3.42676 21.3252 4.23926 20.627 4.9375L11.8926 13.6719ZM16.1455 24.082C16.0439 24.082 15.9932 23.9932 15.9297 23.79L13.251 15.0303L21.9854 6.2959C22.6709 5.61035 23.5215 4.54395 24.1943 3.68066C23.7627 4.64551 23.2422 5.62305 22.8613 6.65137L16.3613 23.8154C16.2852 24.0059 16.2344 24.082 16.1455 24.082Z" fill="#C7C7CC"/>
</svg>
