<svg width="24" height="24" viewBox="0 0 24 24" fill="none" xmlns="http://www.w3.org/2000/svg">
	<path d="M15.7929 17.2071C16.1834 17.5976 16.8166 17.5976 17.2071 17.2071C17.5976 16.8166 17.5976 16.1834 17.2071 15.7929L13.4142 12L17.2071 8.20711C17.5976 7.81658 17.5976 7.18342 17.2071 6.79289C16.8166 6.40237 16.1834 6.40237 15.7929 6.79289L12 10.5858L8.20711 6.79289C7.81658 6.40237 7.18342 6.40237 6.79289 6.79289C6.40237 7.18342 6.40237 7.81658 6.79289 8.20711L10.5858 12L6.79289 15.7929C6.40237 16.1834 6.40237 16.8166 6.79289 17.2071C7.18342 17.5976 7.81658 17.5976 8.20711 17.2071L12 13.4142L15.7929 17.2071Z" fill="#007AFF"/>
</svg>
