<svg width="24" height="24" viewBox="0 0 24 24" fill="none" xmlns="http://www.w3.org/2000/svg">
	<rect width="24" height="24" rx="5" fill="#1677FA" fill-opacity="0.1"/>
	<path d="M15.7929 17.2071C16.1834 17.5976 16.8166 17.5976 17.2071 17.2071C17.5976 16.8166 17.5976 16.1834 17.2071 15.7929L13.4146 12.0004L17.2071 8.20785C17.5976 7.81733 17.5976 7.18416 17.2071 6.79364C16.8166 6.40311 16.1834 6.40311 15.7929 6.79364L12.0004 10.5862L8.20711 6.79289C7.81658 6.40237 7.18342 6.40237 6.79289 6.79289C6.40237 7.18342 6.40237 7.81658 6.79289 8.20711L10.5862 12.0004L6.79289 15.7936C6.40237 16.1842 6.40237 16.8173 6.79289 17.2079C7.18342 17.5984 7.81658 17.5984 8.20711 17.2079L12.0004 13.4146L15.7929 17.2071Z" fill="#007AFF"/>
</svg>
