<svg width="24" height="30" viewBox="0 0 24 30" fill="none" xmlns="http://www.w3.org/2000/svg">
	<path d="M12 19.2871C12.5459 19.2871 13.0029 18.8301 13.0029 18.2969V5.25879L12.9268 3.35449L13.79 4.25586L15.707 6.3125C15.8848 6.51562 16.1514 6.61719 16.3926 6.61719C16.9258 6.61719 17.3193 6.23633 17.3193 5.71582C17.3193 5.44922 17.2178 5.24609 17.0273 5.05566L12.7363 0.916992C12.4824 0.663086 12.2539 0.574219 12 0.574219C11.7461 0.574219 11.5176 0.663086 11.2637 0.916992L6.97266 5.05566C6.78223 5.24609 6.66797 5.44922 6.66797 5.71582C6.66797 6.23633 7.06152 6.61719 7.58203 6.61719C7.83594 6.61719 8.10254 6.51562 8.28027 6.3125L10.21 4.25586L11.0732 3.35449L10.9844 5.25879V18.2969C10.9844 18.8301 11.4541 19.2871 12 19.2871ZM4.71289 29.2275H19.2744C21.9277 29.2275 23.2607 27.9072 23.2607 25.292V12.6221C23.2607 10.0068 21.9277 8.68652 19.2744 8.68652H15.7324V10.7305H19.2363C20.4932 10.7305 21.2168 11.416 21.2168 12.7363V25.1777C21.2168 26.498 20.4932 27.1836 19.2363 27.1836H4.73828C3.46875 27.1836 2.77051 26.498 2.77051 25.1777V12.7363C2.77051 11.416 3.46875 10.7305 4.73828 10.7305H8.25488V8.68652H4.71289C2.05957 8.68652 0.726562 10.0068 0.726562 12.6221V25.292C0.726562 27.9072 2.05957 29.2275 4.71289 29.2275Z" fill="#C7C7CC"/>
</svg>
