<svg width="46" height="46" fill="none" xmlns="http://www.w3.org/2000/svg"><path d="M36.832.6a8.589 8.589 0 00-7 3.591L18.387 20.25c-.33-.049-.658-.049-.987-.049A11.2 11.2 0 006.2 31.4 5.6 5.6 0 01.6 37s4.2 8.4 14 8.4c9.1 0 13.965-6.944 14-13.916v1.4a.41.41 0 000-.07 7.165 7.165 0 000-1.4 11.201 11.201 0 00-.33-2.639L42.545 16A8.583 8.583 0 0045.4 9.61v-.435A8.582 8.582 0 0036.832.6zM24.4 31.463c0 4.69-3.101 9.737-9.8 9.737a11.29 11.29 0 01-7.322-2.639 9.8 9.8 0 003.122-7.16 7 7 0 1114 0v.062zM41.2 9.61a4.375 4.375 0 01-1.456 3.255l-13.3 11.9a11.235 11.235 0 00-3.773-3.276l10.605-14.86a4.368 4.368 0 017.924 2.54v.441z" fill="#CFDBEC"/></svg>