<svg width="44" height="44" fill="none" xmlns="http://www.w3.org/2000/svg"><path d="M29.7 43.7H.3V5.2A4.9 4.9 0 015.2.3h19.6a4.9 4.9 0 014.9 4.9v38.5zM4.5 39.5h21V5.2a.7.7 0 00-.7-.7H5.2a.7.7 0 00-.7.7v34.3z" fill="#CFDBEC"/><path d="M43.7 43.7H25.5V5.9h13.3a4.9 4.9 0 014.9 4.9v32.9zm-14-4.2h9.8V10.8a.7.7 0 00-.7-.7h-9.1v29.4zM17.1 10.8h-4.2V15h4.2v-4.2zm0 9.8h-4.2v4.2h4.2v-4.2zm4.201 23.1h-12.6V36a6.3 6.3 0 1112.6 0v7.7zm-8.4-4.2h4.2V36a2.1 2.1 0 00-4.2 0v3.5z" fill="#CFDBEC"/><path d="M40.9 17.1H28.3v4.2h12.6v-4.2zm0 11.2H28.3v4.2h12.6v-4.2z" fill="#CFDBEC"/></svg>