<svg width="31" height="27" fill="none" xmlns="http://www.w3.org/2000/svg"><path d="M19.605 24.207l8.93-8.868a3.89 3.89 0 001.152-2.77c0-1.625-.9-2.514-3.567-5.167l-3.886-3.86C19.562.895 18.667 0 17.031 0a3.942 3.942 0 00-2.789 1.145L2.716 12.592a3.912 3.912 0 00-1.157 2.77 3.892 3.892 0 001.157 2.77l6.117 6.075H.625V27h30v-2.793h-11.02zM16.094 3.259v9.408a1.763 1.763 0 01-.522 1.246 1.79 1.79 0 01-1.255.518H4.844l11.25-11.172zM5.78 17.224h8.536a4.61 4.61 0 003.244-1.336 4.546 4.546 0 001.345-3.221V4.19c.361.344.797.772 1.336 1.308l3.886 3.859c2.63 2.63 2.747 2.914 2.747 3.212a1.114 1.114 0 01-.333.796L15.625 24.207h-2.813l-7.03-6.983z" fill="#C5CBD7"/></svg>