<svg width="459" height="378" fill="none" xmlns="http://www.w3.org/2000/svg"><g filter="url(#filter0_d)"><g clip-path="url(#clip0)"><rect x="28" y="18.617" width="330.059" height="237.059" rx="10.941" fill="#fff"/><path d="M95.457 47.028h1.683l.748-2.325h3.328l.754 2.325h1.683l-3.191-8.994h-1.814l-3.19 8.994zm4.045-7.323h.106l1.209 3.758h-2.524l1.21-3.758zm7.305 7.436c.898 0 1.621-.387 1.995-1.048h.105v.935h1.534v-4.656c0-1.44-.985-2.287-2.736-2.287-1.621 0-2.718.76-2.868 1.907l-.006.056h1.465l.006-.025c.156-.448.617-.704 1.328-.704.835 0 1.277.374 1.277 1.053v.586l-1.751.106c-1.658.1-2.587.81-2.587 2.026v.012c0 1.24.942 2.039 2.238 2.039zm-.704-2.113v-.013c0-.56.405-.879 1.271-.935l1.533-.1v.549c0 .81-.691 1.421-1.626 1.421-.686 0-1.178-.343-1.178-.922zm8.657 2.113c.96 0 1.695-.437 2.069-1.178h.106v1.065h1.558V37.58h-1.558v3.72h-.106c-.355-.735-1.134-1.196-2.069-1.196-1.726 0-2.792 1.346-2.792 3.515v.013c0 2.156 1.084 3.509 2.792 3.509zm.486-1.31c-1.059 0-1.701-.828-1.701-2.2v-.012c0-1.371.648-2.206 1.701-2.206 1.054 0 1.714.841 1.714 2.206v.013c0 1.364-.654 2.2-1.714 2.2zm7.056 1.31c.897 0 1.62-.387 1.994-1.048h.106v.935h1.533v-4.656c0-1.44-.984-2.287-2.736-2.287-1.62 0-2.717.76-2.867 1.907l-.006.056h1.465l.006-.025c.156-.448.617-.704 1.327-.704.836 0 1.278.374 1.278 1.053v.586l-1.751.106c-1.658.1-2.587.81-2.587 2.026v.012c0 1.24.941 2.039 2.238 2.039zm-.705-2.113v-.013c0-.56.406-.879 1.272-.935l1.533-.1v.549c0 .81-.692 1.421-1.627 1.421-.685 0-1.178-.343-1.178-.922zm7.823 2h1.701l2.412-6.812H131.9l-1.564 5.298h-.106l-1.577-5.298h-1.658l2.425 6.812zm8.987 0h3.846c1.919 0 3.091-.972 3.091-2.549v-.012c0-1.166-.835-2.038-2.044-2.15v-.113c.904-.143 1.602-.978 1.602-1.92v-.012c0-1.377-1.029-2.238-2.736-2.238h-3.759v8.994zm3.366-7.74c.972 0 1.539.467 1.539 1.265v.012c0 .816-.604 1.259-1.745 1.259h-1.552v-2.537h1.758zm.05 3.677c1.228 0 1.876.48 1.876 1.39v.012c0 .916-.63 1.409-1.814 1.409h-1.87v-2.811h1.808zm5.111 4.063h1.552v-3.957c0-.973.679-1.59 1.714-1.59.268 0 .523.038.772.087v-1.39a2.478 2.478 0 00-.629-.074c-.898 0-1.521.43-1.751 1.159h-.106v-1.047h-1.552v6.812zm8.077.137c2.038 0 3.279-1.333 3.279-3.54v-.012c0-2.194-1.247-3.528-3.279-3.528-2.025 0-3.278 1.34-3.278 3.528v.012c0 2.207 1.234 3.54 3.278 3.54zm0-1.259c-1.078 0-1.695-.841-1.695-2.274v-.013c0-1.434.617-2.281 1.695-2.281 1.072 0 1.689.847 1.689 2.281v.013c0 1.433-.61 2.274-1.689 2.274zm5.859 1.122h1.608l1.321-4.936h.106l1.328 4.936h1.627l1.845-6.812h-1.54l-1.128 5.117h-.106l-1.321-5.117h-1.477l-1.309 5.117h-.106l-1.135-5.117h-1.558l1.845 6.812zm9.187 0h1.552v-3.97c0-1.022.574-1.67 1.496-1.67.941 0 1.371.536 1.371 1.595v4.045h1.552v-4.406c0-1.62-.829-2.537-2.35-2.537-.984 0-1.639.443-1.963 1.172h-.106v-1.041h-1.552v6.812z" fill="#000"/><path d="M97.462 60.63c.774 0 1.378-.337 1.741-.951h.085v.85h.93v-3.943c0-1.197-.785-1.918-2.19-1.918-1.229 0-2.105.609-2.255 1.512l-.005.032h.93l.005-.016c.15-.45.603-.706 1.293-.706.86 0 1.293.385 1.293 1.096v.523l-1.651.102c-1.341.08-2.1.673-2.1 1.699v.01c0 1.047.828 1.71 1.924 1.71zm-.973-1.731v-.01c0-.572.385-.882 1.26-.936l1.54-.096v.524c0 .822-.69 1.442-1.635 1.442-.668 0-1.165-.342-1.165-.924zm7.009 1.73c.775 0 1.379-.336 1.742-.95h.085v.85h.93v-3.943c0-1.197-.785-1.918-2.19-1.918-1.229 0-2.105.609-2.255 1.512l-.005.032h.929l.006-.016c.149-.45.603-.706 1.293-.706.86 0 1.292.385 1.292 1.096v.523l-1.65.102c-1.341.08-2.1.673-2.1 1.699v.01c0 1.047.828 1.71 1.923 1.71zm-.972-1.73v-.01c0-.572.385-.882 1.261-.936l1.538-.096v.524c0 .822-.689 1.442-1.634 1.442-.668 0-1.165-.342-1.165-.924zm7.554 1.73c.801 0 1.443-.378 1.795-1.02h.086v.92h.929v-8.046h-.929v3.194h-.086c-.315-.614-1.004-1.01-1.795-1.01-1.464 0-2.415 1.17-2.415 2.976v.011c0 1.795.957 2.976 2.415 2.976zm.214-.822c-1.053 0-1.678-.812-1.678-2.153v-.01c0-1.341.625-2.154 1.678-2.154 1.047 0 1.688.823 1.688 2.153v.011c0 1.33-.641 2.153-1.688 2.153zm5.962.823c.775 0 1.378-.337 1.742-.951h.085v.85h.93v-3.943c0-1.197-.786-1.918-2.191-1.918-1.229 0-2.105.609-2.254 1.512l-.006.032h.93l.005-.016c.15-.45.604-.706 1.293-.706.86 0 1.293.385 1.293 1.096v.523l-1.651.102c-1.341.08-2.099.673-2.099 1.699v.01c0 1.047.828 1.71 1.923 1.71zm-.972-1.731v-.01c0-.572.384-.882 1.26-.936l1.539-.096v.524c0 .822-.689 1.442-1.635 1.442-.668 0-1.164-.342-1.164-.924zm6.843 1.63h.94l2.132-5.76h-.983l-1.576 4.744h-.085l-1.576-4.744h-.983l2.131 5.76zm7.164.1c1.459 0 2.415-1.18 2.415-2.975v-.01c0-1.806-.951-2.976-2.415-2.976-.79 0-1.48.395-1.795 1.01h-.085v-3.195h-.93v8.045h.93v-.919h.085c.353.642.994 1.02 1.795 1.02zm-.213-.822c-1.047 0-1.689-.823-1.689-2.153v-.01c0-1.33.642-2.154 1.689-2.154 1.052 0 1.677.813 1.677 2.153v.011c0 1.341-.625 2.153-1.677 2.153zm4.07.721h.93V56.96c0-.845.63-1.405 1.517-1.405.203 0 .38.02.572.053v-.903a3.134 3.134 0 00-.465-.037c-.78 0-1.319.352-1.538.956h-.086v-.855h-.93v5.76zm6.374.102c1.64 0 2.655-1.133 2.655-2.976v-.01c0-1.849-1.015-2.976-2.655-2.976s-2.655 1.127-2.655 2.975v.011c0 1.843 1.015 2.976 2.655 2.976zm0-.823c-1.09 0-1.704-.796-1.704-2.153v-.01c0-1.363.614-2.154 1.704-2.154 1.09 0 1.704.791 1.704 2.153v.011c0 1.357-.614 2.153-1.704 2.153zm4.995.721h.93l1.282-4.455h.085l1.288 4.455h.935l1.613-5.759h-.924l-1.133 4.605h-.085l-1.288-4.605h-.881l-1.288 4.605h-.085l-1.133-4.605h-.929l1.613 5.76zm7.362 0h.929V57.12c0-1.01.583-1.63 1.502-1.63s1.346.497 1.346 1.534v3.504h.929V56.8c0-1.367-.721-2.131-2.014-2.131-.849 0-1.389.358-1.677.967h-.086v-.866h-.929v5.76zm8.74.102c1.357 0 2.18-.77 2.377-1.55l.011-.042h-.93l-.021.048c-.155.347-.636.716-1.416.716-1.025 0-1.683-.695-1.709-1.886h4.145v-.363c0-1.72-.95-2.885-2.516-2.885-1.565 0-2.58 1.218-2.58 2.997v.005c0 1.806.994 2.96 2.639 2.96zm-.064-5.134c.849 0 1.48.54 1.576 1.677h-3.184c.101-1.095.753-1.677 1.608-1.677zm8.366 6.282c.673 0 1.32-.096 1.8-.261v-.674c-.336.155-1.057.257-1.789.257-2.287 0-3.761-1.47-3.761-3.745v-.01c0-2.218 1.501-3.81 3.59-3.81 2.137 0 3.6 1.32 3.6 3.243v.01c0 1.31-.432 2.159-1.105 2.159-.385 0-.604-.22-.604-.593v-3.136h-.807v.652h-.085c-.209-.465-.689-.753-1.25-.753-1.096 0-1.859.908-1.859 2.2v.011c0 1.352.747 2.265 1.859 2.265.625 0 1.106-.304 1.335-.849h.086l.005.032c.086.518.556.865 1.17.865 1.229 0 2.009-1.105 2.009-2.842v-.01c0-2.314-1.758-3.927-4.285-3.927-2.618 0-4.413 1.811-4.413 4.45v.01c0 2.725 1.747 4.456 4.504 4.456zm-.288-2.938c-.7 0-1.128-.566-1.128-1.49v-.011c0-.93.422-1.485 1.138-1.485.727 0 1.192.577 1.192 1.485v.01c0 .909-.471 1.491-1.202 1.491zm5.93 1.688h.929V56.96c0-.812.572-1.47 1.325-1.47.727 0 1.197.444 1.197 1.128v3.91h.929v-3.702c0-.732.529-1.336 1.331-1.336.812 0 1.202.422 1.202 1.272v3.766h.929v-3.98c0-1.207-.657-1.88-1.832-1.88-.796 0-1.453.4-1.763 1.01h-.086c-.267-.599-.812-1.01-1.592-1.01-.753 0-1.298.358-1.554.977h-.086v-.876h-.929v5.76zm11.101.102c.775 0 1.378-.337 1.742-.951h.085v.85h.93v-3.943c0-1.197-.786-1.918-2.191-1.918-1.228 0-2.105.609-2.254 1.512l-.006.032h.93l.005-.016c.15-.45.604-.706 1.293-.706.86 0 1.293.385 1.293 1.096v.523l-1.651.102c-1.341.08-2.099.673-2.099 1.699v.01c0 1.047.828 1.71 1.923 1.71zm-.972-1.731v-.01c0-.572.384-.882 1.26-.936l1.539-.096v.524c0 .822-.689 1.442-1.635 1.442-.667 0-1.164-.342-1.164-.924zm5.919-5.241a.643.643 0 00.641-.641.643.643 0 00-.641-.641.643.643 0 00-.641.64c0 .354.288.642.641.642zm-.47 6.87h.929V54.77h-.929v5.76zm2.735 0h.93v-8.045h-.93v8.045zm3.473.054a.697.697 0 00.694-.695.693.693 0 00-.694-.694c-.38 0-.695.31-.695.694a.7.7 0 00.695.695zm4.632.048c1.383 0 2.158-.743 2.393-1.785l.011-.058-.919.005-.011.032c-.214.641-.705.983-1.48.983-1.025 0-1.688-.85-1.688-2.174v-.01c0-1.3.652-2.133 1.688-2.133.828 0 1.341.46 1.485 1.026l.006.016h.924l-.005-.032c-.171-1.026-1.01-1.832-2.41-1.832-1.613 0-2.639 1.164-2.639 2.954v.01c0 1.828 1.031 2.998 2.645 2.998zm6.133 0c1.64 0 2.655-1.133 2.655-2.976v-.01c0-1.849-1.015-2.976-2.655-2.976s-2.656 1.127-2.656 2.975v.011c0 1.843 1.016 2.976 2.656 2.976zm0-.823c-1.09 0-1.705-.796-1.705-2.153v-.01c0-1.363.615-2.154 1.705-2.154 1.089 0 1.704.791 1.704 2.153v.011c0 1.357-.615 2.153-1.704 2.153zm4.097.721h.93V56.96c0-.812.571-1.47 1.325-1.47.726 0 1.196.444 1.196 1.128v3.91h.93v-3.702c0-.732.529-1.336 1.33-1.336.812 0 1.202.422 1.202 1.272v3.766h.93v-3.98c0-1.207-.657-1.88-1.833-1.88-.796 0-1.453.4-1.763 1.01h-.085c-.267-.599-.812-1.01-1.592-1.01-.753 0-1.298.358-1.555.977h-.085v-.876h-.93v5.76z" fill="#C7C7CC"/><path d="M340.411 57.579c4.223 0 7.719-3.505 7.719-7.72 0-4.223-3.504-7.72-7.727-7.72-4.215 0-7.712 3.497-7.712 7.72 0 4.215 3.504 7.72 7.72 7.72zm0-1.287a6.402 6.402 0 01-6.426-6.433 6.396 6.396 0 016.418-6.433 6.42 6.42 0 016.441 6.433 6.404 6.404 0 01-6.433 6.433zm-.068-9.127a.977.977 0 00.983-.984.984.984 0 10-1.967 0c0 .545.439.984.984.984zm-1.257 6.857h3.081c.31 0 .552-.22.552-.53a.536.536 0 00-.552-.53h-.939V49.11c0-.41-.204-.681-.59-.681h-1.423a.537.537 0 00-.553.53c0 .31.243.529.553.529h.81v3.474h-.939a.536.536 0 00-.552.53c0 .31.242.53.552.53z" fill="#1677FA"/><path d="M340.411 57.579c4.223 0 7.719-3.505 7.719-7.72 0-4.223-3.504-7.72-7.727-7.72-4.215 0-7.712 3.497-7.712 7.72 0 4.215 3.504 7.72 7.72 7.72zm0-1.287a6.402 6.402 0 01-6.426-6.433 6.396 6.396 0 016.418-6.433 6.42 6.42 0 016.441 6.433 6.404 6.404 0 01-6.433 6.433zm-.068-9.127a.977.977 0 00.983-.984.984.984 0 10-1.967 0c0 .545.439.984.984.984zm-1.257 6.857h3.081c.31 0 .552-.22.552-.53a.536.536 0 00-.552-.53h-.939V49.11c0-.41-.204-.681-.59-.681h-1.423a.537.537 0 00-.553.53c0 .31.243.529.553.529h.81v3.474h-.939a.536.536 0 00-.552.53c0 .31.242.53.552.53z" fill="#0075FF"/><rect x="36.662" y="27.734" width="43.765" height="43.765" rx="21.882" fill="#F4F4F5" style="mix-blend-mode:multiply"/><path d="M51.501 53.834c.362 0 .568-.174.699-.58l.679-1.932h3.44l.686 1.939c.125.399.33.573.704.573.405 0 .698-.268.698-.636 0-.118-.025-.236-.087-.411l-2.742-7.423c-.187-.499-.486-.723-.973-.723-.492 0-.797.23-.978.729l-2.736 7.417a1.215 1.215 0 00-.088.411c0 .38.28.636.698.636zm1.733-3.652l1.34-3.946h.038l1.352 3.946h-2.73zm7.062 3.552h2.91c1.914 0 3.067-.96 3.067-2.543 0-1.196-.823-2.063-2.044-2.2v-.05c.897-.15 1.602-1.003 1.602-1.957 0-1.358-1.047-2.244-2.643-2.244h-2.892c-.436 0-.698.275-.698.724v7.547c0 .45.262.723.698.723zm.698-5.167v-2.686h1.857c1.01 0 1.583.461 1.583 1.297 0 .89-.666 1.39-1.876 1.39h-1.564zm0 4.027v-2.96h1.845c1.321 0 2.007.498 2.007 1.47 0 .973-.667 1.49-1.926 1.49h-1.926z" fill="#8E8E93"/><path opacity=".4" d="M95.015 78.44h269.059v.05H95.015v-.05z" fill="#9595A6"/><path d="M95.457 105.382h1.683l.748-2.325h3.328l.754 2.325h1.683l-3.191-8.994h-1.814l-3.19 8.994zm4.045-7.324h.106l1.209 3.759h-2.524l1.21-3.759zm7.305 7.436c.898 0 1.621-.386 1.995-1.047h.105v.935h1.534v-4.656c0-1.44-.985-2.287-2.736-2.287-1.621 0-2.718.76-2.868 1.907l-.006.056h1.465l.006-.025c.156-.449.617-.704 1.328-.704.835 0 1.277.374 1.277 1.053v.586l-1.751.106c-1.658.1-2.587.81-2.587 2.025v.013c0 1.24.942 2.038 2.238 2.038zm-.704-2.113v-.012c0-.561.405-.879 1.271-.935l1.533-.1v.548c0 .811-.691 1.422-1.626 1.422-.686 0-1.178-.343-1.178-.923zm6.264 2.001h1.552v-3.97c0-1.023.573-1.67 1.495-1.67.942 0 1.372.535 1.372 1.595v4.045h1.552v-4.407c0-1.62-.829-2.536-2.35-2.536-.985 0-1.639.442-1.963 1.171h-.106v-3.677h-1.552v9.449zm9.66.112c.898 0 1.621-.386 1.995-1.047h.106v.935h1.533v-4.656c0-1.44-.985-2.287-2.736-2.287-1.621 0-2.718.76-2.867 1.907l-.006.056h1.464l.007-.025c.155-.449.617-.704 1.327-.704.835 0 1.278.374 1.278 1.053v.586l-1.752.106c-1.657.1-2.586.81-2.586 2.025v.013c0 1.24.941 2.038 2.237 2.038zm-.704-2.113v-.012c0-.561.405-.879 1.272-.935l1.533-.1v.548c0 .811-.692 1.422-1.627 1.422-.685 0-1.178-.343-1.178-.923zm6.202 2.001h1.552v-3.97c0-1.023.573-1.67 1.496-1.67.941 0 1.371.535 1.371 1.595v4.045h1.552v-4.407c0-1.62-.829-2.536-2.35-2.536-.985 0-1.639.442-1.963 1.171h-.106v-1.04h-1.552v6.812zm13.606.224c1.845 0 2.923-1.072 2.923-2.892v-6.326h-1.608v6.314c0 .972-.461 1.496-1.328 1.496-.797 0-1.221-.518-1.265-1.21l-.006-.043h-1.571l.007.068c.062 1.54 1.103 2.593 2.848 2.593zm7.822-.087c2.038 0 3.278-1.334 3.278-3.54v-.013c0-2.194-1.246-3.527-3.278-3.527-2.026 0-3.278 1.34-3.278 3.527v.013c0 2.206 1.234 3.54 3.278 3.54zm0-1.259c-1.078 0-1.695-.841-1.695-2.275v-.012c0-1.434.617-2.282 1.695-2.282 1.072 0 1.689.848 1.689 2.282v.012c0 1.434-.611 2.275-1.689 2.275zm4.899 1.122h1.552v-3.97c0-1.023.573-1.67 1.496-1.67.941 0 1.371.535 1.371 1.595v4.045h1.552v-4.407c0-1.62-.829-2.536-2.35-2.536-.985 0-1.639.442-1.963 1.171h-.106v-3.677h-1.552v9.449zm7.803 0h1.552v-3.97c0-1.023.574-1.67 1.496-1.67.941 0 1.371.535 1.371 1.595v4.045h1.552v-4.407c0-1.62-.829-2.536-2.349-2.536-.985 0-1.64.442-1.964 1.171h-.106v-1.04h-1.552v6.812zm10.378.137c1.677 0 2.892-.866 2.892-2.163v-.012c0-.991-.63-1.558-1.963-1.858l-1.104-.243c-.735-.168-1.022-.411-1.022-.81v-.006c0-.511.499-.848 1.191-.848.729 0 1.178.35 1.29.779l.006.019h1.459v-.013c-.1-1.103-1.091-1.925-2.749-1.925-1.608 0-2.73.847-2.73 2.075v.006c0 1.004.617 1.615 1.913 1.901l1.104.25c.748.168 1.047.43 1.047.829v.012c0 .511-.536.86-1.309.86-.773 0-1.228-.33-1.39-.804l-.006-.012h-1.54v.012c.131 1.153 1.178 1.951 2.911 1.951zm7.398 0c2.038 0 3.279-1.334 3.279-3.54v-.013c0-2.194-1.247-3.527-3.279-3.527-2.025 0-3.278 1.34-3.278 3.527v.013c0 2.206 1.234 3.54 3.278 3.54zm0-1.259c-1.078 0-1.695-.841-1.695-2.275v-.012c0-1.434.617-2.282 1.695-2.282 1.072 0 1.689.848 1.689 2.282v.012c0 1.434-.61 2.275-1.689 2.275zm4.837 1.122h1.552v-3.97c0-1.023.573-1.67 1.496-1.67.941 0 1.371.535 1.371 1.595v4.045h1.552v-4.407c0-1.62-.829-2.536-2.35-2.536-.985 0-1.639.442-1.963 1.171h-.106v-1.04h-1.552v6.812z" fill="#000"/><path d="M95.383 118.882h1.01l.775-2.207h3.066l.775 2.207h1.009l-2.842-7.709h-.95l-2.843 7.709zm3.275-6.464h.086l1.207 3.44h-2.5l1.207-3.44zm6.123 6.565c.774 0 1.378-.336 1.741-.951h.086v.85h.929v-3.943c0-1.197-.785-1.918-2.19-1.918-1.229 0-2.105.609-2.255 1.512l-.005.032h.93l.005-.016c.149-.449.604-.705 1.293-.705.86 0 1.293.385 1.293 1.095v.524l-1.651.101c-1.341.08-2.1.673-2.1 1.699v.011c0 1.047.828 1.709 1.924 1.709zm-.973-1.731v-.01c0-.572.385-.882 1.261-.935l1.539-.096v.523c0 .823-.69 1.443-1.635 1.443-.668 0-1.165-.342-1.165-.925zm5.481 1.63h.93v-3.409c0-1.009.582-1.629 1.501-1.629.919 0 1.347.497 1.347 1.533v3.505h.929v-3.729c0-1.368-.721-2.132-2.014-2.132-.849 0-1.389.358-1.677.967h-.086v-3.152h-.93v8.046zm7.971.101c.775 0 1.379-.336 1.742-.951h.085v.85h.93v-3.943c0-1.197-.785-1.918-2.19-1.918-1.229 0-2.105.609-2.255 1.512l-.005.032h.929l.006-.016c.149-.449.603-.705 1.293-.705.86 0 1.292.385 1.292 1.095v.524l-1.65.101c-1.341.08-2.1.673-2.1 1.699v.011c0 1.047.828 1.709 1.923 1.709zm-.972-1.731v-.01c0-.572.385-.882 1.261-.935l1.538-.096v.523c0 .823-.689 1.443-1.634 1.443-.668 0-1.165-.342-1.165-.925zm5.428 1.63h.929v-3.409c0-1.009.583-1.629 1.502-1.629.918 0 1.346.497 1.346 1.533v3.505h.929v-3.729c0-1.368-.721-2.132-2.014-2.132-.849 0-1.389.358-1.677.967h-.086v-.865h-.929v5.759zm8.158.181c1.426 0 2.27-.865 2.27-2.323v-5.567h-.961v5.556c0 .94-.46 1.448-1.315 1.448-.764 0-1.143-.487-1.202-1.069l-.005-.053h-.962l.006.075c.08 1.105.833 1.933 2.169 1.933zm6.485-.08c1.64 0 2.655-1.132 2.655-2.975v-.011c0-1.849-1.015-2.976-2.655-2.976s-2.655 1.127-2.655 2.976v.011c0 1.843 1.015 2.975 2.655 2.975zm0-.822c-1.09 0-1.704-.796-1.704-2.153v-.011c0-1.362.614-2.153 1.704-2.153 1.09 0 1.704.791 1.704 2.153v.011c0 1.357-.614 2.153-1.704 2.153zm4.151.721h.93v-3.409c0-1.009.582-1.629 1.501-1.629.919 0 1.346.497 1.346 1.533v3.505h.93v-3.729c0-1.368-.721-2.132-2.014-2.132-.85 0-1.389.358-1.678.967h-.085v-3.152h-.93v8.046zm6.39 0h.929v-3.409c0-1.009.583-1.629 1.502-1.629.918 0 1.346.497 1.346 1.533v3.505h.929v-3.729c0-1.368-.721-2.132-2.014-2.132-.849 0-1.389.358-1.677.967h-.086v-.865h-.929v5.759zm8.366.101c1.309 0 2.308-.71 2.308-1.736v-.011c0-.822-.524-1.292-1.608-1.554l-.887-.214c-.679-.166-.967-.411-.967-.801v-.011c0-.508.502-.86 1.186-.86.694 0 1.143.315 1.266.769h.914c-.129-.94-.967-1.544-2.175-1.544-1.223 0-2.142.721-2.142 1.678v.005c0 .828.486 1.298 1.565 1.555l.893.213c.71.171 1.004.444 1.004.834v.011c0 .523-.55.892-1.325.892-.737 0-1.197-.316-1.352-.796h-.951c.107.951.989 1.57 2.271 1.57zm6.117 0c1.64 0 2.655-1.132 2.655-2.975v-.011c0-1.849-1.015-2.976-2.655-2.976s-2.655 1.127-2.655 2.976v.011c0 1.843 1.015 2.975 2.655 2.975zm0-.822c-1.09 0-1.704-.796-1.704-2.153v-.011c0-1.362.614-2.153 1.704-2.153 1.09 0 1.704.791 1.704 2.153v.011c0 1.357-.614 2.153-1.704 2.153zm4.098.721h.929v-3.409c0-1.009.582-1.629 1.501-1.629.919 0 1.347.497 1.347 1.533v3.505h.929v-3.729c0-1.368-.721-2.132-2.014-2.132-.849 0-1.389.358-1.677.967h-.086v-.865h-.929v5.759zm10.791 1.25c.673 0 1.32-.096 1.8-.262v-.673c-.336.155-1.057.256-1.789.256-2.287 0-3.761-1.469-3.761-3.745v-.01c0-2.217 1.501-3.809 3.59-3.809 2.137 0 3.601 1.319 3.601 3.242v.011c0 1.309-.433 2.158-1.106 2.158-.385 0-.604-.219-.604-.593v-3.135h-.807v.651h-.085c-.208-.464-.689-.753-1.25-.753-1.095 0-1.859.908-1.859 2.201v.011c0 1.351.748 2.265 1.859 2.265.625 0 1.106-.305 1.335-.85h.086l.005.033c.086.518.556.865 1.17.865 1.229 0 2.009-1.106 2.009-2.842v-.011c0-2.313-1.758-3.926-4.285-3.926-2.617 0-4.413 1.811-4.413 4.45v.01c0 2.725 1.747 4.456 4.504 4.456zm-.288-2.938c-.7 0-1.128-.567-1.128-1.491v-.011c0-.929.422-1.485 1.138-1.485.727 0 1.192.577 1.192 1.485v.011c0 .908-.47 1.491-1.202 1.491zm5.93 1.688h.929v-3.569c0-.812.572-1.469 1.325-1.469.727 0 1.197.443 1.197 1.127v3.911h.929v-3.702c0-.732.529-1.336 1.331-1.336.812 0 1.202.422 1.202 1.271v3.767h.929v-3.98c0-1.208-.657-1.881-1.832-1.881-.796 0-1.453.401-1.763 1.01h-.086c-.267-.598-.812-1.01-1.592-1.01-.753 0-1.298.358-1.554.978h-.086v-.876h-.929v5.759zm11.101.101c.775 0 1.378-.336 1.742-.951h.085v.85h.93v-3.943c0-1.197-.786-1.918-2.191-1.918-1.228 0-2.104.609-2.254 1.512l-.005.032h.929l.005-.016c.15-.449.604-.705 1.293-.705.86 0 1.293.385 1.293 1.095v.524l-1.651.101c-1.341.08-2.099.673-2.099 1.699v.011c0 1.047.828 1.709 1.923 1.709zm-.972-1.731v-.01c0-.572.384-.882 1.261-.935l1.538-.096v.523c0 .823-.689 1.443-1.635 1.443-.667 0-1.164-.342-1.164-.925zm5.919-5.24a.643.643 0 00.641-.642.643.643 0 00-.641-.641.644.644 0 00-.641.641c0 .353.289.642.641.642zm-.47 6.87h.93v-5.759h-.93v5.759zm2.735 0h.93v-8.046h-.93v8.046zm3.473.053a.693.693 0 10.001-1.391.693.693 0 00-.001 1.391zm4.632.048c1.383 0 2.158-.742 2.393-1.784l.011-.059-.919.006-.011.032c-.214.641-.705.983-1.48.983-1.025 0-1.688-.85-1.688-2.175v-.01c0-1.299.652-2.132 1.688-2.132.828 0 1.341.459 1.486 1.026l.005.016h.924l-.005-.032c-.171-1.026-1.01-1.833-2.41-1.833-1.613 0-2.639 1.165-2.639 2.955v.01c0 1.827 1.031 2.997 2.645 2.997zm6.133 0c1.64 0 2.655-1.132 2.655-2.975v-.011c0-1.849-1.015-2.976-2.655-2.976s-2.655 1.127-2.655 2.976v.011c0 1.843 1.015 2.975 2.655 2.975zm0-.822c-1.09 0-1.704-.796-1.704-2.153v-.011c0-1.362.614-2.153 1.704-2.153 1.09 0 1.704.791 1.704 2.153v.011c0 1.357-.614 2.153-1.704 2.153zm4.097.721h.93v-3.569c0-.812.572-1.469 1.325-1.469.726 0 1.196.443 1.196 1.127v3.911h.93v-3.702c0-.732.529-1.336 1.33-1.336.812 0 1.202.422 1.202 1.271v3.767h.93v-3.98c0-1.208-.657-1.881-1.833-1.881-.796 0-1.453.401-1.762 1.01h-.086c-.267-.598-.812-1.01-1.592-1.01-.753 0-1.298.358-1.555.978h-.085v-.876h-.93v5.759z" fill="#C7C7CC"/><path d="M340.411 115.932c4.223 0 7.719-3.504 7.719-7.72 0-4.223-3.504-7.719-7.727-7.719-4.215 0-7.712 3.496-7.712 7.719 0 4.216 3.504 7.72 7.72 7.72zm0-1.286a6.402 6.402 0 01-6.426-6.434 6.396 6.396 0 016.418-6.433 6.42 6.42 0 016.441 6.433 6.404 6.404 0 01-6.433 6.434zm-.068-9.128a.977.977 0 00.983-.984.984.984 0 10-1.967 0c0 .545.439.984.984.984zm-1.257 6.857h3.081c.31 0 .552-.219.552-.53a.537.537 0 00-.552-.53h-.939v-3.852c0-.409-.204-.681-.59-.681h-1.423a.538.538 0 00-.553.53c0 .31.243.53.553.53h.81v3.473h-.939a.537.537 0 00-.552.53c0 .311.242.53.552.53z" fill="#1677FA"/><path d="M340.411 115.932c4.223 0 7.719-3.504 7.719-7.72 0-4.223-3.504-7.719-7.727-7.719-4.215 0-7.712 3.496-7.712 7.719 0 4.216 3.504 7.72 7.72 7.72zm0-1.286a6.402 6.402 0 01-6.426-6.434 6.396 6.396 0 016.418-6.433 6.42 6.42 0 016.441 6.433 6.404 6.404 0 01-6.433 6.434zm-.068-9.128a.977.977 0 00.983-.984.984.984 0 10-1.967 0c0 .545.439.984.984.984zm-1.257 6.857h3.081c.31 0 .552-.219.552-.53a.537.537 0 00-.552-.53h-.939v-3.852c0-.409-.204-.681-.59-.681h-1.423a.538.538 0 00-.553.53c0 .31.243.53.553.53h.81v3.473h-.939a.537.537 0 00-.552.53c0 .311.242.53.552.53z" fill="#0075FF"/><rect x="36.662" y="86.088" width="43.765" height="43.765" rx="21.882" fill="#F4F4F5" style="mix-blend-mode:multiply"/><path d="M52.156 112.188c.361 0 .567-.175.698-.58l.68-1.932h3.44l.685 1.938c.125.399.33.574.705.574.405 0 .698-.268.698-.636 0-.119-.025-.237-.087-.411l-2.743-7.424c-.187-.498-.486-.723-.972-.723-.493 0-.798.231-.979.73l-2.736 7.417a1.21 1.21 0 00-.087.411c0 .38.28.636.698.636zm1.733-3.653l1.34-3.945h.037l1.352 3.945h-2.73zm8.457 3.702c1.752 0 2.799-1.034 2.799-2.817v-5.703c0-.448-.268-.723-.698-.723-.436 0-.698.275-.698.723v5.697c0 1.022-.499 1.577-1.415 1.577-.68 0-1.16-.387-1.353-1.085-.112-.411-.324-.592-.679-.592-.399 0-.654.262-.654.686 0 .249.05.43.13.654.368.979 1.34 1.583 2.568 1.583z" fill="#8E8E93"/><path opacity=".4" d="M95.015 136.794h269.059v.049H95.015v-.049z" fill="#9595A6"/><path d="M95.457 163.734h1.683l.748-2.324h3.328l.754 2.324h1.683l-3.191-8.994h-1.814l-3.19 8.994zm4.045-7.323h.106l1.209 3.758h-2.524l1.21-3.758zm7.305 7.436c.898 0 1.621-.387 1.995-1.048h.105v.935h1.534v-4.656c0-1.439-.985-2.287-2.736-2.287-1.621 0-2.718.76-2.868 1.907l-.006.056h1.465l.006-.025c.156-.448.617-.704 1.328-.704.835 0 1.277.374 1.277 1.053v.586l-1.751.106c-1.658.1-2.587.811-2.587 2.026v.012c0 1.241.942 2.039 2.238 2.039zm-.704-2.113v-.013c0-.561.405-.879 1.271-.935l1.533-.099v.548c0 .81-.691 1.421-1.626 1.421-.686 0-1.178-.343-1.178-.922zm6.201 2h1.552v-3.957c0-.973.68-1.59 1.714-1.59.268 0 .524.038.773.087v-1.389a2.459 2.459 0 00-.629-.075c-.898 0-1.521.43-1.752 1.159h-.106v-1.047h-1.552v6.812zm7.081.113c.897 0 1.62-.387 1.994-1.048h.106v.935h1.533v-4.656c0-1.439-.984-2.287-2.736-2.287-1.62 0-2.717.76-2.867 1.907l-.006.056h1.465l.006-.025c.156-.448.617-.704 1.327-.704.836 0 1.278.374 1.278 1.053v.586l-1.751.106c-1.658.1-2.587.811-2.587 2.026v.012c0 1.241.941 2.039 2.238 2.039zm-.705-2.113v-.013c0-.561.406-.879 1.272-.935l1.533-.099v.548c0 .81-.692 1.421-1.627 1.421-.685 0-1.178-.343-1.178-.922zm7.823 2h1.701l2.412-6.812h-1.633l-1.564 5.298h-.106l-1.577-5.298h-1.658l2.425 6.812zm12.11.225c2.156 0 3.509-1.097 3.509-2.849v-.006c0-1.359-.792-2.119-2.686-2.518l-.967-.206c-1.121-.236-1.576-.635-1.576-1.271v-.006c0-.767.71-1.234 1.707-1.234 1.029-.007 1.696.492 1.808 1.19l.012.075h1.54l-.006-.081c-.113-1.446-1.353-2.537-3.347-2.537-1.945 0-3.329 1.085-3.329 2.693v.006c0 1.34.798 2.2 2.637 2.586l.966.2c1.159.249 1.627.642 1.627 1.29v.006c0 .773-.761 1.309-1.845 1.309-1.141 0-1.945-.498-2.02-1.253l-.006-.062h-1.558l.006.087c.112 1.552 1.44 2.581 3.528 2.581zm5.154-.225h1.552v-4.144c0-.848.561-1.496 1.328-1.496.76 0 1.228.467 1.228 1.221v4.419h1.552v-4.257c0-.779.523-1.383 1.334-1.383.828 0 1.234.448 1.234 1.334v4.306h1.552v-4.687c0-1.415-.823-2.256-2.194-2.256-.948 0-1.733.486-2.063 1.228h-.106c-.293-.754-.966-1.228-1.889-1.228-.891 0-1.577.43-1.87 1.191h-.106v-1.06h-1.552v6.812zm12.416-7.953a.918.918 0 00.922-.916.922.922 0 00-.922-.916.924.924 0 00-.929.916.92.92 0 00.929.916zm-.779 7.953h1.552v-6.812h-1.552v6.812zm6.139.032c.299 0 .586-.025.81-.069V162.5a4.462 4.462 0 01-.523.025c-.648 0-.916-.286-.916-.966v-3.434h1.439v-1.203h-1.439v-1.67h-1.577v1.67h-1.06v1.203h1.06v3.802c0 1.315.642 1.839 2.206 1.839zm2.419-.032h1.551v-3.97c0-1.022.574-1.67 1.496-1.67.941 0 1.372.536 1.372 1.595v4.045h1.552v-4.406c0-1.621-.829-2.537-2.35-2.537-.985 0-1.639.443-1.964 1.172h-.106v-3.677h-1.551v9.448z" fill="#000"/><path d="M95.383 177.234h1.01l.775-2.206h3.066l.775 2.206h1.009l-2.842-7.709h-.95l-2.843 7.709zm3.275-6.464h.086l1.207 3.441h-2.5l1.207-3.441zm6.123 6.566c.774 0 1.378-.337 1.741-.951h.086v.849h.929v-3.942c0-1.197-.785-1.918-2.19-1.918-1.229 0-2.105.609-2.255 1.512l-.005.032h.93l.005-.016c.149-.449.604-.705 1.293-.705.86 0 1.293.384 1.293 1.095v.523l-1.651.102c-1.341.08-2.1.673-2.1 1.699v.01c0 1.047.828 1.71 1.924 1.71zm-.973-1.731v-.011c0-.571.385-.881 1.261-.935l1.539-.096v.524c0 .822-.69 1.442-1.635 1.442-.668 0-1.165-.342-1.165-.924zm5.428 1.629h.93v-3.568c0-.844.63-1.405 1.517-1.405.203 0 .379.021.571.053v-.903a3.115 3.115 0 00-.464-.037c-.78 0-1.32.352-1.539.956h-.085v-.855h-.93v5.759zm5.748.102c.775 0 1.379-.337 1.742-.951h.086v.849h.929v-3.942c0-1.197-.785-1.918-2.19-1.918-1.229 0-2.105.609-2.255 1.512l-.005.032h.929l.006-.016c.149-.449.604-.705 1.293-.705.86 0 1.293.384 1.293 1.095v.523l-1.651.102c-1.341.08-2.1.673-2.1 1.699v.01c0 1.047.828 1.71 1.923 1.71zm-.972-1.731v-.011c0-.571.385-.881 1.261-.935l1.539-.096v.524c0 .822-.69 1.442-1.635 1.442-.668 0-1.165-.342-1.165-.924zm6.844 1.629h.94l2.132-5.759h-.983l-1.576 4.744h-.086l-1.576-4.744h-.983l2.132 5.759zm6.945.182c1.72 0 2.847-.898 2.847-2.34v-.005c0-1.111-.635-1.758-2.244-2.116l-.854-.192c-1.047-.23-1.469-.647-1.469-1.261v-.005c0-.807.742-1.261 1.704-1.266 1.004-.006 1.645.496 1.752 1.175l.011.069h.961l-.005-.074c-.08-1.149-1.154-2.057-2.693-2.057-1.592 0-2.708.903-2.713 2.179v.006c0 1.116.667 1.827 2.211 2.169l.855.187c1.058.235 1.501.673 1.501 1.314v.005c0 .786-.764 1.325-1.811 1.325-1.111 0-1.912-.486-1.982-1.255l-.005-.059h-.962l.006.059c.112 1.255 1.202 2.142 2.89 2.142zm4.332-.182h.93v-3.568c0-.812.572-1.469 1.325-1.469.726 0 1.197.443 1.197 1.127v3.91h.929v-3.702c0-.732.529-1.335 1.33-1.335.812 0 1.202.422 1.202 1.271v3.766h.93v-3.98c0-1.207-.657-1.88-1.832-1.88-.796 0-1.454.4-1.763 1.01h-.086c-.267-.599-.812-1.01-1.592-1.01-.753 0-1.298.358-1.555.977h-.085v-.876h-.93v5.759zm10.012-6.87a.642.642 0 00.641-.641.642.642 0 00-.641-.641.642.642 0 00-.641.641c0 .353.288.641.641.641zm-.47 6.87h.929v-5.759h-.929v5.759zm4.728.043c.182 0 .358-.021.539-.053v-.791c-.17.016-.261.021-.427.021-.598 0-.833-.272-.833-.951v-3.258h1.26v-.77h-1.26v-1.49h-.962v1.49h-.908v.77h.908v3.494c0 1.1.497 1.538 1.683 1.538zm1.982-.043h.93v-3.408c0-1.01.582-1.629 1.501-1.629.919 0 1.346.496 1.346 1.533v3.504h.93v-3.729c0-1.367-.722-2.131-2.015-2.131-.849 0-1.389.358-1.677.967h-.085v-3.152h-.93v8.045zm10.792 1.25c.673 0 1.319-.096 1.8-.261v-.673c-.337.155-1.058.256-1.79.256-2.286 0-3.761-1.469-3.761-3.745v-.011c0-2.217 1.501-3.809 3.59-3.809 2.137 0 3.601 1.32 3.601 3.243v.011c0 1.309-.433 2.158-1.106 2.158-.385 0-.604-.219-.604-.593v-3.136h-.806v.652h-.086c-.208-.465-.689-.753-1.25-.753-1.095 0-1.859.908-1.859 2.201v.01c0 1.352.748 2.265 1.859 2.265.625 0 1.106-.304 1.336-.849h.085l.006.032c.085.518.555.866 1.17.866 1.228 0 2.008-1.106 2.008-2.843v-.01c0-2.314-1.757-3.927-4.284-3.927-2.618 0-4.413 1.811-4.413 4.45v.011c0 2.725 1.747 4.455 4.504 4.455zm-.289-2.938c-.7 0-1.127-.566-1.127-1.49v-.011c0-.93.422-1.485 1.138-1.485.726 0 1.191.577 1.191 1.485v.011c0 .908-.47 1.49-1.202 1.49zm5.93 1.688h.93v-3.568c0-.812.571-1.469 1.325-1.469.726 0 1.196.443 1.196 1.127v3.91h.93v-3.702c0-.732.529-1.335 1.33-1.335.812 0 1.202.422 1.202 1.271v3.766h.93v-3.98c0-1.207-.657-1.88-1.833-1.88-.796 0-1.453.4-1.763 1.01h-.085c-.267-.599-.812-1.01-1.592-1.01-.754 0-1.298.358-1.555.977h-.085v-.876h-.93v5.759zm11.102.102c.774 0 1.378-.337 1.741-.951h.086v.849h.929v-3.942c0-1.197-.785-1.918-2.19-1.918-1.229 0-2.105.609-2.255 1.512l-.005.032h.93l.005-.016c.149-.449.604-.705 1.293-.705.86 0 1.293.384 1.293 1.095v.523l-1.651.102c-1.341.08-2.1.673-2.1 1.699v.01c0 1.047.828 1.71 1.924 1.71zm-.973-1.731v-.011c0-.571.385-.881 1.261-.935l1.539-.096v.524c0 .822-.69 1.442-1.635 1.442-.668 0-1.165-.342-1.165-.924zm5.92-5.241a.643.643 0 00.641-.641.643.643 0 00-.641-.641.643.643 0 00-.642.641c0 .353.289.641.642.641zm-.471 6.87h.93v-5.759h-.93v5.759zm2.736 0h.929v-8.045h-.929v8.045zm3.472.054a.693.693 0 10.003-1.391.693.693 0 00-.003 1.391zm4.632.048c1.384 0 2.158-.743 2.393-1.784l.011-.059-.919.005-.01.032c-.214.641-.706.983-1.48.983-1.026 0-1.688-.849-1.688-2.174v-.011c0-1.298.651-2.131 1.688-2.131.828 0 1.341.459 1.485 1.025l.005.016h.925l-.006-.032c-.171-1.026-1.01-1.832-2.409-1.832-1.614 0-2.639 1.164-2.639 2.954v.011c0 1.827 1.031 2.997 2.644 2.997zm6.133 0c1.64 0 2.655-1.133 2.655-2.976v-.011c0-1.848-1.015-2.975-2.655-2.975s-2.655 1.127-2.655 2.975v.011c0 1.843 1.015 2.976 2.655 2.976zm0-.823c-1.09 0-1.704-.796-1.704-2.153v-.011c0-1.362.614-2.152 1.704-2.152 1.09 0 1.704.79 1.704 2.152v.011c0 1.357-.614 2.153-1.704 2.153zm4.098.721h.929v-3.568c0-.812.572-1.469 1.325-1.469.727 0 1.197.443 1.197 1.127v3.91h.929v-3.702c0-.732.529-1.335 1.331-1.335.812 0 1.202.422 1.202 1.271v3.766h.929v-3.98c0-1.207-.657-1.88-1.832-1.88-.796 0-1.453.4-1.763 1.01h-.086c-.267-.599-.812-1.01-1.592-1.01-.753 0-1.298.358-1.554.977h-.086v-.876h-.929v5.759z" fill="#C7C7CC"/><path d="M340.411 174.285c4.223 0 7.719-3.504 7.719-7.72 0-4.223-3.504-7.72-7.727-7.72-4.215 0-7.712 3.497-7.712 7.72 0 4.216 3.504 7.72 7.72 7.72zm0-1.287a6.402 6.402 0 01-6.426-6.433 6.396 6.396 0 016.418-6.433 6.42 6.42 0 016.441 6.433 6.404 6.404 0 01-6.433 6.433zm-.068-9.127a.977.977 0 00.983-.984.984.984 0 10-1.967 0c0 .545.439.984.984.984zm-1.257 6.857h3.081c.31 0 .552-.22.552-.53a.537.537 0 00-.552-.53h-.939v-3.852c0-.409-.204-.681-.59-.681h-1.423a.537.537 0 00-.553.529c0 .311.243.53.553.53h.81v3.474h-.939a.537.537 0 00-.552.53c0 .31.242.53.552.53z" fill="#1677FA"/><path d="M340.411 174.285c4.223 0 7.719-3.504 7.719-7.72 0-4.223-3.504-7.72-7.727-7.72-4.215 0-7.712 3.497-7.712 7.72 0 4.216 3.504 7.72 7.72 7.72zm0-1.287a6.402 6.402 0 01-6.426-6.433 6.396 6.396 0 016.418-6.433 6.42 6.42 0 016.441 6.433 6.404 6.404 0 01-6.433 6.433zm-.068-9.127a.977.977 0 00.983-.984.984.984 0 10-1.967 0c0 .545.439.984.984.984zm-1.257 6.857h3.081c.31 0 .552-.22.552-.53a.537.537 0 00-.552-.53h-.939v-3.852c0-.409-.204-.681-.59-.681h-1.423a.537.537 0 00-.553.529c0 .311.243.53.553.53h.81v3.474h-.939a.537.537 0 00-.552.53c0 .31.242.53.552.53z" fill="#0075FF"/><rect x="36.662" y="144.44" width="43.765" height="43.765" rx="21.882" fill="#F4F4F5" style="mix-blend-mode:multiply"/><path d="M51.601 170.54c.362 0 .567-.174.698-.579l.68-1.933h3.44l.686 1.939c.124.399.33.573.704.573.405 0 .698-.268.698-.636a1.19 1.19 0 00-.087-.411l-2.743-7.423c-.187-.499-.486-.723-.972-.723-.492 0-.798.23-.978.729l-2.737 7.417a1.212 1.212 0 00-.087.411c0 .381.28.636.698.636zm1.733-3.652l1.34-3.946h.037l1.353 3.946h-2.73zm9.355 3.702c2.1 0 3.435-1.066 3.435-2.761 0-1.309-.773-2.063-2.662-2.462l-.978-.206c-1.166-.249-1.633-.685-1.633-1.34 0-.822.779-1.334 1.832-1.334.898 0 1.583.356 1.889 1.185.143.324.349.48.685.48.362 0 .617-.237.617-.599a.954.954 0 00-.05-.324c-.349-1.203-1.57-1.932-3.122-1.932-1.914 0-3.266 1.06-3.266 2.599 0 1.296.816 2.132 2.611 2.512l.985.206c1.203.261 1.677.698 1.677 1.396 0 .804-.817 1.39-1.957 1.39-1.041 0-1.858-.393-2.138-1.235-.137-.336-.343-.479-.66-.479-.381 0-.63.261-.63.666 0 .15.03.3.074.437.35 1.047 1.546 1.801 3.291 1.801z" fill="#8E8E93"/><path opacity=".4" d="M95.015 195.146h269.059v.05H95.015v-.05z" fill="#9595A6"/><path d="M95.457 222.088h1.683l.748-2.325h3.328l.754 2.325h1.683l-3.191-8.994h-1.814l-3.19 8.994zm4.045-7.324h.106l1.209 3.759h-2.524l1.21-3.759zm7.305 7.436c.898 0 1.621-.386 1.995-1.047h.105v.935h1.534v-4.656c0-1.44-.985-2.287-2.736-2.287-1.621 0-2.718.76-2.868 1.907l-.006.056h1.465l.006-.025c.156-.449.617-.704 1.328-.704.835 0 1.277.374 1.277 1.053v.586l-1.751.106c-1.658.1-2.587.81-2.587 2.026v.012c0 1.24.942 2.038 2.238 2.038zm-.704-2.113v-.012c0-.561.405-.879 1.271-.935l1.533-.1v.549c0 .81-.691 1.421-1.626 1.421-.686 0-1.178-.343-1.178-.923zm6.201 2.001h1.552v-3.958c0-.972.68-1.589 1.714-1.589.268 0 .524.037.773.087v-1.39a2.459 2.459 0 00-.629-.075c-.898 0-1.521.43-1.752 1.16h-.106v-1.048h-1.552v6.813zm8.078.137c2.038 0 3.278-1.334 3.278-3.54v-.013c0-2.194-1.246-3.527-3.278-3.527-2.026 0-3.278 1.34-3.278 3.527v.013c0 2.206 1.234 3.54 3.278 3.54zm0-1.259c-1.078 0-1.695-.841-1.695-2.275v-.012c0-1.434.617-2.282 1.695-2.282 1.072 0 1.689.848 1.689 2.282v.012c0 1.434-.611 2.275-1.689 2.275zm4.899 1.122h1.552v-3.97c0-1.023.573-1.671 1.496-1.671.941 0 1.371.536 1.371 1.596v4.045h1.552v-4.407c0-1.62-.829-2.536-2.35-2.536-.985 0-1.639.442-1.963 1.171h-.106v-3.677h-1.552v9.449zm9.661.112c.897 0 1.62-.386 1.994-1.047h.106v.935h1.533v-4.656c0-1.44-.984-2.287-2.736-2.287-1.62 0-2.717.76-2.867 1.907l-.006.056h1.465l.006-.025c.156-.449.617-.704 1.327-.704.836 0 1.278.374 1.278 1.053v.586l-1.751.106c-1.658.1-2.587.81-2.587 2.026v.012c0 1.24.941 2.038 2.238 2.038zm-.705-2.113v-.012c0-.561.406-.879 1.272-.935l1.533-.1v.549c0 .81-.692 1.421-1.627 1.421-.685 0-1.178-.343-1.178-.923zm11.618 2.001h1.515l1.82-6.439h.093l1.833 6.439h1.508l2.412-8.994h-1.664l-1.539 6.75h-.088l-1.795-6.75h-1.427l-1.77 6.75h-.094l-1.539-6.75h-1.677l2.412 8.994zm11.475-7.953a.918.918 0 00.922-.916.925.925 0 00-1.851 0 .92.92 0 00.929.916zm-.779 7.953h1.552v-6.813h-1.552v6.813zm3.521 0h1.552v-9.449h-1.552v9.449zm3.578 0h1.552v-9.449h-1.552v9.449zm4.313-7.953a.918.918 0 00.922-.916.925.925 0 00-1.851 0 .92.92 0 00.929.916zm-.779 7.953h1.552v-6.813h-1.552v6.813zm5.316.112c.898 0 1.621-.386 1.995-1.047h.106v.935h1.533v-4.656c0-1.44-.985-2.287-2.736-2.287-1.621 0-2.718.76-2.867 1.907l-.006.056h1.464l.007-.025c.155-.449.617-.704 1.327-.704.835 0 1.278.374 1.278 1.053v.586l-1.752.106c-1.657.1-2.586.81-2.586 2.026v.012c0 1.24.941 2.038 2.237 2.038zm-.704-2.113v-.012c0-.561.405-.879 1.272-.935l1.533-.1v.549c0 .81-.692 1.421-1.627 1.421-.686 0-1.178-.343-1.178-.923zm6.202 2.001h1.552v-4.145c0-.848.561-1.496 1.327-1.496.761 0 1.228.468 1.228 1.222v4.419h1.552v-4.257c0-.779.524-1.384 1.334-1.384.829 0 1.234.449 1.234 1.334v4.307h1.552v-4.687c0-1.415-.823-2.256-2.194-2.256-.947 0-1.733.486-2.063 1.227h-.106c-.293-.754-.966-1.227-1.889-1.227-.891 0-1.576.43-1.869 1.19h-.106v-1.06h-1.552v6.813zm14.192.137c1.676 0 2.892-.866 2.892-2.163v-.012c0-.991-.63-1.558-1.964-1.858l-1.103-.243c-.735-.168-1.022-.411-1.022-.81v-.006c0-.511.499-.848 1.19-.848.73 0 1.178.349 1.291.779l.006.019h1.458v-.012c-.099-1.104-1.09-1.926-2.748-1.926-1.608 0-2.73.847-2.73 2.075v.006c0 1.004.617 1.615 1.913 1.901l1.103.25c.748.168 1.048.43 1.048.829v.012c0 .511-.536.86-1.309.86-.773 0-1.228-.33-1.39-.804l-.006-.012h-1.54v.012c.131 1.153 1.178 1.951 2.911 1.951z" fill="#000"/><path d="M95.383 235.588h1.01l.775-2.207h3.066l.775 2.207h1.009l-2.842-7.709h-.95l-2.843 7.709zm3.275-6.464h.086l1.207 3.44h-2.5l1.207-3.44zm6.123 6.565c.774 0 1.378-.336 1.741-.951h.086v.85h.929v-3.943c0-1.196-.785-1.918-2.19-1.918-1.229 0-2.105.609-2.255 1.512l-.005.032h.93l.005-.016c.149-.449.604-.705 1.293-.705.86 0 1.293.385 1.293 1.095v.524l-1.651.101c-1.341.08-2.1.673-2.1 1.699v.011c0 1.047.828 1.709 1.924 1.709zm-.973-1.731v-.01c0-.572.385-.882 1.261-.935l1.539-.096v.523c0 .823-.69 1.443-1.635 1.443-.668 0-1.165-.342-1.165-.925zm5.428 1.63h.93v-3.569c0-.844.63-1.405 1.517-1.405.203 0 .379.022.571.054v-.903a3.092 3.092 0 00-.464-.038c-.78 0-1.32.353-1.539.957h-.085v-.855h-.93v5.759zm6.373.101c1.641 0 2.656-1.132 2.656-2.975v-.011c0-1.848-1.015-2.976-2.656-2.976-1.64 0-2.655 1.128-2.655 2.976v.011c0 1.843 1.015 2.975 2.655 2.975zm0-.822c-1.089 0-1.704-.796-1.704-2.153v-.011c0-1.362.615-2.153 1.704-2.153 1.09 0 1.705.791 1.705 2.153v.011c0 1.357-.615 2.153-1.705 2.153zm4.152.721h.929v-3.409c0-1.009.582-1.629 1.501-1.629.919 0 1.347.497 1.347 1.533v3.505h.929v-3.729c0-1.368-.721-2.132-2.014-2.132-.849 0-1.389.358-1.677.967h-.086v-3.152h-.929v8.046zm7.97.101c.775 0 1.379-.336 1.742-.951h.085v.85h.93v-3.943c0-1.196-.785-1.918-2.19-1.918-1.229 0-2.105.609-2.255 1.512l-.005.032h.929l.006-.016c.149-.449.603-.705 1.293-.705.86 0 1.292.385 1.292 1.095v.524l-1.65.101c-1.341.08-2.1.673-2.1 1.699v.011c0 1.047.828 1.709 1.923 1.709zm-.972-1.731v-.01c0-.572.385-.882 1.261-.935l1.538-.096v.523c0 .823-.689 1.443-1.634 1.443-.668 0-1.165-.342-1.165-.925zm6.609 1.63h.908l1.773-6.085h.065l1.773 6.085h.908l2.1-7.709h-1.004l-1.534 6.266h-.064l-1.725-6.266h-.973l-1.725 6.266h-.064l-1.534-6.266h-1.004l2.1 7.709zm9.365-6.87a.644.644 0 00.641-.641.644.644 0 00-.641-.642.643.643 0 00-.641.642c0 .352.288.641.641.641zm-.47 6.87h.929v-5.759h-.929v5.759zm2.735 0h.929v-8.046h-.929v8.046zm2.767 0h.93v-8.046h-.93v8.046zm3.206-6.87a.644.644 0 00.641-.641.644.644 0 00-.641-.642.643.643 0 00-.641.642c0 .352.288.641.641.641zm-.47 6.87h.929v-5.759h-.929v5.759zm4.263.101c.774 0 1.378-.336 1.741-.951h.086v.85h.929v-3.943c0-1.196-.785-1.918-2.19-1.918-1.229 0-2.105.609-2.254 1.512l-.006.032h.93l.005-.016c.15-.449.604-.705 1.293-.705.86 0 1.293.385 1.293 1.095v.524l-1.651.101c-1.341.08-2.1.673-2.1 1.699v.011c0 1.047.829 1.709 1.924 1.709zm-.973-1.731v-.01c0-.572.385-.882 1.261-.935l1.539-.096v.523c0 .823-.689 1.443-1.635 1.443-.668 0-1.165-.342-1.165-.925zm5.428 1.63h.93v-3.569c0-.812.571-1.469 1.325-1.469.726 0 1.196.443 1.196 1.127v3.911h.93v-3.702c0-.732.529-1.336 1.33-1.336.812 0 1.202.422 1.202 1.272v3.766h.93v-3.98c0-1.208-.657-1.881-1.833-1.881-.796 0-1.453.401-1.763 1.01h-.085c-.267-.598-.812-1.01-1.592-1.01-.753 0-1.298.358-1.555.978h-.085v-.876h-.93v5.759zm11.497.101c1.309 0 2.308-.71 2.308-1.736v-.011c0-.822-.524-1.292-1.608-1.554l-.887-.214c-.678-.165-.967-.411-.967-.801v-.011c0-.507.502-.86 1.186-.86.695 0 1.143.315 1.266.769h.914c-.128-.94-.967-1.544-2.175-1.544-1.223 0-2.142.722-2.142 1.678v.005c0 .828.486 1.298 1.565 1.555l.893.213c.71.171 1.004.444 1.004.834v.011c0 .523-.55.892-1.325.892-.737 0-1.197-.315-1.352-.796h-.95c.106.951.988 1.57 2.27 1.57zm8.153 1.149c.673 0 1.319-.096 1.8-.262v-.673c-.337.155-1.058.257-1.79.257-2.286 0-3.761-1.47-3.761-3.745v-.011c0-2.217 1.501-3.809 3.59-3.809 2.137 0 3.601 1.319 3.601 3.243v.01c0 1.309-.433 2.159-1.106 2.159-.385 0-.604-.219-.604-.593v-3.136h-.806v.651h-.086c-.208-.464-.689-.753-1.25-.753-1.095 0-1.859.908-1.859 2.201v.011c0 1.351.748 2.265 1.859 2.265.625 0 1.106-.305 1.336-.849h.085l.006.032c.085.518.555.865 1.17.865 1.228 0 2.008-1.106 2.008-2.842v-.011c0-2.313-1.757-3.926-4.284-3.926-2.618 0-4.413 1.811-4.413 4.45v.01c0 2.725 1.747 4.456 4.504 4.456zm-.289-2.938c-.7 0-1.127-.567-1.127-1.491v-.011c0-.929.422-1.485 1.138-1.485.726 0 1.191.577 1.191 1.485v.011c0 .908-.47 1.491-1.202 1.491zm5.93 1.688h.93v-3.569c0-.812.571-1.469 1.325-1.469.726 0 1.196.443 1.196 1.127v3.911h.93v-3.702c0-.732.529-1.336 1.33-1.336.812 0 1.202.422 1.202 1.272v3.766h.93v-3.98c0-1.208-.657-1.881-1.833-1.881-.796 0-1.453.401-1.763 1.01h-.085c-.267-.598-.812-1.01-1.592-1.01-.754 0-1.298.358-1.555.978h-.085v-.876h-.93v5.759zm11.102.101c.774 0 1.378-.336 1.741-.951h.086v.85h.929v-3.943c0-1.196-.785-1.918-2.19-1.918-1.229 0-2.105.609-2.255 1.512l-.005.032h.93l.005-.016c.149-.449.604-.705 1.293-.705.86 0 1.293.385 1.293 1.095v.524l-1.651.101c-1.341.08-2.1.673-2.1 1.699v.011c0 1.047.828 1.709 1.924 1.709zm-.973-1.731v-.01c0-.572.385-.882 1.261-.935l1.539-.096v.523c0 .823-.69 1.443-1.635 1.443-.668 0-1.165-.342-1.165-.925zm5.92-5.24a.644.644 0 00.641-.641.644.644 0 00-.641-.642.644.644 0 00-.642.642c0 .352.289.641.642.641zm-.471 6.87h.93v-5.759h-.93v5.759zm2.736 0h.929v-8.046h-.929v8.046zm3.472.053a.694.694 0 10.003-1.391.694.694 0 00-.003 1.391zm4.632.048c1.384 0 2.158-.742 2.393-1.784l.011-.059-.919.006-.01.032c-.214.641-.706.983-1.48.983-1.026 0-1.688-.85-1.688-2.175v-.01c0-1.299.651-2.132 1.688-2.132.828 0 1.341.459 1.485 1.026l.005.016h.924l-.005-.032c-.171-1.026-1.01-1.833-2.409-1.833-1.614 0-2.639 1.165-2.639 2.955v.01c0 1.827 1.031 2.997 2.644 2.997zm6.133 0c1.64 0 2.655-1.132 2.655-2.975v-.011c0-1.848-1.015-2.976-2.655-2.976s-2.655 1.128-2.655 2.976v.011c0 1.843 1.015 2.975 2.655 2.975zm0-.822c-1.09 0-1.704-.796-1.704-2.153v-.011c0-1.362.614-2.153 1.704-2.153 1.09 0 1.704.791 1.704 2.153v.011c0 1.357-.614 2.153-1.704 2.153zm4.098.721h.929v-3.569c0-.812.572-1.469 1.325-1.469.727 0 1.197.443 1.197 1.127v3.911h.929v-3.702c0-.732.529-1.336 1.331-1.336.812 0 1.202.422 1.202 1.272v3.766h.929v-3.98c0-1.208-.657-1.881-1.832-1.881-.796 0-1.453.401-1.763 1.01h-.086c-.267-.598-.812-1.01-1.592-1.01-.753 0-1.298.358-1.554.978h-.086v-.876h-.929v5.759z" fill="#C7C7CC"/><path d="M340.411 232.638c4.223 0 7.719-3.504 7.719-7.72 0-4.223-3.504-7.719-7.727-7.719-4.215 0-7.712 3.496-7.712 7.719 0 4.216 3.504 7.72 7.72 7.72zm0-1.286a6.402 6.402 0 01-6.426-6.434 6.396 6.396 0 016.418-6.433 6.42 6.42 0 016.441 6.433 6.404 6.404 0 01-6.433 6.434zm-.068-9.128a.977.977 0 00.983-.984.984.984 0 10-1.967 0c0 .545.439.984.984.984zm-1.257 6.857h3.081c.31 0 .552-.219.552-.53a.537.537 0 00-.552-.53h-.939v-3.852c0-.409-.204-.681-.59-.681h-1.423a.538.538 0 00-.553.53c0 .31.243.53.553.53h.81v3.473h-.939a.537.537 0 00-.552.53c0 .311.242.53.552.53z" fill="#1677FA"/><path d="M340.411 232.638c4.223 0 7.719-3.504 7.719-7.72 0-4.223-3.504-7.719-7.727-7.719-4.215 0-7.712 3.496-7.712 7.719 0 4.216 3.504 7.72 7.72 7.72zm0-1.286a6.402 6.402 0 01-6.426-6.434 6.396 6.396 0 016.418-6.433 6.42 6.42 0 016.441 6.433 6.404 6.404 0 01-6.433 6.434zm-.068-9.128a.977.977 0 00.983-.984.984.984 0 10-1.967 0c0 .545.439.984.984.984zm-1.257 6.857h3.081c.31 0 .552-.219.552-.53a.537.537 0 00-.552-.53h-.939v-3.852c0-.409-.204-.681-.59-.681h-1.423a.538.538 0 00-.553.53c0 .31.243.53.553.53h.81v3.473h-.939a.537.537 0 00-.552.53c0 .311.242.53.552.53z" fill="#0075FF"/><rect x="36.662" y="202.794" width="43.765" height="43.765" rx="21.882" fill="#F4F4F5" style="mix-blend-mode:multiply"/><path d="M49.856 228.894c.361 0 .567-.175.698-.58l.68-1.932h3.44l.685 1.938c.125.399.33.574.705.574.405 0 .698-.268.698-.636 0-.118-.025-.237-.087-.411l-2.743-7.424c-.187-.498-.486-.723-.972-.723-.492 0-.798.231-.979.73l-2.736 7.417a1.21 1.21 0 00-.087.411c0 .38.28.636.698.636zm1.733-3.653l1.34-3.945h.037l1.353 3.945h-2.73zm8.065 3.653c.436 0 .68-.206.816-.686l1.79-6.195h.062l1.795 6.195c.137.486.373.686.816.686.424 0 .66-.212.798-.686l2.082-7.454c.05-.169.068-.299.068-.424 0-.38-.274-.63-.686-.63-.361 0-.592.194-.685.58l-1.614 6.563h-.05l-1.764-6.457c-.125-.474-.368-.686-.785-.686-.43 0-.667.206-.798.705l-1.758 6.438h-.05l-1.62-6.563c-.087-.38-.312-.58-.68-.58-.411 0-.685.25-.685.63 0 .125.018.255.062.424l2.088 7.448c.131.48.368.692.798.692z" fill="#8E8E93"/></g></g><g filter="url(#filter1_d)"><rect x="135.588" y="93.382" width="295.412" height="248" rx="10.941" fill="#fff"/><g clip-path="url(#clip1)"><path d="M207.291 122.018c2.156 0 3.509-1.097 3.509-2.848v-.006c0-1.359-.792-2.119-2.687-2.518l-.966-.206c-1.122-.237-1.577-.636-1.577-1.271v-.007c0-.766.711-1.234 1.708-1.234 1.029-.006 1.695.493 1.808 1.191l.012.074h1.54l-.007-.081c-.112-1.446-1.352-2.536-3.347-2.536-1.944 0-3.328 1.084-3.328 2.692v.006c0 1.341.798 2.201 2.637 2.587l.966.2c1.159.249 1.626.641 1.626 1.29v.006c0 .773-.76 1.309-1.844 1.309-1.141 0-1.945-.499-2.02-1.253l-.006-.062h-1.558l.006.087c.112 1.552 1.44 2.58 3.528 2.58zm5.216-.224h1.552v-2.393l.543-.555 2.187 2.948h1.87l-2.929-3.933 2.742-2.879h-1.795l-2.512 2.792h-.106v-5.429h-1.552v9.449zm9.886.137c1.851 0 2.761-1.066 2.979-1.945l.019-.056h-1.478l-.018.044c-.15.312-.63.735-1.471.735-1.054 0-1.714-.71-1.733-1.932h4.762v-.511c0-2.057-1.197-3.415-3.135-3.415-1.939 0-3.179 1.402-3.179 3.546v.006c0 2.169 1.228 3.528 3.254 3.528zm-.056-5.865c.866 0 1.495.555 1.601 1.67h-3.234c.118-1.084.766-1.67 1.633-1.67zm7.348 5.759c.299 0 .586-.025.81-.068v-1.197a4.462 4.462 0 01-.523.025c-.649 0-.917-.287-.917-.966v-3.435h1.44v-1.202h-1.44v-1.671h-1.576v1.671h-1.06v1.202h1.06v3.802c0 1.316.642 1.839 2.206 1.839zm5.217.106c1.726 0 2.73-.929 2.954-2.325l.013-.05-1.465.007-.013.025c-.193.716-.685 1.084-1.489 1.084-1.054 0-1.683-.848-1.683-2.294v-.012c0-1.427.623-2.263 1.683-2.263.847 0 1.352.474 1.496 1.135l.006.018h1.465v-.024c-.175-1.409-1.222-2.381-2.973-2.381-2.051 0-3.254 1.315-3.254 3.515v.012c0 2.225 1.209 3.553 3.26 3.553zm4.506-.137h1.552v-3.97c0-1.023.573-1.671 1.496-1.671.941 0 1.371.536 1.371 1.596v4.045h1.552v-4.407c0-1.62-.829-2.536-2.35-2.536-.984 0-1.639.442-1.963 1.171h-.106v-3.677h-1.552v9.449zm8.601-7.953a.92.92 0 00.923-.916.923.923 0 00-.923-.916.924.924 0 00-.928.916.92.92 0 00.928.916zm-.779 7.953h1.552v-6.812h-1.552v6.812zm3.459 0h1.552v-3.97c0-1.023.574-1.671 1.496-1.671.941 0 1.371.536 1.371 1.596v4.045h1.552v-4.407c0-1.62-.829-2.536-2.349-2.536-.985 0-1.64.442-1.964 1.171h-.106v-1.04h-1.552v6.812zm10.733 2.393c1.988 0 3.247-.991 3.247-2.561v-6.644h-1.551v1.121h-.081c-.387-.772-1.122-1.234-2.064-1.234-1.757 0-2.829 1.359-2.829 3.329v.012c0 1.932 1.072 3.266 2.798 3.266.941 0 1.683-.399 2.076-1.128h.106v1.303c0 .872-.617 1.365-1.677 1.365-.866 0-1.384-.306-1.489-.742l-.007-.019h-1.552l-.006.019c.156 1.147 1.234 1.913 3.029 1.913zm0-3.945c-1.078 0-1.689-.829-1.689-2.032v-.012c0-1.203.611-2.038 1.689-2.038 1.072 0 1.727.835 1.727 2.038v.012c0 1.203-.649 2.032-1.727 2.032z" fill="#000"/><path d="M206.195 137.569h.641v-.898c1.26-.101 2.308-.823 2.308-2.105v-.011c0-1.116-.77-1.682-2.143-2.014l-.165-.037v-2.452c.721.091 1.234.534 1.303 1.25v.011l.93-.006v-.005c-.043-1.175-.999-1.977-2.233-2.089v-.903h-.641v.903c-1.267.118-2.169.898-2.169 2.041v.011c0 1.047.715 1.64 2.046 1.96l.123.032v2.57c-.93-.102-1.341-.63-1.438-1.293v-.011l-.929.006v.005c.043 1.24 1.095 2.014 2.367 2.132v.903zm-1.24-6.369v-.01c0-.513.428-1.026 1.24-1.138v2.297c-.919-.224-1.24-.63-1.24-1.149zm1.913 2.218c1.057.256 1.346.63 1.346 1.212v.011c0 .614-.385 1.117-1.378 1.197v-2.426l.032.006zm3.942 3.376h4.99v-.866h-3.654v-.085l1.752-1.811c1.395-1.437 1.774-2.078 1.774-2.96v-.01c0-1.245-1.031-2.159-2.377-2.159-1.475 0-2.533.983-2.538 2.351l.011.005.919.006.005-.011c0-.908.614-1.512 1.538-1.512.909 0 1.459.609 1.459 1.421v.011c0 .673-.289 1.074-1.272 2.137l-2.607 2.82v.663zm9.136.182c1.565 0 2.682-1.085 2.682-2.64v-.01c0-1.491-1.042-2.575-2.49-2.575-.7 0-1.303.283-1.645.801h-.086l.262-2.607h3.531v-.86h-4.29l-.406 4.429h.834c.096-.182.219-.331.352-.46.332-.315.77-.47 1.283-.47.999 0 1.714.732 1.714 1.758v.01c0 1.042-.705 1.774-1.73 1.774-.903 0-1.571-.588-1.662-1.325l-.005-.042h-.925l.006.058c.112 1.234 1.138 2.159 2.575 2.159zm4.621-.129a.696.696 0 000-1.389.697.697 0 00-.695.695.7.7 0 00.695.694zm4.637.129c1.704 0 2.73-1.555 2.73-4.034v-.011c0-2.478-1.026-4.028-2.73-4.028s-2.719 1.55-2.719 4.028v.011c0 2.479 1.015 4.034 2.719 4.034zm0-.839c-1.106 0-1.752-1.229-1.752-3.195v-.011c0-1.966.646-3.184 1.752-3.184 1.106 0 1.763 1.218 1.763 3.184v.011c0 1.966-.657 3.195-1.763 3.195zm6.892.839c1.704 0 2.73-1.555 2.73-4.034v-.011c0-2.478-1.026-4.028-2.73-4.028s-2.719 1.55-2.719 4.028v.011c0 2.479 1.015 4.034 2.719 4.034zm0-.839c-1.106 0-1.752-1.229-1.752-3.195v-.011c0-1.966.646-3.184 1.752-3.184 1.106 0 1.763 1.218 1.763 3.184v.011c0 1.966-.657 3.195-1.763 3.195z" fill="#C7C7CC"/><path d="M377.432 124.608c.199 0 .349-.137.349-.355v-.785c1.589-.113 2.836-.973 2.836-2.506 0-1.328-.898-2.001-2.537-2.381l-.299-.075v-2.599c.692.088 1.141.461 1.402 1.11.131.299.337.48.661.48.362 0 .611-.231.611-.568 0-.112-.013-.211-.044-.317-.293-1.029-1.302-1.733-2.63-1.839v-.792c0-.218-.15-.355-.349-.355-.206 0-.355.137-.355.355v.792c-1.571.118-2.693 1.035-2.693 2.437 0 1.265.854 1.976 2.437 2.343l.256.063v2.717c-.892-.093-1.334-.53-1.54-1.115-.131-.331-.349-.487-.648-.487-.38 0-.623.243-.623.599 0 .099.018.212.05.318.299 1.041 1.383 1.72 2.761 1.82v.785c0 .218.149.355.355.355zm-1.726-7.504c0-.573.473-1.091 1.371-1.197v2.437c-.997-.255-1.371-.673-1.371-1.24zm3.59 3.983c0 .667-.449 1.171-1.515 1.252v-2.555c1.159.274 1.515.654 1.515 1.303zm3.665 2.53h4.967c.38 0 .617-.237.617-.586 0-.355-.237-.592-.617-.592h-3.733v-.031l2.144-2.15c1.514-1.515 1.994-2.238 1.994-3.26 0-1.483-1.215-2.543-2.935-2.543-1.789 0-2.83 1.103-3.023 2.051a1.104 1.104 0 00-.038.293c0 .349.225.592.617.592.343 0 .505-.169.63-.449.305-.879.922-1.334 1.807-1.334.904 0 1.565.623 1.565 1.477 0 .717-.287 1.178-1.465 2.375l-2.805 2.842c-.305.305-.392.455-.392.729 0 .349.243.586.667.586zm10.284.168c1.938 0 3.297-1.283 3.297-3.135 0-1.726-1.228-2.948-2.961-2.948-.891 0-1.633.331-2.019.892h-.031l.261-2.793h3.684c.374 0 .617-.237.617-.592s-.243-.586-.617-.586h-3.821c-.685 0-1.016.268-1.078.948l-.293 3.465c-.006.05-.006.081-.006.119-.013.392.218.71.66.71.331 0 .462-.068.848-.467a2.063 2.063 0 011.471-.593c1.122 0 1.92.78 1.92 1.883 0 1.128-.792 1.926-1.92 1.926-.916 0-1.558-.455-1.851-1.247-.143-.324-.318-.449-.63-.449-.38 0-.617.231-.617.611 0 .225.05.412.137.605.431.991 1.59 1.651 2.949 1.651zm5.659-.099a.811.811 0 00.816-.817.81.81 0 00-.816-.816.811.811 0 00-.817.816c0 .455.362.817.817.817zm5.641.099c2.156 0 3.527-1.813 3.527-4.68 0-2.849-1.377-4.65-3.527-4.65-2.151 0-3.534 1.808-3.534 4.656 0 2.867 1.371 4.674 3.534 4.674zm0-1.171c-1.284 0-2.12-1.334-2.12-3.503 0-2.138.848-3.484 2.12-3.484 1.277 0 2.119 1.34 2.119 3.484 0 2.175-.835 3.503-2.119 3.503zm7.915 1.171c2.157 0 3.528-1.813 3.528-4.68 0-2.849-1.378-4.65-3.528-4.65-2.15 0-3.534 1.808-3.534 4.656 0 2.867 1.371 4.674 3.534 4.674zm0-1.171c-1.284 0-2.119-1.334-2.119-3.503 0-2.138.848-3.484 2.119-3.484 1.278 0 2.119 1.34 2.119 3.484 0 2.175-.835 3.503-2.119 3.503z" fill="#000"/><rect x="144.706" y="102.5" width="43.765" height="43.765" rx="7.294" fill="#F4F4F5" style="mix-blend-mode:multiply"/><path d="M163.811 128.334h8.832a.56.56 0 00.553-.567.56.56 0 00-.553-.568h-8.704c-.431 0-.696-.303-.764-.764l-.121-.795h9.604c1.105 0 1.673-.681 1.832-1.763l.605-4.004c.015-.098.031-.219.031-.288 0-.363-.273-.613-.689-.613h-12.359l-.144-.961c-.076-.583-.288-.878-1.06-.878h-2.656a.575.575 0 00-.56.568c0 .31.257.575.56.575h2.558l1.211 8.31c.159 1.075.726 1.748 1.824 1.748zm10.028-8.219l-.537 3.625c-.061.47-.311.757-.757.757l-9.658.008-.643-4.39h11.595zm-9.43 11.898c.681 0 1.226-.538 1.226-1.226a1.22 1.22 0 00-1.226-1.226c-.689 0-1.234.544-1.234 1.226 0 .688.545 1.226 1.234 1.226zm7.076 0c.689 0 1.234-.538 1.234-1.226 0-.682-.545-1.226-1.234-1.226a1.227 1.227 0 100 2.452z" fill="#8E8E93"/><path opacity=".4" d="M201.235 155.382H431v-.301H201.235v.301z" fill="#9595A6"/></g><g clip-path="url(#clip2)"><path d="M204.168 183.794h1.608v-2.973h1.982c1.826 0 3.06-1.209 3.06-3.004v-.013c0-1.801-1.234-3.004-3.06-3.004h-3.59v8.994zm3.197-7.679c1.153 0 1.827.617 1.827 1.695v.013c0 1.078-.674 1.702-1.827 1.702h-1.589v-3.41h1.589zm5.068 7.679h1.552v-3.958c0-.972.679-1.589 1.714-1.589.268 0 .523.037.773.087v-1.39a2.52 2.52 0 00-.63-.075c-.898 0-1.521.43-1.751 1.16h-.106v-1.047h-1.552v6.812zm8.077.137c2.038 0 3.279-1.334 3.279-3.54v-.013c0-2.194-1.247-3.527-3.279-3.527-2.025 0-3.278 1.34-3.278 3.527v.013c0 2.206 1.234 3.54 3.278 3.54zm0-1.259c-1.078 0-1.695-.841-1.695-2.275v-.012c0-1.434.617-2.282 1.695-2.282 1.072 0 1.689.848 1.689 2.282v.012c0 1.434-.61 2.275-1.689 2.275zm7.517 1.153c.299 0 .586-.025.81-.068v-1.197a4.462 4.462 0 01-.523.025c-.648 0-.916-.287-.916-.966v-3.435h1.439v-1.202h-1.439v-1.671h-1.577v1.671h-1.06v1.202h1.06v3.802c0 1.316.642 1.839 2.206 1.839zm5.236.106c2.038 0 3.278-1.334 3.278-3.54v-.013c0-2.194-1.247-3.527-3.278-3.527-2.026 0-3.279 1.34-3.279 3.527v.013c0 2.206 1.234 3.54 3.279 3.54zm0-1.259c-1.079 0-1.696-.841-1.696-2.275v-.012c0-1.434.617-2.282 1.696-2.282 1.072 0 1.689.848 1.689 2.282v.012c0 1.434-.611 2.275-1.689 2.275zm7.516 1.153c.299 0 .586-.025.811-.068v-1.197a4.48 4.48 0 01-.524.025c-.648 0-.916-.287-.916-.966v-3.435h1.44v-1.202h-1.44v-1.671h-1.577v1.671h-1.06v1.202h1.06v3.802c0 1.316.642 1.839 2.206 1.839zm3.086 2.362c1.508 0 2.287-.542 2.873-2.25l2.443-6.955h-1.633l-1.583 5.322h-.118l-1.59-5.322h-1.695l2.437 6.818-.081.312c-.168.617-.549.879-1.184.879a5.26 5.26 0 01-.462-.019v1.19c.187.019.406.025.593.025zm6.65-.131h1.552v-3.347h.106c.355.736 1.134 1.197 2.069 1.197 1.727 0 2.799-1.34 2.799-3.509v-.012c0-2.157-1.091-3.516-2.799-3.516-.954 0-1.695.437-2.069 1.178h-.106v-1.065h-1.552v9.074zm3.241-3.459c-1.053 0-1.708-.841-1.708-2.206v-.013c0-1.365.655-2.2 1.708-2.2 1.059 0 1.701.835 1.701 2.207v.012c0 1.365-.642 2.2-1.701 2.2zm7.766 1.334c1.851 0 2.761-1.066 2.979-1.945l.019-.056h-1.477l-.019.044c-.15.312-.629.735-1.471.735-1.053 0-1.714-.71-1.733-1.932h4.762v-.511c0-2.057-1.196-3.415-3.135-3.415-1.938 0-3.179 1.402-3.179 3.546v.006c0 2.169 1.228 3.528 3.254 3.528zm-.056-5.865c.866 0 1.496.555 1.602 1.67h-3.235c.118-1.084.766-1.67 1.633-1.67z" fill="#000"/><path d="M206.195 199.569h.641v-.898c1.26-.101 2.308-.823 2.308-2.105v-.011c0-1.116-.77-1.682-2.143-2.014l-.165-.037v-2.452c.721.091 1.234.534 1.303 1.25v.011l.93-.006v-.005c-.043-1.175-.999-1.977-2.233-2.089v-.903h-.641v.903c-1.267.118-2.169.898-2.169 2.041v.011c0 1.047.715 1.64 2.046 1.96l.123.032v2.57c-.93-.102-1.341-.63-1.438-1.293v-.011l-.929.006v.005c.043 1.24 1.095 2.014 2.367 2.132v.903zm-1.24-6.369v-.01c0-.513.428-1.026 1.24-1.138v2.297c-.919-.224-1.24-.63-1.24-1.149zm1.913 2.218c1.057.256 1.346.63 1.346 1.212v.011c0 .614-.385 1.117-1.378 1.197v-2.426l.032.006zm3.942 3.376h4.99v-.866h-3.654v-.085l1.752-1.811c1.395-1.437 1.774-2.078 1.774-2.96v-.01c0-1.245-1.031-2.159-2.377-2.159-1.475 0-2.533.983-2.538 2.351l.011.005.919.006.005-.011c0-.908.614-1.512 1.538-1.512.909 0 1.459.609 1.459 1.421v.011c0 .673-.289 1.074-1.272 2.137l-2.607 2.82v.663zm9.136.182c1.565 0 2.682-1.085 2.682-2.64v-.01c0-1.491-1.042-2.575-2.49-2.575-.7 0-1.303.283-1.645.801h-.086l.262-2.607h3.531v-.86h-4.29l-.406 4.429h.834c.096-.182.219-.331.352-.46.332-.315.77-.47 1.283-.47.999 0 1.714.732 1.714 1.758v.01c0 1.042-.705 1.774-1.73 1.774-.903 0-1.571-.588-1.662-1.325l-.005-.042h-.925l.006.058c.112 1.234 1.138 2.159 2.575 2.159zm4.621-.129a.696.696 0 000-1.389.697.697 0 00-.695.695.7.7 0 00.695.694zm4.637.129c1.704 0 2.73-1.555 2.73-4.034v-.011c0-2.478-1.026-4.028-2.73-4.028s-2.719 1.55-2.719 4.028v.011c0 2.479 1.015 4.034 2.719 4.034zm0-.839c-1.106 0-1.752-1.229-1.752-3.195v-.011c0-1.966.646-3.184 1.752-3.184 1.106 0 1.763 1.218 1.763 3.184v.011c0 1.966-.657 3.195-1.763 3.195zm6.892.839c1.704 0 2.73-1.555 2.73-4.034v-.011c0-2.478-1.026-4.028-2.73-4.028s-2.719 1.55-2.719 4.028v.011c0 2.479 1.015 4.034 2.719 4.034zm0-.839c-1.106 0-1.752-1.229-1.752-3.195v-.011c0-1.966.646-3.184 1.752-3.184 1.106 0 1.763 1.218 1.763 3.184v.011c0 1.966-.657 3.195-1.763 3.195z" fill="#C7C7CC"/><path d="M377.432 186.608c.199 0 .349-.137.349-.355v-.785c1.589-.113 2.836-.973 2.836-2.506 0-1.328-.898-2.001-2.537-2.381l-.299-.075v-2.599c.692.088 1.141.461 1.402 1.11.131.299.337.48.661.48.362 0 .611-.231.611-.568 0-.112-.013-.211-.044-.317-.293-1.029-1.302-1.733-2.63-1.839v-.792c0-.218-.15-.355-.349-.355-.206 0-.355.137-.355.355v.792c-1.571.118-2.693 1.035-2.693 2.437 0 1.265.854 1.976 2.437 2.343l.256.063v2.717c-.892-.093-1.334-.53-1.54-1.115-.131-.331-.349-.487-.648-.487-.38 0-.623.243-.623.599 0 .099.018.212.05.318.299 1.041 1.383 1.72 2.761 1.82v.785c0 .218.149.355.355.355zm-1.726-7.504c0-.573.473-1.091 1.371-1.197v2.437c-.997-.255-1.371-.673-1.371-1.24zm3.59 3.983c0 .667-.449 1.171-1.515 1.252v-2.555c1.159.274 1.515.654 1.515 1.303zm3.665 2.53h4.967c.38 0 .617-.237.617-.586 0-.355-.237-.592-.617-.592h-3.733v-.031l2.144-2.15c1.514-1.515 1.994-2.238 1.994-3.26 0-1.483-1.215-2.543-2.935-2.543-1.789 0-2.83 1.103-3.023 2.051a1.104 1.104 0 00-.038.293c0 .349.225.592.617.592.343 0 .505-.169.63-.449.305-.879.922-1.334 1.807-1.334.904 0 1.565.623 1.565 1.477 0 .717-.287 1.178-1.465 2.375l-2.805 2.842c-.305.305-.392.455-.392.729 0 .349.243.586.667.586zm10.284.168c1.938 0 3.297-1.283 3.297-3.135 0-1.726-1.228-2.948-2.961-2.948-.891 0-1.633.331-2.019.892h-.031l.261-2.793h3.684c.374 0 .617-.237.617-.592s-.243-.586-.617-.586h-3.821c-.685 0-1.016.268-1.078.948l-.293 3.465c-.006.05-.006.081-.006.119-.013.392.218.71.66.71.331 0 .462-.068.848-.467a2.063 2.063 0 011.471-.593c1.122 0 1.92.78 1.92 1.883 0 1.128-.792 1.926-1.92 1.926-.916 0-1.558-.455-1.851-1.247-.143-.324-.318-.449-.63-.449-.38 0-.617.231-.617.611 0 .225.05.412.137.605.431.991 1.59 1.651 2.949 1.651zm5.659-.099a.811.811 0 00.816-.817.81.81 0 00-.816-.816.811.811 0 00-.817.816c0 .455.362.817.817.817zm5.641.099c2.156 0 3.527-1.813 3.527-4.68 0-2.849-1.377-4.65-3.527-4.65-2.151 0-3.534 1.808-3.534 4.656 0 2.867 1.371 4.674 3.534 4.674zm0-1.171c-1.284 0-2.12-1.334-2.12-3.503 0-2.138.848-3.484 2.12-3.484 1.277 0 2.119 1.34 2.119 3.484 0 2.175-.835 3.503-2.119 3.503zm7.915 1.171c2.157 0 3.528-1.813 3.528-4.68 0-2.849-1.378-4.65-3.528-4.65-2.15 0-3.534 1.808-3.534 4.656 0 2.867 1.371 4.674 3.534 4.674zm0-1.171c-1.284 0-2.119-1.334-2.119-3.503 0-2.138.848-3.484 2.119-3.484 1.278 0 2.119 1.34 2.119 3.484 0 2.175-.835 3.503-2.119 3.503z" fill="#000"/><rect x="144.706" y="164.5" width="43.765" height="43.765" rx="7.294" fill="#F4F4F5" style="mix-blend-mode:multiply"/><path d="M163.811 190.334h8.832a.56.56 0 00.553-.567.56.56 0 00-.553-.568h-8.704c-.431 0-.696-.303-.764-.764l-.121-.795h9.604c1.105 0 1.673-.681 1.832-1.763l.605-4.004c.015-.098.031-.219.031-.288 0-.363-.273-.613-.689-.613h-12.359l-.144-.961c-.076-.583-.288-.878-1.06-.878h-2.656a.575.575 0 00-.56.568c0 .31.257.575.56.575h2.558l1.211 8.31c.159 1.075.726 1.748 1.824 1.748zm10.028-8.219l-.537 3.625c-.061.47-.311.757-.757.757l-9.658.008-.643-4.39h11.595zm-9.43 11.898c.681 0 1.226-.538 1.226-1.226a1.22 1.22 0 00-1.226-1.226c-.689 0-1.234.544-1.234 1.226 0 .688.545 1.226 1.234 1.226zm7.076 0c.689 0 1.234-.538 1.234-1.226 0-.682-.545-1.226-1.234-1.226a1.227 1.227 0 100 2.452z" fill="#8E8E93"/><path opacity=".4" d="M201.235 217.382H431v-.301H201.235v.301z" fill="#9595A6"/></g><g clip-path="url(#clip3)"><path d="M206.019 245.794h1.515l1.82-6.439h.093l1.833 6.439h1.508l2.412-8.994h-1.664l-1.54 6.75h-.087l-1.795-6.75h-1.427l-1.77 6.75h-.094l-1.539-6.75h-1.677l2.412 8.994zm11.475-7.953a.918.918 0 00.922-.916.922.922 0 00-.922-.916.924.924 0 00-.929.916.92.92 0 00.929.916zm-.779 7.953h1.552v-6.812h-1.552v6.812zm3.459 0h1.552v-3.958c0-.972.679-1.589 1.714-1.589.268 0 .523.037.773.087v-1.39a2.52 2.52 0 00-.63-.075c-.897 0-1.521.43-1.751 1.16h-.106v-1.047h-1.552v6.812zm8.053.137c1.851 0 2.761-1.066 2.979-1.945l.018-.056h-1.477l-.018.044c-.15.312-.63.735-1.471.735-1.054 0-1.714-.71-1.733-1.932h4.762v-.511c0-2.057-1.197-3.415-3.135-3.415-1.939 0-3.179 1.402-3.179 3.546v.006c0 2.169 1.228 3.528 3.254 3.528zm-.057-5.865c.867 0 1.496.555 1.602 1.67h-3.235c.119-1.084.767-1.67 1.633-1.67zm5.167 5.728h1.552v-5.61h1.453v-1.202h-1.478v-.586c0-.649.281-.998 1.01-.998.218 0 .411.013.53.032v-1.085a4.972 4.972 0 00-.86-.062c-1.515 0-2.207.667-2.207 2.025v.674h-1.115v1.202h1.115v5.61zm4.5 0h1.552v-3.958c0-.972.68-1.589 1.714-1.589.268 0 .524.037.773.087v-1.39a2.504 2.504 0 00-.629-.075c-.898 0-1.521.43-1.752 1.16h-.106v-1.047h-1.552v6.812zm7.081.112c.897 0 1.62-.386 1.994-1.047h.106v.935h1.534v-4.656c0-1.44-.985-2.287-2.737-2.287-1.62 0-2.717.76-2.867 1.907l-.006.056h1.465l.006-.025c.156-.449.617-.704 1.328-.704.835 0 1.277.374 1.277 1.053v.586l-1.751.106c-1.658.1-2.587.81-2.587 2.026v.012c0 1.24.941 2.038 2.238 2.038zm-.704-2.113v-.012c0-.561.405-.879 1.271-.935l1.533-.1v.549c0 .81-.692 1.421-1.626 1.421-.686 0-1.178-.343-1.178-.923zm6.201 2.001h1.552v-4.145c0-.848.561-1.496 1.328-1.496.76 0 1.228.468 1.228 1.222v4.419h1.552v-4.257c0-.779.523-1.384 1.333-1.384.829 0 1.234.449 1.234 1.334v4.307h1.552v-4.687c0-1.415-.822-2.256-2.194-2.256-.947 0-1.732.486-2.063 1.227h-.106c-.293-.754-.966-1.227-1.888-1.227-.891 0-1.577.43-1.87 1.19h-.106v-1.059h-1.552v6.812zm14.535.137c1.851 0 2.761-1.066 2.979-1.945l.019-.056h-1.477l-.019.044c-.15.312-.629.735-1.471.735-1.053 0-1.714-.71-1.733-1.932h4.762v-.511c0-2.057-1.196-3.415-3.135-3.415-1.938 0-3.179 1.402-3.179 3.546v.006c0 2.169 1.228 3.528 3.254 3.528zm-.056-5.865c.866 0 1.496.555 1.602 1.67h-3.235c.118-1.084.767-1.67 1.633-1.67zm7.242 5.865c1.677 0 2.892-.866 2.892-2.163v-.012c0-.991-.629-1.558-1.963-1.858l-1.103-.243c-.736-.168-1.022-.411-1.022-.81v-.006c0-.511.498-.848 1.19-.848.729 0 1.178.349 1.29.779l.007.019h1.458v-.012c-.1-1.104-1.091-1.926-2.749-1.926-1.608 0-2.73.847-2.73 2.075v.006c0 1.004.617 1.615 1.914 1.901l1.103.25c.748.168 1.047.43 1.047.829v.012c0 .511-.536.86-1.309.86-.773 0-1.228-.33-1.39-.804l-.006-.012h-1.539v.012c.131 1.153 1.178 1.951 2.91 1.951z" fill="#000"/><path d="M206.195 261.569h.641v-.898c1.26-.101 2.308-.823 2.308-2.105v-.011c0-1.116-.77-1.682-2.143-2.014l-.165-.037v-2.452c.721.091 1.234.534 1.303 1.25v.011l.93-.006v-.005c-.043-1.175-.999-1.977-2.233-2.089v-.903h-.641v.903c-1.267.118-2.169.898-2.169 2.041v.011c0 1.047.715 1.64 2.046 1.96l.123.032v2.57c-.93-.102-1.341-.63-1.438-1.293v-.011l-.929.006v.005c.043 1.24 1.095 2.014 2.367 2.132v.903zm-1.24-6.369v-.01c0-.513.428-1.026 1.24-1.138v2.297c-.919-.224-1.24-.63-1.24-1.149zm1.913 2.218c1.057.256 1.346.63 1.346 1.212v.011c0 .614-.385 1.117-1.378 1.197v-2.426l.032.006zm3.942 3.376h4.99v-.866h-3.654v-.085l1.752-1.811c1.395-1.437 1.774-2.078 1.774-2.96v-.01c0-1.245-1.031-2.159-2.377-2.159-1.475 0-2.533.983-2.538 2.351l.011.005.919.006.005-.011c0-.908.614-1.512 1.538-1.512.909 0 1.459.609 1.459 1.421v.011c0 .673-.289 1.074-1.272 2.137l-2.607 2.82v.663zm9.136.182c1.565 0 2.682-1.085 2.682-2.64v-.01c0-1.491-1.042-2.575-2.49-2.575-.7 0-1.303.283-1.645.801h-.086l.262-2.607h3.531v-.86h-4.29l-.406 4.429h.834c.096-.182.219-.331.352-.46.332-.315.77-.47 1.283-.47.999 0 1.714.732 1.714 1.758v.01c0 1.042-.705 1.774-1.73 1.774-.903 0-1.571-.588-1.662-1.325l-.005-.042h-.925l.006.058c.112 1.234 1.138 2.159 2.575 2.159zm4.621-.129a.696.696 0 000-1.389.697.697 0 00-.695.695.7.7 0 00.695.694zm4.637.129c1.704 0 2.73-1.555 2.73-4.034v-.011c0-2.478-1.026-4.028-2.73-4.028s-2.719 1.55-2.719 4.028v.011c0 2.479 1.015 4.034 2.719 4.034zm0-.839c-1.106 0-1.752-1.229-1.752-3.195v-.011c0-1.966.646-3.184 1.752-3.184 1.106 0 1.763 1.218 1.763 3.184v.011c0 1.966-.657 3.195-1.763 3.195zm6.892.839c1.704 0 2.73-1.555 2.73-4.034v-.011c0-2.478-1.026-4.028-2.73-4.028s-2.719 1.55-2.719 4.028v.011c0 2.479 1.015 4.034 2.719 4.034zm0-.839c-1.106 0-1.752-1.229-1.752-3.195v-.011c0-1.966.646-3.184 1.752-3.184 1.106 0 1.763 1.218 1.763 3.184v.011c0 1.966-.657 3.195-1.763 3.195z" fill="#C7C7CC"/><path d="M377.432 248.608c.199 0 .349-.137.349-.355v-.785c1.589-.113 2.836-.973 2.836-2.506 0-1.328-.898-2.001-2.537-2.381l-.299-.075v-2.599c.692.088 1.141.461 1.402 1.11.131.299.337.48.661.48.362 0 .611-.231.611-.568 0-.112-.013-.211-.044-.317-.293-1.029-1.302-1.733-2.63-1.839v-.792c0-.218-.15-.355-.349-.355-.206 0-.355.137-.355.355v.792c-1.571.118-2.693 1.035-2.693 2.437 0 1.265.854 1.976 2.437 2.343l.256.063v2.717c-.892-.093-1.334-.53-1.54-1.115-.131-.331-.349-.487-.648-.487-.38 0-.623.243-.623.599 0 .099.018.212.05.318.299 1.041 1.383 1.72 2.761 1.82v.785c0 .218.149.355.355.355zm-1.726-7.504c0-.573.473-1.091 1.371-1.197v2.437c-.997-.255-1.371-.673-1.371-1.24zm3.59 3.983c0 .667-.449 1.171-1.515 1.252v-2.555c1.159.274 1.515.654 1.515 1.303zm3.665 2.53h4.967c.38 0 .617-.237.617-.586 0-.355-.237-.592-.617-.592h-3.733v-.031l2.144-2.15c1.514-1.515 1.994-2.238 1.994-3.26 0-1.483-1.215-2.543-2.935-2.543-1.789 0-2.83 1.103-3.023 2.051a1.104 1.104 0 00-.038.293c0 .349.225.592.617.592.343 0 .505-.169.63-.449.305-.879.922-1.334 1.807-1.334.904 0 1.565.623 1.565 1.477 0 .717-.287 1.178-1.465 2.375l-2.805 2.842c-.305.305-.392.455-.392.729 0 .349.243.586.667.586zm10.284.168c1.938 0 3.297-1.283 3.297-3.135 0-1.726-1.228-2.948-2.961-2.948-.891 0-1.633.331-2.019.892h-.031l.261-2.793h3.684c.374 0 .617-.237.617-.592s-.243-.586-.617-.586h-3.821c-.685 0-1.016.268-1.078.948l-.293 3.465c-.006.05-.006.081-.006.119-.013.392.218.71.66.71.331 0 .462-.068.848-.467a2.063 2.063 0 011.471-.593c1.122 0 1.92.78 1.92 1.883 0 1.128-.792 1.926-1.92 1.926-.916 0-1.558-.455-1.851-1.247-.143-.324-.318-.449-.63-.449-.38 0-.617.231-.617.611 0 .225.05.412.137.605.431.991 1.59 1.651 2.949 1.651zm5.659-.099a.811.811 0 00.816-.817.81.81 0 00-.816-.816.811.811 0 00-.817.816c0 .455.362.817.817.817zm5.641.099c2.156 0 3.527-1.813 3.527-4.68 0-2.849-1.377-4.65-3.527-4.65-2.151 0-3.534 1.808-3.534 4.656 0 2.867 1.371 4.674 3.534 4.674zm0-1.171c-1.284 0-2.12-1.334-2.12-3.503 0-2.138.848-3.484 2.12-3.484 1.277 0 2.119 1.34 2.119 3.484 0 2.175-.835 3.503-2.119 3.503zm7.915 1.171c2.157 0 3.528-1.813 3.528-4.68 0-2.849-1.378-4.65-3.528-4.65-2.15 0-3.534 1.808-3.534 4.656 0 2.867 1.371 4.674 3.534 4.674zm0-1.171c-1.284 0-2.119-1.334-2.119-3.503 0-2.138.848-3.484 2.119-3.484 1.278 0 2.119 1.34 2.119 3.484 0 2.175-.835 3.503-2.119 3.503z" fill="#000"/><rect x="144.706" y="226.5" width="43.765" height="43.765" rx="7.294" fill="#F4F4F5" style="mix-blend-mode:multiply"/><path d="M163.811 252.334h8.832a.56.56 0 00.553-.567.56.56 0 00-.553-.568h-8.704c-.431 0-.696-.303-.764-.764l-.121-.795h9.604c1.105 0 1.673-.681 1.832-1.763l.605-4.004c.015-.098.031-.219.031-.288 0-.363-.273-.613-.689-.613h-12.359l-.144-.961c-.076-.583-.288-.878-1.06-.878h-2.656a.575.575 0 00-.56.568c0 .31.257.575.56.575h2.558l1.211 8.31c.159 1.075.726 1.748 1.824 1.748zm10.028-8.219l-.537 3.625c-.061.47-.311.757-.757.757l-9.658.008-.643-4.39h11.595zm-9.43 11.898c.681 0 1.226-.538 1.226-1.226a1.22 1.22 0 00-1.226-1.226c-.689 0-1.234.544-1.234 1.226 0 .688.545 1.226 1.234 1.226zm7.076 0c.689 0 1.234-.538 1.234-1.226 0-.682-.545-1.226-1.234-1.226a1.227 1.227 0 100 2.452z" fill="#8E8E93"/><path opacity=".4" d="M201.235 279.382H431v-.301H201.235v.301z" fill="#9595A6"/></g><path d="M206.611 307.794h1.883l3.11-8.994h-1.777l-2.225 7.137h-.106l-2.225-7.137h-1.77l3.11 8.994zm7.18-7.953a.92.92 0 00.923-.916.923.923 0 00-.923-.916.924.924 0 00-.928.916.92.92 0 00.928.916zm-.779 7.953h1.552v-6.812h-1.552v6.812zm6.034.137c1.676 0 2.892-.866 2.892-2.163v-.012c0-.991-.63-1.558-1.964-1.858l-1.103-.243c-.735-.168-1.022-.411-1.022-.81v-.006c0-.511.499-.848 1.19-.848.73 0 1.178.349 1.291.779l.006.019h1.458v-.012c-.099-1.104-1.09-1.926-2.748-1.926-1.608 0-2.73.847-2.73 2.075v.006c0 1.004.617 1.615 1.913 1.901l1.103.25c.748.168 1.047.43 1.047.829v.012c0 .511-.536.86-1.308.86-.773 0-1.228-.33-1.39-.804l-.007-.012h-1.539v.012c.131 1.153 1.178 1.951 2.911 1.951zm6.712 0c.985 0 1.677-.442 1.995-1.172h.106v1.035h1.552v-6.812h-1.552v3.97c0 1.022-.536 1.67-1.54 1.67-.935 0-1.327-.536-1.327-1.589v-4.051h-1.552v4.406c0 1.621.785 2.543 2.318 2.543zm7.405-.025c.897 0 1.62-.386 1.994-1.047h.106v.935h1.534v-4.656c0-1.44-.985-2.287-2.737-2.287-1.62 0-2.717.76-2.867 1.907l-.006.056h1.465l.006-.025c.156-.449.617-.704 1.328-.704.835 0 1.277.374 1.277 1.053v.586l-1.751.106c-1.658.1-2.587.81-2.587 2.026v.012c0 1.24.941 2.038 2.238 2.038zm-.704-2.113v-.012c0-.561.405-.879 1.271-.935l1.533-.1v.549c0 .81-.692 1.421-1.626 1.421-.686 0-1.178-.343-1.178-.923zm6.263 2.001h1.552v-9.449h-1.552v9.449zm7.081 0h3.372c2.692 0 4.232-1.652 4.232-4.531v-.013c0-2.817-1.558-4.45-4.232-4.45h-3.372v8.994zm1.608-1.353v-6.288h1.552c1.764 0 2.805 1.146 2.805 3.122v.013c0 2.019-1.016 3.153-2.805 3.153h-1.552zm10.596 1.49c1.851 0 2.761-1.066 2.979-1.945l.019-.056h-1.478l-.018.044c-.15.312-.63.735-1.471.735-1.054 0-1.714-.71-1.733-1.932h4.762v-.511c0-2.057-1.197-3.415-3.135-3.415-1.939 0-3.179 1.402-3.179 3.546v.006c0 2.169 1.228 3.528 3.254 3.528zm-.056-5.865c.866 0 1.495.555 1.601 1.67h-3.234c.118-1.084.766-1.67 1.633-1.67zm7.242 5.865c1.677 0 2.892-.866 2.892-2.163v-.012c0-.991-.629-1.558-1.963-1.858l-1.103-.243c-.736-.168-1.023-.411-1.023-.81v-.006c0-.511.499-.848 1.191-.848.729 0 1.178.349 1.29.779l.006.019h1.459v-.012c-.1-1.104-1.091-1.926-2.749-1.926-1.608 0-2.73.847-2.73 2.075v.006c0 1.004.617 1.615 1.914 1.901l1.103.25c.748.168 1.047.43 1.047.829v.012c0 .511-.536.86-1.309.86-.773 0-1.228-.33-1.39-.804l-.006-.012h-1.54v.012c.131 1.153 1.178 1.951 2.911 1.951zm5.254-8.09a.92.92 0 00.923-.916.923.923 0 00-.923-.916.924.924 0 00-.928.916.92.92 0 00.928.916zm-.779 7.953h1.552v-6.812h-1.552v6.812zm3.459 0h1.552v-3.97c0-1.023.574-1.671 1.496-1.671.941 0 1.371.536 1.371 1.596v4.045h1.552v-4.407c0-1.62-.829-2.536-2.349-2.536-.985 0-1.64.442-1.964 1.171h-.106v-1.04h-1.552v6.812zm10.733 2.393c1.988 0 3.247-.991 3.247-2.561v-6.644h-1.552v1.121h-.081c-.386-.772-1.121-1.234-2.063-1.234-1.757 0-2.829 1.359-2.829 3.329v.012c0 1.932 1.072 3.266 2.798 3.266.941 0 1.683-.399 2.076-1.128h.106v1.303c0 .872-.617 1.365-1.677 1.365-.866 0-1.384-.306-1.49-.742l-.006-.019h-1.552l-.006.019c.156 1.147 1.234 1.913 3.029 1.913zm0-3.945c-1.078 0-1.689-.829-1.689-2.032v-.012c0-1.203.611-2.038 1.689-2.038 1.072 0 1.727.835 1.727 2.038v.012c0 1.203-.649 2.032-1.727 2.032z" fill="#000"/><path d="M206.195 323.569h.641v-.898c1.26-.101 2.308-.823 2.308-2.105v-.011c0-1.116-.77-1.682-2.143-2.014l-.165-.037v-2.452c.721.091 1.234.534 1.303 1.25v.011l.93-.006v-.005c-.043-1.175-.999-1.977-2.233-2.089v-.903h-.641v.903c-1.267.118-2.169.898-2.169 2.041v.011c0 1.047.715 1.64 2.046 1.96l.123.032v2.57c-.93-.102-1.341-.63-1.438-1.293v-.011l-.929.006v.005c.043 1.24 1.095 2.014 2.367 2.132v.903zm-1.24-6.369v-.01c0-.513.428-1.026 1.24-1.138v2.297c-.919-.224-1.24-.63-1.24-1.149zm1.913 2.218c1.057.256 1.346.63 1.346 1.212v.011c0 .614-.385 1.117-1.378 1.197v-2.426l.032.006zm6.475 3.558c1.565 0 2.682-1.085 2.682-2.64v-.01c0-1.491-1.042-2.575-2.49-2.575-.7 0-1.304.283-1.645.801h-.086l.262-2.607h3.531v-.86h-4.29l-.406 4.429h.834c.096-.182.219-.331.352-.46.331-.315.77-.47 1.282-.47.999 0 1.715.732 1.715 1.758v.01c0 1.042-.705 1.774-1.731 1.774-.903 0-1.57-.588-1.661-1.325l-.005-.042h-.925l.006.058c.112 1.234 1.138 2.159 2.575 2.159zm6.811 0c1.704 0 2.73-1.555 2.73-4.034v-.011c0-2.478-1.026-4.028-2.73-4.028s-2.719 1.55-2.719 4.028v.011c0 2.479 1.015 4.034 2.719 4.034zm0-.839c-1.106 0-1.752-1.229-1.752-3.195v-.011c0-1.966.646-3.184 1.752-3.184 1.106 0 1.763 1.218 1.763 3.184v.011c0 1.966-.657 3.195-1.763 3.195zm4.648.71a.694.694 0 10.003-1.391.694.694 0 00-.003 1.391zm4.637.129c1.704 0 2.73-1.555 2.73-4.034v-.011c0-2.478-1.026-4.028-2.73-4.028s-2.719 1.55-2.719 4.028v.011c0 2.479 1.015 4.034 2.719 4.034zm0-.839c-1.106 0-1.752-1.229-1.752-3.195v-.011c0-1.966.646-3.184 1.752-3.184 1.106 0 1.763 1.218 1.763 3.184v.011c0 1.966-.657 3.195-1.763 3.195zm6.892.839c1.704 0 2.73-1.555 2.73-4.034v-.011c0-2.478-1.026-4.028-2.73-4.028s-2.719 1.55-2.719 4.028v.011c0 2.479 1.015 4.034 2.719 4.034zm0-.839c-1.106 0-1.752-1.229-1.752-3.195v-.011c0-1.966.646-3.184 1.752-3.184 1.106 0 1.763 1.218 1.763 3.184v.011c0 1.966-.657 3.195-1.763 3.195zm7.148-2.014h2.393v2.447h.866v-2.447h2.393v-.866h-2.393v-2.447h-.866v2.447h-2.393v.866zm12.336 2.671h.961v-6.844h2.484v-.865h-5.93v.865h2.485v6.844zm5.272.101c.775 0 1.379-.336 1.742-.95h.086v.849h.929v-3.943c0-1.196-.785-1.918-2.19-1.918-1.229 0-2.105.609-2.255 1.512l-.005.032h.929l.006-.016c.149-.448.604-.705 1.293-.705.86 0 1.293.385 1.293 1.095v.524l-1.651.101c-1.341.08-2.1.673-2.1 1.699v.011c0 1.047.828 1.709 1.923 1.709zm-.972-1.73v-.011c0-.572.385-.882 1.261-.935l1.539-.096v.523c0 .823-.69 1.443-1.635 1.443-.668 0-1.165-.342-1.165-.924zm4.969 1.629h1.041l1.368-2.174h.085l1.363 2.174h1.09l-1.982-2.917 1.955-2.842h-1.042l-1.352 2.142h-.085l-1.368-2.142h-1.095l1.993 2.879-1.971 2.88zm11.801.182c1.565 0 2.682-1.085 2.682-2.64v-.01c0-1.491-1.042-2.575-2.49-2.575-.7 0-1.303.283-1.645.801h-.086l.262-2.607h3.531v-.86h-4.29l-.406 4.429h.834c.096-.182.219-.331.352-.46.332-.315.77-.47 1.283-.47.999 0 1.714.732 1.714 1.758v.01c0 1.042-.705 1.774-1.73 1.774-.903 0-1.571-.588-1.662-1.325l-.005-.042h-.925l.006.058c.112 1.234 1.138 2.159 2.575 2.159zm5.668-3.836c.983 0 1.581-.802 1.581-2.078v-.006c0-1.277-.598-2.073-1.581-2.073s-1.576.796-1.576 2.073v.006c0 1.276.593 2.078 1.576 2.078zm.577 3.654l5.246-7.709h-.865l-5.246 7.709h.865zm-.577-4.29c-.529 0-.833-.54-.833-1.442v-.006c0-.903.304-1.437.833-1.437.529 0 .839.534.839 1.437v.006c0 .902-.31 1.442-.839 1.442zm5.524 4.391c.983 0 1.581-.801 1.581-2.078v-.005c0-1.277-.598-2.073-1.581-2.073s-1.576.796-1.576 2.073v.005c0 1.277.593 2.078 1.576 2.078zm0-.635c-.529 0-.833-.54-.833-1.443v-.005c0-.903.304-1.437.833-1.437.529 0 .839.534.839 1.437v.005c0 .903-.31 1.443-.839 1.443z" fill="#C7C7CC"/><path d="M377.432 310.608c.199 0 .349-.137.349-.355v-.785c1.589-.113 2.836-.973 2.836-2.506 0-1.328-.898-2.001-2.537-2.381l-.299-.075v-2.599c.692.088 1.141.461 1.402 1.11.131.299.337.48.661.48.362 0 .611-.231.611-.568 0-.112-.013-.211-.044-.317-.293-1.029-1.302-1.733-2.63-1.839v-.792c0-.218-.15-.355-.349-.355-.206 0-.355.137-.355.355v.792c-1.571.118-2.693 1.035-2.693 2.437 0 1.265.854 1.976 2.437 2.343l.256.063v2.717c-.892-.093-1.334-.53-1.54-1.115-.131-.331-.349-.487-.648-.487-.38 0-.623.243-.623.599 0 .099.018.212.05.318.299 1.041 1.383 1.72 2.761 1.82v.785c0 .218.149.355.355.355zm-1.726-7.504c0-.573.473-1.091 1.371-1.197v2.437c-.997-.255-1.371-.673-1.371-1.24zm3.59 3.983c0 .667-.449 1.171-1.515 1.252v-2.555c1.159.274 1.515.654 1.515 1.303zm6.033 2.698c1.938 0 3.297-1.283 3.297-3.135 0-1.726-1.228-2.948-2.96-2.948-.892 0-1.633.331-2.02.892h-.031l.262-2.793h3.683c.374 0 .617-.237.617-.592s-.243-.586-.617-.586h-3.82c-.686 0-1.016.268-1.079.948l-.293 3.465c-.006.05-.006.081-.006.119-.012.392.218.71.661.71.33 0 .461-.068.847-.467a2.067 2.067 0 011.471-.593c1.122 0 1.92.78 1.92 1.883 0 1.128-.791 1.926-1.92 1.926-.916 0-1.558-.455-1.851-1.247-.143-.324-.318-.449-.629-.449-.38 0-.617.231-.617.611 0 .225.05.412.137.605.43.991 1.589 1.651 2.948 1.651zm5.547-.168h4.968c.38 0 .617-.237.617-.586 0-.355-.237-.592-.617-.592h-3.734v-.031l2.144-2.15c1.515-1.515 1.995-2.238 1.995-3.26 0-1.483-1.216-2.543-2.936-2.543-1.789 0-2.83 1.103-3.023 2.051a1.104 1.104 0 00-.037.293c0 .349.224.592.617.592.343 0 .505-.169.629-.449.306-.879.923-1.334 1.808-1.334.904 0 1.564.623 1.564 1.477 0 .717-.286 1.178-1.464 2.375l-2.805 2.842c-.306.305-.393.455-.393.729 0 .349.243.586.667.586zm8.028.069a.811.811 0 00.816-.817.81.81 0 00-.816-.816.811.811 0 00-.817.816c0 .455.362.817.817.817zm5.609.099c1.939 0 3.298-1.283 3.298-3.135 0-1.726-1.228-2.948-2.961-2.948-.891 0-1.633.331-2.019.892h-.032l.262-2.793h3.684c.374 0 .617-.237.617-.592s-.243-.586-.617-.586h-3.821c-.686 0-1.016.268-1.078.948l-.293 3.465c-.006.05-.006.081-.006.119-.013.392.218.71.66.71.331 0 .462-.068.848-.467a2.063 2.063 0 011.471-.593c1.122 0 1.92.78 1.92 1.883 0 1.128-.792 1.926-1.92 1.926-.916 0-1.558-.455-1.851-1.247-.144-.324-.318-.449-.63-.449-.38 0-.617.231-.617.611 0 .225.05.412.137.605.43.991 1.59 1.651 2.948 1.651zm7.947 0c2.157 0 3.528-1.813 3.528-4.68 0-2.849-1.378-4.65-3.528-4.65-2.15 0-3.534 1.808-3.534 4.656 0 2.867 1.371 4.674 3.534 4.674zm0-1.171c-1.284 0-2.119-1.334-2.119-3.503 0-2.138.848-3.484 2.119-3.484 1.278 0 2.119 1.34 2.119 3.484 0 2.175-.835 3.503-2.119 3.503z" fill="#000"/><rect x="144.706" y="288.5" width="43.765" height="43.765" rx="7.294" fill="#F4F4F5" style="mix-blend-mode:multiply"/><path d="M163.811 314.334h8.832a.56.56 0 00.553-.567.56.56 0 00-.553-.568h-8.704c-.431 0-.696-.303-.764-.764l-.121-.795h9.604c1.105 0 1.673-.681 1.832-1.763l.605-4.004c.015-.098.031-.219.031-.288 0-.363-.273-.613-.689-.613h-12.359l-.144-.961c-.076-.583-.288-.878-1.06-.878h-2.656a.575.575 0 00-.56.568c0 .31.257.575.56.575h2.558l1.211 8.31c.159 1.075.726 1.748 1.824 1.748zm10.028-8.219l-.537 3.625c-.061.47-.311.757-.757.757l-9.658.008-.643-4.39h11.595zm-9.43 11.898c.681 0 1.226-.538 1.226-1.226a1.22 1.22 0 00-1.226-1.226c-.689 0-1.234.544-1.234 1.226 0 .688.545 1.226 1.234 1.226zm7.076 0c.689 0 1.234-.538 1.234-1.226 0-.682-.545-1.226-1.234-1.226a1.227 1.227 0 100 2.452z" fill="#8E8E93"/></g><defs><clipPath id="clip0"><rect x="28" y="18.617" width="330.059" height="237.059" rx="10.941" fill="#fff"/></clipPath><clipPath id="clip1"><rect x="135.588" y="93.382" width="295.412" height="62" rx="10.941" fill="#fff"/></clipPath><clipPath id="clip2"><rect x="135.588" y="155.382" width="295.412" height="62" rx="10.941" fill="#fff"/></clipPath><clipPath id="clip3"><rect x="135.588" y="217.382" width="295.412" height="62" rx="10.941" fill="#fff"/></clipPath><filter id="filter0_d" x=".647" y=".382" width="384.765" height="291.765" filterUnits="userSpaceOnUse" color-interpolation-filters="sRGB"><feFlood flood-opacity="0" result="BackgroundImageFix"/><feColorMatrix in="SourceAlpha" values="0 0 0 0 0 0 0 0 0 0 0 0 0 0 0 0 0 0 127 0" result="hardAlpha"/><feOffset dy="9.118"/><feGaussianBlur stdDeviation="13.677"/><feColorMatrix values="0 0 0 0 0.0451389 0 0 0 0 0.203201 0 0 0 0 0.416667 0 0 0 0.1 0"/><feBlend in2="BackgroundImageFix" result="effect1_dropShadow"/><feBlend in="SourceGraphic" in2="effect1_dropShadow" result="shape"/></filter><filter id="filter1_d" x="108.235" y="75.147" width="350.118" height="302.706" filterUnits="userSpaceOnUse" color-interpolation-filters="sRGB"><feFlood flood-opacity="0" result="BackgroundImageFix"/><feColorMatrix in="SourceAlpha" values="0 0 0 0 0 0 0 0 0 0 0 0 0 0 0 0 0 0 127 0" result="hardAlpha"/><feOffset dy="9.118"/><feGaussianBlur stdDeviation="13.677"/><feColorMatrix values="0 0 0 0 0.0451389 0 0 0 0 0.203201 0 0 0 0 0.416667 0 0 0 0.1 0"/><feBlend in2="BackgroundImageFix" result="effect1_dropShadow"/><feBlend in="SourceGraphic" in2="effect1_dropShadow" result="shape"/></filter></defs></svg>