<svg width="459" height="262" fill="none" xmlns="http://www.w3.org/2000/svg"><g filter="url(#filter0_d)"><rect x="30" y="20" width="311" height="78" rx="10" fill="#FF092A"/><path d="M72.055 64h1.319v-9.382h3.405V53.43h-8.13v1.187h3.406V64zm6.672 0h1.275v-4.673c0-1.384.798-2.234 2.058-2.234 1.26 0 1.846.681 1.846 2.102V64h1.274v-5.112c0-1.875-.989-2.923-2.761-2.923-1.165 0-1.904.491-2.3 1.326h-.117V52.97h-1.274V64zm11.983.14c1.86 0 2.988-1.056 3.26-2.125l.014-.059H92.71l-.03.066c-.212.477-.871.982-1.94.982-1.407 0-2.308-.952-2.344-2.585h5.683v-.499c0-2.358-1.304-3.955-3.45-3.955s-3.537 1.67-3.537 4.11v.006c0 2.476 1.362 4.058 3.618 4.058zm-.088-7.04c1.165 0 2.029.74 2.16 2.3h-4.364c.139-1.501 1.032-2.3 2.204-2.3zm10.327-2.519a.881.881 0 00.879-.879.881.881 0 00-.879-.879.882.882 0 00-.879.88c0 .482.396.878.879.878zM100.305 64h1.274v-7.895h-1.274V64zm3.676 0h1.275v-4.673c0-1.384.798-2.234 2.058-2.234 1.26 0 1.846.681 1.846 2.102V64h1.274v-5.112c0-1.875-.989-2.923-2.761-2.923-1.165 0-1.904.491-2.3 1.326h-.117v-1.186h-1.275V64zm10.701 0h1.289l2.923-7.895h-1.348l-2.161 6.503h-.117l-2.161-6.503h-1.347L114.682 64zm8.848.14c2.248 0 3.64-1.554 3.64-4.08v-.015c0-2.534-1.392-4.08-3.64-4.08-2.249 0-3.64 1.546-3.64 4.08v.015c0 2.526 1.391 4.08 3.64 4.08zm0-1.129c-1.494 0-2.337-1.091-2.337-2.951v-.015c0-1.868.843-2.952 2.337-2.952 1.494 0 2.336 1.084 2.336 2.952v.015c0 1.86-.842 2.951-2.336 2.951zm6.291-8.43a.881.881 0 00.879-.879.881.881 0 00-.879-.879.882.882 0 00-.879.88c0 .482.396.878.879.878zM129.177 64h1.274v-7.895h-1.274V64zm6.906.14c1.897 0 2.959-1.019 3.282-2.447l.014-.08-1.259.007-.015.044c-.293.878-.967 1.347-2.029 1.347-1.406 0-2.314-1.164-2.314-2.98v-.015c0-1.78.893-2.923 2.314-2.923 1.135 0 1.839.63 2.036 1.406l.008.023h1.267l-.008-.044c-.234-1.407-1.384-2.513-3.303-2.513-2.212 0-3.618 1.597-3.618 4.05v.015c0 2.505 1.414 4.11 3.625 4.11zm8.387 0c1.86 0 2.988-1.056 3.259-2.125l.015-.059h-1.275l-.029.066c-.212.477-.872.982-1.941.982-1.406 0-2.307-.952-2.344-2.585h5.684v-.499c0-2.358-1.304-3.955-3.45-3.955s-3.537 1.67-3.537 4.11v.006c0 2.476 1.362 4.058 3.618 4.058zm-.088-7.04c1.164 0 2.029.74 2.16 2.3h-4.365c.139-1.501 1.033-2.3 2.205-2.3zm10.327-2.519a.882.882 0 00.879-.879.882.882 0 00-.879-.879.882.882 0 00-.879.88c0 .482.396.878.879.878zM154.064 64h1.275v-7.895h-1.275V64zm6.387.14c1.795 0 3.164-.975 3.164-2.381v-.015c0-1.128-.718-1.772-2.204-2.131l-1.216-.293c-.93-.227-1.326-.564-1.326-1.099v-.014c0-.696.689-1.18 1.626-1.18.952 0 1.567.432 1.736 1.055h1.252c-.175-1.289-1.325-2.117-2.981-2.117-1.677 0-2.937.99-2.937 2.3v.008c0 1.135.667 1.78 2.146 2.13l1.224.294c.974.234 1.377.608 1.377 1.142v.015c0 .718-.755 1.223-1.817 1.223-1.011 0-1.641-.432-1.853-1.091h-1.304c.147 1.304 1.355 2.153 3.113 2.153zm12.605 0c2.249 0 3.64-1.554 3.64-4.08v-.015c0-2.534-1.391-4.08-3.64-4.08-2.248 0-3.64 1.546-3.64 4.08v.015c0 2.526 1.392 4.08 3.64 4.08zm0-1.129c-1.494 0-2.336-1.091-2.336-2.951v-.015c0-1.868.842-2.952 2.336-2.952 1.494 0 2.337 1.084 2.337 2.952v.015c0 1.86-.843 2.951-2.337 2.951zm7.559.989h1.289l2.922-7.895h-1.347l-2.161 6.503h-.117l-2.161-6.503h-1.348L180.615 64zm8.825.14c1.861 0 2.989-1.056 3.26-2.125l.014-.059h-1.274l-.029.066c-.213.477-.872.982-1.941.982-1.407 0-2.307-.952-2.344-2.585h5.684v-.499c0-2.358-1.304-3.955-3.45-3.955s-3.538 1.67-3.538 4.11v.006c0 2.476 1.363 4.058 3.618 4.058zm-.087-7.04c1.164 0 2.028.74 2.16 2.3h-4.365c.139-1.501 1.033-2.3 2.205-2.3zm5.434 6.9h1.275v-4.893c0-1.157.864-1.926 2.08-1.926.278 0 .52.03.783.073v-1.237a4.261 4.261 0 00-.637-.052c-1.069 0-1.809.484-2.109 1.311h-.117v-1.172h-1.275V64zm5.859 2.637h1.275v-3.882h.117c.432.842 1.377 1.384 2.461 1.384 2.007 0 3.311-1.604 3.311-4.08v-.014c0-2.461-1.311-4.08-3.311-4.08-1.099 0-1.978.52-2.461 1.4h-.117v-1.26h-1.275v10.532zm3.56-3.626c-1.435 0-2.314-1.128-2.314-2.951v-.015c0-1.824.879-2.952 2.314-2.952 1.443 0 2.3 1.113 2.3 2.952v.015c0 1.838-.857 2.951-2.3 2.951zm7.764 1.128c1.062 0 1.889-.461 2.387-1.304h.118V64h1.274v-5.405c0-1.64-1.077-2.63-3.003-2.63-1.684 0-2.886.835-3.091 2.073l-.007.044h1.274l.008-.022c.205-.615.827-.967 1.772-.967 1.179 0 1.773.528 1.773 1.502v.718l-2.264.139c-1.838.11-2.878.922-2.878 2.329v.014c0 1.436 1.135 2.344 2.637 2.344zm-1.333-2.373v-.014c0-.784.527-1.209 1.728-1.282l2.11-.132v.718c0 1.128-.945 1.977-2.242 1.977-.915 0-1.596-.468-1.596-1.267zm7.822 5.003c1.399 0 2.051-.513 2.703-2.286l3.083-8.379h-1.34l-2.161 6.497h-.117l-2.168-6.496h-1.362l2.922 7.902-.146.47c-.286.907-.726 1.237-1.451 1.237-.175 0-.373-.007-.527-.037v1.048c.176.029.396.044.564.044zm10.4-2.63c1.861 0 2.989-1.054 3.26-2.124l.014-.059h-1.274l-.029.066c-.213.477-.872.982-1.941.982-1.407 0-2.307-.952-2.344-2.585h5.684v-.499c0-2.358-1.304-3.955-3.45-3.955s-3.538 1.67-3.538 4.11v.006c0 2.476 1.363 4.058 3.618 4.058zm-.088-7.038c1.165 0 2.029.74 2.161 2.3h-4.365c.139-1.502 1.033-2.3 2.204-2.3zm8.35 7.038c1.099 0 1.978-.52 2.461-1.399h.117V64h1.275V52.97h-1.275v4.38h-.117c-.432-.843-1.377-1.385-2.461-1.385-2.007 0-3.31 1.604-3.31 4.08v.015c0 2.46 1.311 4.08 3.31 4.08zm.293-1.128c-1.443 0-2.3-1.113-2.3-2.951v-.015c0-1.839.857-2.952 2.3-2.952 1.436 0 2.315 1.128 2.315 2.952v.015c0 1.823-.879 2.951-2.315 2.951zm14.15 1.128c2 0 3.311-1.618 3.311-4.08v-.014c0-2.476-1.304-4.08-3.311-4.08-1.084 0-2.028.542-2.46 1.385h-.118v-4.38h-1.274V64h1.274v-1.26h.118c.483.88 1.362 1.4 2.46 1.4zm-.293-1.128c-1.435 0-2.314-1.128-2.314-2.951v-.015c0-1.824.879-2.952 2.314-2.952 1.443 0 2.3 1.113 2.3 2.952v.015c0 1.838-.857 2.951-2.3 2.951zm5.962 3.758c1.399 0 2.051-.513 2.703-2.286l3.084-8.379h-1.341l-2.16 6.497h-.118l-2.168-6.496h-1.362l2.922 7.902-.146.47c-.286.907-.725 1.237-1.45 1.237a3.04 3.04 0 01-.528-.037v1.048c.176.029.396.044.564.044zm14.803-1.707h.879v-1.23c1.728-.14 3.164-1.128 3.164-2.886v-.015c0-1.53-1.055-2.307-2.937-2.761l-.227-.051v-3.362c.988.124 1.691.732 1.787 1.714v.014l1.274-.007v-.007c-.059-1.612-1.37-2.71-3.061-2.864v-1.238h-.879v1.238c-1.736.161-2.974 1.23-2.974 2.798v.014c0 1.436.981 2.249 2.805 2.688l.169.044v3.523c-1.275-.139-1.839-.864-1.971-1.772v-.015l-1.274.008v.007c.059 1.7 1.501 2.761 3.245 2.922v1.238zm-1.7-8.73v-.015c0-.703.586-1.406 1.7-1.56v3.15c-1.26-.308-1.7-.865-1.7-1.575zm2.622 3.04c1.451.35 1.846.863 1.846 1.662v.014c0 .843-.527 1.531-1.889 1.641v-3.325l.043.007zM280.949 64h1.319V53.431h-1.311l-2.813 2.022v1.391l2.688-1.948h.117V64zm7.91.249c2.337 0 3.743-2.131 3.743-5.53v-.014c0-3.399-1.406-5.523-3.743-5.523-2.336 0-3.728 2.124-3.728 5.523v.014c0 3.399 1.392 5.53 3.728 5.53zm0-1.15c-1.516 0-2.402-1.684-2.402-4.38v-.014c0-2.696.886-4.366 2.402-4.366s2.417 1.67 2.417 4.366v.014c0 2.696-.901 4.38-2.417 4.38zm9.449 1.15c2.336 0 3.742-2.131 3.742-5.53v-.014c0-3.399-1.406-5.523-3.742-5.523-2.337 0-3.728 2.124-3.728 5.523v.014c0 3.399 1.391 5.53 3.728 5.53zm0-1.15c-1.516 0-2.403-1.684-2.403-4.38v-.014c0-2.696.887-4.366 2.403-4.366s2.417 1.67 2.417 4.366v.014c0 2.696-.901 4.38-2.417 4.38z" fill="#fff"/></g><g filter="url(#filter1_d)"><rect x="118" y="82" width="311" height="78" rx="10" fill="#000"/><path d="M155.207 111h1.318v-9.382h3.406v-1.187h-8.13v1.187h3.406V111zm6.672 0h1.274v-4.673c0-1.384.799-2.234 2.058-2.234 1.26 0 1.846.681 1.846 2.102V111h1.275v-5.112c0-1.875-.989-2.923-2.762-2.923-1.164 0-1.904.491-2.299 1.326h-.118V99.97h-1.274V111zm11.982.139c1.861 0 2.989-1.055 3.26-2.124l.014-.058h-1.274l-.029.065c-.213.477-.872.982-1.941.982-1.407 0-2.308-.952-2.344-2.586h5.683v-.498c0-2.358-1.303-3.955-3.449-3.955s-3.538 1.67-3.538 4.109v.008c0 2.475 1.362 4.057 3.618 4.057zm-.088-7.038c1.165 0 2.029.739 2.161 2.299h-4.365c.139-1.501 1.033-2.299 2.204-2.299zm10.328-2.52a.88.88 0 00.878-.879.881.881 0 00-.878-.879.881.881 0 00-.879.879.88.88 0 00.879.879zm-.645 9.419h1.274v-7.896h-1.274V111zm3.677 0h1.274v-4.673c0-1.384.799-2.234 2.058-2.234 1.26 0 1.846.681 1.846 2.102V111h1.274v-5.112c0-1.875-.988-2.923-2.761-2.923-1.164 0-1.904.491-2.3 1.326h-.117v-1.187h-1.274V111zm10.7 0h1.29l2.922-7.896h-1.348l-2.16 6.504h-.118l-2.16-6.504h-1.348l2.922 7.896zm8.848.139c2.249 0 3.64-1.553 3.64-4.079v-.015c0-2.534-1.391-4.08-3.64-4.08-2.248 0-3.64 1.546-3.64 4.08v.015c0 2.526 1.392 4.079 3.64 4.079zm0-1.128c-1.494 0-2.336-1.091-2.336-2.951v-.015c0-1.868.842-2.952 2.336-2.952 1.494 0 2.337 1.084 2.337 2.952v.015c0 1.86-.843 2.951-2.337 2.951zm6.292-8.43a.882.882 0 00.879-.879.882.882 0 00-.879-.879.881.881 0 00-.879.879.88.88 0 00.879.879zm-.645 9.419h1.275v-7.896h-1.275V111zm6.907.139c1.897 0 2.959-1.018 3.281-2.446l.015-.081-1.26.008-.015.044c-.293.878-.966 1.347-2.028 1.347-1.407 0-2.315-1.164-2.315-2.981v-.014c0-1.78.894-2.923 2.315-2.923 1.135 0 1.838.63 2.036 1.407l.007.021h1.267l-.007-.043c-.235-1.407-1.385-2.513-3.303-2.513-2.212 0-3.619 1.597-3.619 4.051v.014c0 2.505 1.414 4.109 3.626 4.109zm8.386 0c1.86 0 2.988-1.055 3.259-2.124l.015-.058h-1.274l-.03.065c-.212.477-.871.982-1.941.982-1.406 0-2.307-.952-2.343-2.586h5.683v-.498c0-2.358-1.303-3.955-3.449-3.955s-3.538 1.67-3.538 4.109v.008c0 2.475 1.362 4.057 3.618 4.057zm-.088-7.038c1.165 0 2.029.739 2.161 2.299h-4.365c.139-1.501 1.032-2.299 2.204-2.299zm10.327-2.52a.88.88 0 00.879-.879.881.881 0 00-.879-.879.882.882 0 00-.879.879c0 .484.396.879.879.879zm-.644 9.419h1.274v-7.896h-1.274V111zm6.387.139c1.794 0 3.164-.974 3.164-2.38v-.015c0-1.128-.718-1.772-2.205-2.131l-1.216-.293c-.93-.227-1.325-.564-1.325-1.099v-.014c0-.696.688-1.18 1.625-1.18.953 0 1.568.432 1.736 1.055h1.253c-.176-1.289-1.326-2.117-2.981-2.117-1.677 0-2.937.989-2.937 2.3v.007c0 1.136.666 1.78 2.146 2.132l1.223.293c.974.234 1.377.608 1.377 1.142v.015c0 .718-.755 1.223-1.817 1.223-1.01 0-1.64-.432-1.853-1.091h-1.303c.146 1.304 1.355 2.153 3.113 2.153zm10.883-.139h1.275l1.758-6.108h.117l1.765 6.108h1.282l2.212-7.896h-1.268l-1.552 6.314h-.117l-1.766-6.314h-1.208l-1.765 6.314h-.117l-1.553-6.314h-1.275l2.212 7.896zm12.041.139c1.062 0 1.89-.461 2.388-1.304h.117V111h1.275v-5.405c0-1.641-1.077-2.63-3.003-2.63-1.685 0-2.886.835-3.091 2.073l-.007.044h1.274l.007-.022c.205-.615.828-.967 1.773-.967 1.179 0 1.772.528 1.772 1.502v.717l-2.263.14c-1.838.11-2.878.923-2.878 2.329v.014c0 1.436 1.135 2.344 2.636 2.344zm-1.333-2.373v-.015c0-.783.528-1.208 1.729-1.281l2.109-.132v.718c0 1.128-.945 1.977-2.241 1.977-.916 0-1.597-.469-1.597-1.267zm8.116-7.185a.88.88 0 00.878-.879.881.881 0 00-.878-.879.881.881 0 00-.879.879.88.88 0 00.879.879zm-.645 9.419h1.274v-7.896h-1.274V111zm6.482.059c.249 0 .491-.03.74-.074v-1.084c-.235.022-.359.03-.586.03-.821 0-1.143-.374-1.143-1.304v-4.468h1.729v-1.055h-1.729v-2.043h-1.318v2.043h-1.245v1.055h1.245v4.79c0 1.509.681 2.11 2.307 2.11zm3.318-9.478a.882.882 0 00.879-.879.882.882 0 00-.879-.879.881.881 0 00-.879.879.88.88 0 00.879.879zM281.82 111h1.275v-7.896h-1.275V111zm3.677 0h1.274v-4.673c0-1.384.799-2.234 2.059-2.234 1.259 0 1.845.681 1.845 2.102V111h1.275v-5.112c0-1.875-.989-2.923-2.762-2.923-1.164 0-1.904.491-2.299 1.326h-.118v-1.187h-1.274V111zm12.012 2.783c2.153 0 3.515-1.128 3.515-2.893v-7.786h-1.274v1.304h-.088c-.483-.893-1.348-1.443-2.461-1.443-2.065 0-3.34 1.604-3.34 3.816v.015c0 2.212 1.267 3.794 3.311 3.794 1.084 0 1.977-.491 2.475-1.362h.118v1.596c0 1.165-.843 1.831-2.256 1.831-1.135 0-1.839-.425-1.978-1.025l-.007-.007h-1.318l-.015.007c.198 1.296 1.413 2.153 3.318 2.153zm-.059-4.321c-1.465 0-2.285-1.099-2.285-2.666v-.015c0-1.567.82-2.688 2.285-2.688 1.458 0 2.344 1.121 2.344 2.688v.015c0 1.567-.879 2.666-2.344 2.666zM308.144 111h1.274v-6.841h1.794v-1.055h-1.794v-.842c0-.864.366-1.311 1.274-1.311.227 0 .44.007.594.037V99.97a4.433 4.433 0 00-.85-.073c-1.501 0-2.292.754-2.292 2.329v.878h-1.311v1.055h1.311V111zm7.814.139c2.249 0 3.641-1.553 3.641-4.079v-.015c0-2.534-1.392-4.08-3.641-4.08-2.248 0-3.64 1.546-3.64 4.08v.015c0 2.526 1.392 4.079 3.64 4.079zm0-1.128c-1.494 0-2.336-1.091-2.336-2.951v-.015c0-1.868.842-2.952 2.336-2.952 1.495 0 2.337 1.084 2.337 2.952v.015c0 1.86-.842 2.951-2.337 2.951zm5.618.989h1.275v-4.893c0-1.157.864-1.926 2.08-1.926.278 0 .52.029.783.073v-1.237a4.245 4.245 0 00-.637-.052c-1.069 0-1.809.484-2.109 1.311h-.117v-1.172h-1.275V111zm9.932 2.637h1.274v-3.882h.117c.433.842 1.377 1.384 2.461 1.384 2.007 0 3.311-1.604 3.311-4.079v-.015c0-2.461-1.311-4.08-3.311-4.08-1.098 0-1.977.52-2.461 1.399h-.117v-1.26h-1.274v10.533zm3.559-3.626c-1.435 0-2.314-1.128-2.314-2.951v-.015c0-1.824.879-2.952 2.314-2.952 1.443 0 2.3 1.114 2.3 2.952v.015c0 1.838-.857 2.951-2.3 2.951zm7.764 1.128c1.062 0 1.89-.461 2.388-1.304h.117V111h1.274v-5.405c0-1.641-1.076-2.63-3.003-2.63-1.684 0-2.885.835-3.09 2.073l-.008.044h1.275l.007-.022c.205-.615.828-.967 1.772-.967 1.18 0 1.773.528 1.773 1.502v.717l-2.263.14c-1.839.11-2.879.923-2.879 2.329v.014c0 1.436 1.136 2.344 2.637 2.344zm-1.333-2.373v-.015c0-.783.527-1.208 1.729-1.281l2.109-.132v.718c0 1.128-.945 1.977-2.241 1.977-.916 0-1.597-.469-1.597-1.267zm7.822 5.003c1.399 0 2.051-.513 2.703-2.286l3.083-8.379h-1.34l-2.161 6.497h-.117l-2.168-6.497h-1.362l2.922 7.903-.146.469c-.286.908-.725 1.238-1.45 1.238-.176 0-.374-.007-.528-.037v1.048c.176.029.396.044.564.044zm7.471-2.769h1.274v-4.893c0-1.113.784-2.014 1.817-2.014.996 0 1.64.608 1.64 1.546V111h1.275v-5.076c0-1.003.725-1.831 1.824-1.831 1.113 0 1.648.579 1.648 1.743V111h1.274v-5.457c0-1.655-.901-2.578-2.512-2.578-1.092 0-1.992.55-2.417 1.385h-.117c-.367-.821-1.114-1.385-2.183-1.385-1.033 0-1.78.491-2.131 1.341h-.118v-1.202h-1.274V111zm16.274.139c1.861 0 2.989-1.055 3.26-2.124l.014-.058h-1.274l-.029.065c-.213.477-.872.982-1.941.982-1.407 0-2.307-.952-2.344-2.586h5.684v-.498c0-2.358-1.304-3.955-3.45-3.955s-3.538 1.67-3.538 4.109v.008c0 2.475 1.363 4.057 3.618 4.057zm-.087-7.038c1.164 0 2.028.739 2.16 2.299h-4.365c.139-1.501 1.033-2.299 2.205-2.299zm5.434 6.899h1.275v-4.673c0-1.384.798-2.234 2.058-2.234 1.259 0 1.845.681 1.845 2.102V111h1.275v-5.112c0-1.875-.989-2.923-2.761-2.923-1.165 0-1.905.491-2.3 1.326h-.117v-1.187h-1.275V111zm11.565.059c.249 0 .491-.03.74-.074v-1.084c-.235.022-.359.03-.586.03-.82 0-1.143-.374-1.143-1.304v-4.468h1.729v-1.055h-1.729v-2.043h-1.318v2.043h-1.245v1.055h1.245v4.79c0 1.509.681 2.11 2.307 2.11zm3.684.014a.955.955 0 00.952-.952.95.95 0 00-.952-.952.955.955 0 00-.952.952c0 .52.432.952.952.952zM215.414 138h2.102v-7.672h.156l2.89 7.672h1.477l2.891-7.672h.156V138h2.102v-11.273h-2.704l-3.109 8.25h-.141l-3.117-8.25h-2.703V138zm16.633.133c1.125 0 2.031-.477 2.469-1.274h.14V138h2.25v-5.875c0-1.836-1.289-2.914-3.57-2.914-2.164 0-3.586 1-3.766 2.508l-.008.07h2.11l.016-.031c.179-.508.703-.797 1.523-.797.937 0 1.445.422 1.445 1.164v.711l-2.078.125c-2.14.125-3.336 1.031-3.336 2.578v.016c0 1.562 1.164 2.578 2.805 2.578zm-.578-2.719v-.016c0-.625.476-.992 1.453-1.054l1.734-.11v.633c0 .906-.789 1.602-1.844 1.602-.789 0-1.343-.399-1.343-1.055zm7.672 2.586h2.281v-4.812c0-1.219.82-1.961 2.117-1.961.352 0 .703.054 1.047.132v-1.992a3.445 3.445 0 00-.852-.109c-1.117 0-1.898.547-2.172 1.476h-.14v-1.336h-2.281V138zm7.047 0h2.281v-2.883l.625-.664 2.508 3.547h2.695l-3.531-4.953 3.304-3.649h-2.586l-2.875 3.399h-.14v-6.688h-2.281V138zm16.015.133c1.125 0 2.031-.477 2.469-1.274h.14V138h2.25v-5.875c0-1.836-1.289-2.914-3.57-2.914-2.164 0-3.586 1-3.765 2.508l-.008.07h2.109l.016-.031c.179-.508.703-.797 1.523-.797.938 0 1.445.422 1.445 1.164v.711l-2.078.125c-2.14.125-3.336 1.031-3.336 2.578v.016c0 1.562 1.164 2.578 2.805 2.578zm-.578-2.719v-.016c0-.625.477-.992 1.453-1.054l1.734-.11v.633c0 .906-.789 1.602-1.843 1.602-.789 0-1.344-.399-1.344-1.055zm11.094 2.766c2.203 0 3.773-1.11 3.773-2.813v-.008c0-1.273-.804-1.992-2.523-2.359l-1.43-.305c-.891-.195-1.211-.461-1.211-.922v-.007c0-.578.563-.946 1.352-.946.851 0 1.359.43 1.484.891l.008.039h2.117v-.031c-.094-1.383-1.344-2.508-3.601-2.508-2.149 0-3.586 1.078-3.586 2.695v.008c0 1.289.812 2.094 2.453 2.445l1.437.305c.875.195 1.219.484 1.219.945v.016c0 .57-.594.945-1.469.945-.898 0-1.422-.382-1.601-.914l-.016-.031h-2.242l.008.031c.164 1.477 1.492 2.524 3.828 2.524zm9.992-.18h2.359v-3.555h2.289c2.375 0 3.961-1.531 3.961-3.851v-.016c0-2.32-1.586-3.851-3.961-3.851h-4.648V138zm4.07-9.406c1.352 0 2.149.711 2.149 1.992v.016c0 1.281-.797 2-2.149 2h-1.711v-4.008h1.711zm8.516 9.539c1.125 0 2.031-.477 2.469-1.274h.14V138h2.25v-5.875c0-1.836-1.289-2.914-3.57-2.914-2.164 0-3.586 1-3.766 2.508l-.008.07h2.11l.016-.031c.179-.508.703-.797 1.523-.797.937 0 1.445.422 1.445 1.164v.711l-2.078.125c-2.14.125-3.336 1.031-3.336 2.578v.016c0 1.562 1.164 2.578 2.805 2.578zm-.578-2.719v-.016c0-.625.476-.992 1.453-1.054l1.734-.11v.633c0 .906-.789 1.602-1.844 1.602-.789 0-1.343-.399-1.343-1.055zm8.836-7.336c.703 0 1.281-.562 1.281-1.266 0-.71-.578-1.273-1.281-1.273s-1.289.563-1.289 1.273c0 .704.586 1.266 1.289 1.266zM302.406 138h2.282v-8.602h-2.282V138zm7.649.133c1.211 0 2.125-.539 2.57-1.469h.141V138h2.281v-11.891h-2.281v4.664h-.141c-.43-.937-1.391-1.515-2.57-1.515-2.18 0-3.493 1.664-3.493 4.43v.015c0 2.75 1.344 4.43 3.493 4.43zm.773-1.891c-1.203 0-1.945-.953-1.945-2.539v-.015c0-1.571.742-2.54 1.945-2.54s1.961.969 1.961 2.547v.016c0 1.578-.75 2.531-1.961 2.531zm8.219 1.953c.805 0 1.375-.586 1.375-1.359 0-.774-.57-1.352-1.375-1.352-.797 0-1.375.578-1.375 1.352 0 .773.578 1.359 1.375 1.359zm5.562 0c.805 0 1.375-.586 1.375-1.359 0-.774-.57-1.352-1.375-1.352-.797 0-1.375.578-1.375 1.352 0 .773.578 1.359 1.375 1.359zm5.563 0c.805 0 1.375-.586 1.375-1.359 0-.774-.57-1.352-1.375-1.352-.797 0-1.375.578-1.375 1.352 0 .773.578 1.359 1.375 1.359z" fill="#fff"/></g><g filter="url(#filter2_d)"><rect x="70" y="144" width="310" height="78" rx="10" fill="#1677FA"/><rect x="70" y="144" width="310" height="78" rx="10" fill="#0075FF"/><path d="M110.781 189h1.407v-10.008h3.632v-1.265h-8.672v1.265h3.633V189zm7.117 0h1.36v-4.984c0-1.477.851-2.383 2.195-2.383 1.344 0 1.969.726 1.969 2.242V189h1.359v-5.453c0-2-1.054-3.117-2.945-3.117-1.242 0-2.031.523-2.453 1.414h-.125v-4.61h-1.36V189zm12.782.148c1.984 0 3.187-1.125 3.476-2.265l.016-.063h-1.36l-.031.071c-.226.507-.929 1.047-2.07 1.047-1.5 0-2.461-1.016-2.5-2.758h6.062v-.532c0-2.515-1.39-4.218-3.679-4.218-2.289 0-3.774 1.781-3.774 4.382v.008c0 2.641 1.453 4.328 3.86 4.328zm-.094-7.507c1.242 0 2.164.789 2.305 2.453h-4.657c.149-1.602 1.102-2.453 2.352-2.453zm11.016-2.688a.94.94 0 00.937-.937.94.94 0 00-.937-.938.94.94 0 00-.938.938.94.94 0 00.938.937zM140.914 189h1.359v-8.422h-1.359V189zm3.922 0h1.359v-4.984c0-1.477.852-2.383 2.196-2.383 1.343 0 1.968.726 1.968 2.242V189h1.36v-5.453c0-2-1.055-3.117-2.946-3.117-1.242 0-2.031.523-2.453 1.414h-.125v-1.266h-1.359V189zm11.414 0h1.375l3.117-8.422h-1.437L157 187.516h-.125l-2.305-6.938h-1.437L156.25 189zm9.438.148c2.398 0 3.882-1.656 3.882-4.351v-.016c0-2.703-1.484-4.351-3.882-4.351-2.399 0-3.883 1.648-3.883 4.351v.016c0 2.695 1.484 4.351 3.883 4.351zm0-1.203c-1.594 0-2.493-1.164-2.493-3.148v-.016c0-1.992.899-3.148 2.493-3.148 1.593 0 2.492 1.156 2.492 3.148v.016c0 1.984-.899 3.148-2.492 3.148zm6.71-8.992a.94.94 0 00.938-.937.94.94 0 00-.938-.938.94.94 0 00-.937.938.94.94 0 00.937.937zM171.711 189h1.359v-8.422h-1.359V189zm7.367.148c2.024 0 3.156-1.086 3.5-2.609l.016-.086-1.344.008-.016.047c-.312.937-1.031 1.437-2.164 1.437-1.5 0-2.468-1.242-2.468-3.179v-.016c0-1.898.953-3.117 2.468-3.117 1.211 0 1.961.672 2.172 1.5l.008.023h1.352l-.008-.047c-.25-1.5-1.477-2.679-3.524-2.679-2.359 0-3.859 1.703-3.859 4.32v.016c0 2.672 1.508 4.382 3.867 4.382zm8.945 0c1.985 0 3.188-1.125 3.477-2.265l.016-.063h-1.36l-.031.071c-.227.507-.93 1.047-2.07 1.047-1.5 0-2.461-1.016-2.5-2.758h6.062v-.532c0-2.515-1.39-4.218-3.679-4.218-2.29 0-3.774 1.781-3.774 4.382v.008c0 2.641 1.453 4.328 3.859 4.328zm-.093-7.507c1.242 0 2.164.789 2.304 2.453h-4.656c.149-1.602 1.102-2.453 2.352-2.453zM198.305 189h1.359v-4.984c0-1.477.852-2.383 2.195-2.383 1.344 0 1.969.726 1.969 2.242V189h1.36v-5.453c0-2-1.055-3.117-2.946-3.117-1.242 0-2.031.523-2.453 1.414h-.125v-4.61h-1.359V189zm11.656.148c1.133 0 2.016-.492 2.547-1.39h.125V189h1.359v-5.766c0-1.75-1.148-2.804-3.203-2.804-1.797 0-3.078.89-3.297 2.211l-.008.047h1.36l.008-.024c.218-.656.882-1.031 1.89-1.031 1.258 0 1.891.562 1.891 1.601V184l-2.414.148c-1.961.118-3.071.985-3.071 2.485v.015c0 1.532 1.211 2.5 2.813 2.5zm-1.422-2.531v-.015c0-.836.563-1.29 1.844-1.368l2.25-.14v.765c0 1.203-1.008 2.11-2.391 2.11-.976 0-1.703-.5-1.703-1.352zm10.828 2.531c1.914 0 3.375-1.039 3.375-2.539v-.015c0-1.203-.765-1.891-2.351-2.274l-1.297-.312c-.992-.242-1.414-.602-1.414-1.172v-.016c0-.742.734-1.258 1.734-1.258 1.016 0 1.672.461 1.852 1.126h1.336c-.188-1.376-1.414-2.258-3.18-2.258-1.789 0-3.133 1.054-3.133 2.453v.008c0 1.211.711 1.898 2.289 2.273l1.305.313c1.039.25 1.469.648 1.469 1.218v.016c0 .766-.805 1.305-1.938 1.305-1.078 0-1.75-.461-1.976-1.164h-1.391c.156 1.39 1.445 2.296 3.32 2.296zm14.172 0c2.133 0 3.531-1.726 3.531-4.351v-.016c0-2.64-1.39-4.351-3.531-4.351-1.156 0-2.164.578-2.625 1.476h-.125v-4.672h-1.359V189h1.359v-1.344h.125c.516.938 1.453 1.492 2.625 1.492zm-.312-1.203c-1.532 0-2.469-1.203-2.469-3.148v-.016c0-1.945.937-3.148 2.469-3.148 1.539 0 2.453 1.187 2.453 3.148v.016c0 1.961-.914 3.148-2.453 3.148zm9.39 1.203c1.985 0 3.188-1.125 3.477-2.265l.015-.063h-1.359l-.031.071c-.227.507-.93 1.047-2.071 1.047-1.5 0-2.46-1.016-2.5-2.758h6.063v-.532c0-2.515-1.391-4.218-3.68-4.218s-3.773 1.781-3.773 4.382v.008c0 2.641 1.453 4.328 3.859 4.328zm-.094-7.507c1.243 0 2.165.789 2.305 2.453h-4.656c.148-1.602 1.101-2.453 2.351-2.453zm9.235 7.507c1.984 0 3.187-1.125 3.476-2.265l.016-.063h-1.359l-.032.071c-.226.507-.929 1.047-2.07 1.047-1.5 0-2.461-1.016-2.5-2.758h6.063v-.532c0-2.515-1.391-4.218-3.68-4.218s-3.774 1.781-3.774 4.382v.008c0 2.641 1.454 4.328 3.86 4.328zm-.094-7.507c1.242 0 2.164.789 2.305 2.453h-4.657c.149-1.602 1.102-2.453 2.352-2.453zm5.797 7.359h1.359v-4.984c0-1.477.852-2.383 2.196-2.383 1.343 0 1.968.726 1.968 2.242V189h1.36v-5.453c0-2-1.055-3.117-2.946-3.117-1.242 0-2.031.523-2.453 1.414h-.125v-1.266h-1.359V189zm14.406 0h1.36v-7.297h1.914v-1.125h-1.914v-.898c0-.922.39-1.399 1.359-1.399.242 0 .469.008.633.039v-1.086a4.775 4.775 0 00-.907-.078c-1.601 0-2.445.805-2.445 2.485v.937h-1.398v1.125h1.398V189zm8.055.148c1.234 0 2.086-.507 2.5-1.406h.125V189h1.359v-8.422h-1.359v4.984c0 1.477-.789 2.383-2.274 2.383-1.343 0-1.89-.726-1.89-2.242v-5.125h-1.36v5.453c0 1.992.985 3.117 2.899 3.117zm6.601-.148h1.36v-11.766h-1.36V189zm4.047 0h1.36v-11.766h-1.36V189zm4.688 2.953c1.492 0 2.187-.547 2.883-2.437l3.289-8.938H300l-2.305 6.93h-.125l-2.312-6.93h-1.453l3.117 8.43-.156.5c-.305.969-.774 1.32-1.547 1.32-.188 0-.399-.008-.563-.039v1.117c.188.032.422.047.602.047zm12.469-.141h1.359v-4.14h.125c.461.898 1.469 1.476 2.625 1.476 2.141 0 3.531-1.71 3.531-4.351v-.016c0-2.625-1.398-4.351-3.531-4.351-1.172 0-2.109.554-2.625 1.492h-.125v-1.344h-1.359v11.234zm3.796-3.867c-1.531 0-2.468-1.203-2.468-3.148v-.016c0-1.945.937-3.148 2.468-3.148 1.539 0 2.454 1.187 2.454 3.148v.016c0 1.961-.915 3.148-2.454 3.148zm8.282 1.203c1.133 0 2.015-.492 2.547-1.39h.125V189h1.359v-5.766c0-1.75-1.148-2.804-3.203-2.804-1.797 0-3.078.89-3.297 2.211l-.008.047h1.36l.007-.024c.219-.656.883-1.031 1.891-1.031 1.258 0 1.891.562 1.891 1.601V184l-2.415.148c-1.96.118-3.07.985-3.07 2.485v.015c0 1.532 1.211 2.5 2.813 2.5zm-1.422-2.531v-.015c0-.836.562-1.29 1.844-1.368l2.25-.14v.765c0 1.203-1.008 2.11-2.391 2.11-.977 0-1.703-.5-1.703-1.352zm8.656-7.664a.94.94 0 00.938-.937.94.94 0 00-.938-.938.94.94 0 00-.937.938.94.94 0 00.937.937zM326.352 189h1.359v-8.422h-1.359V189zm7.031.148c1.172 0 2.109-.554 2.625-1.492h.125V189h1.359v-11.766h-1.359v4.672h-.125c-.461-.898-1.469-1.476-2.625-1.476-2.141 0-3.531 1.711-3.531 4.351v.016c0 2.625 1.398 4.351 3.531 4.351zm.312-1.203c-1.539 0-2.453-1.187-2.453-3.148v-.016c0-1.961.914-3.148 2.453-3.148 1.532 0 2.469 1.203 2.469 3.148v.016c0 1.945-.937 3.148-2.469 3.148zm7.516 1.133a1.02 1.02 0 001.016-1.016c0-.562-.454-1.015-1.016-1.015-.555 0-1.016.453-1.016 1.015 0 .555.461 1.016 1.016 1.016z" fill="#fff"/></g><defs><filter id="filter0_d" x="0" y="0" width="371" height="138" filterUnits="userSpaceOnUse" color-interpolation-filters="sRGB"><feFlood flood-opacity="0" result="BackgroundImageFix"/><feColorMatrix in="SourceAlpha" values="0 0 0 0 0 0 0 0 0 0 0 0 0 0 0 0 0 0 127 0" result="hardAlpha"/><feOffset dy="10"/><feGaussianBlur stdDeviation="15"/><feColorMatrix values="0 0 0 0 0.0451389 0 0 0 0 0.203201 0 0 0 0 0.416667 0 0 0 0.1 0"/><feBlend in2="BackgroundImageFix" result="effect1_dropShadow"/><feBlend in="SourceGraphic" in2="effect1_dropShadow" result="shape"/></filter><filter id="filter1_d" x="88" y="62" width="371" height="138" filterUnits="userSpaceOnUse" color-interpolation-filters="sRGB"><feFlood flood-opacity="0" result="BackgroundImageFix"/><feColorMatrix in="SourceAlpha" values="0 0 0 0 0 0 0 0 0 0 0 0 0 0 0 0 0 0 127 0" result="hardAlpha"/><feOffset dy="10"/><feGaussianBlur stdDeviation="15"/><feColorMatrix values="0 0 0 0 0.0451389 0 0 0 0 0.203201 0 0 0 0 0.416667 0 0 0 0.1 0"/><feBlend in2="BackgroundImageFix" result="effect1_dropShadow"/><feBlend in="SourceGraphic" in2="effect1_dropShadow" result="shape"/></filter><filter id="filter2_d" x="40" y="124" width="370" height="138" filterUnits="userSpaceOnUse" color-interpolation-filters="sRGB"><feFlood flood-opacity="0" result="BackgroundImageFix"/><feColorMatrix in="SourceAlpha" values="0 0 0 0 0 0 0 0 0 0 0 0 0 0 0 0 0 0 127 0" result="hardAlpha"/><feOffset dy="10"/><feGaussianBlur stdDeviation="15"/><feColorMatrix values="0 0 0 0 0.0451389 0 0 0 0 0.203201 0 0 0 0 0.416667 0 0 0 0.1 0"/><feBlend in2="BackgroundImageFix" result="effect1_dropShadow"/><feBlend in="SourceGraphic" in2="effect1_dropShadow" result="shape"/></filter></defs></svg>