<svg width="356" height="316" fill="none" xmlns="http://www.w3.org/2000/svg"><g filter="url(#filter0_d)"><rect x="27.5" y="93.576" width="113.754" height="75.836" rx="8" fill="#fff"/><g clip-path="url(#clip0)"><path d="M84.371 127.911c-.052 3.946 3.673 6.148 6.48 7.457 2.884 1.343 3.852 2.204 3.841 3.405-.022 1.839-2.3 2.65-4.432 2.682-3.72.055-5.884-.962-7.603-1.731l-1.34 6.003c1.725.761 4.92 1.425 8.233 1.454 7.776 0 12.863-3.675 12.891-9.372.03-7.23-10.448-7.63-10.376-10.862.024-.98 1.001-2.025 3.142-2.291 1.06-.135 3.984-.237 7.3 1.224l1.302-5.807c-1.783-.622-4.076-1.217-6.93-1.217-7.318 0-12.467 3.724-12.508 9.055zm31.944-8.555c-1.42 0-2.617.793-3.151 2.01l-11.108 25.388h7.77l1.547-4.09h9.496l.897 4.09h6.849l-5.977-27.398h-6.323zm1.087 7.401l2.242 10.288h-6.141l3.899-10.288zm-42.453-7.401l-6.125 27.398h7.405l6.122-27.398H74.95zm-10.954 0l-7.707 18.648-3.118-15.856c-.366-1.77-1.81-2.792-3.415-2.792h-12.6l-.175.796c2.586.537 5.525 1.404 7.305 2.331 1.09.566 1.4 1.061 1.758 2.407l5.905 21.864h7.826l11.997-27.398h-7.776z" fill="#7B78FF"/><path d="M84.371 127.911c-.052 3.946 3.673 6.148 6.48 7.457 2.884 1.343 3.852 2.204 3.841 3.405-.022 1.839-2.3 2.65-4.432 2.682-3.72.055-5.884-.962-7.603-1.731l-1.34 6.003c1.725.761 4.92 1.425 8.233 1.454 7.776 0 12.863-3.675 12.891-9.372.03-7.23-10.448-7.63-10.376-10.862.024-.98 1.001-2.025 3.142-2.291 1.06-.135 3.984-.237 7.3 1.224l1.302-5.807c-1.783-.622-4.076-1.217-6.93-1.217-7.318 0-12.467 3.724-12.508 9.055zm31.944-8.555c-1.42 0-2.617.793-3.151 2.01l-11.108 25.388h7.77l1.547-4.09h9.496l.897 4.09h6.849l-5.977-27.398h-6.323zm1.087 7.401l2.242 10.288h-6.141l3.899-10.288zm-42.453-7.401l-6.125 27.398h7.405l6.122-27.398H74.95zm-10.954 0l-7.707 18.648-3.118-15.856c-.366-1.77-1.81-2.792-3.415-2.792h-12.6l-.175.796c2.586.537 5.525 1.404 7.305 2.331 1.09.566 1.4 1.061 1.758 2.407l5.905 21.864h7.826l11.997-27.398h-7.776z" fill="url(#paint0_linear)" fill-opacity=".4"/></g></g><g filter="url(#filter1_d)"><rect x="117.556" y="139.078" width="113.754" height="75.836" rx="8" fill="#fff"/><path d="M182.976 162.093h-17.087v29.808h17.087v-29.808z" fill="#FF5F00"/><path d="M166.973 176.996c0-6.056 2.93-11.428 7.432-14.904a19.778 19.778 0 00-12.042-4.055c-10.795 0-19.529 8.479-19.529 18.959s8.734 18.959 19.529 18.959c4.556 0 8.733-1.527 12.042-4.055-4.502-3.423-7.432-8.848-7.432-14.904z" fill="#EB001B"/><path d="M206.032 176.996c0 10.48-8.734 18.959-19.529 18.959a19.78 19.78 0 01-12.043-4.055c4.557-3.476 7.432-8.848 7.432-14.904 0-6.056-2.929-11.428-7.432-14.904a19.78 19.78 0 0112.043-4.055c10.795 0 19.529 8.532 19.529 18.959z" fill="#F79E1B"/></g><g filter="url(#filter2_d)"><rect x="154.745" y="18.741" width="113.754" height="75.836" rx="8" fill="#fff"/><path d="M169.023 40.944l-4.781 11.116h3.112l.883-2.226h5.128l.878 2.226h3.181l-4.777-11.116h-3.624zm1.769 2.587l1.563 3.89h-3.131l1.568-3.89zm6.962 8.525V40.94l4.424.017 2.572 7.167 2.512-7.184h4.387v11.117h-2.779v-8.191l-2.945 8.19h-2.438l-2.954-8.19v8.19h-2.779zm15.796 0V40.94h9.069v2.487h-6.26v1.901h6.113v2.34h-6.113v1.975h6.26v2.413h-9.069zm10.678-11.112V52.06h2.779v-3.949h1.17l3.332 3.95h3.396l-3.657-4.096a3.385 3.385 0 003.049-3.414c0-2.34-1.836-3.607-3.885-3.607h-6.184zm2.779 2.487h3.176c.762 0 1.317.596 1.317 1.17 0 .738-.719 1.17-1.276 1.17h-3.217v-2.34zm11.263 8.625h-2.838V40.94h2.838v11.117zm6.727 0h-.613c-2.963 0-4.762-2.334-4.762-5.512 0-3.256 1.779-5.604 5.521-5.604h3.072v2.633h-3.184c-1.519 0-2.594 1.186-2.594 2.999 0 2.152 1.229 3.056 2.999 3.056h.731l-1.17 2.428zm6.047-11.112l-4.781 11.116h3.112l.883-2.226h5.128l.878 2.226h3.181l-4.777-11.116h-3.624zm1.769 2.587l1.563 3.89h-3.131l1.568-3.89zm6.956 8.525V40.94h3.533l4.511 6.985V40.94h2.779v11.117h-3.419l-4.625-7.167v7.166h-2.779zm-55.287 19.456V60.395h9.068v2.487h-6.26v1.901h6.114v2.34h-6.114v1.975h6.26v2.414h-9.068zm44.435 0V60.395h9.068v2.487h-6.26v1.901h6.085v2.34h-6.085v1.975h6.26v2.414h-9.068zm-35.015 0l4.416-5.49-4.521-5.627h3.502l2.692 3.479 2.701-3.479h3.364l-4.461 5.559 4.424 5.558h-3.501l-2.614-3.424-2.551 3.424h-3.451zm12.446-11.117v11.117h2.852v-3.51h2.925c2.475 0 4.351-1.314 4.351-3.868 0-2.115-1.471-3.739-3.99-3.739h-6.138zm2.852 2.514h3.081c.799 0 1.371.49 1.371 1.28 0 .742-.569 1.28-1.381 1.28H209.2v-2.56zm8.482-2.514v11.117h2.779v-3.95h1.17l3.332 3.95h3.396l-3.656-4.096a3.385 3.385 0 003.048-3.414c0-2.34-1.836-3.606-3.885-3.606h-6.184zm2.779 2.487h3.177c.762 0 1.316.596 1.316 1.17 0 .739-.718 1.17-1.275 1.17h-3.218v-2.34zm18.812 8.63v-2.414h5.561c.823 0 1.18-.445 1.18-.932 0-.468-.355-.94-1.18-.94h-2.513c-2.184 0-3.401-1.331-3.401-3.33 0-1.782 1.114-3.5 4.36-3.5h5.412l-1.17 2.5h-4.68c-.895 0-1.17.47-1.17.918 0 .461.34.97 1.023.97h2.633c2.435 0 3.492 1.38 3.492 3.19 0 1.945-1.177 3.538-3.624 3.538h-5.923zm10.198 0v-2.414h5.562c.823 0 1.179-.445 1.179-.932 0-.468-.355-.94-1.179-.94h-2.514c-2.184 0-3.401-1.331-3.401-3.33 0-1.782 1.114-3.5 4.361-3.5h5.411l-1.17 2.5h-4.68c-.895 0-1.17.47-1.17.918 0 .461.34.97 1.024.97h2.632c2.436 0 3.492 1.38 3.492 3.19 0 1.945-1.177 3.538-3.624 3.538h-5.923z" fill="#298ADF"/></g><g filter="url(#filter3_d)"><rect x="214.246" y="89.786" width="113.754" height="75.836" rx="8" fill="#fff"/><g clip-path="url(#clip1)"><path d="M231.439 132.881c-.92.822-2.114 1.18-4.004 1.18h-.786v-9.819h.786c1.89 0 3.037.334 4.004 1.201 1.012.892 1.62 2.274 1.62 3.696 0 1.426-.608 2.85-1.62 3.742zm-3.418-11.155h-4.295v14.849h4.272c2.272 0 3.912-.53 5.352-1.714 1.711-1.402 2.723-3.515 2.723-5.7 0-4.383-3.307-7.435-8.052-7.435zm9.399 14.849h2.926v-14.849h-2.926v14.849zm10.08-9.151c-1.755-.643-2.271-1.067-2.271-1.87 0-.935.918-1.646 2.18-1.646.876 0 1.597.357 2.359 1.203l1.531-1.984a6.599 6.599 0 00-4.408-1.647c-2.654 0-4.678 1.825-4.678 4.255 0 2.046.942 3.093 3.69 4.072 1.146.4 1.729.667 2.023.846.585.378.877.913.877 1.537 0 1.203-.966 2.094-2.272 2.094-1.395 0-2.519-.691-3.193-1.98l-1.89 1.801c1.348 1.959 2.967 2.828 5.193 2.828 3.041 0 5.174-2.002 5.174-4.877 0-2.359-.986-3.427-4.315-4.632zm5.238 1.738c0 4.365 3.462 7.749 7.918 7.749 1.259 0 2.338-.245 3.668-.865v-3.41c-1.17 1.159-2.206 1.626-3.532 1.626-2.947 0-5.039-2.115-5.039-5.122 0-2.851 2.158-5.1 4.903-5.1 1.395 0 2.451.493 3.668 1.671v-3.408c-1.284-.645-2.341-.912-3.599-.912-4.433 0-7.987 3.453-7.987 7.771zm34.786 2.537l-4-9.975h-3.196l6.365 15.231h1.575l6.48-15.231h-3.171l-4.053 9.975zm8.547 4.876h8.298v-2.514h-5.375v-4.008h5.177v-2.515h-5.177v-3.296h5.375v-2.516h-8.298v14.849zm14.013-8.013h-.855v-4.497h.901c1.822 0 2.813.755 2.813 2.201 0 1.492-.991 2.296-2.859 2.296zm5.87-2.452c0-2.78-1.934-4.384-5.309-4.384h-4.338v14.849h2.922v-5.965h.382l4.05 5.965h3.598l-4.722-6.256c2.204-.443 3.417-1.936 3.417-4.209z" fill="#8A8A8A" fill-opacity=".8"/><path d="M317.268 122.461h-.053v-.341h.056c.156 0 .236.055.236.168 0 .115-.081.173-.239.173zm.554-.178c0-.26-.181-.403-.499-.403h-.423v1.306h.315v-.507l.369.507h.384l-.434-.539c.186-.049.288-.183.288-.364z" fill="#201D1C"/><path d="M317.382 123.466a.925.925 0 01-.916-.933c0-.52.407-.935.916-.935.501 0 .91.424.91.935a.924.924 0 01-.91.933zm.004-2.073a1.137 1.137 0 100 2.276 1.14 1.14 0 001.135-1.138c0-.623-.511-1.138-1.135-1.138z" fill="#201D1C"/><ellipse cx="273.234" cy="129.336" rx="8.033" ry="7.953" fill="url(#paint1_linear)"/></g></g><path d="M79.344 308.402c.235 0 .615-.088.981-.293 8.33-4.669 11.184-6.645 11.184-11.988v-11.199c0-1.537-.659-2.02-1.903-2.547-1.727-.717-7.304-2.722-9.032-3.322a3.95 3.95 0 00-1.23-.22c-.41 0-.834.117-1.214.22-1.728.497-7.32 2.62-9.047 3.322-1.23.513-1.903 1.01-1.903 2.547v11.199c0 5.343 2.87 7.304 11.184 11.988.38.205.746.293.98.293zm0-2.649c-.234 0-.468-.088-.907-.352-6.763-4.098-8.93-5.299-8.93-9.822v-10.203c0-.497.088-.688.498-.849 2.225-.878 6.544-2.327 8.754-3.206a1.43 1.43 0 01.585-.131c.162 0 .352.044.586.131 2.21.879 6.5 2.43 8.768 3.206.396.147.483.352.483.849v10.203c0 4.523-2.166 5.709-8.929 9.822-.424.264-.673.352-.907.352zm-1.595-5.9c.483 0 .893-.234 1.186-.673l6.69-10.539c.175-.279.35-.601.35-.937 0-.644-.585-1.069-1.185-1.069-.38 0-.747.22-1.025.659l-6.075 9.749-2.883-3.733c-.352-.468-.674-.6-1.069-.6-.644 0-1.142.512-1.142 1.171 0 .307.132.629.337.908l3.572 4.391c.366.483.76.673 1.244.673zm28.269-4.523v5.461h-3.194v-15.5h6.047c1.164 0 2.186.212 3.066.638.887.426 1.568 1.033 2.044 1.821.475.78.713 1.671.713 2.672 0 1.519-.522 2.718-1.565 3.598-1.036.873-2.473 1.31-4.311 1.31h-2.8zm0-2.587h2.853c.844 0 1.487-.199 1.927-.596.447-.398.67-.966.67-1.704 0-.759-.223-1.373-.67-1.842-.447-.468-1.065-.709-1.853-.723h-2.927v4.865zm10.049 2.182c0-1.143.22-2.161.66-3.055.441-.895 1.072-1.587 1.895-2.076.831-.49 1.793-.735 2.885-.735 1.555 0 2.822.476 3.801 1.427.987.951 1.537 2.243 1.65 3.875l.022.788c0 1.767-.494 3.186-1.48 4.258-.987 1.065-2.31 1.597-3.971 1.597s-2.988-.532-3.982-1.597c-.986-1.065-1.48-2.512-1.48-4.343v-.139zm3.077.224c0 1.093.206 1.93.618 2.512.411.575 1 .862 1.767.862.745 0 1.327-.283 1.746-.851.418-.575.628-1.491.628-2.747 0-1.072-.21-1.902-.628-2.491-.419-.589-1.008-.884-1.768-.884-.752 0-1.334.295-1.745.884-.412.582-.618 1.487-.618 2.715zm19.748 1.458l1.512-7.335h2.97l-2.938 11.519h-2.576l-2.183-7.25-2.182 7.25h-2.566l-2.938-11.519h2.97l1.501 7.325 2.108-7.325h2.225l2.097 7.335zm11.317 4.397c-1.689 0-3.066-.518-4.131-1.554-1.057-1.037-1.586-2.417-1.586-4.142v-.298c0-1.157.224-2.189.671-3.098.447-.915 1.079-1.618 1.895-2.108.823-.496 1.76-.745 2.81-.745 1.576 0 2.814.497 3.716 1.491.908.993 1.362 2.402 1.362 4.226v1.256h-7.335c.1.753.398 1.356.895 1.81.503.454 1.139.681 1.905.681 1.185 0 2.112-.429 2.779-1.288l1.511 1.693c-.461.653-1.085 1.164-1.873 1.533-.788.362-1.661.543-2.619.543zm-.351-9.454c-.611 0-1.108.206-1.491.618-.376.411-.617 1.001-.724 1.767h4.28v-.245c-.014-.681-.199-1.206-.554-1.575-.355-.377-.858-.565-1.511-.565zm13.318.607a8.325 8.325 0 00-1.108-.085c-1.164 0-1.926.394-2.288 1.182v7.537h-3.077v-11.519h2.906l.085 1.373c.618-1.057 1.473-1.586 2.566-1.586.341 0 .66.046.958.139l-.042 2.959zm6.579 8.847c-1.689 0-3.066-.518-4.131-1.554-1.057-1.037-1.586-2.417-1.586-4.142v-.298c0-1.157.224-2.189.671-3.098.447-.915 1.078-1.618 1.895-2.108.823-.496 1.76-.745 2.81-.745 1.576 0 2.814.497 3.716 1.491.908.993 1.362 2.402 1.362 4.226v1.256h-7.335c.1.753.398 1.356.894 1.81.504.454 1.14.681 1.906.681 1.185 0 2.112-.429 2.779-1.288l1.511 1.693c-.461.653-1.086 1.164-1.873 1.533-.788.362-1.661.543-2.619.543zm-.352-9.454c-.61 0-1.107.206-1.49.618-.376.411-.617 1.001-.724 1.767h4.28v-.245c-.014-.681-.199-1.206-.554-1.575-.355-.377-.859-.565-1.512-.565zm6.367 3.396c0-1.795.401-3.225 1.203-4.29.809-1.064 1.912-1.597 3.311-1.597 1.121 0 2.047.419 2.778 1.256v-5.876h3.088v16.352h-2.779l-.149-1.224c-.767.958-1.753 1.437-2.96 1.437-1.355 0-2.445-.532-3.268-1.597-.816-1.072-1.224-2.559-1.224-4.461zm3.076.224c0 1.079.188 1.906.565 2.48.376.575.922.863 1.639.863.951 0 1.622-.401 2.012-1.203v-4.546c-.383-.802-1.047-1.203-1.991-1.203-1.483 0-2.225 1.203-2.225 3.609zm25.497-.032c0 1.845-.394 3.286-1.181 4.322-.788 1.029-1.888 1.544-3.301 1.544-1.249 0-2.246-.479-2.991-1.437l-.138 1.224h-2.768v-16.352h3.076v5.866c.71-.831 1.643-1.246 2.8-1.246 1.405 0 2.506.518 3.3 1.555.802 1.029 1.203 2.48 1.203 4.354v.17zm-3.076-.224c0-1.163-.185-2.012-.554-2.544-.369-.539-.919-.809-1.65-.809-.979 0-1.654.401-2.023 1.203v4.546c.376.809 1.058 1.213 2.044 1.213.994 0 1.647-.489 1.959-1.469.149-.468.224-1.181.224-2.14zm9.155 1.523l2.129-7.165h3.301l-4.631 13.308-.256.606c-.688 1.505-1.824 2.257-3.407 2.257a4.83 4.83 0 01-1.362-.202v-2.331l.468.01c.582 0 1.015-.089 1.299-.266.291-.177.518-.472.681-.884l.362-.947-4.035-11.551h3.311l2.14 7.165z" fill="#6C6D70"/><g clip-path="url(#clip2)"><path fill-rule="evenodd" clip-rule="evenodd" d="M300.575 295.728h-9.969c.235 2.315 1.979 3.058 3.958 3.058 2.028 0 3.661-.443 5.009-1.139v3.981a10.551 10.551 0 01-5.64 1.319c-4.96 0-8.448-2.998-8.448-8.969 0-5.025 2.956-9.018 7.792-9.018 4.849 0 7.372 3.933 7.372 8.994 0 .479-.049 1.511-.074 1.774zm-7.323-6.739c-1.274 0-2.684.876-2.684 3.094h5.257c0-2.218-1.323-3.094-2.573-3.094zm-15.795 13.958c-1.781 0-2.869-.719-3.587-1.247l-.024 5.552-5.096 1.044v-23.012h4.65l.099 1.223a5.912 5.912 0 013.995-1.547c3.587 0 6.952 3.118 6.952 8.874 0 6.271-3.34 9.113-6.989 9.113zm-1.175-13.61c-1.175 0-1.905.408-2.436.971l.024 7.339c.495.528 1.213.935 2.412.935 1.88 0 3.142-1.978 3.142-4.64 0-2.578-1.286-4.605-3.142-4.605zm-14.546-4.053h5.109V302.6h-5.109v-17.316zm0-5.636l5.109-1.044v4.03l-5.109 1.055v-4.041zm-5.343 11.212v11.74h-5.096v-17.316h4.577l.148 1.463c1.237-2.123 3.797-1.691 4.478-1.463v4.545c-.644-.204-2.833-.516-4.107 1.031zm-10.575 5.66c0 2.914 3.216 2.014 3.859 1.751v4.029c-.681.36-1.905.647-3.575.647a5.27 5.27 0 01-2.036-.346 5.138 5.138 0 01-1.73-1.097 4.97 4.97 0 01-1.144-1.669 4.84 4.84 0 01-.371-1.972l.012-15.793 4.972-1.031v4.245h3.884v4.233h-3.871v7.015-.012zm-6.073.839c0 3.562-2.858 5.588-7.088 5.588a14.22 14.22 0 01-5.516-1.115v-4.713c1.707.9 3.834 1.571 5.516 1.571 1.138 0 1.893-.287 1.893-1.199 0-2.374-7.743-1.487-7.743-6.955 0-3.489 2.82-5.576 6.951-5.576 1.682 0 3.364.24 5.059.899v4.653a11.702 11.702 0 00-5.071-1.271c-1.064 0-1.782.3-1.782 1.079 0 2.219 7.781 1.163 7.781 7.051v-.012z" fill="#6C6D70"/></g><defs><filter id="filter0_d" x=".147" y="75.341" width="168.46" height="130.542" filterUnits="userSpaceOnUse" color-interpolation-filters="sRGB"><feFlood flood-opacity="0" result="BackgroundImageFix"/><feColorMatrix in="SourceAlpha" values="0 0 0 0 0 0 0 0 0 0 0 0 0 0 0 0 0 0 127 0" result="hardAlpha"/><feOffset dy="9.118"/><feGaussianBlur stdDeviation="13.677"/><feColorMatrix values="0 0 0 0 0.0451389 0 0 0 0 0.203201 0 0 0 0 0.416667 0 0 0 0.1 0"/><feBlend in2="BackgroundImageFix" result="effect1_dropShadow"/><feBlend in="SourceGraphic" in2="effect1_dropShadow" result="shape"/></filter><filter id="filter1_d" x="90.203" y="120.843" width="168.46" height="130.542" filterUnits="userSpaceOnUse" color-interpolation-filters="sRGB"><feFlood flood-opacity="0" result="BackgroundImageFix"/><feColorMatrix in="SourceAlpha" values="0 0 0 0 0 0 0 0 0 0 0 0 0 0 0 0 0 0 127 0" result="hardAlpha"/><feOffset dy="9.118"/><feGaussianBlur stdDeviation="13.677"/><feColorMatrix values="0 0 0 0 0.0451389 0 0 0 0 0.203201 0 0 0 0 0.416667 0 0 0 0.1 0"/><feBlend in2="BackgroundImageFix" result="effect1_dropShadow"/><feBlend in="SourceGraphic" in2="effect1_dropShadow" result="shape"/></filter><filter id="filter2_d" x="127.392" y=".506" width="168.46" height="130.542" filterUnits="userSpaceOnUse" color-interpolation-filters="sRGB"><feFlood flood-opacity="0" result="BackgroundImageFix"/><feColorMatrix in="SourceAlpha" values="0 0 0 0 0 0 0 0 0 0 0 0 0 0 0 0 0 0 127 0" result="hardAlpha"/><feOffset dy="9.118"/><feGaussianBlur stdDeviation="13.677"/><feColorMatrix values="0 0 0 0 0.0451389 0 0 0 0 0.203201 0 0 0 0 0.416667 0 0 0 0.1 0"/><feBlend in2="BackgroundImageFix" result="effect1_dropShadow"/><feBlend in="SourceGraphic" in2="effect1_dropShadow" result="shape"/></filter><filter id="filter3_d" x="186.893" y="71.551" width="168.46" height="130.542" filterUnits="userSpaceOnUse" color-interpolation-filters="sRGB"><feFlood flood-opacity="0" result="BackgroundImageFix"/><feColorMatrix in="SourceAlpha" values="0 0 0 0 0 0 0 0 0 0 0 0 0 0 0 0 0 0 127 0" result="hardAlpha"/><feOffset dy="9.118"/><feGaussianBlur stdDeviation="13.677"/><feColorMatrix values="0 0 0 0 0.0451389 0 0 0 0 0.203201 0 0 0 0 0.416667 0 0 0 0.1 0"/><feBlend in2="BackgroundImageFix" result="effect1_dropShadow"/><feBlend in="SourceGraphic" in2="effect1_dropShadow" result="shape"/></filter><clipPath id="clip0"><path fill="#fff" transform="translate(36.98 118.854)" d="M0 0h91.635v28.439H0z"/></clipPath><clipPath id="clip1"><path fill="#fff" transform="translate(223.726 121.384)" d="M0 0h94.795v15.799H0z"/></clipPath><clipPath id="clip2"><path fill="#fff" transform="translate(226.807 278.604)" d="M0 0h74.213v29.979H0z"/></clipPath><linearGradient id="paint0_linear" x1="79.108" y1="147.749" x2="79.893" y2="118.657" gradientUnits="userSpaceOnUse"><stop stop-color="#222357"/><stop offset="1" stop-color="#254AA5"/></linearGradient><linearGradient id="paint1_linear" x1="264.827" y1="121.384" x2="281.101" y2="137.823" gradientUnits="userSpaceOnUse"><stop offset=".113" stop-color="#A52A20"/><stop offset=".469" stop-color="#E9581B"/><stop offset=".797" stop-color="#FF9D1E"/></linearGradient></defs></svg>