<svg width="311" height="291" fill="none" xmlns="http://www.w3.org/2000/svg"><mask id="a" style="mask-type:alpha" maskUnits="userSpaceOnUse" x="0" y="5" width="265" height="269"><path fill="#C4C4C4" d="M.871 5.491h263.962v268.152H.871z"/></mask><g mask="url(#a)" stroke-linecap="round"><path d="M17.01 6.33v266.475M62.26 6.33v266.475M107.511 6.33v266.475M152.762 6.33v266.475M198.012 6.33v266.475M243.263 6.33v266.475" stroke="#ADADB9" stroke-opacity=".43" stroke-width=".419" stroke-dasharray="1.68 1.68"/><path d="M264.263 6.33v266.475" stroke="#CACACD"/><path d="M-18.446 59.121h283.324m-283.324 53.631h283.324m-283.324 53.63h283.324m-283.324 53.631h283.324" stroke="#ADADB9" stroke-opacity=".43" stroke-width=".419"/><path d="M1 273.013h283.324" stroke="#CACACD"/></g><path fill="#5AC8FA" d="M140.813 83.424h23.463V53.257h-23.463zM95.562 95.993h23.463v-20.11H95.562z"/><path fill="#E5E5EA" d="M140.813 36.497h23.463v16.759h-23.463z"/><path fill="#007AFF" d="M140.813 83.424h23.463v190.22h-23.463zM95.562 95.993h23.463v177.651H95.562z"/><path d="M231.274 287.32h4.648v-.993h-3.029v-.097l1.341-1.299c1.22-1.174 1.586-1.777 1.586-2.537v-.014c0-1.128-.937-1.921-2.24-1.921-1.397 0-2.371.872-2.371 2.12l.005.014 1.113.005.005-.019c0-.691.478-1.16 1.187-1.16.696 0 1.118.446 1.118 1.063v.014c0 .514-.255.853-1.164 1.772l-2.199 2.245v.807zm7.612 0h1.197v-6.694h-1.192l-1.749 1.229v1.128l1.665-1.179h.079v5.516zm3.67.093c.426 0 .737-.32.737-.733a.718.718 0 00-.737-.733.72.72 0 00-.738.733.72.72 0 00.738.733zm4.3.074c1.591 0 2.555-1.35 2.555-3.512v-.009c0-2.162-.964-3.507-2.555-3.507-1.592 0-2.547 1.345-2.547 3.507v.009c0 2.162.955 3.512 2.547 3.512zm0-.97c-.854 0-1.341-.955-1.341-2.542v-.009c0-1.586.487-2.533 1.341-2.533.853 0 1.349.947 1.349 2.533v.009c0 1.587-.496 2.542-1.349 2.542zm6.419.97c1.452 0 2.487-.993 2.487-2.352v-.009c0-1.271-.9-2.208-2.185-2.208-.918 0-1.503.468-1.749.997h-.093c0-.051.005-.102.005-.153.051-1.28.501-2.319 1.563-2.319.589 0 1.002.306 1.179.774l.018.047h1.174l-.01-.051c-.213-1.025-1.131-1.754-2.361-1.754-1.684 0-2.699 1.336-2.699 3.591v.009c0 2.412 1.243 3.428 2.671 3.428zm-1.331-2.338v-.009c0-.756.58-1.304 1.336-1.304.761 0 1.313.557 1.313 1.331v.01a1.32 1.32 0 01-1.327 1.336c-.742 0-1.322-.599-1.322-1.364zm21.21-11.982c1.591 0 2.556-1.35 2.556-3.511v-.01c0-2.161-.965-3.507-2.556-3.507-1.591 0-2.546 1.346-2.546 3.507v.01c0 2.161.955 3.511 2.546 3.511zm0-.969c-.853 0-1.34-.956-1.34-2.542v-.01c0-1.586.487-2.532 1.34-2.532.854 0 1.35.946 1.35 2.532v.01c0 1.586-.496 2.542-1.35 2.542zm6.035 1.465h.543v-.77c1.234-.088 2.166-.747 2.166-1.888v-.009c0-1.002-.668-1.503-1.906-1.79l-.26-.061v-1.8c.557.079.942.409 1.002.951l.005.01 1.076-.005v-.005c-.042-1.062-.877-1.786-2.083-1.883v-.779h-.543v.779c-1.21.084-2.078.775-2.078 1.837v.009c0 .965.649 1.503 1.842 1.777l.236.056v1.874c-.696-.075-1.039-.436-1.118-.942l-.004-.009-1.077.004-.004.005c.037 1.122.974 1.79 2.203 1.869v.77zm-.96-5.487v-.009c0-.399.329-.747.96-.822v1.675c-.686-.181-.96-.455-.96-.844zm2.551 2.931v.01c0 .459-.324.788-1.048.849v-1.749c.793.199 1.048.45 1.048.89zM272.338 220h1.197v-6.694h-1.192l-1.749 1.23v1.127l1.665-1.178h.079V220zm2.658 1.767h.788l.808-2.788h-1.193l-.403 2.788zm5.311-1.6c1.591 0 2.556-1.35 2.556-3.511v-.01c0-2.161-.965-3.507-2.556-3.507-1.591 0-2.547 1.346-2.547 3.507v.01c0 2.161.956 3.511 2.547 3.511zm0-.969c-.853 0-1.34-.956-1.34-2.542v-.01c0-1.586.487-2.532 1.34-2.532.854 0 1.35.946 1.35 2.532v.01c0 1.586-.496 2.542-1.35 2.542zm6.318.969c1.591 0 2.556-1.35 2.556-3.511v-.01c0-2.161-.965-3.507-2.556-3.507-1.591 0-2.547 1.346-2.547 3.507v.01c0 2.161.956 3.511 2.547 3.511zm0-.969c-.854 0-1.341-.956-1.341-2.542v-.01c0-1.586.487-2.532 1.341-2.532s1.35.946 1.35 2.532v.01c0 1.586-.496 2.542-1.35 2.542zm6.318.969c1.591 0 2.556-1.35 2.556-3.511v-.01c0-2.161-.965-3.507-2.556-3.507-1.591 0-2.547 1.346-2.547 3.507v.01c0 2.161.956 3.511 2.547 3.511zm0-.969c-.854 0-1.341-.956-1.341-2.542v-.01c0-1.586.487-2.532 1.341-2.532.853 0 1.35.946 1.35 2.532v.01c0 1.586-.497 2.542-1.35 2.542zm6.035 1.465h.543v-.77c1.233-.088 2.166-.747 2.166-1.888v-.009c0-1.002-.668-1.503-1.907-1.79l-.259-.061v-1.8c.556.079.941.409 1.001.951l.005.01 1.076-.005v-.005c-.041-1.062-.876-1.786-2.082-1.883v-.779h-.543v.779c-1.211.084-2.078.775-2.078 1.837v.009c0 .965.649 1.503 1.841 1.777l.237.056v1.874c-.696-.075-1.039-.436-1.118-.942l-.005-.009-1.076.004-.005.005c.038 1.122.975 1.79 2.204 1.869v.77zm-.96-5.487v-.009c0-.399.329-.747.96-.822v1.675c-.687-.181-.96-.455-.96-.844zm2.551 2.931v.01c0 .459-.325.788-1.048.849v-1.749c.793.199 1.048.45 1.048.89zM270.7 167h4.648v-.993h-3.029v-.097l1.341-1.299c1.22-1.173 1.586-1.777 1.586-2.537v-.014c0-1.127-.937-1.921-2.24-1.921-1.396 0-2.371.872-2.371 2.12l.005.014 1.113.005.005-.019c0-.691.478-1.159 1.188-1.159.695 0 1.117.445 1.117 1.062v.014c0 .515-.255.853-1.164 1.772l-2.199 2.245V167zm5.734 1.767h.788l.808-2.788h-1.193l-.403 2.788zm5.311-1.6c1.591 0 2.556-1.35 2.556-3.511v-.01c0-2.161-.965-3.507-2.556-3.507-1.591 0-2.547 1.346-2.547 3.507v.01c0 2.161.956 3.511 2.547 3.511zm0-.969c-.853 0-1.34-.956-1.34-2.542v-.01c0-1.586.487-2.532 1.34-2.532.854 0 1.35.946 1.35 2.532v.01c0 1.586-.496 2.542-1.35 2.542zm6.318.969c1.591 0 2.556-1.35 2.556-3.511v-.01c0-2.161-.965-3.507-2.556-3.507-1.591 0-2.547 1.346-2.547 3.507v.01c0 2.161.956 3.511 2.547 3.511zm0-.969c-.854 0-1.341-.956-1.341-2.542v-.01c0-1.586.487-2.532 1.341-2.532s1.35.946 1.35 2.532v.01c0 1.586-.496 2.542-1.35 2.542zm6.318.969c1.591 0 2.556-1.35 2.556-3.511v-.01c0-2.161-.965-3.507-2.556-3.507-1.591 0-2.547 1.346-2.547 3.507v.01c0 2.161.956 3.511 2.547 3.511zm0-.969c-.854 0-1.341-.956-1.341-2.542v-.01c0-1.586.487-2.532 1.341-2.532.853 0 1.35.946 1.35 2.532v.01c0 1.586-.497 2.542-1.35 2.542zm6.035 1.465h.542v-.77c1.234-.088 2.167-.747 2.167-1.888v-.009c0-1.002-.668-1.503-1.907-1.79l-.26-.061v-1.8c.557.079.942.409 1.002.951l.005.01 1.076-.005v-.005c-.041-1.062-.876-1.786-2.083-1.883v-.779h-.542v.779c-1.211.084-2.078.775-2.078 1.837v.009c0 .965.649 1.503 1.841 1.777l.237.056v1.874c-.696-.075-1.039-.436-1.118-.942l-.005-.009-1.076.004-.005.005c.038 1.122.975 1.79 2.204 1.869v.77zm-.96-5.487v-.009c0-.399.329-.747.96-.822v1.675c-.687-.181-.96-.455-.96-.844zm2.551 2.931v.01c0 .459-.325.788-1.049.849v-1.749c.794.199 1.049.45 1.049.89zm-28.885-51.972c1.484 0 2.5-.822 2.5-2v-.009c0-.928-.654-1.512-1.637-1.605v-.023c.802-.167 1.4-.719 1.4-1.55v-.009c0-1.048-.895-1.767-2.272-1.767-1.35 0-2.264.761-2.366 1.92l-.005.051h1.113l.005-.046c.06-.598.547-.974 1.253-.974.714 0 1.127.362 1.127.974v.009c0 .585-.492 1.002-1.23 1.002h-.765v.891h.789c.858 0 1.377.389 1.377 1.095v.009c0 .621-.515 1.053-1.289 1.053-.784 0-1.308-.404-1.373-.97l-.005-.051h-1.141l.005.056c.088 1.146 1.048 1.944 2.514 1.944zm3.293 1.632h.789l.807-2.788h-1.192l-.404 2.788zm5.312-1.6c1.591 0 2.555-1.35 2.555-3.511v-.01c0-2.161-.964-3.507-2.555-3.507-1.592 0-2.547 1.346-2.547 3.507v.01c0 2.161.955 3.511 2.547 3.511zm0-.969c-.854 0-1.341-.956-1.341-2.542v-.01c0-1.586.487-2.532 1.341-2.532.853 0 1.349.946 1.349 2.532v.01c0 1.586-.496 2.542-1.349 2.542zm6.317.969c1.591 0 2.556-1.35 2.556-3.511v-.01c0-2.161-.965-3.507-2.556-3.507-1.591 0-2.546 1.346-2.546 3.507v.01c0 2.161.955 3.511 2.546 3.511zm0-.969c-.853 0-1.34-.956-1.34-2.542v-.01c0-1.586.487-2.532 1.34-2.532.854 0 1.35.946 1.35 2.532v.01c0 1.586-.496 2.542-1.35 2.542zm6.318.969c1.591 0 2.556-1.35 2.556-3.511v-.01c0-2.161-.965-3.507-2.556-3.507-1.591 0-2.546 1.346-2.546 3.507v.01c0 2.161.955 3.511 2.546 3.511zm0-.969c-.853 0-1.34-.956-1.34-2.542v-.01c0-1.586.487-2.532 1.34-2.532.854 0 1.35.946 1.35 2.532v.01c0 1.586-.496 2.542-1.35 2.542zm6.035 1.465h.543v-.77c1.234-.088 2.166-.747 2.166-1.888v-.009c0-1.002-.668-1.503-1.906-1.79l-.26-.061v-1.8c.557.079.942.409 1.002.951l.005.01 1.076-.005v-.005c-.042-1.062-.877-1.786-2.083-1.883v-.779h-.543v.779c-1.21.084-2.078.775-2.078 1.837v.009c0 .965.65 1.503 1.842 1.777l.236.056v1.874c-.696-.075-1.039-.436-1.118-.942l-.004-.009-1.077.004-.004.005c.037 1.122.974 1.79 2.203 1.869v.77zm-.96-5.487v-.009c0-.399.329-.747.96-.822v1.675c-.686-.181-.96-.455-.96-.844zm2.551 2.931v.01c0 .459-.324.788-1.048.849v-1.749c.793.199 1.048.45 1.048.89zm-28.871-51.94c1.447 0 2.463-.95 2.463-2.343v-.009c0-1.28-.904-2.208-2.152-2.208-.631 0-1.15.27-1.429.72h-.079l.186-2.037h3.085v-.984h-4.017l-.325 3.92h1.025c.079-.148.19-.278.311-.38.246-.223.57-.334.946-.334.765 0 1.313.547 1.313 1.326v.01c0 .788-.538 1.34-1.322 1.34-.687 0-1.192-.436-1.28-.983l-.005-.033h-1.104l.005.06c.088 1.1 1.011 1.935 2.379 1.935zm3.233 1.6h.789l.807-2.788h-1.192l-.404 2.788zm5.312-1.6c1.591 0 2.556-1.35 2.556-3.511v-.01c0-2.161-.965-3.507-2.556-3.507-1.591 0-2.547 1.346-2.547 3.507v.01c0 2.161.956 3.511 2.547 3.511zm0-.97c-.854 0-1.341-.955-1.341-2.541v-.01c0-1.586.487-2.532 1.341-2.532.853 0 1.349.946 1.349 2.532v.01c0 1.586-.496 2.541-1.349 2.541zm6.317.97c1.592 0 2.556-1.35 2.556-3.511v-.01c0-2.161-.964-3.507-2.556-3.507-1.591 0-2.546 1.346-2.546 3.507v.01c0 2.161.955 3.511 2.546 3.511zm0-.97c-.853 0-1.34-.955-1.34-2.541v-.01c0-1.586.487-2.532 1.34-2.532.854 0 1.35.946 1.35 2.532v.01c0 1.586-.496 2.541-1.35 2.541zm6.318.97c1.591 0 2.556-1.35 2.556-3.511v-.01c0-2.161-.965-3.507-2.556-3.507-1.591 0-2.546 1.346-2.546 3.507v.01c0 2.161.955 3.511 2.546 3.511zm0-.97c-.853 0-1.34-.955-1.34-2.541v-.01c0-1.586.487-2.532 1.34-2.532.854 0 1.35.946 1.35 2.532v.01c0 1.586-.496 2.541-1.35 2.541zm6.035 1.466h.543v-.77c1.234-.088 2.166-.746 2.166-1.888v-.009c0-1.002-.668-1.503-1.906-1.79l-.26-.06v-1.8c.557.078.942.408 1.002.95l.005.01 1.076-.005v-.005c-.042-1.062-.877-1.785-2.083-1.883v-.78h-.543v.78c-1.21.084-2.078.775-2.078 1.837v.01c0 .964.65 1.502 1.842 1.776l.236.056v1.874c-.696-.075-1.039-.437-1.118-.942l-.004-.01-1.076.005-.005.005c.037 1.123.974 1.79 2.203 1.87v.77zm-.96-5.487v-.01c0-.398.329-.746.96-.82v1.674c-.686-.18-.96-.455-.96-.844zm2.551 2.931v.01c0 .459-.324.788-1.048.849v-1.75c.793.2 1.048.45 1.048.891zm-28.667-47.94c1.452 0 2.487-.993 2.487-2.352v-.01c0-1.27-.9-2.207-2.185-2.207-.919 0-1.503.468-1.749.997h-.093c0-.05.005-.102.005-.153.051-1.28.501-2.32 1.563-2.32.589 0 1.002.307 1.178.775l.019.047h1.174l-.01-.051c-.213-1.025-1.132-1.754-2.361-1.754-1.684 0-2.7 1.336-2.7 3.59v.01c0 2.412 1.244 3.428 2.672 3.428zm-1.331-2.338v-.01c0-.755.58-1.303 1.336-1.303.761 0 1.313.557 1.313 1.332v.009a1.32 1.32 0 01-1.327 1.336c-.742 0-1.322-.599-1.322-1.364zm4.611 3.938h.788l.808-2.788h-1.193l-.403 2.788zm5.311-1.6c1.591 0 2.556-1.35 2.556-3.511v-.01c0-2.161-.965-3.507-2.556-3.507-1.591 0-2.546 1.346-2.546 3.507v.01c0 2.161.955 3.511 2.546 3.511zm0-.97c-.853 0-1.34-.955-1.34-2.541v-.01c0-1.586.487-2.532 1.34-2.532.854 0 1.35.946 1.35 2.532v.01c0 1.586-.496 2.542-1.35 2.542zm6.318.97c1.591 0 2.556-1.35 2.556-3.511v-.01c0-2.161-.965-3.507-2.556-3.507-1.591 0-2.547 1.346-2.547 3.507v.01c0 2.161.956 3.511 2.547 3.511zm0-.97c-.853 0-1.341-.955-1.341-2.541v-.01c0-1.586.488-2.532 1.341-2.532.854 0 1.35.946 1.35 2.532v.01c0 1.586-.496 2.542-1.35 2.542zm6.318.97c1.591 0 2.556-1.35 2.556-3.511v-.01c0-2.161-.965-3.507-2.556-3.507-1.591 0-2.547 1.346-2.547 3.507v.01c0 2.161.956 3.511 2.547 3.511zm0-.97c-.854 0-1.341-.955-1.341-2.541v-.01c0-1.586.487-2.532 1.341-2.532.853 0 1.35.946 1.35 2.532v.01c0 1.586-.497 2.542-1.35 2.542zm6.035 1.466h.543v-.77c1.233-.088 2.166-.747 2.166-1.888v-.009c0-1.002-.668-1.503-1.907-1.79l-.259-.06v-1.8c.556.078.941.408 1.001.95l.005.01 1.076-.005v-.005c-.041-1.062-.876-1.786-2.082-1.883v-.78h-.543v.78c-1.211.084-2.078.775-2.078 1.837v.01c0 .964.649 1.502 1.841 1.776l.237.056v1.874c-.696-.075-1.039-.436-1.118-.942l-.005-.01-1.076.005-.005.005c.038 1.122.975 1.79 2.204 1.87v.77zm-.96-5.487v-.01c0-.398.329-.746.96-.82V5.02c-.687-.18-.96-.455-.96-.844zm2.551 2.931v.01c0 .459-.325.788-1.048.849v-1.75c.793.2 1.048.45 1.048.891zM185.697 287.32h4.648v-.993h-3.029v-.097l1.341-1.299c1.22-1.174 1.586-1.777 1.586-2.537v-.014c0-1.128-.937-1.921-2.24-1.921-1.396 0-2.37.872-2.37 2.12l.004.014 1.113.005.005-.019c0-.691.478-1.16 1.188-1.16.695 0 1.118.446 1.118 1.063v.014c0 .514-.256.853-1.165 1.772l-2.199 2.245v.807zm7.613 0h1.196v-6.694h-1.192l-1.749 1.229v1.128l1.666-1.179h.079v5.516zm3.669.093c.426 0 .737-.32.737-.733a.718.718 0 00-.737-.733.722.722 0 00-.738.733c0 .413.316.733.738.733zm4.3.074c1.591 0 2.556-1.35 2.556-3.512v-.009c0-2.162-.965-3.507-2.556-3.507-1.591 0-2.547 1.345-2.547 3.507v.009c0 2.162.956 3.512 2.547 3.512zm0-.97c-.854 0-1.341-.955-1.341-2.542v-.009c0-1.586.487-2.533 1.341-2.533.853 0 1.35.947 1.35 2.533v.009c0 1.587-.497 2.542-1.35 2.542zm6.281.97c1.447 0 2.463-.951 2.463-2.343v-.009c0-1.28-.905-2.208-2.153-2.208-.631 0-1.15.269-1.428.719h-.079l.185-2.036h3.085v-.984h-4.017l-.325 3.92h1.025c.079-.149.191-.278.311-.38.246-.223.571-.334.946-.334.766 0 1.313.547 1.313 1.326v.009c0 .789-.538 1.341-1.322 1.341-.686 0-1.192-.436-1.28-.983l-.005-.033h-1.104l.005.06c.088 1.1 1.011 1.935 2.38 1.935zm-66.81-.167h4.648v-.993h-3.029v-.097l1.34-1.299c1.22-1.174 1.587-1.777 1.587-2.537v-.014c0-1.128-.937-1.921-2.241-1.921-1.396 0-2.37.872-2.37 2.12l.005.014 1.113.005.004-.019c0-.691.478-1.16 1.188-1.16.696 0 1.118.446 1.118 1.063v.014c0 .514-.255.853-1.164 1.772l-2.199 2.245v.807zm7.612 0h1.197v-6.694h-1.192l-1.749 1.229v1.128l1.665-1.179h.079v5.516zm3.669.093c.427 0 .738-.32.738-.733a.719.719 0 00-.738-.733.72.72 0 00-.737.733.72.72 0 00.737.733zm4.3.074c1.591 0 2.556-1.35 2.556-3.512v-.009c0-2.162-.965-3.507-2.556-3.507-1.591 0-2.546 1.345-2.546 3.507v.009c0 2.162.955 3.512 2.546 3.512zm0-.97c-.853 0-1.34-.955-1.34-2.542v-.009c0-1.586.487-2.533 1.34-2.533.854 0 1.35.947 1.35 2.533v.009c0 1.587-.496 2.542-1.35 2.542zm6.954.803h1.145v-1.285h.9v-.988h-.9v-4.421h-1.693a89.522 89.522 0 00-2.727 4.43v.979h3.275v1.285zm-2.162-2.245v-.07a69.396 69.396 0 012.11-3.423h.07v3.493h-2.18zm-65.936 2.245h4.648v-.993h-3.03v-.097l1.341-1.299c1.22-1.174 1.587-1.777 1.587-2.537v-.014c0-1.128-.937-1.921-2.24-1.921-1.397 0-2.371.872-2.371 2.12l.005.014 1.113.005.005-.019c0-.691.477-1.16 1.187-1.16.696 0 1.118.446 1.118 1.063v.014c0 .514-.255.853-1.164 1.772l-2.2 2.245v.807zm7.612 0h1.197v-6.694h-1.192l-1.749 1.229v1.128l1.665-1.179h.079v5.516zm3.669.093c.427 0 .738-.32.738-.733a.719.719 0 00-.738-.733.72.72 0 00-.737.733.72.72 0 00.737.733zm4.3.074c1.591 0 2.556-1.35 2.556-3.512v-.009c0-2.162-.965-3.507-2.556-3.507-1.591 0-2.546 1.345-2.546 3.507v.009c0 2.162.955 3.512 2.546 3.512zm0-.97c-.853 0-1.34-.955-1.34-2.542v-.009c0-1.586.487-2.533 1.34-2.533.854 0 1.35.947 1.35 2.533v.009c0 1.587-.496 2.542-1.35 2.542zm6.239.937c1.485 0 2.5-.821 2.5-1.999v-.009c0-.928-.654-1.512-1.637-1.605v-.023c.802-.167 1.401-.719 1.401-1.55v-.009c0-1.048-.895-1.767-2.273-1.767-1.35 0-2.264.76-2.366 1.92l-.004.051h1.113l.004-.046c.061-.599.548-.974 1.253-.974.714 0 1.127.361 1.127.974v.009c0 .584-.492 1.002-1.229 1.002h-.765v.891h.788c.858 0 1.378.389 1.378 1.094v.01c0 .621-.515 1.053-1.29 1.053-.784 0-1.308-.404-1.373-.97l-.004-.051h-1.142l.005.056c.088 1.145 1.048 1.943 2.514 1.943zm-66.973-.134h4.648v-.993h-3.03v-.097l1.341-1.299c1.22-1.174 1.587-1.777 1.587-2.537v-.014c0-1.128-.938-1.921-2.241-1.921-1.396 0-2.37.872-2.37 2.12l.004.014 1.114.005.004-.019c0-.691.478-1.16 1.188-1.16.695 0 1.118.446 1.118 1.063v.014c0 .514-.255.853-1.165 1.772l-2.198 2.245v.807zm7.612 0h1.196v-6.694H57.65l-1.748 1.229v1.128l1.665-1.179h.079v5.516zm3.669.093c.427 0 .737-.32.737-.733a.718.718 0 00-.737-.733.721.721 0 00-.738.733c0 .413.316.733.738.733zm4.3.074c1.59 0 2.556-1.35 2.556-3.512v-.009c0-2.162-.965-3.507-2.556-3.507-1.591 0-2.547 1.345-2.547 3.507v.009c0 2.162.956 3.512 2.547 3.512zm0-.97c-.854 0-1.34-.955-1.34-2.542v-.009c0-1.586.486-2.533 1.34-2.533.853 0 1.35.947 1.35 2.533v.009c0 1.587-.497 2.542-1.35 2.542zm3.864.803h4.648v-.993h-3.03v-.097l1.341-1.299c1.22-1.174 1.587-1.777 1.587-2.537v-.014c0-1.128-.937-1.921-2.24-1.921-1.397 0-2.371.872-2.371 2.12l.005.014 1.113.005.005-.019c0-.691.477-1.16 1.187-1.16.696 0 1.118.446 1.118 1.063v.014c0 .514-.255.853-1.164 1.772l-2.2 2.245v.807zm-63.637 0h4.648v-.993H7.461v-.097l1.34-1.299c1.22-1.174 1.587-1.777 1.587-2.537v-.014c0-1.128-.937-1.921-2.24-1.921-1.397 0-2.37.872-2.37 2.12l.004.014 1.113.005.005-.019c0-.691.478-1.16 1.187-1.16.696 0 1.118.446 1.118 1.063v.014c0 .514-.255.853-1.164 1.772l-2.199 2.245v.807zm7.612 0h1.197v-6.694h-1.192l-1.749 1.229v1.128l1.665-1.179h.08v5.516zm3.67.093c.426 0 .737-.32.737-.733a.718.718 0 00-.738-.733.721.721 0 00-.737.733.72.72 0 00.737.733zm4.3.074c1.59 0 2.555-1.35 2.555-3.512v-.009c0-2.162-.964-3.507-2.556-3.507-1.59 0-2.546 1.345-2.546 3.507v.009c0 2.162.955 3.512 2.546 3.512zm0-.97c-.854 0-1.341-.955-1.341-2.542v-.009c0-1.586.487-2.533 1.34-2.533.854 0 1.35.947 1.35 2.533v.009c0 1.587-.496 2.542-1.35 2.542zm5.5.803h1.198v-6.694H26.93l-1.75 1.229v1.128l1.666-1.179h.079v5.516z" fill="#9E9EB4"/></svg>