<svg width="83" height="102" fill="none" xmlns="http://www.w3.org/2000/svg"><path d="M74.709 100.517H13.446a6.616 6.616 0 01-6.616-6.616V8.194a6.616 6.616 0 016.616-6.616H45l36.325 36.406V93.9a6.616 6.616 0 01-6.616 6.616z" fill="#fff" stroke="#D5D5D5" stroke-width="1.164"/><path d="M19.05 16.128h29.682M19.05 30.096h49.47M19.05 44.063h49.47M19.05 58.031h49.47M19.05 71.999h49.47M19.05 85.967h49.47" stroke="#D1D1D1" stroke-width="2.328"/><path d="M46.02 29.739V2.409l34.413 34.746H53.435a7.416 7.416 0 01-7.416-7.416z" fill="#EBEBEB" stroke="#D5D5D5" stroke-width="1.164"/><rect x=".428" y="61.554" width="45.395" height="20.952" rx="5.82" fill="#2D9B45"/><path d="M9.208 77.883l3.315-5.359-3.066-5.082h2.672l1.986 3.476 1.971-3.476h2.424l-2.979 5.01 3.3 5.431h-2.686L13.88 74l-2.249 3.884H9.208zm11.182 0v-10.44h2.366v8.586h4.25v1.854H20.39zm11.68.16c-1.383 0-2.43-.3-3.14-.904-.71-.604-1.1-1.446-1.168-2.527h2.263c.059.536.234.954.526 1.256.302.302.808.453 1.519.453.516 0 .93-.127 1.24-.38.322-.263.483-.599.483-1.007 0-.42-.137-.72-.41-.906-.272-.185-.793-.336-1.562-.453-1.363-.175-2.331-.496-2.906-.963-.574-.477-.861-1.212-.861-2.205 0-.906.346-1.65 1.037-2.234.7-.585 1.62-.877 2.76-.877 1.178 0 2.098.263 2.76.789.671.526 1.056 1.304 1.153 2.336h-2.176c-.146-.925-.725-1.387-1.737-1.387-.507 0-.896.107-1.169.321a1.059 1.059 0 00-.394.862c0 .39.127.681.38.876.263.185.783.336 1.562.453 1.344.175 2.317.491 2.92.949.604.448.906 1.188.906 2.22 0 .954-.365 1.747-1.095 2.38-.72.633-1.684.949-2.891.949z" fill="#fff"/></svg>