<svg width="83" height="102" fill="none" xmlns="http://www.w3.org/2000/svg"><path d="M75.275 100.517H14.012a6.616 6.616 0 01-6.616-6.616V8.194a6.616 6.616 0 016.616-6.616h31.554l36.325 36.406V93.9a6.616 6.616 0 01-6.616 6.616z" fill="#fff" stroke="#D5D5D5" stroke-width="1.164"/><path d="M19.617 16.128H49.3M19.617 30.096h49.47m-49.47 13.967h49.47m-49.47 13.968h49.47m-49.47 13.968h49.47m-49.47 13.968h49.47" stroke="#D1D1D1" stroke-width="2.328"/><path d="M46.586 29.739V2.409l34.413 34.746H54.001a7.416 7.416 0 01-7.415-7.416z" fill="#EBEBEB" stroke="#D5D5D5" stroke-width="1.164"/><rect x=".994" y="61.554" width="45.395" height="20.952" rx="5.82" fill="#4A6CE4"/><path d="M10.757 76.004h.964c2.064 0 3.096-1.115 3.096-3.344v-.117c0-1.1-.253-1.923-.76-2.468-.496-.555-1.284-.832-2.365-.832h-.935v6.76zm-2.365 1.84V67.403h3.417c1.791 0 3.149.453 4.074 1.358.934.905 1.402 2.156 1.402 3.753v.117c0 1.606-.468 2.876-1.402 3.81-.935.935-2.298 1.403-4.089 1.403H8.392zM23.85 76.12c.886 0 1.587-.312 2.103-.935.516-.633.774-1.475.774-2.526v-.117c0-1.032-.258-1.86-.774-2.483s-1.227-.934-2.132-.934c-.906 0-1.616.311-2.132.934-.516.614-.774 1.446-.774 2.498v.116c0 1.052.272 1.889.818 2.512.545.623 1.25.935 2.117.935zm3.855.38c-.983 1.002-2.283 1.503-3.899 1.503s-2.916-.496-3.899-1.49c-.973-1.002-1.46-2.277-1.46-3.825v-.117c0-1.548.506-2.818 1.519-3.811 1.012-1.003 2.297-1.504 3.855-1.504 1.577 0 2.867.487 3.87 1.46 1.002.974 1.504 2.24 1.504 3.797v.117c0 1.567-.497 2.857-1.49 3.87zm7.906 1.503c-1.674 0-2.97-.477-3.884-1.43-.906-.955-1.358-2.25-1.358-3.885v-.117c0-1.567.486-2.847 1.46-3.84.983-.993 2.224-1.49 3.724-1.49 1.304 0 2.37.322 3.198.964.837.642 1.314 1.587 1.43 2.833h-2.423c-.176-1.285-.906-1.928-2.19-1.928-.828 0-1.485.307-1.972.92-.487.614-.73 1.456-.73 2.527v.116c0 1.081.238 1.923.715 2.527.477.594 1.144.89 2 .89.663 0 1.203-.165 1.622-.496.418-.34.676-.842.774-1.504h2.322c-.127 1.265-.614 2.234-1.46 2.906-.838.671-1.914 1.007-3.228 1.007z" fill="#fff"/></svg>