<svg width="215" height="49" fill="none" xmlns="http://www.w3.org/2000/svg"><path d="M57.966 28V10.645h3.957V28h-3.957zm6.995 0V15.305h3.52v2.015c.34-.68.858-1.23 1.553-1.65.712-.438 1.57-.656 2.573-.656 1.311 0 2.347.413 3.107 1.238.777.809 1.165 2.03 1.165 3.665V28h-3.52v-7.573c0-.874-.177-1.513-.533-1.918-.356-.42-.922-.63-1.7-.63-.792 0-1.431.242-1.917.727-.485.47-.728 1.157-.728 2.064V28h-3.52zm17.634 0l-4.636-12.695h3.762l3.034 9.078 3.01-9.078h3.398L86.551 28h-3.956zm12.983-3.422c.55.68 1.319 1.019 2.306 1.019.987 0 1.748-.34 2.281-1.02.551-.68.826-1.626.826-2.84v-.17c0-1.213-.275-2.16-.826-2.84-.534-.695-1.294-1.043-2.281-1.043-.971 0-1.732.34-2.282 1.02-.55.663-.825 1.601-.825 2.815v.194c0 1.214.267 2.169.8 2.864zm2.281 3.689c-1.925 0-3.519-.59-4.781-1.772-1.262-1.197-1.894-2.767-1.894-4.709v-.194c0-1.958.632-3.544 1.894-4.758 1.262-1.213 2.864-1.82 4.806-1.82 1.942 0 3.536.599 4.782 1.796 1.262 1.181 1.893 2.751 1.893 4.71v.193c0 1.974-.631 3.56-1.893 4.758-1.263 1.197-2.865 1.796-4.806 1.796zM106.53 28V15.305h3.495V28h-3.495zm3.156-14.952c-.389.356-.866.534-1.433.534-.566 0-1.043-.178-1.432-.534-.372-.372-.558-.834-.558-1.384 0-.55.186-1.003.558-1.359.389-.372.866-.558 1.432-.558.567 0 1.044.186 1.433.558.388.356.582.81.582 1.36a1.84 1.84 0 01-.582 1.383zm8.841 15.219c-1.91 0-3.479-.566-4.709-1.7-1.214-1.148-1.82-2.734-1.82-4.757v-.194c0-1.99.623-3.584 1.869-4.782 1.262-1.213 2.823-1.82 4.684-1.82 1.618 0 2.978.397 4.078 1.19 1.117.792 1.748 2.038 1.893 3.737h-3.325c-.243-1.44-1.1-2.16-2.573-2.16-.922 0-1.659.332-2.209.995-.55.664-.825 1.594-.825 2.792v.194c0 1.262.267 2.225.801 2.888.55.648 1.319.971 2.306.971.728 0 1.343-.21 1.845-.63.501-.422.793-1.028.873-1.821h3.18c-.097 1.537-.679 2.775-1.747 3.713-1.068.923-2.509 1.384-4.321 1.384zm13.644 0c-1.958 0-3.552-.575-4.781-1.723-1.23-1.166-1.845-2.743-1.845-4.734v-.194c0-1.974.615-3.568 1.845-4.782 1.246-1.213 2.807-1.82 4.684-1.82 1.78 0 3.253.542 4.418 1.626 1.181 1.084 1.772 2.695 1.772 4.83v.972h-9.151c.049 1.051.348 1.869.898 2.451.55.583 1.303.874 2.257.874 1.522 0 2.403-.59 2.646-1.772h3.326c-.211 1.375-.842 2.435-1.894 3.18-1.052.728-2.443 1.092-4.175 1.092zm-3.009-7.986h5.679c-.113-1.893-1.035-2.84-2.767-2.84-.793 0-1.448.251-1.966.753-.501.485-.817 1.181-.946 2.087zM145.293 28V10.645h5.195l4.053 10.801 4.005-10.801h5.097V28h-3.907V15.815L154.929 28h-1.286l-4.83-12.185V28h-3.52zm24.619.267c-1.246 0-2.266-.316-3.058-.947-.793-.63-1.19-1.577-1.19-2.84 0-2.718 2.201-4.077 6.602-4.077h1.432v-.51c0-.793-.153-1.376-.461-1.748-.307-.388-.841-.582-1.602-.582-1.278 0-1.998.598-2.16 1.796h-3.325c.097-1.44.663-2.525 1.699-3.253 1.035-.728 2.37-1.092 4.005-1.092 3.544 0 5.316 1.57 5.316 4.709V28h-3.423v-1.53c-.858 1.198-2.136 1.797-3.835 1.797zm1.044-2.452c.793 0 1.448-.202 1.966-.606.518-.405.776-.955.776-1.65V22.49h-1.359c-1.068 0-1.877.138-2.427.413-.534.275-.801.736-.801 1.383 0 1.02.615 1.53 1.845 1.53zM179.705 28V9.553h3.519V20.67l4.078-5.365h3.738l-4.612 5.777L191.404 28h-3.98l-4.2-5.995V28h-3.519zm18.212.267c-1.958 0-3.552-.575-4.782-1.723-1.23-1.166-1.845-2.743-1.845-4.734v-.194c0-1.974.615-3.568 1.845-4.782 1.246-1.213 2.808-1.82 4.685-1.82 1.78 0 3.252.542 4.417 1.626 1.182 1.084 1.772 2.695 1.772 4.83v.972h-9.151c.049 1.051.348 1.869.898 2.451.551.583 1.303.874 2.258.874 1.521 0 2.403-.59 2.646-1.772h3.325c-.21 1.375-.841 2.435-1.893 3.18-1.052.728-2.444 1.092-4.175 1.092zm-3.01-7.986h5.68c-.113-1.893-1.036-2.84-2.767-2.84-.793 0-1.449.251-1.966.753-.502.485-.818 1.181-.947 2.087zM205.828 28V15.305h3.519v2.428c.809-1.732 2.177-2.606 4.102-2.622v3.277c-1.359-.016-2.387.235-3.082.752-.68.502-1.02 1.335-1.02 2.5V28h-3.519z" fill="#000"/><path d="M61.128 45.566c-.488 0-.916-.104-1.284-.312a2.256 2.256 0 01-.84-.828v1.032h-.996v-9.276h.996v4.056c.192-.32.484-.592.876-.816a2.411 2.411 0 011.248-.348c.84 0 1.524.288 2.052.864.536.568.804 1.332.804 2.292v.096c0 .968-.264 1.752-.792 2.352-.52.592-1.208.888-2.064.888zm-.096-.828c.624 0 1.1-.204 1.428-.612.328-.408.492-.992.492-1.752v-.096c0-.76-.184-1.344-.552-1.752a1.743 1.743 0 00-1.38-.624c-.608 0-1.104.204-1.488.612-.376.4-.564.988-.564 1.764v.096c0 .776.184 1.364.552 1.764.376.4.88.6 1.512.6zm5.066 2.904l1.188-2.832-2.46-5.628h1.068l1.92 4.5 1.74-4.5h1.02l-3.468 8.46h-1.008zm12.048-2.076c-1.064 0-1.856-.248-2.376-.744-.512-.504-.812-1.164-.9-1.98h1.008c.04.28.096.524.168.732.08.208.2.404.36.588.16.184.384.324.672.42.296.096.652.144 1.068.144.56 0 1.024-.148 1.392-.444.376-.304.564-.696.564-1.176 0-.496-.144-.86-.432-1.092-.288-.24-.836-.424-1.644-.552-.968-.144-1.688-.392-2.16-.744-.472-.36-.708-.9-.708-1.62 0-.664.26-1.216.78-1.656.52-.448 1.18-.672 1.98-.672.864 0 1.552.204 2.064.612.512.408.808.992.888 1.752h-.936c-.104-.536-.316-.924-.636-1.164-.32-.24-.78-.36-1.38-.36-.568 0-1.008.128-1.32.384a1.24 1.24 0 00-.468 1.008c0 .448.136.784.408 1.008.272.224.824.4 1.656.528 1.008.16 1.744.424 2.208.792.472.36.708.928.708 1.704 0 .72-.284 1.324-.852 1.812-.56.48-1.264.72-2.112.72zm6.371 0c-.616 0-1.12-.152-1.512-.456-.384-.312-.576-.776-.576-1.392 0-.672.296-1.164.888-1.476.6-.312 1.352-.468 2.256-.468h.9v-.456c0-.504-.104-.864-.312-1.08-.208-.224-.552-.336-1.032-.336-.864 0-1.344.376-1.44 1.128h-.996c.064-.672.328-1.164.792-1.476.464-.32 1.028-.48 1.692-.48 1.528 0 2.292.748 2.292 2.244v4.14h-.996v-.792c-.48.6-1.132.9-1.956.9zm.096-.792c.544 0 .988-.132 1.332-.396.352-.272.528-.644.528-1.116v-.78h-.864c-1.456 0-2.184.412-2.184 1.236 0 .704.396 1.056 1.188 1.056zm4.957.684v-9.276h1.008v9.276H89.57zm5.53.108c-.84 0-1.524-.28-2.052-.84-.52-.56-.78-1.32-.78-2.28v-.096c0-.96.272-1.744.816-2.352.544-.616 1.248-.924 2.112-.924.928 0 1.612.372 2.052 1.116v-4.008h.996v9.276h-.996v-1.08c-.192.32-.488.6-.888.84-.4.232-.82.348-1.26.348zm.108-.828c.616 0 1.116-.2 1.5-.6.384-.408.576-1 .576-1.776v-.096c0-.784-.176-1.372-.528-1.764-.344-.4-.832-.6-1.464-.6-.624 0-1.112.212-1.464.636-.352.416-.528 1.004-.528 1.764v.096c0 .76.176 1.34.528 1.74.36.4.82.6 1.38.6zm7.787 0c.624 0 1.12-.216 1.488-.648.376-.432.564-1.004.564-1.716v-.084c0-.728-.188-1.308-.564-1.74-.368-.432-.864-.648-1.488-.648-.632 0-1.132.216-1.5.648-.368.432-.552 1.008-.552 1.728v.096c0 .72.184 1.296.552 1.728.368.424.868.636 1.5.636zm-.012.828c-.888 0-1.624-.3-2.208-.9-.576-.608-.864-1.372-.864-2.292v-.096c0-.936.288-1.704.864-2.304.584-.6 1.324-.9 2.22-.9.896 0 1.632.3 2.208.9.584.592.876 1.356.876 2.292v.096c0 .944-.292 1.716-.876 2.316-.584.592-1.324.888-2.22.888zm7.478-.108l2.952-8.58h1.368l2.904 8.58h-1.032l-.84-2.472h-3.54l-.828 2.472h-.984zm3.588-7.716l-1.488 4.416h2.976l-1.488-4.416zm5.194 9.9v-8.46h.996v1.056c.192-.32.484-.592.876-.816a2.411 2.411 0 011.248-.348c.84 0 1.524.288 2.052.864.536.568.804 1.332.804 2.292v.096c0 .968-.264 1.752-.792 2.352-.52.592-1.208.888-2.064.888-.488 0-.916-.104-1.284-.312a2.256 2.256 0 01-.84-.828v3.216h-.996zm3.024-2.904c.624 0 1.1-.204 1.428-.612.328-.408.492-.992.492-1.752v-.096c0-.76-.184-1.344-.552-1.752a1.743 1.743 0 00-1.38-.624c-.608 0-1.104.204-1.488.612-.376.4-.564.988-.564 1.764v.096c0 .776.184 1.364.552 1.764.376.4.88.6 1.512.6zm4.62 2.904v-8.46h.996v1.056c.192-.32.484-.592.876-.816a2.411 2.411 0 011.248-.348c.84 0 1.524.288 2.052.864.536.568.804 1.332.804 2.292v.096c0 .968-.264 1.752-.792 2.352-.52.592-1.208.888-2.064.888-.488 0-.916-.104-1.284-.312a2.256 2.256 0 01-.84-.828v3.216h-.996zm3.024-2.904c.624 0 1.1-.204 1.428-.612.328-.408.492-.992.492-1.752v-.096c0-.76-.184-1.344-.552-1.752a1.743 1.743 0 00-1.38-.624c-.608 0-1.104.204-1.488.612-.376.4-.564.988-.564 1.764v.096c0 .776.184 1.364.552 1.764.376.4.88.6 1.512.6zm6.563.828c-.752 0-1.344-.18-1.776-.54-.424-.36-.652-.86-.684-1.5h.972c.08.808.572 1.212 1.476 1.212.912 0 1.368-.332 1.368-.996 0-.312-.116-.54-.348-.684-.224-.152-.596-.276-1.116-.372-.816-.152-1.384-.36-1.704-.624-.32-.272-.48-.68-.48-1.224 0-.544.216-.972.648-1.284.44-.32.932-.48 1.476-.48 1.36 0 2.116.604 2.268 1.812h-.96c-.072-.344-.212-.592-.42-.744-.208-.16-.508-.24-.9-.24-.36 0-.648.084-.864.252a.765.765 0 00-.324.648c0 .288.1.5.3.636.208.136.596.256 1.164.36.376.072.676.144.9.216.232.064.456.164.672.3.224.136.384.316.48.54.104.216.156.484.156.804 0 .584-.2 1.048-.6 1.392-.392.344-.96.516-1.704.516z" fill="#71839C"/><path d="M48 24C48 10.745 37.255 0 24 0S0 10.745 0 24s10.745 24 24 24 24-10.745 24-24z" fill="#007AFF"/><path d="M35.272 38.712H15.869v-4.068h22.587c.11 0 .193.1.175.208-.642 3.86-3.36 3.86-3.36 3.86z" fill="#AFCDFB"/><path d="M35.272 38.712H15.869v-4.068h22.587c.11 0 .193.1.175.208-.642 3.86-3.36 3.86-3.36 3.86z" fill="url(#paint0_linear)"/><g opacity=".6"><path opacity=".6" d="M38.22 14.277H16.044a.182.182 0 00-.158.098c-5.816 10.915-5.794 11.89-5.794 11.89l20.965 5.623s.608-7.52 7.308-17.326c.082-.12.002-.285-.143-.285z" fill="#F8FBFF"/><path opacity=".6" d="M38.22 14.277H16.044a.182.182 0 00-.158.098c-5.816 10.915-5.794 11.89-5.794 11.89l20.965 5.623s.608-7.52 7.308-17.326c.082-.12.002-.285-.143-.285z" fill="url(#paint1_linear)"/><path opacity=".6" d="M28.282 16.09a.398.398 0 01-.46.322l-8.35-1.451a.393.393 0 01-.32-.457.398.398 0 01.46-.322l8.35 1.45a.393.393 0 01.32.458zm2.065 1.78a.4.4 0 01-.46.322L16.92 15.931a.396.396 0 01-.322-.46.4.4 0 01.461-.322l12.966 2.261c.216.038.36.244.321.46zm-.958 3.136l-13.962-2.461a.2.2 0 01.07-.393l13.961 2.462a.2.2 0 01-.07.392zm-.139.827l-13.961-2.461a.2.2 0 01.069-.393l13.961 2.461a.2.2 0 01-.069.393zm-14.115-1.589l8.599 1.516a.2.2 0 00.069-.393l-8.598-1.516a.2.2 0 00-.07.393z" fill="#000"/></g><g opacity=".6"><path opacity=".6" d="M36.715 12.484H14.48a.18.18 0 00-.168.124c-4.028 11.698-3.518 16.166-3.518 16.166l20.49.682s1.12-8.425 5.585-16.704c.065-.12-.017-.268-.154-.268z" fill="#F8FBFF"/><path opacity=".6" d="M36.715 12.484H14.48a.18.18 0 00-.168.124c-4.028 11.698-3.518 16.166-3.518 16.166l20.49.682s1.12-8.425 5.585-16.704c.065-.12-.017-.268-.154-.268z" fill="url(#paint2_linear)"/><path opacity=".6" d="M27.774 14.795a.395.395 0 01-.427.358l-8.454-.722a.391.391 0 01-.356-.425.395.395 0 01.427-.358l8.454.722a.391.391 0 01.356.425zm2.213 1.593a.397.397 0 01-.429.36l-13.123-1.127a.393.393 0 01-.358-.427.397.397 0 01.428-.36l13.123 1.127c.218.019.378.21.359.427zm-.683 3.208L15.18 18.36a.2.2 0 01.035-.397l14.123 1.235a.2.2 0 01-.035.398zm-.066.835l-14.122-1.236a.2.2 0 01.034-.397l14.123 1.236a.2.2 0 01-.035.397zm-14.2-.353l8.698.76a.2.2 0 00.035-.397l-8.698-.761a.2.2 0 00-.035.398z" fill="#000"/></g><path d="M35.196 10.569c.132 0 .218.14.162.259-4.801 10.218-4.118 20.556-4.118 20.556-.287 2.749 1.03 6.954 4.046 7.345H16.45c-4.943 0-6.974-3.535-6.975-7.344 0 0-.69-10.534 4.196-20.739a.182.182 0 01.163-.102c9.25 0 15.626.024 21.362.025z" fill="url(#paint3_radial)"/><path d="M21.264 13.168h-5.302a.707.707 0 100 1.414h5.302a.707.707 0 100-1.414z" fill="#C3D1E6"/><path d="M18.578 26.954h-5.303a.707.707 0 000 1.414h5.303a.707.707 0 000-1.414zm10.215-6.363H13.806a.707.707 0 000 1.414h14.987a.707.707 0 000-1.414zm-.53 3.182H13.275a.707.707 0 000 1.413h14.988a.707.707 0 000-1.413zm-6.186-7.423h-7.176a.707.707 0 000 1.413h7.176a.707.707 0 100-1.413z" fill="#CFDBEC"/><path fill-rule="evenodd" clip-rule="evenodd" d="M27.564 33.08a3.52 3.52 0 01-4.615 1.236l-.937.251a4.243 4.243 0 006.491-1.74l-.939.252zm-5.101.927a3.518 3.518 0 01-1.164-4.08l-.824.221a4.25 4.25 0 001.15 4.084l.838-.225zm-1.835-4.339a4.243 4.243 0 016.622-1.774l-.912.244a3.522 3.522 0 00-4.797 1.285l-.913.245zm6.17-1.214a3.516 3.516 0 011.034 4.114l.84-.224c.102-.366.156-.75.156-1.148a4.23 4.23 0 00-1.206-2.963l-.823.22z" fill="#F23333"/><path d="M19.365 31.616c-.103-.382-.154-.573-.118-.74a.707.707 0 01.218-.378c.126-.113.317-.164.7-.267l7.786-2.086c.383-.103.574-.154.74-.119a.707.707 0 01.379.219c.113.126.164.317.267.7l.512 1.912c.103.382.154.573.119.74a.707.707 0 01-.219.378c-.126.113-.317.164-.7.267l-7.786 2.086c-.383.103-.574.154-.74.119a.707.707 0 01-.378-.219c-.114-.126-.165-.317-.268-.7l-.512-1.912z" fill="#F23333"/><path d="M22.073 30.885l-.915.245.549 2.049.591-.159-.154-.576.316-.085c.506-.135.663-.535.556-.932-.104-.39-.437-.677-.942-.542zm.345.702c.053.2-.044.334-.236.385l-.157.042-.16-.6.17-.046c.184-.049.33.024.383.22zm1.515.995l-.006-.437.58-.156.21.383.633-.17-1.176-1.88-.744.2-.083 2.217.586-.157zm-.003-1.659l.366.672-.38.103-.015-.767.029-.008zm2.196 1.071l-.549-2.048-.593.16.55 2.047.592-.159zm-.187-2.144l.548 2.047.866-.231c.648-.174.828-.663.66-1.287-.164-.615-.55-.938-1.209-.762l-.865.232zm.715.3l.168-.045c.363-.098.51.16.588.453.132.492-.054.615-.285.677l-.168.044-.303-1.13z" fill="#fff"/><defs><linearGradient id="paint0_linear" x1="32.445" y1="37.309" x2="37.542" y2="37.309" gradientUnits="userSpaceOnUse"><stop stop-color="#9DC4FE"/><stop offset="1" stop-color="#CEDFFF"/></linearGradient><linearGradient id="paint1_linear" x1="17.477" y1="18.141" x2="30.097" y2="22.486" gradientUnits="userSpaceOnUse"><stop stop-color="#EFDAD5"/><stop offset=".471" stop-color="#DEF1D6"/><stop offset="1" stop-color="#C5E8F0"/></linearGradient><linearGradient id="paint2_linear" x1="12.111" y1="18.993" x2="32.894" y2="22.657" gradientUnits="userSpaceOnUse"><stop stop-color="#fff"/><stop offset="1" stop-color="#96CDFF"/></linearGradient><radialGradient id="paint3_radial" cx="0" cy="0" r="1" gradientUnits="userSpaceOnUse" gradientTransform="matrix(0 33.3335 -67.1486 0 24.11 6.558)"><stop stop-color="#fff"/><stop offset=".863" stop-color="#fff"/><stop offset=".896" stop-color="#E2F0FF"/><stop offset=".943" stop-color="#ADD3FF"/><stop offset="1" stop-color="#61A9FE"/></radialGradient></defs></svg>