<svg width="260" height="238" fill="none" xmlns="http://www.w3.org/2000/svg"><g filter="url(#filter0_d)"><rect x="67.997" y="12.743" width="124.003" height="124.003" rx="62.002" fill="#007AFF"/><g filter="url(#filter1_d)"><path d="M159.115 112.744H108.99v-10.508h58.68c.109 0 .193.101.176.209-1.558 10.299-8.731 10.299-8.731 10.299z" fill="#AFCDFB"/><path d="M159.115 112.744H108.99v-10.508h58.68c.109 0 .193.101.176.209-1.558 10.299-8.731 10.299-8.731 10.299z" fill="url(#paint0_linear)"/><g opacity=".6"><path d="M167.245 49.618h-58.003a.182.182 0 00-.158.098c-15.108 28.344-15.05 30.873-15.05 30.873l54.161 14.526s1.59-19.66 19.189-45.211c.082-.12.006-.286-.139-.286z" fill="#F8FBFF"/><path d="M167.245 49.618h-58.003a.182.182 0 00-.158.098c-15.108 28.344-15.05 30.873-15.05 30.873l54.161 14.526s1.59-19.66 19.189-45.211c.082-.12.006-.286-.139-.286z" fill="url(#paint1_linear)"/><path d="M141.035 54.298a1.028 1.028 0 01-1.187.832l-21.569-3.749a1.016 1.016 0 01-.827-1.182 1.028 1.028 0 011.187-.831l21.569 3.749c.556.096.927.625.827 1.181zm5.347 4.598a1.03 1.03 0 01-1.191.834l-33.495-5.842a1.02 1.02 0 01-.831-1.187 1.03 1.03 0 011.191-.834l33.495 5.842c.558.098.93.63.831 1.187zm-2.466 8.111l-36.068-6.36a.515.515 0 01.179-1.015l36.068 6.36a.515.515 0 01-.179 1.015zm-.358 2.135l-36.067-6.36a.515.515 0 01.179-1.014l36.067 6.36a.516.516 0 01-.179 1.014zm-36.464-4.107l22.212 3.916a.514.514 0 00.179-1.015l-22.212-3.916a.515.515 0 00-.179 1.015z" fill="#000"/></g><g opacity=".6"><path d="M163.324 44.99h-58.12a.18.18 0 00-.168.123c-10.479 30.367-9.154 41.959-9.154 41.959l52.933 1.762s2.934-22.054 14.659-43.577c.066-.12-.014-.267-.15-.267z" fill="#F8FBFF"/><path d="M163.324 44.99h-58.12a.18.18 0 00-.168.123c-10.479 30.367-9.154 41.959-9.154 41.959l52.933 1.762s2.934-22.054 14.659-43.577c.066-.12-.014-.267-.15-.267z" fill="url(#paint2_linear)"/><path d="M139.747 50.967a1.02 1.02 0 01-1.103.925l-21.84-1.866a1.01 1.01 0 01-.921-1.098 1.02 1.02 0 011.102-.925l21.841 1.866c.558.048.971.54.921 1.098zm5.727 4.121c-.05.561-.546.977-1.108.93l-33.902-2.912a1.017 1.017 0 01-.926-1.103c.05-.562.546-.978 1.108-.93l33.902 2.911c.561.048.976.543.926 1.104zm-1.781 8.276l-36.484-3.192a.516.516 0 01.09-1.026l36.484 3.192a.516.516 0 01-.09 1.026zm-.169 2.159l-36.485-3.192a.516.516 0 01.09-1.027l36.484 3.192a.516.516 0 01-.089 1.027zm-36.684-.913l22.469 1.965a.514.514 0 00.09-1.027l-22.47-1.965a.515.515 0 00-.089 1.026z" fill="#000"/></g><path d="M159.379 40.038a.18.18 0 01.161.259c-12.616 26.529-10.831 53.515-10.831 53.515h-.002c-.741 7.101 2.66 17.965 10.454 18.973H110.5c-12.771 0-18.018-9.131-18.02-18.972h.002s-1.791-27.323 10.916-53.738a.182.182 0 01.163-.102c24.239 0 40.845.064 55.818.065z" fill="url(#paint3_radial)"/><rect x="107.419" y="46.756" width="17.351" height="3.653" rx="1.826" fill="#C3D1E6"/><rect x="100.473" y="82.372" width="17.351" height="3.653" rx="1.826" fill="#CFDBEC"/><rect x="101.848" y="65.939" width="42.372" height="3.653" rx="1.826" fill="#CFDBEC"/><rect x="100.473" y="74.153" width="42.372" height="3.653" rx="1.826" fill="#CFDBEC"/><rect x="104.668" y="54.972" width="22.191" height="3.653" rx="1.826" fill="#CFDBEC"/></g><path fill-rule="evenodd" clip-rule="evenodd" d="M140.726 97.783a10.242 10.242 0 01-9.222 5.782c-2.134 0-4.115-.652-5.756-1.769l-.895.24a10.913 10.913 0 006.651 2.248 10.96 10.96 0 0010.118-6.742l-.896.24zm-16.057 3.167a10.211 10.211 0 01-3.404-7.624c0-1.015.147-1.996.422-2.921l-.805.215a11.018 11.018 0 00-.336 2.706c0 3.075 1.266 5.853 3.306 7.844l.817-.22zm-3.391-11.57c1.584-4.102 5.565-7.012 10.226-7.012 2.606 0 4.999.91 6.88 2.428l-.875.235a10.195 10.195 0 00-6.005-1.945c-4.166 0-7.75 2.488-9.35 6.059l-.876.235zm17.264-3.492a10.21 10.21 0 013.202 7.438c0 1.112-.178 2.182-.505 3.185l.817-.22c.265-.943.406-1.937.406-2.965a10.92 10.92 0 00-3.115-7.653l-.805.215z" fill="#F23333"/><path d="M118.021 94.414c-.265-.988-.397-1.482-.306-1.911.08-.378.278-.72.565-.978.325-.293.819-.426 1.807-.69l20.117-5.39c.988-.265 1.482-.398 1.911-.306.377.08.719.277.977.564.293.326.426.82.691 1.808l1.323 4.94c.265.988.397 1.482.306 1.91-.08.378-.278.72-.564.978-.326.293-.82.426-1.808.69l-20.116 5.39c-.988.265-1.482.398-1.911.306a1.824 1.824 0 01-.978-.564c-.293-.326-.426-.82-.69-1.808l-1.324-4.94z" fill="#F23333"/><path d="M125.012 92.523l-2.365.634 1.418 5.291 1.527-.41-.398-1.488.818-.219c1.306-.35 1.711-1.38 1.436-2.408-.27-1.008-1.13-1.75-2.436-1.4zm.889 1.815c.138.515-.114.861-.61.994l-.403.108-.416-1.55.442-.119c.473-.127.852.063.987.567zm3.917 2.569l-.016-1.13 1.496-.401.543.989 1.636-.439-3.038-4.857-1.923.515-.214 5.729 1.516-.406zm-.01-4.285l.947 1.736-.985.264-.036-1.98.074-.02zm5.673 2.768l-1.418-5.292-1.531.41 1.418 5.291 1.531-.41zm-.484-5.542l1.418 5.291 2.237-.6c1.674-.448 2.138-1.71 1.706-3.323-.426-1.59-1.422-2.423-3.124-1.967l-2.237.599zm1.849.776l.434-.117c.939-.251 1.316.412 1.519 1.172.341 1.272-.139 1.587-.736 1.747l-.435.117-.782-2.92z" fill="#fff"/></g><path d="M78.258 232.63c2.295 0 3.944-1.734 3.944-4.59v-.136c0-2.873-1.717-4.522-3.944-4.522-1.31 0-2.414.765-2.907 1.615v-5.542h-2.057v13.005h2.057v-1.428c.476.901 1.496 1.598 2.907 1.598zm-.51-1.632c-1.496 0-2.465-.935-2.465-2.924v-.136c0-1.972 1.02-2.941 2.448-2.941 1.343 0 2.363.969 2.363 2.941v.136c0 1.904-.833 2.924-2.346 2.924zm7.04 4.505h2.023l4.845-11.934H89.65l-2.176 5.729-2.363-5.729h-2.227l3.52 7.99-1.616 3.944zm16.763-2.873c2.686 0 4.471-1.649 4.471-3.757 0-2.431-1.479-3.247-4.335-3.638-2.108-.306-2.516-.799-2.516-1.785 0-.935.714-1.598 2.091-1.598 1.394 0 2.125.544 2.346 1.819h2.074c-.238-2.329-1.802-3.519-4.42-3.519-2.533 0-4.233 1.496-4.233 3.485 0 2.278 1.377 3.162 4.284 3.553 1.972.323 2.533.748 2.533 1.87s-.952 1.87-2.295 1.87c-2.057 0-2.55-1.02-2.703-2.244h-2.176c.17 2.295 1.564 3.944 4.879 3.944zm8.819 0c1.36 0 2.142-.493 2.72-1.258v1.088h2.023v-5.831c0-2.431-1.564-3.247-3.553-3.247-1.989 0-3.638.867-3.808 2.941h1.989c.102-.884.629-1.394 1.7-1.394 1.207 0 1.615.595 1.615 1.785v.459h-1.105c-2.55 0-4.556.748-4.556 2.822 0 1.853 1.343 2.635 2.975 2.635zm.493-1.479c-1.02 0-1.428-.493-1.428-1.241 0-1.088 1.003-1.445 2.567-1.445h1.054v.884c0 1.139-.935 1.802-2.193 1.802zm6.658 1.309h2.057v-13.005h-2.057v13.005zm7.897.17c1.309 0 2.448-.782 2.924-1.666v1.496h2.057v-13.005h-2.057v5.474c-.493-.884-1.394-1.547-2.839-1.547-2.312 0-3.995 1.802-3.995 4.641v.136c0 2.89 1.683 4.471 3.91 4.471zm.51-1.632c-1.326 0-2.312-.935-2.312-2.89v-.136c0-1.921.884-2.975 2.397-2.975 1.496 0 2.397.969 2.397 2.924v.136c0 1.989-1.054 2.941-2.482 2.941zm10.893.034c-1.564 0-2.465-1.139-2.465-2.958v-.136c0-1.836.935-2.941 2.465-2.941 1.53 0 2.448 1.122 2.448 2.958v.119c0 1.819-.918 2.958-2.448 2.958zm-.017 1.598c2.618 0 4.573-1.802 4.573-4.573v-.136c0-2.72-1.955-4.539-4.556-4.539-2.618 0-4.573 1.836-4.573 4.59v.136c0 2.703 1.938 4.522 4.556 4.522zm9.718-.17h2.125l.952-3.009h4.641l.969 3.009h2.346l-4.012-12.155h-2.958l-4.063 12.155zm5.406-10.302l1.785 5.644h-3.587l1.802-5.644zm7.312 13.345h2.057v-4.437c.476.867 1.496 1.564 2.907 1.564 2.295 0 3.944-1.734 3.944-4.59v-.136c0-2.873-1.717-4.522-3.944-4.522-1.309 0-2.414.765-2.907 1.615v-1.428h-2.057v11.934zm4.454-4.505c-1.496 0-2.465-.935-2.465-2.924v-.136c0-1.972 1.02-2.941 2.448-2.941 1.343 0 2.363.969 2.363 2.941v.136c0 1.904-.833 2.924-2.346 2.924zm6.304 4.505h2.057v-4.437c.476.867 1.496 1.564 2.907 1.564 2.295 0 3.944-1.734 3.944-4.59v-.136c0-2.873-1.717-4.522-3.944-4.522-1.309 0-2.414.765-2.907 1.615v-1.428h-2.057v11.934zm4.454-4.505c-1.496 0-2.465-.935-2.465-2.924v-.136c0-1.972 1.02-2.941 2.448-2.941 1.343 0 2.363.969 2.363 2.941v.136c0 1.904-.833 2.924-2.346 2.924zm9.346 1.632c2.278 0 3.553-1.037 3.553-2.839 0-1.887-1.241-2.397-3.332-2.72-1.411-.238-1.836-.493-1.836-1.139 0-.629.527-1.054 1.411-1.054.952 0 1.411.374 1.581 1.19h1.904c-.221-2.006-1.666-2.686-3.485-2.686-1.666 0-3.332.884-3.332 2.669 0 1.666.867 2.329 3.213 2.703 1.309.221 1.904.493 1.904 1.224 0 .748-.493 1.139-1.598 1.139-1.207 0-1.666-.527-1.768-1.428h-1.938c.085 1.887 1.428 2.941 3.723 2.941z" fill="#71839C"/><path d="M3.077 202h6.194v-27.17H3.077V202zm11.711 0h5.51v-11.476c0-2.926 1.786-4.37 4.142-4.37 2.432 0 3.496 1.292 3.496 3.99V202h5.51v-12.654c0-5.32-2.774-7.676-6.688-7.676-3.306 0-5.472 1.634-6.46 3.61v-3.154h-5.51V202zm28.366 0h6.194l7.22-19.874h-5.32l-4.712 14.212-4.75-14.212h-5.89L43.154 202zm24.696-3.762c-3.116 0-4.864-2.28-4.864-6.08v-.304c0-3.8 1.824-6.004 4.864-6.004 3.078 0 4.864 2.28 4.864 6.08v.266c0 3.762-1.787 6.042-4.864 6.042zm-.038 4.18c5.966 0 10.487-3.99 10.487-10.26v-.304c0-6.194-4.484-10.184-10.45-10.184-5.966 0-10.488 4.066-10.488 10.298v.304c0 6.194 4.523 10.146 10.45 10.146zM82.145 202h5.472v-19.874h-5.472V202zm2.698-22.572c1.785 0 3.154-1.292 3.154-3.002 0-1.71-1.369-3.002-3.154-3.002-1.748 0-3.116 1.292-3.116 3.002 0 1.71 1.368 3.002 3.116 3.002zm16.843 22.99c5.776 0 9.196-3.268 9.5-7.98h-4.978c-.266 2.546-2.052 3.838-4.256 3.838-3.078 0-4.864-2.052-4.864-6.042v-.304c0-3.8 1.9-5.928 4.75-5.928 2.242 0 3.648 1.064 4.028 3.382h5.206c-.494-5.7-4.75-7.714-9.348-7.714-5.662 0-10.26 3.914-10.26 10.336v.304c0 6.498 4.408 10.108 10.222 10.108zm22.121 0c5.434 0 8.854-2.394 9.5-6.688h-5.206c-.342 1.672-1.596 2.774-4.142 2.774-3.002 0-4.788-1.9-4.94-5.206h14.326v-1.52c0-7.106-4.56-10.108-9.69-10.108-5.776 0-10.222 4.066-10.222 10.336v.304c0 6.346 4.37 10.108 10.374 10.108zm-4.712-12.502c.418-2.812 2.09-4.446 4.56-4.446 2.622 0 4.142 1.444 4.332 4.446h-8.892zM145.87 202h5.51v-19.076L158.942 202h2.014l7.524-19.076V202h6.118v-27.17h-7.98l-6.27 16.91-6.346-16.91h-8.132V202zm39.302.418c3.116 0 4.864-1.216 6.004-2.812V202h5.358v-12.958c0-5.396-3.458-7.372-8.322-7.372-4.864 0-8.588 2.09-8.93 6.802h5.206c.228-1.71 1.216-2.812 3.382-2.812 2.508 0 3.23 1.292 3.23 3.648v.798h-2.242c-6.08 0-10.336 1.748-10.336 6.384 0 4.18 3.04 5.928 6.65 5.928zm1.634-3.838c-2.014 0-2.888-.95-2.888-2.394 0-2.128 1.862-2.812 5.054-2.812h2.128v1.672c0 2.204-1.862 3.534-4.294 3.534zm14.457 3.42h5.51v-9.386l6.574 9.386h6.232l-7.79-10.83 7.22-9.044h-5.852l-6.384 8.398V173.12h-5.51V202zm29.271.418c5.434 0 8.854-2.394 9.5-6.688h-5.206c-.342 1.672-1.596 2.774-4.142 2.774-3.002 0-4.788-1.9-4.94-5.206h14.326v-1.52c0-7.106-4.56-10.108-9.69-10.108-5.776 0-10.222 4.066-10.222 10.336v.304c0 6.346 4.37 10.108 10.374 10.108zm-4.712-12.502c.418-2.812 2.09-4.446 4.56-4.446 2.622 0 4.142 1.444 4.332 4.446h-8.892zM243.679 202h5.51v-9.956c0-3.8 2.356-5.13 6.422-5.092v-5.13c-3.23.038-5.168 1.444-6.422 4.104v-3.8h-5.51V202z" fill="#000"/><defs><linearGradient id="paint0_linear" x1="151.812" y1="109.119" x2="164.979" y2="109.119" gradientUnits="userSpaceOnUse"><stop stop-color="#9DC4FE"/><stop offset="1" stop-color="#CEDFFF"/></linearGradient><linearGradient id="paint1_linear" x1="113.166" y1="59.534" x2="145.842" y2="70.785" gradientUnits="userSpaceOnUse"><stop stop-color="#EFDAD5"/><stop offset=".471" stop-color="#DEF1D6"/><stop offset="1" stop-color="#C5E8F0"/></linearGradient><linearGradient id="paint2_linear" x1="99.291" y1="61.767" x2="153.103" y2="71.255" gradientUnits="userSpaceOnUse"><stop stop-color="#fff"/><stop offset="1" stop-color="#96CDFF"/></linearGradient><filter id="filter0_d" x="37.997" y=".743" width="184.003" height="184.003" filterUnits="userSpaceOnUse" color-interpolation-filters="sRGB"><feFlood flood-opacity="0" result="BackgroundImageFix"/><feColorMatrix in="SourceAlpha" values="0 0 0 0 0 0 0 0 0 0 0 0 0 0 0 0 0 0 127 0" result="hardAlpha"/><feOffset dy="18"/><feGaussianBlur stdDeviation="15"/><feColorMatrix values="0 0 0 0 0.0315104 0 0 0 0 0.232597 0 0 0 0 0.504167 0 0 0 0.06 0"/><feBlend in2="BackgroundImageFix" result="effect1_dropShadow"/><feBlend in="SourceGraphic" in2="effect1_dropShadow" result="shape"/></filter><filter id="filter1_d" x="92.036" y="39.973" width="76.171" height="75.867" filterUnits="userSpaceOnUse" color-interpolation-filters="sRGB"><feFlood flood-opacity="0" result="BackgroundImageFix"/><feColorMatrix in="SourceAlpha" values="0 0 0 0 0 0 0 0 0 0 0 0 0 0 0 0 0 0 127 0" result="hardAlpha"/><feOffset dy="2.695"/><feGaussianBlur stdDeviation=".18"/><feColorMatrix values="0 0 0 0 0 0 0 0 0 0 0 0 0 0 0 0 0 0 1 0"/><feBlend mode="color-dodge" in2="BackgroundImageFix" result="effect1_dropShadow"/><feBlend in="SourceGraphic" in2="effect1_dropShadow" result="shape"/></filter><radialGradient id="paint3_radial" cx="0" cy="0" r="1" gradientUnits="userSpaceOnUse" gradientTransform="matrix(0 86.1138 -173.472 0 130.277 29.71)"><stop stop-color="#fff"/><stop offset=".863" stop-color="#fff"/><stop offset=".896" stop-color="#E2F0FF"/><stop offset=".943" stop-color="#ADD3FF"/><stop offset="1" stop-color="#61A9FE"/></radialGradient></defs></svg>