<svg width="180" height="50" fill="none" xmlns="http://www.w3.org/2000/svg"><rect width="50" height="50" rx="12" fill="#007AFF"/><path d="M59.634 23h-1.6v-9.242h1.6V23zm3.517-6.868l.044.793c.508-.613 1.174-.92 2-.92 1.43 0 2.158.819 2.183 2.456V23h-1.542v-4.45c0-.436-.096-.757-.286-.965-.186-.211-.493-.317-.92-.317-.622 0-1.086.281-1.39.844V23h-1.543v-6.868h1.454zm8.486 4.913l1.454-4.913h1.593L72.304 23h-1.34l-2.4-6.868h1.6l1.473 4.913zm3.885-1.543c0-.672.133-1.278.4-1.815a2.896 2.896 0 011.123-1.244c.483-.292 1.037-.438 1.663-.438.927 0 1.678.298 2.254.895.58.597.892 1.388.94 2.374l.005.362c0 .677-.13 1.282-.393 1.815a2.86 2.86 0 01-1.117 1.238c-.483.292-1.041.438-1.676.438-.97 0-1.746-.322-2.33-.965-.58-.647-.87-1.508-.87-2.583v-.077zm1.542.134c0 .706.146 1.26.438 1.663.292.398.698.596 1.219.596.52 0 .925-.203 1.212-.609.292-.406.438-1 .438-1.784 0-.694-.15-1.244-.45-1.65-.297-.406-.7-.61-1.213-.61-.503 0-.903.202-1.2.604-.296.398-.444.994-.444 1.79zM85.113 23H83.57v-6.868h1.543V23zm-1.638-8.652c0-.237.074-.434.222-.59.153-.157.368-.235.648-.235.279 0 .495.078.647.235a.812.812 0 01.229.59.804.804 0 01-.229.584c-.152.152-.368.229-.647.229-.28 0-.495-.076-.648-.229a.817.817 0 01-.222-.584zm6.405 7.547c.385 0 .704-.112.958-.336a1.15 1.15 0 00.406-.832h1.454c-.017.428-.15.828-.4 1.2-.25.368-.588.66-1.016.876a3.027 3.027 0 01-1.383.324c-.961 0-1.723-.311-2.285-.933-.563-.622-.845-1.481-.845-2.577v-.159c0-1.045.28-1.881.838-2.507.559-.63 1.32-.946 2.285-.946.817 0 1.481.239 1.993.717.517.474.788 1.098.813 1.873h-1.454c-.017-.394-.152-.718-.406-.971-.25-.254-.57-.381-.958-.381-.5 0-.885.182-1.156.546-.27.36-.408.907-.412 1.644v.247c0 .745.133 1.301.4 1.67.27.363.66.545 1.168.545zm7.267 1.232c-.977 0-1.77-.307-2.38-.92-.605-.618-.908-1.44-.908-2.463v-.19c0-.686.132-1.298.394-1.835a3.036 3.036 0 011.117-1.263 2.948 2.948 0 011.6-.451c.935 0 1.656.298 2.164.895.512.597.768 1.44.768 2.533v.622h-4.487c.046.567.234 1.015.564 1.345.335.33.754.495 1.257.495.707 0 1.282-.285 1.727-.856l.831.793c-.275.41-.643.73-1.104.959a3.455 3.455 0 01-1.543.336zm-.184-5.884c-.423 0-.766.148-1.028.444-.258.296-.423.709-.495 1.238h2.939v-.114c-.034-.517-.172-.906-.413-1.168-.241-.267-.575-.4-1.003-.4zm10.131-3.485l2.666 7.084 2.659-7.084h2.076V23h-1.6v-3.047l.159-4.075L110.325 23h-1.149l-2.723-7.116.158 4.07V23h-1.599v-9.242h2.082zM120.614 23c-.068-.131-.127-.345-.178-.641a2.402 2.402 0 01-1.803.768c-.689 0-1.252-.197-1.688-.59a1.888 1.888 0 01-.654-1.46c0-.732.271-1.293.813-1.683.546-.393 1.324-.59 2.336-.59h.945v-.45c0-.356-.099-.64-.298-.851-.199-.216-.501-.324-.908-.324-.351 0-.639.09-.863.267a.807.807 0 00-.336.666h-1.543c0-.376.125-.728.375-1.053.249-.33.588-.589 1.015-.775.432-.186.912-.28 1.441-.28.804 0 1.445.204 1.924.61.478.402.723.97.736 1.701v3.098c0 .618.087 1.11.26 1.48V23h-1.574zm-1.695-1.11c.305 0 .59-.075.857-.223.271-.148.474-.347.609-.597v-1.295h-.831c-.571 0-1.001.1-1.289.299-.287.199-.431.48-.431.844 0 .296.097.533.292.71.199.174.463.261.793.261zm7.116-1.835l-.686.704V23h-1.542v-9.75h1.542v5.624l.482-.603 1.898-2.14h1.854l-2.552 2.864L129.856 23h-1.784l-2.037-2.945zm7.718 3.072c-.977 0-1.771-.307-2.38-.92-.605-.618-.908-1.44-.908-2.463v-.19c0-.686.131-1.298.394-1.835a3.033 3.033 0 011.117-1.263 2.947 2.947 0 011.599-.451c.936 0 1.657.298 2.165.895.512.597.768 1.44.768 2.533v.622h-4.488c.047.567.235 1.015.565 1.345.334.33.753.495 1.257.495.707 0 1.282-.285 1.726-.856l.832.793c-.275.41-.643.73-1.104.959a3.458 3.458 0 01-1.543.336zm-.184-5.884c-.423 0-.766.148-1.028.444-.258.296-.424.709-.495 1.238h2.939v-.114c-.034-.517-.172-.906-.413-1.168-.241-.267-.576-.4-1.003-.4zm7.998.298a3.827 3.827 0 00-.629-.05c-.706 0-1.182.27-1.428.812V23h-1.542v-6.868h1.472l.038.768c.373-.597.889-.895 1.549-.895.22 0 .402.03.546.089l-.006 1.447zM59.014 40h-1.031v-7.82h1.031V40zm2.895-5.812l.032.73c.444-.558 1.024-.837 1.74-.837 1.229 0 1.848.693 1.859 2.079V40h-.994v-3.846c-.003-.419-.1-.728-.29-.929-.186-.2-.478-.3-.875-.3-.323 0-.605.085-.849.257a1.75 1.75 0 00-.57.677V40h-.993v-5.812h.94zm7.267 4.464l1.44-4.464h1.014L69.546 40h-.757l-2.105-5.812h1.015l1.477 4.464zm3.281-1.611c0-.57.111-1.082.333-1.537a2.53 2.53 0 01.935-1.052 2.56 2.56 0 011.37-.37c.79 0 1.43.273 1.917.82.49.549.736 1.277.736 2.187v.07c0 .565-.11 1.074-.328 1.525a2.447 2.447 0 01-.929 1.047 2.56 2.56 0 01-1.386.376c-.787 0-1.427-.273-1.917-.821-.487-.548-.73-1.273-.73-2.176v-.07zm1 .118c0 .644.148 1.162.445 1.552.301.39.702.585 1.203.585.505 0 .906-.197 1.203-.59.298-.398.446-.953.446-1.666 0-.637-.152-1.152-.456-1.546a1.433 1.433 0 00-1.203-.596c-.491 0-.887.195-1.187.585-.301.39-.452.949-.452 1.676zM80.293 40H79.3v-5.812h.994V40zm-1.075-7.353a.6.6 0 01.145-.408c.1-.111.247-.167.44-.167.194 0 .341.056.441.167.1.11.15.247.15.408a.57.57 0 01-.15.403c-.1.107-.247.16-.44.16-.194 0-.34-.053-.44-.16a.58.58 0 01-.146-.403zm5.22 6.65c.355 0 .665-.108.93-.323a1.13 1.13 0 00.44-.805h.94a1.79 1.79 0 01-.343.95c-.212.3-.495.54-.849.72a2.42 2.42 0 01-1.117.268c-.791 0-1.422-.263-1.89-.79-.466-.53-.699-1.252-.699-2.17v-.166c0-.565.104-1.068.311-1.509.208-.44.505-.782.892-1.026.39-.243.85-.365 1.38-.365.652 0 1.193.195 1.623.585.433.39.664.898.692 1.52h-.94a1.354 1.354 0 00-.43-.923 1.314 1.314 0 00-.945-.365c-.504 0-.897.182-1.176.547-.275.362-.413.886-.413 1.574v.188c0 .67.138 1.185.413 1.547.276.362.67.542 1.182.542zm6.06.81c-.788 0-1.43-.257-1.924-.773-.494-.52-.74-1.212-.74-2.079v-.182c0-.577.108-1.09.327-1.542.222-.454.53-.809.924-1.063a2.324 2.324 0 011.289-.387c.755 0 1.343.249 1.761.747.42.497.629 1.21.629 2.137v.414h-3.937c.014.573.18 1.037.5 1.391.322.35.73.526 1.224.526.35 0 .648-.071.891-.215a2.24 2.24 0 00.64-.569l.607.473c-.487.748-1.218 1.122-2.192 1.122zm-.124-5.21c-.401 0-.738.147-1.01.44-.272.29-.44.7-.505 1.225h2.911v-.075c-.028-.505-.165-.895-.408-1.17-.243-.28-.573-.42-.988-.42zm8.615 3.647l1.353-4.355h1.063l-2.336 6.708c-.362.967-.936 1.45-1.724 1.45l-.188-.016-.37-.07v-.805l.268.021c.337 0 .598-.068.784-.204.19-.136.346-.385.467-.747l.22-.59-2.073-5.748h1.085l1.45 4.356zm3.179-1.503c0-.57.111-1.082.333-1.537a2.53 2.53 0 01.935-1.052c.401-.247.857-.37 1.369-.37.792 0 1.431.273 1.918.82.49.549.735 1.277.735 2.187v.07c0 .565-.109 1.074-.327 1.525a2.451 2.451 0 01-.929 1.047 2.56 2.56 0 01-1.386.376c-.788 0-1.427-.273-1.918-.821-.487-.548-.73-1.273-.73-2.176v-.07zm.999.118c0 .644.149 1.162.446 1.552.301.39.702.585 1.203.585.505 0 .906-.197 1.203-.59.297-.398.446-.953.446-1.666 0-.637-.152-1.152-.457-1.546a1.433 1.433 0 00-1.203-.596c-.49 0-.886.195-1.187.585-.301.39-.451.949-.451 1.676zm9.345 2.266c-.386.455-.954.682-1.702.682-.62 0-1.092-.179-1.418-.537-.322-.361-.485-.895-.489-1.6v-3.782h.994v3.755c0 .88.358 1.321 1.074 1.321.759 0 1.264-.283 1.515-.849v-4.227h.993V40h-.945l-.022-.575zm5.511-4.345a2.969 2.969 0 00-.489-.038c-.651 0-1.094.278-1.326.833V40h-.994v-5.812h.967l.016.672c.326-.52.788-.779 1.386-.779.193 0 .34.025.44.075v.924zm6.418 4.216c.355 0 .664-.107.929-.322.265-.215.412-.483.441-.805h.94a1.8 1.8 0 01-.344.95c-.211.3-.494.54-.849.72a2.424 2.424 0 01-1.117.268c-.791 0-1.422-.263-1.891-.79-.465-.53-.698-1.252-.698-2.17v-.166c0-.565.104-1.068.312-1.509.207-.44.505-.782.891-1.026.391-.243.851-.365 1.381-.365.651 0 1.192.195 1.622.585.433.39.664.898.693 1.52h-.94a1.355 1.355 0 00-.43-.923 1.312 1.312 0 00-.945-.365c-.505 0-.897.182-1.177.547-.275.362-.413.886-.413 1.574v.188c0 .67.138 1.185.413 1.547.276.362.67.542 1.182.542zm7.235.13c-.387.454-.955.681-1.703.681-.619 0-1.092-.179-1.418-.537-.322-.361-.485-.895-.489-1.6v-3.782h.994v3.755c0 .88.358 1.321 1.074 1.321.759 0 1.264-.283 1.515-.849v-4.227h.993V40h-.945l-.021-.575zm6.085-.968a.723.723 0 00-.306-.623c-.201-.15-.553-.279-1.058-.386-.502-.108-.901-.237-1.198-.387-.294-.15-.512-.33-.655-.537a1.295 1.295 0 01-.21-.741c0-.477.201-.88.602-1.209.404-.33.92-.494 1.547-.494.658 0 1.192.17 1.6.51.412.34.618.776.618 1.306h-.999c0-.273-.117-.507-.349-.704-.229-.197-.519-.295-.87-.295-.362 0-.645.078-.849.236a.744.744 0 00-.306.617c0 .24.095.421.284.543.19.122.532.238 1.026.35.498.11.901.243 1.209.397.308.154.535.34.682.558.15.215.226.478.226.79 0 .519-.208.936-.623 1.251-.416.312-.955.467-1.617.467-.466 0-.877-.082-1.236-.247a2.036 2.036 0 01-.843-.687 1.69 1.69 0 01-.301-.962h.994c.018.333.15.598.398.795.25.194.58.29.988.29.376 0 .677-.075.902-.225.229-.154.344-.358.344-.612zm3.856-5.677v1.407h1.085v.768h-1.085v3.604c0 .233.048.409.145.527.097.114.262.172.494.172.115 0 .272-.022.473-.065V40a2.882 2.882 0 01-.763.107c-.444 0-.779-.134-1.004-.402-.226-.269-.339-.65-.339-1.145v-3.604h-1.058v-.768h1.058v-1.407h.994zm2.1 4.26c0-.57.111-1.082.333-1.537a2.53 2.53 0 01.935-1.052c.401-.247.857-.37 1.369-.37.792 0 1.431.273 1.918.82.49.549.736 1.277.736 2.187v.07c0 .565-.11 1.074-.328 1.525a2.451 2.451 0 01-.929 1.047 2.56 2.56 0 01-1.386.376c-.788 0-1.427-.273-1.918-.821-.486-.548-.73-1.273-.73-2.176v-.07zm.999.118c0 .644.149 1.162.446 1.552.301.39.702.585 1.203.585.505 0 .906-.197 1.203-.59.297-.398.446-.953.446-1.666 0-.637-.152-1.152-.457-1.546a1.431 1.431 0 00-1.203-.596c-.49 0-.886.195-1.187.585-.301.39-.451.949-.451 1.676zm6.692-2.97l.027.644c.426-.501 1.001-.752 1.724-.752.813 0 1.366.312 1.66.935a2.2 2.2 0 01.752-.677c.311-.172.678-.258 1.101-.258 1.275 0 1.923.675 1.944 2.025V40h-.993v-3.835c0-.415-.095-.725-.285-.93-.19-.207-.509-.31-.956-.31-.369 0-.675.11-.919.332-.243.219-.385.514-.424.887V40h-.999v-3.808c0-.845-.414-1.268-1.241-1.268-.651 0-1.097.278-1.337.833V40h-.994v-5.812h.94zm11.344 5.918c-.788 0-1.429-.257-1.923-.773-.494-.52-.741-1.212-.741-2.079v-.182c0-.577.109-1.09.327-1.542.222-.454.53-.809.924-1.063a2.325 2.325 0 011.289-.387c.756 0 1.343.249 1.762.747.419.497.628 1.21.628 2.137v.414h-3.937c.015.573.181 1.037.5 1.391.322.35.73.526 1.224.526.351 0 .649-.071.892-.215.244-.143.457-.333.639-.569l.607.473c-.487.748-1.217 1.122-2.191 1.122zm-.124-5.21c-.401 0-.737.147-1.01.44-.272.29-.44.7-.504 1.225h2.911v-.075c-.029-.505-.165-.895-.408-1.17-.244-.28-.573-.42-.989-.42zm6.574.183a2.969 2.969 0 00-.489-.038c-.651 0-1.093.278-1.326.833V40h-.994v-5.812h.967l.016.672c.326-.52.788-.779 1.386-.779.193 0 .34.025.44.075v.924zm4.522 3.379a.723.723 0 00-.306-.624c-.2-.15-.553-.279-1.058-.386-.501-.108-.9-.237-1.198-.387-.293-.15-.512-.33-.655-.537a1.302 1.302 0 01-.209-.741c0-.477.2-.88.601-1.209.405-.33.921-.494 1.547-.494.659 0 1.193.17 1.601.51.412.34.617.776.617 1.306h-.999c0-.273-.116-.507-.349-.704-.229-.197-.519-.295-.87-.295-.362 0-.644.078-.848.236a.742.742 0 00-.307.617c0 .24.095.421.285.543.19.122.532.238 1.026.35.498.11.9.243 1.208.397.308.154.536.34.683.558.15.215.225.478.225.79 0 .519-.208.936-.623 1.251-.415.312-.954.467-1.617.467-.465 0-.877-.082-1.235-.247a2.036 2.036 0 01-.843-.687 1.683 1.683 0 01-.301-.962h.994c.018.333.15.598.397.795.251.194.58.29.988.29.376 0 .677-.075.903-.225.229-.154.343-.358.343-.612z" fill="#000"/><path d="M36.272 40.712H16.869v-4.068h22.587c.11 0 .193.1.175.208-.642 3.86-3.36 3.86-3.36 3.86z" fill="#AFCDFB"/><path d="M36.272 40.712H16.869v-4.068h22.587c.11 0 .193.1.175.208-.642 3.86-3.36 3.86-3.36 3.86z" fill="url(#paint0_linear)"/><g opacity=".6"><path opacity=".6" d="M39.22 16.277H17.044a.182.182 0 00-.158.098c-5.817 10.915-5.794 11.89-5.794 11.89l20.965 5.623s.608-7.52 7.308-17.326c.082-.12.002-.285-.143-.285z" fill="#F8FBFF"/><path opacity=".6" d="M39.22 16.277H17.044a.182.182 0 00-.158.098c-5.817 10.915-5.794 11.89-5.794 11.89l20.965 5.623s.608-7.52 7.308-17.326c.082-.12.002-.285-.143-.285z" fill="url(#paint1_linear)"/><path opacity=".6" d="M29.282 18.09a.398.398 0 01-.46.322l-8.35-1.451a.393.393 0 01-.32-.457.398.398 0 01.46-.322l8.35 1.45a.393.393 0 01.32.458zm2.065 1.78a.4.4 0 01-.46.322L17.92 17.931a.396.396 0 01-.322-.46.4.4 0 01.461-.322l12.966 2.261c.216.038.36.244.321.46zm-.958 3.136l-13.962-2.461a.2.2 0 01.07-.393l13.961 2.462a.2.2 0 01-.07.392zm-.139.827l-13.961-2.461a.2.2 0 01.069-.393l13.961 2.461a.2.2 0 01-.069.393zm-14.115-1.589l8.599 1.516a.2.2 0 00.069-.393l-8.598-1.516a.2.2 0 00-.07.393z" fill="#000"/></g><g opacity=".6"><path opacity=".6" d="M37.715 14.484H15.48a.18.18 0 00-.168.124c-4.028 11.698-3.518 16.166-3.518 16.166l20.49.682s1.12-8.425 5.585-16.704c.065-.12-.017-.268-.154-.268z" fill="#F8FBFF"/><path opacity=".6" d="M37.715 14.484H15.48a.18.18 0 00-.168.124c-4.028 11.698-3.518 16.166-3.518 16.166l20.49.682s1.12-8.425 5.585-16.704c.065-.12-.017-.268-.154-.268z" fill="url(#paint2_linear)"/><path opacity=".6" d="M28.774 16.795a.395.395 0 01-.427.358l-8.454-.722a.391.391 0 01-.356-.425.395.395 0 01.427-.358l8.454.722a.391.391 0 01.356.425zm2.213 1.593a.397.397 0 01-.429.36l-13.123-1.127a.393.393 0 01-.358-.427.397.397 0 01.428-.36l13.123 1.127c.218.019.378.21.359.427zm-.683 3.208L16.18 20.36a.2.2 0 01.035-.397l14.122 1.235a.2.2 0 01-.034.398zm-.066.835l-14.122-1.236a.2.2 0 01.034-.397l14.123 1.236a.2.2 0 01-.035.397zm-14.2-.353l8.698.76a.2.2 0 00.035-.397l-8.698-.761a.2.2 0 00-.035.398z" fill="#000"/></g><path d="M36.196 12.569c.132 0 .218.14.162.259-4.801 10.218-4.118 20.556-4.118 20.556-.287 2.749 1.03 6.954 4.046 7.345H17.45c-4.943 0-6.974-3.535-6.975-7.344 0 0-.69-10.534 4.196-20.739a.182.182 0 01.163-.102c9.25 0 15.626.024 21.362.025z" fill="url(#paint3_radial)"/><path d="M22.264 15.168h-5.302a.707.707 0 100 1.414h5.302a.707.707 0 100-1.414z" fill="#C3D1E6"/><path d="M19.578 28.954h-5.303a.707.707 0 000 1.414h5.303a.707.707 0 000-1.414zm10.215-6.363H14.806a.707.707 0 000 1.414h14.987a.707.707 0 000-1.414zm-.53 3.182H14.275a.707.707 0 000 1.413h14.988a.707.707 0 000-1.413zm-6.186-7.423h-7.176a.707.707 0 000 1.413h7.176a.707.707 0 100-1.413z" fill="#CFDBEC"/><path fill-rule="evenodd" clip-rule="evenodd" d="M28.564 35.08a3.52 3.52 0 01-4.615 1.236l-.937.251a4.243 4.243 0 006.491-1.74l-.939.252zm-5.101.927a3.518 3.518 0 01-1.164-4.08l-.824.221a4.25 4.25 0 001.15 4.084l.838-.225zm-1.835-4.339a4.243 4.243 0 016.622-1.774l-.912.244a3.522 3.522 0 00-4.797 1.285l-.913.245zm6.17-1.214a3.516 3.516 0 011.034 4.114l.84-.224c.102-.366.156-.75.156-1.148a4.23 4.23 0 00-1.206-2.963l-.823.22z" fill="#F23333"/><path d="M20.365 33.617c-.103-.383-.154-.574-.118-.74a.707.707 0 01.218-.379c.126-.113.317-.164.7-.267l7.786-2.086c.383-.103.574-.154.74-.119a.707.707 0 01.379.219c.113.126.164.317.267.7l.512 1.912c.103.382.154.573.119.74a.707.707 0 01-.219.378c-.126.113-.317.164-.7.267l-7.786 2.086c-.383.103-.574.154-.74.119a.707.707 0 01-.378-.219c-.114-.126-.165-.317-.268-.7l-.512-1.911z" fill="#F23333"/><path d="M23.073 32.885l-.915.245.549 2.048.591-.158-.154-.576.316-.085c.506-.135.663-.535.556-.932-.104-.39-.437-.677-.942-.542zm.345.702c.053.2-.044.334-.236.385l-.157.042-.16-.6.17-.046c.184-.049.33.024.383.22zm1.515.995l-.006-.437.58-.156.21.383.633-.17-1.176-1.88-.744.2-.083 2.217.586-.157zm-.003-1.659l.366.672-.38.102-.015-.766.029-.008zm2.196 1.071l-.549-2.048-.593.16.55 2.047.592-.159zm-.187-2.144l.548 2.047.866-.231c.648-.174.828-.663.66-1.287-.164-.615-.55-.938-1.209-.762l-.865.232zm.715.3l.168-.045c.363-.098.51.16.588.453.132.492-.054.615-.285.676l-.168.045-.303-1.13z" fill="#fff"/><defs><linearGradient id="paint0_linear" x1="33.445" y1="39.309" x2="38.542" y2="39.309" gradientUnits="userSpaceOnUse"><stop stop-color="#9DC4FE"/><stop offset="1" stop-color="#CEDFFF"/></linearGradient><linearGradient id="paint1_linear" x1="18.477" y1="20.141" x2="31.097" y2="24.486" gradientUnits="userSpaceOnUse"><stop stop-color="#EFDAD5"/><stop offset=".471" stop-color="#DEF1D6"/><stop offset="1" stop-color="#C5E8F0"/></linearGradient><linearGradient id="paint2_linear" x1="13.111" y1="20.993" x2="33.894" y2="24.657" gradientUnits="userSpaceOnUse"><stop stop-color="#fff"/><stop offset="1" stop-color="#96CDFF"/></linearGradient><radialGradient id="paint3_radial" cx="0" cy="0" r="1" gradientUnits="userSpaceOnUse" gradientTransform="matrix(0 33.3335 -67.1486 0 25.11 8.558)"><stop stop-color="#fff"/><stop offset=".863" stop-color="#fff"/><stop offset=".896" stop-color="#E2F0FF"/><stop offset=".943" stop-color="#ADD3FF"/><stop offset="1" stop-color="#61A9FE"/></radialGradient></defs></svg>