<svg width="1440" height="615" fill="none" xmlns="http://www.w3.org/2000/svg"><g clip-path="url(#clip0)" opacity=".3"><path fill="#fff" d="M974.961 519.202l96.026-26.418 35.69 136.757-96.026 26.418z"/><path d="M1070.58 491.194l-96.031 26.418c-.855.235-1.363 1.138-1.134 2.016l35.695 136.757a1.59 1.59 0 001.96 1.164l96.03-26.418c.85-.235 1.36-1.138 1.13-2.016l-35.69-136.757c-.23-.877-1.11-1.399-1.96-1.164zm34.14 137.183l-92.93 25.565-34.862-133.576 92.932-25.565 34.86 133.576z" fill="#CFDBEC"/><path d="M1016.15 635.038c.01.112.08.211.18.263l2.29 1.222 1.2 2.359c.05.1.15.17.26.184l2.56.344 1.91 1.8c.08.077.19.109.3.085l2.53-.578 2.39 1.019c.1.044.22.032.31-.027l2.18-1.434 2.59.121c.03.001.07-.002.1-.011a.353.353 0 00.18-.123l1.57-2.11 2.47-.797c.11-.034.19-.12.22-.227l.78-2.536 2.05-1.615a.33.33 0 00.13-.291l-.11-2.656 1.4-2.24a.33.33 0 00.02-.319l-.99-2.455.56-2.597a.377.377 0 00-.08-.308l-1.75-1.959-.34-2.637a.333.333 0 00-.18-.263l-2.29-1.222-1.2-2.358a.325.325 0 00-.25-.183l-2.57-.344-1.91-1.8a.324.324 0 00-.3-.084l-2.53.576-2.39-1.019a.34.34 0 00-.31.027l-2.18 1.434-2.59-.122a.328.328 0 00-.28.136l-1.58 2.11-2.46.797a.33.33 0 00-.22.228l-.78 2.536-2.06 1.615a.39.39 0 00-.13.291l.12 2.656-1.39 2.24a.36.36 0 00-.03.319l1 2.455-.57 2.595c-.02.111.01.225.09.309l1.74 1.959.34 2.635zm-1.47-4.93l.55-2.526a.484.484 0 00-.02-.208l-.97-2.389 1.36-2.181a.456.456 0 00.05-.201l-.11-2.586 2-1.573a.366.366 0 00.11-.172l.76-2.469 2.4-.775a.321.321 0 00.17-.119l1.53-2.055 2.52.119c.07.003.14-.016.2-.054l2.12-1.396 2.33.992c.06.027.13.035.2.018l2.46-.561 1.86 1.752c.05.049.11.079.18.089l2.5.335 1.16 2.295c.03.063.08.115.14.148l2.24 1.189.33 2.566c0 .071.03.136.08.19l1.7 1.907-.54 2.528a.3.3 0 00.02.208l.97 2.389-1.36 2.18a.292.292 0 00-.05.202l.11 2.586-2.01 1.571a.366.366 0 00-.11.172l-.76 2.469-2.4.775a.339.339 0 00-.16.119l-1.54 2.054-2.52-.118a.38.38 0 00-.1.011.336.336 0 00-.09.043l-2.12 1.395-2.33-.992a.328.328 0 00-.2-.018l-2.46.563-1.86-1.752a.315.315 0 00-.18-.089l-2.5-.335-1.16-2.296a.424.424 0 00-.15-.148l-2.23-1.19-.33-2.565a.347.347 0 00-.09-.19l-1.7-1.907z" fill="#CFDBEC"/><path d="M1031.9 638.904c6.79-1.866 10.82-9.048 9.01-16.011-1.82-6.962-8.81-11.11-15.6-9.244-6.78 1.865-10.82 9.047-9 16.011 1.82 6.961 8.81 11.11 15.59 9.244zm-6.17-23.665c5.93-1.631 12.04 1.994 13.63 8.08 1.59 6.087-1.94 12.364-7.87 13.995-5.93 1.631-12.04-1.994-13.63-8.08-1.59-6.088 1.94-12.365 7.87-13.995zm51.57 1.831c-1.55.193-2.77.928-4.33.612-.93-.187-.76-.844-1.89-.334-1.11.501-1.56 2.07-1.97 3.527-.07-2.038-.3-4.282-2.52-3.705-.32.081-.65.27-.96.518-1.29-.574-2.72-.879-4.18-1.201a5.236 5.236 0 00-.44-.07c1.69-2.68 3.24-5.453 4.62-8.099a.478.478 0 00-.64-.656c-3.32 1.691-6.63 4.493-7.92 8.154-.09.272.12.527.34.615.68.262 1.36.458 2.04.629-.48.85-.96 1.703-1.48 2.533-1.04 1.651-3.08 3.402-3.64 5.214.06-.179-.22-.307-.3-.128-.03.08-.06.163-.1.244-.03.085-.03.203.07.248.03.016.06.033.1.049.07.036.16.032.22-.03 2.23-2.302 4.27-5.028 6.13-7.892l1.21.267c.33.075 1.92.397 3.19.912-.55.687-.89 1.493-.77 2.126-.36-.009-.69 0-.9.086-.85.342-1.13.583-1.56 1.42-.16.312.03.84.44.789 1.3-.164 1.59-.926 2.28-1.762.74.846 2.49.489 3.58-.189.12.797.18 1.746.37 2.539.11.462.71.508.94.128 1.12-1.847.75-4.55 3.16-4.646.39-.016 1.12.581 1.87.52.23-.075.43-.188.6-.34.93-1.102 1.91-1.255 2.94-.462.1-.012.36.054.47.063 1.47.134 3.3-1.165 4.64-1.61 1.73-.569 3.43-.996 5.22-1.257.79-.115.45-1.334-.32-1.226-3.62.498-6.93 1.968-10.51 2.414zm-18.1-1.09c-.8.062-1.02-.219-.66-.842.13-.879.57-1.612 1.3-2.2 1.23-1.476 2.71-2.707 4.33-3.702-1.18 2.393-2.85 4.593-4.17 6.885-.02.043-.05.086-.07.129-.28-.062-.55-.138-.73-.27zm6.97 4.479c-.21.212-.76.205-1.35.175.62-.602 1.12-.988 1.52-1.181.2.307.2.642-.17 1.006zm-35.1-83.455c5.53-1.522 8.82-7.379 7.34-13.058-1.48-5.678-7.18-9.06-12.72-7.538-5.53 1.521-8.82 7.378-7.34 13.057 1.48 5.679 7.19 9.06 12.72 7.539zm-4.96-19.006c4.68-1.287 9.5 1.574 10.75 6.374 1.26 4.803-1.53 9.755-6.21 11.042-4.67 1.286-9.5-1.574-10.75-6.375s1.53-9.754 6.21-11.041zm37.18 15.254l-61.95 17.044.41 1.59 61.96-17.044-.42-1.59zm-16.92 11.474l-24.78 6.817.41 1.59 24.78-6.817-.41-1.59zm23.56 13.968l-61.95 17.044.41 1.59 61.96-17.043-.42-1.591zm-4.53 8.065l-49.56 13.635.41 1.59 49.56-13.635-.41-1.59zm-10.73 9.77l-24.79 6.818.42 1.59 24.78-6.818-.41-1.59z" fill="#CFDBEC"/></g><g clip-path="url(#clip1)" opacity=".3"><path fill="#fff" d="M290.602 299.391h99.414v141.581h-99.414z"/><path d="M390.018 297.746h-99.415c-.885 0-1.603.738-1.603 1.647v141.58c0 .909.718 1.647 1.603 1.647h99.415c.885 0 1.603-.738 1.603-1.647v-141.58c0-.909-.718-1.647-1.603-1.647zm-1.604 141.581h-96.207V301.039h96.207v138.288z" fill="#CFDBEC"/><path d="M301.184 422.226a.356.356 0 00.106.301l1.911 1.791.56 2.596a.346.346 0 00.2.246l2.393 1.014 1.387 2.245c.059.096.16.157.269.162l2.588.113 2.052 1.62a.333.333 0 00.307.056l2.469-.805 2.469.805c.034.01.068.017.101.017a.338.338 0 00.206-.071l2.052-1.62 2.586-.114a.333.333 0 00.27-.161l1.387-2.244 2.392-1.014a.347.347 0 00.201-.245l.559-2.596 1.913-1.793a.347.347 0 00.106-.302l-.343-2.635 1.196-2.359a.354.354 0 000-.32l-1.196-2.357.341-2.636a.353.353 0 00-.105-.301l-1.912-1.791-.559-2.595a.347.347 0 00-.201-.245l-2.394-1.014-1.387-2.246a.338.338 0 00-.269-.161l-2.588-.115-2.054-1.62a.333.333 0 00-.306-.056l-2.47.805-2.467-.805a.322.322 0 00-.307.056l-2.054 1.62-2.586.113a.335.335 0 00-.27.161l-1.387 2.244-2.393 1.014a.347.347 0 00-.201.246l-.555 2.598-1.911 1.792a.347.347 0 00-.106.302l.342 2.635-1.197 2.358a.352.352 0 000 .319l1.197 2.358-.342 2.634zm-.176-5.153l1.164-2.295a.35.35 0 00.035-.206l-.333-2.565 1.861-1.745a.334.334 0 00.101-.181l.544-2.527 2.33-.988a.338.338 0 00.155-.135l1.35-2.184 2.516-.111a.34.34 0 00.191-.07l1.999-1.578 2.402.784a.324.324 0 00.204 0l2.404-.784 1.999 1.578a.327.327 0 00.191.07l2.517.112 1.351 2.185a.334.334 0 00.155.135l2.33.988.543 2.525a.362.362 0 00.101.181l1.862 1.744-.333 2.565c-.01.07.003.141.035.205l1.164 2.295-1.164 2.297a.35.35 0 00-.035.206l.333 2.565-1.862 1.745a.348.348 0 00-.101.181l-.545 2.527-2.33.986a.338.338 0 00-.155.135l-1.35 2.185-2.516.11a.335.335 0 00-.191.071l-1.998 1.577-2.403-.784a.314.314 0 00-.202 0l-2.404.784-1.998-1.577a.325.325 0 00-.191-.071l-2.517-.11-1.35-2.185a.34.34 0 00-.156-.135l-2.33-.988-.543-2.527a.359.359 0 00-.101-.181l-1.86-1.743.33-2.565a.35.35 0 00-.035-.206l-1.164-2.295z" fill="#CFDBEC"/><path d="M315.426 430.147c7.022 0 12.733-5.864 12.733-13.073 0-7.207-5.711-13.073-12.733-13.073-7.02 0-12.733 5.864-12.733 13.073.002 7.208 5.713 13.073 12.733 13.073zm0-24.5c6.138 0 11.13 5.127 11.13 11.427 0 6.302-4.993 11.427-11.13 11.427-6.136 0-11.129-5.126-11.129-11.427.001-6.302 4.993-11.427 11.129-11.427z" fill="#CFDBEC"/><path d="M315.428 425.138c4.332 0 7.857-3.619 7.857-8.067s-3.525-8.065-7.857-8.065c-4.333 0-7.856 3.618-7.856 8.065 0 4.447 3.525 8.067 7.856 8.067zm0-15.474c3.978 0 7.215 3.323 7.215 7.407s-3.237 7.408-7.215 7.408c-3.979 0-7.214-3.324-7.214-7.408 0-4.084 3.235-7.407 7.214-7.407zm49.348 11.455c-1.544-.225-2.904.162-4.336-.559-.848-.427-.518-1.016-1.737-.824-1.197.19-2.033 1.584-2.79 2.885.443-1.989.789-4.216-1.507-4.251-.322-.005-.688.091-1.057.245-1.1-.897-2.408-1.572-3.731-2.27-.115-.061-.261-.122-.409-.184 2.311-2.139 4.501-4.407 6.506-6.595.331-.363-.002-.899-.456-.805-3.632.752-7.531 2.579-9.701 5.773-.16.237-.024.538.175.685a16.8 16.8 0 001.81 1.149c-.684.692-1.363 1.388-2.075 2.051-1.419 1.319-3.83 2.468-4.823 4.072.098-.158-.141-.358-.258-.205l-.16.21c-.055.072-.08.187 0 .256l.085.074c.062.055.147.075.221.03 2.737-1.63 5.397-3.721 7.918-5.992l1.098.579c.302.16 1.756.894 2.848 1.727-.701.519-1.238 1.205-1.28 1.849-.343-.104-.66-.181-.888-.155-.911.104-1.241.262-1.866.957-.233.258-.182.819.226.879 1.3.187 1.767-.473 2.65-1.095.499 1.012 2.284 1.134 3.501.767-.085.802-.268 1.734-.284 2.55-.01.476.566.682.883.376 1.548-1.487 1.868-4.197 4.216-3.65.388.09.936.859 1.682 1.001a1.73 1.73 0 00.664-.17c1.178-.816 2.161-.705 2.952.334.097.015.336.148.437.186 1.389.521 3.481-.248 4.894-.321 1.807-.092 3.558-.052 5.354.172.791.098.778-1.168 0-1.27-3.622-.48-7.185.061-10.762-.461zm-17.209-5.862c-.787-.153-.926-.483-.421-.988.351-.813.955-1.406 1.812-1.78 1.555-1.099 3.298-1.894 5.111-2.426-1.736 2-3.912 3.679-5.758 5.545l-.105.103c-.254-.133-.49-.276-.639-.454zm5.611 6.18c-.258.148-.791-.005-1.352-.191.755-.415 1.336-.655 1.764-.738.119.351.032.674-.412.929zm-12.868-89.94c5.726 0 10.384-4.783 10.384-10.662 0-5.879-4.658-10.661-10.384-10.661s-10.384 4.782-10.384 10.661 4.658 10.662 10.384 10.662zm0-19.677c4.842 0 8.78 4.045 8.78 9.015 0 4.972-3.939 9.015-8.78 9.015-4.841 0-8.781-4.045-8.781-9.015 0-4.97 3.938-9.015 8.781-9.015zm32.071 24.615h-64.139v1.646h64.139v-1.646zm-19.241 6.586h-25.656v1.646h25.656v-1.646zm19.239 19.754H308.24v1.646h64.139v-1.646zm-6.412 6.585h-51.311v1.646h51.311v-1.646zm-12.829 6.586h-25.656v1.646h25.656v-1.646z" fill="#CFDBEC"/></g><g clip-path="url(#clip2)" opacity=".3"><path fill="#fff" d="M934.652-25.707L1030.678.71l-35.69 136.757-96.026-26.418z"/><path d="M1031.1-.877l-96.032-26.418c-.855-.235-1.734.286-1.963 1.164l-35.691 136.757c-.229.877.279 1.781 1.134 2.016l96.027 26.417c.855.236 1.735-.286 1.964-1.164L1032.23 1.139c.23-.878-.28-1.781-1.13-2.016zm-37.244 136.33l-92.929-25.565 34.86-133.577 92.933 25.566-34.864 133.576z" fill="#CFDBEC"/><path d="M913.91 95.755a.356.356 0 00.027.319l1.394 2.238-.114 2.656a.356.356 0 00.132.291l2.055 1.615.774 2.537a.344.344 0 00.22.228l2.471.797 1.574 2.11c.066.09.173.14.282.136l2.588-.121 2.182 1.433a.327.327 0 00.309.029l2.391-1.019 2.527.577a.328.328 0 00.301-.084l1.905-1.799 2.567-.344a.338.338 0 00.255-.183l1.195-2.359 2.3-1.224a.34.34 0 00.178-.263l.333-2.637 1.75-1.96a.35.35 0 00.081-.309l-.561-2.595.994-2.455a.359.359 0 00-.026-.32l-1.395-2.237.114-2.655a.353.353 0 00-.132-.29l-2.057-1.616-.774-2.538a.343.343 0 00-.219-.227l-2.471-.8-1.576-2.11a.34.34 0 00-.281-.135l-2.588.121-2.181-1.433a.322.322 0 00-.31-.027l-2.392 1.019-2.527-.578a.329.329 0 00-.301.084l-1.906 1.8-2.568.342a.34.34 0 00-.255.184l-1.191 2.362-2.298 1.224a.34.34 0 00-.178.263l-.335 2.636-1.749 1.96a.35.35 0 00-.081.308l.561 2.595-.994 2.454zm1.129-5.024l1.703-1.908a.353.353 0 00.086-.19l.324-2.565 2.238-1.191a.34.34 0 00.144-.148l1.162-2.297 2.499-.335a.332.332 0 00.184-.089l1.855-1.751 2.458.562a.332.332 0 00.202-.018l2.329-.992 2.123 1.395a.334.334 0 00.197.054l2.519-.118 1.534 2.055c.041.056.1.099.166.119l2.403.777.754 2.469c.02.069.061.128.116.172l2.001 1.573-.111 2.584a.356.356 0 00.052.202l1.359 2.178-.969 2.39a.352.352 0 00-.018.207l.546 2.526-1.703 1.909a.342.342 0 00-.086.19l-.325 2.566-2.238 1.191a.33.33 0 00-.143.148l-1.164 2.296-2.499.333a.332.332 0 00-.184.089l-1.855 1.752-2.458-.562a.34.34 0 00-.202.017l-2.327.993-2.125-1.396a.37.37 0 00-.093-.042.291.291 0 00-.102-.011l-2.519.118-1.532-2.054a.33.33 0 00-.167-.12l-2.403-.775-.754-2.469a.342.342 0 00-.116-.172l-2.001-1.573.111-2.585a.355.355 0 00-.051-.202l-1.358-2.178.966-2.39a.352.352 0 00.018-.208l-.546-2.526z" fill="#CFDBEC"/><path d="M925.669 107.191c6.782 1.866 13.777-2.281 15.595-9.244 1.817-6.962-2.222-14.146-9.004-16.012-6.781-1.865-13.777 2.281-15.595 9.245-1.815 6.962 2.223 14.145 9.004 16.011zm6.176-23.666c5.929 1.632 9.458 7.91 7.87 13.996-1.589 6.087-7.704 9.71-13.631 8.08-5.927-1.631-9.458-7.91-7.87-13.995 1.59-6.087 7.704-9.711 13.631-8.08z" fill="#CFDBEC"/><path d="M926.933 102.352c4.185 1.152 8.502-1.407 9.623-5.704 1.121-4.296-1.371-8.727-5.556-9.878-4.185-1.151-8.5 1.408-9.621 5.703-1.121 4.295 1.371 8.728 5.554 9.879zm3.901-14.946c3.842 1.057 6.132 5.126 5.102 9.072-1.029 3.945-4.994 6.295-8.837 5.238-3.842-1.057-6.13-5.127-5.1-9.073 1.029-3.945 4.992-6.294 8.835-5.237zm44.78 24.178c-1.434-.628-2.845-.616-4.047-1.693-.712-.637-.244-1.118-1.47-1.256-1.204-.136-2.363.989-3.422 2.044.929-1.803 1.825-3.862-.384-4.506-.31-.09-.687-.095-1.082-.044-.837-1.159-1.93-2.158-3.032-3.184-.096-.09-.222-.187-.349-.287 2.771-1.452 5.459-3.06 7.946-4.642.412-.261.225-.868-.237-.898-3.697-.239-7.925.49-10.825 2.999-.215.186-.159.513-.004.708.453.571.947 1.09 1.459 1.591-.836.486-1.667.978-2.522 1.43-1.703.896-4.322 1.365-5.685 2.651.135-.127-.046-.383-.198-.266-.068.052-.137.107-.207.159-.071.056-.125.16-.065.248l.063.094c.047.069.124.111.207.088 3.054-.847 6.151-2.16 9.158-3.685l.915.852c.251.234 1.471 1.33 2.316 2.425-.808.315-1.5.835-1.702 1.446-.306-.192-.593-.351-.819-.386-.906-.142-1.265-.077-2.044.428-.29.188-.382.744-.004.909 1.209.527 1.826.014 2.837-.353.226 1.111 1.919 1.703 3.187 1.671-.284.752-.695 1.604-.917 2.388-.129.457.375.809.759.598 1.869-1.025 2.862-3.557 4.992-2.406.352.191.688 1.079 1.372 1.414.23.05.458.054.684.013 1.345-.476 2.266-.107 2.768 1.107.09.04.287.233.375.296 1.211.871 3.426.685 4.808.99 1.769.391 3.45.895 5.129 1.588.738.306 1.045-.92.32-1.226-3.378-1.427-6.956-1.85-10.28-3.305zm-15.144-10.235c-.722-.357-.774-.713-.158-1.067.544-.692 1.277-1.104 2.199-1.237 1.779-.649 3.663-.954 5.549-.986-2.182 1.471-4.707 2.515-6.96 3.826l-.128.072c-.211-.196-.403-.397-.502-.608zm3.861 7.46c-.286.075-.762-.215-1.257-.544.834-.2 1.455-.277 1.89-.243.026.37-.139.659-.633.787zm10.242-90.296c5.531 1.522 11.236-1.86 12.718-7.539 1.482-5.678-1.812-11.535-7.343-13.057-5.531-1.521-11.236 1.86-12.718 7.539-1.482 5.678 1.812 11.536 7.343 13.057zm4.96-19.006c4.678 1.287 7.462 6.24 6.209 11.041-1.253 4.803-6.078 7.661-10.754 6.375-4.676-1.286-7.462-6.24-6.209-11.041 1.253-4.8 6.077-7.662 10.754-6.375zm24.777 32.299l-61.956-17.044-.415 1.59 61.951 17.044.42-1.59zm-20.25 1.248l-24.781-6.817-.415 1.59 24.781 6.817.415-1.59zm13.606 24.194l-61.953-17.043-.415 1.59 61.953 17.043.415-1.59zm-7.854 4.658L940.25 48.27l-.415 1.59 49.562 13.635.415-1.59zm-14.052 2.95l-24.781-6.817-.415 1.59 24.781 6.817.415-1.59z" fill="#CFDBEC"/></g><g clip-path="url(#clip3)" opacity=".3"><path fill="#fff" d="M-23.04 84.905l96.027-26.418 35.69 136.757-96.026 26.417z"/><path d="M18.337 187.625c.907-2.08 1.539-4.771 2.84-6.631.585-.836-.186.842-.27 1.266a31.569 31.569 0 00-.473 3.387c-.11 1.329.012 2.342.44 3.577.085.241.286.365.535.317 1.713-.331.202-.158 1.733-.763a2.84 2.84 0 00.63-.685c1.203-.637 2.303-.676 3.302-.119 1.105.023 1.364.574 2.575.174 1.552-.514 2.427-1.647 4.122-2.154 1.363-.408 2.838-.411 4.225-.752 3.283-.808 6.463-2.293 9.635-3.457.67-.245.416-1.307-.29-1.111-3.744 1.038-7.213 2.91-11.03 3.704-1.428.297-2.967.341-4.311.98-2.139 1.016-2.992 1.516-5.49 1.207-1.621-.2-1.662.189-3.075.576-2.882.788-2.1-1.542-1.845-3.632.154-1.252.205-2.276.037-3.518-.05-.36-.54-.351-.697-.094-1.168 1.899-1.83 4.179-2.657 6.244-.841 2.099-2.875 8.803-5.757 8.674-.155-.007-.196.259-.037.283 3.028.466 4.968-5.432 5.858-7.473z" fill="#CFDBEC"/><path d="M72.576 56.895l-96.027 26.418c-.855.235-1.363 1.139-1.134 2.016l35.69 136.757c.23.878 1.11 1.399 1.964 1.164l96.027-26.418c.855-.235 1.363-1.138 1.134-2.016L74.54 58.06c-.23-.878-1.11-1.4-1.964-1.165zm34.141 137.183l-92.929 25.566-34.86-133.577 92.929-25.565 34.86 133.576z" fill="#CFDBEC"/><path d="M64.846 71.804l-12.39 3.408.414 1.59 12.39-3.408-.414-1.59zm1.662 6.362l-12.39 3.41.414 1.59 12.39-3.41-.414-1.59zm1.66 6.36l-6.195 1.705.415 1.59 6.195-1.705-.415-1.59zm-32.401 28.513l-37.171 10.226.83 3.181 37.171-10.227-.83-3.18zm37.174-10.227l-12.39 3.409.83 3.181 12.39-3.409-.83-3.181zm5.186 19.88L3.783 143.144l.415 1.59 74.344-20.452-.415-1.59zm1.66 6.359L5.443 149.503l.415 1.59 74.344-20.452-.415-1.59zm1.66 6.362L7.104 155.866l.415 1.59 74.343-20.452-.415-1.591zm1.658 6.36L8.762 162.225l.415 1.59 74.343-20.452-.415-1.59zm-23.119 13.18l-49.562 13.635.415 1.59L60.4 156.543l-.415-1.59zm-22.781 39.928l-18.586 5.113.32 1.226 18.586-5.113-.32-1.226z" fill="#CFDBEC"/></g><g clip-path="url(#clip4)" opacity=".3"><path fill="#fff" d="M392.6-13.754h99.414v141.581H392.6z"/><path d="M406.672 96.461c1.4-1.768 2.689-4.2 4.414-5.65.776-.652-.391.764-.58 1.15a31.184 31.184 0 00-1.31 3.147c-.441 1.254-.579 2.265-.477 3.572.021.255.185.428.437.448 1.738.135.235-.099 1.866-.277.284-.118.544-.283.781-.493 1.323-.297 2.395-.042 3.22.762 1.061.316 1.173.917 2.443.852 1.629-.083 2.76-.946 4.525-.986 1.419-.03 2.845.358 4.27.397 3.375.092 6.821-.497 10.179-.778.709-.06.731-1.153 0-1.151-3.879.008-7.701.894-11.588.647-1.455-.093-2.952-.46-4.411-.2-2.322.414-3.273.67-5.608-.292-1.515-.624-1.653-.259-3.115-.26-2.983-.006-1.64-2.049-.866-4 .463-1.168.771-2.143.922-3.388.043-.36-.433-.482-.649-.276-1.607 1.524-2.821 3.55-4.141 5.326-1.342 1.804-4.996 7.739-7.747 6.848-.148-.048-.255.198-.108.264 2.808 1.254 6.169-3.927 7.543-5.662z" fill="#CFDBEC"/><path d="M492.018-15.4h-99.415c-.885 0-1.603.737-1.603 1.645v141.581c0 .909.718 1.646 1.603 1.646h99.415c.885 0 1.603-.737 1.603-1.646v-141.58c0-.91-.718-1.647-1.603-1.647zm-1.604 141.58h-96.207V-12.108h96.207V126.18z" fill="#CFDBEC"/><path d="M480.794 3.533h-12.827v1.646h12.827V3.533zm.001 6.584h-6.414v1.646h6.414v-1.646zm-38.484 18.931h-38.483v3.293h38.483v-3.293zm38.485 0h-12.827v3.293h12.827v-3.293zm-.002 20.58h-76.966v1.647h76.966v-1.647zm0 6.583h-76.966v1.647h76.966V56.21zm0 6.588h-76.966v1.646h76.966V62.8zm-.002 6.583h-76.966v1.647h76.966v-1.647zm-25.653 6.588h-51.311v1.647h51.311V75.97zm-32.069 32.513h-19.242v1.27h19.242v-1.27z" fill="#CFDBEC"/></g><g clip-path="url(#clip5)" opacity=".3"><path fill="#fff" d="M1365.65 353.151l96.026 26.418-35.69 136.756-96.026-26.417z"/><path d="M1351.46 463.35c1.8-1.336 3.65-3.342 5.69-4.285.91-.423-.57.634-.85.958-.69.79-1.48 1.822-2.06 2.69-.74 1.095-1.13 2.035-1.36 3.325-.05.252.07.462.31.548 1.64.592.25-.033 1.87.229.3-.039.59-.129.88-.27 1.35.066 2.32.597 2.91 1.592.95.588.91 1.198 2.15 1.473 1.59.352 2.9-.181 4.62.25 1.38.347 2.66 1.101 4.02 1.518 3.24.986 6.72 1.332 10.03 1.953.7.131 1-.919.29-1.112-3.75-1.023-7.66-1.183-11.35-2.454-1.39-.476-2.74-1.228-4.22-1.365-2.34-.218-3.33-.222-5.34-1.773-1.3-1.005-1.53-.689-2.94-1.079-2.88-.797-1.07-2.414.17-4.093.74-1.006 1.29-1.865 1.75-3.027.13-.337-.3-.581-.56-.44-1.94 1.045-3.62 2.68-5.34 4.044-1.76 1.386-6.78 6.148-9.21 4.556-.13-.085-.3.123-.17.226 2.39 1.958 6.94-2.153 8.71-3.464z" fill="#CFDBEC"/><path d="M1462.1 377.979l-96.03-26.418c-.86-.235-1.74.287-1.97 1.164l-35.69 136.757c-.23.878.28 1.781 1.14 2.016l96.02 26.418c.86.235 1.74-.286 1.97-1.164l35.69-136.757c.23-.878-.28-1.781-1.13-2.016zm-37.24 136.33l-92.93-25.565 34.86-133.576 92.93 25.565-34.86 133.576z" fill="#CFDBEC"/><path d="M1448.14 386.921l-12.39-3.409-.41 1.59 12.39 3.409.41-1.59zm-1.66 6.363l-12.39-3.409-.41 1.591 12.39 3.408.41-1.59zm-1.66 6.361l-6.19-1.705-.42 1.591 6.2 1.704.41-1.59zm-41.94 8.06l-37.17-10.226-.83 3.18 37.17 10.227.83-3.181zm37.17 10.227l-12.39-3.409-.83 3.18 12.39 3.409.83-3.18zm-5.19 19.878l-74.34-20.453-.42 1.591 74.35 20.452.41-1.59zm-1.66 6.359l-74.34-20.453-.42 1.59 74.35 20.453.41-1.59zm-1.66 6.362l-74.34-20.452-.42 1.59 74.35 20.452.41-1.59zm-1.66 6.359l-74.34-20.452-.42 1.59 74.35 20.452.41-1.59zm-26.44-.453l-49.56-13.635-.42 1.59 49.56 13.635.42-1.59zm-39.17 22.883l-18.59-5.113-.32 1.226 18.59 5.113.32-1.226z" fill="#CFDBEC"/></g><g clip-path="url(#clip6)" opacity=".3"><path fill="#fff" d="M507.961 464.787l96.026-26.418 35.69 136.757-96.026 26.418z"/><path d="M603.576 436.779l-96.027 26.417c-.855.235-1.362 1.143-1.131 2.029l35.684 136.73c.231.887 1.112 1.413 1.967 1.178l96.027-26.417c.855-.236 1.362-1.144 1.131-2.029l-35.684-136.732c-.231-.885-1.112-1.412-1.967-1.176zm25.011 102.198l9.13 34.984-92.929 25.566-9.13-34.985-25.73-98.591 92.929-25.566 25.73 98.592z" fill="#CFDBEC"/><path d="M552.273 462.822l-30.976 8.522.83 3.181 30.976-8.522-.83-3.181zm-15.06 18.631l-12.391 3.409.415 1.59 12.391-3.409-.415-1.59zm20.246 1.248l-30.977 8.521.415 1.591 30.977-8.522-.415-1.59zm38.387-31.012l-24.782 6.817.415 1.59 24.782-6.817-.415-1.59zm3.32 12.72l-24.781 6.818.415 1.59L599.581 466l-.415-1.591zm1.66 6.363l-24.781 6.818.415 1.59 24.781-6.818-.415-1.59zm-64.186 94.352l.3-.083a.824.824 0 00.566-1.007.8.8 0 00-.981-.582l-.3.083a.824.824 0 00-.566 1.007.8.8 0 00.981.582zm88.033-24.218l.61-.167a.826.826 0 00.566-1.008.799.799 0 00-.981-.581l-.61.167a.825.825 0 00-.566 1.008.798.798 0 00.981.581zm-66.41 18.269a.825.825 0 00.566-1.008.799.799 0 00-.981-.581l-.609.167a.827.827 0 00-.567 1.008.8.8 0 00.981.581l.61-.167zm3.047-.841a.825.825 0 00.566-1.008.799.799 0 00-.981-.581l-.609.167a.826.826 0 00-.567 1.008.8.8 0 00.981.581l.61-.167zm-6.092 1.679a.826.826 0 00.567-1.007.8.8 0 00-.982-.582l-.609.168a.826.826 0 00-.567 1.007.8.8 0 00.981.582l.61-.168zm-6.092 1.675a.827.827 0 00.567-1.008.8.8 0 00-.981-.581l-.61.168a.825.825 0 00-.567 1.007.8.8 0 00.982.582l.609-.168zm36.141-11.645l-.608.168a.824.824 0 00-.567 1.007.8.8 0 00.981.582l.608-.168a.825.825 0 00.567-1.007.8.8 0 00-.981-.582zm-20.912 7.456a.824.824 0 00.566-1.007.8.8 0 00-.981-.582l-.61.168a.826.826 0 00-.566 1.007c.114.439.554.7.981.582l.61-.168zm-12.184 3.349a.826.826 0 00.567-1.007.8.8 0 00-.981-.582l-.61.168a.826.826 0 00-.567 1.007.8.8 0 00.982.582l.609-.168zm22.779-7.117a.799.799 0 00.981.581l.608-.167a.825.825 0 00.566-1.007.8.8 0 00-.981-.582l-.608.167a.825.825 0 00-.566 1.008zm7.268-2.851l-.608.167a.826.826 0 00-.567 1.007.8.8 0 00.981.582l.609-.167a.826.826 0 00.566-1.008.799.799 0 00-.981-.581zm-14.816 5.78a.824.824 0 00.566-1.007.8.8 0 00-.981-.582l-.61.168a.825.825 0 00-.566 1.007.8.8 0 00.981.582l.61-.168zm11.165-4.774a.826.826 0 00-.567 1.007.8.8 0 00.981.582l.609-.168a.825.825 0 00.566-1.007.8.8 0 00-.981-.582l-.608.168zm-8.118 3.936a.825.825 0 00.566-1.007.8.8 0 00-.981-.582l-.61.168a.825.825 0 00-.566 1.007c.114.439.554.7.981.582l.61-.168zm3.043-.838a.824.824 0 00.566-1.007.8.8 0 00-.981-.582l-.608.168a.824.824 0 00-.566 1.007.8.8 0 00.981.582l.608-.168zm48.132-13.241l.61-.168a.824.824 0 00.566-1.007.799.799 0 00-.981-.581l-.61.167a.825.825 0 00-.566 1.008.799.799 0 00.981.581zm-27.414 7.543l.608-.168a.825.825 0 00.567-1.007.801.801 0 00-.982-.582l-.608.168a.824.824 0 00-.566 1.007.8.8 0 00.981.582zm-7.075 1.096a.8.8 0 00.981.581l.608-.167a.825.825 0 00.567-1.007.8.8 0 00-.981-.582l-.608.167a.826.826 0 00-.567 1.008zm4.028-.26l.608-.168a.825.825 0 00.567-1.007.8.8 0 00-.981-.582l-.609.168a.824.824 0 00-.566 1.007.8.8 0 00.981.582zm27.003-9.129A.824.824 0 00617.6 542a.8.8 0 00.981.582l.61-.168a.825.825 0 00.566-1.007.799.799 0 00-.981-.582l-.61.168zm-17.671 4.861l-.61.167a.825.825 0 00-.566 1.008.799.799 0 00.981.581l.61-.168a.825.825 0 00.566-1.007.799.799 0 00-.981-.581zm-61.117 18.518l.61-.168a.825.825 0 00.566-1.007.799.799 0 00-.981-.582l-.61.168a.824.824 0 00-.566 1.007.8.8 0 00.981.582zm3.045-.843l.61-.168a.825.825 0 00.566-1.007.8.8 0 00-.981-.582l-.61.168a.825.825 0 00-.566 1.008.798.798 0 00.981.581zm3.047-.834l.609-.168a.825.825 0 00.567-1.007.8.8 0 00-.981-.582l-.61.168a.824.824 0 00-.566 1.007c.114.439.552.7.981.582zm67.627-18.608a.824.824 0 00.566-1.007.8.8 0 00-.981-.582l-.609.168a.825.825 0 00-.567 1.007.8.8 0 00.981.582l.61-.168zm-9.139 2.516a.827.827 0 00.567-1.008.8.8 0 00-.981-.581l-.61.167a.827.827 0 00-.567 1.008.8.8 0 00.982.581l.609-.167zm12.184-3.351a.825.825 0 00.566-1.008.799.799 0 00-.981-.581l-.609.167a.826.826 0 00-.567 1.008.8.8 0 00.981.581l.61-.167zm-6.092 1.676a.827.827 0 00.567-1.008.8.8 0 00-.982-.581l-.609.168a.825.825 0 00-.567 1.007.8.8 0 00.981.582l.61-.168zm-3.045.837a.826.826 0 00.567-1.007.8.8 0 00-.981-.582l-.61.168a.826.826 0 00-.567 1.007.8.8 0 00.981.582l.61-.168zm-9.138 2.515a.826.826 0 00.566-1.008.799.799 0 00-.981-.581l-.61.167a.825.825 0 00-.566 1.008.799.799 0 00.981.581l.61-.167zm29.738-9.885l-.3.083a.825.825 0 00-.566 1.007.8.8 0 00.981.582l.3-.083a.824.824 0 00.566-1.007.8.8 0 00-.981-.582zm-42.371 25.29l-37.172 10.226.416 1.591 37.171-10.227-.415-1.59zm1.662 6.363l-37.171 10.226.415 1.59 37.171-10.226-.415-1.59zm1.659 6.36l-37.172 10.226.415 1.59 37.172-10.226-.415-1.59zm33.853-22.948l-18.586 5.113.415 1.59 18.586-5.113-.415-1.59zm1.849 7.086l-24.781 6.818a.511.511 0 00-.351.625l1.549 5.936a.497.497 0 00.609.361l24.781-6.818a.512.512 0 00.351-.625l-1.549-5.936a.495.495 0 00-.609-.361zm-21.413 12.253l-1.338.369-1.292-4.951 1.338-.368 1.292 4.95zm1.256-.345l-.775.213-1.291-4.95.774-.213 1.292 4.95zm3.454-.95l-2.494.686-1.292-4.951 2.494-.686 1.292 4.951zm1.564-.431l-.604.166-1.292-4.95.604-.166 1.292 4.95zm.884-.243l-.404.111-1.292-4.95.405-.111 1.291 4.95zm2.85-.784l-1.889.52-1.292-4.95 1.889-.52 1.292 4.95zm1.084-.298l-.604.166-1.292-4.95.605-.166 1.291 4.95zm1.407-.387l-.925.254-1.292-4.95.925-.254 1.292 4.95zm1.665-.458l-1.185.326-1.292-4.95 1.185-.326 1.292 4.95zm2.414-.664l-1.454.4-1.292-4.951 1.454-.4 1.292 4.951zm2.508-.69l-1.546.425-1.292-4.95 1.546-.426 1.292 4.951zm1.665-.458l-.706.194-1.292-4.95.706-.195 1.292 4.951zm1.731-.477l-.289.08-1.292-4.95.29-.08 1.291 4.95zm-62.441-37.684l-24.781 6.817.415 1.591 24.781-6.818-.415-1.59zm-1.549-5.935l-24.781 6.817.415 1.59 24.781-6.817-.415-1.59zm3.209 12.295l-24.781 6.817.415 1.591 24.781-6.818-.415-1.59zm15.377-17.408l-12.391 3.408.415 1.59 12.391-3.408-.415-1.59zm1.549 5.935l-12.391 3.409.415 1.59 12.391-3.408-.415-1.591zm1.66 6.36l-12.391 3.409.415 1.59 12.391-3.409-.415-1.59zm-16.926 11.474l-24.781 6.818.415 1.59 24.781-6.818-.415-1.59zm18.586-5.112l-12.391 3.409.415 1.59 12.391-3.408-.415-1.591zm-49.912-19.502l40.269-11.078c.855-.235 1.363-1.138 1.134-2.016l-2.49-9.541c-.229-.878-1.109-1.4-1.964-1.165l-40.269 11.079c-.855.235-1.363 1.138-1.134 2.016l2.49 9.541c.229.878 1.109 1.4 1.964 1.164zm-2.905-11.131l40.269-11.078 2.49 9.541-40.269 11.078-2.49-9.541zm52.469-2.506l21.684-5.965c.855-.235 1.362-1.139 1.133-2.016l-2.49-9.542c-.229-.877-1.108-1.399-1.963-1.164l-21.684 5.966c-.855.235-1.363 1.138-1.134 2.016l2.49 9.541c.229.878 1.109 1.399 1.964 1.164zm-2.905-11.131l21.684-5.965 2.49 9.541-21.684 5.965-2.49-9.541z" fill="#CFDBEC"/></g><g clip-path="url(#clip7)" opacity=".3"><path fill="#fff" d="M1163.6 152.573h99.414v141.581H1163.6z"/><path d="M1263.02 150.927h-99.42c-.88 0-1.6.742-1.6 1.659v141.553c0 .919.72 1.661 1.6 1.661h99.42c.88 0 1.6-.742 1.6-1.659V152.586c0-.917-.72-1.659-1.6-1.659zm-1.61 105.362v36.219h-96.2V154.219h96.2v102.07z" fill="#CFDBEC"/><path d="M1206.9 162.45h-32.07v3.293h32.07v-3.293zm-19.24 13.994h-12.83v1.647h12.83v-1.647zm19.24 6.585h-32.07v1.647h32.07v-1.647zm44.89-19.755h-25.65v1.647h25.65v-1.647zm0 13.17h-25.65v1.647h25.65v-1.647zm0 6.587h-25.65v1.647h25.65v-1.647zm-85.78 74.081h.31c.44 0 .8-.369.8-.823a.812.812 0 00-.8-.822h-.31c-.44 0-.8.368-.8.822 0 .454.36.823.8.823zm91.14.001h.63c.44 0 .8-.369.8-.823a.812.812 0 00-.8-.822h-.63c-.45 0-.8.368-.8.822 0 .454.35.823.8.823zm-68.75-.002c.44 0 .8-.368.8-.822a.813.813 0 00-.8-.823h-.64c-.44 0-.8.369-.8.823 0 .454.36.822.8.822h.64zm3.15-.003c.44 0 .8-.368.8-.822a.813.813 0 00-.8-.823h-.63c-.44 0-.8.369-.8.823 0 .454.36.822.8.822h.63zm-6.31.004c.45 0 .8-.369.8-.823a.806.806 0 00-.8-.822h-.63c-.44 0-.8.368-.8.822 0 .454.36.823.8.823h.63zm-6.3-.001c.44 0 .8-.369.8-.823a.812.812 0 00-.8-.822h-.64c-.44 0-.8.368-.8.822 0 .454.36.823.8.823h.64zm37.84-1.644h-.63c-.44 0-.8.368-.8.822 0 .454.36.823.8.823h.63c.44 0 .8-.369.8-.823a.812.812 0 00-.8-.822zm-22.08 1.645c.44 0 .8-.369.8-.823a.812.812 0 00-.8-.822h-.63c-.44 0-.8.368-.8.822 0 .454.36.823.8.823h.63zm-12.61-.002c.44 0 .8-.369.8-.823a.812.812 0 00-.8-.822h-.63c-.44 0-.8.368-.8.822 0 .454.36.823.8.823h.63zm23.8-.823c0 .454.36.823.8.823h.63c.44 0 .8-.369.8-.823a.812.812 0 00-.8-.822h-.63c-.44 0-.8.368-.8.822zm7.73-.823h-.63c-.44 0-.8.369-.8.823 0 .454.36.822.8.822h.63c.45 0 .81-.368.81-.822a.815.815 0 00-.81-.823zm-15.76 1.647c.44 0 .8-.369.8-.823a.812.812 0 00-.8-.822h-.64c-.44 0-.8.368-.8.822 0 .454.36.823.8.823h.64zm11.98-1.645c-.44 0-.8.368-.8.822 0 .454.36.823.8.823h.63c.45 0 .8-.369.8-.823a.806.806 0 00-.8-.822h-.63zm-8.83 1.645c.44 0 .8-.368.8-.822a.813.813 0 00-.8-.823h-.63c-.44 0-.8.369-.8.823 0 .454.36.822.8.822h.63zm3.15 0c.44 0 .8-.369.8-.823a.812.812 0 00-.8-.822h-.63c-.44 0-.8.368-.8.822 0 .454.36.823.8.823h.63zm49.83 0h.63c.44 0 .8-.369.8-.823a.812.812 0 00-.8-.822h-.63c-.44 0-.8.368-.8.822 0 .454.36.823.8.823zm-28.38 0h.63c.44 0 .8-.368.8-.822a.813.813 0 00-.8-.823h-.63c-.44 0-.8.369-.8.823 0 .454.36.822.8.822zm-7.11-.821c0 .454.36.822.8.822h.63c.44 0 .8-.368.8-.822a.813.813 0 00-.8-.823h-.63c-.44 0-.8.369-.8.823zm3.96.819h.63c.44 0 .8-.368.8-.822a.813.813 0 00-.8-.823h-.63c-.45 0-.81.369-.81.823 0 .454.36.822.81.822zm28.38-1.642c-.44 0-.8.368-.8.822 0 .454.36.823.8.823h.63c.44 0 .8-.369.8-.823a.812.812 0 00-.8-.822h-.63zm-18.29 0h-.63c-.45 0-.8.368-.8.822 0 .454.35.823.8.823h.63c.44 0 .8-.369.8-.823a.812.812 0 00-.8-.822zm-63.71 1.646h.63c.45 0 .8-.369.8-.823a.806.806 0 00-.8-.822h-.63c-.44 0-.8.368-.8.822 0 .454.36.823.8.823zm3.16-.005h.63c.44 0 .8-.368.8-.822a.813.813 0 00-.8-.823h-.63c-.44 0-.8.369-.8.823 0 .454.35.822.8.822zm3.15.004h.63c.44 0 .8-.369.8-.823a.812.812 0 00-.8-.822h-.63c-.44 0-.8.368-.8.822 0 .454.36.823.8.823zm70.01-.003c.45 0 .81-.369.81-.823a.814.814 0 00-.81-.822h-.63c-.44 0-.8.368-.8.822 0 .454.36.823.8.823h.63zm-9.46.001c.44 0 .8-.368.8-.822a.813.813 0 00-.8-.823h-.63c-.44 0-.8.369-.8.823 0 .454.36.822.8.822h.63zm12.62.001c.44 0 .8-.369.8-.823a.812.812 0 00-.8-.822h-.64c-.44 0-.8.368-.8.822 0 .454.36.823.8.823h.64zm-6.31 0c.44 0 .8-.368.8-.822a.813.813 0 00-.8-.823h-.63c-.44 0-.8.369-.8.823 0 .454.36.822.8.822h.63zm-3.15 0c.44 0 .8-.369.8-.823a.812.812 0 00-.8-.822h-.64c-.44 0-.8.368-.8.822 0 .454.36.823.8.823h.64zm-9.46 0c.44 0 .8-.368.8-.822a.813.813 0 00-.8-.823h-.64c-.44 0-.8.369-.8.823 0 .454.36.822.8.822h.64zm31.21-1.644h-.31c-.44 0-.8.368-.8.822 0 .454.36.823.8.823h.31c.45 0 .8-.369.8-.823a.806.806 0 00-.8-.822zm-47.3 13.168h-38.48v1.647h38.48v-1.647zm0 6.588h-38.48v1.646h38.48v-1.646zm0 6.583h-38.48v1.647h38.48v-1.647zm38.48-13.169h-19.24v1.646h19.24v-1.646zm0 7.336h-25.65a.51.51 0 00-.5.51v6.146c0 .281.23.51.5.51h25.65c.28 0 .5-.229.5-.51v-6.146c0-.283-.22-.51-.5-.51zm-23.77 6.145h-1.38v-5.124h1.38v5.124zm1.3 0h-.8v-5.124h.8v5.124zm3.58 0h-2.58v-5.124h2.58v5.124zm1.62 0h-.63v-5.124h.63v5.124zm.91 0h-.42v-5.124h.42v5.124zm2.95 0h-1.95v-5.124h1.95v5.124zm1.13 0h-.63v-5.124h.63v5.124zm1.45 0h-.96v-5.124h.96v5.124zm1.73 0h-1.23v-5.124h1.23v5.124zm2.5 0h-1.51v-5.124h1.51v5.124zm2.59 0h-1.6v-5.124h1.6v5.124zm1.73 0h-.74v-5.124h.74v5.124zm1.79 0h-.3v-5.124h.3v5.124zm-50.82-52.993h-25.65v1.647h25.65v-1.647zm0-6.144h-25.65v1.646h25.65v-1.646zm0 12.728h-25.65v1.647h25.65v-1.647zm19.25-12.729h-12.83v1.647h12.83v-1.647zm-.01 6.145h-12.82v1.647h12.82v-1.647zm.01 6.585h-12.83v1.646h12.83v-1.646zm-19.25 6.585h-25.65v1.646h25.65v-1.646zm19.24.001h-12.82v1.647h12.82v-1.647zm-43.29-32.1h41.69c.88 0 1.6-.738 1.6-1.647v-9.877c0-.909-.72-1.647-1.6-1.647h-41.69c-.89 0-1.6.738-1.6 1.647v9.877c0 .909.71 1.647 1.6 1.647zm0-11.524h41.69v9.877h-41.69v-9.877zm51.31 11.523h22.45c.89 0 1.61-.737 1.61-1.646v-9.878c0-.909-.72-1.646-1.61-1.646h-22.45c-.88 0-1.6.737-1.6 1.646v9.878c0 .909.72 1.646 1.6 1.646zm0-11.524h22.45v9.878h-22.45v-9.878z" fill="#CFDBEC"/></g><g clip-path="url(#clip8)" opacity=".3"><path fill="#fff" d="M109.652 479.436l96.026 26.418-35.69 136.756-96.026-26.417z"/><path d="M206.095 504.264l-96.027-26.417c-.855-.235-1.736.291-1.967 1.177L72.418 615.753c-.232.887.275 1.795 1.13 2.031l96.027 26.417c.855.235 1.736-.291 1.967-1.177l35.684-136.731c.231-.885-.276-1.793-1.131-2.029zm-28.109 101.347l-9.13 34.984-92.93-25.566 9.13-34.984 25.731-98.592 92.929 25.566-25.73 98.592z" fill="#CFDBEC"/><path d="M148.982 500.482l-30.976-8.522-.83 3.181 30.976 8.522.83-3.181zm-22.115 8.404l-12.39-3.408-.415 1.59 12.39 3.408.415-1.59zm16.926 11.473l-30.977-8.521-.415 1.59 30.977 8.522.415-1.591zm48.348-7.15l-24.782-6.818-.415 1.591 24.782 6.817.415-1.59zm-3.321 12.721l-24.781-6.818-.415 1.59 24.781 6.818.415-1.59zm-1.66 6.363l-24.781-6.818-.415 1.591 24.781 6.817.415-1.59zm-101.537 48.76l.3.082a.8.8 0 00.981-.581.826.826 0 00-.566-1.008l-.3-.082a.8.8 0 00-.982.581c-.114.439.14.89.567 1.008zm88.035 24.218l.61.168a.8.8 0 00.981-.582.826.826 0 00-.567-1.007l-.609-.168a.8.8 0 00-.982.582.825.825 0 00.567 1.007zm-66.41-18.27a.799.799 0 00.981-.582.825.825 0 00-.566-1.007l-.61-.168a.8.8 0 00-.981.582.825.825 0 00.566 1.007l.61.168zm3.047.835a.799.799 0 00.981-.581.825.825 0 00-.566-1.008l-.61-.167a.799.799 0 00-.981.581.824.824 0 00.566 1.007l.61.168zm-6.092-1.672a.8.8 0 00.981-.582.824.824 0 00-.566-1.007l-.61-.168a.8.8 0 00-.981.582.825.825 0 00.566 1.007l.61.168zm-6.093-1.678a.8.8 0 00.98-.582.825.825 0 00-.566-1.007l-.61-.168a.8.8 0 00-.98.582.824.824 0 00.566 1.007l.61.168zm36.969 8.469l-.608-.167a.799.799 0 00-.981.581.825.825 0 00.566 1.008l.609.167a.8.8 0 00.981-.582.826.826 0 00-.567-1.007zm-21.741-4.278a.799.799 0 00.981-.582.825.825 0 00-.566-1.007l-.61-.168a.8.8 0 00-.981.582.824.824 0 00.566 1.007l.61.168zm-12.182-3.353a.8.8 0 00.981-.582.824.824 0 00-.566-1.007l-.61-.168a.799.799 0 00-.98.581.825.825 0 00.566 1.008l.609.168zm23.193 5.529c-.114.439.14.89.567 1.007l.608.168a.8.8 0 00.981-.582.824.824 0 00-.566-1.007l-.609-.168a.8.8 0 00-.981.582zm7.683 1.262l-.608-.168a.8.8 0 00-.981.582.825.825 0 00.567 1.007l.608.167a.8.8 0 00.981-.581.825.825 0 00-.567-1.007zm-15.645-2.6a.8.8 0 00.981-.582.825.825 0 00-.567-1.007l-.609-.168a.8.8 0 00-.981.582.825.825 0 00.566 1.007l.61.168zm11.992 1.596a.8.8 0 00-.981.582.825.825 0 00.567 1.007l.608.168a.8.8 0 00.981-.582.824.824 0 00-.567-1.007l-.608-.168zm-8.945-.758a.8.8 0 00.981-.581.827.827 0 00-.567-1.008l-.609-.167a.798.798 0 00-.981.581.825.825 0 00.566 1.008l.61.167zm3.043.837a.799.799 0 00.981-.581.825.825 0 00-.566-1.008l-.608-.167a.8.8 0 00-.982.582.826.826 0 00.567 1.007l.608.167zm48.13 13.241l.61.168a.799.799 0 00.981-.581.825.825 0 00-.566-1.008l-.61-.167a.799.799 0 00-.981.581.824.824 0 00.566 1.007zm-27.414-7.541l.608.167a.799.799 0 00.981-.581.824.824 0 00-.566-1.007l-.608-.168a.8.8 0 00-.981.582.824.824 0 00.566 1.007zm-6.66-2.682a.825.825 0 00.566 1.007l.609.167a.8.8 0 00.981-.581.827.827 0 00-.567-1.008l-.608-.167a.799.799 0 00-.981.582zm3.615 1.842l.608.167a.798.798 0 00.981-.581.825.825 0 00-.566-1.008l-.608-.167a.799.799 0 00-.981.581.825.825 0 00.566 1.008zm27.831 5.957a.799.799 0 00-.981.581.824.824 0 00.566 1.007l.61.168a.799.799 0 00.981-.581.825.825 0 00-.566-1.008l-.61-.167zm-17.67-4.862l-.609-.168a.8.8 0 00-.982.582c-.114.438.14.89.567 1.007l.61.168a.8.8 0 00.981-.582.826.826 0 00-.567-1.007zm-61.948-15.338l.61.167a.8.8 0 00.98-.581.826.826 0 00-.566-1.008l-.61-.167a.8.8 0 00-.98.581.825.825 0 00.566 1.008zm3.049.834l.61.167a.8.8 0 00.98-.581.826.826 0 00-.566-1.008l-.61-.167a.8.8 0 00-.98.581.825.825 0 00.566 1.008zm3.045.841l.61.168a.8.8 0 00.98-.582.825.825 0 00-.566-1.007l-.61-.168a.8.8 0 00-.98.582.824.824 0 00.566 1.007zm67.627 18.602a.799.799 0 00.981-.581.825.825 0 00-.566-1.008l-.61-.167a.799.799 0 00-.981.581.825.825 0 00.566 1.008l.61.167zm-9.139-2.513a.8.8 0 00.982-.582.826.826 0 00-.567-1.007l-.61-.168a.8.8 0 00-.981.582c-.114.438.14.89.567 1.007l.609.168zm12.184 3.352a.799.799 0 00.981-.581.825.825 0 00-.566-1.008l-.61-.167a.799.799 0 00-.981.581.825.825 0 00.566 1.008l.61.167zm-6.092-1.675a.799.799 0 00.981-.581.825.825 0 00-.566-1.008l-.61-.168a.8.8 0 00-.981.582.824.824 0 00.567 1.007l.609.168zm-3.045-.838a.8.8 0 00.981-.582.825.825 0 00-.566-1.007l-.61-.168a.8.8 0 00-.981.582.825.825 0 00.567 1.007l.609.168zm-9.14-2.514a.8.8 0 00.981-.582.825.825 0 00-.567-1.007l-.609-.168a.8.8 0 00-.981.582.824.824 0 00.566 1.007l.61.168zm30.57 6.707l-.301-.083a.8.8 0 00-.981.582c-.114.439.14.89.567 1.007l.3.083a.8.8 0 00.981-.582.825.825 0 00-.566-1.007zm-49.01.15l-37.172-10.226-.415 1.59 37.172 10.226.415-1.59zm-1.66 6.364l-37.172-10.226-.415 1.59 37.172 10.226.415-1.59zm-1.662 6.358l-37.172-10.226-.415 1.59 37.172 10.226.415-1.59zm40.494-2.494l-18.586-5.113-.415 1.59 18.586 5.113.415-1.59zm-39.604-51.8l-24.781-6.818-.415 1.59 24.781 6.818.415-1.59zm1.551-5.935l-24.781-6.818-.415 1.591 24.781 6.817.415-1.59zm-3.211 12.295l-24.78-6.818-.416 1.591 24.781 6.817.415-1.59zm21.797-7.182l-12.39-3.409-.415 1.59 12.39 3.409.415-1.59zm-1.551 5.935l-12.39-3.409-.415 1.591 12.39 3.408.415-1.59zm-1.658 6.361l-12.39-3.409-.415 1.59 12.39 3.409.415-1.59zm-20.248 1.247l-24.781-6.818-.415 1.591 24.781 6.817.415-1.59zm18.586 5.114l-12.39-3.409-.415 1.59 12.39 3.409.415-1.59zm-33.728-42.512l40.269 11.078c.855.235 1.735-.286 1.964-1.164l2.49-9.541c.229-.878-.279-1.781-1.134-2.016l-40.269-11.079c-.855-.235-1.735.287-1.964 1.164l-2.49 9.542c-.229.877.279 1.781 1.134 2.016zm2.905-11.132l40.269 11.079-2.49 9.541-40.269-11.078 2.49-9.542zm46.661 24.768l21.684 5.965c.855.235 1.735-.286 1.964-1.164l2.49-9.541c.229-.878-.279-1.781-1.134-2.017l-21.684-5.965c-.855-.235-1.734.286-1.963 1.164l-2.491 9.541c-.229.878.279 1.781 1.134 2.017zm2.905-11.132l21.684 5.966-2.49 9.541-21.684-5.966 2.49-9.541z" fill="#CFDBEC"/></g><defs><clipPath id="clip0"><path fill="#fff" transform="matrix(.96418 -.26525 .25252 .9676 973 518.038)" d="M0 0h102.807v144.624H0z"/></clipPath><clipPath id="clip1"><path fill="#fff" transform="translate(289 297.746)" d="M0 0h102.621v144.873H0z"/></clipPath><clipPath id="clip2"><path fill="#fff" transform="matrix(.96418 .26525 -.25252 .9676 933.52 -27.721)" d="M0 0h102.807v144.624H0z"/></clipPath><clipPath id="clip3"><path fill="#fff" transform="matrix(.96418 -.26525 .25252 .9676 -25 83.74)" d="M0 0h102.807v144.624H0z"/></clipPath><clipPath id="clip4"><path fill="#fff" transform="translate(391 -15.4)" d="M0 0h102.621v144.873H0z"/></clipPath><clipPath id="clip5"><path fill="#fff" transform="matrix(.96418 .26525 -.25252 .9676 1364.52 351.135)" d="M0 0h102.807v144.624H0z"/></clipPath><clipPath id="clip6"><path fill="#fff" transform="matrix(.96418 -.26525 .25252 .9676 506 463.622)" d="M0 0h102.807v144.624H0z"/></clipPath><clipPath id="clip7"><path fill="#fff" transform="translate(1162 150.927)" d="M0 0h102.621v144.873H0z"/></clipPath><clipPath id="clip8"><path fill="#fff" transform="matrix(.96418 .26525 -.25252 .9676 108.52 477.421)" d="M0 0h102.807v144.624H0z"/></clipPath></defs></svg>