<svg width="142" height="99" fill="none" xmlns="http://www.w3.org/2000/svg"><mask id="a" fill="#fff"><path fill-rule="evenodd" clip-rule="evenodd" d="M120.376 78.003H87.332a29.393 29.393 0 01-.265 0H14.585C6.53 78.002 0 71.471 0 63.415 0 55.36 6.53 48.83 14.586 48.83c1.33 0 2.619.178 3.843.511a28.032 28.032 0 01-.038-1.462c0-15.236 12.351-27.587 27.587-27.587 2.264 0 4.465.273 6.572.788C59.04 8.557 72.12 0 87.2 0c20.841 0 37.865 16.348 38.946 36.92 8.812 2.467 15.275 10.557 15.275 20.156 0 11.346-9.029 20.583-20.295 20.918v.009h-.516a15.21 15.21 0 01-.234 0z"/></mask><path fill-rule="evenodd" clip-rule="evenodd" d="M120.376 78.003H87.332a29.393 29.393 0 01-.265 0H14.585C6.53 78.002 0 71.471 0 63.415 0 55.36 6.53 48.83 14.586 48.83c1.33 0 2.619.178 3.843.511a28.032 28.032 0 01-.038-1.462c0-15.236 12.351-27.587 27.587-27.587 2.264 0 4.465.273 6.572.788C59.04 8.557 72.12 0 87.2 0c20.841 0 37.865 16.348 38.946 36.92 8.812 2.467 15.275 10.557 15.275 20.156 0 11.346-9.029 20.583-20.295 20.918v.009h-.516a15.21 15.21 0 01-.234 0z" fill="#E6EBF8"/><path d="M120.376 78.003l.012-2.1h-.012v2.1zm-33.044 0v-2.1h-.007l.007 2.1zm-.265 0l.007-2.1h-.007v2.1zm-72.482 0h-2.1v2.1h2.1v-2.1zm0 0h2.1v-2.1h-2.1v2.1zm3.844-28.66l-.552 2.025 2.8.763-.15-2.898-2.098.11zM52.55 21.08l-.498 2.04 1.604.392.76-1.466-1.865-.966zm73.597 15.84l-2.097.11.079 1.505 1.452.407.566-2.023zm-5.02 41.073l-.062-2.1-2.038.061v2.039h2.1zm0 .009v2.1h2.1v-2.1h-2.1zm-.516 0v-2.1h-.011l.011 2.1zm-.234-2.1H87.332v4.2h33.044v-4.2zm-33.05 0H87.2v4.2h.14l-.014-4.2zm-.127 0h-.126l-.013 4.2h.14v-4.2zm-.132 0H14.585v4.2h72.482v-4.2zm-70.382 2.1h-4.2 4.2zm-2.1-2.1C7.69 75.903 2.1 70.313 2.1 63.416h-4.2c0 9.216 7.47 16.686 16.685 16.687v-4.2zM2.1 63.416c0-6.895 5.59-12.485 12.486-12.485v-4.2C5.371 46.73-2.1 54.2-2.1 63.416h4.2zm12.486-12.485a12.5 12.5 0 013.291.437l1.104-4.052a16.704 16.704 0 00-4.395-.585v4.2zm5.94-1.698a25.929 25.929 0 01-.035-1.353h-4.2c0 .527.014 1.051.041 1.572l4.194-.22zm-.035-1.353c0-14.076 11.41-25.487 25.487-25.487v-4.2c-16.396 0-29.687 13.291-29.687 29.687h4.2zm25.487-25.487c2.095 0 4.129.253 6.073.728l.997-4.08a29.754 29.754 0 00-7.07-.848v4.2zm8.436-.346C60.558 10.193 72.935 2.1 87.2 2.1v-4.2c-15.894 0-29.677 9.022-36.514 22.215l3.73 1.932zM87.2 2.1c19.719 0 35.827 15.468 36.85 34.93l4.195-.22C127.105 15.128 109.165-2.1 87.2-2.1v4.2zm38.381 36.843c7.929 2.219 13.741 9.5 13.741 18.133h4.2c0-10.566-7.114-19.464-16.809-22.178l-1.132 4.045zm13.741 18.133c0 10.207-8.123 18.518-18.257 18.819l.125 4.198c12.397-.368 22.332-10.532 22.332-23.017h-4.2zm-20.295 20.918v.009h4.2v-.009h-4.2zm2.1-2.091h-.516v4.2h.516v-4.2zm-.527 0h-.106v4.2h.129l-.023-4.2zm-.106 0h-.105l-.023 4.2h.128v-4.2z" fill="#007AFF" mask="url(#a)"/><path d="M108.614 94.263a7.95 7.95 0 01-9.39 0l-10.31-7.546a7.95 7.95 0 01-3.222-5.695L84.117 63.72a7.95 7.95 0 014.709-7.994l11.885-5.243a7.95 7.95 0 016.417 0l11.885 5.243a7.95 7.95 0 014.709 7.994l-1.575 17.302a7.953 7.953 0 01-3.222 5.695l-10.311 7.546z" fill="#fff" stroke="#007AFF" stroke-width="2.1"/><rect x="97.17" y="70.5" width="13.5" height="11.25" rx="1.5" stroke="#007AFF" stroke-width="2.1"/><path d="M100.648 71.046V66.77c0-.98.634-1.858 1.594-2.058.556-.117 1.168-.212 1.679-.212.511 0 1.123.095 1.679.212.96.2 1.594 1.078 1.594 2.058v4.276" stroke="#007AFF" stroke-width="2.1"/><path d="M87.42 8.695s7.436-1.09 16.016 4.683c8.579 5.773 10.371 13.073 10.371 13.073" stroke="#007AFF" stroke-width="1.875" stroke-linecap="round" stroke-linejoin="round"/></svg>