<svg width="110" height="101" fill="none" xmlns="http://www.w3.org/2000/svg"><path d="M73.096 48.24v19.05h6.927c3.82 0 6.927-3.12 6.927-6.99V44.22c0-23.803-19.228-43.17-42.825-43.17S1.3 20.417 1.3 44.22V60.3c0 3.87 3.107 6.99 6.927 6.99h6.928V48.24c0-3.795-2.998-6.856-6.725-6.967l-1.135-.034.122-1.129C9.441 21.454 25.045 6.99 44.125 6.99s34.684 14.464 36.708 33.12l.122 1.13-1.135.033c-3.727.11-6.724 3.172-6.724 6.967z" fill="#E6EBF8" stroke="#007AFF" stroke-width="2.1"/><path d="M10 75v0c0 8.284 6.716 15 15 15h15.75" stroke="#007AFF" stroke-width="2.1" stroke-linecap="round"/><rect x="34.3" y="86.55" width="15.9" height="6.9" rx="3.45" fill="#E6EBF8" stroke="#007AFF" stroke-width="2.1"/><circle cx="85.375" cy="76.125" r="22.875" fill="#fff" stroke="#007AFF" stroke-width="2.1"/><path d="M72.751 81.5h2.285v-2.633h1.581c2.01 0 3.306-1.233 3.306-3.157v-.012c0-1.924-1.295-3.181-3.306-3.181h-3.866V81.5zm3.318-7.234c.971 0 1.544.498 1.544 1.432v.012c0 .934-.573 1.438-1.544 1.438h-1.033v-2.882h1.033zm5.535 7.234h2.284v-3.144h1.183L86.61 81.5h2.565l-1.793-3.48c.971-.43 1.525-1.432 1.525-2.528v-.012c0-1.855-1.189-2.964-3.399-2.964h-3.903V81.5zm2.284-4.707v-2.552h1.352c.821 0 1.338.51 1.338 1.27v.012c0 .779-.504 1.27-1.326 1.27h-1.364zm10.852 4.95c2.702 0 4.426-1.812 4.426-4.732V77c0-2.914-1.73-4.725-4.426-4.725-2.702 0-4.433 1.811-4.433 4.725v.012c0 2.92 1.718 4.732 4.433 4.732zm0-1.893c-1.276 0-2.11-1.108-2.11-2.839V77c0-1.725.846-2.833 2.11-2.833 1.257 0 2.098 1.108 2.098 2.833v.012c0 1.731-.84 2.84-2.098 2.84z" fill="#007AFF"/></svg>