<svg width="193" height="395" fill="none" xmlns="http://www.w3.org/2000/svg"><path fill-rule="evenodd" clip-rule="evenodd" d="M25.214 0C11.289 0 0 11.336 0 25.32v344.36C0 383.664 11.289 395 25.214 395H166.41c13.925 0 25.214-11.336 25.214-25.32V25.32C191.624 11.336 180.335 0 166.41 0H25.214zM12.689 16.77c-3.065 4.236-3.065 10.278-3.065 22.362V356.33c0 12.084 0 18.126 3.065 22.362a16.058 16.058 0 003.55 3.564c4.217 3.078 10.234 3.078 22.267 3.078h114.608c12.033 0 18.049 0 22.267-3.078a16.068 16.068 0 003.55-3.564c3.064-4.236 3.064-10.278 3.064-22.362V39.132c0-12.084 0-18.126-3.064-22.361a16.092 16.092 0 00-3.55-3.565c-4.218-3.077-10.234-3.077-22.267-3.077H38.506c-12.033 0-18.05 0-22.268 3.077a16.083 16.083 0 00-3.55 3.565z" fill="#3A4245"/><path fill-rule="evenodd" clip-rule="evenodd" d="M25.213 1.842c-12.912 0-23.38 10.512-23.38 23.48V369.68c0 12.967 10.468 23.479 23.38 23.479H166.41c12.913 0 23.38-10.512 23.38-23.479V25.321c0-12.967-10.467-23.479-23.38-23.479H25.213zM12.69 16.771c-3.064 4.235-3.064 10.277-3.064 22.361V356.33c0 12.084 0 18.126 3.064 22.362a16.058 16.058 0 003.55 3.564c4.217 3.078 10.234 3.078 22.267 3.078h114.608c12.033 0 18.049 0 22.267-3.078a16.068 16.068 0 003.55-3.564c3.064-4.236 3.064-10.278 3.064-22.362V39.132c0-12.084 0-18.126-3.064-22.361a16.092 16.092 0 00-3.55-3.565c-4.218-3.077-10.234-3.077-22.267-3.077H38.506c-12.033 0-18.05 0-22.267 3.077a16.083 16.083 0 00-3.55 3.565z" fill="#121515"/><path d="M191.625 149.161h.458c.507 0 .917.682.917 1.523v51.279c0 .841-.41 1.522-.917 1.522h-.458v-54.324zm0-54.784h.458c.507 0 .917.682.917 1.523v24.116c0 .841-.41 1.523-.917 1.523h-.458V94.377z" fill="#121515"/><ellipse cx="21.776" cy="22.329" rx="6.189" ry="6.215" fill="#121515"/><path fill-rule="evenodd" clip-rule="evenodd" d="M21.772 26.702c2.405 0 4.355-1.958 4.355-4.374 0-2.415-1.95-4.373-4.355-4.373-2.405 0-4.355 1.958-4.355 4.373 0 2.416 1.95 4.374 4.355 4.374z" fill="#262C2D"/><path fill-rule="evenodd" clip-rule="evenodd" d="M21.772 25.062a2.728 2.728 0 002.722-2.734 2.728 2.728 0 00-2.722-2.733 2.728 2.728 0 00-2.722 2.733 2.728 2.728 0 002.722 2.734z" fill="#121515"/><path opacity=".4" fill-rule="evenodd" clip-rule="evenodd" d="M21.772 21.782a.546.546 0 10-.002-1.091.546.546 0 00.002 1.09z" fill="#636F73"/></svg>