<svg width="23" height="22" fill="none" xmlns="http://www.w3.org/2000/svg"><path d="M10.367 1.26c.373-1.074 1.893-1.074 2.266 0l1.884 5.42a1.2 1.2 0 001.11.807l5.736.116c1.138.024 1.607 1.47.7 2.156l-4.572 3.467a1.2 1.2 0 00-.423 1.304l1.661 5.492c.33 1.089-.9 1.982-1.834 1.332l-4.71-3.277a1.2 1.2 0 00-1.37 0l-4.71 3.277c-.934.65-2.164-.243-1.834-1.332l1.661-5.492a1.2 1.2 0 00-.423-1.304L.936 9.759c-.906-.687-.437-2.132.7-2.156l5.738-.116a1.2 1.2 0 001.109-.806l1.883-5.42z" fill="orange"/></svg>