<svg width="44" height="44" fill="none" xmlns="http://www.w3.org/2000/svg"><path d="M35.657.515a7.988 7.988 0 00-5.684 2.352L15.4 17.447a13.209 13.209 0 00-3.899 9.409v5.859h5.86a13.21 13.21 0 009.407-3.9l14.581-14.573A8.036 8.036 0 0035.658.515zm2.716 10.752L23.8 25.847a9.043 9.043 0 01-6.44 2.668H15.7v-1.66a9.042 9.042 0 012.667-6.432L32.948 5.842a3.843 3.843 0 015.432 5.432l-.007-.007z" fill="#007AFF"/><path d="M8 43.915h22.4a7.7 7.7 0 007.7-7.7v-6.3h-4.2v6.3a3.5 3.5 0 01-3.5 3.5H8a3.5 3.5 0 01-3.5-3.5v-22.4a3.5 3.5 0 013.5-3.5h6.3v-4.2H8a7.7 7.7 0 00-7.7 7.7v22.4a7.7 7.7 0 007.7 7.7z" fill="#007AFF"/></svg>