<svg width="42" height="40" fill="none" xmlns="http://www.w3.org/2000/svg"><path d="M41.111 15.224a4.2 4.2 0 00-3.367-2.856l-8.946-1.344-4.039-8.085a4.2 4.2 0 00-7.51 0l-4.047 8.085-8.939 1.344a4.2 4.2 0 00-2.324 7.147l6.356 6.265-1.519 9.135a4.2 4.2 0 006.076 4.417l8.141-4.2 8.141 4.2a4.2 4.2 0 006.09-4.417l-1.519-9.135 6.356-6.265a4.2 4.2 0 001.05-4.291zm-11.9 9.1l1.87 11.29L21 30.387l-10.08 5.229 1.875-11.298L4.9 16.519l11.095-1.673L21 4.815l5.02 10.038 11.08 1.666-7.889 7.805z" fill="#007AFF"/></svg>