<svg width="44" height="44" fill="none" xmlns="http://www.w3.org/2000/svg"><path d="M8 43.67h28a7.718 7.718 0 005.446-2.246 7.65 7.65 0 002.255-5.421V8.123a7.65 7.65 0 00-2.255-5.42A7.717 7.717 0 0036 .457H8c-2.042 0-4 .808-5.445 2.246A7.65 7.65 0 00.3 8.123v27.88a7.65 7.65 0 002.255 5.42A7.717 7.717 0 008 43.669zM4.5 8.123c0-.924.37-1.81 1.026-2.464A3.508 3.508 0 018 4.64h28c.928 0 1.818.366 2.475 1.02A3.478 3.478 0 0139.5 8.124v27.879a3.48 3.48 0 01-1.025 2.464A3.508 3.508 0 0136 39.487H8a3.508 3.508 0 01-2.475-1.02A3.477 3.477 0 014.5 36.003V8.123z" fill="#007AFF"/><path d="M22.001 35.306c2.63 0 5.202-.777 7.39-2.232a13.256 13.256 0 004.898-5.943 13.19 13.19 0 00.757-7.651 13.225 13.225 0 00-3.64-6.78 13.318 13.318 0 00-6.81-3.625 13.354 13.354 0 00-7.684.754 13.287 13.287 0 00-5.97 4.877 13.202 13.202 0 001.655 16.721A13.329 13.329 0 0022 35.306zm0-22.303a9.06 9.06 0 014.767 1.359l-6.335 6.307 2.968 2.955 6.335-6.307a9.03 9.03 0 01-1.187 11.021 9.133 9.133 0 01-11.012 1.63 9.074 9.074 0 01-3.927-4.36 9.024 9.024 0 01-.428-5.841 9.058 9.058 0 013.25-4.882 9.125 9.125 0 015.57-1.882z" fill="#007AFF"/></svg>