<svg width="38" height="44" fill="none" xmlns="http://www.w3.org/2000/svg"><path d="M26.35 29.32l-1.05.595v14h4.2V32.3a18.956 18.956 0 008.4-15.687 18.76 18.76 0 00-7.286-14.889 5.04 5.04 0 00-5.313-.574 4.9 4.9 0 00-2.8 4.445v8.219a.7.7 0 01-.7.7h-5.6a.7.7 0 01-.7-.7V5.61a4.9 4.9 0 00-2.8-4.452 5.04 5.04 0 00-5.341.567A18.9 18.9 0 00.458 20.478 18.704 18.704 0 008.5 32.35v11.564h4.2V29.97l-1.05-.608A14.546 14.546 0 014.6 19.66 14.756 14.756 0 019.97 5.036a.84.84 0 01.917-.112.7.7 0 01.413.7v8.19a4.9 4.9 0 004.9 4.9h5.6a4.9 4.9 0 004.9-4.9V5.597a.7.7 0 01.413-.7.847.847 0 01.924.112A14.595 14.595 0 0133.7 16.615a14.75 14.75 0 01-7.35 12.705z" fill="#007AFF"/></svg>