<svg width="43" height="43" fill="none" xmlns="http://www.w3.org/2000/svg"><path d="M27.733 3.899L26.2 5.432l-4.326-4.326a2.8 2.8 0 00-3.906 0l-2.905 2.891a9.1 9.1 0 00-2.555 4.9 2.8 2.8 0 00-2.933.623L6.67 12.411a9.19 9.19 0 000 13.02l3.99 3.99-9.744 9.695 2.968 2.968 9.716-9.716 4.004 4.032a9.1 9.1 0 006.496 2.667 9.101 9.101 0 006.503-2.709l2.891-2.905a2.8 2.8 0 00.623-2.933 9.1 9.1 0 004.9-2.555l2.891-2.905a2.8 2.8 0 000-3.906l-4.34-4.354 1.533-1.533A13.21 13.21 0 0043 5.86V0h-5.859a13.209 13.209 0 00-9.408 3.9zM18.024 7L19.9 5.09l3.997 4.01a4.998 4.998 0 010 7.063l-2.94 2.94a9.1 9.1 0 00-2.457-4.606l-.455-.455a5 5 0 010-7.07L18.024 7zM8.147 18.9a4.956 4.956 0 011.47-3.5l1.883-1.91 3.997 4.01a4.998 4.998 0 010 7.063l-1.897 1.87-3.99-3.99A4.964 4.964 0 018.147 18.9zm19.495 14.49a4.963 4.963 0 01-3.5 1.47 4.964 4.964 0 01-3.5-1.463l-4.06-3.997 1.918-1.883a5.005 5.005 0 017.063 0l3.969 3.983-1.89 1.89zm8.4-8.4a4.998 4.998 0 01-7.07 0l-.455-.455a9.099 9.099 0 00-4.585-2.478l2.968-2.94a5.005 5.005 0 017.063 0l3.969 3.983-1.89 1.89zM38.8 5.86a9.042 9.042 0 01-2.667 6.432l-1.967 1.967a9.233 9.233 0 00-4.648-.763 9.155 9.155 0 00-.777-4.676l1.96-1.96a9.044 9.044 0 016.44-2.66H38.8v1.66z" fill="#CFDBEC"/></svg>