<svg width="42" height="42" fill="none" xmlns="http://www.w3.org/2000/svg"><path d="M12.25 25.2a2.45 2.45 0 100-4.9 2.45 2.45 0 000 4.9zm17.5 0a2.45 2.45 0 100-4.9 2.45 2.45 0 000 4.9z" fill="#CFDBEC"/><path d="M4.9 41.3h4.2a4.9 4.9 0 004.9-4.9v-.7h14v.7a4.9 4.9 0 004.9 4.9h4.2a4.9 4.9 0 004.9-4.9V23.569a18.998 18.998 0 00-1.995-8.449L32.795.7H9.205l-7.21 14.413A19.005 19.005 0 000 23.569V36.4a4.9 4.9 0 004.9 4.9zm-.7-17.731a14.777 14.777 0 011.554-6.573L11.795 4.9h18.41l6.048 12.089a14.778 14.778 0 011.547 6.58V36.4a.7.7 0 01-.7.7h-4.2a.7.7 0 01-.7-.7v-4.9H9.8v4.9a.7.7 0 01-.7.7H4.9a.7.7 0 01-.7-.7V23.569z" fill="#CFDBEC"/></svg>