<svg width="38" height="44" fill="none" xmlns="http://www.w3.org/2000/svg"><path d="M26.35 29.105l-1.05.595v14h4.2V32.087A18.956 18.956 0 0037.9 16.4a18.76 18.76 0 00-7.286-14.889A5.04 5.04 0 0025.3.937a4.9 4.9 0 00-2.8 4.445V13.6a.7.7 0 01-.7.7h-5.6a.7.7 0 01-.7-.7V5.396A4.9 4.9 0 0012.7.944a5.04 5.04 0 00-5.341.567A18.9 18.9 0 00.458 20.264 18.703 18.703 0 008.5 32.136V43.7h4.2V29.756l-1.05-.609a14.547 14.547 0 01-7.05-9.702A14.756 14.756 0 019.97 4.822a.84.84 0 01.917-.112.7.7 0 01.413.7v8.19a4.9 4.9 0 004.9 4.9h5.6a4.9 4.9 0 004.9-4.9V5.382a.7.7 0 01.413-.7.847.847 0 01.924.112A14.596 14.596 0 0133.7 16.4a14.75 14.75 0 01-7.35 12.705z" fill="#CFDBEC"/></svg>