<svg width="244" height="199" fill="none" xmlns="http://www.w3.org/2000/svg"><g clip-path="url(#clip0)"><path fill="#fff" d="M1.862 61.317l97.814-17.766 24.642 135.678-97.813 17.765z"/><path d="M99.392 41.975L1.578 59.741a1.603 1.603 0 00-1.291 1.864l24.642 135.678c.159.87.994 1.449 1.865 1.291l97.814-17.766a1.604 1.604 0 001.291-1.864L101.256 43.266a1.604 1.604 0 00-1.864-1.29zm23.065 135.964l-94.659 17.193L3.728 62.609l94.66-17.192 24.069 132.522z" fill="#CFDBEC"/><path d="M33.655 177.139a.34.34 0 00.157.27l2.192 1.375 1.002 2.388a.34.34 0 00.24.199l2.53.545 1.756 1.904a.338.338 0 00.293.106l2.566-.353 2.302 1.185a.338.338 0 00.31-.001l2.29-1.213 2.57.331a.343.343 0 00.292-.107l1.737-1.919 2.525-.572a.332.332 0 00.237-.202l.974-2.398 2.178-1.4a.34.34 0 00.154-.271l.099-2.588 1.57-2.06a.33.33 0 00.052-.307l-.797-2.465.767-2.474a.333.333 0 00-.056-.306l-1.587-2.046-.123-2.587a.34.34 0 00-.157-.269l-2.192-1.375-1.002-2.387a.34.34 0 00-.24-.199l-2.532-.544-1.755-1.904a.338.338 0 00-.294-.106l-2.566.352-2.303-1.186a.347.347 0 00-.311.001l-2.29 1.213-2.568-.33a.329.329 0 00-.291.108l-1.74 1.919-2.524.572a.332.332 0 00-.237.202l-.974 2.398-2.18 1.4a.339.339 0 00-.154.271l-.093 2.589-1.569 2.059a.332.332 0 00-.052.308l.795 2.465-.766 2.473a.334.334 0 00.055.306l1.587 2.045.123 2.585zm-1.07-4.906l.745-2.407a.338.338 0 000-.204l-.775-2.398 1.528-2.005a.334.334 0 00.068-.192l.094-2.519 2.12-1.363a.334.334 0 00.13-.157l.949-2.335 2.456-.555a.336.336 0 00.175-.102l1.693-1.869 2.5.322a.339.339 0 00.2-.036l2.228-1.181 2.242 1.154a.323.323 0 00.2.034l2.497-.342 1.708 1.852a.332.332 0 00.177.101l2.464.531.975 2.323a.347.347 0 00.13.155l2.136 1.338.118 2.518a.337.337 0 00.07.191l1.545 1.991-.745 2.409a.333.333 0 000 .203l.775 2.399-1.528 2.005a.329.329 0 00-.068.191l-.096 2.519-2.12 1.362a.334.334 0 00-.13.157l-.948 2.335-2.456.555a.337.337 0 00-.176.102l-1.691 1.868-2.502-.321a.349.349 0 00-.102.002.304.304 0 00-.096.034l-2.229 1.18-2.24-1.154a.338.338 0 00-.2-.034l-2.496.344-1.709-1.852a.332.332 0 00-.176-.101l-2.465-.531-.974-2.324a.343.343 0 00-.131-.156l-2.134-1.338-.121-2.517a.335.335 0 00-.07-.191l-1.546-1.991z" fill="#CFDBEC"/><path d="M49.047 182.185c6.908-1.255 11.507-7.895 10.252-14.803-1.254-6.907-7.895-11.508-14.803-10.253-6.907 1.254-11.508 7.895-10.253 14.803 1.256 6.907 7.897 11.508 14.804 10.253zm-4.265-23.479c6.04-1.096 11.843 2.924 12.94 8.962 1.097 6.039-2.924 11.843-8.962 12.939-6.037 1.097-11.843-2.923-12.94-8.961-1.094-6.04 2.925-11.843 8.962-12.94z" fill="#CFDBEC"/><path d="M48.175 177.385c4.263-.775 7.101-4.872 6.327-9.135s-4.872-7.099-9.134-6.325c-4.263.775-7.1 4.872-6.326 9.133.774 4.261 4.872 7.101 9.133 6.327zm-2.693-14.829c3.914-.711 7.678 1.895 8.389 5.809.71 3.914-1.896 7.678-5.81 8.389-3.914.711-7.677-1.896-8.388-5.811-.71-3.914 1.895-7.676 5.81-8.387zm50.548 2.159c-1.558.059-2.828.673-4.363.238-.909-.257-.686-.881-1.852-.479-1.145.396-1.724 1.881-2.243 3.263.09-1.985.043-4.181-2.222-3.804-.318.053-.661.21-.997.424-1.239-.663-2.644-1.076-4.067-1.509-.124-.038-.278-.07-.434-.104 1.901-2.462 3.661-5.027 5.252-7.482.264-.407-.158-.861-.588-.69-3.442 1.37-6.96 3.818-8.54 7.266-.116.256.07.52.292.625.647.31 1.31.556 1.98.778-.553.785-1.099 1.573-1.684 2.336-1.166 1.518-3.34 3.05-4.037 4.764.07-.169-.2-.317-.29-.15-.04.076-.079.153-.12.229-.041.08-.047.195.044.247l.097.055c.07.041.158.045.223-.011 2.409-2.051 4.662-4.53 6.747-7.157l1.181.359c.325.099 1.884.543 3.103 1.146-.6.622-1.008 1.376-.937 2-.356-.038-.682-.055-.901.011-.878.262-1.176.472-1.67 1.25-.184.289-.036.818.375.802 1.313-.053 1.657-.769 2.418-1.523.667.881 2.444.679 3.577.11.056.783.038 1.709.165 2.494.073.458.675.552.934.202 1.264-1.701 1.108-4.355 3.513-4.251.397.017 1.07.656 1.829.659.228-.055.436-.148.624-.282 1.017-.993 2.004-1.061 2.962-.207.1-.003.357.082.463.1 1.457.251 3.382-.86 4.759-1.182a31.2 31.2 0 015.298-.793c.795-.046.562-1.257-.221-1.216-3.647.187-7.059 1.342-10.67 1.482zm-17.951-2.543c-.801-.006-.996-.297-.587-.872.204-.842.696-1.518 1.473-2.029 1.34-1.332 2.916-2.405 4.607-3.239-1.36 2.227-3.209 4.226-4.7 6.343l-.086.118c-.273-.082-.53-.178-.707-.321zm6.596 4.92c-.228.188-.779.136-1.363.058.67-.532 1.2-.866 1.607-1.022.178.315.148.64-.244.964zM56.357 83.201c5.634-1.023 9.384-6.439 8.361-12.072-1.023-5.634-6.439-9.385-12.072-8.362-5.634 1.024-9.385 6.44-8.362 12.073 1.024 5.634 6.44 9.384 12.073 8.361zm-3.425-18.856c4.765-.865 9.343 2.307 10.208 7.07.866 4.765-2.307 9.343-7.07 10.208-4.763.865-9.343-2.307-10.208-7.07-.865-4.763 2.306-9.343 7.07-10.208zm35.84 17.857L25.666 93.664l.287 1.578L89.058 83.78l-.286-1.578zm-17.785 9.75l-25.242 4.585.287 1.577 25.242-4.585-.287-1.577zm22.369 15.492L30.25 118.906l.287 1.578 63.105-11.462-.286-1.578zm-5.163 7.457l-50.485 9.169.287 1.578 50.484-9.169-.286-1.578zm-11.477 8.603l-25.242 4.585.286 1.578 25.242-4.585-.286-1.578z" fill="#CFDBEC"/></g><g clip-path="url(#clip1)"><path fill="#fff" d="M67.556 1.73l99.079 8.156-11.313 137.432-99.079-8.156z"/><path d="M72.772 109.87c1.537-1.602 3.016-3.856 4.851-5.122.826-.57-.45.709-.67 1.069-.536.879-1.13 2.01-1.557 2.946-.54 1.182-.758 2.152-.76 3.429 0 .25.15.431.399.471 1.721.273.243-.077 1.882-.116a2.82 2.82 0 00.818-.415c1.342-.179 2.39.156 3.148 1.004 1.032.394 1.096.986 2.367 1.028 1.63.052 2.826-.692 4.588-.586 1.417.086 2.807.58 4.224.736 3.357.366 6.838.077 10.207.079.711 0 .821-1.059.092-1.117-3.866-.311-7.747.236-11.6-.323-1.443-.209-2.906-.688-4.381-.555-2.347.21-3.315.382-5.565-.745-1.46-.73-1.627-.386-3.084-.508-2.972-.249-1.471-2.122-.544-3.952.555-1.097.94-2.018 1.19-3.214.072-.346-.393-.503-.625-.321-1.723 1.348-3.095 3.215-4.552 4.83-1.482 1.641-5.598 7.102-8.269 6.012-.143-.058-.27.171-.128.247 2.698 1.448 6.461-3.305 7.97-4.877z" fill="#CFDBEC"/><path d="M166.769 8.287L67.689.132a1.604 1.604 0 00-1.729 1.466L54.647 139.031a1.603 1.603 0 001.467 1.729l99.079 8.156a1.604 1.604 0 001.73-1.467l11.313-137.432a1.605 1.605 0 00-1.467-1.73zm-12.911 137.301l-95.883-7.892L69.025 3.459l95.883 7.893-11.05 134.236z" fill="#CFDBEC"/><path d="M154.597 19.35l-12.785-1.052-.131 1.598 12.784 1.053.132-1.598zm-.526 6.396l-12.785-1.053-.131 1.598 12.784 1.053.132-1.598zm-.526 6.39l-6.393-.526-.131 1.598 6.392.527.132-1.599zm-39.867 15.221L75.325 44.2l-.263 3.196 38.353 3.157.263-3.196zm38.355 3.157l-12.784-1.053-.263 3.197 12.784 1.052.263-3.196zm-1.646 19.976l-76.706-6.314-.132 1.598 76.707 6.314.131-1.598zm-.526 6.39l-76.707-6.314-.131 1.599 76.706 6.314.132-1.598zm-.527 6.395l-76.707-6.314-.132 1.598 76.707 6.314.132-1.598zm-.527 6.391l-76.706-6.314-.132 1.598 76.707 6.314.131-1.598zm-26.093 4.29l-51.138-4.21-.131 1.599 51.137 4.21.132-1.599zm-34.56 28.93l-19.176-1.579-.102 1.232 19.177 1.579.101-1.232z" fill="#CFDBEC"/></g><g clip-path="url(#clip2)"><path fill="#fff" d="M147.96 29.305l93.591 33.521-46.497 129.822-93.592-33.522z"/><path d="M242.094 61.318l-93.592-33.521a1.61 1.61 0 00-2.055.98L99.959 158.573a1.61 1.61 0 00.964 2.064l93.592 33.522a1.61 1.61 0 002.055-.981L243.059 63.38a1.61 1.61 0 00-.965-2.062zm-36.112 96.071l-11.895 33.21-90.573-32.44 11.894-33.21 33.522-93.593 90.573 32.44-33.521 93.593z" fill="#CFDBEC"/><path d="M185.476 52.961l-30.191-10.813-1.081 3.02 30.191 10.812 1.081-3.019zm-22.712 6.344l-12.076-4.325-.541 1.509 12.076 4.325.541-1.51zm15.951 12.525l-30.191-10.813-.54 1.51 30.191 10.813.54-1.51zm48.756-2.975l-24.153-8.65-.54 1.509 24.153 8.65.54-1.51zm-4.325 12.076l-24.153-8.65-.541 1.509 24.153 8.65.541-1.509zm-2.164 6.04l-24.153-8.65-.541 1.509 24.153 8.65.541-1.509zm-105.089 39.002l.292.105a.801.801 0 10.54-1.508l-.292-.105a.801.801 0 00-.54 1.508zm85.801 30.732l.595.213a.801.801 0 00.54-1.508l-.594-.213a.802.802 0 00-.541 1.508zm-64.726-23.184a.802.802 0 00.541-1.508l-.595-.213a.801.801 0 00-.54 1.508l.594.213zm2.971 1.061a.801.801 0 00.54-1.508l-.594-.213a.801.801 0 00-.54 1.508l.594.213zm-5.938-2.123a.801.801 0 00.54-1.508l-.594-.213a.802.802 0 00-.541 1.508l.595.213zm-5.938-2.128a.801.801 0 00.54-1.508l-.594-.213a.801.801 0 00-.54 1.508l.594.213zm36.168 11.253l-.593-.212a.8.8 0 10-.54 1.508l.593.212a.8.8 0 10.54-1.508zm-21.326-5.936a.801.801 0 00.54-1.509l-.594-.213a.801.801 0 00-.54 1.509l.594.213zm-11.874-4.255a.801.801 0 00.54-1.508l-.594-.213a.801.801 0 00-.54 1.508l.594.213zm22.674 7.27a.802.802 0 00.485 1.025l.592.212a.801.801 0 00.541-1.508l-.593-.213a.803.803 0 00-1.025.484zm7.556 1.856l-.593-.213a.801.801 0 00-.54 1.509l.593.212a.801.801 0 00.54-1.508zm-15.385-3.808a.801.801 0 00.54-1.508l-.594-.213a.802.802 0 00-.541 1.508l.595.213zm11.825 2.534a.8.8 0 10-.54 1.508l.593.212a.8.8 0 10.54-1.508l-.593-.212zm-8.856-1.47a.802.802 0 00.541-1.508l-.595-.213a.801.801 0 00-.54 1.508l.594.213zm2.968 1.062a.801.801 0 00.54-1.508l-.593-.213a.801.801 0 00-.54 1.509l.593.212zm46.91 16.802l.594.213a.801.801 0 00.54-1.509l-.594-.213a.801.801 0 00-.54 1.509zm-26.72-9.57l.593.213a.801.801 0 00.54-1.509l-.593-.212a.801.801 0 00-.54 1.508zm-6.423-3.15a.801.801 0 00.485 1.024l.592.213a.803.803 0 00.541-1.509l-.593-.212a.803.803 0 00-1.025.484zm3.455 2.085l.593.212a.8.8 0 10.54-1.508l-.593-.212a.8.8 0 10-.54 1.508zm27.262 8.065a.801.801 0 00-.54 1.509l.594.213a.801.801 0 00.54-1.509l-.594-.213zm-17.222-6.169l-.594-.212a.8.8 0 10-.541 1.508l.595.213a.801.801 0 00.54-1.509zm-60.513-19.97l.594.213a.801.801 0 00.54-1.509l-.594-.213a.801.801 0 00-.54 1.509zm2.97 1.059l.595.213a.801.801 0 00.54-1.508l-.594-.213a.802.802 0 00-.541 1.508zm2.967 1.067l.594.213a.802.802 0 00.541-1.509l-.595-.213a.801.801 0 00-.54 1.509zm65.915 23.605a.801.801 0 00.54-1.508l-.594-.213a.802.802 0 00-.541 1.508l.595.213zm-8.909-3.189a.802.802 0 00.541-1.509l-.595-.212a.8.8 0 10-.54 1.508l.594.213zm11.875 4.253a.802.802 0 00.541-1.508l-.595-.213a.801.801 0 00-.54 1.508l.594.213zm-5.937-2.126a.801.801 0 00.54-1.508l-.594-.213a.801.801 0 00-.54 1.508l.594.213zm-2.968-1.063a.801.801 0 00.54-1.509l-.594-.212a.8.8 0 10-.54 1.508l.594.213zm-8.908-3.19a.801.801 0 00.54-1.509l-.594-.212a.8.8 0 10-.54 1.508l.594.213zm29.931 9.019l-.293-.105a.801.801 0 00-.54 1.508l.293.105a.801.801 0 00.54-1.508zm-48.858-3.875l-36.229-12.976-.541 1.509 36.23 12.976.54-1.509zm-2.162 6.04l-36.229-12.976-.541 1.51 36.23 12.976.54-1.51zm-2.164 6.036l-36.229-12.976-.541 1.51 36.23 12.976.54-1.51zm40.557.901l-18.115-6.488-.541 1.51 18.115 6.488.541-1.51zm-2.41 6.727l-24.153-8.651a.499.499 0 00-.636.3l-2.018 5.636a.496.496 0 00.3.635l24.153 8.651a.498.498 0 00.636-.301l2.018-5.635a.496.496 0 00-.3-.635zm-24.399-2.381l-1.305-.467 1.684-4.699 1.304.467-1.683 4.699zm1.224.438l-.755-.27 1.683-4.699.755.27-1.683 4.699zm3.366 1.206l-2.43-.87 1.683-4.7 2.43.871-1.683 4.699zm1.525.546l-.589-.211 1.683-4.699.589.211-1.683 4.699zm.862.309l-.394-.141 1.683-4.699.394.141-1.683 4.699zm2.777.995l-1.841-.66 1.683-4.699 1.842.66-1.684 4.699zm1.057.378l-.589-.211 1.684-4.699.588.211-1.683 4.699zm1.371.491l-.901-.323 1.683-4.699.901.323-1.683 4.699zm1.623.581l-1.155-.413 1.683-4.699 1.155.413-1.683 4.699zm2.353.843l-1.417-.507 1.683-4.7 1.417.508-1.683 4.699zm2.444.876l-1.507-.54 1.684-4.699 1.506.539-1.683 4.7zm1.623.581l-.689-.247 1.683-4.699.689.247-1.683 4.699zm1.687.604l-.282-.101 1.683-4.699.283.101-1.684 4.699zm-30.435-65.726l-24.153-8.65-.541 1.509 24.153 8.651.541-1.51zm2.02-5.633l-24.153-8.65-.54 1.509 24.152 8.651.541-1.51zm-4.182 11.671l-24.152-8.651-.541 1.51 24.153 8.651.54-1.51zm22.297-5.183l-12.076-4.326-.541 1.51 12.076 4.325.541-1.509zm-2.019 5.634l-12.077-4.325-.541 1.509 12.077 4.326.541-1.51zm-2.162 6.038l-12.076-4.325-.541 1.509 12.077 4.326.54-1.51zm-20.279-.45l-24.152-8.651-.541 1.509 24.153 8.651.54-1.509zm18.114 6.489l-12.076-4.326-.541 1.51 12.077 4.325.54-1.509zm-30.216-44.033l39.248 14.057a1.605 1.605 0 002.051-.969l3.244-9.057a1.605 1.605 0 00-.969-2.05L145.437 74.39a1.604 1.604 0 00-2.05.97l-3.244 9.056a1.605 1.605 0 00.969 2.05zm3.785-10.567l39.248 14.057-3.244 9.058-39.248-14.058 3.244-9.057zm44.524 27.868l21.133 7.57a1.605 1.605 0 002.051-.969l3.244-9.057a1.605 1.605 0 00-.969-2.05l-21.134-7.57a1.604 1.604 0 00-2.05.969l-3.244 9.057a1.603 1.603 0 00.969 2.05zm3.784-10.566l21.134 7.569-3.244 9.057-21.134-7.569 3.244-9.057z" fill="#CFDBEC"/></g><defs><clipPath id="clip0"><path fill="#fff" transform="rotate(-10.294 333.2 30.014)" d="M0 0h102.621v141.104H0z"/></clipPath><clipPath id="clip1"><path fill="#fff" transform="rotate(4.706 33.046 804.265)" d="M0 0h102.621v141.104H0z"/></clipPath><clipPath id="clip2"><path fill="#fff" transform="rotate(19.706 -4.97 436.797)" d="M0 0h102.621v141.104H0z"/></clipPath></defs></svg>