<svg width="318" height="282" fill="none" xmlns="http://www.w3.org/2000/svg"><path d="M30.467 254.645H276.32" stroke="#AEAEBC" stroke-width="2" stroke-linecap="round"/><path d="M10.227 260.6h-5.65l-1.075 3.222H.075l5.822-15.64h2.987l5.854 15.64h-3.426l-1.085-3.222zm-4.78-2.611h3.91l-1.966-5.854-1.945 5.854zm305.267 2.581H300.8l-2.074 5.959h-4.623l9.668-25.593h3.99l9.686 25.593h-4.641l-2.092-5.959zm-8.666-3.586h7.418l-3.709-10.617-3.709 10.617z" fill="#000"/><g filter="url(#filter0_dd)"><circle cx="153.525" cy="253.38" r="11.38" fill="#fff"/><circle cx="153.525" cy="253.38" r="10.88" stroke="#F4F4F4"/></g><path d="M30.202 251.469v5.557m41.284-5.557v5.557m41.284-5.557v5.557m82.569-5.557v5.557m41.284-5.557v5.557m41.284-5.557v5.557" stroke="#AEAEBC" stroke-width="2" stroke-linecap="round"/><path d="M40.936 185h22.532l12.752-37.393h53.31L142.186 185h22.532L114.477 46.644H91.273L40.936 185zm61.747-115.44h.384l20.614 60.788H81.973l20.71-60.788zm103.935 117.262c13.327 0 25.025-6.904 30.873-17.738h.384V185h20.806v-69.513c0-20.231-15.628-33.271-40.27-33.271-24.833 0-39.886 13.327-41.324 30.682l-.096 1.054h19.559l.192-.863c1.726-8.053 9.109-13.71 21.094-13.71 12.848 0 20.039 6.711 20.039 17.833v7.575l-27.422 1.63c-23.874 1.438-37.489 12.177-37.489 29.723v.192c0 18.121 13.519 30.49 33.654 30.49zm-12.752-30.97v-.191c0-8.534 6.903-13.999 19.368-14.766l24.641-1.534v7.862c0 13.136-11.026 23.011-25.6 23.011-11.122 0-18.409-5.561-18.409-14.382z" fill="#000"/><defs><filter id="filter0_dd" x="132.146" y="239" width="42.759" height="42.759" filterUnits="userSpaceOnUse" color-interpolation-filters="sRGB"><feFlood flood-opacity="0" result="BackgroundImageFix"/><feColorMatrix in="SourceAlpha" values="0 0 0 0 0 0 0 0 0 0 0 0 0 0 0 0 0 0 127 0" result="hardAlpha"/><feOffset dy="7"/><feGaussianBlur stdDeviation="5"/><feComposite in2="hardAlpha" operator="out"/><feColorMatrix values="0 0 0 0 0 0 0 0 0 0 0 0 0 0 0 0 0 0 0.1 0"/><feBlend in2="BackgroundImageFix" result="effect1_dropShadow"/><feColorMatrix in="SourceAlpha" values="0 0 0 0 0 0 0 0 0 0 0 0 0 0 0 0 0 0 127 0" result="hardAlpha"/><feOffset dy="4"/><feGaussianBlur stdDeviation="2"/><feComposite in2="hardAlpha" operator="out"/><feColorMatrix values="0 0 0 0 0 0 0 0 0 0 0 0 0 0 0 0 0 0 0.05 0"/><feBlend in2="effect1_dropShadow" result="effect2_dropShadow"/><feBlend in="SourceGraphic" in2="effect2_dropShadow" result="shape"/></filter></defs></svg>