<svg width="452" height="359" fill="none" xmlns="http://www.w3.org/2000/svg"><g filter="url(#filter0_d)"><path d="M300.066 95.98c6.352 0 11.5 5.149 11.5 11.5v171.843H51.6V107.48c0-6.351 5.148-11.5 11.5-11.5h236.966z" fill="#fff" stroke="#E5EDF9"/><rect x="333.165" y="271.166" width="16.657" height="303.166" rx="7" transform="rotate(90 333.165 271.166)" fill="#E6EDF7"/><rect x="188.713" y="195.956" width="94.392" height="52.193" rx="5" fill="#DDE6F3" fill-opacity=".3"/><rect x="71" y="221.497" width="104.387" height="26.652" rx="5" fill="#E6EDF7"/><rect x="192.044" y="116" width="91.061" height="26.652" rx="5" fill="#E6EDF7"/><rect x="71" y="203.729" width="11.105" height="11.105" rx="5" fill="#E6EDF7"/><rect x="93.21" y="203.729" width="82.177" height="11.105" rx="5" fill="#E6EDF7"/><rect x="192.044" y="148.205" width="42.199" height="42.199" rx="5" fill="#E4EBF5"/><rect x="240.906" y="148.205" width="42.199" height="42.199" rx="5" fill="#E4EBF5"/><path d="M72.51 133h3.262v-12.824h-3.261V133zm6.292 0h3.093v-7.287h.16L87.423 133h2.586v-12.824h-3.093v7.216h-.16l-5.35-7.216h-2.604V133zm17.41 0h4.212l4.034-12.824h-3.723l-2.328 9.358h-.17l-2.336-9.358h-3.724L96.212 133zm15.756.347c3.857 0 6.318-2.586 6.318-6.754v-.018c0-4.159-2.47-6.745-6.318-6.745-3.857 0-6.328 2.586-6.328 6.745v.018c0 4.168 2.453 6.754 6.328 6.754zm0-2.702c-1.822 0-3.013-1.582-3.013-4.052v-.018c0-2.462 1.209-4.044 3.013-4.044 1.795 0 2.995 1.582 2.995 4.044v.018c0 2.47-1.2 4.052-2.995 4.052zm8.744 2.355h3.262v-12.824h-3.262V133zm11.891.347c3.288 0 5.563-2 5.776-4.861v-.143h-3.137l-.018.098c-.222 1.324-1.208 2.204-2.612 2.204-1.795 0-2.889-1.537-2.889-4.061v-.018c0-2.506 1.094-4.035 2.88-4.035 1.404 0 2.435.942 2.621 2.284l.009.08h3.137v-.16c-.186-2.835-2.541-4.905-5.767-4.905-3.848 0-6.203 2.568-6.203 6.745v.018c0 4.176 2.364 6.754 6.203 6.754zm8.14-.347h8.789v-2.622h-5.528v-2.621h5.199v-2.4h-5.199v-2.559h5.528v-2.622h-8.789V133zm-68.232 22h2.87v-8.167h.178L78.474 155h1.857l2.915-8.167h.187V155h2.861v-12.824h-3.706l-3.092 8.701h-.17l-3.1-8.701H72.51V155zm15.951 0h3.422l.79-2.817h4.186l.791 2.817h3.422l-4.31-12.824h-3.99L88.462 155zm6.221-9.998h.169l1.35 4.835h-2.87l1.351-4.835zm8.54 9.998h3.262v-3.626l1.128-1.431 3.235 5.057h3.83l-4.692-7.163 4.435-5.661h-3.502l-4.265 5.51h-.169v-5.51h-3.262V155zm13.401 0h8.789v-2.622h-5.527v-2.621h5.199v-2.4h-5.199v-2.559h5.527v-2.622h-8.789V155zm11.571 0h3.261v-4.488h1.689L135.34 155h3.661l-2.559-4.968c1.386-.613 2.177-2.044 2.177-3.608v-.017c0-2.649-1.697-4.231-4.852-4.231h-5.572V155zm3.261-6.718v-3.644h1.929c1.173 0 1.91.729 1.91 1.813v.018c0 1.111-.719 1.813-1.892 1.813h-1.947z" fill="#A4B4CB"/><rect x="420.501" y="153.174" width="164.464" height="247.751" rx="11.5" transform="rotate(90 420.501 153.174)" fill="#fff" stroke="#E5EDF9"/><rect width="91" height="53" rx="5" transform="matrix(-1 0 0 1 283 250)" fill="#E4EBF5"/><rect width="104.387" height="26.652" rx="5" transform="matrix(-1 0 0 1 404.343 275.939)" fill="#E4EBF5"/><rect width="91.061" height="26.652" rx="5" transform="matrix(-1 0 0 1 283.298 170.442)" fill="#E4EBF5"/><rect x="299.956" y="258.171" width="11.105" height="11.105" rx="5" fill="#E4EBF5"/><rect x="322.167" y="258.171" width="82.177" height="11.105" rx="5" fill="#E4EBF5"/><rect width="42.199" height="42.199" rx="5" transform="matrix(-1 0 0 1 283.298 202.646)" fill="#E4EBF5"/><rect width="42.199" height="42.199" rx="5" transform="matrix(-1 0 0 1 234.437 202.646)" fill="#E4EBF5"/><g filter="url(#filter1_d)"><rect x="299.183" y="20.862" width="106.608" height="215.436" rx="12" fill="#fff"/><rect x="299.683" y="21.362" width="105.608" height="214.436" rx="11.5" stroke="#E5EDF9"/></g><rect x="311.398" y="169.668" width="82.177" height="52.193" rx="5" fill="#E6EDF7"/><rect x="311.398" y="91.934" width="82.177" height="26.652" rx="5" fill="#E6EDF7"/><rect x="311.398" y="74.165" width="11.105" height="11.105" rx="5" fill="#E6EDF7"/><rect x="329.166" y="74.165" width="64.409" height="11.105" rx="5" fill="#E6EDF7"/><rect x="311.398" y="125.249" width="37.757" height="37.757" rx="5" fill="#E6EDF7"/><rect x="355.818" y="125.249" width="37.757" height="37.757" rx="5" fill="#E6EDF7"/><path d="M312.162 46.52h1.649v-6.483h-1.649v6.483zm3.181 0h1.563v-3.684h.081l2.713 3.684h1.307v-6.483h-1.563v3.648h-.081l-2.704-3.648h-1.316v6.483zm8.8 0h2.129l2.04-6.483h-1.883l-1.177 4.73h-.085l-1.181-4.73h-1.883l2.04 6.483zm7.964.175c1.95 0 3.194-1.307 3.194-3.414v-.01c0-2.102-1.248-3.409-3.194-3.409-1.949 0-3.198 1.307-3.198 3.41v.009c0 2.107 1.24 3.414 3.198 3.414zm0-1.366c-.92 0-1.522-.8-1.522-2.048v-.01c0-1.244.611-2.043 1.522-2.043.908 0 1.514.8 1.514 2.044v.009c0 1.248-.606 2.048-1.514 2.048zm4.421 1.19h1.648v-6.482h-1.648v6.483zm6.01.176c1.662 0 2.812-1.011 2.92-2.458v-.071h-1.586l-.009.049c-.112.67-.61 1.114-1.32 1.114-.908 0-1.46-.777-1.46-2.053v-.009c0-1.267.552-2.04 1.455-2.04.71 0 1.231.477 1.325 1.155l.005.04h1.586v-.08c-.095-1.433-1.285-2.48-2.916-2.48-1.945 0-3.135 1.298-3.135 3.41v.009c0 2.111 1.195 3.414 3.135 3.414zm4.115-.175h4.443v-1.326h-2.794V43.87h2.628v-1.213h-2.628v-1.294h2.794v-1.325h-4.443v6.483zm-34.491 11h1.451v-4.13h.09l1.473 4.129h.939l1.474-4.129h.094v4.129h1.446v-6.483h-1.873l-1.563 4.398h-.085l-1.568-4.398h-1.878v6.483zm8.064 0h1.729l.4-1.425h2.116l.4 1.425h1.729l-2.179-6.483h-2.017l-2.178 6.483zm3.144-5.054h.085l.683 2.444h-1.451l.683-2.444zm4.317 5.053h1.649v-1.832l.57-.723 1.635 2.556h1.937l-2.372-3.621 2.241-2.862h-1.77l-2.156 2.785h-.085v-2.785h-1.649v6.483zm6.774 0h4.443v-1.325h-2.794V54.87h2.628v-1.213h-2.628v-1.294h2.794v-1.325h-4.443v6.483zm5.849 0h1.649v-2.268h.853l1.11 2.269h1.851l-1.294-2.512c.701-.31 1.1-1.033 1.1-1.823v-.01c0-1.338-.858-2.138-2.452-2.138h-2.817v6.483zm1.649-3.396v-1.841h.975c.593 0 .965.368.965.916v.009c0 .562-.363.916-.956.916h-.984z" fill="#A4B4CB"/></g><defs><filter id="filter0_d" x="0" y=".862" width="451.002" height="357.276" filterUnits="userSpaceOnUse" color-interpolation-filters="sRGB"><feFlood flood-opacity="0" result="BackgroundImageFix"/><feColorMatrix in="SourceAlpha" values="0 0 0 0 0 0 0 0 0 0 0 0 0 0 0 0 0 0 127 0" result="hardAlpha"/><feOffset dy="10"/><feGaussianBlur stdDeviation="15"/><feColorMatrix values="0 0 0 0 0.0451389 0 0 0 0 0.203201 0 0 0 0 0.416667 0 0 0 0.1 0"/><feBlend in2="BackgroundImageFix" result="effect1_dropShadow"/><feBlend in="SourceGraphic" in2="effect1_dropShadow" result="shape"/></filter><filter id="filter1_d" x="284.183" y="9.862" width="136.608" height="245.436" filterUnits="userSpaceOnUse" color-interpolation-filters="sRGB"><feFlood flood-opacity="0" result="BackgroundImageFix"/><feColorMatrix in="SourceAlpha" values="0 0 0 0 0 0 0 0 0 0 0 0 0 0 0 0 0 0 127 0" result="hardAlpha"/><feOffset dy="4"/><feGaussianBlur stdDeviation="7.5"/><feColorMatrix values="0 0 0 0 0.0451389 0 0 0 0 0.203201 0 0 0 0 0.416667 0 0 0 0.08 0"/><feBlend in2="BackgroundImageFix" result="effect1_dropShadow"/><feBlend in="SourceGraphic" in2="effect1_dropShadow" result="shape"/></filter></defs></svg>