<svg width="61" height="61" fill="none" xmlns="http://www.w3.org/2000/svg"><path d="M39.19 5.57L37 7.76l-6.18-6.18a4 4 0 00-5.58 0l-4.15 4.13a13 13 0 00-3.65 7 4 4 0 00-4.19.89L9.1 17.73a13.13 13.13 0 000 18.6l5.7 5.7L.88 55.88l4.24 4.24L19 46.24 24.72 52A13.001 13.001 0 0034 55.81a13 13 0 009.29-3.87l4.13-4.15a4 4 0 00.89-4.19 13.001 13.001 0 007-3.65l4.13-4.15a4 4 0 000-5.58L53.24 24l2.19-2.19A18.87 18.87 0 0061 8.37V0h-8.37a18.87 18.87 0 00-13.44 5.57zM25.32 10L28 7.27 33.71 13a7.14 7.14 0 010 10.09l-4.2 4.2A13 13 0 0026 20.71l-.65-.65a7.14 7.14 0 010-10.1l-.03.04zM11.21 27a7.078 7.078 0 012.1-5L16 19.27 21.71 25a7.14 7.14 0 010 10.09L19 37.76l-5.7-5.7A7.09 7.09 0 0111.21 27zm27.85 20.7a7.09 7.09 0 01-5 2.1 7.09 7.09 0 01-5-2.09L23.26 42 26 39.31a7.15 7.15 0 0110.09 0L41.76 45l-2.7 2.7zm12-12a7.142 7.142 0 01-10.1 0l-.65-.65a13 13 0 00-6.55-3.54l4.24-4.2a7.15 7.15 0 0110.09 0L53.76 33l-2.7 2.7zM55 8.37a12.922 12.922 0 01-3.81 9.19l-2.81 2.81a13.19 13.19 0 00-6.64-1.09 13.082 13.082 0 00-1.11-6.68l2.8-2.8a12.919 12.919 0 019.2-3.8H55v2.37z" fill="#007AFF"/></svg>