<svg width="82" height="102" fill="none" xmlns="http://www.w3.org/2000/svg"><path d="M74.492 100.517H13.23a6.616 6.616 0 01-6.616-6.616V8.194a6.616 6.616 0 016.616-6.616h31.554l36.325 36.406V93.9a6.616 6.616 0 01-6.616 6.616z" fill="#fff" stroke="#D5D5D5" stroke-width="1.164"/><path d="M18.834 16.128h29.682M18.834 30.096h49.47m-49.47 13.967h49.47m-49.47 13.968h49.47m-49.47 13.968h49.47m-49.47 13.968h49.47" stroke="#D1D1D1" stroke-width="2.328"/><path d="M45.803 29.739V2.409l34.413 34.746H53.218a7.416 7.416 0 01-7.416-7.416z" fill="#EBEBEB" stroke="#D5D5D5" stroke-width="1.164"/><rect x=".211" y="61.554" width="45.395" height="20.952" rx="5.82" fill="#E44A4A"/><path d="M9.6 77.883V67.442h3.606c1.285 0 2.269.282 2.95.847.691.564 1.037 1.392 1.037 2.482v.059c0 1.07-.346 1.883-1.037 2.438-.691.546-1.65.818-2.877.818H11.95v3.797H9.6zm2.35-5.447h1.198c1.178 0 1.767-.53 1.767-1.592v-.058c0-1.032-.59-1.548-1.767-1.548H11.95v3.198zm9.156 3.607h.964c2.064 0 3.096-1.115 3.096-3.344v-.117c0-1.1-.254-1.923-.76-2.468-.496-.555-1.285-.832-2.365-.832h-.935v6.76zm-2.366 1.84V67.442h3.417c1.792 0 3.15.453 4.075 1.358.934.905 1.401 2.156 1.401 3.753v.117c0 1.606-.467 2.876-1.401 3.811-.935.934-2.298 1.402-4.09 1.402H18.74zm10.596 0V67.442h6.703v1.854H31.7v2.76h3.432v1.782H31.7v4.045h-2.365z" fill="#fff"/></svg>