<svg width="260" height="226" fill="none" xmlns="http://www.w3.org/2000/svg"><rect x="67.997" y=".743" width="124.003" height="124.003" rx="62.002" fill="#007AFF"/><path d="M78.258 220.63c2.295 0 3.944-1.734 3.944-4.59v-.136c0-2.873-1.717-4.522-3.944-4.522-1.31 0-2.414.765-2.907 1.615v-5.542h-2.057v13.005h2.057v-1.428c.476.901 1.496 1.598 2.907 1.598zm-.51-1.632c-1.496 0-2.465-.935-2.465-2.924v-.136c0-1.972 1.02-2.941 2.448-2.941 1.343 0 2.363.969 2.363 2.941v.136c0 1.904-.833 2.924-2.346 2.924zm7.04 4.505h2.023l4.845-11.934H89.65l-2.176 5.729-2.363-5.729h-2.227l3.52 7.99-1.616 3.944zm16.763-2.873c2.686 0 4.471-1.649 4.471-3.757 0-2.431-1.479-3.247-4.335-3.638-2.108-.306-2.516-.799-2.516-1.785 0-.935.714-1.598 2.091-1.598 1.394 0 2.125.544 2.346 1.819h2.074c-.238-2.329-1.802-3.519-4.42-3.519-2.533 0-4.233 1.496-4.233 3.485 0 2.278 1.377 3.162 4.284 3.553 1.972.323 2.533.748 2.533 1.87s-.952 1.87-2.295 1.87c-2.057 0-2.55-1.02-2.703-2.244h-2.176c.17 2.295 1.564 3.944 4.879 3.944zm8.819 0c1.36 0 2.142-.493 2.72-1.258v1.088h2.023v-5.831c0-2.431-1.564-3.247-3.553-3.247-1.989 0-3.638.867-3.808 2.941h1.989c.102-.884.629-1.394 1.7-1.394 1.207 0 1.615.595 1.615 1.785v.459h-1.105c-2.55 0-4.556.748-4.556 2.822 0 1.853 1.343 2.635 2.975 2.635zm.493-1.479c-1.02 0-1.428-.493-1.428-1.241 0-1.088 1.003-1.445 2.567-1.445h1.054v.884c0 1.139-.935 1.802-2.193 1.802zm6.658 1.309h2.057v-13.005h-2.057v13.005zm7.897.17c1.309 0 2.448-.782 2.924-1.666v1.496h2.057v-13.005h-2.057v5.474c-.493-.884-1.394-1.547-2.839-1.547-2.312 0-3.995 1.802-3.995 4.641v.136c0 2.89 1.683 4.471 3.91 4.471zm.51-1.632c-1.326 0-2.312-.935-2.312-2.89v-.136c0-1.921.884-2.975 2.397-2.975 1.496 0 2.397.969 2.397 2.924v.136c0 1.989-1.054 2.941-2.482 2.941zm10.893.034c-1.564 0-2.465-1.139-2.465-2.958v-.136c0-1.836.935-2.941 2.465-2.941 1.53 0 2.448 1.122 2.448 2.958v.119c0 1.819-.918 2.958-2.448 2.958zm-.017 1.598c2.618 0 4.573-1.802 4.573-4.573v-.136c0-2.72-1.955-4.539-4.556-4.539-2.618 0-4.573 1.836-4.573 4.59v.136c0 2.703 1.938 4.522 4.556 4.522zm9.718-.17h2.125l.952-3.009h4.641l.969 3.009h2.346l-4.012-12.155h-2.958l-4.063 12.155zm5.406-10.302l1.785 5.644h-3.587l1.802-5.644zm7.312 13.345h2.057v-4.437c.476.867 1.496 1.564 2.907 1.564 2.295 0 3.944-1.734 3.944-4.59v-.136c0-2.873-1.717-4.522-3.944-4.522-1.309 0-2.414.765-2.907 1.615v-1.428h-2.057v11.934zm4.454-4.505c-1.496 0-2.465-.935-2.465-2.924v-.136c0-1.972 1.02-2.941 2.448-2.941 1.343 0 2.363.969 2.363 2.941v.136c0 1.904-.833 2.924-2.346 2.924zm6.304 4.505h2.057v-4.437c.476.867 1.496 1.564 2.907 1.564 2.295 0 3.944-1.734 3.944-4.59v-.136c0-2.873-1.717-4.522-3.944-4.522-1.309 0-2.414.765-2.907 1.615v-1.428h-2.057v11.934zm4.454-4.505c-1.496 0-2.465-.935-2.465-2.924v-.136c0-1.972 1.02-2.941 2.448-2.941 1.343 0 2.363.969 2.363 2.941v.136c0 1.904-.833 2.924-2.346 2.924zm9.346 1.632c2.278 0 3.553-1.037 3.553-2.839 0-1.887-1.241-2.397-3.332-2.72-1.411-.238-1.836-.493-1.836-1.139 0-.629.527-1.054 1.411-1.054.952 0 1.411.374 1.581 1.19h1.904c-.221-2.006-1.666-2.686-3.485-2.686-1.666 0-3.332.884-3.332 2.669 0 1.666.867 2.329 3.213 2.703 1.309.221 1.904.493 1.904 1.224 0 .748-.493 1.139-1.598 1.139-1.207 0-1.666-.527-1.768-1.428h-1.938c.085 1.887 1.428 2.941 3.723 2.941z" fill="#71839C"/><path d="M3.077 190h6.194v-27.17H3.077V190zm11.711 0h5.51v-11.476c0-2.926 1.786-4.37 4.142-4.37 2.432 0 3.496 1.292 3.496 3.99V190h5.51v-12.654c0-5.32-2.774-7.676-6.688-7.676-3.306 0-5.472 1.634-6.46 3.61v-3.154h-5.51V190zm28.366 0h6.194l7.22-19.874h-5.32l-4.712 14.212-4.75-14.212h-5.89L43.154 190zm24.696-3.762c-3.116 0-4.864-2.28-4.864-6.08v-.304c0-3.8 1.824-6.004 4.864-6.004 3.078 0 4.864 2.28 4.864 6.08v.266c0 3.762-1.787 6.042-4.864 6.042zm-.038 4.18c5.966 0 10.487-3.99 10.487-10.26v-.304c0-6.194-4.484-10.184-10.45-10.184-5.966 0-10.488 4.066-10.488 10.298v.304c0 6.194 4.523 10.146 10.45 10.146zM82.145 190h5.472v-19.874h-5.472V190zm2.698-22.572c1.785 0 3.154-1.292 3.154-3.002 0-1.71-1.369-3.002-3.154-3.002-1.748 0-3.116 1.292-3.116 3.002 0 1.71 1.368 3.002 3.116 3.002zm16.843 22.99c5.776 0 9.196-3.268 9.5-7.98h-4.978c-.266 2.546-2.052 3.838-4.256 3.838-3.078 0-4.864-2.052-4.864-6.042v-.304c0-3.8 1.9-5.928 4.75-5.928 2.242 0 3.648 1.064 4.028 3.382h5.206c-.494-5.7-4.75-7.714-9.348-7.714-5.662 0-10.26 3.914-10.26 10.336v.304c0 6.498 4.408 10.108 10.222 10.108zm22.121 0c5.434 0 8.854-2.394 9.5-6.688h-5.206c-.342 1.672-1.596 2.774-4.142 2.774-3.002 0-4.788-1.9-4.94-5.206h14.326v-1.52c0-7.106-4.56-10.108-9.69-10.108-5.776 0-10.222 4.066-10.222 10.336v.304c0 6.346 4.37 10.108 10.374 10.108zm-4.712-12.502c.418-2.812 2.09-4.446 4.56-4.446 2.622 0 4.142 1.444 4.332 4.446h-8.892zM145.87 190h5.51v-19.076L158.942 190h2.014l7.524-19.076V190h6.118v-27.17h-7.98l-6.27 16.91-6.346-16.91h-8.132V190zm39.302.418c3.116 0 4.864-1.216 6.004-2.812V190h5.358v-12.958c0-5.396-3.458-7.372-8.322-7.372-4.864 0-8.588 2.09-8.93 6.802h5.206c.228-1.71 1.216-2.812 3.382-2.812 2.508 0 3.23 1.292 3.23 3.648v.798h-2.242c-6.08 0-10.336 1.748-10.336 6.384 0 4.18 3.04 5.928 6.65 5.928zm1.634-3.838c-2.014 0-2.888-.95-2.888-2.394 0-2.128 1.862-2.812 5.054-2.812h2.128v1.672c0 2.204-1.862 3.534-4.294 3.534zm14.457 3.42h5.51v-9.386l6.574 9.386h6.232l-7.79-10.83 7.22-9.044h-5.852l-6.384 8.398V161.12h-5.51V190zm29.271.418c5.434 0 8.854-2.394 9.5-6.688h-5.206c-.342 1.672-1.596 2.774-4.142 2.774-3.002 0-4.788-1.9-4.94-5.206h14.326v-1.52c0-7.106-4.56-10.108-9.69-10.108-5.776 0-10.222 4.066-10.222 10.336v.304c0 6.346 4.37 10.108 10.374 10.108zm-4.712-12.502c.418-2.812 2.09-4.446 4.56-4.446 2.622 0 4.142 1.444 4.332 4.446h-8.892zM243.679 190h5.51v-9.956c0-3.8 2.356-5.13 6.422-5.092v-5.13c-3.23.038-5.168 1.444-6.422 4.104v-3.8h-5.51V190z" fill="#000"/><g clip-path="url(#clip0)"><path d="M159.247 102.951h-50.515V90.973h58.806c.285 0 .503.293.456.61-1.672 11.368-8.747 11.368-8.747 11.368z" fill="#AFCDFB"/><path d="M159.247 102.951h-50.515V90.973h58.806c.285 0 .503.293.456.61-1.672 11.368-8.747 11.368-8.747 11.368z" fill="url(#paint0_linear)"/><g opacity=".6"><path opacity=".6" d="M166.925 30.993h-57.739c-.173 0-.331.115-.412.288-15.143 32.144-15.085 35.017-15.085 35.017l54.583 16.558s1.583-22.148 19.026-51.022c.213-.353.004-.84-.373-.84z" fill="#F8FBFF"/><path opacity=".6" d="M166.925 30.993h-57.739c-.173 0-.331.115-.412.288-15.143 32.144-15.085 35.017-15.085 35.017l54.583 16.558s1.583-22.148 19.026-51.022c.213-.353.004-.84-.373-.84z" fill="url(#paint1_linear)"/><path opacity=".6" d="M141.049 36.334c-.101.633-.636 1.057-1.197.947l-21.736-4.273c-.561-.11-.934-.713-.834-1.347.1-.634.636-1.058 1.196-.948l21.737 4.273c.56.11.934.714.834 1.348zm5.378 5.239c-.101.636-.638 1.062-1.201.95l-33.755-6.66c-.563-.11-.938-.716-.838-1.352.101-.636.638-1.062 1.201-.95l33.755 6.66c.563.11.938.716.838 1.352zm-2.495 9.238l-36.348-7.25c-.28-.055-.468-.362-.419-.68.05-.318.319-.532.599-.476l36.348 7.25c.28.055.468.362.418.68-.049.318-.318.532-.598.476zm-.362 2.435l-36.348-7.25c-.28-.056-.468-.362-.418-.68.05-.318.318-.532.599-.477l36.348 7.25c.28.056.468.362.418.68-.049.319-.319.533-.599.477zm-36.748-4.682l22.385 4.465c.28.056.55-.158.599-.477.049-.319-.139-.624-.419-.68l-22.385-4.465c-.28-.056-.549.159-.599.477-.049.319.139.624.419.68z" fill="#000"/></g><g opacity=".6"><path opacity=".6" d="M163.004 25.715h-57.89c-.199 0-.373.15-.437.363-10.488 34.449-9.158 47.607-9.158 47.607l53.345 2.009s2.917-24.811 14.541-49.191c.169-.354-.046-.788-.401-.788z" fill="#F8FBFF"/><path opacity=".6" d="M163.004 25.715h-57.89c-.199 0-.373.15-.437.363-10.488 34.449-9.158 47.607-9.158 47.607l53.345 2.009s2.917-24.811 14.541-49.191c.169-.354-.046-.788-.401-.788z" fill="url(#paint2_linear)"/><path opacity=".6" d="M139.727 32.52c-.05.637-.548 1.11-1.111 1.055l-22.01-2.128c-.563-.054-.979-.614-.928-1.251.05-.637.548-1.109 1.111-1.055l22.01 2.128c.563.054.979.614.928 1.251zm5.761 4.691c-.051.64-.55 1.114-1.116 1.06l-34.166-3.319c-.566-.054-.984-.618-.933-1.258.05-.64.55-1.114 1.116-1.059l34.165 3.318c.566.055.984.618.934 1.258zm-1.779 9.446l-36.768-3.638c-.283-.029-.494-.315-.469-.637.024-.322.276-.562.559-.534l36.769 3.639c.283.028.494.314.469.636-.024.322-.277.562-.56.534zm-.172 2.46l-36.768-3.639c-.283-.028-.494-.315-.469-.636.025-.322.276-.562.56-.534l36.768 3.639c.283.027.494.314.469.636-.024.322-.276.562-.56.534zm-36.969-1.042l22.644 2.24c.283.029.535-.211.56-.533.024-.322-.186-.608-.469-.636l-22.645-2.241c-.283-.028-.535.212-.559.534-.025.322.186.608.469.636z" fill="#000"/></g><path d="M159.049 20.074c.345 0 .568.41.422.762-12.5 30.09-10.72 60.536-10.72 60.536h-.002c-.746 8.095 2.681 20.478 10.536 21.628h-49.04c-12.87 0-18.158-10.409-18.16-21.627h.002S90.29 50.353 103.01 20.3a.473.473 0 01.425-.301c24.084 0 40.681.071 55.615.074z" fill="url(#paint3_radial)"/><path d="M122.778 27.727h-13.805c-1.016 0-1.84.933-1.84 2.082 0 1.15.824 2.082 1.84 2.082h13.805c1.016 0 1.84-.932 1.84-2.082s-.824-2.082-1.84-2.082z" fill="#C3D1E6"/><path d="M115.785 68.327H101.98c-1.016 0-1.84.932-1.84 2.082s.824 2.081 1.84 2.081h13.805c1.016 0 1.84-.932 1.84-2.081 0-1.15-.824-2.082-1.84-2.082zm26.594-18.739h-39.02c-1.016 0-1.84.932-1.84 2.082s.824 2.082 1.84 2.082h39.02c1.017 0 1.841-.932 1.841-2.082s-.824-2.082-1.841-2.082zM141 58.957h-39.02c-1.016 0-1.84.932-1.84 2.082s.824 2.082 1.84 2.082H141c1.017 0 1.841-.932 1.841-2.082s-.824-2.082-1.841-2.082zm-16.105-21.86h-18.682c-1.017 0-1.841.932-1.841 2.082s.824 2.082 1.841 2.082h18.682c1.016 0 1.84-.932 1.84-2.082s-.824-2.082-1.84-2.082z" fill="#CFDBEC"/><path fill-rule="evenodd" clip-rule="evenodd" d="M139.181 86.364c-1.626 2.901-4.49 4.828-7.753 4.828a8.298 8.298 0 01-4.263-1.186l-2.44.739c1.859 1.608 4.182 2.564 6.703 2.564 4.594 0 8.532-3.173 10.197-7.686l-2.444.74zm-13.282 2.732c-2.213-1.894-3.643-4.898-3.643-8.279 0-1.316.217-2.576.612-3.735l-2.144.65a14.11 14.11 0 00-.339 3.085c0 3.505 1.276 6.672 3.331 8.94l2.183-.661zm-4.776-12.778c1.596-4.676 5.608-7.992 10.305-7.992 2.626 0 5.038 1.036 6.933 2.767l-2.373.72a8.331 8.331 0 00-4.56-1.37c-3.383 0-6.338 2.071-7.928 5.155l-2.377.72zm16.065-3.576c2.081 1.902 3.413 4.813 3.413 8.075 0 1.434-.258 2.8-.723 4.042l2.185-.662c.266-1.075.409-2.209.409-3.38 0-3.395-1.197-6.473-3.14-8.724l-2.144.65z" fill="#F23333"/><path d="M117.833 82.056c-.267-1.126-.4-1.69-.308-2.178.081-.43.28-.82.569-1.115.328-.334.826-.485 1.822-.787l20.272-6.144c.996-.302 1.494-.453 1.926-.349.38.092.725.317.985.644.296.37.429.934.696 2.06l1.334 5.631c.267 1.126.4 1.69.308 2.179-.081.43-.28.82-.569 1.114-.328.334-.826.485-1.821.787l-20.273 6.144c-.996.302-1.494.453-1.926.349a1.804 1.804 0 01-.985-.644c-.296-.37-.429-.934-.696-2.06l-1.334-5.63z" fill="#F23333"/><path d="M124.885 79.902l-2.383.722 1.429 6.032 1.539-.467-.402-1.697.824-.25c1.317-.398 1.725-1.574 1.447-2.745-.272-1.148-1.138-1.994-2.454-1.595zm.896 2.068c.139.588-.115.982-.615 1.133l-.406.124-.419-1.768.445-.135c.477-.144.859.072.995.646zm3.947 2.929l-.016-1.288 1.507-.457.548 1.127 1.648-.5-3.061-5.536-1.938.587-.216 6.53 1.528-.463zm-.01-4.885l.954 1.98-.992.3-.036-2.257.074-.023zm5.718 3.155l-1.429-6.032-1.543.468 1.429 6.031 1.543-.467zm-.488-6.317l1.429 6.031 2.254-.683c1.687-.511 2.155-1.95 1.719-3.788-.429-1.812-1.433-2.763-3.148-2.243l-2.254.683zm1.864.885l.437-.133c.946-.287 1.326.47 1.531 1.335.343 1.45-.141 1.81-.743 1.992l-.437.133-.788-3.327z" fill="#fff"/></g><defs><linearGradient id="paint0_linear" x1="151.887" y1="98.82" x2="165.157" y2="98.82" gradientUnits="userSpaceOnUse"><stop stop-color="#9DC4FE"/><stop offset="1" stop-color="#CEDFFF"/></linearGradient><linearGradient id="paint1_linear" x1="112.92" y1="42.372" x2="146.554" y2="52.611" gradientUnits="userSpaceOnUse"><stop stop-color="#EFDAD5"/><stop offset=".471" stop-color="#DEF1D6"/><stop offset="1" stop-color="#C5E8F0"/></linearGradient><linearGradient id="paint2_linear" x1="98.948" y1="44.881" x2="153.413" y2="53.372" gradientUnits="userSpaceOnUse"><stop stop-color="#fff"/><stop offset="1" stop-color="#96CDFF"/></linearGradient><radialGradient id="paint3_radial" cx="0" cy="0" r="1" gradientUnits="userSpaceOnUse" gradientTransform="scale(174.82 98.1625) rotate(90 .33 .414)"><stop stop-color="#fff"/><stop offset=".863" stop-color="#fff"/><stop offset=".896" stop-color="#E2F0FF"/><stop offset=".943" stop-color="#ADD3FF"/><stop offset="1" stop-color="#61A9FE"/></radialGradient><clipPath id="clip0"><path fill="#fff" transform="translate(92 20)" d="M0 0h76v84H0z"/></clipPath></defs></svg>