<svg width="180" height="50" fill="none" xmlns="http://www.w3.org/2000/svg"><path d="M60.634 21h-1.6v-9.242h1.6V21zm3.517-6.868l.044.793c.508-.613 1.174-.92 2-.92 1.43 0 2.158.819 2.183 2.456V21h-1.542v-4.45c0-.436-.096-.757-.286-.965-.186-.211-.493-.317-.92-.317-.622 0-1.086.281-1.39.844V21h-1.543v-6.868h1.454zm8.486 4.913l1.454-4.913h1.593L73.304 21h-1.34l-2.4-6.868h1.6l1.473 4.913zm3.885-1.543c0-.672.133-1.278.4-1.815a2.896 2.896 0 011.123-1.244c.483-.292 1.037-.438 1.663-.438.927 0 1.678.298 2.254.895.58.597.892 1.388.94 2.374l.005.362c0 .677-.13 1.282-.393 1.815a2.86 2.86 0 01-1.117 1.238c-.483.292-1.041.438-1.676.438-.97 0-1.746-.322-2.33-.965-.58-.647-.87-1.508-.87-2.583v-.077zm1.542.134c0 .706.146 1.26.438 1.663.292.398.698.596 1.219.596.52 0 .925-.203 1.212-.609.292-.406.438-1 .438-1.784 0-.694-.15-1.244-.45-1.65-.297-.406-.7-.61-1.213-.61-.503 0-.903.202-1.2.604-.296.398-.444.994-.444 1.79zM86.113 21H84.57v-6.868h1.543V21zm-1.638-8.652c0-.237.074-.434.222-.59.153-.157.368-.235.648-.235.279 0 .495.078.647.235a.812.812 0 01.229.59.804.804 0 01-.229.584c-.152.152-.368.229-.647.229-.28 0-.495-.076-.648-.229a.817.817 0 01-.222-.584zm6.405 7.547c.385 0 .704-.112.958-.336a1.15 1.15 0 00.406-.832h1.454c-.017.428-.15.828-.4 1.2-.25.368-.588.66-1.016.876a3.027 3.027 0 01-1.383.324c-.961 0-1.723-.311-2.285-.933-.563-.622-.845-1.481-.845-2.577v-.159c0-1.045.28-1.881.838-2.507.559-.63 1.32-.946 2.285-.946.817 0 1.481.239 1.993.717.517.474.788 1.098.813 1.873h-1.454c-.017-.394-.152-.718-.406-.971-.25-.254-.57-.381-.958-.381-.5 0-.885.182-1.156.546-.27.36-.408.907-.412 1.644v.247c0 .745.133 1.301.4 1.67.27.363.66.545 1.168.545zm7.267 1.232c-.977 0-1.77-.307-2.38-.92-.605-.618-.908-1.44-.908-2.463v-.19c0-.686.132-1.298.394-1.835a3.036 3.036 0 011.117-1.263 2.948 2.948 0 011.6-.451c.935 0 1.656.298 2.164.895.512.597.768 1.44.768 2.533v.622h-4.487c.046.567.234 1.015.564 1.345.335.33.754.495 1.257.495.707 0 1.282-.285 1.727-.856l.831.793c-.275.41-.643.73-1.104.959a3.455 3.455 0 01-1.543.336zm-.184-5.884c-.423 0-.766.148-1.028.444-.258.296-.423.709-.495 1.238h2.939v-.114c-.034-.517-.172-.906-.413-1.168-.241-.267-.575-.4-1.003-.4zm10.131-3.485l2.666 7.084 2.659-7.084h2.076V21h-1.6v-3.047l.159-4.075L111.325 21h-1.149l-2.723-7.116.158 4.07V21h-1.599v-9.242h2.082zM121.614 21c-.068-.131-.127-.345-.178-.641a2.402 2.402 0 01-1.803.768c-.689 0-1.252-.197-1.688-.59a1.888 1.888 0 01-.654-1.46c0-.732.271-1.293.813-1.683.546-.393 1.324-.59 2.336-.59h.945v-.45c0-.356-.099-.64-.298-.851-.199-.216-.501-.324-.908-.324-.351 0-.639.09-.863.267a.807.807 0 00-.336.666h-1.543c0-.376.125-.728.375-1.053.249-.33.588-.589 1.015-.775.432-.186.912-.28 1.441-.28.804 0 1.445.204 1.924.61.478.402.723.97.736 1.701v3.098c0 .618.087 1.11.26 1.48V21h-1.574zm-1.695-1.11c.305 0 .59-.075.857-.223.271-.148.474-.347.609-.597v-1.295h-.831c-.571 0-1.001.1-1.289.299-.287.199-.431.48-.431.844 0 .296.097.533.292.71.199.174.463.261.793.261zm7.116-1.835l-.686.704V21h-1.542v-9.75h1.542v5.624l.482-.603 1.898-2.14h1.854l-2.552 2.864L130.856 21h-1.784l-2.037-2.945zm7.718 3.072c-.977 0-1.771-.307-2.38-.92-.605-.618-.908-1.44-.908-2.463v-.19c0-.686.131-1.298.394-1.835a3.033 3.033 0 011.117-1.263 2.947 2.947 0 011.599-.451c.936 0 1.657.298 2.165.895.512.597.768 1.44.768 2.533v.622h-4.488c.047.567.235 1.015.565 1.345.334.33.753.495 1.257.495.707 0 1.282-.285 1.726-.856l.832.793c-.275.41-.643.73-1.104.959a3.458 3.458 0 01-1.543.336zm-.184-5.884c-.423 0-.766.148-1.028.444-.258.296-.424.709-.495 1.238h2.939v-.114c-.034-.517-.172-.906-.413-1.168-.241-.267-.576-.4-1.003-.4zm7.998.298a3.827 3.827 0 00-.629-.05c-.706 0-1.182.27-1.428.812V21h-1.542v-6.868h1.472l.038.768c.373-.597.889-.895 1.549-.895.22 0 .402.03.546.089l-.006 1.447zM60.014 38h-1.031v-7.82h1.031V38zm2.895-5.812l.032.73c.444-.558 1.024-.837 1.74-.837 1.229 0 1.848.693 1.859 2.079V38h-.994v-3.846c-.003-.419-.1-.728-.29-.929-.186-.2-.478-.3-.875-.3-.323 0-.605.085-.849.257a1.75 1.75 0 00-.57.677V38h-.993v-5.812h.94zm7.267 4.464l1.44-4.464h1.014L70.546 38h-.757l-2.105-5.812h1.015l1.477 4.464zm3.281-1.611c0-.57.111-1.082.333-1.537a2.53 2.53 0 01.935-1.052 2.56 2.56 0 011.37-.37c.79 0 1.43.273 1.917.82.49.549.736 1.277.736 2.187v.07c0 .565-.11 1.074-.328 1.525a2.447 2.447 0 01-.929 1.047 2.56 2.56 0 01-1.386.376c-.787 0-1.427-.273-1.917-.821-.487-.548-.73-1.273-.73-2.176v-.07zm1 .118c0 .644.148 1.162.445 1.552.301.39.702.585 1.203.585.505 0 .906-.197 1.203-.59.298-.398.446-.953.446-1.666 0-.637-.152-1.152-.456-1.546a1.433 1.433 0 00-1.203-.596c-.491 0-.887.195-1.187.585-.301.39-.452.949-.452 1.676zM81.293 38H80.3v-5.812h.994V38zm-1.075-7.353a.6.6 0 01.145-.408c.1-.111.247-.167.44-.167.194 0 .341.056.441.167.1.11.15.247.15.408a.57.57 0 01-.15.403c-.1.107-.247.16-.44.16-.194 0-.34-.053-.44-.16a.58.58 0 01-.146-.403zm5.22 6.65c.355 0 .665-.108.93-.323a1.13 1.13 0 00.44-.805h.94a1.79 1.79 0 01-.343.95c-.212.3-.495.54-.849.72a2.42 2.42 0 01-1.117.268c-.791 0-1.422-.263-1.89-.79-.466-.53-.699-1.252-.699-2.17v-.166c0-.565.104-1.068.311-1.509.208-.44.505-.782.892-1.026.39-.243.85-.365 1.38-.365.652 0 1.193.195 1.623.585.433.39.664.898.692 1.52h-.94a1.354 1.354 0 00-.43-.923 1.314 1.314 0 00-.945-.365c-.504 0-.897.182-1.176.547-.275.362-.413.886-.413 1.574v.188c0 .67.138 1.185.413 1.547.276.362.67.542 1.182.542zm6.06.81c-.788 0-1.43-.257-1.924-.773-.494-.52-.74-1.212-.74-2.079v-.182c0-.577.108-1.09.327-1.542.222-.454.53-.809.924-1.063a2.324 2.324 0 011.289-.387c.755 0 1.343.249 1.761.747.42.497.629 1.21.629 2.137v.414h-3.937c.014.573.18 1.037.5 1.391.322.35.73.526 1.224.526.35 0 .648-.071.891-.215a2.24 2.24 0 00.64-.569l.607.473c-.487.748-1.218 1.122-2.192 1.122zm-.124-5.21c-.401 0-.738.147-1.01.44-.272.29-.44.7-.505 1.225h2.911v-.075c-.028-.505-.165-.895-.408-1.17-.243-.28-.573-.42-.988-.42zm8.615 3.647l1.353-4.355h1.063l-2.336 6.708c-.362.967-.936 1.45-1.724 1.45l-.188-.016-.37-.07v-.805l.268.021c.337 0 .598-.068.784-.204.19-.136.346-.385.467-.747l.22-.59-2.073-5.748h1.085l1.45 4.356zm3.179-1.503c0-.57.111-1.082.333-1.537a2.53 2.53 0 01.935-1.052c.401-.247.857-.37 1.369-.37.792 0 1.431.273 1.918.82.49.549.735 1.277.735 2.187v.07c0 .565-.109 1.074-.327 1.525a2.451 2.451 0 01-.929 1.047 2.56 2.56 0 01-1.386.376c-.788 0-1.427-.273-1.918-.821-.487-.548-.73-1.273-.73-2.176v-.07zm.999.118c0 .644.149 1.162.446 1.552.301.39.702.585 1.203.585.505 0 .906-.197 1.203-.59.297-.398.446-.953.446-1.666 0-.637-.152-1.152-.457-1.546a1.433 1.433 0 00-1.203-.596c-.49 0-.886.195-1.187.585-.301.39-.451.949-.451 1.676zm9.345 2.266c-.386.455-.954.682-1.702.682-.62 0-1.092-.179-1.418-.537-.322-.361-.485-.895-.489-1.6v-3.782h.994v3.755c0 .88.358 1.321 1.074 1.321.759 0 1.264-.283 1.515-.849v-4.227h.993V38h-.945l-.022-.575zm5.511-4.345a2.969 2.969 0 00-.489-.038c-.651 0-1.094.278-1.326.833V38h-.994v-5.812h.967l.016.672c.326-.52.788-.779 1.386-.779.193 0 .34.025.44.075v.924zm6.418 4.216c.355 0 .664-.107.929-.322.265-.215.412-.483.441-.805h.94a1.8 1.8 0 01-.344.95c-.211.3-.494.54-.849.72a2.424 2.424 0 01-1.117.268c-.791 0-1.422-.263-1.891-.79-.465-.53-.698-1.252-.698-2.17v-.166c0-.565.104-1.068.312-1.509.207-.44.505-.782.891-1.026.391-.243.851-.365 1.381-.365.651 0 1.192.195 1.622.585.433.39.664.898.693 1.52h-.94a1.355 1.355 0 00-.43-.923 1.312 1.312 0 00-.945-.365c-.505 0-.897.182-1.177.547-.275.362-.413.886-.413 1.574v.188c0 .67.138 1.185.413 1.547.276.362.67.542 1.182.542zm7.235.13c-.387.454-.955.681-1.703.681-.619 0-1.092-.179-1.418-.537-.322-.361-.485-.895-.489-1.6v-3.782h.994v3.755c0 .88.358 1.321 1.074 1.321.759 0 1.264-.283 1.515-.849v-4.227h.993V38h-.945l-.021-.575zm6.085-.968a.723.723 0 00-.306-.623c-.201-.15-.553-.279-1.058-.386-.502-.108-.901-.237-1.198-.387-.294-.15-.512-.33-.655-.537a1.295 1.295 0 01-.21-.741c0-.477.201-.88.602-1.209.404-.33.92-.494 1.547-.494.658 0 1.192.17 1.6.51.412.34.618.776.618 1.306h-.999c0-.273-.117-.507-.349-.704-.229-.197-.519-.295-.87-.295-.362 0-.645.078-.849.236a.744.744 0 00-.306.617c0 .24.095.421.284.543.19.122.532.238 1.026.35.498.11.901.243 1.209.397.308.154.535.34.682.558.15.215.226.478.226.79 0 .519-.208.936-.623 1.251-.416.312-.955.467-1.617.467-.466 0-.877-.082-1.236-.247a2.036 2.036 0 01-.843-.687 1.69 1.69 0 01-.301-.962h.994c.018.333.15.598.398.795.25.194.58.29.988.29.376 0 .677-.075.902-.225.229-.154.344-.358.344-.612zm3.856-5.677v1.407h1.085v.768h-1.085v3.604c0 .233.048.409.145.527.097.114.262.172.494.172.115 0 .272-.022.473-.065V38a2.882 2.882 0 01-.763.107c-.444 0-.779-.134-1.004-.402-.226-.269-.339-.65-.339-1.145v-3.604h-1.058v-.768h1.058v-1.407h.994zm2.1 4.26c0-.57.111-1.082.333-1.537a2.53 2.53 0 01.935-1.052c.401-.247.857-.37 1.369-.37.792 0 1.431.273 1.918.82.49.549.736 1.277.736 2.187v.07c0 .565-.11 1.074-.328 1.525a2.451 2.451 0 01-.929 1.047 2.56 2.56 0 01-1.386.376c-.788 0-1.427-.273-1.918-.821-.486-.548-.73-1.273-.73-2.176v-.07zm.999.118c0 .644.149 1.162.446 1.552.301.39.702.585 1.203.585.505 0 .906-.197 1.203-.59.297-.398.446-.953.446-1.666 0-.637-.152-1.152-.457-1.546a1.431 1.431 0 00-1.203-.596c-.49 0-.886.195-1.187.585-.301.39-.451.949-.451 1.676zm6.692-2.97l.027.644c.426-.501 1.001-.752 1.724-.752.813 0 1.366.312 1.66.935a2.2 2.2 0 01.752-.677c.311-.172.678-.258 1.101-.258 1.275 0 1.923.675 1.944 2.025V38h-.993v-3.835c0-.415-.095-.725-.285-.93-.19-.207-.509-.31-.956-.31-.369 0-.675.11-.919.332-.243.219-.385.514-.424.887V38h-.999v-3.808c0-.845-.414-1.268-1.241-1.268-.651 0-1.097.278-1.337.833V38h-.994v-5.812h.94zm11.344 5.918c-.788 0-1.429-.257-1.923-.773-.494-.52-.741-1.212-.741-2.079v-.182c0-.577.109-1.09.327-1.542.222-.454.53-.809.924-1.063a2.325 2.325 0 011.289-.387c.756 0 1.343.249 1.762.747.419.497.628 1.21.628 2.137v.414h-3.937c.015.573.181 1.037.5 1.391.322.35.73.526 1.224.526.351 0 .649-.071.892-.215.244-.143.457-.333.639-.569l.607.473c-.487.748-1.217 1.122-2.191 1.122zm-.124-5.21c-.401 0-.737.147-1.01.44-.272.29-.44.7-.504 1.225h2.911v-.075c-.029-.505-.165-.895-.408-1.17-.244-.28-.573-.42-.989-.42zm6.574.183a2.969 2.969 0 00-.489-.038c-.651 0-1.093.278-1.326.833V38h-.994v-5.812h.967l.016.672c.326-.52.788-.779 1.386-.779.193 0 .34.025.44.075v.924zm4.522 3.379a.723.723 0 00-.306-.624c-.2-.15-.553-.279-1.058-.386-.501-.108-.9-.237-1.198-.387-.293-.15-.512-.33-.655-.537a1.302 1.302 0 01-.209-.741c0-.477.2-.88.601-1.209.405-.33.921-.494 1.547-.494.659 0 1.193.17 1.601.51.412.34.617.776.617 1.306h-.999c0-.273-.116-.507-.349-.704-.229-.197-.519-.295-.87-.295-.362 0-.644.078-.848.236a.742.742 0 00-.307.617c0 .24.095.421.285.543.19.122.532.238 1.026.35.498.11.9.243 1.208.397.308.154.536.34.683.558.15.215.225.478.225.79 0 .519-.208.936-.623 1.251-.415.312-.954.467-1.617.467-.465 0-.877-.082-1.235-.247a2.036 2.036 0 01-.843-.687 1.683 1.683 0 01-.301-.962h.994c.018.333.15.598.397.795.251.194.58.29.988.29.376 0 .677-.075.903-.225.229-.154.343-.358.343-.612z" fill="#000"/><rect width="50" height="50" rx="12" fill="#007AFF"/><g filter="url(#filter0_d)"><path d="M36.737 40.324H16.525v-4.237h23.538c.109 0 .192.1.175.207-.667 4.03-3.501 4.03-3.501 4.03z" fill="#AFCDFB"/><path d="M36.737 40.324H16.525v-4.237h23.538c.109 0 .192.1.175.207-.667 4.03-3.501 4.03-3.501 4.03z" fill="url(#paint0_linear)"/><g opacity=".6"><path d="M39.82 14.869H16.698a.182.182 0 00-.159.097c-6.06 11.374-6.037 12.39-6.037 12.39l21.839 5.858s.634-7.84 7.62-18.06c.082-.12.002-.285-.143-.285z" fill="#F8FBFF"/><path d="M39.82 14.869H16.698a.182.182 0 00-.159.097c-6.06 11.374-6.037 12.39-6.037 12.39l21.839 5.858s.634-7.84 7.62-18.06c.082-.12.002-.285-.143-.285z" fill="url(#paint1_linear)"/><path d="M29.451 16.758a.415.415 0 01-.479.335l-8.696-1.511a.41.41 0 01-.334-.476.415.415 0 01.479-.336l8.697 1.512a.41.41 0 01.333.476zm2.156 1.855a.416.416 0 01-.48.336L17.62 16.593a.412.412 0 01-.335-.479.416.416 0 01.48-.336l13.506 2.356c.225.04.375.253.335.479zm-1.001 3.267l-14.543-2.564a.208.208 0 01.072-.409l14.543 2.564a.208.208 0 01-.072.41zm-.144.862l-14.543-2.565a.208.208 0 01.072-.409l14.543 2.564a.208.208 0 01-.072.41zm-14.703-1.657l8.956 1.58a.207.207 0 00.072-.41l-8.956-1.579a.207.207 0 00-.072.41z" fill="#000"/></g><g opacity=".6"><path d="M38.252 13.005h-23.18a.18.18 0 00-.168.124c-4.198 12.19-3.665 16.845-3.665 16.845l21.343.71s1.168-8.784 5.824-17.411c.065-.12-.017-.268-.154-.268z" fill="#F8FBFF"/><path d="M38.252 13.005h-23.18a.18.18 0 00-.168.124c-4.198 12.19-3.665 16.845-3.665 16.845l21.343.71s1.168-8.784 5.824-17.411c.065-.12-.017-.268-.154-.268z" fill="url(#paint2_linear)"/><path d="M28.927 15.414a.411.411 0 01-.444.373l-8.806-.753a.407.407 0 01-.372-.443.411.411 0 01.445-.372l8.806.752c.225.02.392.217.371.443zm2.309 1.66a.413.413 0 01-.446.375l-13.67-1.174a.41.41 0 01-.373-.445.413.413 0 01.446-.374l13.67 1.173a.41.41 0 01.373.445zm-.716 3.338l-14.712-1.287a.208.208 0 01.037-.414l14.71 1.287a.208.208 0 01-.035.414zm-.069.871L15.74 19.996a.208.208 0 01.036-.414l14.711 1.287a.208.208 0 01-.036.414zm-14.791-.369l9.06.793a.208.208 0 00.036-.414l-9.06-.793a.208.208 0 00-.037.414z" fill="#000"/></g><path d="M36.67 11.008c.133 0 .219.14.163.259-5.007 10.647-4.295 21.424-4.295 21.424-.3 2.863 1.072 7.243 4.215 7.65H17.132c-5.15 0-7.265-3.682-7.266-7.65h.001s-.72-10.975 4.372-21.607a.181.181 0 01.163-.102c9.645 0 16.29.025 22.269.026z" fill="url(#paint3_radial)"/><rect x="15.888" y="13.716" width="6.996" height="1.473" rx=".736" fill="#C3D1E6"/><rect x="13.088" y="28.078" width="6.996" height="1.473" rx=".736" fill="#CFDBEC"/><rect x="13.642" y="21.45" width="17.085" height="1.473" rx=".736" fill="#CFDBEC"/><rect x="13.088" y="24.764" width="17.085" height="1.473" rx=".736" fill="#CFDBEC"/><rect x="14.781" y="17.031" width="8.948" height="1.473" rx=".736" fill="#CFDBEC"/></g><path fill-rule="evenodd" clip-rule="evenodd" d="M28.753 34.444a3.697 3.697 0 01-4.893 1.311l-.934.25a4.42 4.42 0 006.762-1.812l-.936.251zm-5.394.988a3.694 3.694 0 01-1.45-2.938c0-.462.084-.904.238-1.312l-.822.22a4.431 4.431 0 001.197 4.254l.837-.224zm-1.874-4.53a4.42 4.42 0 016.897-1.848l-.909.244a3.698 3.698 0 00-5.078 1.36l-.91.244zm6.463-1.274c.83.678 1.36 1.71 1.36 2.866 0 .503-.1.982-.282 1.42l.837-.225a4.423 4.423 0 00-1.093-4.281l-.822.22z" fill="#F23333"/><path d="M20.17 32.932c-.108-.398-.161-.598-.124-.77a.737.737 0 01.227-.395c.132-.118.33-.171.73-.278l8.11-2.173c.399-.107.598-.16.77-.124a.737.737 0 01.395.228c.118.131.172.33.279.729l.533 1.992c.107.398.16.597.123.77a.736.736 0 01-.227.394c-.131.118-.33.172-.729.279l-8.111 2.173c-.399.107-.598.16-.77.123a.737.737 0 01-.395-.227c-.118-.132-.172-.33-.278-.73l-.534-1.99z" fill="#F23333"/><path d="M22.99 32.17l-.953.256.572 2.133.616-.165-.161-.6.33-.088c.526-.142.69-.557.579-.971-.11-.407-.456-.706-.982-.565zm.359.732c.056.208-.046.347-.246.4l-.163.044-.167-.625.178-.048c.19-.05.344.026.398.229zm1.579 1.036l-.006-.456.603-.161.22.398.659-.177-1.225-1.958-.775.208-.087 2.31.611-.164zm-.004-1.728l.382.7-.397.106-.014-.798.03-.008zm2.288 1.116l-.572-2.134-.617.166.571 2.133.618-.165zm-.195-2.235l.571 2.134.902-.242c.676-.18.862-.69.688-1.34-.172-.64-.573-.977-1.26-.793l-.901.241zm.745.313l.175-.047c.379-.101.53.166.613.473.137.513-.057.64-.297.704l-.175.047-.316-1.177z" fill="#fff"/><defs><linearGradient id="paint0_linear" x1="33.792" y1="38.862" x2="39.101" y2="38.862" gradientUnits="userSpaceOnUse"><stop stop-color="#9DC4FE"/><stop offset="1" stop-color="#CEDFFF"/></linearGradient><linearGradient id="paint1_linear" x1="18.199" y1="18.892" x2="31.346" y2="23.419" gradientUnits="userSpaceOnUse"><stop stop-color="#EFDAD5"/><stop offset=".471" stop-color="#DEF1D6"/><stop offset="1" stop-color="#C5E8F0"/></linearGradient><linearGradient id="paint2_linear" x1="12.611" y1="19.784" x2="34.262" y2="23.602" gradientUnits="userSpaceOnUse"><stop stop-color="#fff"/><stop offset="1" stop-color="#96CDFF"/></linearGradient><radialGradient id="paint3_radial" cx="0" cy="0" r="1" gradientUnits="userSpaceOnUse" gradientTransform="matrix(0 34.7224 -69.9465 0 25.11 6.83)"><stop stop-color="#fff"/><stop offset=".863" stop-color="#fff"/><stop offset=".896" stop-color="#E2F0FF"/><stop offset=".943" stop-color="#ADD3FF"/><stop offset="1" stop-color="#61A9FE"/></radialGradient><filter id="filter0_d" x="9.473" y="7.151" width="31.127" height="36.245" filterUnits="userSpaceOnUse" color-interpolation-filters="sRGB"><feFlood flood-opacity="0" result="BackgroundImageFix"/><feColorMatrix in="SourceAlpha" values="0 0 0 0 0 0 0 0 0 0 0 0 0 0 0 0 0 0 127 0" result="hardAlpha"/><feOffset dy="2.695"/><feGaussianBlur stdDeviation=".18"/><feColorMatrix values="0 0 0 0 0 0 0 0 0 0 0 0 0 0 0 0 0 0 1 0"/><feBlend mode="color-dodge" in2="BackgroundImageFix" result="effect1_dropShadow"/><feBlend in="SourceGraphic" in2="effect1_dropShadow" result="shape"/></filter></defs></svg>