<svg width="217" height="48" fill="none" xmlns="http://www.w3.org/2000/svg"><rect width="48" height="48" rx="24" fill="#007AFF"/><g filter="url(#filter0_d)"><path d="M35.272 38.712H15.869v-4.068h22.587c.11 0 .193.1.175.208-.642 3.86-3.36 3.86-3.36 3.86z" fill="#AFCDFB"/><path d="M35.272 38.712H15.869v-4.068h22.587c.11 0 .193.1.175.208-.642 3.86-3.36 3.86-3.36 3.86z" fill="url(#paint0_linear)"/><g opacity=".6"><path d="M38.22 14.277H16.044a.182.182 0 00-.158.097C10.069 25.29 10.09 26.265 10.09 26.265l20.965 5.623s.608-7.52 7.308-17.326c.082-.12.001-.285-.143-.285z" fill="#F8FBFF"/><path d="M38.22 14.277H16.044a.182.182 0 00-.158.097C10.069 25.29 10.09 26.265 10.09 26.265l20.965 5.623s.608-7.52 7.308-17.326c.082-.12.001-.285-.143-.285z" fill="url(#paint1_linear)"/><path d="M28.282 16.09a.398.398 0 01-.46.322l-8.349-1.451a.393.393 0 01-.32-.458.398.398 0 01.46-.322l8.349 1.452a.393.393 0 01.32.457zm2.066 1.78a.4.4 0 01-.461.322L16.92 15.931a.396.396 0 01-.321-.46.4.4 0 01.46-.323l12.966 2.262c.216.038.36.243.322.46zm-.958 3.136l-13.962-2.461a.2.2 0 01.07-.393l13.96 2.462a.2.2 0 01-.068.392zm-.139.827L15.29 19.371a.2.2 0 01.07-.392l13.96 2.461a.2.2 0 01-.069.393zm-14.115-1.59l8.599 1.516a.2.2 0 00.069-.393l-8.598-1.516a.2.2 0 00-.07.393z" fill="#000"/></g><g opacity=".6"><path d="M36.715 12.485H14.479a.18.18 0 00-.168.123c-4.028 11.698-3.517 16.166-3.517 16.166l20.49.682s1.12-8.425 5.585-16.704c.065-.12-.018-.268-.154-.268z" fill="#F8FBFF"/><path d="M36.715 12.485H14.479a.18.18 0 00-.168.123c-4.028 11.698-3.517 16.166-3.517 16.166l20.49.682s1.12-8.425 5.585-16.704c.065-.12-.018-.268-.154-.268z" fill="url(#paint2_linear)"/><path d="M27.775 14.796a.395.395 0 01-.427.358l-8.454-.723a.391.391 0 01-.357-.425.395.395 0 01.427-.358l8.454.723a.391.391 0 01.357.425zm2.213 1.593a.396.396 0 01-.429.36L16.436 15.62a.393.393 0 01-.358-.427.397.397 0 01.428-.36l13.123 1.127c.218.019.378.21.359.428zm-.683 3.207L15.182 18.36a.2.2 0 01.035-.397l14.122 1.235a.2.2 0 01-.034.398zm-.066.835l-14.123-1.235a.2.2 0 01.035-.398l14.123 1.236a.2.2 0 01-.035.397zm-14.2-.353l8.698.76a.199.199 0 00.034-.397l-8.697-.76a.2.2 0 00-.035.397z" fill="#000"/></g><path d="M35.197 10.569a.18.18 0 01.161.259c-4.8 10.218-4.117 20.556-4.117 20.556-.288 2.749 1.03 6.954 4.046 7.345H16.451c-4.944 0-6.975-3.535-6.976-7.344h.001s-.69-10.534 4.196-20.739a.182.182 0 01.162-.102c9.251 0 15.626.024 21.363.025z" fill="url(#paint3_radial)"/><rect x="15.256" y="13.168" width="6.716" height="1.414" rx=".707" fill="#C3D1E6"/><rect x="12.569" y="26.954" width="6.716" height="1.414" rx=".707" fill="#CFDBEC"/><rect x="13.1" y="20.591" width="16.402" height="1.414" rx=".707" fill="#CFDBEC"/><rect x="12.569" y="23.773" width="16.402" height="1.414" rx=".707" fill="#CFDBEC"/><rect x="14.194" y="16.349" width="8.59" height="1.414" rx=".707" fill="#CFDBEC"/></g><path fill-rule="evenodd" clip-rule="evenodd" d="M27.565 33.08a3.52 3.52 0 01-4.616 1.236l-.937.25a4.243 4.243 0 006.491-1.74l-.938.253zm-5.102.927a3.518 3.518 0 01-1.164-4.08l-.823.221a4.245 4.245 0 001.149 4.084l.838-.225zm-1.834-4.34a4.243 4.243 0 016.621-1.773l-.912.244a3.522 3.522 0 00-4.797 1.285l-.912.245zm6.17-1.213a3.524 3.524 0 011.034 4.114l.839-.225c.102-.365.157-.75.157-1.147 0-1.153-.46-2.199-1.206-2.963l-.824.22z" fill="#F23333"/><path d="M19.365 31.616c-.102-.382-.153-.573-.118-.74a.707.707 0 01.218-.378c.127-.113.318-.164.7-.267l7.787-2.086c.382-.103.574-.154.74-.119a.707.707 0 01.378.219c.114.126.165.317.267.7l.513 1.912c.102.382.153.573.118.74a.707.707 0 01-.218.378c-.127.113-.318.164-.7.267l-7.787 2.086c-.382.103-.574.154-.74.119a.707.707 0 01-.378-.219c-.114-.126-.165-.317-.267-.7l-.513-1.912z" fill="#F23333"/><path d="M22.073 30.885l-.915.245.549 2.048.591-.158-.154-.576.316-.085c.506-.136.663-.535.556-.932-.104-.39-.437-.677-.942-.542zm.345.702c.053.2-.044.334-.236.385l-.157.042-.16-.6.17-.046c.184-.05.33.024.383.22zm1.516.995l-.007-.438.58-.155.21.383.633-.17-1.176-1.88-.744.2-.083 2.217.587-.157zm-.004-1.659l.367.672-.382.102-.014-.766.029-.008zm2.196 1.071l-.549-2.048-.593.159.55 2.048.592-.159zm-.187-2.144l.549 2.047.865-.231c.648-.174.828-.663.66-1.287-.164-.615-.55-.938-1.209-.762l-.865.232zm.715.3l.168-.045c.364-.098.51.16.588.453.132.492-.054.615-.285.677l-.168.044-.303-1.13zM57.966 24h3.957V6.645h-3.957V24zm6.995 0h3.52v-7.33c0-1.87 1.14-2.792 2.646-2.792 1.553 0 2.233.825 2.233 2.549V24h3.52v-8.083c0-3.398-1.772-4.903-4.273-4.903-2.111 0-3.495 1.044-4.126 2.306v-2.015h-3.52V24zm17.634 0h3.956l4.612-12.695h-3.398l-3.01 9.078-3.034-9.078H77.96L82.595 24zm15.289-2.403c-1.99 0-3.107-1.456-3.107-3.884v-.194c0-2.427 1.165-3.835 3.107-3.835 1.966 0 3.107 1.456 3.107 3.884v.17c0 2.403-1.141 3.859-3.107 3.859zm-.025 2.67c3.811 0 6.7-2.549 6.7-6.554v-.194c0-3.956-2.864-6.505-6.675-6.505s-6.7 2.597-6.7 6.578v.194c0 3.957 2.889 6.481 6.675 6.481zM106.53 24h3.495V11.305h-3.495V24zm1.723-14.418c1.141 0 2.015-.825 2.015-1.918 0-1.092-.874-1.917-2.015-1.917-1.116 0-1.99.825-1.99 1.917 0 1.093.874 1.918 1.99 1.918zm10.274 14.685c3.689 0 5.874-2.087 6.068-5.097h-3.18c-.169 1.626-1.31 2.451-2.718 2.451-1.966 0-3.107-1.31-3.107-3.86v-.193c0-2.428 1.214-3.787 3.034-3.787 1.432 0 2.33.68 2.573 2.16h3.325c-.315-3.64-3.034-4.927-5.971-4.927-3.616 0-6.553 2.5-6.553 6.602v.194c0 4.151 2.815 6.457 6.529 6.457zm13.644 0c3.471 0 5.656-1.53 6.069-4.272h-3.326c-.218 1.068-1.019 1.772-2.646 1.772-1.917 0-3.058-1.214-3.155-3.325h9.151v-.971c0-4.54-2.913-6.457-6.19-6.457-3.689 0-6.529 2.597-6.529 6.602v.194c0 4.054 2.791 6.457 6.626 6.457zm-3.009-7.986c.267-1.796 1.335-2.84 2.912-2.84 1.675 0 2.646.923 2.767 2.84h-5.679zM145.293 24h3.52V11.815L153.643 24h1.286l4.807-12.185V24h3.907V6.645h-5.097l-4.005 10.801-4.053-10.801h-5.195V24zm24.619.267c1.99 0 3.107-.777 3.835-1.796V24h3.423v-8.277c0-3.447-2.209-4.709-5.316-4.709-3.107 0-5.486 1.335-5.704 4.345h3.325c.146-1.092.777-1.796 2.16-1.796 1.602 0 2.063.825 2.063 2.33v.51h-1.432c-3.883 0-6.602 1.116-6.602 4.077 0 2.67 1.942 3.787 4.248 3.787zm1.044-2.452c-1.287 0-1.845-.606-1.845-1.529 0-1.359 1.189-1.796 3.228-1.796h1.359v1.068c0 1.408-1.189 2.257-2.742 2.257zM179.705 24h3.519v-5.995l4.2 5.995h3.98l-4.976-6.918 4.612-5.777h-3.738l-4.078 5.365V5.553h-3.519V24zm18.212.267c3.471 0 5.655-1.53 6.068-4.272h-3.325c-.219 1.068-1.02 1.772-2.646 1.772-1.918 0-3.059-1.214-3.156-3.325h9.151v-.971c0-4.54-2.912-6.457-6.189-6.457-3.69 0-6.53 2.597-6.53 6.602v.194c0 4.054 2.792 6.457 6.627 6.457zm-3.01-7.986c.267-1.796 1.335-2.84 2.913-2.84 1.675 0 2.645.923 2.767 2.84h-5.68zM205.828 24h3.519v-6.36c0-2.427 1.505-3.276 4.102-3.252V11.11c-2.063.024-3.301.922-4.102 2.622v-2.428h-3.519V24z" fill="#fff"/><path d="M61.128 41.566c1.728 0 2.856-1.32 2.856-3.24v-.096c0-1.956-1.212-3.156-2.856-3.156-.912 0-1.764.552-2.124 1.164v-4.056h-.996v9.276h.996v-1.032c.36.624 1.104 1.14 2.124 1.14zm-.096-.828c-1.224 0-2.064-.756-2.064-2.364v-.096c0-1.608.888-2.376 2.052-2.376 1.056 0 1.932.792 1.932 2.376v.096c0 1.524-.672 2.364-1.92 2.364zm5.066 2.904h1.008l3.468-8.46h-1.02l-1.74 4.5-1.92-4.5h-1.068l2.46 5.628-1.188 2.832zm12.048-2.076c1.704 0 2.964-1.092 2.964-2.532 0-1.62-1.008-2.196-2.916-2.496-1.752-.264-2.064-.696-2.064-1.536 0-.804.612-1.392 1.788-1.392 1.188 0 1.812.444 2.016 1.524h.936c-.168-1.524-1.236-2.364-2.952-2.364-1.62 0-2.76 1.008-2.76 2.328 0 1.524 1.068 2.088 2.868 2.364 1.632.264 2.076.672 2.076 1.644 0 .972-.852 1.62-1.956 1.62-1.728 0-2.136-.864-2.268-1.884H74.87c.156 1.464.984 2.724 3.276 2.724zm6.371 0c.924 0 1.488-.312 1.956-.9v.792h.996v-4.14c0-1.752-1.092-2.244-2.292-2.244-1.212 0-2.352.528-2.484 1.956h.996c.096-.768.576-1.128 1.44-1.128.96 0 1.344.42 1.344 1.416v.456h-.9c-1.608 0-3.144.492-3.144 1.944 0 1.284.924 1.848 2.088 1.848zm.096-.792c-.876 0-1.188-.408-1.188-1.056 0-.924.924-1.236 2.184-1.236h.864v.78c0 .972-.804 1.512-1.86 1.512zm4.957.684h1.008v-9.276H89.57v9.276zm5.53.108c.912 0 1.788-.576 2.148-1.188v1.08h.996v-9.276h-.996v4.008c-.36-.612-1.008-1.116-2.052-1.116-1.728 0-2.928 1.356-2.928 3.276v.096c0 1.956 1.188 3.12 2.832 3.12zm.108-.828c-1.056 0-1.908-.756-1.908-2.34v-.096c0-1.524.744-2.4 1.992-2.4 1.224 0 1.992.756 1.992 2.364v.096c0 1.608-.912 2.376-2.076 2.376zm7.787 0c-1.272 0-2.052-.936-2.052-2.364v-.096c0-1.44.792-2.376 2.052-2.376 1.248 0 2.052.936 2.052 2.388v.084c0 1.416-.792 2.364-2.052 2.364zm-.012.828c1.788 0 3.096-1.308 3.096-3.204v-.096c0-1.884-1.308-3.192-3.084-3.192s-3.084 1.32-3.084 3.204v.096c0 1.836 1.284 3.192 3.072 3.192zm7.478-.108h.984l.828-2.472h3.54l.84 2.472h1.032l-2.904-8.58h-1.368l-2.952 8.58zm3.588-7.716l1.488 4.416h-2.976l1.488-4.416zm5.194 9.9h.996v-3.216c.36.624 1.092 1.14 2.124 1.14 1.728 0 2.856-1.32 2.856-3.24v-.096c0-1.956-1.212-3.156-2.856-3.156-.912 0-1.764.552-2.124 1.164v-1.056h-.996v8.46zm3.024-2.904c-1.224 0-2.064-.756-2.064-2.364v-.096c0-1.608.888-2.376 2.052-2.376 1.056 0 1.932.792 1.932 2.376v.096c0 1.524-.672 2.364-1.92 2.364zm4.62 2.904h.996v-3.216c.36.624 1.092 1.14 2.124 1.14 1.728 0 2.856-1.32 2.856-3.24v-.096c0-1.956-1.212-3.156-2.856-3.156-.912 0-1.764.552-2.124 1.164v-1.056h-.996v8.46zm3.024-2.904c-1.224 0-2.064-.756-2.064-2.364v-.096c0-1.608.888-2.376 2.052-2.376 1.056 0 1.932.792 1.932 2.376v.096c0 1.524-.672 2.364-1.92 2.364zm6.563.828c1.524 0 2.304-.768 2.304-1.908 0-1.332-.912-1.62-2.208-1.86-1.152-.204-1.464-.432-1.464-.996 0-.54.468-.9 1.188-.9.792 0 1.176.3 1.32.984h.96c-.168-1.356-1.14-1.812-2.268-1.812-.984 0-2.124.6-2.124 1.764 0 1.092.552 1.548 2.184 1.848.972.18 1.464.396 1.464 1.056 0 .672-.42.996-1.368.996-1.008 0-1.404-.468-1.476-1.212h-.972c.06 1.284.96 2.04 2.46 2.04z" fill="#fff" fill-opacity=".5"/><defs><linearGradient id="paint0_linear" x1="32.444" y1="37.309" x2="37.541" y2="37.309" gradientUnits="userSpaceOnUse"><stop stop-color="#9DC4FE"/><stop offset="1" stop-color="#CEDFFF"/></linearGradient><linearGradient id="paint1_linear" x1="17.477" y1="18.141" x2="30.097" y2="22.486" gradientUnits="userSpaceOnUse"><stop stop-color="#EFDAD5"/><stop offset=".471" stop-color="#DEF1D6"/><stop offset="1" stop-color="#C5E8F0"/></linearGradient><linearGradient id="paint2_linear" x1="12.111" y1="18.993" x2="32.893" y2="22.657" gradientUnits="userSpaceOnUse"><stop stop-color="#fff"/><stop offset="1" stop-color="#96CDFF"/></linearGradient><radialGradient id="paint3_radial" cx="0" cy="0" r="1" gradientUnits="userSpaceOnUse" gradientTransform="matrix(0 33.3335 -67.1486 0 24.11 6.558)"><stop stop-color="#fff"/><stop offset=".863" stop-color="#fff"/><stop offset=".896" stop-color="#E2F0FF"/><stop offset=".943" stop-color="#ADD3FF"/><stop offset="1" stop-color="#61A9FE"/></radialGradient><filter id="filter0_d" x="9.084" y="10.544" width="29.909" height="31.239" filterUnits="userSpaceOnUse" color-interpolation-filters="sRGB"><feFlood flood-opacity="0" result="BackgroundImageFix"/><feColorMatrix in="SourceAlpha" values="0 0 0 0 0 0 0 0 0 0 0 0 0 0 0 0 0 0 127 0" result="hardAlpha"/><feOffset dy="2.695"/><feGaussianBlur stdDeviation=".18"/><feColorMatrix values="0 0 0 0 0 0 0 0 0 0 0 0 0 0 0 0 0 0 1 0"/><feBlend mode="color-dodge" in2="BackgroundImageFix" result="effect1_dropShadow"/><feBlend in="SourceGraphic" in2="effect1_dropShadow" result="shape"/></filter></defs></svg>