<svg width="96" height="111" fill="none" xmlns="http://www.w3.org/2000/svg"><rect x="1.3" y="1.3" width="73.65" height="93.804" rx="5.7" fill="#E6EBF8" stroke="#007AFF" stroke-width="2.1"/><path d="M10.674 71.355h23.898M10.674 77.61h23.898M10.674 19.709h23.898m7.106-6.255h23.898m0 25.713H10.675m-.001-13.204h23.898m7.106 0h23.898M48.137 51.676H10.675m31.003-31.967h23.898m0 25.713H10.675" stroke="#007AFF" stroke-width="2.1"/><circle cx="71.875" cy="86.875" r="22.875" fill="#fff" stroke="#007AFF" stroke-width="2.1"/><path d="M86.5 87.256c0-4.097-2.548-6.756-6.296-6.756-2.016 0-3.703.879-5.56 2.67l-2.763 2.694-2.775-2.694c-1.857-1.791-3.544-2.67-5.56-2.67-3.748 0-6.296 2.659-6.296 6.756S59.798 94 63.546 94c2.016 0 3.703-.867 5.56-2.659l2.775-2.693 2.763 2.693C76.5 93.133 78.188 94 80.204 94c3.748 0 6.296-2.647 6.296-6.744zm-16.058 0l-2.785 2.613c-1.438 1.358-2.684 2.066-4.11 2.066-2.526 0-4.247-1.826-4.247-4.68 0-2.852 1.72-4.69 4.246-4.69 1.427 0 2.673.708 4.11 2.066l2.786 2.625zm2.866 0l2.785-2.625c1.438-1.358 2.684-2.066 4.11-2.066 2.526 0 4.247 1.838 4.247 4.69 0 2.854-1.72 4.68-4.246 4.68-1.427 0-2.661-.708-4.11-2.066l-2.786-2.613z" fill="#007AFF"/></svg>