<svg width="115" height="92" fill="none" xmlns="http://www.w3.org/2000/svg"><rect x="1.55" y="1.8" width="86.4" height="66.15" rx="5.7" fill="#E6EBF8" stroke="#007AFF" stroke-width="2.1"/><path d="M1.55 23.55h86.4v38.7a5.7 5.7 0 01-5.7 5.7h-75a5.7 5.7 0 01-5.7-5.7v-38.7z" fill="#E6EBF8" stroke="#007AFF" stroke-width="2.1"/><path d="M2.375 18.375H87.5" stroke="#007AFF" stroke-width="2.1"/><path d="M11 54h11.25M29 54h11.25m6 0H57.5" stroke="#007AFF" stroke-width="2.85"/><path d="M2.375 23.625H87.5" stroke="#007AFF" stroke-width="2.1"/><circle cx="90.125" cy="67.125" r="22.875" fill="#fff" stroke="#007AFF" stroke-width="2.1"/><path fill-rule="evenodd" clip-rule="evenodd" d="M104.721 67.988h-3.949c.093.877.784 1.159 1.567 1.159.804 0 1.451-.168 1.985-.432v1.509a4.337 4.337 0 01-2.234.5c-1.965 0-3.347-1.136-3.347-3.4 0-1.903 1.171-3.416 3.087-3.416 1.921 0 2.92 1.49 2.92 3.408 0 .182-.02.572-.029.672zm-2.901-2.553c-.505 0-1.063.331-1.063 1.172h2.082c0-.84-.524-1.172-1.019-1.172zm-6.257 5.288c-.705 0-1.136-.272-1.42-.472l-.01 2.104-2.019.395v-8.72h1.842l.04.464a2.403 2.403 0 011.582-.586c1.421 0 2.754 1.181 2.754 3.362 0 2.377-1.323 3.454-2.769 3.454zm-.465-5.156c-.466 0-.754.154-.965.368l.01 2.78c.196.2.48.355.955.355.745 0 1.245-.75 1.245-1.759 0-.977-.51-1.745-1.245-1.745zm-5.762-1.536h2.024v6.56h-2.024v-6.56zm0-2.136l2.024-.395v1.527l-2.024.4v-1.532zm-2.116 4.249v4.448H85.2V64.03h1.813l.059.554c.49-.804 1.504-.64 1.773-.554v1.722c-.255-.077-1.122-.195-1.626.39zm-4.19 2.144c0 1.104 1.274.764 1.53.663v1.527c-.27.137-.755.246-1.417.246a2.175 2.175 0 01-.806-.132 2.055 2.055 0 01-.686-.415 1.882 1.882 0 01-.453-.633 1.765 1.765 0 01-.147-.747l.005-5.984 1.97-.39v1.608h1.538v1.604h-1.533v2.658-.005zm-2.405.318c0 1.35-1.132 2.118-2.808 2.118a5.857 5.857 0 01-2.185-.423v-1.786c.676.341 1.52.596 2.185.596.451 0 .75-.11.75-.455 0-.9-3.067-.563-3.067-2.635 0-1.322 1.117-2.113 2.754-2.113.666 0 1.332.091 2.003.34v1.764a4.805 4.805 0 00-2.008-.482c-.422 0-.706.114-.706.41 0 .84 3.082.44 3.082 2.67v-.004z" fill="#007AFF"/><path fill="#fff" d="M2.75 19.5h84v3h-84z"/></svg>