<svg width="195" height="396" fill="none" xmlns="http://www.w3.org/2000/svg"><path d="M.926 25.88C.926 11.877 12.276.527 26.276.527h141.965c14 0 25.35 11.35 25.35 25.351v344.77c0 14.001-11.35 25.351-25.35 25.351H26.276c-14 0-25.35-11.35-25.35-25.351V25.879z" fill="#3A4245"/><path d="M2.769 25.88c0-12.983 10.524-23.507 23.507-23.507H168.24c12.983 0 23.507 10.524 23.507 23.507v344.769c0 12.983-10.524 23.507-23.507 23.507H26.276c-12.982 0-23.507-10.524-23.507-23.507V25.879zm190.822 123.988h.461c.509 0 .922.682.922 1.524v51.34c0 .842-.413 1.524-.922 1.524h-.461v-54.388zm0-54.85h.461c.509 0 .922.683.922 1.525v24.145c0 .842-.413 1.524-.922 1.524h-.461V95.018z" fill="#121515"/><circle cx="22.82" cy="22.885" r="6.222" fill="#121515"/><path fill-rule="evenodd" clip-rule="evenodd" d="M22.816 27.262a4.379 4.379 0 100-8.757 4.379 4.379 0 000 8.757z" fill="#262C2D"/><path fill-rule="evenodd" clip-rule="evenodd" d="M22.816 25.62a2.737 2.737 0 100-5.473 2.737 2.737 0 000 5.473z" fill="#121515"/><path opacity=".4" fill-rule="evenodd" clip-rule="evenodd" d="M22.816 22.336a.547.547 0 100-1.094.547.547 0 000 1.094z" fill="#636F73"/></svg>