<svg width="195" height="395" fill="none" xmlns="http://www.w3.org/2000/svg"><path fill-rule="evenodd" clip-rule="evenodd" d="M2.85 20.677c-1.467 4.508-1.467 10.078-1.467 21.217v311.212c0 11.14 0 16.709 1.466 21.217a29.944 29.944 0 0019.239 19.212C26.6 395 32.178 395 43.333 395h108.332c11.155 0 16.732 0 21.246-1.465a29.944 29.944 0 0019.238-19.212c1.466-4.508 1.466-10.077 1.466-21.217V41.894c0-11.14 0-16.71-1.466-21.217a29.945 29.945 0 00-19.238-19.212C168.397 0 162.82 0 151.665 0H43.333C32.178 0 26.6 0 22.088 1.465A29.944 29.944 0 002.849 20.677zm60.765 1.42c-4.796 0-8.76-3.854-8.76-8.608V11.14c0-1.297-.996-2.394-2.304-2.394H41.99c-9.486 0-14.229 0-18.001 1.457a21.652 21.652 0 00-12.39 12.373c-1.46 3.768-1.46 8.504-1.46 17.977v313.892c0 9.472 0 14.209 1.46 17.976a21.65 21.65 0 0012.39 12.373c3.773 1.458 8.515 1.458 18 1.458h111.016c9.486 0 14.228 0 18.001-1.458a21.648 21.648 0 0012.389-12.373c1.46-3.767 1.46-8.504 1.46-17.976V40.554c0-9.473 0-14.21-1.46-17.977a21.65 21.65 0 00-12.389-12.373c-3.773-1.457-8.515-1.457-18.001-1.457h-10.561c-1.308 0-2.305 1.097-2.305 2.394v2.348c0 4.754-3.963 8.609-8.759 8.609H63.615z" fill="#213744"/><path fill-rule="evenodd" clip-rule="evenodd" d="M151.851.92H43.149c-11.018 0-16.418.006-20.776 1.42A29.023 29.023 0 003.727 20.962c-1.416 4.35-1.421 9.744-1.421 20.748v311.58c0 11.004.005 16.397 1.421 20.748a29.023 29.023 0 0018.646 18.622c4.358 1.413 9.758 1.419 20.776 1.419h108.702c11.018 0 16.418-.006 20.776-1.419a29.025 29.025 0 0018.646-18.622c1.416-4.351 1.421-9.744 1.421-20.748V41.71c0-11.004-.005-16.397-1.421-20.748A29.024 29.024 0 00172.627 2.34C168.269.926 162.869.92 151.851.92zM3.289 20.82c-1.444 4.438-1.444 9.921-1.444 20.89v311.58c0 10.968 0 16.452 1.444 20.89a29.482 29.482 0 0018.942 18.917c4.444 1.442 9.936 1.442 20.918 1.442h108.702c10.982 0 16.474 0 20.918-1.442a29.48 29.48 0 0018.942-18.917c1.444-4.438 1.444-9.922 1.444-20.89V41.71c0-10.969 0-16.453-1.444-20.89a29.482 29.482 0 00-18.942-18.918C168.325.46 162.833.46 151.851.46H43.149c-10.982 0-16.474 0-20.918 1.442A29.484 29.484 0 003.289 20.82z" fill="#8EADC1"/><path fill-rule="evenodd" clip-rule="evenodd" d="M5.043 21.389C3.69 25.549 3.69 30.69 3.69 40.973v313.054c0 10.283 0 15.424 1.354 19.585a27.64 27.64 0 0017.759 17.734c4.166 1.352 9.314 1.352 19.61 1.352H152.59c10.296 0 15.445 0 19.611-1.352a27.638 27.638 0 0017.758-17.734c1.354-4.161 1.354-9.302 1.354-19.585V40.973c0-10.282 0-15.424-1.354-19.584A27.64 27.64 0 00172.2 3.654c-4.166-1.352-9.315-1.352-19.611-1.352H42.413c-10.297 0-15.445 0-19.611 1.352A27.64 27.64 0 005.043 21.389zm58.572.709c-4.796 0-8.758-3.855-8.758-8.61v-2.347c0-1.297-.997-2.394-2.305-2.394H41.99c-9.485 0-14.228 0-18 1.457A21.652 21.652 0 0011.6 22.578c-1.46 3.768-1.46 8.504-1.46 17.977v313.892c0 9.472 0 14.209 1.46 17.976a21.65 21.65 0 0012.39 12.373c3.772 1.458 8.515 1.458 18 1.458h111.016c9.485 0 14.228 0 18.001-1.458a21.648 21.648 0 0012.389-12.373c1.46-3.767 1.46-8.504 1.46-17.976V40.554c0-9.473 0-14.21-1.46-17.977a21.65 21.65 0 00-12.389-12.373c-3.773-1.457-8.516-1.457-18.001-1.457h-10.561c-1.308 0-2.305 1.097-2.305 2.394v2.348c0 4.754-3.963 8.609-8.759 8.609H63.615z" fill="#121515"/><path d="M193.617 110.489h.692a.69.69 0 01.691.691v41.433a.69.69 0 01-.691.691h-.692v-42.815zM1.383 162.512H.69a.691.691 0 01-.691-.691v-25.78c0-.382.31-.691.691-.691h.692v27.162zm0-34.528H.69a.69.69 0 01-.691-.69v-25.781c0-.381.31-.691.691-.691h.692v27.162zm0-39.132H.69a.691.691 0 01-.691-.69v-11.51c0-.381.31-.69.691-.69h.692v12.89z" fill="#213744"/><path fill-rule="evenodd" clip-rule="evenodd" d="M115.247 17.033a3.224 3.224 0 003.227-3.223 3.224 3.224 0 00-3.227-3.222 3.224 3.224 0 00-3.226 3.223 3.224 3.224 0 003.226 3.222z" fill="#262C2D"/><path fill-rule="evenodd" clip-rule="evenodd" d="M115.247 15.825a2.016 2.016 0 002.017-2.014 2.016 2.016 0 00-2.017-2.014 2.016 2.016 0 00-2.017 2.014c0 1.112.903 2.014 2.017 2.014z" fill="#121515"/><path opacity=".4" fill-rule="evenodd" clip-rule="evenodd" d="M115.247 13.408a.403.403 0 100-.806.403.403 0 000 .806z" fill="#636F73"/><path fill-rule="evenodd" clip-rule="evenodd" d="M87.587 13.812a1.38 1.38 0 011.381-1.381h17.06a1.38 1.38 0 110 2.762h-17.06a1.381 1.381 0 01-1.381-1.381z" fill="#262C2D"/></svg>