<svg width="196" height="396" fill="none" xmlns="http://www.w3.org/2000/svg"><path d="M194.089 110.621h.691c.382 0 .692.309.692.691v41.483c0 .382-.31.691-.692.691h-.691v-42.865zM1.883 162.706h-.691a.692.692 0 01-.691-.692v-25.811c0-.382.31-.692.69-.692h.692v27.195zm0-34.569h-.691a.692.692 0 01-.691-.692v-25.811c0-.382.31-.692.69-.692h.692v27.195zm0-39.179h-.691a.691.691 0 01-.691-.691V76.744c0-.382.31-.692.69-.692h.692v12.906z" fill="#213744"/><path d="M1.883 41.944c0-11.153 0-16.73 1.467-21.242A29.96 29.96 0 0122.585 1.466C27.098 0 32.675 0 43.827 0h108.317c11.153 0 16.729 0 21.242 1.466a29.962 29.962 0 0119.236 19.236c1.466 4.513 1.466 10.09 1.466 21.242v311.583c0 11.153 0 16.73-1.466 21.242a29.963 29.963 0 01-19.236 19.236c-4.513 1.466-10.089 1.466-21.242 1.466H43.827c-11.153 0-16.729 0-21.242-1.466A29.962 29.962 0 013.35 374.769c-1.467-4.512-1.467-10.089-1.467-21.242V41.944z" fill="#213744"/><path fill-rule="evenodd" clip-rule="evenodd" d="M152.329.922H43.643c-11.017 0-16.416.006-20.773 1.421A29.038 29.038 0 004.227 20.987C2.81 25.343 2.806 30.743 2.806 41.76v311.952c0 11.017.005 16.416 1.42 20.773a29.037 29.037 0 0018.645 18.643c4.356 1.416 9.755 1.421 20.772 1.421H152.33c11.017 0 16.416-.005 20.773-1.421a29.036 29.036 0 0018.643-18.643c1.416-4.357 1.422-9.756 1.422-20.773V41.76c0-11.017-.006-16.417-1.422-20.773a29.037 29.037 0 00-18.643-18.644C168.745.928 163.346.922 152.329.922zM3.789 20.844c-1.444 4.444-1.444 9.934-1.444 20.916v311.952c0 10.981 0 16.472 1.444 20.915a29.499 29.499 0 0018.939 18.94c4.444 1.443 9.934 1.443 20.915 1.443H152.33c10.981 0 16.472 0 20.915-1.443a29.499 29.499 0 0018.94-18.94c1.443-4.443 1.443-9.934 1.443-20.915V41.76c0-10.982 0-16.472-1.443-20.916a29.499 29.499 0 00-18.94-18.94C168.801.462 163.31.462 152.329.462H43.643c-10.98 0-16.471 0-20.915 1.444a29.499 29.499 0 00-18.94 18.94z" fill="#8EADC1"/><path d="M4.188 41.022c0-10.295 0-15.442 1.354-19.608A27.655 27.655 0 0123.297 3.658c4.166-1.353 9.314-1.353 19.609-1.353h110.16c10.295 0 15.442 0 19.608 1.353a27.657 27.657 0 0117.756 17.756c1.353 4.166 1.353 9.313 1.353 19.608V354.45c0 10.295 0 15.443-1.353 19.608a27.655 27.655 0 01-17.756 17.756c-4.166 1.354-9.313 1.354-19.608 1.354H42.906c-10.295 0-15.443 0-19.609-1.354a27.653 27.653 0 01-17.755-17.756c-1.354-4.165-1.354-9.313-1.354-19.608V41.022z" fill="#121515"/><path d="M153.067 0h2.765v2.305h-2.765V0zm38.716 39.64h2.304v2.765h-2.304v-2.766zm-189.899 0h2.304v2.765H1.884v-2.766zm0 313.426h2.304v2.765H1.884v-2.765zm189.899 0h2.304v2.765h-2.304v-2.765zM40.14 393.167h2.766v2.305H40.14v-2.305z" fill="#36454C"/><path fill-rule="evenodd" clip-rule="evenodd" d="M115.73 17.053a3.227 3.227 0 100-6.453 3.227 3.227 0 000 6.454z" fill="#262C2D"/><path fill-rule="evenodd" clip-rule="evenodd" d="M115.73 15.844a2.017 2.017 0 100-4.034 2.017 2.017 0 000 4.034z" fill="#121515"/><path opacity=".4" fill-rule="evenodd" clip-rule="evenodd" d="M115.73 13.424a.404.404 0 100-.808.404.404 0 000 .808z" fill="#636F73"/><path fill-rule="evenodd" clip-rule="evenodd" d="M88.074 13.828c0-.764.62-1.383 1.383-1.383h17.054a1.383 1.383 0 110 2.766H89.457a1.383 1.383 0 01-1.383-1.383z" fill="#262C2D"/></svg>