<svg width="44" height="45" fill="none" xmlns="http://www.w3.org/2000/svg"><path d="M35.301 16.215h-26.6v-11.9a4.2 4.2 0 014.2-4.2h18.2a4.2 4.2 0 014.2 4.2v11.9zm-22.4-4.2h18.2v-7.7h-18.2v7.7z" fill="#007AFF"/><path d="M37.4 38.615h-5.683v-4.2H37.4a2.1 2.1 0 002.1-2.1v-14a2.1 2.1 0 00-2.1-2.1H6.6a2.1 2.1 0 00-2.1 2.1v14a2.1 2.1 0 002.1 2.1h5.6v4.2H6.6a6.3 6.3 0 01-6.3-6.3v-14a6.3 6.3 0 016.3-6.3h30.8a6.3 6.3 0 016.3 6.3v14a6.3 6.3 0 01-6.3 6.3z" fill="#007AFF"/><path d="M35.678 44.915H8.322l2.8-16.8h21.756l2.8 16.8zm-22.4-4.2h17.444l-1.4-8.4H14.678l-1.4 8.4zm-1.078-18.9a2.1 2.1 0 10-4.2 0 2.1 2.1 0 004.2 0z" fill="#007AFF"/></svg>