<svg width="44" height="44" fill="none" xmlns="http://www.w3.org/2000/svg"><path d="M.3 37.615a6.3 6.3 0 006.3 6.3h30.8a6.3 6.3 0 006.3-6.3v-21a6.3 6.3 0 00-6.3-6.3h-4.9v-4.9a4.9 4.9 0 00-4.9-4.9H16.4a4.9 4.9 0 00-4.9 4.9v4.9H6.6a6.3 6.3 0 00-6.3 6.3v21zm37.1 2.1H6.6a2.1 2.1 0 01-2.1-2.1V25.204a34.153 34.153 0 0015.4 4.648v4.263h4.2v-4.263a34.153 34.153 0 0015.4-4.648v12.41a2.1 2.1 0 01-2.1 2.1zm-21.7-34.3a.7.7 0 01.7-.7h11.2a.7.7 0 01.7.7v4.9H15.7v-4.9zm-9.1 9.1h30.8a2.1 2.1 0 012.1 2.1v3.5l-.608.49c-.091.02-5.691 4.41-14.791 5.033v-3.423h-4.2v3.423A29.036 29.036 0 015.11 20.57l-.61-.455v-3.5a2.1 2.1 0 012.1-2.1z" fill="#007AFF"/></svg>