<svg width="24" height="29" viewBox="0 0 24 29" fill="none" xmlns="http://www.w3.org/2000/svg">
	<path d="M12 19.874C12.2539 19.874 12.4824 19.7979 12.7363 19.5439L17.0273 15.3926C17.2178 15.2021 17.3193 14.999 17.3193 14.7324C17.3193 14.2119 16.9258 13.8438 16.3926 13.8438C16.1514 13.8438 15.8848 13.9453 15.707 14.1484L13.79 16.1924L12.9268 17.0938L13.0029 15.1895V1.80859C13.0029 1.27539 12.5459 0.818359 12 0.818359C11.4541 0.818359 10.9844 1.27539 10.9844 1.80859V15.1895L11.0732 17.0938L10.21 16.1924L8.28027 14.1484C8.10254 13.9453 7.83594 13.8438 7.58203 13.8438C7.06152 13.8438 6.66797 14.2119 6.66797 14.7324C6.66797 14.999 6.78223 15.2021 6.97266 15.3926L11.2637 19.5439C11.5176 19.7979 11.7461 19.874 12 19.874ZM4.71289 28.2275H19.2744C21.9277 28.2275 23.2607 26.9072 23.2607 24.292V11.6221C23.2607 9.00684 21.9277 7.68652 19.2744 7.68652H15.7324V9.73047H19.2363C20.4932 9.73047 21.2168 10.416 21.2168 11.7363V24.1777C21.2168 25.498 20.4932 26.1836 19.2363 26.1836H4.73828C3.46875 26.1836 2.77051 25.498 2.77051 24.1777V11.7363C2.77051 10.416 3.46875 9.73047 4.73828 9.73047H8.25488V7.68652H4.71289C2.05957 7.68652 0.726562 9.00684 0.726562 11.6221V24.292C0.726562 26.9072 2.05957 28.2275 4.71289 28.2275Z" fill="#007AFF"/>
</svg>
