<svg width="25" height="31" viewBox="0 0 25 31" fill="none" xmlns="http://www.w3.org/2000/svg">
	<path d="M4.47168 27.9736H11.4287C10.7686 27.4023 10.1973 26.7041 9.77832 25.9297H4.58594C3.27832 25.9297 2.58008 25.2568 2.58008 23.9873V4.7666C2.58008 3.52246 3.26562 2.79883 4.58594 2.79883H17.8525C19.1221 2.79883 19.8457 3.50977 19.8457 4.7666V15.8496C20.6201 16.2686 21.3184 16.8271 21.8896 17.5V4.74121C21.8896 2.0752 20.582 0.754883 17.9541 0.754883H4.47168C1.85645 0.754883 0.536133 2.08789 0.536133 4.74121V23.9873C0.536133 26.6533 1.85645 27.9736 4.47168 27.9736ZM6.41406 7.97852H16.0371C16.4814 7.97852 16.8242 7.62305 16.8242 7.17871C16.8242 6.74707 16.4814 6.41699 16.0371 6.41699H6.41406C5.94434 6.41699 5.61426 6.74707 5.61426 7.17871C5.61426 7.62305 5.94434 7.97852 6.41406 7.97852ZM6.41406 12.3965H16.0371C16.4814 12.3965 16.8242 12.0537 16.8242 11.6094C16.8242 11.1777 16.4814 10.835 16.0371 10.835H6.41406C5.94434 10.835 5.61426 11.1777 5.61426 11.6094C5.61426 12.0537 5.94434 12.3965 6.41406 12.3965ZM16.1895 27.9736C17.332 27.9736 18.4111 27.6309 19.2998 27.0469L22.1562 29.9033C22.4609 30.208 22.7402 30.3223 23.083 30.3223C23.667 30.3223 24.1113 29.8652 24.1113 29.2178C24.1113 28.9385 23.9717 28.6592 23.7559 28.4434L20.8613 25.5361C21.5088 24.6094 21.8896 23.4922 21.8896 22.2734C21.8896 19.0996 19.3379 16.5479 16.1895 16.5479C13.041 16.5479 10.4639 19.125 10.4639 22.2734C10.4639 25.4219 13.041 27.9736 16.1895 27.9736ZM16.1895 26.1582C14.0312 26.1582 12.2793 24.4062 12.2793 22.2734C12.2793 20.1406 14.0312 18.376 16.1895 18.376C18.3096 18.376 20.0615 20.1406 20.0615 22.2734C20.0615 24.4062 18.3223 26.1582 16.1895 26.1582Z" fill="#007AFF"/>
</svg>
