<svg width="40" height="57" viewBox="0 0 40 57" fill="none" xmlns="http://www.w3.org/2000/svg">
	<circle cx="20" cy="12" r="11" fill="#F4F4F6"/>
	<path d="M38.5 55L1.0782 54.501L0 38L2.5 32C3.66667 29.6667 9.2 25 22 25C34.8 25 38 33.6667 38 38L38.5 55Z" fill="white"/>
	<path d="M40 38.4703C40 28.1304 28.6825 23.1473 22.2023 24.2225C27.8725 23.169 32.1806 18.1871 32.1806 12.2155C32.1806 5.47975 26.702 0 19.9662 0C13.2305 0 7.75072 5.47975 7.75072 12.2155C7.75072 18.1871 12.0588 23.169 17.729 24.2225C12.0817 23.5885 0 27.4144 0 38.4703V56.2608H40V38.4703ZM9.63356 12.2155C9.63356 6.5188 14.2683 1.88404 19.9662 1.88404C25.6642 1.88404 30.2977 6.52001 30.2977 12.2155C30.2977 17.911 25.663 22.547 19.9662 22.547C14.2695 22.547 9.63356 17.911 9.63356 12.2155ZM38.116 54.3768H31.2934V37.5277C31.2934 37.007 30.8715 36.5863 30.352 36.5863C29.8324 36.5863 29.4106 37.0082 29.4106 37.5277V54.378H10.5894V37.5277C10.5894 37.007 10.1675 36.5863 9.64802 36.5863C9.12729 36.5863 8.7066 37.0082 8.7066 37.5277V54.378H1.88404V38.4703C1.88404 32.3192 6.8756 25.6449 20 25.6449C33.2425 25.6449 38.116 32.0166 38.116 38.4703V54.3768Z" fill="#AEAEBC"/>
</svg>
