<svg width="40" height="57" viewBox="0 0 40 57" fill="none" xmlns="http://www.w3.org/2000/svg">
	<circle cx="20" cy="12" r="11" fill="#F4F4F6"/>
	<path d="M38.5 55L1.0782 54.501L0 38L2.5 32C3.66667 29.6667 9.2 25 22 25C34.8 25 38 33.6667 38 38L38.5 55Z" fill="white"/>
	<path d="M40 38.4703C40 28.1304 28.6825 23.1473 22.2023 24.2225C27.8725 23.169 32.1806 18.1871 32.1806 12.2155C32.1806 5.47975 26.702 0 19.9662 0C13.2305 0 7.75072 5.47975 7.75072 12.2155C7.75072 18.1871 12.0588 23.169 17.729 24.2225C12.0817 23.5885 0 27.4144 0 38.4703V56.2608H40V38.4703ZM9.63356 12.2155C9.63356 6.5188 14.2683 1.88404 19.9662 1.88404C25.6642 1.88404 30.2977 6.52001 30.2977 12.2155C30.2977 17.911 25.663 22.547 19.9662 22.547C14.2695 22.547 9.63356 17.911 9.63356 12.2155ZM38.116 54.3768H31.2934V37.5277C31.2934 37.007 30.8715 36.5863 30.352 36.5863C29.8324 36.5863 29.4106 37.0082 29.4106 37.5277V54.378H10.5894V37.5277C10.5894 37.007 10.1675 36.5863 9.64802 36.5863C9.12729 36.5863 8.7066 37.0082 8.7066 37.5277V54.378H1.88404V38.4703C1.88404 32.3192 6.8756 25.6449 20 25.6449C33.2425 25.6449 38.116 32.0166 38.116 38.4703V54.3768Z" fill="#AEAEBC"/>
	<path d="M22.8639 25.75L20 29.7184L17.1361 25.75L22.8639 25.75Z" fill="white" stroke="#AEAEBC" stroke-width="1.5"/>
	<mask id="path-5-inside-1" fill="white">
		<path fill-rule="evenodd" clip-rule="evenodd" d="M24.2453 41.5L20 29L15.7548 41.5H15.6699L15.7234 41.5926L15.6699 41.75H15.8143L18.268 46C19.0378 47.3333 20.9623 47.3333 21.7321 46L24.1858 41.75H24.3302L24.2767 41.5926L24.3302 41.5H24.2453Z"/>
	</mask>
	<path fill-rule="evenodd" clip-rule="evenodd" d="M24.2453 41.5L20 29L15.7548 41.5H15.6699L15.7234 41.5926L15.6699 41.75H15.8143L18.268 46C19.0378 47.3333 20.9623 47.3333 21.7321 46L24.1858 41.75H24.3302L24.2767 41.5926L24.3302 41.5H24.2453Z" fill="white"/>
	<path d="M20 29L21.4204 28.5176L20 24.3355L18.5797 28.5176L20 29ZM24.2453 41.5L22.8249 41.9824L23.1706 43H24.2453V41.5ZM15.7548 41.5V43H16.8295L17.1752 41.9824L15.7548 41.5ZM15.6699 41.5V40H13.0719L14.3709 42.25L15.6699 41.5ZM15.7234 41.5926L17.1437 42.075L17.3623 41.4313L17.0224 40.8426L15.7234 41.5926ZM15.6699 41.75L14.2496 41.2676L13.5763 43.25H15.6699V41.75ZM15.8143 41.75L17.1133 41L16.6803 40.25H15.8143V41.75ZM18.268 46L19.567 45.25L18.268 46ZM21.7321 46L20.4331 45.25L21.7321 46ZM24.1858 41.75V40.25H23.3198L22.8868 41L24.1858 41.75ZM24.3302 41.75V43.25H26.4237L25.7505 41.2676L24.3302 41.75ZM24.2767 41.5926L22.9777 40.8426L22.6378 41.4313L22.8564 42.075L24.2767 41.5926ZM24.3302 41.5L25.6292 42.25L26.9283 40H24.3302V41.5ZM18.5797 29.4824L22.8249 41.9824L25.6656 41.0176L21.4204 28.5176L18.5797 29.4824ZM17.1752 41.9824L21.4204 29.4824L18.5797 28.5176L14.3345 41.0176L17.1752 41.9824ZM15.6699 43H15.7548V40H15.6699V43ZM17.0224 40.8426L16.969 40.75L14.3709 42.25L14.4243 42.3426L17.0224 40.8426ZM17.0902 42.2324L17.1437 42.075L14.3031 41.1102L14.2496 41.2676L17.0902 42.2324ZM15.8143 40.25H15.6699V43.25H15.8143V40.25ZM19.567 45.25L17.1133 41L14.5152 42.5L16.969 46.75L19.567 45.25ZM20.4331 45.25C20.2406 45.5833 19.7595 45.5833 19.567 45.25L16.969 46.75C18.3161 49.0833 21.684 49.0833 23.0311 46.75L20.4331 45.25ZM22.8868 41L20.4331 45.25L23.0311 46.75L25.4849 42.5L22.8868 41ZM24.3302 40.25H24.1858V43.25H24.3302V40.25ZM22.8564 42.075L22.9099 42.2324L25.7505 41.2676L25.697 41.1102L22.8564 42.075ZM23.0311 40.75L22.9777 40.8426L25.5758 42.3426L25.6292 42.25L23.0311 40.75ZM24.2453 43H24.3302V40H24.2453V43Z" fill="#AEAEBC" mask="url(#path-5-inside-1)"/>
</svg>
