<svg width="43" height="43" viewBox="0 0 43 43" fill="none" xmlns="http://www.w3.org/2000/svg">
<path d="M27.733 3.89905L26.2 5.43205L21.874 1.10605C21.3513 0.597213 20.6505 0.312491 19.921 0.312491C19.1915 0.312491 18.4908 0.597213 17.968 1.10605L15.063 3.99705C13.724 5.32605 12.8312 7.03836 12.508 8.89705C12.0104 8.71216 11.4704 8.67256 10.9511 8.78287C10.4318 8.89317 9.95455 9.14884 9.57502 9.52005L6.67002 12.4111C5.81326 13.2649 5.13347 14.2795 4.66963 15.3966C4.2058 16.5138 3.96704 17.7115 3.96704 18.9211C3.96704 20.1306 4.2058 21.3283 4.66963 22.4455C5.13347 23.5626 5.81326 24.5772 6.67002 25.4311L10.66 29.4211L0.916016 39.1161L3.88402 42.0841L13.6 32.3681L17.604 36.4001C18.4562 37.2527 19.4692 37.9276 20.5844 38.3854C21.6996 38.8432 22.8946 39.0749 24.1 39.0671C25.3096 39.0704 26.5077 38.8325 27.6243 38.3674C28.7409 37.9022 29.7535 37.2191 30.603 36.3581L33.494 33.4531C33.8652 33.0735 34.1209 32.5963 34.2312 32.077C34.3415 31.5577 34.3019 31.0177 34.117 30.5201C35.9757 30.1969 37.688 29.3041 39.017 27.9651L41.908 25.0601C42.4169 24.5373 42.7016 23.8366 42.7016 23.1071C42.7016 22.3775 42.4169 21.6768 41.908 21.1541L37.568 16.8001L39.101 15.2671C40.3411 14.0349 41.3244 12.5689 41.9937 10.9539C42.6629 9.33896 43.005 7.60721 43 5.85906V5.37958e-05H37.141C35.3929 -0.00493522 33.6611 0.337134 32.0462 1.00643C30.4312 1.67572 28.9652 2.65893 27.733 3.89905ZM18.024 7.00005L19.9 5.08905L23.897 9.10005C24.8327 10.0371 25.3583 11.3073 25.3583 12.6316C25.3583 13.9558 24.8327 15.226 23.897 16.1631L20.957 19.1031C20.6054 17.3607 19.7513 15.7595 18.5 14.4971L18.045 14.0421C17.5806 13.5779 17.2123 13.0268 16.9609 12.4203C16.7096 11.8137 16.5803 11.1636 16.5803 10.5071C16.5803 9.8505 16.7096 9.20037 16.9609 8.59383C17.2123 7.98728 17.5806 7.43619 18.045 6.97205L18.024 7.00005ZM8.14702 18.9001C8.15001 18.2487 8.28139 17.6043 8.53362 17.0037C8.78586 16.4032 9.15401 15.8582 9.61702 15.4001L11.5 13.4891L15.497 17.5001C16.4327 18.4371 16.9583 19.7073 16.9583 21.0316C16.9583 22.3558 16.4327 23.626 15.497 24.5631L13.6 26.4321L9.61002 22.4421C9.14357 21.9781 8.77401 21.426 8.52285 20.818C8.27169 20.2099 8.14394 19.5579 8.14702 18.9001ZM27.642 33.3901C26.7163 34.3245 25.4574 34.8532 24.142 34.8601C22.8277 34.8551 21.5689 34.3289 20.642 33.3971L16.582 29.4001L18.5 27.5171C19.438 26.5831 20.7078 26.0587 22.0315 26.0587C23.3552 26.0587 24.625 26.5831 25.563 27.5171L29.532 31.5001L27.642 33.3901ZM36.042 24.9901C35.5779 25.4544 35.0268 25.8228 34.4202 26.0741C33.8137 26.3255 33.1636 26.4548 32.507 26.4548C31.8505 26.4548 31.2003 26.3255 30.5938 26.0741C29.9872 25.8228 29.4362 25.4544 28.972 24.9901L28.517 24.5351C27.263 23.2797 25.6693 22.4184 23.932 22.0571L26.9 19.1171C27.838 18.1831 29.1078 17.6587 30.4315 17.6587C31.7552 17.6587 33.025 18.1831 33.963 19.1171L37.932 23.1001L36.042 24.9901ZM38.8 5.85906C38.8027 7.05437 38.5683 8.23836 38.1105 9.34255C37.6528 10.4467 36.9806 11.4492 36.133 12.2921L34.166 14.2591C32.7087 13.6072 31.1073 13.3443 29.518 13.4961C29.546 13.1974 29.56 12.8964 29.56 12.5931C29.5583 11.2915 29.2791 10.0052 28.741 8.82005L30.701 6.86005C31.5453 6.01287 32.5491 5.34156 33.6546 4.88497C34.76 4.42838 35.945 4.19558 37.141 4.20005H38.8V5.85906Z" fill="#CFDBEC"/>
</svg>
