<svg width="46" height="40" viewBox="0 0 46 40" fill="none" xmlns="http://www.w3.org/2000/svg">
<path d="M8.30057 15.8006C8.89236 15.7983 9.48192 15.7279 10.0576 15.5906L16.6796 27.4906C15.8751 28.6451 15.4023 29.998 15.3127 31.4023C15.2231 32.8066 15.52 34.2086 16.1711 35.456C16.8223 36.7034 17.8028 37.7485 19.0063 38.4779C20.2097 39.2072 21.5899 39.5928 22.9971 39.5928C24.4042 39.5928 25.7845 39.2072 26.9879 38.4779C28.1913 37.7485 29.1718 36.7034 29.823 35.456C30.4742 34.2086 30.7711 32.8066 30.6814 31.4023C30.5918 29.998 30.119 28.6451 29.3146 27.4906L35.9366 15.5906C37.3741 15.9302 38.8791 15.8491 40.2719 15.3571C41.6646 14.865 42.8865 13.9827 43.7917 12.8154C44.6969 11.6481 45.2472 10.2451 45.3771 8.77366C45.5069 7.30223 45.2108 5.8245 44.524 4.51672C43.8372 3.20895 42.7887 2.12632 41.5036 1.39797C40.2185 0.66962 38.751 0.326282 37.2762 0.408909C35.8013 0.491536 34.3814 0.996638 33.1857 1.86398C31.99 2.73131 31.069 3.92428 30.5326 5.30058H15.4686C14.959 3.99522 14.1029 2.85365 12.9925 1.99891C11.882 1.14416 10.5594 0.60864 9.16712 0.450053C7.77483 0.291466 6.36566 0.515826 5.09146 1.09896C3.81725 1.68209 2.72634 2.60188 1.93627 3.75921C1.14619 4.91654 0.686924 6.26753 0.607945 7.6666C0.528966 9.06567 0.833273 10.4598 1.48807 11.6987C2.14288 12.9376 3.12334 13.9743 4.32382 14.6971C5.5243 15.4199 6.89927 15.8015 8.30057 15.8006ZM23.0006 35.4006C22.3083 35.4006 21.6316 35.1953 21.0561 34.8107C20.4805 34.4261 20.0319 33.8795 19.767 33.24C19.5021 32.6004 19.4328 31.8967 19.5678 31.2178C19.7029 30.5388 20.0362 29.9152 20.5257 29.4257C21.0152 28.9362 21.6388 28.6029 22.3177 28.4678C22.9967 28.3328 23.7004 28.4021 24.34 28.667C24.9795 28.9319 25.5261 29.3805 25.9107 29.9561C26.2953 30.5317 26.5006 31.2083 26.5006 31.9006C26.5006 32.8288 26.1318 33.7191 25.4754 34.3755C24.8191 35.0318 23.9288 35.4006 23.0006 35.4006ZM37.7006 4.60058C38.3928 4.60058 39.0695 4.80585 39.6451 5.19044C40.2206 5.57502 40.6692 6.12165 40.9341 6.76119C41.199 7.40073 41.2684 8.10446 41.1333 8.7834C40.9983 9.46233 40.6649 10.086 40.1754 10.5755C39.686 11.0649 39.0623 11.3983 38.3834 11.5333C37.7044 11.6684 37.0007 11.5991 36.3612 11.3342C35.7216 11.0693 35.175 10.6206 34.7904 10.0451C34.4058 9.46951 34.2006 8.79282 34.2006 8.10058C34.2006 7.17232 34.5693 6.28208 35.2257 5.62571C35.8821 4.96933 36.7723 4.60058 37.7006 4.60058ZM15.8676 9.50058H30.1336C30.4078 11.0328 31.14 12.4459 32.2336 13.5536L26.0106 24.8166C25.0576 24.4113 24.0326 24.2024 22.9971 24.2024C21.9615 24.2024 20.9365 24.4113 19.9836 24.8166L13.7326 13.5536C14.8389 12.4505 15.5836 11.0369 15.8676 9.50058ZM8.30057 4.60058C8.9928 4.60058 9.66949 4.80585 10.2451 5.19044C10.8206 5.57502 11.2692 6.12165 11.5341 6.76119C11.7991 7.40073 11.8684 8.10446 11.7333 8.7834C11.5983 9.46233 11.2649 10.086 10.7754 10.5755C10.286 11.0649 9.66232 11.3983 8.98339 11.5333C8.30445 11.6684 7.60072 11.5991 6.96118 11.3342C6.32163 11.0693 5.77501 10.6206 5.39042 10.0451C5.00584 9.46951 4.80057 8.79282 4.80057 8.10058C4.80057 7.17232 5.16932 6.28208 5.8257 5.62571C6.48207 4.96933 7.37231 4.60058 8.30057 4.60058Z" fill="#CFDBEC"/>
</svg>
