<svg width="46" height="46" viewBox="0 0 46 46" fill="none" xmlns="http://www.w3.org/2000/svg">
<path d="M36.8316 0.600111C35.4631 0.59773 34.1139 0.922378 32.8963 1.54701C31.6787 2.17165 30.6279 3.07818 29.8316 4.19111L18.3866 20.2491C18.0576 20.2001 17.7286 20.2001 17.3996 20.2001C14.4292 20.2001 11.5804 21.3801 9.48001 23.4805C7.3796 25.5809 6.19961 28.4297 6.19961 31.4001C6.19961 32.8853 5.60961 34.3097 4.55941 35.3599C3.5092 36.4101 2.08482 37.0001 0.599609 37.0001C0.599609 37.0001 4.79961 45.4001 14.5996 45.4001C23.6996 45.4001 28.5646 38.4561 28.5996 31.4841C28.5996 31.8831 28.5996 32.8841 28.5996 32.8841C28.6016 32.8608 28.6016 32.8374 28.5996 32.8141C28.6453 32.3486 28.6453 31.8797 28.5996 31.4141C28.5951 30.5245 28.4847 29.6386 28.2706 28.7751L42.5436 16.0001C43.442 15.1953 44.1607 14.2102 44.6528 13.109C45.1449 12.0078 45.3994 10.8153 45.3996 9.60911V9.17511C45.3978 6.90266 44.4947 4.72371 42.8885 3.11619C41.2823 1.50866 39.1041 0.603817 36.8316 0.600111ZM24.3996 31.4631C24.3996 36.1531 21.2986 41.2001 14.5996 41.2001C11.9233 41.216 9.32838 40.2808 7.27761 38.5611C8.26119 37.6453 9.04591 36.5371 9.58299 35.3051C10.1201 34.0732 10.398 32.744 10.3996 31.4001C10.3996 29.5436 11.1371 27.7631 12.4499 26.4504C13.7626 25.1376 15.5431 24.4001 17.3996 24.4001C19.2561 24.4001 21.0366 25.1376 22.3494 26.4504C23.6621 27.7631 24.3996 29.5436 24.3996 31.4001V31.4631ZM41.1996 9.60911C41.1991 10.2235 41.0691 10.8309 40.8183 11.3917C40.5674 11.9525 40.2012 12.4542 39.7436 12.8641L26.4436 24.7641C25.4478 23.4027 24.1582 22.283 22.6706 21.4881L33.2756 6.62711C33.8134 5.87321 34.5769 5.30972 35.4558 5.01804C36.3347 4.72635 37.2836 4.72154 38.1654 5.00432C39.0472 5.2871 39.8164 5.84282 40.3617 6.59124C40.9071 7.33966 41.2005 8.24205 41.1996 9.16811V9.60911Z" fill="#CFDBEC"/>
</svg>
