<svg width="44" height="44" viewBox="0 0 44 44" fill="none" xmlns="http://www.w3.org/2000/svg">
<path d="M11.5008 23.9183V30.4003C11.5214 33.7537 12.8081 36.9754 15.1031 39.4205C17.3981 41.8656 20.532 43.3535 23.8774 43.5863C27.2227 43.819 30.5325 42.7795 33.144 40.6758C35.7555 38.572 37.4759 35.5595 37.9608 32.2413C39.7586 31.7702 41.3253 30.6648 42.3719 29.129C43.4185 27.5932 43.8743 25.7307 43.6552 23.8852C43.4362 22.0397 42.557 20.3356 41.18 19.0875C39.803 17.8394 38.021 17.1315 36.1629 17.0943C34.3048 17.0572 32.4959 17.6933 31.0701 18.8853C29.6442 20.0774 28.6977 21.7449 28.405 23.5802C28.1123 25.4155 28.4933 27.2947 29.4776 28.8711C30.462 30.4475 31.9833 31.6147 33.7608 32.1573C33.3628 34.4139 32.1282 36.4372 30.3036 37.8233C28.4789 39.2093 26.1985 39.856 23.9179 39.6341C21.6373 39.4122 19.5243 38.3382 18.001 36.6264C16.4778 34.9147 15.6563 32.6912 15.7008 30.4003V23.9183C18.8219 23.4192 21.6633 21.8249 23.7156 19.4211C25.768 17.0173 26.8972 13.9611 26.9008 10.8003V2.40029C26.9008 1.84334 26.6795 1.30919 26.2857 0.915368C25.8919 0.521542 25.3577 0.300293 24.8008 0.300293H19.2008V4.50029H22.7008V10.8003C22.7008 13.2138 21.742 15.5284 20.0355 17.235C18.3289 18.9415 16.0143 19.9003 13.6008 19.9003C11.1873 19.9003 8.87269 18.9415 7.16611 17.235C5.45953 15.5284 4.50078 13.2138 4.50078 10.8003V4.50029H8.00078V0.300293H2.40078C1.84383 0.300293 1.30968 0.521542 0.915857 0.915368C0.52203 1.30919 0.300781 1.84334 0.300781 2.40029V10.8003C0.304385 13.9611 1.43356 17.0173 3.48591 19.4211C5.53827 21.8249 8.37965 23.4192 11.5008 23.9183ZM32.5008 24.8003C32.5008 24.1081 32.7061 23.4314 33.0906 22.8558C33.4752 22.2802 34.0219 21.8316 34.6614 21.5667C35.3009 21.3018 36.0047 21.2325 36.6836 21.3675C37.3625 21.5026 37.9862 21.8359 38.4757 22.3254C38.9651 22.8149 39.2985 23.4385 39.4335 24.1175C39.5686 24.7964 39.4993 25.5001 39.2344 26.1397C38.9695 26.7792 38.5209 27.3258 37.9453 27.7104C37.3697 28.095 36.693 28.3003 36.0008 28.3003C35.0725 28.3003 34.1823 27.9315 33.5259 27.2752C32.8695 26.6188 32.5008 25.7285 32.5008 24.8003Z" fill="#CFDBEC"/>
</svg>
