<svg width="44" height="42" viewBox="0 0 44 42" fill="none" xmlns="http://www.w3.org/2000/svg">
<path d="M16.4008 13.468L23.3168 20.384C23.7106 20.7773 24.2443 20.9982 24.8008 20.9982C25.3573 20.9982 25.891 20.7773 26.2848 20.384L39.5008 7.168V15.4H43.7008V2.1C43.7008 1.54305 43.4796 1.0089 43.0857 0.615076C42.6919 0.221249 42.1578 0 41.6008 0H28.3008V4.2H36.5328L24.8008 15.932L17.8848 9.016C17.491 8.62274 16.9573 8.40185 16.4008 8.40185C15.8443 8.40185 15.3106 8.62274 14.9168 9.016L0.216797 23.716L3.1848 26.684L16.4008 13.468Z" fill="#CFDBEC"/>
<path d="M3.09961 30.8V38.5C3.09961 39.4282 3.46836 40.3184 4.12474 40.9748C4.78111 41.6312 5.67135 42 6.59961 42H37.3996C38.3279 42 39.2181 41.6312 39.8745 40.9748C40.5309 40.3184 40.8996 39.4282 40.8996 38.5V21.7H36.6996V37.8H29.6996V27.3H25.4996V37.8H18.4996V23.1H14.2996V37.8H7.29961V30.8H3.09961Z" fill="#CFDBEC"/>
</svg>
