<svg width="44" height="44" viewBox="0 0 44 44" fill="none" xmlns="http://www.w3.org/2000/svg">
<path d="M29.7008 43.6998H0.300781V5.19981C0.300781 3.90024 0.81703 2.65391 1.73596 1.73498C2.65489 0.816054 3.90122 0.299805 5.20078 0.299805H24.8008C26.1003 0.299805 27.3467 0.816054 28.2656 1.73498C29.1845 2.65391 29.7008 3.90024 29.7008 5.19981V43.6998ZM4.50078 39.4998H25.5008V5.19981C25.5008 5.01415 25.427 4.83611 25.2958 4.70483C25.1645 4.57355 24.9864 4.4998 24.8008 4.4998H5.20078C5.01513 4.4998 4.83708 4.57355 4.70581 4.70483C4.57453 4.83611 4.50078 5.01415 4.50078 5.19981V39.4998Z" fill="#CFDBEC"/>
<path d="M43.7 43.6999H25.5V5.8999H38.8C40.0996 5.8999 41.3459 6.41615 42.2648 7.33508C43.1838 8.25401 43.7 9.50034 43.7 10.7999V43.6999ZM29.7 39.4999H39.5V10.7999C39.5 10.6143 39.4263 10.4362 39.295 10.3049C39.1637 10.1737 38.9857 10.0999 38.8 10.0999H29.7V39.4999Z" fill="#CFDBEC"/>
<path d="M17.1004 10.7998H12.9004V14.9998H17.1004V10.7998Z" fill="#CFDBEC"/>
<path d="M17.1004 20.6001H12.9004V24.8001H17.1004V20.6001Z" fill="#CFDBEC"/>
<path d="M21.3012 43.6997H8.70117V35.9997C8.70117 34.3288 9.36492 32.7264 10.5464 31.5449C11.7279 30.3635 13.3303 29.6997 15.0012 29.6997C16.672 29.6997 18.2745 30.3635 19.4559 31.5449C20.6374 32.7264 21.3012 34.3288 21.3012 35.9997V43.6997ZM12.9012 39.4997H17.1012V35.9997C17.1012 35.4428 16.8799 34.9086 16.4861 34.5148C16.0923 34.121 15.5581 33.8997 15.0012 33.8997C14.4442 33.8997 13.9101 34.121 13.5162 34.5148C13.1224 34.9086 12.9012 35.4428 12.9012 35.9997V39.4997Z" fill="#CFDBEC"/>
<path d="M40.9008 17.0996H28.3008V21.2996H40.9008V17.0996Z" fill="#CFDBEC"/>
<path d="M40.9008 28.2998H28.3008V32.4998H40.9008V28.2998Z" fill="#CFDBEC"/>
</svg>
