<svg width="44" height="45" viewBox="0 0 44 45" fill="none" xmlns="http://www.w3.org/2000/svg">
<path d="M40.9008 35.5996C40.9008 34.3001 40.3845 33.0537 39.4656 32.1348C38.5467 31.2159 37.3003 30.6996 36.0008 30.6996H35.3008V21.5996H40.9008V12.7376L22.0008 0.921631L3.10078 12.7376V21.5996H8.70078V30.6996H8.00078C6.70122 30.6996 5.45489 31.2159 4.53596 32.1348C3.61703 33.0537 3.10078 34.3001 3.10078 35.5996V40.4996H0.300781V44.6996H43.7008V40.4996H40.9008V35.5996ZM31.1008 30.6996H24.1008V21.5996H31.1008V30.6996ZM7.30078 15.0616L22.0008 5.87763L36.7008 15.0616V17.3996H7.30078V15.0616ZM12.9008 21.5996H19.9008V30.6996H12.9008V21.5996ZM7.30078 40.4996V35.5996C7.30078 35.414 7.37453 35.2359 7.50581 35.1047C7.63708 34.9734 7.81513 34.8996 8.00078 34.8996H36.0008C36.1864 34.8996 36.3645 34.9734 36.4958 35.1047C36.627 35.2359 36.7008 35.414 36.7008 35.5996V40.4996H7.30078Z" fill="#CFDBEC"/>
</svg>
