<svg width="38" height="44" viewBox="0 0 38 44" fill="none" xmlns="http://www.w3.org/2000/svg">
<path d="M26.3507 29.1051L25.3007 29.7001V43.7001H29.5007V32.0871C32.0777 30.3594 34.1912 28.0256 35.6558 25.2905C37.1203 22.5554 37.8912 19.5026 37.9007 16.4001C37.9078 13.526 37.2544 10.6886 35.9909 8.1071C34.7274 5.52556 32.8877 3.26884 30.6137 1.51111C29.8709 0.927013 28.979 0.563474 28.0395 0.46198C27.1001 0.360487 26.151 0.525126 25.3007 0.937111C24.4602 1.3358 23.7505 1.96553 23.2547 2.75266C22.7588 3.5398 22.4973 4.45183 22.5007 5.38211V13.6001C22.5007 13.7858 22.4269 13.9638 22.2957 14.0951C22.1644 14.2264 21.9863 14.3001 21.8007 14.3001H16.2007C16.015 14.3001 15.837 14.2264 15.7057 14.0951C15.5744 13.9638 15.5007 13.7858 15.5007 13.6001V5.39611C15.5054 4.46464 15.2445 3.55112 14.7486 2.76262C14.2527 1.97412 13.5423 1.34331 12.7007 0.944112C11.8475 0.52546 10.8934 0.356552 9.94836 0.456876C9.00333 0.5572 8.10592 0.922668 7.35968 1.51111C4.57189 3.67978 2.44756 6.58624 1.22763 9.90086C0.00768813 13.2155 -0.259043 16.8056 0.45768 20.2641C0.951467 22.6748 1.91608 24.9643 3.29625 27.0015C4.67641 29.0387 6.445 30.7836 8.50068 32.1361V43.7001H12.7007V29.7561L11.6507 29.1471C9.8536 28.1239 8.29533 26.7293 7.07981 25.0564C5.8643 23.3834 5.01947 21.4704 4.60168 19.4451C4.04354 16.7495 4.25057 13.9515 5.19935 11.3674C6.14813 8.7833 7.80085 6.51611 9.97068 4.82211C10.0959 4.71587 10.2494 4.64864 10.4124 4.62873C10.5754 4.60883 10.7406 4.63712 10.8877 4.71011C11.0208 4.7693 11.1321 4.86855 11.2062 4.99403C11.2802 5.11951 11.3132 5.26496 11.3007 5.41011V13.6001C11.3007 14.8997 11.8169 16.146 12.7359 17.0649C13.6548 17.9839 14.9011 18.5001 16.2007 18.5001H21.8007C23.1002 18.5001 24.3466 17.9839 25.2655 17.0649C26.1844 16.146 26.7007 14.8997 26.7007 13.6001V5.38211C26.6881 5.23696 26.7212 5.09151 26.7952 4.96603C26.8692 4.84055 26.9806 4.7413 27.1137 4.68211C27.2618 4.60852 27.4282 4.57991 27.5924 4.59982C27.7566 4.61972 27.9114 4.68726 28.0377 4.79411C29.8087 6.16455 31.2407 7.92415 32.2227 9.9367C33.2047 11.9493 33.7104 14.1608 33.7007 16.4001C33.6913 18.9752 33.0078 21.5029 31.7184 23.7318C30.4289 25.9608 28.5783 27.8133 26.3507 29.1051Z" fill="#CFDBEC"/>
</svg>
