<svg width="42" height="42" viewBox="0 0 42 42" fill="none" xmlns="http://www.w3.org/2000/svg">
<path d="M12.2508 25.2001C13.6039 25.2001 14.7008 24.1031 14.7008 22.75C14.7008 21.397 13.6039 20.3 12.2508 20.3C10.8977 20.3 9.80078 21.397 9.80078 22.75C9.80078 24.1031 10.8977 25.2001 12.2508 25.2001Z" fill="#CFDBEC"/>
<path d="M29.7508 25.2001C31.1039 25.2001 32.2008 24.1031 32.2008 22.75C32.2008 21.397 31.1039 20.3 29.7508 20.3C28.3977 20.3 27.3008 21.397 27.3008 22.75C27.3008 24.1031 28.3977 25.2001 29.7508 25.2001Z" fill="#CFDBEC"/>
<path d="M4.9 41.3H9.1C10.3996 41.3 11.6459 40.7837 12.5648 39.8648C13.4838 38.9458 14 37.6995 14 36.4V35.7H28V36.4C28 37.6995 28.5162 38.9458 29.4352 39.8648C30.3541 40.7837 31.6004 41.3 32.9 41.3H37.1C38.3996 41.3 39.6459 40.7837 40.5648 39.8648C41.4837 38.9458 42 37.6995 42 36.4V23.569C41.996 20.6364 41.3132 17.7446 40.005 15.12L32.795 0.699951H9.205L1.995 15.113C0.686 17.7398 0.00315891 20.6341 0 23.569V36.4C0 37.6995 0.516249 38.9458 1.43518 39.8648C2.35411 40.7837 3.60044 41.3 4.9 41.3ZM4.2 23.569C4.20361 21.2874 4.73551 19.0376 5.754 16.996L11.795 4.89995H30.205L36.253 16.989C37.2701 19.0333 37.7996 21.2856 37.8 23.569V36.4C37.8 36.5856 37.7262 36.7637 37.595 36.8949C37.4637 37.0262 37.2857 37.1 37.1 37.1H32.9C32.7143 37.1 32.5363 37.0262 32.405 36.8949C32.2738 36.7637 32.2 36.5856 32.2 36.4V31.5H9.8V36.4C9.8 36.5856 9.72625 36.7637 9.59498 36.8949C9.4637 37.0262 9.28565 37.1 9.1 37.1H4.9C4.71435 37.1 4.5363 37.0262 4.40502 36.8949C4.27375 36.7637 4.2 36.5856 4.2 36.4V23.569Z" fill="#CFDBEC"/>
</svg>
