<svg width="31" height="27" viewBox="0 0 31 27" fill="none" xmlns="http://www.w3.org/2000/svg">
<path d="M19.6047 24.2069L28.5344 15.3388C28.9014 14.9757 29.1923 14.544 29.3902 14.0686C29.5881 13.5931 29.6892 13.0834 29.6875 12.569C29.6875 10.9443 28.7875 10.0552 26.1203 7.40174L22.2344 3.5426C19.5625 0.893813 18.6672 2.05289e-05 17.0312 2.05289e-05C16.5132 -0.00165041 16 0.0986985 15.5213 0.295263C15.0425 0.491828 14.6078 0.780707 14.2422 1.14519L2.71562 12.5923C2.3491 12.9558 2.05834 13.3876 1.85996 13.8629C1.66158 14.3382 1.55947 14.8476 1.55947 15.3621C1.55947 15.8766 1.66158 16.386 1.85996 16.8613C2.05834 17.3365 2.3491 17.7683 2.71562 18.1319L8.83281 24.2069H0.625V27H30.625V24.2069H19.6047ZM16.0938 3.25864V12.6667C16.0925 13.1343 15.9049 13.5823 15.572 13.9129C15.2391 14.2435 14.788 14.4298 14.3172 14.431H4.84375L16.0938 3.25864ZM5.78125 17.2241H14.3172C15.5339 17.2229 16.7004 16.7424 17.5608 15.8879C18.4211 15.0335 18.905 13.8751 18.9062 12.6667V4.18967C19.2672 4.53415 19.7031 4.96243 20.2422 5.49778L24.1281 9.35691C26.7578 11.9871 26.875 12.271 26.875 12.569C26.8751 12.7169 26.8458 12.8634 26.7886 13C26.7315 13.1366 26.6478 13.2607 26.5422 13.365L15.625 24.2069H12.8125L5.78125 17.2241Z" fill="#C5CBD7"/>
</svg>
