<svg width="244" height="199" viewBox="0 0 244 199" fill="none" xmlns="http://www.w3.org/2000/svg">
<g clip-path="url(#clip0)">
<rect x="1.8623" y="61.3174" width="99.4144" height="137.897" transform="rotate(-10.2943 1.8623 61.3174)" fill="white"/>
<path d="M99.3918 41.9751L1.57765 59.7408C0.706786 59.899 0.128372 60.7341 0.286544 61.605L24.9293 197.283C25.0875 198.153 25.9227 198.732 26.7935 198.574L124.608 180.808C125.478 180.65 126.057 179.815 125.899 178.944L101.256 43.2662C101.098 42.3953 100.263 41.8169 99.3918 41.9751ZM122.457 177.939L27.7981 195.132L3.72838 62.6095L98.3872 45.4169L122.457 177.939Z" fill="#CFDBEC"/>
<path d="M33.655 177.139C33.6602 177.249 33.7195 177.351 33.8115 177.409L36.0038 178.784L37.0063 181.172C37.0492 181.273 37.1394 181.348 37.2462 181.371L39.7766 181.916L41.5321 183.82C41.6071 183.901 41.7171 183.941 41.8252 183.926L44.3913 183.573L46.6927 184.758C46.7899 184.809 46.9069 184.807 47.0037 184.757L49.2932 183.544L51.8629 183.875C51.8977 183.878 51.932 183.878 51.9651 183.872C52.0377 183.859 52.1044 183.822 52.1548 183.768L53.8922 181.849L56.4172 181.277C56.5252 181.253 56.6139 181.177 56.6541 181.075L57.6282 178.677L59.8056 177.277C59.8975 177.218 59.9556 177.116 59.9601 177.006L60.0588 174.418L61.6289 172.358C61.6962 172.271 61.7158 172.155 61.6806 172.051L60.8842 169.586L61.6505 167.112C61.6835 167.006 61.6629 166.893 61.5949 166.806L60.0077 164.76L59.8849 162.173C59.8796 162.064 59.8204 161.962 59.7284 161.904L57.5361 160.529L56.5339 158.142C56.491 158.041 56.4008 157.966 56.294 157.943L53.762 157.399L52.0065 155.495C51.9315 155.414 51.8215 155.374 51.7134 155.389L49.147 155.741L46.8441 154.555C46.7453 154.505 46.627 154.508 46.533 154.556L44.2436 155.769L41.6754 155.439C41.5669 155.424 41.4567 155.464 41.3838 155.547L39.6448 157.466L37.1199 158.038C37.0119 158.062 36.9231 158.138 36.8829 158.24L35.9088 160.638L33.7299 162.038C33.6379 162.097 33.5798 162.199 33.5754 162.309L33.4817 164.898L31.9132 166.957C31.8459 167.044 31.8262 167.16 31.8615 167.265L32.6563 169.73L31.8897 172.203C31.8567 172.308 31.8773 172.422 31.9453 172.509L33.5325 174.554L33.655 177.139ZM32.5845 172.233L33.3305 169.826C33.3508 169.758 33.3511 169.688 33.3294 169.622L32.5548 167.224L34.0827 165.219C34.1249 165.164 34.1484 165.096 34.1506 165.027L34.2455 162.508L36.3659 161.145C36.4242 161.107 36.4698 161.053 36.4955 160.988L37.4436 158.653L39.8997 158.098C39.967 158.083 40.029 158.047 40.0751 157.996L41.768 156.127L44.2677 156.449C44.3361 156.458 44.4071 156.445 44.468 156.413L46.6965 155.232L48.9384 156.386C48.9995 156.418 49.0703 156.431 49.1384 156.42L51.6348 156.078L53.3434 157.93C53.3903 157.982 53.452 158.016 53.52 158.031L55.9842 158.562L56.9586 160.885C56.9848 160.948 57.0323 161.003 57.0895 161.04L59.2246 162.378L59.3429 164.896C59.3457 164.965 59.3707 165.031 59.4134 165.087L60.9582 167.078L60.2126 169.487C60.1922 169.554 60.1919 169.624 60.2137 169.69L60.9883 172.089L59.4604 174.094C59.4182 174.148 59.3947 174.216 59.3925 174.285L59.2959 176.804L57.1753 178.166C57.117 178.204 57.0714 178.258 57.0457 178.323L56.0976 180.658L53.6415 181.213C53.5742 181.228 53.5122 181.264 53.466 181.315L51.7748 183.183L49.2735 182.862C49.2387 182.858 49.2044 182.858 49.1713 182.864C49.1381 182.87 49.1043 182.881 49.0747 182.898L46.8462 184.078L44.606 182.924C44.5449 182.893 44.474 182.88 44.4059 182.89L41.9098 183.234L40.2012 181.382C40.1543 181.33 40.0926 181.296 40.0247 181.281L37.5604 180.75L36.5857 178.426C36.5595 178.362 36.5121 178.307 36.4548 178.27L34.3213 176.932L34.1999 174.415C34.197 174.345 34.1721 174.28 34.1294 174.224L32.5845 172.233Z" fill="#CFDBEC"/>
<path d="M49.0468 182.185C55.9553 180.93 60.5542 174.29 59.2994 167.382C58.0449 160.475 51.4044 155.874 44.4959 157.129C37.5889 158.383 32.9884 165.024 34.2432 171.932C35.4993 178.839 42.1398 183.44 49.0468 182.185ZM44.7824 158.706C50.8216 157.61 56.6252 161.63 57.7218 167.668C58.8187 173.707 54.7979 179.511 48.7602 180.607C42.7226 181.704 36.9175 177.684 35.8209 171.646C34.7256 165.606 38.7448 159.803 44.7824 158.706Z" fill="#CFDBEC"/>
<path d="M48.1754 177.385C52.4382 176.61 55.2761 172.513 54.5018 168.25C53.7276 163.987 49.6304 161.151 45.3676 161.925C41.1048 162.7 38.2685 166.797 39.0425 171.058C39.8164 175.319 43.9142 178.159 48.1754 177.385ZM45.4822 162.556C49.3963 161.845 53.1598 164.451 53.8708 168.365C54.5817 172.279 51.9749 176.043 48.0608 176.754C44.1467 177.465 40.3844 174.858 39.6735 170.943C38.9626 167.029 41.568 163.267 45.4822 162.556Z" fill="#CFDBEC"/>
<path d="M96.0307 164.715C94.4722 164.774 93.2017 165.388 91.6673 164.953C90.7585 164.696 90.981 164.072 89.8155 164.474C88.6699 164.87 88.0907 166.355 87.5724 167.737C87.6617 165.752 87.6147 163.556 85.3495 163.933C85.0316 163.986 84.6885 164.143 84.3526 164.357C83.1141 163.694 81.7093 163.281 80.2862 162.848C80.162 162.81 80.0079 162.778 79.8518 162.744C81.753 160.282 83.5132 157.717 85.1045 155.262C85.368 154.855 84.9464 154.401 84.5163 154.572C81.0739 155.942 77.5551 158.39 75.9764 161.838C75.8599 162.094 76.0465 162.358 76.2676 162.463C76.9154 162.773 77.5778 163.019 78.2488 163.241C77.6955 164.026 77.1493 164.814 76.5643 165.577C75.3976 167.095 73.2249 168.627 72.5274 170.341C72.5961 170.172 72.3264 170.024 72.2379 170.191C72.1978 170.267 72.1581 170.344 72.1165 170.42C72.0755 170.5 72.0703 170.615 72.1612 170.667C72.1939 170.685 72.2266 170.704 72.2577 170.722C72.3287 170.763 72.4157 170.767 72.4806 170.711C74.8899 168.66 77.1433 166.181 79.228 163.554C79.6196 163.673 80.0129 163.792 80.4095 163.913C80.7339 164.012 82.2926 164.456 83.512 165.059C82.9128 165.681 82.5038 166.435 82.5748 167.059C82.2192 167.021 81.8933 167.004 81.6739 167.07C80.7958 167.332 80.4983 167.542 80.004 168.32C79.8202 168.609 79.9684 169.138 80.3794 169.122C81.6916 169.069 82.0358 168.353 82.7967 167.599C83.4636 168.48 85.2407 168.278 86.3743 167.709C86.4302 168.492 86.4125 169.418 86.5389 170.203C86.6122 170.661 87.2144 170.755 87.4735 170.405C88.7372 168.704 88.5811 166.05 90.9859 166.154C91.3834 166.171 92.0568 166.81 92.815 166.813C93.0431 166.758 93.2511 166.665 93.4387 166.531C94.4561 165.538 95.4427 165.47 96.4013 166.324C96.5001 166.321 96.7584 166.406 96.8644 166.424C98.3212 166.675 100.246 165.564 101.623 165.242C103.385 164.831 105.115 164.556 106.921 164.449C107.716 164.403 107.483 163.192 106.7 163.233C103.053 163.42 99.6413 164.575 96.0307 164.715ZM78.079 162.172C77.2777 162.166 77.0832 161.875 77.4922 161.3C77.6961 160.458 78.1877 159.782 78.9652 159.271C80.3041 157.939 81.8806 156.866 83.5723 156.032C82.2119 158.259 80.3633 160.258 78.8721 162.375C78.8434 162.414 78.8147 162.454 78.786 162.493C78.5135 162.411 78.2567 162.315 78.079 162.172ZM84.6749 167.092C84.4467 167.28 83.8963 167.228 83.3117 167.15C83.9826 166.618 84.5118 166.284 84.9187 166.128C85.0965 166.443 85.0675 166.768 84.6749 167.092Z" fill="#CFDBEC"/>
<path d="M56.3569 83.2011C61.9906 82.1778 65.7413 76.7623 64.7181 71.1286C63.6948 65.4948 58.2793 61.7441 52.6456 62.7674C47.0118 63.7906 43.2611 69.2061 44.2844 74.8399C45.3076 80.4737 50.7231 84.2243 56.3569 83.2011ZM52.9321 64.345C57.6966 63.4797 62.2753 66.6522 63.1404 71.4151C64.0058 76.1796 60.8332 80.7583 56.0703 81.6234C51.3074 82.4885 46.7271 79.3162 45.862 74.5533C44.9969 69.7904 48.1676 65.2104 52.9321 64.345Z" fill="#CFDBEC"/>
<path d="M88.7719 82.2023L25.666 93.6641L25.9526 95.2417L89.0584 83.78L88.7719 82.2023Z" fill="#CFDBEC"/>
<path d="M70.9875 91.9519L45.7451 96.5366L46.0317 98.1143L71.274 93.5295L70.9875 91.9519Z" fill="#CFDBEC"/>
<path d="M93.3559 107.444L30.25 118.906L30.5365 120.484L93.6424 109.022L93.3559 107.444Z" fill="#CFDBEC"/>
<path d="M88.1927 114.901L37.708 124.07L37.9946 125.648L88.4793 116.479L88.1927 114.901Z" fill="#CFDBEC"/>
<path d="M76.716 123.504L51.4736 128.089L51.7602 129.667L77.0025 125.082L76.716 123.504Z" fill="#CFDBEC"/>
</g>
<g clip-path="url(#clip1)">
<rect x="67.5557" y="1.72998" width="99.4144" height="137.897" transform="rotate(4.70573 67.5557 1.72998)" fill="white"/>
<path d="M72.7725 109.87C74.3088 108.268 75.788 106.014 77.6234 104.748C78.4489 104.178 77.1724 105.457 76.9529 105.817C76.4172 106.696 75.8222 107.827 75.3959 108.763C74.8562 109.945 74.638 110.915 74.6358 112.192C74.6362 112.442 74.7854 112.623 75.0347 112.663C76.7562 112.936 75.2775 112.586 76.917 112.547C77.2093 112.455 77.4813 112.317 77.7347 112.132C79.0768 111.953 80.1255 112.288 80.8827 113.136C81.9153 113.53 81.9792 114.122 83.25 114.164C84.8803 114.216 86.0759 113.472 87.8385 113.578C89.2552 113.664 90.6449 114.158 92.0624 114.314C95.4189 114.68 98.9002 114.391 102.269 114.393C102.98 114.393 103.09 113.334 102.361 113.276C98.4946 112.965 94.6141 113.512 90.7602 112.953C89.3181 112.744 87.8549 112.265 86.3798 112.398C84.0328 112.608 83.0647 112.78 80.8149 111.653C79.3546 110.923 79.1879 111.267 77.7306 111.145C74.7586 110.896 76.2595 109.023 77.1872 107.193C77.7424 106.096 78.1271 105.175 78.3768 103.979C78.4488 103.633 77.9839 103.476 77.7517 103.658C76.0286 105.006 74.657 106.873 73.2 108.488C71.7182 110.129 67.602 115.59 64.931 114.5C64.7877 114.442 64.6611 114.671 64.8028 114.747C67.5008 116.195 71.2643 111.442 72.7725 109.87Z" fill="#CFDBEC"/>
<path d="M166.769 8.28732L67.6898 0.131545C66.8077 0.058932 66.0329 0.715928 65.9603 1.59805L54.6474 139.031C54.5748 139.913 55.2318 140.688 56.1139 140.76L155.193 148.916C156.075 148.989 156.85 148.332 156.923 147.449L168.236 10.0169C168.308 9.13479 167.651 8.35993 166.769 8.28732ZM153.858 145.588L57.9751 137.696L69.0248 3.4592L164.908 11.3519L153.858 145.588Z" fill="#CFDBEC"/>
<path d="M154.597 19.3507L141.812 18.2983L141.681 19.8964L154.465 20.9488L154.597 19.3507Z" fill="#CFDBEC"/>
<path d="M154.071 25.7457L141.286 24.6934L141.155 26.2914L153.939 27.3438L154.071 25.7457Z" fill="#CFDBEC"/>
<path d="M153.545 32.1365L147.152 31.6104L147.021 33.2084L153.413 33.7346L153.545 32.1365Z" fill="#CFDBEC"/>
<path d="M113.678 47.3568L75.3252 44.1997L75.0621 47.3958L113.415 50.5529L113.678 47.3568Z" fill="#CFDBEC"/>
<path d="M152.033 50.5138L139.249 49.4614L138.986 52.6575L151.77 53.7099L152.033 50.5138Z" fill="#CFDBEC"/>
<path d="M150.387 70.4904L73.6807 64.1763L73.5491 65.7743L150.256 72.0885L150.387 70.4904Z" fill="#CFDBEC"/>
<path d="M149.861 76.8806L73.1543 70.5664L73.0228 72.1645L149.729 78.4786L149.861 76.8806Z" fill="#CFDBEC"/>
<path d="M149.334 83.2751L72.627 76.9609L72.4954 78.559L149.202 84.8731L149.334 83.2751Z" fill="#CFDBEC"/>
<path d="M148.807 89.6657L72.1006 83.3516L71.969 84.9496L148.676 91.2637L148.807 89.6657Z" fill="#CFDBEC"/>
<path d="M122.714 93.956L71.5762 89.7466L71.4446 91.3447L122.582 95.5541L122.714 93.956Z" fill="#CFDBEC"/>
<path d="M88.1542 122.886L68.9775 121.307L68.8761 122.539L88.0527 124.118L88.1542 122.886Z" fill="#CFDBEC"/>
</g>
<g clip-path="url(#clip2)">
<rect x="147.959" y="29.3052" width="99.4144" height="137.897" transform="rotate(19.7057 147.959 29.3052)" fill="white"/>
<path d="M242.094 61.318L148.502 27.7965C147.668 27.4981 146.748 27.9367 146.447 28.7775L99.9589 158.573C99.6572 159.416 100.09 160.339 100.923 160.637L194.515 194.159C195.349 194.457 196.269 194.019 196.57 193.178L243.059 63.3803C243.36 62.5395 242.927 61.6165 242.094 61.318ZM205.982 157.389L194.087 190.599L103.514 158.159L115.408 124.949L148.93 31.3563L239.503 63.7964L205.982 157.389Z" fill="#CFDBEC"/>
<path d="M185.476 52.9613L155.285 42.1479L154.204 45.1671L184.395 55.9804L185.476 52.9613Z" fill="#CFDBEC"/>
<path d="M162.764 59.3048L150.688 54.9795L150.147 56.489L162.223 60.8144L162.764 59.3048Z" fill="#CFDBEC"/>
<path d="M178.715 71.8305L148.524 61.0171L147.984 62.5267L178.175 73.34L178.715 71.8305Z" fill="#CFDBEC"/>
<path d="M227.471 68.8548L203.318 60.2041L202.778 61.7137L226.931 70.3644L227.471 68.8548Z" fill="#CFDBEC"/>
<path d="M223.146 80.931L198.993 72.2803L198.452 73.7898L222.605 82.4405L223.146 80.931Z" fill="#CFDBEC"/>
<path d="M220.982 86.971L196.829 78.3203L196.288 79.8299L220.441 88.4806L220.982 86.971Z" fill="#CFDBEC"/>
<path d="M115.893 125.973L116.185 126.078C116.602 126.227 117.06 126.01 117.21 125.594C117.359 125.178 117.142 124.719 116.725 124.57L116.433 124.465C116.017 124.316 115.558 124.533 115.409 124.949C115.259 125.365 115.476 125.824 115.893 125.973Z" fill="#CFDBEC"/>
<path d="M201.694 156.705L202.289 156.918C202.705 157.067 203.164 156.85 203.313 156.434C203.462 156.018 203.245 155.559 202.829 155.41L202.235 155.197C201.818 155.048 201.359 155.265 201.21 155.681C201.061 156.097 201.277 156.556 201.694 156.705Z" fill="#CFDBEC"/>
<path d="M136.968 133.521C137.385 133.67 137.844 133.453 137.993 133.037C138.142 132.621 137.925 132.162 137.509 132.013L136.914 131.8C136.498 131.651 136.039 131.868 135.89 132.284C135.741 132.7 135.958 133.159 136.374 133.308L136.968 133.521Z" fill="#CFDBEC"/>
<path d="M139.939 134.582C140.355 134.731 140.814 134.514 140.963 134.098C141.112 133.682 140.896 133.223 140.479 133.074L139.885 132.861C139.469 132.712 139.01 132.929 138.861 133.345C138.712 133.761 138.928 134.22 139.345 134.369L139.939 134.582Z" fill="#CFDBEC"/>
<path d="M134.001 132.459C134.417 132.608 134.876 132.391 135.025 131.975C135.174 131.559 134.957 131.1 134.541 130.951L133.947 130.738C133.53 130.589 133.071 130.806 132.922 131.222C132.773 131.638 132.99 132.097 133.406 132.246L134.001 132.459Z" fill="#CFDBEC"/>
<path d="M128.063 130.331C128.479 130.48 128.938 130.263 129.087 129.847C129.236 129.431 129.02 128.972 128.603 128.823L128.009 128.61C127.593 128.461 127.134 128.678 126.985 129.094C126.836 129.51 127.053 129.969 127.469 130.118L128.063 130.331Z" fill="#CFDBEC"/>
<path d="M164.231 141.584L163.638 141.372C163.222 141.223 162.763 141.439 162.614 141.856C162.465 142.272 162.681 142.731 163.098 142.88L163.691 143.092C164.107 143.241 164.566 143.025 164.715 142.608C164.864 142.192 164.647 141.733 164.231 141.584Z" fill="#CFDBEC"/>
<path d="M142.905 135.648C143.321 135.797 143.78 135.58 143.929 135.163C144.078 134.747 143.861 134.288 143.445 134.139L142.851 133.926C142.435 133.777 141.976 133.994 141.827 134.41C141.677 134.827 141.894 135.286 142.311 135.435L142.905 135.648Z" fill="#CFDBEC"/>
<path d="M131.031 131.393C131.447 131.542 131.906 131.325 132.055 130.909C132.204 130.493 131.987 130.034 131.571 129.885L130.977 129.672C130.561 129.523 130.102 129.74 129.953 130.156C129.803 130.572 130.02 131.031 130.437 131.18L131.031 131.393Z" fill="#CFDBEC"/>
<path d="M153.705 138.663C153.556 139.08 153.773 139.539 154.19 139.688L154.782 139.9C155.199 140.049 155.657 139.832 155.807 139.416C155.956 139 155.739 138.541 155.323 138.392L154.73 138.179C154.313 138.03 153.855 138.247 153.705 138.663Z" fill="#CFDBEC"/>
<path d="M161.261 140.519L160.668 140.306C160.252 140.157 159.793 140.374 159.644 140.79C159.495 141.207 159.712 141.665 160.128 141.815L160.721 142.027C161.137 142.176 161.596 141.959 161.745 141.543C161.894 141.127 161.677 140.668 161.261 140.519Z" fill="#CFDBEC"/>
<path d="M145.876 136.711C146.292 136.86 146.751 136.643 146.9 136.227C147.049 135.811 146.832 135.352 146.416 135.203L145.822 134.99C145.405 134.841 144.946 135.058 144.797 135.474C144.648 135.89 144.865 136.349 145.281 136.498L145.876 136.711Z" fill="#CFDBEC"/>
<path d="M157.701 139.245C157.285 139.096 156.826 139.312 156.677 139.729C156.528 140.145 156.745 140.604 157.161 140.753L157.754 140.965C158.17 141.114 158.629 140.898 158.778 140.481C158.927 140.065 158.71 139.606 158.294 139.457L157.701 139.245Z" fill="#CFDBEC"/>
<path d="M148.845 137.775C149.262 137.924 149.721 137.707 149.87 137.291C150.019 136.875 149.802 136.416 149.386 136.267L148.791 136.054C148.375 135.905 147.916 136.122 147.767 136.538C147.618 136.954 147.835 137.413 148.251 137.562L148.845 137.775Z" fill="#CFDBEC"/>
<path d="M151.813 138.837C152.229 138.986 152.688 138.769 152.837 138.353C152.986 137.937 152.769 137.478 152.353 137.329L151.76 137.116C151.344 136.967 150.885 137.184 150.736 137.6C150.587 138.017 150.803 138.476 151.22 138.625L151.813 138.837Z" fill="#CFDBEC"/>
<path d="M198.723 155.639L199.317 155.852C199.733 156.001 200.192 155.784 200.341 155.368C200.49 154.951 200.274 154.492 199.857 154.343L199.263 154.13C198.847 153.981 198.388 154.198 198.239 154.615C198.09 155.031 198.306 155.49 198.723 155.639Z" fill="#CFDBEC"/>
<path d="M172.003 146.069L172.596 146.282C173.012 146.431 173.471 146.214 173.62 145.798C173.769 145.381 173.552 144.923 173.136 144.773L172.543 144.561C172.127 144.412 171.668 144.629 171.519 145.045C171.37 145.461 171.587 145.92 172.003 146.069Z" fill="#CFDBEC"/>
<path d="M165.58 142.919C165.431 143.335 165.648 143.794 166.065 143.943L166.657 144.156C167.074 144.305 167.532 144.088 167.682 143.672C167.831 143.255 167.614 142.797 167.198 142.647L166.605 142.435C166.188 142.286 165.73 142.503 165.58 142.919Z" fill="#CFDBEC"/>
<path d="M169.035 145.004L169.628 145.216C170.044 145.365 170.503 145.149 170.652 144.732C170.801 144.316 170.585 143.857 170.168 143.708L169.575 143.496C169.159 143.347 168.7 143.563 168.551 143.98C168.402 144.396 168.619 144.855 169.035 145.004Z" fill="#CFDBEC"/>
<path d="M196.297 153.069C195.881 152.92 195.422 153.137 195.273 153.553C195.124 153.97 195.341 154.429 195.757 154.578L196.351 154.791C196.767 154.94 197.226 154.723 197.375 154.307C197.525 153.89 197.308 153.431 196.891 153.282L196.297 153.069Z" fill="#CFDBEC"/>
<path d="M179.075 146.9L178.481 146.688C178.064 146.538 177.606 146.755 177.456 147.172C177.307 147.588 177.524 148.047 177.94 148.196L178.535 148.409C178.951 148.558 179.41 148.341 179.559 147.925C179.708 147.508 179.491 147.05 179.075 146.9Z" fill="#CFDBEC"/>
<path d="M118.562 126.93L119.156 127.143C119.572 127.292 120.031 127.075 120.18 126.659C120.329 126.242 120.112 125.783 119.696 125.634L119.102 125.421C118.686 125.272 118.227 125.489 118.078 125.906C117.928 126.322 118.145 126.781 118.562 126.93Z" fill="#CFDBEC"/>
<path d="M121.532 127.989L122.127 128.202C122.543 128.351 123.002 128.134 123.151 127.718C123.3 127.302 123.083 126.843 122.667 126.694L122.073 126.481C121.656 126.332 121.197 126.549 121.048 126.965C120.899 127.381 121.114 127.84 121.532 127.989Z" fill="#CFDBEC"/>
<path d="M124.499 129.056L125.093 129.269C125.51 129.418 125.969 129.201 126.118 128.785C126.267 128.368 126.05 127.909 125.634 127.76L125.039 127.547C124.623 127.398 124.164 127.615 124.015 128.031C123.866 128.448 124.081 128.906 124.499 129.056Z" fill="#CFDBEC"/>
<path d="M190.414 152.661C190.83 152.81 191.289 152.593 191.438 152.177C191.587 151.761 191.37 151.302 190.954 151.153L190.36 150.94C189.943 150.791 189.484 151.008 189.335 151.424C189.186 151.84 189.403 152.299 189.819 152.448L190.414 152.661Z" fill="#CFDBEC"/>
<path d="M181.505 149.472C181.922 149.621 182.381 149.404 182.53 148.988C182.679 148.571 182.462 148.113 182.046 147.963L181.451 147.751C181.035 147.601 180.576 147.818 180.427 148.235C180.278 148.651 180.495 149.11 180.911 149.259L181.505 149.472Z" fill="#CFDBEC"/>
<path d="M193.38 153.725C193.797 153.874 194.256 153.657 194.405 153.241C194.554 152.825 194.337 152.366 193.921 152.217L193.326 152.004C192.91 151.855 192.451 152.072 192.302 152.488C192.153 152.904 192.37 153.363 192.786 153.512L193.38 153.725Z" fill="#CFDBEC"/>
<path d="M187.443 151.599C187.859 151.748 188.318 151.531 188.467 151.115C188.616 150.699 188.399 150.24 187.983 150.091L187.389 149.878C186.973 149.729 186.514 149.946 186.365 150.362C186.216 150.778 186.432 151.237 186.849 151.386L187.443 151.599Z" fill="#CFDBEC"/>
<path d="M184.475 150.536C184.891 150.685 185.35 150.468 185.499 150.052C185.649 149.635 185.432 149.177 185.015 149.027L184.421 148.815C184.005 148.665 183.546 148.882 183.397 149.299C183.248 149.715 183.465 150.174 183.881 150.323L184.475 150.536Z" fill="#CFDBEC"/>
<path d="M175.567 147.346C175.983 147.495 176.442 147.278 176.591 146.862C176.74 146.445 176.524 145.987 176.107 145.837L175.513 145.625C175.097 145.476 174.638 145.692 174.489 146.109C174.34 146.525 174.556 146.984 174.973 147.133L175.567 147.346Z" fill="#CFDBEC"/>
<path d="M205.498 156.365L205.205 156.26C204.789 156.111 204.33 156.328 204.181 156.744C204.032 157.16 204.249 157.619 204.665 157.768L204.958 157.873C205.374 158.022 205.833 157.805 205.982 157.389C206.131 156.973 205.914 156.514 205.498 156.365Z" fill="#CFDBEC"/>
<path d="M156.64 152.49L120.411 139.514L119.87 141.023L156.1 153.999L156.64 152.49Z" fill="#CFDBEC"/>
<path d="M154.478 158.53L118.249 145.554L117.708 147.064L153.938 160.04L154.478 158.53Z" fill="#CFDBEC"/>
<path d="M152.314 164.566L116.085 151.59L115.544 153.1L151.774 166.076L152.314 164.566Z" fill="#CFDBEC"/>
<path d="M192.871 165.467L174.756 158.979L174.215 160.489L192.33 166.977L192.871 165.467Z" fill="#CFDBEC"/>
<path d="M190.461 172.194L166.308 163.543C166.05 163.451 165.765 163.585 165.672 163.843L163.654 169.479C163.561 169.737 163.696 170.022 163.954 170.114L188.107 178.765C188.365 178.857 188.65 178.723 188.743 178.464L190.761 172.829C190.854 172.57 190.719 172.286 190.461 172.194ZM166.062 169.813L164.757 169.346L166.441 164.647L167.745 165.114L166.062 169.813ZM167.286 170.251L166.531 169.981L168.214 165.282L168.969 165.552L167.286 170.251ZM170.652 171.457L168.222 170.587L169.905 165.887L172.335 166.758L170.652 171.457ZM172.177 172.003L171.588 171.792L173.271 167.093L173.86 167.304L172.177 172.003ZM173.039 172.312L172.645 172.171L174.328 167.472L174.722 167.613L173.039 172.312ZM175.816 173.307L173.975 172.647L175.658 167.948L177.5 168.608L175.816 173.307ZM176.873 173.685L176.284 173.474L177.968 168.775L178.556 168.986L176.873 173.685ZM178.244 174.176L177.343 173.853L179.026 169.154L179.927 169.477L178.244 174.176ZM179.867 174.757L178.712 174.344L180.395 169.645L181.55 170.058L179.867 174.757ZM182.22 175.6L180.803 175.093L182.486 170.393L183.903 170.901L182.22 175.6ZM184.664 176.476L183.157 175.936L184.841 171.237L186.347 171.776L184.664 176.476ZM186.287 177.057L185.598 176.81L187.281 172.111L187.97 172.358L186.287 177.057ZM187.974 177.661L187.692 177.56L189.375 172.861L189.658 172.962L187.974 177.661Z" fill="#CFDBEC"/>
<path d="M157.539 111.935L133.386 103.285L132.845 104.794L156.998 113.445L157.539 111.935Z" fill="#CFDBEC"/>
<path d="M159.559 106.302L135.406 97.6514L134.866 99.1609L159.018 107.812L159.559 106.302Z" fill="#CFDBEC"/>
<path d="M155.377 117.973L131.225 109.322L130.684 110.832L154.837 119.483L155.377 117.973Z" fill="#CFDBEC"/>
<path d="M177.674 112.79L165.598 108.464L165.057 109.974L177.133 114.299L177.674 112.79Z" fill="#CFDBEC"/>
<path d="M175.655 118.424L163.578 114.099L163.037 115.608L175.114 119.934L175.655 118.424Z" fill="#CFDBEC"/>
<path d="M173.493 124.462L161.417 120.137L160.876 121.646L172.953 125.972L173.493 124.462Z" fill="#CFDBEC"/>
<path d="M153.214 124.012L129.062 115.361L128.521 116.87L152.674 125.521L153.214 124.012Z" fill="#CFDBEC"/>
<path d="M171.328 130.501L159.252 126.175L158.711 127.685L170.788 132.01L171.328 130.501Z" fill="#CFDBEC"/>
<path d="M141.112 86.4677L180.36 100.525C181.194 100.824 182.112 100.389 182.411 99.5562L185.655 90.4989C185.953 89.6656 185.519 88.7471 184.686 88.4487L145.437 74.3913C144.604 74.0928 143.686 74.5269 143.387 75.3601L140.143 84.4175C139.845 85.2507 140.279 86.1692 141.112 86.4677ZM144.897 75.9008L184.145 89.9582L180.901 99.0155L141.653 84.9581L144.897 75.9008Z" fill="#CFDBEC"/>
<path d="M189.421 103.769L210.554 111.339C211.388 111.637 212.306 111.203 212.605 110.37L215.849 101.313C216.147 100.479 215.713 99.5608 214.88 99.2624L193.746 91.693C192.913 91.3946 191.994 91.8286 191.696 92.6619L188.452 101.719C188.153 102.552 188.587 103.471 189.421 103.769ZM193.205 93.2026L214.339 100.772L211.095 109.829L189.961 102.26L193.205 93.2026Z" fill="#CFDBEC"/>
</g>
<defs>
<clipPath id="clip0">
<rect width="102.621" height="141.104" fill="white" transform="translate(0 60.0273) rotate(-10.2943)"/>
</clipPath>
<clipPath id="clip1">
<rect width="102.621" height="141.104" fill="white" transform="translate(66.0918) rotate(4.70573)"/>
</clipPath>
<clipPath id="clip2">
<rect width="102.621" height="141.104" fill="white" transform="translate(146.992 27.2559) rotate(19.7057)"/>
</clipPath>
</defs>
</svg>
