<svg width="311" height="291" viewBox="0 0 311 291" fill="none" xmlns="http://www.w3.org/2000/svg">
<mask id="mask0" style="mask-type:alpha" maskUnits="userSpaceOnUse" x="0" y="5" width="265" height="269">
<rect x="0.871094" y="5.49121" width="263.962" height="268.152" fill="#C4C4C4"/>
</mask>
<g mask="url(#mask0)">
<path d="M17.01 6.3291L17.01 272.805" stroke="#ADADB9" stroke-opacity="0.43" stroke-width="0.418987" stroke-linecap="round" stroke-dasharray="1.68 1.68"/>
<path d="M62.2605 6.3291L62.2605 272.805" stroke="#ADADB9" stroke-opacity="0.43" stroke-width="0.418987" stroke-linecap="round" stroke-dasharray="1.68 1.68"/>
<path d="M107.511 6.3291L107.511 272.805" stroke="#ADADB9" stroke-opacity="0.43" stroke-width="0.418987" stroke-linecap="round" stroke-dasharray="1.68 1.68"/>
<path d="M152.762 6.3291L152.762 272.805" stroke="#ADADB9" stroke-opacity="0.43" stroke-width="0.418987" stroke-linecap="round" stroke-dasharray="1.68 1.68"/>
<path d="M198.012 6.3291L198.012 272.805" stroke="#ADADB9" stroke-opacity="0.43" stroke-width="0.418987" stroke-linecap="round" stroke-dasharray="1.68 1.68"/>
<path d="M243.263 6.3291L243.263 272.805" stroke="#ADADB9" stroke-opacity="0.43" stroke-width="0.418987" stroke-linecap="round" stroke-dasharray="1.68 1.68"/>
<path d="M264.263 6.3291L264.263 272.805" stroke="#CACACD" stroke-linecap="round"/>
<path d="M-18.4463 59.1211H264.878" stroke="#ADADB9" stroke-opacity="0.43" stroke-width="0.418987" stroke-linecap="round"/>
<path d="M-18.4463 112.752L264.878 112.752" stroke="#ADADB9" stroke-opacity="0.43" stroke-width="0.418987" stroke-linecap="round"/>
<path d="M-18.4463 166.382L264.878 166.382" stroke="#ADADB9" stroke-opacity="0.43" stroke-width="0.418987" stroke-linecap="round"/>
<path d="M-18.4463 220.013L264.878 220.013" stroke="#ADADB9" stroke-opacity="0.43" stroke-width="0.418987" stroke-linecap="round"/>
<path d="M1 273.013L284.324 273.013" stroke="#CACACD" stroke-linecap="round"/>
</g>
<rect width="23.4633" height="30.1671" transform="matrix(1 0 0 -1 140.813 83.4238)" fill="#5AC8FA"/>
<rect width="23.4633" height="20.1114" transform="matrix(1 0 0 -1 95.5623 95.9932)" fill="#5AC8FA"/>
<rect x="140.813" y="36.4971" width="23.4633" height="16.7595" fill="#E5E5EA"/>
<rect x="140.813" y="83.4238" width="23.4633" height="190.22" fill="#007AFF"/>
<rect x="95.5623" y="95.9932" width="23.4633" height="177.651" fill="#007AFF"/>
<path d="M231.274 287.32H235.922V286.327H232.893V286.23L234.234 284.931C235.454 283.757 235.82 283.154 235.82 282.394V282.38C235.82 281.252 234.883 280.459 233.58 280.459C232.183 280.459 231.209 281.331 231.209 282.579L231.214 282.593L232.327 282.598L232.332 282.579C232.332 281.888 232.81 281.419 233.519 281.419C234.215 281.419 234.637 281.865 234.637 282.482V282.496C234.637 283.01 234.382 283.349 233.473 284.268L231.274 286.513V287.32ZM238.886 287.32H240.083V280.626H238.891L237.142 281.855V282.983L238.807 281.804H238.886V287.32ZM242.556 287.413C242.982 287.413 243.293 287.093 243.293 286.68C243.293 286.267 242.982 285.947 242.556 285.947C242.133 285.947 241.818 286.267 241.818 286.68C241.818 287.093 242.133 287.413 242.556 287.413ZM246.856 287.487C248.447 287.487 249.411 286.137 249.411 283.975V283.966C249.411 281.804 248.447 280.459 246.856 280.459C245.264 280.459 244.309 281.804 244.309 283.966V283.975C244.309 286.137 245.264 287.487 246.856 287.487ZM246.856 286.517C246.002 286.517 245.515 285.562 245.515 283.975V283.966C245.515 282.38 246.002 281.433 246.856 281.433C247.709 281.433 248.205 282.38 248.205 283.966V283.975C248.205 285.562 247.709 286.517 246.856 286.517ZM253.275 287.487C254.727 287.487 255.762 286.494 255.762 285.135V285.126C255.762 283.855 254.862 282.918 253.577 282.918C252.659 282.918 252.074 283.386 251.828 283.915H251.735C251.735 283.864 251.74 283.813 251.74 283.762C251.791 282.482 252.241 281.443 253.303 281.443C253.892 281.443 254.305 281.749 254.482 282.217L254.5 282.264H255.674L255.664 282.213C255.451 281.188 254.533 280.459 253.303 280.459C251.619 280.459 250.604 281.795 250.604 284.05V284.059C250.604 286.471 251.847 287.487 253.275 287.487ZM251.944 285.149V285.14C251.944 284.384 252.524 283.836 253.28 283.836C254.041 283.836 254.593 284.393 254.593 285.167V285.177C254.593 285.924 254.008 286.513 253.266 286.513C252.524 286.513 251.944 285.914 251.944 285.149Z" fill="#9E9EB4"/>
<path d="M273.154 273.167C274.745 273.167 275.71 271.817 275.71 269.656V269.646C275.71 267.485 274.745 266.139 273.154 266.139C271.563 266.139 270.608 267.485 270.608 269.646V269.656C270.608 271.817 271.563 273.167 273.154 273.167ZM273.154 272.198C272.301 272.198 271.814 271.242 271.814 269.656V269.646C271.814 268.06 272.301 267.114 273.154 267.114C274.008 267.114 274.504 268.06 274.504 269.646V269.656C274.504 271.242 274.008 272.198 273.154 272.198ZM279.189 273.663H279.732V272.893C280.966 272.805 281.898 272.146 281.898 271.005V270.996C281.898 269.994 281.23 269.493 279.992 269.206L279.732 269.145V267.345C280.289 267.424 280.674 267.754 280.734 268.296L280.739 268.306L281.815 268.301V268.296C281.773 267.234 280.938 266.51 279.732 266.413V265.634H279.189V266.413C277.979 266.497 277.111 267.188 277.111 268.25V268.259C277.111 269.224 277.76 269.762 278.953 270.036L279.189 270.092V271.966C278.493 271.891 278.15 271.53 278.071 271.024L278.067 271.015L276.99 271.019L276.986 271.024C277.023 272.146 277.96 272.814 279.189 272.893V273.663ZM278.229 268.176V268.167C278.229 267.768 278.558 267.42 279.189 267.345V269.02C278.503 268.839 278.229 268.565 278.229 268.176ZM280.78 271.107V271.117C280.78 271.576 280.456 271.905 279.732 271.966V270.217C280.525 270.416 280.78 270.667 280.78 271.107Z" fill="#9E9EB4"/>
<path d="M272.338 220H273.535V213.306H272.343L270.594 214.536V215.663L272.259 214.485H272.338V220ZM274.996 221.767H275.784L276.592 218.979H275.399L274.996 221.767ZM280.307 220.167C281.898 220.167 282.863 218.817 282.863 216.656V216.646C282.863 214.485 281.898 213.139 280.307 213.139C278.716 213.139 277.76 214.485 277.76 216.646V216.656C277.76 218.817 278.716 220.167 280.307 220.167ZM280.307 219.198C279.454 219.198 278.967 218.242 278.967 216.656V216.646C278.967 215.06 279.454 214.114 280.307 214.114C281.161 214.114 281.657 215.06 281.657 216.646V216.656C281.657 218.242 281.161 219.198 280.307 219.198ZM286.625 220.167C288.216 220.167 289.181 218.817 289.181 216.656V216.646C289.181 214.485 288.216 213.139 286.625 213.139C285.034 213.139 284.078 214.485 284.078 216.646V216.656C284.078 218.817 285.034 220.167 286.625 220.167ZM286.625 219.198C285.771 219.198 285.284 218.242 285.284 216.656V216.646C285.284 215.06 285.771 214.114 286.625 214.114C287.479 214.114 287.975 215.06 287.975 216.646V216.656C287.975 218.242 287.479 219.198 286.625 219.198ZM292.943 220.167C294.534 220.167 295.499 218.817 295.499 216.656V216.646C295.499 214.485 294.534 213.139 292.943 213.139C291.352 213.139 290.396 214.485 290.396 216.646V216.656C290.396 218.817 291.352 220.167 292.943 220.167ZM292.943 219.198C292.089 219.198 291.602 218.242 291.602 216.656V216.646C291.602 215.06 292.089 214.114 292.943 214.114C293.796 214.114 294.293 215.06 294.293 216.646V216.656C294.293 218.242 293.796 219.198 292.943 219.198ZM298.978 220.663H299.521V219.893C300.754 219.805 301.687 219.146 301.687 218.005V217.996C301.687 216.994 301.019 216.493 299.78 216.206L299.521 216.145V214.345C300.077 214.424 300.462 214.754 300.522 215.296L300.527 215.306L301.603 215.301V215.296C301.562 214.234 300.727 213.51 299.521 213.413V212.634H298.978V213.413C297.767 213.497 296.9 214.188 296.9 215.25V215.259C296.9 216.224 297.549 216.762 298.741 217.036L298.978 217.092V218.966C298.282 218.891 297.939 218.53 297.86 218.024L297.855 218.015L296.779 218.019L296.774 218.024C296.812 219.146 297.749 219.814 298.978 219.893V220.663ZM298.018 215.176V215.167C298.018 214.768 298.347 214.42 298.978 214.345V216.02C298.291 215.839 298.018 215.565 298.018 215.176ZM300.569 218.107V218.117C300.569 218.576 300.244 218.905 299.521 218.966V217.217C300.314 217.416 300.569 217.667 300.569 218.107Z" fill="#9E9EB4"/>
<path d="M270.7 167H275.348V166.007H272.319V165.91L273.66 164.611C274.88 163.438 275.246 162.834 275.246 162.074V162.06C275.246 160.933 274.309 160.139 273.006 160.139C271.61 160.139 270.635 161.011 270.635 162.259L270.64 162.273L271.753 162.278L271.758 162.259C271.758 161.568 272.236 161.1 272.946 161.1C273.641 161.1 274.063 161.545 274.063 162.162V162.176C274.063 162.691 273.808 163.029 272.899 163.948L270.7 166.193V167ZM276.434 168.767H277.222L278.03 165.979H276.837L276.434 168.767ZM281.745 167.167C283.336 167.167 284.301 165.817 284.301 163.656V163.646C284.301 161.485 283.336 160.139 281.745 160.139C280.154 160.139 279.198 161.485 279.198 163.646V163.656C279.198 165.817 280.154 167.167 281.745 167.167ZM281.745 166.198C280.892 166.198 280.405 165.242 280.405 163.656V163.646C280.405 162.06 280.892 161.114 281.745 161.114C282.599 161.114 283.095 162.06 283.095 163.646V163.656C283.095 165.242 282.599 166.198 281.745 166.198ZM288.063 167.167C289.654 167.167 290.619 165.817 290.619 163.656V163.646C290.619 161.485 289.654 160.139 288.063 160.139C286.472 160.139 285.516 161.485 285.516 163.646V163.656C285.516 165.817 286.472 167.167 288.063 167.167ZM288.063 166.198C287.209 166.198 286.722 165.242 286.722 163.656V163.646C286.722 162.06 287.209 161.114 288.063 161.114C288.917 161.114 289.413 162.06 289.413 163.646V163.656C289.413 165.242 288.917 166.198 288.063 166.198ZM294.381 167.167C295.972 167.167 296.937 165.817 296.937 163.656V163.646C296.937 161.485 295.972 160.139 294.381 160.139C292.79 160.139 291.834 161.485 291.834 163.646V163.656C291.834 165.817 292.79 167.167 294.381 167.167ZM294.381 166.198C293.527 166.198 293.04 165.242 293.04 163.656V163.646C293.04 162.06 293.527 161.114 294.381 161.114C295.234 161.114 295.731 162.06 295.731 163.646V163.656C295.731 165.242 295.234 166.198 294.381 166.198ZM300.416 167.663H300.958V166.893C302.192 166.805 303.125 166.146 303.125 165.005V164.996C303.125 163.994 302.457 163.493 301.218 163.206L300.958 163.145V161.345C301.515 161.424 301.9 161.754 301.96 162.296L301.965 162.306L303.041 162.301V162.296C303 161.234 302.165 160.51 300.958 160.413V159.634H300.416V160.413C299.205 160.497 298.338 161.188 298.338 162.25V162.259C298.338 163.224 298.987 163.762 300.179 164.036L300.416 164.092V165.966C299.72 165.891 299.377 165.53 299.298 165.024L299.293 165.015L298.217 165.019L298.212 165.024C298.25 166.146 299.187 166.814 300.416 166.893V167.663ZM299.456 162.176V162.167C299.456 161.768 299.785 161.42 300.416 161.345V163.02C299.729 162.839 299.456 162.565 299.456 162.176ZM302.007 165.107V165.117C302.007 165.576 301.682 165.905 300.958 165.966V164.217C301.752 164.416 302.007 164.667 302.007 165.107Z" fill="#9E9EB4"/>
<path d="M273.122 113.135C274.606 113.135 275.622 112.313 275.622 111.135V111.126C275.622 110.198 274.968 109.614 273.985 109.521V109.498C274.787 109.331 275.385 108.779 275.385 107.948V107.939C275.385 106.891 274.49 106.172 273.113 106.172C271.763 106.172 270.849 106.933 270.747 108.092L270.742 108.143H271.855L271.86 108.097C271.92 107.499 272.407 107.123 273.113 107.123C273.827 107.123 274.24 107.485 274.24 108.097V108.106C274.24 108.691 273.748 109.108 273.01 109.108H272.245V109.999H273.034C273.892 109.999 274.411 110.388 274.411 111.094V111.103C274.411 111.724 273.896 112.156 273.122 112.156C272.338 112.156 271.814 111.752 271.749 111.186L271.744 111.135H270.603L270.608 111.191C270.696 112.337 271.656 113.135 273.122 113.135ZM276.415 114.767H277.204L278.011 111.979H276.819L276.415 114.767ZM281.727 113.167C283.318 113.167 284.282 111.817 284.282 109.656V109.646C284.282 107.485 283.318 106.139 281.727 106.139C280.135 106.139 279.18 107.485 279.18 109.646V109.656C279.18 111.817 280.135 113.167 281.727 113.167ZM281.727 112.198C280.873 112.198 280.386 111.242 280.386 109.656V109.646C280.386 108.06 280.873 107.114 281.727 107.114C282.58 107.114 283.076 108.06 283.076 109.646V109.656C283.076 111.242 282.58 112.198 281.727 112.198ZM288.044 113.167C289.635 113.167 290.6 111.817 290.6 109.656V109.646C290.6 107.485 289.635 106.139 288.044 106.139C286.453 106.139 285.498 107.485 285.498 109.646V109.656C285.498 111.817 286.453 113.167 288.044 113.167ZM288.044 112.198C287.191 112.198 286.704 111.242 286.704 109.656V109.646C286.704 108.06 287.191 107.114 288.044 107.114C288.898 107.114 289.394 108.06 289.394 109.646V109.656C289.394 111.242 288.898 112.198 288.044 112.198ZM294.362 113.167C295.953 113.167 296.918 111.817 296.918 109.656V109.646C296.918 107.485 295.953 106.139 294.362 106.139C292.771 106.139 291.816 107.485 291.816 109.646V109.656C291.816 111.817 292.771 113.167 294.362 113.167ZM294.362 112.198C293.509 112.198 293.022 111.242 293.022 109.656V109.646C293.022 108.06 293.509 107.114 294.362 107.114C295.216 107.114 295.712 108.06 295.712 109.646V109.656C295.712 111.242 295.216 112.198 294.362 112.198ZM300.397 113.663H300.94V112.893C302.174 112.805 303.106 112.146 303.106 111.005V110.996C303.106 109.994 302.438 109.493 301.2 109.206L300.94 109.145V107.345C301.497 107.424 301.882 107.754 301.942 108.296L301.947 108.306L303.023 108.301V108.296C302.981 107.234 302.146 106.51 300.94 106.413V105.634H300.397V106.413C299.187 106.497 298.319 107.188 298.319 108.25V108.259C298.319 109.224 298.969 109.762 300.161 110.036L300.397 110.092V111.966C299.701 111.891 299.358 111.53 299.279 111.024L299.275 111.015L298.198 111.019L298.194 111.024C298.231 112.146 299.168 112.814 300.397 112.893V113.663ZM299.437 108.176V108.167C299.437 107.768 299.766 107.42 300.397 107.345V109.02C299.711 108.839 299.437 108.565 299.437 108.176ZM301.988 111.107V111.117C301.988 111.576 301.664 111.905 300.94 111.966V110.217C301.733 110.416 301.988 110.667 301.988 111.107Z" fill="#9E9EB4"/>
<path d="M273.117 59.167C274.564 59.167 275.58 58.2161 275.58 56.8245V56.8152C275.58 55.5349 274.676 54.6072 273.428 54.6072C272.797 54.6072 272.278 54.8762 271.999 55.3262H271.92L272.106 53.2898H275.191V52.3064H271.174L270.849 56.2261H271.874C271.953 56.0776 272.064 55.9478 272.185 55.8457C272.431 55.623 272.755 55.5117 273.131 55.5117C273.896 55.5117 274.444 56.0591 274.444 56.8384V56.8477C274.444 57.6362 273.906 58.1882 273.122 58.1882C272.435 58.1882 271.93 57.7522 271.842 57.2048L271.837 57.1724H270.733L270.738 57.2327C270.826 58.332 271.749 59.167 273.117 59.167ZM276.35 60.7673H277.139L277.946 57.9795H276.754L276.35 60.7673ZM281.662 59.167C283.253 59.167 284.218 57.8171 284.218 55.6555V55.6462C284.218 53.4846 283.253 52.1394 281.662 52.1394C280.071 52.1394 279.115 53.4846 279.115 55.6462V55.6555C279.115 57.8171 280.071 59.167 281.662 59.167ZM281.662 58.1975C280.808 58.1975 280.321 57.2419 280.321 55.6555V55.6462C280.321 54.0598 280.808 53.1135 281.662 53.1135C282.515 53.1135 283.011 54.0598 283.011 55.6462V55.6555C283.011 57.2419 282.515 58.1975 281.662 58.1975ZM287.979 59.167C289.571 59.167 290.535 57.8171 290.535 55.6555V55.6462C290.535 53.4846 289.571 52.1394 287.979 52.1394C286.388 52.1394 285.433 53.4846 285.433 55.6462V55.6555C285.433 57.8171 286.388 59.167 287.979 59.167ZM287.979 58.1975C287.126 58.1975 286.639 57.2419 286.639 55.6555V55.6462C286.639 54.0598 287.126 53.1135 287.979 53.1135C288.833 53.1135 289.329 54.0598 289.329 55.6462V55.6555C289.329 57.2419 288.833 58.1975 287.979 58.1975ZM294.297 59.167C295.888 59.167 296.853 57.8171 296.853 55.6555V55.6462C296.853 53.4846 295.888 52.1394 294.297 52.1394C292.706 52.1394 291.751 53.4846 291.751 55.6462V55.6555C291.751 57.8171 292.706 59.167 294.297 59.167ZM294.297 58.1975C293.444 58.1975 292.957 57.2419 292.957 55.6555V55.6462C292.957 54.0598 293.444 53.1135 294.297 53.1135C295.151 53.1135 295.647 54.0598 295.647 55.6462V55.6555C295.647 57.2419 295.151 58.1975 294.297 58.1975ZM300.332 59.6633H300.875V58.8933C302.109 58.8052 303.041 58.1465 303.041 57.0054V56.9961C303.041 55.9941 302.373 55.4932 301.135 55.2056L300.875 55.1453V53.3455C301.432 53.4243 301.817 53.7537 301.877 54.2964L301.882 54.3057L302.958 54.301V54.2964C302.916 53.2341 302.081 52.5105 300.875 52.4131V51.6338H300.332V52.4131C299.122 52.4966 298.254 53.1877 298.254 54.25V54.2593C298.254 55.2241 298.904 55.7622 300.096 56.0359L300.332 56.0916V57.9656C299.636 57.8914 299.293 57.5295 299.214 57.0239L299.21 57.0146L298.134 57.0193L298.129 57.0239C298.166 58.1465 299.103 58.8145 300.332 58.8933V59.6633ZM299.372 54.1758V54.1665C299.372 53.7676 299.701 53.4197 300.332 53.3455V55.02C299.646 54.8391 299.372 54.5654 299.372 54.1758ZM301.923 57.1074V57.1167C301.923 57.5759 301.599 57.9053 300.875 57.9656V56.2168C301.668 56.4163 301.923 56.6667 301.923 57.1074Z" fill="#9E9EB4"/>
<path d="M273.256 9.16699C274.708 9.16699 275.743 8.17432 275.743 6.81519V6.80591C275.743 5.53491 274.843 4.5979 273.558 4.5979C272.639 4.5979 272.055 5.06641 271.809 5.59521H271.716C271.716 5.54419 271.721 5.49316 271.721 5.44214C271.772 4.16187 272.222 3.1228 273.284 3.1228C273.873 3.1228 274.286 3.42896 274.462 3.89746L274.481 3.94385H275.655L275.645 3.89282C275.432 2.86768 274.513 2.1394 273.284 2.1394C271.6 2.1394 270.584 3.47534 270.584 5.72974V5.73901C270.584 8.15112 271.828 9.16699 273.256 9.16699ZM271.925 6.8291V6.81982C271.925 6.06372 272.505 5.51636 273.261 5.51636C274.022 5.51636 274.574 6.073 274.574 6.84766V6.85693C274.574 7.60376 273.989 8.19287 273.247 8.19287C272.505 8.19287 271.925 7.59448 271.925 6.8291ZM276.536 10.7673H277.324L278.132 7.97949H276.939L276.536 10.7673ZM281.847 9.16699C283.438 9.16699 284.403 7.81714 284.403 5.65552V5.64624C284.403 3.48462 283.438 2.1394 281.847 2.1394C280.256 2.1394 279.301 3.48462 279.301 5.64624V5.65552C279.301 7.81714 280.256 9.16699 281.847 9.16699ZM281.847 8.19751C280.994 8.19751 280.507 7.24194 280.507 5.65552V5.64624C280.507 4.05981 280.994 3.11353 281.847 3.11353C282.701 3.11353 283.197 4.05981 283.197 5.64624V5.65552C283.197 7.24194 282.701 8.19751 281.847 8.19751ZM288.165 9.16699C289.756 9.16699 290.721 7.81714 290.721 5.65552V5.64624C290.721 3.48462 289.756 2.1394 288.165 2.1394C286.574 2.1394 285.618 3.48462 285.618 5.64624V5.65552C285.618 7.81714 286.574 9.16699 288.165 9.16699ZM288.165 8.19751C287.312 8.19751 286.824 7.24194 286.824 5.65552V5.64624C286.824 4.05981 287.312 3.11353 288.165 3.11353C289.019 3.11353 289.515 4.05981 289.515 5.64624V5.65552C289.515 7.24194 289.019 8.19751 288.165 8.19751ZM294.483 9.16699C296.074 9.16699 297.039 7.81714 297.039 5.65552V5.64624C297.039 3.48462 296.074 2.1394 294.483 2.1394C292.892 2.1394 291.936 3.48462 291.936 5.64624V5.65552C291.936 7.81714 292.892 9.16699 294.483 9.16699ZM294.483 8.19751C293.629 8.19751 293.142 7.24194 293.142 5.65552V5.64624C293.142 4.05981 293.629 3.11353 294.483 3.11353C295.336 3.11353 295.833 4.05981 295.833 5.64624V5.65552C295.833 7.24194 295.336 8.19751 294.483 8.19751ZM300.518 9.66333H301.061V8.89331C302.294 8.80518 303.227 8.14648 303.227 7.00537V6.99609C303.227 5.99414 302.559 5.49316 301.32 5.20557L301.061 5.14526V3.34546C301.617 3.42432 302.002 3.75366 302.062 4.29639L302.067 4.30566L303.143 4.30103V4.29639C303.102 3.23413 302.267 2.5105 301.061 2.41309V1.63379H300.518V2.41309C299.307 2.49658 298.44 3.18774 298.44 4.25V4.25928C298.44 5.22412 299.089 5.76221 300.281 6.03589L300.518 6.09155V7.96558C299.822 7.89136 299.479 7.52954 299.4 7.02393L299.395 7.01465L298.319 7.01929L298.314 7.02393C298.352 8.14648 299.289 8.81445 300.518 8.89331V9.66333ZM299.558 4.17578V4.1665C299.558 3.76758 299.887 3.41968 300.518 3.34546V5.02002C299.831 4.83911 299.558 4.56543 299.558 4.17578ZM302.109 7.10742V7.1167C302.109 7.57593 301.784 7.90527 301.061 7.96558V6.2168C301.854 6.41626 302.109 6.66675 302.109 7.10742Z" fill="#9E9EB4"/>
<path d="M185.697 287.32H190.345V286.327H187.316V286.23L188.657 284.931C189.877 283.757 190.243 283.154 190.243 282.394V282.38C190.243 281.252 189.306 280.459 188.003 280.459C186.607 280.459 185.633 281.331 185.633 282.579L185.637 282.593L186.75 282.598L186.755 282.579C186.755 281.888 187.233 281.419 187.943 281.419C188.638 281.419 189.061 281.865 189.061 282.482V282.496C189.061 283.01 188.805 283.349 187.896 284.268L185.697 286.513V287.32ZM193.31 287.32H194.506V280.626H193.314L191.565 281.855V282.983L193.231 281.804H193.31V287.32ZM196.979 287.413C197.405 287.413 197.716 287.093 197.716 286.68C197.716 286.267 197.405 285.947 196.979 285.947C196.557 285.947 196.241 286.267 196.241 286.68C196.241 287.093 196.557 287.413 196.979 287.413ZM201.279 287.487C202.87 287.487 203.835 286.137 203.835 283.975V283.966C203.835 281.804 202.87 280.459 201.279 280.459C199.688 280.459 198.732 281.804 198.732 283.966V283.975C198.732 286.137 199.688 287.487 201.279 287.487ZM201.279 286.517C200.425 286.517 199.938 285.562 199.938 283.975V283.966C199.938 282.38 200.425 281.433 201.279 281.433C202.132 281.433 202.629 282.38 202.629 283.966V283.975C202.629 285.562 202.132 286.517 201.279 286.517ZM207.56 287.487C209.007 287.487 210.023 286.536 210.023 285.144V285.135C210.023 283.855 209.118 282.927 207.87 282.927C207.239 282.927 206.72 283.196 206.442 283.646H206.363L206.548 281.61H209.633V280.626H205.616L205.291 284.546H206.316C206.395 284.397 206.507 284.268 206.627 284.166C206.873 283.943 207.198 283.832 207.573 283.832C208.339 283.832 208.886 284.379 208.886 285.158V285.167C208.886 285.956 208.348 286.508 207.564 286.508C206.878 286.508 206.372 286.072 206.284 285.525L206.279 285.492H205.175L205.18 285.552C205.268 286.652 206.191 287.487 207.56 287.487Z" fill="#9E9EB4"/>
<path d="M140.75 287.32H145.398V286.327H142.369V286.23L143.709 284.931C144.929 283.757 145.296 283.154 145.296 282.394V282.38C145.296 281.252 144.359 280.459 143.055 280.459C141.659 280.459 140.685 281.331 140.685 282.579L140.69 282.593L141.803 282.598L141.807 282.579C141.807 281.888 142.285 281.419 142.995 281.419C143.691 281.419 144.113 281.865 144.113 282.482V282.496C144.113 283.01 143.858 283.349 142.949 284.268L140.75 286.513V287.32ZM148.362 287.32H149.559V280.626H148.367L146.618 281.855V282.983L148.283 281.804H148.362V287.32ZM152.031 287.413C152.458 287.413 152.769 287.093 152.769 286.68C152.769 286.267 152.458 285.947 152.031 285.947C151.609 285.947 151.294 286.267 151.294 286.68C151.294 287.093 151.609 287.413 152.031 287.413ZM156.331 287.487C157.922 287.487 158.887 286.137 158.887 283.975V283.966C158.887 281.804 157.922 280.459 156.331 280.459C154.74 280.459 153.785 281.804 153.785 283.966V283.975C153.785 286.137 154.74 287.487 156.331 287.487ZM156.331 286.517C155.478 286.517 154.991 285.562 154.991 283.975V283.966C154.991 282.38 155.478 281.433 156.331 281.433C157.185 281.433 157.681 282.38 157.681 283.966V283.975C157.681 285.562 157.185 286.517 156.331 286.517ZM163.285 287.32H164.43V286.035H165.33V285.047H164.43V280.626H162.737C161.828 282.009 160.877 283.549 160.01 285.056V286.035H163.285V287.32ZM161.123 285.075V285.005C161.772 283.869 162.547 282.63 163.233 281.582H163.303V285.075H161.123Z" fill="#9E9EB4"/>
<path d="M95.1869 287.32H99.8348V286.327H96.8058V286.23L98.1464 284.931C99.3663 283.757 99.7328 283.154 99.7328 282.394V282.38C99.7328 281.252 98.7958 280.459 97.4923 280.459C96.0961 280.459 95.122 281.331 95.122 282.579L95.1266 282.593L96.2399 282.598L96.2445 282.579C96.2445 281.888 96.7223 281.419 97.432 281.419C98.1278 281.419 98.5499 281.865 98.5499 282.482V282.496C98.5499 283.01 98.2948 283.349 97.3856 284.268L95.1869 286.513V287.32ZM102.799 287.32H103.996V280.626H102.804L101.055 281.855V282.983L102.72 281.804H102.799V287.32ZM106.468 287.413C106.895 287.413 107.206 287.093 107.206 286.68C107.206 286.267 106.895 285.947 106.468 285.947C106.046 285.947 105.731 286.267 105.731 286.68C105.731 287.093 106.046 287.413 106.468 287.413ZM110.768 287.487C112.359 287.487 113.324 286.137 113.324 283.975V283.966C113.324 281.804 112.359 280.459 110.768 280.459C109.177 280.459 108.222 281.804 108.222 283.966V283.975C108.222 286.137 109.177 287.487 110.768 287.487ZM110.768 286.517C109.915 286.517 109.428 285.562 109.428 283.975V283.966C109.428 282.38 109.915 281.433 110.768 281.433C111.622 281.433 112.118 282.38 112.118 283.966V283.975C112.118 285.562 111.622 286.517 110.768 286.517ZM117.007 287.454C118.492 287.454 119.507 286.633 119.507 285.455V285.446C119.507 284.518 118.853 283.934 117.87 283.841V283.818C118.672 283.651 119.271 283.099 119.271 282.268V282.259C119.271 281.211 118.376 280.492 116.998 280.492C115.648 280.492 114.734 281.252 114.632 282.412L114.628 282.463H115.741L115.745 282.417C115.806 281.818 116.293 281.443 116.998 281.443C117.712 281.443 118.125 281.804 118.125 282.417V282.426C118.125 283.01 117.633 283.428 116.896 283.428H116.131V284.319H116.919C117.777 284.319 118.297 284.708 118.297 285.413V285.423C118.297 286.044 117.782 286.476 117.007 286.476C116.223 286.476 115.699 286.072 115.634 285.506L115.63 285.455H114.488L114.493 285.511C114.581 286.656 115.541 287.454 117.007 287.454Z" fill="#9E9EB4"/>
<path d="M50.0336 287.32H54.6815V286.327H51.6525V286.23L52.9931 284.931C54.213 283.757 54.5795 283.154 54.5795 282.394V282.38C54.5795 281.252 53.6425 280.459 52.339 280.459C50.9428 280.459 49.9686 281.331 49.9686 282.579L49.9733 282.593L51.0866 282.598L51.0912 282.579C51.0912 281.888 51.569 281.419 52.2787 281.419C52.9745 281.419 53.3966 281.865 53.3966 282.482V282.496C53.3966 283.01 53.1415 283.349 52.2323 284.268L50.0336 286.513V287.32ZM57.6456 287.32H58.8424V280.626H57.6503L55.9015 281.855V282.983L57.5668 281.804H57.6456V287.32ZM61.3148 287.413C61.7416 287.413 62.0524 287.093 62.0524 286.68C62.0524 286.267 61.7416 285.947 61.3148 285.947C60.8927 285.947 60.5773 286.267 60.5773 286.68C60.5773 287.093 60.8927 287.413 61.3148 287.413ZM65.6149 287.487C67.2059 287.487 68.1708 286.137 68.1708 283.975V283.966C68.1708 281.804 67.2059 280.459 65.6149 280.459C64.0238 280.459 63.0682 281.804 63.0682 283.966V283.975C63.0682 286.137 64.0238 287.487 65.6149 287.487ZM65.6149 286.517C64.7614 286.517 64.2743 285.562 64.2743 283.975V283.966C64.2743 282.38 64.7614 281.433 65.6149 281.433C66.4684 281.433 66.9647 282.38 66.9647 283.966V283.975C66.9647 285.562 66.4684 286.517 65.6149 286.517ZM69.4789 287.32H74.1268V286.327H71.0978V286.23L72.4384 284.931C73.6583 283.757 74.0248 283.154 74.0248 282.394V282.38C74.0248 281.252 73.0878 280.459 71.7843 280.459C70.3881 280.459 69.414 281.331 69.414 282.579L69.4186 282.593L70.5319 282.598L70.5365 282.579C70.5365 281.888 71.0143 281.419 71.724 281.419C72.4198 281.419 72.8419 281.865 72.8419 282.482V282.496C72.8419 283.01 72.5868 283.349 71.6776 284.268L69.4789 286.513V287.32Z" fill="#9E9EB4"/>
<path d="M5.84213 287.32H10.4901V286.327H7.46103V286.23L8.8016 284.931C10.0216 283.757 10.388 283.154 10.388 282.394V282.38C10.388 281.252 9.45102 280.459 8.14755 280.459C6.75131 280.459 5.77719 281.331 5.77719 282.579L5.78183 282.593L6.89511 282.598L6.89975 282.579C6.89975 281.888 7.37753 281.419 8.08725 281.419C8.78305 281.419 9.20517 281.865 9.20517 282.482V282.496C9.20517 283.01 8.95004 283.349 8.04086 284.268L5.84213 286.513V287.32ZM13.4542 287.32H14.651V280.626H13.4588L11.7101 281.855V282.983L13.3753 281.804H13.4542V287.32ZM17.1234 287.413C17.5501 287.413 17.8609 287.093 17.8609 286.68C17.8609 286.267 17.5501 285.947 17.1234 285.947C16.7013 285.947 16.3858 286.267 16.3858 286.68C16.3858 287.093 16.7013 287.413 17.1234 287.413ZM21.4234 287.487C23.0145 287.487 23.9793 286.137 23.9793 283.975V283.966C23.9793 281.804 23.0145 280.459 21.4234 280.459C19.8324 280.459 18.8768 281.804 18.8768 283.966V283.975C18.8768 286.137 19.8324 287.487 21.4234 287.487ZM21.4234 286.517C20.5699 286.517 20.0829 285.562 20.0829 283.975V283.966C20.0829 282.38 20.5699 281.433 21.4234 281.433C22.2769 281.433 22.7733 282.38 22.7733 283.966V283.975C22.7733 285.562 22.2769 286.517 21.4234 286.517ZM26.9249 287.32H28.1217V280.626H26.9295L25.1808 281.855V282.983L26.846 281.804H26.9249V287.32Z" fill="#9E9EB4"/>
</svg>
