<svg width="356" height="316" viewBox="0 0 356 316" fill="none" xmlns="http://www.w3.org/2000/svg">
<g filter="url(#filter0_d)">
<rect x="27.5" y="93.5762" width="113.754" height="75.836" rx="8" fill="white"/>
<g clip-path="url(#clip0)">
<path d="M84.371 127.911C84.3187 131.857 88.0444 134.059 90.8511 135.368C93.7348 136.711 94.7034 137.572 94.6924 138.773C94.6704 140.612 92.392 141.423 90.2595 141.455C86.5393 141.51 84.3765 140.493 82.6567 139.724L81.3167 145.727C83.0419 146.488 86.2366 147.152 89.5496 147.181C97.3257 147.181 102.413 143.506 102.441 137.809C102.471 130.579 91.993 130.179 92.0646 126.947C92.0893 125.967 93.0662 124.922 95.2069 124.656C96.2663 124.521 99.1913 124.419 102.507 125.88L103.809 120.073C102.026 119.451 99.7334 118.856 96.8799 118.856C89.5606 118.856 84.4123 122.58 84.371 127.911ZM116.315 119.356C114.895 119.356 113.698 120.149 113.164 121.366L102.056 146.754H109.826L111.373 142.664H120.869L121.766 146.754H128.615L122.638 119.356H116.315ZM117.402 126.757L119.644 137.045H113.503L117.402 126.757ZM74.9494 119.356L68.8242 146.754H76.2289L82.3513 119.356H74.9494ZM63.9951 119.356L56.2877 138.004L53.1701 122.148C52.8042 120.378 51.3596 119.356 49.7554 119.356H37.1556L36.9795 120.152C39.566 120.689 42.5048 121.556 44.2851 122.483C45.3747 123.049 45.6857 123.544 46.0434 124.89L51.9484 146.754H59.7741L71.7712 119.356H63.9951Z" fill="#7B78FF"/>
<path d="M84.371 127.911C84.3187 131.857 88.0444 134.059 90.8511 135.368C93.7348 136.711 94.7034 137.572 94.6924 138.773C94.6704 140.612 92.392 141.423 90.2595 141.455C86.5393 141.51 84.3765 140.493 82.6567 139.724L81.3167 145.727C83.0419 146.488 86.2366 147.152 89.5496 147.181C97.3257 147.181 102.413 143.506 102.441 137.809C102.471 130.579 91.993 130.179 92.0646 126.947C92.0893 125.967 93.0662 124.922 95.2069 124.656C96.2663 124.521 99.1913 124.419 102.507 125.88L103.809 120.073C102.026 119.451 99.7334 118.856 96.8799 118.856C89.5606 118.856 84.4123 122.58 84.371 127.911ZM116.315 119.356C114.895 119.356 113.698 120.149 113.164 121.366L102.056 146.754H109.826L111.373 142.664H120.869L121.766 146.754H128.615L122.638 119.356H116.315ZM117.402 126.757L119.644 137.045H113.503L117.402 126.757ZM74.9494 119.356L68.8242 146.754H76.2289L82.3513 119.356H74.9494ZM63.9951 119.356L56.2877 138.004L53.1701 122.148C52.8042 120.378 51.3596 119.356 49.7554 119.356H37.1556L36.9795 120.152C39.566 120.689 42.5048 121.556 44.2851 122.483C45.3747 123.049 45.6857 123.544 46.0434 124.89L51.9484 146.754H59.7741L71.7712 119.356H63.9951Z" fill="url(#paint0_linear)" fill-opacity="0.4"/>
</g>
</g>
<g filter="url(#filter1_d)">
<rect x="117.556" y="139.078" width="113.754" height="75.836" rx="8" fill="white"/>
<path d="M182.976 162.093H165.889V191.901H182.976V162.093Z" fill="#FF5F00"/>
<path d="M166.973 176.996C166.973 170.94 169.903 165.568 174.405 162.092C171.096 159.564 166.919 158.037 162.363 158.037C151.568 158.037 142.834 166.516 142.834 176.996C142.834 187.476 151.568 195.955 162.363 195.955C166.919 195.955 171.096 194.428 174.405 191.9C169.903 188.477 166.973 183.052 166.973 176.996Z" fill="#EB001B"/>
<path d="M206.032 176.996C206.032 187.476 197.298 195.955 186.503 195.955C181.946 195.955 177.769 194.428 174.46 191.9C179.017 188.424 181.892 183.052 181.892 176.996C181.892 170.94 178.963 165.568 174.46 162.092C177.769 159.564 181.946 158.037 186.503 158.037C197.298 158.037 206.032 166.569 206.032 176.996Z" fill="#F79E1B"/>
</g>
<g filter="url(#filter2_d)">
<rect x="154.745" y="18.7412" width="113.754" height="75.836" rx="8" fill="white"/>
<path d="M169.023 40.9443L164.242 52.0604H167.354L168.237 49.8344H173.365L174.243 52.0604H177.424L172.647 40.9443H169.023ZM170.792 43.5314L172.355 47.4211H169.224L170.792 43.5314Z" fill="#298ADF"/>
<path d="M177.754 52.0565V40.9404L182.178 40.9569L184.75 48.1238L187.262 40.9404H191.649V52.0565H188.87V43.8657L185.925 52.0565H183.487L180.533 43.8657V52.0565H177.754Z" fill="#298ADF"/>
<path d="M193.55 52.0565V40.9404H202.619V43.4269H196.359V45.3283H202.472V47.6686H196.359V49.6431H202.619V52.0565H193.55Z" fill="#298ADF"/>
<path d="M204.228 40.9443V52.0604H207.007V48.1113H208.177L211.509 52.0604H214.905L211.248 47.965C212.749 47.8384 214.297 46.5504 214.297 44.5507C214.297 42.2115 212.461 40.9443 210.412 40.9443H204.228ZM207.007 43.4308H210.183C210.945 43.4308 211.5 44.0269 211.5 44.6009C211.5 45.3394 210.781 45.771 210.224 45.771H207.007V43.4308Z" fill="#298ADF"/>
<path d="M218.27 52.0565H215.432V40.9404H218.27V52.0565Z" fill="#298ADF"/>
<path d="M224.997 52.0565H224.384C221.421 52.0565 219.622 49.7218 219.622 46.5442C219.622 43.2881 221.401 40.9404 225.143 40.9404H228.215V43.5732H225.031C223.512 43.5732 222.437 44.7587 222.437 46.5716C222.437 48.7243 223.666 49.6285 225.436 49.6285H226.167L224.997 52.0565Z" fill="#298ADF"/>
<path d="M231.044 40.9443L226.263 52.0604H229.375L230.258 49.8344H235.386L236.264 52.0604H239.445L234.668 40.9443H231.044ZM232.813 43.5314L234.376 47.4211H231.245L232.813 43.5314Z" fill="#298ADF"/>
<path d="M239.769 52.0565V40.9404H243.302L247.813 47.9245V40.9404H250.592V52.0565H247.173L242.548 44.8896V52.0565H239.769Z" fill="#298ADF"/>
<path d="M184.482 71.5116V60.3955H193.55V62.882H187.29V64.7834H193.404V67.1237H187.29V69.0982H193.55V71.5116H184.482Z" fill="#298ADF"/>
<path d="M228.917 71.5116V60.3955H237.985V62.882H231.725V64.7834H237.81V67.1237H231.725V69.0982H237.985V71.5116H228.917Z" fill="#298ADF"/>
<path d="M193.902 71.5116L198.318 66.0221L193.797 60.3955H197.299L199.991 63.8738L202.692 60.3955H206.056L201.595 65.9535L206.019 71.5116H202.518L199.904 68.0881L197.353 71.5116H193.902Z" fill="#298ADF"/>
<path d="M206.348 60.3955V71.5116H209.2V68.0012H212.125C214.6 68.0012 216.476 66.6881 216.476 64.1344C216.476 62.0189 215.005 60.3955 212.486 60.3955H206.348ZM209.2 62.9094H212.281C213.08 62.9094 213.652 63.3995 213.652 64.1892C213.652 64.9311 213.083 65.469 212.271 65.469H209.2V62.9094Z" fill="#298ADF"/>
<path d="M217.682 60.3955V71.5116H220.461V67.5624H221.631L224.963 71.5116H228.359L224.703 67.4162C226.203 67.2895 227.751 66.0015 227.751 64.0018C227.751 61.6626 225.915 60.3955 223.866 60.3955H217.682ZM220.461 62.882H223.638C224.4 62.882 224.954 63.4781 224.954 64.0521C224.954 64.7906 224.236 65.2222 223.679 65.2222H220.461V62.882Z" fill="#298ADF"/>
<path d="M239.273 71.5116V69.0982H244.834C245.657 69.0982 246.014 68.6535 246.014 68.1658C246.014 67.6985 245.659 67.226 244.834 67.226H242.321C240.137 67.226 238.92 65.895 238.92 63.8967C238.92 62.1143 240.034 60.3955 243.28 60.3955H248.692L247.522 62.8966H242.842C241.947 62.8966 241.672 63.3661 241.672 63.8144C241.672 64.2753 242.012 64.7834 242.695 64.7834H245.328C247.763 64.7834 248.82 66.1648 248.82 67.9738C248.82 69.9187 247.643 71.5116 245.196 71.5116H239.273Z" fill="#298ADF"/>
<path d="M249.471 71.5116V69.0982H255.033C255.856 69.0982 256.212 68.6535 256.212 68.1658C256.212 67.6985 255.857 67.226 255.033 67.226H252.519C250.335 67.226 249.118 65.895 249.118 63.8967C249.118 62.1143 250.232 60.3955 253.479 60.3955H258.89L257.72 62.8966H253.04C252.145 62.8966 251.87 63.3661 251.87 63.8144C251.87 64.2753 252.21 64.7834 252.894 64.7834H255.526C257.962 64.7834 259.018 66.1648 259.018 67.9738C259.018 69.9187 257.841 71.5116 255.394 71.5116H249.471Z" fill="#298ADF"/>
</g>
<g filter="url(#filter3_d)">
<rect x="214.246" y="89.7861" width="113.754" height="75.836" rx="8" fill="white"/>
<g clip-path="url(#clip1)">
<path d="M231.439 132.881C230.519 133.703 229.325 134.061 227.435 134.061H226.649V124.242H227.435C229.325 124.242 230.472 124.576 231.439 125.443C232.451 126.335 233.059 127.717 233.059 129.139C233.059 130.565 232.451 131.989 231.439 132.881ZM228.021 121.726H223.726V136.575H227.998C230.27 136.575 231.91 136.045 233.35 134.861C235.061 133.459 236.073 131.346 236.073 129.161C236.073 124.778 232.766 121.726 228.021 121.726Z" fill="#8A8A8A" fill-opacity="0.8"/>
<path d="M237.42 136.575H240.346V121.726H237.42V136.575Z" fill="#8A8A8A" fill-opacity="0.8"/>
<path d="M247.5 127.424C245.745 126.781 245.229 126.357 245.229 125.554C245.229 124.619 246.147 123.908 247.409 123.908C248.285 123.908 249.006 124.265 249.768 125.111L251.299 123.127C250.041 122.037 248.536 121.48 246.891 121.48C244.237 121.48 242.213 123.305 242.213 125.735C242.213 127.781 243.155 128.828 245.903 129.807C247.049 130.207 247.632 130.474 247.926 130.653C248.511 131.031 248.803 131.566 248.803 132.19C248.803 133.393 247.837 134.284 246.531 134.284C245.136 134.284 244.012 133.593 243.338 132.304L241.448 134.105C242.796 136.064 244.415 136.933 246.641 136.933C249.682 136.933 251.815 134.931 251.815 132.056C251.815 129.697 250.829 128.629 247.5 127.424Z" fill="#8A8A8A" fill-opacity="0.8"/>
<path d="M252.738 129.162C252.738 133.527 256.2 136.911 260.656 136.911C261.915 136.911 262.994 136.666 264.324 136.046V132.636C263.154 133.795 262.118 134.262 260.792 134.262C257.845 134.262 255.753 132.147 255.753 129.14C255.753 126.289 257.911 124.04 260.656 124.04C262.051 124.04 263.107 124.533 264.324 125.711V122.303C263.04 121.658 261.983 121.391 260.725 121.391C256.292 121.391 252.738 124.844 252.738 129.162Z" fill="#8A8A8A" fill-opacity="0.8"/>
<path d="M287.524 131.699L283.524 121.724H280.328L286.693 136.955H288.268L294.748 121.724H291.577L287.524 131.699Z" fill="#8A8A8A" fill-opacity="0.8"/>
<path d="M296.071 136.575H304.369V134.061H298.994V130.053H304.171V127.538H298.994V124.242H304.369V121.726H296.071V136.575Z" fill="#8A8A8A" fill-opacity="0.8"/>
<path d="M310.084 128.562H309.229V124.065H310.13C311.952 124.065 312.943 124.82 312.943 126.266C312.943 127.758 311.952 128.562 310.084 128.562ZM315.954 126.11C315.954 123.33 314.02 121.726 310.645 121.726H306.307V136.575H309.229V130.61H309.611L313.661 136.575H317.259L312.537 130.319C314.741 129.876 315.954 128.383 315.954 126.11Z" fill="#8A8A8A" fill-opacity="0.8"/>
<path d="M317.268 122.461H317.215V122.12H317.271C317.427 122.12 317.507 122.175 317.507 122.288C317.507 122.403 317.426 122.461 317.268 122.461ZM317.822 122.283C317.822 122.023 317.641 121.88 317.323 121.88H316.9V123.186H317.215V122.679L317.584 123.186H317.968L317.534 122.647C317.72 122.598 317.822 122.464 317.822 122.283Z" fill="#201D1C"/>
<path d="M317.382 123.466C316.878 123.466 316.466 123.05 316.466 122.533C316.466 122.013 316.873 121.598 317.382 121.598C317.883 121.598 318.292 122.022 318.292 122.533C318.292 123.046 317.883 123.466 317.382 123.466ZM317.386 121.393C316.746 121.393 316.238 121.899 316.238 122.531C316.238 123.162 316.752 123.669 317.386 123.669C318.01 123.669 318.521 123.157 318.521 122.531C318.521 121.908 318.01 121.393 317.386 121.393Z" fill="#201D1C"/>
<ellipse cx="273.234" cy="129.336" rx="8.03335" ry="7.95256" fill="url(#paint1_linear)"/>
</g>
</g>
<path d="M79.3445 308.402C79.5788 308.402 79.9594 308.314 80.3253 308.109C88.6544 303.44 91.5088 301.464 91.5088 296.121V284.922C91.5088 283.385 90.8501 282.902 89.6059 282.375C87.8786 281.658 82.3015 279.653 80.5742 279.053C80.1789 278.921 79.7544 278.833 79.3445 278.833C78.9347 278.833 78.5102 278.95 78.1296 279.053C76.4023 279.55 70.8105 281.673 69.0832 282.375C67.8536 282.888 67.1803 283.385 67.1803 284.922V296.121C67.1803 301.464 70.0493 303.425 78.3638 308.109C78.7444 308.314 79.1103 308.402 79.3445 308.402ZM79.3445 305.753C79.1103 305.753 78.8761 305.665 78.437 305.401C71.6742 301.303 69.5077 300.102 69.5077 295.579V285.376C69.5077 284.879 69.5955 284.688 70.0054 284.527C72.2304 283.649 76.5487 282.2 78.759 281.321C78.9932 281.219 79.1835 281.19 79.3445 281.19C79.5056 281.19 79.6959 281.234 79.9301 281.321C82.1404 282.2 86.4294 283.751 88.6983 284.527C89.0935 284.674 89.1814 284.879 89.1814 285.376V295.579C89.1814 300.102 87.0149 301.288 80.2521 305.401C79.8276 305.665 79.5788 305.753 79.3445 305.753ZM77.749 299.853C78.232 299.853 78.6419 299.619 78.9347 299.18L85.6243 288.641C85.8 288.362 85.9756 288.04 85.9756 287.704C85.9756 287.06 85.3901 286.635 84.7899 286.635C84.4093 286.635 84.0434 286.855 83.7653 287.294L77.6904 297.043L74.8067 293.31C74.4554 292.842 74.1334 292.71 73.7381 292.71C73.0941 292.71 72.5964 293.222 72.5964 293.881C72.5964 294.188 72.7281 294.51 72.933 294.789L76.5047 299.18C76.8707 299.663 77.2659 299.853 77.749 299.853Z" fill="#6C6D70"/>
<path d="M106.018 295.33V300.791H102.824V285.291H108.871C110.035 285.291 111.057 285.503 111.937 285.929C112.824 286.355 113.505 286.962 113.981 287.75C114.456 288.53 114.694 289.421 114.694 290.422C114.694 291.941 114.172 293.14 113.129 294.02C112.093 294.893 110.656 295.33 108.818 295.33H106.018ZM106.018 292.743H108.871C109.715 292.743 110.358 292.544 110.798 292.147C111.245 291.749 111.468 291.181 111.468 290.443C111.468 289.684 111.245 289.07 110.798 288.601C110.351 288.133 109.733 287.892 108.945 287.878H106.018V292.743ZM116.067 294.925C116.067 293.782 116.287 292.764 116.727 291.87C117.168 290.975 117.799 290.283 118.622 289.794C119.453 289.304 120.415 289.059 121.507 289.059C123.062 289.059 124.329 289.535 125.308 290.486C126.295 291.437 126.845 292.729 126.958 294.361L126.98 295.149C126.98 296.916 126.486 298.335 125.5 299.407C124.513 300.472 123.19 301.004 121.529 301.004C119.868 301.004 118.541 300.472 117.547 299.407C116.561 298.342 116.067 296.895 116.067 295.064V294.925ZM119.144 295.149C119.144 296.242 119.35 297.079 119.762 297.661C120.173 298.236 120.762 298.523 121.529 298.523C122.274 298.523 122.856 298.24 123.275 297.672C123.693 297.097 123.903 296.181 123.903 294.925C123.903 293.853 123.693 293.023 123.275 292.434C122.856 291.845 122.267 291.55 121.507 291.55C120.755 291.55 120.173 291.845 119.762 292.434C119.35 293.016 119.144 293.921 119.144 295.149ZM138.892 296.607L140.404 289.272H143.374L140.436 300.791H137.86L135.677 293.541L133.495 300.791H130.929L127.991 289.272H130.961L132.462 296.597L134.57 289.272H136.795L138.892 296.607ZM150.209 301.004C148.52 301.004 147.143 300.486 146.078 299.45C145.021 298.413 144.492 297.033 144.492 295.308V295.01C144.492 293.853 144.716 292.821 145.163 291.912C145.61 290.997 146.242 290.294 147.058 289.804C147.881 289.308 148.818 289.059 149.868 289.059C151.444 289.059 152.682 289.556 153.584 290.55C154.492 291.543 154.946 292.952 154.946 294.776V296.032H147.611C147.711 296.785 148.009 297.388 148.506 297.842C149.009 298.296 149.645 298.523 150.411 298.523C151.596 298.523 152.523 298.094 153.19 297.235L154.701 298.928C154.24 299.581 153.616 300.092 152.828 300.461C152.04 300.823 151.167 301.004 150.209 301.004ZM149.858 291.55C149.247 291.55 148.75 291.756 148.367 292.168C147.991 292.579 147.75 293.169 147.643 293.935H151.923V293.69C151.909 293.009 151.724 292.484 151.369 292.115C151.014 291.738 150.511 291.55 149.858 291.55ZM163.176 292.157C162.757 292.1 162.388 292.072 162.068 292.072C160.904 292.072 160.142 292.466 159.78 293.254V300.791H156.703V289.272H159.609L159.694 290.645C160.312 289.588 161.167 289.059 162.26 289.059C162.601 289.059 162.92 289.105 163.218 289.198L163.176 292.157ZM169.755 301.004C168.066 301.004 166.689 300.486 165.624 299.45C164.567 298.413 164.038 297.033 164.038 295.308V295.01C164.038 293.853 164.262 292.821 164.709 291.912C165.156 290.997 165.787 290.294 166.604 289.804C167.427 289.308 168.364 289.059 169.414 289.059C170.99 289.059 172.228 289.556 173.13 290.55C174.038 291.543 174.492 292.952 174.492 294.776V296.032H167.157C167.257 296.785 167.555 297.388 168.051 297.842C168.555 298.296 169.191 298.523 169.957 298.523C171.142 298.523 172.069 298.094 172.736 297.235L174.247 298.928C173.786 299.581 173.161 300.092 172.374 300.461C171.586 300.823 170.713 301.004 169.755 301.004ZM169.403 291.55C168.793 291.55 168.296 291.756 167.913 292.168C167.537 292.579 167.296 293.169 167.189 293.935H171.469V293.69C171.455 293.009 171.27 292.484 170.915 292.115C170.56 291.738 170.056 291.55 169.403 291.55ZM175.77 294.946C175.77 293.151 176.171 291.721 176.973 290.656C177.782 289.592 178.885 289.059 180.284 289.059C181.405 289.059 182.331 289.478 183.062 290.315V284.439H186.15V300.791H183.371L183.222 299.567C182.455 300.525 181.469 301.004 180.262 301.004C178.907 301.004 177.817 300.472 176.994 299.407C176.178 298.335 175.77 296.848 175.77 294.946ZM178.846 295.17C178.846 296.249 179.034 297.076 179.411 297.65C179.787 298.225 180.333 298.513 181.05 298.513C182.001 298.513 182.672 298.112 183.062 297.31V292.764C182.679 291.962 182.015 291.561 181.071 291.561C179.588 291.561 178.846 292.764 178.846 295.17ZM204.343 295.138C204.343 296.983 203.949 298.424 203.162 299.46C202.374 300.489 201.274 301.004 199.861 301.004C198.612 301.004 197.615 300.525 196.87 299.567L196.732 300.791H193.964V284.439H197.04V290.305C197.75 289.474 198.683 289.059 199.84 289.059C201.245 289.059 202.346 289.577 203.14 290.614C203.942 291.643 204.343 293.094 204.343 294.968V295.138ZM201.267 294.914C201.267 293.751 201.082 292.902 200.713 292.37C200.344 291.831 199.794 291.561 199.063 291.561C198.084 291.561 197.409 291.962 197.04 292.764V297.31C197.416 298.119 198.098 298.523 199.084 298.523C200.078 298.523 200.731 298.034 201.043 297.054C201.192 296.586 201.267 295.873 201.267 294.914ZM210.422 296.437L212.551 289.272H215.852L211.221 302.58L210.965 303.186C210.277 304.691 209.141 305.443 207.558 305.443C207.111 305.443 206.657 305.376 206.196 305.241V302.91L206.664 302.92C207.246 302.92 207.679 302.831 207.963 302.654C208.254 302.477 208.481 302.182 208.644 301.77L209.006 300.823L204.971 289.272H208.282L210.422 296.437Z" fill="#6C6D70"/>
<g clip-path="url(#clip2)">
<path fill-rule="evenodd" clip-rule="evenodd" d="M300.575 295.728H290.606C290.841 298.043 292.585 298.786 294.564 298.786C296.592 298.786 298.225 298.343 299.573 297.647V301.628C297.862 302.583 295.904 303.041 293.933 302.947C288.973 302.947 285.485 299.949 285.485 293.978C285.485 288.953 288.441 284.96 293.277 284.96C298.126 284.96 300.649 288.893 300.649 293.954C300.649 294.433 300.6 295.465 300.575 295.728ZM293.252 288.989C291.978 288.989 290.568 289.865 290.568 292.083H295.825C295.825 289.865 294.502 288.989 293.252 288.989ZM277.457 302.947C275.676 302.947 274.588 302.228 273.87 301.7L273.846 307.252L268.75 308.296V285.284H273.4L273.499 286.507C274.578 285.515 276.008 284.961 277.494 284.96C281.081 284.96 284.446 288.078 284.446 293.834C284.446 300.105 281.106 302.947 277.457 302.947ZM276.282 289.337C275.107 289.337 274.377 289.745 273.846 290.308L273.87 297.647C274.365 298.175 275.083 298.582 276.282 298.582C278.162 298.582 279.424 296.604 279.424 293.942C279.424 291.364 278.138 289.337 276.282 289.337ZM261.736 285.284H266.845V302.6H261.736V285.284ZM261.736 279.648L266.845 278.604V282.634L261.736 283.689V279.66V279.648ZM256.393 290.86V302.6H251.297V285.284H255.874L256.022 286.747C257.259 284.624 259.819 285.056 260.5 285.284V289.829C259.856 289.625 257.667 289.313 256.393 290.86ZM245.818 296.52C245.818 299.434 249.034 298.534 249.677 298.271V302.3C248.996 302.66 247.772 302.947 246.102 302.947C245.406 302.967 244.713 302.849 244.066 302.601C243.418 302.353 242.83 301.98 242.336 301.504C241.842 301.029 241.453 300.461 241.192 299.835C240.932 299.209 240.805 298.538 240.821 297.863L240.833 282.07L245.805 281.039V285.284H249.689V289.517H245.818V296.532V296.52ZM239.745 297.359C239.745 300.921 236.887 302.947 232.657 302.947C230.759 302.946 228.881 302.566 227.141 301.832V297.119C228.848 298.019 230.975 298.69 232.657 298.69C233.795 298.69 234.55 298.403 234.55 297.491C234.55 295.117 226.807 296.004 226.807 290.536C226.807 287.047 229.627 284.96 233.758 284.96C235.44 284.96 237.122 285.2 238.817 285.859V290.512C237.251 289.713 235.515 289.278 233.746 289.241C232.682 289.241 231.964 289.541 231.964 290.32C231.964 292.539 239.745 291.483 239.745 297.371V297.359Z" fill="#6C6D70"/>
</g>
<defs>
<filter id="filter0_d" x="0.14706" y="75.3409" width="168.46" height="130.542" filterUnits="userSpaceOnUse" color-interpolation-filters="sRGB">
<feFlood flood-opacity="0" result="BackgroundImageFix"/>
<feColorMatrix in="SourceAlpha" type="matrix" values="0 0 0 0 0 0 0 0 0 0 0 0 0 0 0 0 0 0 127 0" result="hardAlpha"/>
<feOffset dy="9.11765"/>
<feGaussianBlur stdDeviation="13.6765"/>
<feColorMatrix type="matrix" values="0 0 0 0 0.0451389 0 0 0 0 0.203201 0 0 0 0 0.416667 0 0 0 0.1 0"/>
<feBlend mode="normal" in2="BackgroundImageFix" result="effect1_dropShadow"/>
<feBlend mode="normal" in="SourceGraphic" in2="effect1_dropShadow" result="shape"/>
</filter>
<filter id="filter1_d" x="90.2027" y="120.843" width="168.46" height="130.542" filterUnits="userSpaceOnUse" color-interpolation-filters="sRGB">
<feFlood flood-opacity="0" result="BackgroundImageFix"/>
<feColorMatrix in="SourceAlpha" type="matrix" values="0 0 0 0 0 0 0 0 0 0 0 0 0 0 0 0 0 0 127 0" result="hardAlpha"/>
<feOffset dy="9.11765"/>
<feGaussianBlur stdDeviation="13.6765"/>
<feColorMatrix type="matrix" values="0 0 0 0 0.0451389 0 0 0 0 0.203201 0 0 0 0 0.416667 0 0 0 0.1 0"/>
<feBlend mode="normal" in2="BackgroundImageFix" result="effect1_dropShadow"/>
<feBlend mode="normal" in="SourceGraphic" in2="effect1_dropShadow" result="shape"/>
</filter>
<filter id="filter2_d" x="127.392" y="0.505919" width="168.46" height="130.542" filterUnits="userSpaceOnUse" color-interpolation-filters="sRGB">
<feFlood flood-opacity="0" result="BackgroundImageFix"/>
<feColorMatrix in="SourceAlpha" type="matrix" values="0 0 0 0 0 0 0 0 0 0 0 0 0 0 0 0 0 0 127 0" result="hardAlpha"/>
<feOffset dy="9.11765"/>
<feGaussianBlur stdDeviation="13.6765"/>
<feColorMatrix type="matrix" values="0 0 0 0 0.0451389 0 0 0 0 0.203201 0 0 0 0 0.416667 0 0 0 0.1 0"/>
<feBlend mode="normal" in2="BackgroundImageFix" result="effect1_dropShadow"/>
<feBlend mode="normal" in="SourceGraphic" in2="effect1_dropShadow" result="shape"/>
</filter>
<filter id="filter3_d" x="186.893" y="71.5508" width="168.46" height="130.542" filterUnits="userSpaceOnUse" color-interpolation-filters="sRGB">
<feFlood flood-opacity="0" result="BackgroundImageFix"/>
<feColorMatrix in="SourceAlpha" type="matrix" values="0 0 0 0 0 0 0 0 0 0 0 0 0 0 0 0 0 0 127 0" result="hardAlpha"/>
<feOffset dy="9.11765"/>
<feGaussianBlur stdDeviation="13.6765"/>
<feColorMatrix type="matrix" values="0 0 0 0 0.0451389 0 0 0 0 0.203201 0 0 0 0 0.416667 0 0 0 0.1 0"/>
<feBlend mode="normal" in2="BackgroundImageFix" result="effect1_dropShadow"/>
<feBlend mode="normal" in="SourceGraphic" in2="effect1_dropShadow" result="shape"/>
</filter>
<linearGradient id="paint0_linear" x1="79.108" y1="147.749" x2="79.8928" y2="118.657" gradientUnits="userSpaceOnUse">
<stop stop-color="#222357"/>
<stop offset="1" stop-color="#254AA5"/>
</linearGradient>
<linearGradient id="paint1_linear" x1="264.827" y1="121.384" x2="281.101" y2="137.823" gradientUnits="userSpaceOnUse">
<stop offset="0.113303" stop-color="#A52A20"/>
<stop offset="0.46875" stop-color="#E9581B"/>
<stop offset="0.796781" stop-color="#FF9D1E"/>
</linearGradient>
<clipPath id="clip0">
<rect width="91.6351" height="28.4385" fill="white" transform="translate(36.9795 118.854)"/>
</clipPath>
<clipPath id="clip1">
<rect width="94.795" height="15.7992" fill="white" transform="translate(223.726 121.384)"/>
</clipPath>
<clipPath id="clip2">
<rect width="74.2135" height="29.9789" fill="white" transform="translate(226.807 278.604)"/>
</clipPath>
</defs>
</svg>
