<svg width="459" height="262" viewBox="0 0 459 262" fill="none" xmlns="http://www.w3.org/2000/svg">
<g filter="url(#filter0_d)">
<rect x="30" y="20" width="311" height="78" rx="10" fill="#FF092A"/>
<path d="M72.0552 64H73.3735V54.6177H76.7793V53.4312H68.6494V54.6177H72.0552V64ZM78.7275 64H80.002V59.3271C80.002 57.9429 80.8003 57.0933 82.0601 57.0933C83.3198 57.0933 83.9058 57.7744 83.9058 59.1953V64H85.1802V58.8877C85.1802 57.0127 84.1914 55.9653 82.4189 55.9653C81.2544 55.9653 80.5146 56.4561 80.1191 57.291H80.002V52.9697H78.7275V64ZM90.71 64.1392C92.5703 64.1392 93.6982 63.0845 93.9692 62.0151L93.9839 61.9565H92.7095L92.6802 62.0225C92.4678 62.4985 91.8086 63.0039 90.7393 63.0039C89.333 63.0039 88.4321 62.0518 88.3955 60.4185H94.0791V59.9204C94.0791 57.562 92.7754 55.9653 90.6294 55.9653C88.4834 55.9653 87.0918 57.6353 87.0918 60.0742V60.0815C87.0918 62.5571 88.4541 64.1392 90.71 64.1392ZM90.6221 57.1006C91.7866 57.1006 92.6509 57.8403 92.7827 59.4004H88.4175C88.5566 57.8989 89.4502 57.1006 90.6221 57.1006ZM100.949 54.5811C101.433 54.5811 101.828 54.1855 101.828 53.7021C101.828 53.2188 101.433 52.8232 100.949 52.8232C100.466 52.8232 100.07 53.2188 100.07 53.7021C100.07 54.1855 100.466 54.5811 100.949 54.5811ZM100.305 64H101.579V56.1045H100.305V64ZM103.981 64H105.256V59.3271C105.256 57.9429 106.054 57.0933 107.314 57.0933C108.574 57.0933 109.16 57.7744 109.16 59.1953V64H110.434V58.8877C110.434 57.0127 109.445 55.9653 107.673 55.9653C106.508 55.9653 105.769 56.4561 105.373 57.291H105.256V56.1045H103.981V64ZM114.682 64H115.971L118.894 56.1045H117.546L115.385 62.6084H115.268L113.107 56.1045H111.76L114.682 64ZM123.53 64.1392C125.778 64.1392 127.17 62.5864 127.17 60.0596V60.0449C127.17 57.5107 125.778 55.9653 123.53 55.9653C121.281 55.9653 119.89 57.5107 119.89 60.0449V60.0596C119.89 62.5864 121.281 64.1392 123.53 64.1392ZM123.53 63.0112C122.036 63.0112 121.193 61.9199 121.193 60.0596V60.0449C121.193 58.1772 122.036 57.0933 123.53 57.0933C125.024 57.0933 125.866 58.1772 125.866 60.0449V60.0596C125.866 61.9199 125.024 63.0112 123.53 63.0112ZM129.821 54.5811C130.305 54.5811 130.7 54.1855 130.7 53.7021C130.7 53.2188 130.305 52.8232 129.821 52.8232C129.338 52.8232 128.942 53.2188 128.942 53.7021C128.942 54.1855 129.338 54.5811 129.821 54.5811ZM129.177 64H130.451V56.1045H129.177V64ZM136.083 64.1392C137.98 64.1392 139.042 63.1211 139.365 61.6929L139.379 61.6123L138.12 61.6196L138.105 61.6636C137.812 62.5425 137.138 63.0112 136.076 63.0112C134.67 63.0112 133.762 61.8467 133.762 60.0303V60.0156C133.762 58.2358 134.655 57.0933 136.076 57.0933C137.211 57.0933 137.915 57.7231 138.112 58.4995L138.12 58.5215H139.387L139.379 58.4775C139.145 57.0713 137.995 55.9653 136.076 55.9653C133.864 55.9653 132.458 57.562 132.458 60.0156V60.0303C132.458 62.5352 133.872 64.1392 136.083 64.1392ZM144.47 64.1392C146.33 64.1392 147.458 63.0845 147.729 62.0151L147.744 61.9565H146.469L146.44 62.0225C146.228 62.4985 145.568 63.0039 144.499 63.0039C143.093 63.0039 142.192 62.0518 142.155 60.4185H147.839V59.9204C147.839 57.562 146.535 55.9653 144.389 55.9653C142.243 55.9653 140.852 57.6353 140.852 60.0742V60.0815C140.852 62.5571 142.214 64.1392 144.47 64.1392ZM144.382 57.1006C145.546 57.1006 146.411 57.8403 146.542 59.4004H142.177C142.316 57.8989 143.21 57.1006 144.382 57.1006ZM154.709 54.5811C155.192 54.5811 155.588 54.1855 155.588 53.7021C155.588 53.2188 155.192 52.8232 154.709 52.8232C154.226 52.8232 153.83 53.2188 153.83 53.7021C153.83 54.1855 154.226 54.5811 154.709 54.5811ZM154.064 64H155.339V56.1045H154.064V64ZM160.451 64.1392C162.246 64.1392 163.615 63.165 163.615 61.7588V61.7441C163.615 60.6162 162.897 59.9717 161.411 59.6128L160.195 59.3198C159.265 59.0928 158.869 58.7559 158.869 58.2212V58.2065C158.869 57.5107 159.558 57.0273 160.495 57.0273C161.447 57.0273 162.062 57.4595 162.231 58.082H163.483C163.308 56.793 162.158 55.9653 160.502 55.9653C158.825 55.9653 157.565 56.9541 157.565 58.2651V58.2725C157.565 59.4077 158.232 60.0522 159.711 60.4038L160.935 60.6968C161.909 60.9312 162.312 61.3047 162.312 61.8394V61.854C162.312 62.5718 161.557 63.0771 160.495 63.0771C159.484 63.0771 158.854 62.645 158.642 61.9858H157.338C157.485 63.2896 158.693 64.1392 160.451 64.1392ZM173.056 64.1392C175.305 64.1392 176.696 62.5864 176.696 60.0596V60.0449C176.696 57.5107 175.305 55.9653 173.056 55.9653C170.808 55.9653 169.416 57.5107 169.416 60.0449V60.0596C169.416 62.5864 170.808 64.1392 173.056 64.1392ZM173.056 63.0112C171.562 63.0112 170.72 61.9199 170.72 60.0596V60.0449C170.72 58.1772 171.562 57.0933 173.056 57.0933C174.55 57.0933 175.393 58.1772 175.393 60.0449V60.0596C175.393 61.9199 174.55 63.0112 173.056 63.0112ZM180.615 64H181.904L184.826 56.1045H183.479L181.318 62.6084H181.201L179.04 56.1045H177.692L180.615 64ZM189.44 64.1392C191.301 64.1392 192.429 63.0845 192.7 62.0151L192.714 61.9565H191.44L191.411 62.0225C191.198 62.4985 190.539 63.0039 189.47 63.0039C188.063 63.0039 187.163 62.0518 187.126 60.4185H192.81V59.9204C192.81 57.562 191.506 55.9653 189.36 55.9653C187.214 55.9653 185.822 57.6353 185.822 60.0742V60.0815C185.822 62.5571 187.185 64.1392 189.44 64.1392ZM189.353 57.1006C190.517 57.1006 191.381 57.8403 191.513 59.4004H187.148C187.287 57.8989 188.181 57.1006 189.353 57.1006ZM194.787 64H196.062V59.1074C196.062 57.9502 196.926 57.1812 198.142 57.1812C198.42 57.1812 198.662 57.2104 198.925 57.2544V56.0166C198.801 55.9946 198.53 55.9653 198.288 55.9653C197.219 55.9653 196.479 56.4487 196.179 57.2764H196.062V56.1045H194.787V64ZM200.646 66.6367H201.921V62.7549H202.038C202.47 63.5972 203.415 64.1392 204.499 64.1392C206.506 64.1392 207.81 62.5352 207.81 60.0596V60.0449C207.81 57.584 206.499 55.9653 204.499 55.9653C203.4 55.9653 202.521 56.4854 202.038 57.3643H201.921V56.1045H200.646V66.6367ZM204.206 63.0112C202.771 63.0112 201.892 61.8833 201.892 60.0596V60.0449C201.892 58.2212 202.771 57.0933 204.206 57.0933C205.649 57.0933 206.506 58.2065 206.506 60.0449V60.0596C206.506 61.8979 205.649 63.0112 204.206 63.0112ZM211.97 64.1392C213.032 64.1392 213.859 63.6777 214.357 62.8354H214.475V64H215.749V58.5947C215.749 56.9541 214.672 55.9653 212.746 55.9653C211.062 55.9653 209.86 56.8003 209.655 58.0381L209.648 58.082H210.922L210.93 58.0601C211.135 57.4448 211.757 57.0933 212.702 57.0933C213.881 57.0933 214.475 57.6206 214.475 58.5947V59.3125L212.211 59.4517C210.373 59.5615 209.333 60.3745 209.333 61.7808V61.7954C209.333 63.231 210.468 64.1392 211.97 64.1392ZM210.637 61.7661V61.7515C210.637 60.9678 211.164 60.543 212.365 60.4697L214.475 60.3379V61.0557C214.475 62.1836 213.53 63.0332 212.233 63.0332C211.318 63.0332 210.637 62.5645 210.637 61.7661ZM218.459 66.7686C219.858 66.7686 220.51 66.2559 221.162 64.4834L224.245 56.1045H222.905L220.744 62.6011H220.627L218.459 56.1045H217.097L220.019 64.0073L219.873 64.4761C219.587 65.3843 219.147 65.7139 218.422 65.7139C218.247 65.7139 218.049 65.7065 217.895 65.6772V66.7246C218.071 66.7539 218.291 66.7686 218.459 66.7686ZM228.859 64.1392C230.72 64.1392 231.848 63.0845 232.119 62.0151L232.133 61.9565H230.859L230.83 62.0225C230.617 62.4985 229.958 63.0039 228.889 63.0039C227.482 63.0039 226.582 62.0518 226.545 60.4185H232.229V59.9204C232.229 57.562 230.925 55.9653 228.779 55.9653C226.633 55.9653 225.241 57.6353 225.241 60.0742V60.0815C225.241 62.5571 226.604 64.1392 228.859 64.1392ZM228.771 57.1006C229.936 57.1006 230.8 57.8403 230.932 59.4004H226.567C226.706 57.8989 227.6 57.1006 228.771 57.1006ZM237.121 64.1392C238.22 64.1392 239.099 63.6191 239.582 62.7402H239.699V64H240.974V52.9697H239.699V57.3496H239.582C239.15 56.5073 238.205 55.9653 237.121 55.9653C235.114 55.9653 233.811 57.5693 233.811 60.0449V60.0596C233.811 62.5205 235.122 64.1392 237.121 64.1392ZM237.414 63.0112C235.971 63.0112 235.114 61.8979 235.114 60.0596V60.0449C235.114 58.2065 235.971 57.0933 237.414 57.0933C238.85 57.0933 239.729 58.2212 239.729 60.0449V60.0596C239.729 61.8833 238.85 63.0112 237.414 63.0112ZM251.564 64.1392C253.564 64.1392 254.875 62.5205 254.875 60.0596V60.0449C254.875 57.5693 253.571 55.9653 251.564 55.9653C250.48 55.9653 249.536 56.5073 249.104 57.3496H248.986V52.9697H247.712V64H248.986V62.7402H249.104C249.587 63.6191 250.466 64.1392 251.564 64.1392ZM251.271 63.0112C249.836 63.0112 248.957 61.8833 248.957 60.0596V60.0449C248.957 58.2212 249.836 57.0933 251.271 57.0933C252.714 57.0933 253.571 58.2065 253.571 60.0449V60.0596C253.571 61.8979 252.714 63.0112 251.271 63.0112ZM257.233 66.7686C258.632 66.7686 259.284 66.2559 259.936 64.4834L263.02 56.1045H261.679L259.519 62.6011H259.401L257.233 56.1045H255.871L258.793 64.0073L258.647 64.4761C258.361 65.3843 257.922 65.7139 257.197 65.7139C257.021 65.7139 256.823 65.7065 256.669 65.6772V66.7246C256.845 66.7539 257.065 66.7686 257.233 66.7686ZM272.036 65.062H272.915V63.8315C274.643 63.6924 276.079 62.7036 276.079 60.9458V60.9312C276.079 59.4004 275.024 58.624 273.142 58.1699L272.915 58.1187V54.7568C273.903 54.8813 274.606 55.4893 274.702 56.4707V56.4854L275.976 56.478V56.4707C275.917 54.8594 274.606 53.7607 272.915 53.6069V52.3691H272.036V53.6069C270.3 53.7681 269.062 54.8374 269.062 56.4048V56.4194C269.062 57.855 270.043 58.668 271.867 59.1074L272.036 59.1514V62.6743C270.761 62.5352 270.197 61.8101 270.065 60.9019V60.8872L268.791 60.8945V60.9019C268.85 62.6011 270.292 63.6631 272.036 63.8242V65.062ZM270.336 56.3315V56.3169C270.336 55.6138 270.922 54.9106 272.036 54.7568V57.9062C270.776 57.5986 270.336 57.042 270.336 56.3315ZM272.958 59.3711C274.409 59.7227 274.804 60.2354 274.804 61.0337V61.0483C274.804 61.8906 274.277 62.5791 272.915 62.689V59.3638L272.958 59.3711ZM280.949 64H282.268V53.4312H280.957L278.144 55.4526V56.8442L280.832 54.896H280.949V64ZM288.859 64.249C291.196 64.249 292.602 62.1177 292.602 58.7192V58.7046C292.602 55.3062 291.196 53.1821 288.859 53.1821C286.523 53.1821 285.131 55.3062 285.131 58.7046V58.7192C285.131 62.1177 286.523 64.249 288.859 64.249ZM288.859 63.0991C287.343 63.0991 286.457 61.4146 286.457 58.7192V58.7046C286.457 56.0093 287.343 54.3394 288.859 54.3394C290.375 54.3394 291.276 56.0093 291.276 58.7046V58.7192C291.276 61.4146 290.375 63.0991 288.859 63.0991ZM298.308 64.249C300.644 64.249 302.05 62.1177 302.05 58.7192V58.7046C302.05 55.3062 300.644 53.1821 298.308 53.1821C295.971 53.1821 294.58 55.3062 294.58 58.7046V58.7192C294.58 62.1177 295.971 64.249 298.308 64.249ZM298.308 63.0991C296.792 63.0991 295.905 61.4146 295.905 58.7192V58.7046C295.905 56.0093 296.792 54.3394 298.308 54.3394C299.824 54.3394 300.725 56.0093 300.725 58.7046V58.7192C300.725 61.4146 299.824 63.0991 298.308 63.0991Z" fill="white"/>
</g>
<g filter="url(#filter1_d)">
<rect x="118" y="82" width="311" height="78" rx="10" fill="black"/>
<path d="M155.207 111H156.525V101.618H159.931V100.431H151.801V101.618H155.207V111ZM161.879 111H163.153V106.327C163.153 104.943 163.952 104.093 165.211 104.093C166.471 104.093 167.057 104.774 167.057 106.195V111H168.332V105.888C168.332 104.013 167.343 102.965 165.57 102.965C164.406 102.965 163.666 103.456 163.271 104.291H163.153V99.9697H161.879V111ZM173.861 111.139C175.722 111.139 176.85 110.084 177.121 109.015L177.135 108.957H175.861L175.832 109.022C175.619 109.499 174.96 110.004 173.891 110.004C172.484 110.004 171.583 109.052 171.547 107.418H177.23V106.92C177.23 104.562 175.927 102.965 173.781 102.965C171.635 102.965 170.243 104.635 170.243 107.074V107.082C170.243 109.557 171.605 111.139 173.861 111.139ZM173.773 104.101C174.938 104.101 175.802 104.84 175.934 106.4H171.569C171.708 104.899 172.602 104.101 173.773 104.101ZM184.101 101.581C184.584 101.581 184.979 101.186 184.979 100.702C184.979 100.219 184.584 99.8232 184.101 99.8232C183.617 99.8232 183.222 100.219 183.222 100.702C183.222 101.186 183.617 101.581 184.101 101.581ZM183.456 111H184.73V103.104H183.456V111ZM187.133 111H188.407V106.327C188.407 104.943 189.206 104.093 190.465 104.093C191.725 104.093 192.311 104.774 192.311 106.195V111H193.585V105.888C193.585 104.013 192.597 102.965 190.824 102.965C189.66 102.965 188.92 103.456 188.524 104.291H188.407V103.104H187.133V111ZM197.833 111H199.123L202.045 103.104H200.697L198.537 109.608H198.419L196.259 103.104H194.911L197.833 111ZM206.681 111.139C208.93 111.139 210.321 109.586 210.321 107.06V107.045C210.321 104.511 208.93 102.965 206.681 102.965C204.433 102.965 203.041 104.511 203.041 107.045V107.06C203.041 109.586 204.433 111.139 206.681 111.139ZM206.681 110.011C205.187 110.011 204.345 108.92 204.345 107.06V107.045C204.345 105.177 205.187 104.093 206.681 104.093C208.175 104.093 209.018 105.177 209.018 107.045V107.06C209.018 108.92 208.175 110.011 206.681 110.011ZM212.973 101.581C213.456 101.581 213.852 101.186 213.852 100.702C213.852 100.219 213.456 99.8232 212.973 99.8232C212.489 99.8232 212.094 100.219 212.094 100.702C212.094 101.186 212.489 101.581 212.973 101.581ZM212.328 111H213.603V103.104H212.328V111ZM219.235 111.139C221.132 111.139 222.194 110.121 222.516 108.693L222.531 108.612L221.271 108.62L221.256 108.664C220.963 109.542 220.29 110.011 219.228 110.011C217.821 110.011 216.913 108.847 216.913 107.03V107.016C216.913 105.236 217.807 104.093 219.228 104.093C220.363 104.093 221.066 104.723 221.264 105.5L221.271 105.521H222.538L222.531 105.478C222.296 104.071 221.146 102.965 219.228 102.965C217.016 102.965 215.609 104.562 215.609 107.016V107.03C215.609 109.535 217.023 111.139 219.235 111.139ZM227.621 111.139C229.481 111.139 230.609 110.084 230.88 109.015L230.895 108.957H229.621L229.591 109.022C229.379 109.499 228.72 110.004 227.65 110.004C226.244 110.004 225.343 109.052 225.307 107.418H230.99V106.92C230.99 104.562 229.687 102.965 227.541 102.965C225.395 102.965 224.003 104.635 224.003 107.074V107.082C224.003 109.557 225.365 111.139 227.621 111.139ZM227.533 104.101C228.698 104.101 229.562 104.84 229.694 106.4H225.329C225.468 104.899 226.361 104.101 227.533 104.101ZM237.86 101.581C238.344 101.581 238.739 101.186 238.739 100.702C238.739 100.219 238.344 99.8232 237.86 99.8232C237.377 99.8232 236.981 100.219 236.981 100.702C236.981 101.186 237.377 101.581 237.86 101.581ZM237.216 111H238.49V103.104H237.216V111ZM243.603 111.139C245.397 111.139 246.767 110.165 246.767 108.759V108.744C246.767 107.616 246.049 106.972 244.562 106.613L243.346 106.32C242.416 106.093 242.021 105.756 242.021 105.221V105.207C242.021 104.511 242.709 104.027 243.646 104.027C244.599 104.027 245.214 104.459 245.382 105.082H246.635C246.459 103.793 245.309 102.965 243.654 102.965C241.977 102.965 240.717 103.954 240.717 105.265V105.272C240.717 106.408 241.383 107.052 242.863 107.404L244.086 107.697C245.06 107.931 245.463 108.305 245.463 108.839V108.854C245.463 109.572 244.708 110.077 243.646 110.077C242.636 110.077 242.006 109.645 241.793 108.986H240.49C240.636 110.29 241.845 111.139 243.603 111.139ZM254.486 111H255.761L257.519 104.892H257.636L259.401 111H260.683L262.895 103.104H261.627L260.075 109.418H259.958L258.192 103.104H256.984L255.219 109.418H255.102L253.549 103.104H252.274L254.486 111ZM266.527 111.139C267.589 111.139 268.417 110.678 268.915 109.835H269.032V111H270.307V105.595C270.307 103.954 269.23 102.965 267.304 102.965C265.619 102.965 264.418 103.8 264.213 105.038L264.206 105.082H265.48L265.487 105.06C265.692 104.445 266.315 104.093 267.26 104.093C268.439 104.093 269.032 104.621 269.032 105.595V106.312L266.769 106.452C264.931 106.562 263.891 107.375 263.891 108.781V108.795C263.891 110.231 265.026 111.139 266.527 111.139ZM265.194 108.766V108.751C265.194 107.968 265.722 107.543 266.923 107.47L269.032 107.338V108.056C269.032 109.184 268.087 110.033 266.791 110.033C265.875 110.033 265.194 109.564 265.194 108.766ZM273.31 101.581C273.793 101.581 274.188 101.186 274.188 100.702C274.188 100.219 273.793 99.8232 273.31 99.8232C272.826 99.8232 272.431 100.219 272.431 100.702C272.431 101.186 272.826 101.581 273.31 101.581ZM272.665 111H273.939V103.104H272.665V111ZM279.147 111.059C279.396 111.059 279.638 111.029 279.887 110.985V109.901C279.652 109.923 279.528 109.931 279.301 109.931C278.48 109.931 278.158 109.557 278.158 108.627V104.159H279.887V103.104H278.158V101.061H276.84V103.104H275.595V104.159H276.84V108.949C276.84 110.458 277.521 111.059 279.147 111.059ZM282.465 101.581C282.948 101.581 283.344 101.186 283.344 100.702C283.344 100.219 282.948 99.8232 282.465 99.8232C281.981 99.8232 281.586 100.219 281.586 100.702C281.586 101.186 281.981 101.581 282.465 101.581ZM281.82 111H283.095V103.104H281.82V111ZM285.497 111H286.771V106.327C286.771 104.943 287.57 104.093 288.83 104.093C290.089 104.093 290.675 104.774 290.675 106.195V111H291.95V105.888C291.95 104.013 290.961 102.965 289.188 102.965C288.024 102.965 287.284 103.456 286.889 104.291H286.771V103.104H285.497V111ZM297.509 113.783C299.662 113.783 301.024 112.655 301.024 110.89V103.104H299.75V104.408H299.662C299.179 103.515 298.314 102.965 297.201 102.965C295.136 102.965 293.861 104.569 293.861 106.781V106.796C293.861 109.008 295.128 110.59 297.172 110.59C298.256 110.59 299.149 110.099 299.647 109.228H299.765V110.824C299.765 111.989 298.922 112.655 297.509 112.655C296.374 112.655 295.67 112.23 295.531 111.63L295.524 111.623H294.206L294.191 111.63C294.389 112.926 295.604 113.783 297.509 113.783ZM297.45 109.462C295.985 109.462 295.165 108.363 295.165 106.796V106.781C295.165 105.214 295.985 104.093 297.45 104.093C298.908 104.093 299.794 105.214 299.794 106.781V106.796C299.794 108.363 298.915 109.462 297.45 109.462ZM308.144 111H309.418V104.159H311.212V103.104H309.418V102.262C309.418 101.398 309.784 100.951 310.692 100.951C310.919 100.951 311.132 100.958 311.286 100.988V99.9697C311.022 99.9185 310.744 99.8965 310.436 99.8965C308.935 99.8965 308.144 100.651 308.144 102.226V103.104H306.833V104.159H308.144V111ZM315.958 111.139C318.207 111.139 319.599 109.586 319.599 107.06V107.045C319.599 104.511 318.207 102.965 315.958 102.965C313.71 102.965 312.318 104.511 312.318 107.045V107.06C312.318 109.586 313.71 111.139 315.958 111.139ZM315.958 110.011C314.464 110.011 313.622 108.92 313.622 107.06V107.045C313.622 105.177 314.464 104.093 315.958 104.093C317.453 104.093 318.295 105.177 318.295 107.045V107.06C318.295 108.92 317.453 110.011 315.958 110.011ZM321.576 111H322.851V106.107C322.851 104.95 323.715 104.181 324.931 104.181C325.209 104.181 325.451 104.21 325.714 104.254V103.017C325.59 102.995 325.319 102.965 325.077 102.965C324.008 102.965 323.268 103.449 322.968 104.276H322.851V103.104H321.576V111ZM331.508 113.637H332.782V109.755H332.899C333.332 110.597 334.276 111.139 335.36 111.139C337.367 111.139 338.671 109.535 338.671 107.06V107.045C338.671 104.584 337.36 102.965 335.36 102.965C334.262 102.965 333.383 103.485 332.899 104.364H332.782V103.104H331.508V113.637ZM335.067 110.011C333.632 110.011 332.753 108.883 332.753 107.06V107.045C332.753 105.221 333.632 104.093 335.067 104.093C336.51 104.093 337.367 105.207 337.367 107.045V107.06C337.367 108.898 336.51 110.011 335.067 110.011ZM342.831 111.139C343.893 111.139 344.721 110.678 345.219 109.835H345.336V111H346.61V105.595C346.61 103.954 345.534 102.965 343.607 102.965C341.923 102.965 340.722 103.8 340.517 105.038L340.509 105.082H341.784L341.791 105.06C341.996 104.445 342.619 104.093 343.563 104.093C344.743 104.093 345.336 104.621 345.336 105.595V106.312L343.073 106.452C341.234 106.562 340.194 107.375 340.194 108.781V108.795C340.194 110.231 341.33 111.139 342.831 111.139ZM341.498 108.766V108.751C341.498 107.968 342.025 107.543 343.227 107.47L345.336 107.338V108.056C345.336 109.184 344.391 110.033 343.095 110.033C342.179 110.033 341.498 109.564 341.498 108.766ZM349.32 113.769C350.719 113.769 351.371 113.256 352.023 111.483L355.106 103.104H353.766L351.605 109.601H351.488L349.32 103.104H347.958L350.88 111.007L350.734 111.476C350.448 112.384 350.009 112.714 349.284 112.714C349.108 112.714 348.91 112.707 348.756 112.677V113.725C348.932 113.754 349.152 113.769 349.32 113.769ZM356.791 111H358.065V106.107C358.065 104.994 358.849 104.093 359.882 104.093C360.878 104.093 361.522 104.701 361.522 105.639V111H362.797V105.924C362.797 104.921 363.522 104.093 364.621 104.093C365.734 104.093 366.269 104.672 366.269 105.836V111H367.543V105.543C367.543 103.888 366.642 102.965 365.031 102.965C363.939 102.965 363.039 103.515 362.614 104.35H362.497C362.13 103.529 361.383 102.965 360.314 102.965C359.281 102.965 358.534 103.456 358.183 104.306H358.065V103.104H356.791V111ZM373.065 111.139C374.926 111.139 376.054 110.084 376.325 109.015L376.339 108.957H375.065L375.036 109.022C374.823 109.499 374.164 110.004 373.095 110.004C371.688 110.004 370.788 109.052 370.751 107.418H376.435V106.92C376.435 104.562 375.131 102.965 372.985 102.965C370.839 102.965 369.447 104.635 369.447 107.074V107.082C369.447 109.557 370.81 111.139 373.065 111.139ZM372.978 104.101C374.142 104.101 375.006 104.84 375.138 106.4H370.773C370.912 104.899 371.806 104.101 372.978 104.101ZM378.412 111H379.687V106.327C379.687 104.943 380.485 104.093 381.745 104.093C383.004 104.093 383.59 104.774 383.59 106.195V111H384.865V105.888C384.865 104.013 383.876 102.965 382.104 102.965C380.939 102.965 380.199 103.456 379.804 104.291H379.687V103.104H378.412V111ZM389.977 111.059C390.226 111.059 390.468 111.029 390.717 110.985V109.901C390.482 109.923 390.358 109.931 390.131 109.931C389.311 109.931 388.988 109.557 388.988 108.627V104.159H390.717V103.104H388.988V101.061H387.67V103.104H386.425V104.159H387.67V108.949C387.67 110.458 388.351 111.059 389.977 111.059ZM393.661 111.073C394.188 111.073 394.613 110.641 394.613 110.121C394.613 109.594 394.188 109.169 393.661 109.169C393.141 109.169 392.709 109.594 392.709 110.121C392.709 110.641 393.141 111.073 393.661 111.073ZM215.414 138H217.516V130.328H217.672L220.562 138H222.039L224.93 130.328H225.086V138H227.188V126.727H224.484L221.375 134.977H221.234L218.117 126.727H215.414V138ZM232.047 138.133C233.172 138.133 234.078 137.656 234.516 136.859H234.656V138H236.906V132.125C236.906 130.289 235.617 129.211 233.336 129.211C231.172 129.211 229.75 130.211 229.57 131.719L229.562 131.789H231.672L231.688 131.758C231.867 131.25 232.391 130.961 233.211 130.961C234.148 130.961 234.656 131.383 234.656 132.125V132.836L232.578 132.961C230.438 133.086 229.242 133.992 229.242 135.539V135.555C229.242 137.117 230.406 138.133 232.047 138.133ZM231.469 135.414V135.398C231.469 134.773 231.945 134.406 232.922 134.344L234.656 134.234V134.867C234.656 135.773 233.867 136.469 232.812 136.469C232.023 136.469 231.469 136.07 231.469 135.414ZM239.141 138H241.422V133.188C241.422 131.969 242.242 131.227 243.539 131.227C243.891 131.227 244.242 131.281 244.586 131.359V129.367C244.359 129.305 244.039 129.258 243.734 129.258C242.617 129.258 241.836 129.805 241.562 130.734H241.422V129.398H239.141V138ZM246.188 138H248.469V135.117L249.094 134.453L251.602 138H254.297L250.766 133.047L254.07 129.398H251.484L248.609 132.797H248.469V126.109H246.188V138ZM262.203 138.133C263.328 138.133 264.234 137.656 264.672 136.859H264.812V138H267.062V132.125C267.062 130.289 265.773 129.211 263.492 129.211C261.328 129.211 259.906 130.211 259.727 131.719L259.719 131.789H261.828L261.844 131.758C262.023 131.25 262.547 130.961 263.367 130.961C264.305 130.961 264.812 131.383 264.812 132.125V132.836L262.734 132.961C260.594 133.086 259.398 133.992 259.398 135.539V135.555C259.398 137.117 260.562 138.133 262.203 138.133ZM261.625 135.414V135.398C261.625 134.773 262.102 134.406 263.078 134.344L264.812 134.234V134.867C264.812 135.773 264.023 136.469 262.969 136.469C262.18 136.469 261.625 136.07 261.625 135.414ZM272.719 138.18C274.922 138.18 276.492 137.07 276.492 135.367V135.359C276.492 134.086 275.688 133.367 273.969 133L272.539 132.695C271.648 132.5 271.328 132.234 271.328 131.773V131.766C271.328 131.188 271.891 130.82 272.68 130.82C273.531 130.82 274.039 131.25 274.164 131.711L274.172 131.75H276.289V131.719C276.195 130.336 274.945 129.211 272.688 129.211C270.539 129.211 269.102 130.289 269.102 131.906V131.914C269.102 133.203 269.914 134.008 271.555 134.359L272.992 134.664C273.867 134.859 274.211 135.148 274.211 135.609V135.625C274.211 136.195 273.617 136.57 272.742 136.57C271.844 136.57 271.32 136.188 271.141 135.656L271.125 135.625H268.883L268.891 135.656C269.055 137.133 270.383 138.18 272.719 138.18ZM282.711 138H285.07V134.445H287.359C289.734 134.445 291.32 132.914 291.32 130.594V130.578C291.32 128.258 289.734 126.727 287.359 126.727H282.711V138ZM286.781 128.594C288.133 128.594 288.93 129.305 288.93 130.586V130.602C288.93 131.883 288.133 132.602 286.781 132.602H285.07V128.594H286.781ZM295.297 138.133C296.422 138.133 297.328 137.656 297.766 136.859H297.906V138H300.156V132.125C300.156 130.289 298.867 129.211 296.586 129.211C294.422 129.211 293 130.211 292.82 131.719L292.812 131.789H294.922L294.938 131.758C295.117 131.25 295.641 130.961 296.461 130.961C297.398 130.961 297.906 131.383 297.906 132.125V132.836L295.828 132.961C293.688 133.086 292.492 133.992 292.492 135.539V135.555C292.492 137.117 293.656 138.133 295.297 138.133ZM294.719 135.414V135.398C294.719 134.773 295.195 134.406 296.172 134.344L297.906 134.234V134.867C297.906 135.773 297.117 136.469 296.062 136.469C295.273 136.469 294.719 136.07 294.719 135.414ZM303.555 128.078C304.258 128.078 304.836 127.516 304.836 126.812C304.836 126.102 304.258 125.539 303.555 125.539C302.852 125.539 302.266 126.102 302.266 126.812C302.266 127.516 302.852 128.078 303.555 128.078ZM302.406 138H304.688V129.398H302.406V138ZM310.055 138.133C311.266 138.133 312.18 137.594 312.625 136.664H312.766V138H315.047V126.109H312.766V130.773H312.625C312.195 129.836 311.234 129.258 310.055 129.258C307.875 129.258 306.562 130.922 306.562 133.688V133.703C306.562 136.453 307.906 138.133 310.055 138.133ZM310.828 136.242C309.625 136.242 308.883 135.289 308.883 133.703V133.688C308.883 132.117 309.625 131.148 310.828 131.148C312.031 131.148 312.789 132.117 312.789 133.695V133.711C312.789 135.289 312.039 136.242 310.828 136.242ZM319.047 138.195C319.852 138.195 320.422 137.609 320.422 136.836C320.422 136.062 319.852 135.484 319.047 135.484C318.25 135.484 317.672 136.062 317.672 136.836C317.672 137.609 318.25 138.195 319.047 138.195ZM324.609 138.195C325.414 138.195 325.984 137.609 325.984 136.836C325.984 136.062 325.414 135.484 324.609 135.484C323.812 135.484 323.234 136.062 323.234 136.836C323.234 137.609 323.812 138.195 324.609 138.195ZM330.172 138.195C330.977 138.195 331.547 137.609 331.547 136.836C331.547 136.062 330.977 135.484 330.172 135.484C329.375 135.484 328.797 136.062 328.797 136.836C328.797 137.609 329.375 138.195 330.172 138.195Z" fill="white"/>
</g>
<g filter="url(#filter2_d)">
<rect x="70" y="144" width="310" height="78" rx="10" fill="#1677FA"/>
<rect x="70" y="144" width="310" height="78" rx="10" fill="#0075FF"/>
<path d="M110.781 189H112.188V178.992H115.82V177.727H107.148V178.992H110.781V189ZM117.898 189H119.258V184.016C119.258 182.539 120.109 181.633 121.453 181.633C122.797 181.633 123.422 182.359 123.422 183.875V189H124.781V183.547C124.781 181.547 123.727 180.43 121.836 180.43C120.594 180.43 119.805 180.953 119.383 181.844H119.258V177.234H117.898V189ZM130.68 189.148C132.664 189.148 133.867 188.023 134.156 186.883L134.172 186.82H132.812L132.781 186.891C132.555 187.398 131.852 187.938 130.711 187.938C129.211 187.938 128.25 186.922 128.211 185.18H134.273V184.648C134.273 182.133 132.883 180.43 130.594 180.43C128.305 180.43 126.82 182.211 126.82 184.812V184.82C126.82 187.461 128.273 189.148 130.68 189.148ZM130.586 181.641C131.828 181.641 132.75 182.43 132.891 184.094H128.234C128.383 182.492 129.336 181.641 130.586 181.641ZM141.602 178.953C142.117 178.953 142.539 178.531 142.539 178.016C142.539 177.5 142.117 177.078 141.602 177.078C141.086 177.078 140.664 177.5 140.664 178.016C140.664 178.531 141.086 178.953 141.602 178.953ZM140.914 189H142.273V180.578H140.914V189ZM144.836 189H146.195V184.016C146.195 182.539 147.047 181.633 148.391 181.633C149.734 181.633 150.359 182.359 150.359 183.875V189H151.719V183.547C151.719 181.547 150.664 180.43 148.773 180.43C147.531 180.43 146.742 180.953 146.32 181.844H146.195V180.578H144.836V189ZM156.25 189H157.625L160.742 180.578H159.305L157 187.516H156.875L154.57 180.578H153.133L156.25 189ZM165.688 189.148C168.086 189.148 169.57 187.492 169.57 184.797V184.781C169.57 182.078 168.086 180.43 165.688 180.43C163.289 180.43 161.805 182.078 161.805 184.781V184.797C161.805 187.492 163.289 189.148 165.688 189.148ZM165.688 187.945C164.094 187.945 163.195 186.781 163.195 184.797V184.781C163.195 182.789 164.094 181.633 165.688 181.633C167.281 181.633 168.18 182.789 168.18 184.781V184.797C168.18 186.781 167.281 187.945 165.688 187.945ZM172.398 178.953C172.914 178.953 173.336 178.531 173.336 178.016C173.336 177.5 172.914 177.078 172.398 177.078C171.883 177.078 171.461 177.5 171.461 178.016C171.461 178.531 171.883 178.953 172.398 178.953ZM171.711 189H173.07V180.578H171.711V189ZM179.078 189.148C181.102 189.148 182.234 188.062 182.578 186.539L182.594 186.453L181.25 186.461L181.234 186.508C180.922 187.445 180.203 187.945 179.07 187.945C177.57 187.945 176.602 186.703 176.602 184.766V184.75C176.602 182.852 177.555 181.633 179.07 181.633C180.281 181.633 181.031 182.305 181.242 183.133L181.25 183.156H182.602L182.594 183.109C182.344 181.609 181.117 180.43 179.07 180.43C176.711 180.43 175.211 182.133 175.211 184.75V184.766C175.211 187.438 176.719 189.148 179.078 189.148ZM188.023 189.148C190.008 189.148 191.211 188.023 191.5 186.883L191.516 186.82H190.156L190.125 186.891C189.898 187.398 189.195 187.938 188.055 187.938C186.555 187.938 185.594 186.922 185.555 185.18H191.617V184.648C191.617 182.133 190.227 180.43 187.938 180.43C185.648 180.43 184.164 182.211 184.164 184.812V184.82C184.164 187.461 185.617 189.148 188.023 189.148ZM187.93 181.641C189.172 181.641 190.094 182.43 190.234 184.094H185.578C185.727 182.492 186.68 181.641 187.93 181.641ZM198.305 189H199.664V184.016C199.664 182.539 200.516 181.633 201.859 181.633C203.203 181.633 203.828 182.359 203.828 183.875V189H205.188V183.547C205.188 181.547 204.133 180.43 202.242 180.43C201 180.43 200.211 180.953 199.789 181.844H199.664V177.234H198.305V189ZM209.961 189.148C211.094 189.148 211.977 188.656 212.508 187.758H212.633V189H213.992V183.234C213.992 181.484 212.844 180.43 210.789 180.43C208.992 180.43 207.711 181.32 207.492 182.641L207.484 182.688H208.844L208.852 182.664C209.07 182.008 209.734 181.633 210.742 181.633C212 181.633 212.633 182.195 212.633 183.234V184L210.219 184.148C208.258 184.266 207.148 185.133 207.148 186.633V186.648C207.148 188.18 208.359 189.148 209.961 189.148ZM208.539 186.617V186.602C208.539 185.766 209.102 185.312 210.383 185.234L212.633 185.094V185.859C212.633 187.062 211.625 187.969 210.242 187.969C209.266 187.969 208.539 187.469 208.539 186.617ZM219.367 189.148C221.281 189.148 222.742 188.109 222.742 186.609V186.594C222.742 185.391 221.977 184.703 220.391 184.32L219.094 184.008C218.102 183.766 217.68 183.406 217.68 182.836V182.82C217.68 182.078 218.414 181.562 219.414 181.562C220.43 181.562 221.086 182.023 221.266 182.688H222.602C222.414 181.312 221.188 180.43 219.422 180.43C217.633 180.43 216.289 181.484 216.289 182.883V182.891C216.289 184.102 217 184.789 218.578 185.164L219.883 185.477C220.922 185.727 221.352 186.125 221.352 186.695V186.711C221.352 187.477 220.547 188.016 219.414 188.016C218.336 188.016 217.664 187.555 217.438 186.852H216.047C216.203 188.242 217.492 189.148 219.367 189.148ZM233.539 189.148C235.672 189.148 237.07 187.422 237.07 184.797V184.781C237.07 182.141 235.68 180.43 233.539 180.43C232.383 180.43 231.375 181.008 230.914 181.906H230.789V177.234H229.43V189H230.789V187.656H230.914C231.43 188.594 232.367 189.148 233.539 189.148ZM233.227 187.945C231.695 187.945 230.758 186.742 230.758 184.797V184.781C230.758 182.836 231.695 181.633 233.227 181.633C234.766 181.633 235.68 182.82 235.68 184.781V184.797C235.68 186.758 234.766 187.945 233.227 187.945ZM242.617 189.148C244.602 189.148 245.805 188.023 246.094 186.883L246.109 186.82H244.75L244.719 186.891C244.492 187.398 243.789 187.938 242.648 187.938C241.148 187.938 240.188 186.922 240.148 185.18H246.211V184.648C246.211 182.133 244.82 180.43 242.531 180.43C240.242 180.43 238.758 182.211 238.758 184.812V184.82C238.758 187.461 240.211 189.148 242.617 189.148ZM242.523 181.641C243.766 181.641 244.688 182.43 244.828 184.094H240.172C240.32 182.492 241.273 181.641 242.523 181.641ZM251.758 189.148C253.742 189.148 254.945 188.023 255.234 186.883L255.25 186.82H253.891L253.859 186.891C253.633 187.398 252.93 187.938 251.789 187.938C250.289 187.938 249.328 186.922 249.289 185.18H255.352V184.648C255.352 182.133 253.961 180.43 251.672 180.43C249.383 180.43 247.898 182.211 247.898 184.812V184.82C247.898 187.461 249.352 189.148 251.758 189.148ZM251.664 181.641C252.906 181.641 253.828 182.43 253.969 184.094H249.312C249.461 182.492 250.414 181.641 251.664 181.641ZM257.461 189H258.82V184.016C258.82 182.539 259.672 181.633 261.016 181.633C262.359 181.633 262.984 182.359 262.984 183.875V189H264.344V183.547C264.344 181.547 263.289 180.43 261.398 180.43C260.156 180.43 259.367 180.953 258.945 181.844H258.82V180.578H257.461V189ZM271.867 189H273.227V181.703H275.141V180.578H273.227V179.68C273.227 178.758 273.617 178.281 274.586 178.281C274.828 178.281 275.055 178.289 275.219 178.32V177.234C274.938 177.18 274.641 177.156 274.312 177.156C272.711 177.156 271.867 177.961 271.867 179.641V180.578H270.469V181.703H271.867V189ZM279.922 189.148C281.156 189.148 282.008 188.641 282.422 187.742H282.547V189H283.906V180.578H282.547V185.562C282.547 187.039 281.758 187.945 280.273 187.945C278.93 187.945 278.383 187.219 278.383 185.703V180.578H277.023V186.031C277.023 188.023 278.008 189.148 279.922 189.148ZM286.523 189H287.883V177.234H286.523V189ZM290.57 189H291.93V177.234H290.57V189ZM295.258 191.953C296.75 191.953 297.445 191.406 298.141 189.516L301.43 180.578H300L297.695 187.508H297.57L295.258 180.578H293.805L296.922 189.008L296.766 189.508C296.461 190.477 295.992 190.828 295.219 190.828C295.031 190.828 294.82 190.82 294.656 190.789V191.906C294.844 191.938 295.078 191.953 295.258 191.953ZM307.727 191.812H309.086V187.672H309.211C309.672 188.57 310.68 189.148 311.836 189.148C313.977 189.148 315.367 187.438 315.367 184.797V184.781C315.367 182.156 313.969 180.43 311.836 180.43C310.664 180.43 309.727 180.984 309.211 181.922H309.086V180.578H307.727V191.812ZM311.523 187.945C309.992 187.945 309.055 186.742 309.055 184.797V184.781C309.055 182.836 309.992 181.633 311.523 181.633C313.062 181.633 313.977 182.82 313.977 184.781V184.797C313.977 186.758 313.062 187.945 311.523 187.945ZM319.805 189.148C320.938 189.148 321.82 188.656 322.352 187.758H322.477V189H323.836V183.234C323.836 181.484 322.688 180.43 320.633 180.43C318.836 180.43 317.555 181.32 317.336 182.641L317.328 182.688H318.688L318.695 182.664C318.914 182.008 319.578 181.633 320.586 181.633C321.844 181.633 322.477 182.195 322.477 183.234V184L320.062 184.148C318.102 184.266 316.992 185.133 316.992 186.633V186.648C316.992 188.18 318.203 189.148 319.805 189.148ZM318.383 186.617V186.602C318.383 185.766 318.945 185.312 320.227 185.234L322.477 185.094V185.859C322.477 187.062 321.469 187.969 320.086 187.969C319.109 187.969 318.383 187.469 318.383 186.617ZM327.039 178.953C327.555 178.953 327.977 178.531 327.977 178.016C327.977 177.5 327.555 177.078 327.039 177.078C326.523 177.078 326.102 177.5 326.102 178.016C326.102 178.531 326.523 178.953 327.039 178.953ZM326.352 189H327.711V180.578H326.352V189ZM333.383 189.148C334.555 189.148 335.492 188.594 336.008 187.656H336.133V189H337.492V177.234H336.133V181.906H336.008C335.547 181.008 334.539 180.43 333.383 180.43C331.242 180.43 329.852 182.141 329.852 184.781V184.797C329.852 187.422 331.25 189.148 333.383 189.148ZM333.695 187.945C332.156 187.945 331.242 186.758 331.242 184.797V184.781C331.242 182.82 332.156 181.633 333.695 181.633C335.227 181.633 336.164 182.836 336.164 184.781V184.797C336.164 186.742 335.227 187.945 333.695 187.945ZM341.211 189.078C341.773 189.078 342.227 188.617 342.227 188.062C342.227 187.5 341.773 187.047 341.211 187.047C340.656 187.047 340.195 187.5 340.195 188.062C340.195 188.617 340.656 189.078 341.211 189.078Z" fill="white"/>
</g>
<defs>
<filter id="filter0_d" x="0" y="0" width="371" height="138" filterUnits="userSpaceOnUse" color-interpolation-filters="sRGB">
<feFlood flood-opacity="0" result="BackgroundImageFix"/>
<feColorMatrix in="SourceAlpha" type="matrix" values="0 0 0 0 0 0 0 0 0 0 0 0 0 0 0 0 0 0 127 0" result="hardAlpha"/>
<feOffset dy="10"/>
<feGaussianBlur stdDeviation="15"/>
<feColorMatrix type="matrix" values="0 0 0 0 0.0451389 0 0 0 0 0.203201 0 0 0 0 0.416667 0 0 0 0.1 0"/>
<feBlend mode="normal" in2="BackgroundImageFix" result="effect1_dropShadow"/>
<feBlend mode="normal" in="SourceGraphic" in2="effect1_dropShadow" result="shape"/>
</filter>
<filter id="filter1_d" x="88" y="62" width="371" height="138" filterUnits="userSpaceOnUse" color-interpolation-filters="sRGB">
<feFlood flood-opacity="0" result="BackgroundImageFix"/>
<feColorMatrix in="SourceAlpha" type="matrix" values="0 0 0 0 0 0 0 0 0 0 0 0 0 0 0 0 0 0 127 0" result="hardAlpha"/>
<feOffset dy="10"/>
<feGaussianBlur stdDeviation="15"/>
<feColorMatrix type="matrix" values="0 0 0 0 0.0451389 0 0 0 0 0.203201 0 0 0 0 0.416667 0 0 0 0.1 0"/>
<feBlend mode="normal" in2="BackgroundImageFix" result="effect1_dropShadow"/>
<feBlend mode="normal" in="SourceGraphic" in2="effect1_dropShadow" result="shape"/>
</filter>
<filter id="filter2_d" x="40" y="124" width="370" height="138" filterUnits="userSpaceOnUse" color-interpolation-filters="sRGB">
<feFlood flood-opacity="0" result="BackgroundImageFix"/>
<feColorMatrix in="SourceAlpha" type="matrix" values="0 0 0 0 0 0 0 0 0 0 0 0 0 0 0 0 0 0 127 0" result="hardAlpha"/>
<feOffset dy="10"/>
<feGaussianBlur stdDeviation="15"/>
<feColorMatrix type="matrix" values="0 0 0 0 0.0451389 0 0 0 0 0.203201 0 0 0 0 0.416667 0 0 0 0.1 0"/>
<feBlend mode="normal" in2="BackgroundImageFix" result="effect1_dropShadow"/>
<feBlend mode="normal" in="SourceGraphic" in2="effect1_dropShadow" result="shape"/>
</filter>
</defs>
</svg>
