<svg width="452" height="359" viewBox="0 0 452 359" fill="none" xmlns="http://www.w3.org/2000/svg">
<g filter="url(#filter0_d)">
<path d="M300.066 95.9805C306.418 95.9805 311.566 101.129 311.566 107.48L311.566 279.323L51.5995 279.323L51.5995 107.48C51.5995 101.129 56.7483 95.9805 63.0995 95.9805L300.066 95.9805Z" fill="white" stroke="#E5EDF9"/>
<rect x="333.165" y="271.166" width="16.6575" height="303.166" rx="7" transform="rotate(90 333.165 271.166)" fill="#E6EDF7"/>
<rect x="188.713" y="195.956" width="94.3923" height="52.1934" rx="5" fill="#DDE6F3" fill-opacity="0.3"/>
<rect x="71" y="221.497" width="104.387" height="26.6519" rx="5" fill="#E6EDF7"/>
<rect x="192.044" y="116" width="91.0608" height="26.6519" rx="5" fill="#E6EDF7"/>
<rect x="71" y="203.729" width="11.105" height="11.105" rx="5" fill="#E6EDF7"/>
<rect x="93.21" y="203.729" width="82.1768" height="11.105" rx="5" fill="#E6EDF7"/>
<rect x="192.044" y="148.205" width="42.1989" height="42.1989" rx="5" fill="#E4EBF5"/>
<rect x="240.906" y="148.205" width="42.1989" height="42.1989" rx="5" fill="#E4EBF5"/>
<path d="M72.5107 133H75.7722V120.176H72.5107V133ZM78.8025 133H81.8951V125.713H82.0551L87.4227 133H90.0087V120.176H86.9161V127.392H86.7562L81.4063 120.176H78.8025V133ZM96.2116 133H100.424L104.458 120.176H100.735L98.4066 129.534H98.2378L95.9006 120.176H92.1771L96.2116 133ZM111.968 133.347C115.825 133.347 118.286 130.761 118.286 126.593V126.575C118.286 122.416 115.816 119.83 111.968 119.83C108.111 119.83 105.64 122.416 105.64 126.575V126.593C105.64 130.761 108.093 133.347 111.968 133.347ZM111.968 130.645C110.146 130.645 108.955 129.063 108.955 126.593V126.575C108.955 124.113 110.164 122.531 111.968 122.531C113.763 122.531 114.963 124.113 114.963 126.575V126.593C114.963 129.063 113.763 130.645 111.968 130.645ZM120.712 133H123.974V120.176H120.712V133ZM132.603 133.347C135.891 133.347 138.166 131.347 138.379 128.486V128.343H135.242L135.224 128.441C135.002 129.765 134.016 130.645 132.612 130.645C130.817 130.645 129.723 129.108 129.723 126.584V126.566C129.723 124.06 130.817 122.531 132.603 122.531C134.007 122.531 135.038 123.473 135.224 124.815L135.233 124.895H138.37V124.735C138.184 121.9 135.829 119.83 132.603 119.83C128.755 119.83 126.4 122.398 126.4 126.575V126.593C126.4 130.769 128.764 133.347 132.603 133.347ZM140.743 133H149.532V130.378H144.004V127.757H149.203V125.357H144.004V122.798H149.532V120.176H140.743V133ZM72.5107 155H75.3812V146.833H75.5589L78.4737 155H80.3311L83.2459 146.833H83.4325V155H86.294V142.176H82.5883L79.4957 150.877H79.3269L76.2254 142.176H72.5107V155ZM88.4624 155H91.8838L92.6747 152.183H96.8604L97.6513 155H101.073L96.7626 142.176H92.7725L88.4624 155ZM94.6831 145.002H94.852L96.2027 149.837H93.3323L94.6831 145.002ZM103.223 155H106.485V151.374L107.613 149.943L110.848 155H114.678L109.986 147.837L114.421 142.176H110.919L106.654 147.686H106.485V142.176H103.223V155ZM116.624 155H125.413V152.378H119.886V149.757H125.085V147.357H119.886V144.798H125.413V142.176H116.624V155ZM128.195 155H131.456V150.512H133.145L135.34 155H139.001L136.442 150.032C137.828 149.419 138.619 147.988 138.619 146.424V146.407C138.619 143.758 136.922 142.176 133.767 142.176H128.195V155ZM131.456 148.282V144.638H133.385C134.558 144.638 135.295 145.367 135.295 146.451V146.469C135.295 147.58 134.576 148.282 133.403 148.282H131.456Z" fill="#A4B4CB"/>
<rect x="420.501" y="153.174" width="164.464" height="247.751" rx="11.5" transform="rotate(90 420.501 153.174)" fill="white" stroke="#E5EDF9"/>
<rect width="91" height="53" rx="5" transform="matrix(-1 0 0 1 283 250)" fill="#E4EBF5"/>
<rect width="104.387" height="26.6519" rx="5" transform="matrix(-1 0 0 1 404.343 275.939)" fill="#E4EBF5"/>
<rect width="91.0608" height="26.6519" rx="5" transform="matrix(-1 0 0 1 283.298 170.442)" fill="#E4EBF5"/>
<rect x="299.956" y="258.171" width="11.105" height="11.105" rx="5" fill="#E4EBF5"/>
<rect x="322.167" y="258.171" width="82.1768" height="11.105" rx="5" fill="#E4EBF5"/>
<rect width="42.1989" height="42.1989" rx="5" transform="matrix(-1 0 0 1 283.298 202.646)" fill="#E4EBF5"/>
<rect width="42.1989" height="42.1989" rx="5" transform="matrix(-1 0 0 1 234.437 202.646)" fill="#E4EBF5"/>
<g filter="url(#filter1_d)">
<rect x="299.183" y="20.8618" width="106.608" height="215.436" rx="12" fill="white"/>
<rect x="299.683" y="21.3618" width="105.608" height="214.436" rx="11.5" stroke="#E5EDF9"/>
</g>
<rect x="311.398" y="169.668" width="82.1768" height="52.1934" rx="5" fill="#E6EDF7"/>
<rect x="311.398" y="91.9336" width="82.1768" height="26.6519" rx="5" fill="#E6EDF7"/>
<rect x="311.398" y="74.1655" width="11.105" height="11.105" rx="5" fill="#E6EDF7"/>
<rect x="329.166" y="74.1655" width="64.4088" height="11.105" rx="5" fill="#E6EDF7"/>
<rect x="311.398" y="125.249" width="37.7569" height="37.7569" rx="5" fill="#E6EDF7"/>
<rect x="355.818" y="125.249" width="37.7569" height="37.7569" rx="5" fill="#E6EDF7"/>
<path d="M312.162 46.5195H313.811V40.0373H312.162V46.5195ZM315.343 46.5195H316.906V42.8359H316.987L319.7 46.5195H321.007V40.0373H319.444V43.685H319.363L316.659 40.0373H315.343V46.5195ZM324.143 46.5195H326.272L328.312 40.0373H326.429L325.252 44.7676H325.167L323.986 40.0373H322.103L324.143 46.5195ZM332.107 46.6947C334.057 46.6947 335.301 45.3875 335.301 43.2807V43.2717C335.301 41.1693 334.053 39.8621 332.107 39.8621C330.158 39.8621 328.909 41.1693 328.909 43.2717V43.2807C328.909 45.3875 330.149 46.6947 332.107 46.6947ZM332.107 45.3291C331.187 45.3291 330.585 44.5295 330.585 43.2807V43.2717C330.585 42.0273 331.196 41.2277 332.107 41.2277C333.015 41.2277 333.621 42.0273 333.621 43.2717V43.2807C333.621 44.5295 333.015 45.3291 332.107 45.3291ZM336.528 46.5195H338.176V40.0373H336.528V46.5195ZM342.538 46.6947C344.2 46.6947 345.35 45.684 345.458 44.2375V44.1656H343.872L343.863 44.215C343.751 44.8844 343.253 45.3291 342.543 45.3291C341.635 45.3291 341.083 44.552 341.083 43.2762V43.2672C341.083 42.0004 341.635 41.2277 342.538 41.2277C343.248 41.2277 343.769 41.7039 343.863 42.3822L343.868 42.4227H345.454V42.3418C345.359 40.9088 344.169 39.8621 342.538 39.8621C340.593 39.8621 339.403 41.1604 339.403 43.2717V43.2807C339.403 45.392 340.598 46.6947 342.538 46.6947ZM346.653 46.5195H351.096V45.1943H348.302V43.8691H350.93V42.6562H348.302V41.3625H351.096V40.0373H346.653V46.5195ZM312.162 57.5195H313.613V53.3912H313.703L315.176 57.5195H316.115L317.589 53.3912H317.683V57.5195H319.129V51.0373H317.256L315.693 55.4352H315.608L314.04 51.0373H312.162V57.5195ZM320.226 57.5195H321.955L322.355 56.0955H324.471L324.871 57.5195H326.6L324.421 51.0373H322.404L320.226 57.5195ZM323.37 52.4658H323.455L324.138 54.9096H322.687L323.37 52.4658ZM327.687 57.5195H329.336V55.6867L329.906 54.9635L331.541 57.5195H333.478L331.106 53.8988L333.347 51.0373H331.577L329.421 53.8225H329.336V51.0373H327.687V57.5195ZM334.461 57.5195H338.904V56.1943H336.11V54.8691H338.738V53.6562H336.11V52.3625H338.904V51.0373H334.461V57.5195ZM340.31 57.5195H341.959V55.251H342.812L343.922 57.5195H345.773L344.479 55.0084C345.18 54.6984 345.579 53.9752 345.579 53.1846V53.1756C345.579 51.8369 344.721 51.0373 343.127 51.0373H340.31V57.5195ZM341.959 54.1234V52.2816H342.934C343.527 52.2816 343.899 52.65 343.899 53.198V53.207C343.899 53.7686 343.536 54.1234 342.943 54.1234H341.959Z" fill="#A4B4CB"/>
</g>
<defs>
<filter id="filter0_d" x="-0.000488281" y="0.861816" width="451.002" height="357.276" filterUnits="userSpaceOnUse" color-interpolation-filters="sRGB">
<feFlood flood-opacity="0" result="BackgroundImageFix"/>
<feColorMatrix in="SourceAlpha" type="matrix" values="0 0 0 0 0 0 0 0 0 0 0 0 0 0 0 0 0 0 127 0" result="hardAlpha"/>
<feOffset dy="10"/>
<feGaussianBlur stdDeviation="15"/>
<feColorMatrix type="matrix" values="0 0 0 0 0.0451389 0 0 0 0 0.203201 0 0 0 0 0.416667 0 0 0 0.1 0"/>
<feBlend mode="normal" in2="BackgroundImageFix" result="effect1_dropShadow"/>
<feBlend mode="normal" in="SourceGraphic" in2="effect1_dropShadow" result="shape"/>
</filter>
<filter id="filter1_d" x="284.183" y="9.86182" width="136.608" height="245.436" filterUnits="userSpaceOnUse" color-interpolation-filters="sRGB">
<feFlood flood-opacity="0" result="BackgroundImageFix"/>
<feColorMatrix in="SourceAlpha" type="matrix" values="0 0 0 0 0 0 0 0 0 0 0 0 0 0 0 0 0 0 127 0" result="hardAlpha"/>
<feOffset dy="4"/>
<feGaussianBlur stdDeviation="7.5"/>
<feColorMatrix type="matrix" values="0 0 0 0 0.0451389 0 0 0 0 0.203201 0 0 0 0 0.416667 0 0 0 0.08 0"/>
<feBlend mode="normal" in2="BackgroundImageFix" result="effect1_dropShadow"/>
<feBlend mode="normal" in="SourceGraphic" in2="effect1_dropShadow" result="shape"/>
</filter>
</defs>
</svg>
