<svg width="61" height="61" viewBox="0 0 61 61" fill="none" xmlns="http://www.w3.org/2000/svg">
<path d="M39.1909 5.57008L37.0009 7.76008L30.8209 1.58008C30.0741 0.853161 29.073 0.446416 28.0309 0.446416C26.9887 0.446416 25.9877 0.853161 25.2409 1.58008L21.0909 5.71008C19.178 7.60865 17.9025 10.0548 17.4409 12.7101C16.7299 12.4459 15.9586 12.3894 15.2167 12.547C14.4748 12.7045 13.793 13.0698 13.2509 13.6001L9.10086 17.7301C7.87692 18.9499 6.9058 20.3993 6.24317 21.9952C5.58055 23.5911 5.23946 25.3021 5.23946 27.0301C5.23946 28.7581 5.58055 30.4691 6.24317 32.065C6.9058 33.6609 7.87692 35.1103 9.10086 36.3301L14.8009 42.0301L0.880859 55.8801L5.12086 60.1201L19.0009 46.2401L24.7209 52.0001C25.9382 53.2181 27.3855 54.1822 28.9786 54.8363C30.5716 55.4903 32.2788 55.8213 34.0009 55.8101C35.7288 55.8148 37.4404 55.475 39.0355 54.8105C40.6307 54.146 42.0773 53.1702 43.2909 51.9401L47.4209 47.7901C47.9512 47.2479 48.3164 46.5661 48.474 45.8242C48.6316 45.0824 48.575 44.311 48.3109 43.6001C50.9661 43.1384 53.4123 41.8629 55.3109 39.9501L59.4409 35.8001C60.1678 35.0533 60.5745 34.0522 60.5745 33.0101C60.5745 31.9679 60.1678 30.9669 59.4409 30.2201L53.2409 24.0001L55.4309 21.8101C57.2025 20.0499 58.6071 17.9555 59.5632 15.6485C60.5193 13.3414 61.008 10.8674 61.0009 8.37008V7.68511e-05H52.6309C50.1335 -0.00705031 47.6596 0.48162 45.3525 1.43776C43.0454 2.39389 40.951 3.79847 39.1909 5.57008ZM25.3209 10.0001L28.0009 7.27008L33.7109 13.0001C35.0476 14.3388 35.7984 16.1533 35.7984 18.0451C35.7984 19.9369 35.0476 21.7514 33.7109 23.0901L29.5109 27.2901C29.0086 24.801 27.7884 22.5135 26.0009 20.7101L25.3509 20.0601C24.6875 19.397 24.1612 18.6098 23.8022 17.7433C23.4431 16.8768 23.2583 15.948 23.2583 15.0101C23.2583 14.0721 23.4431 13.1434 23.8022 12.2769C24.1612 11.4104 24.6875 10.6231 25.3509 9.96008L25.3209 10.0001ZM11.2109 27.0001C11.2151 26.0695 11.4028 25.149 11.7632 24.291C12.1235 23.4331 12.6494 22.6546 13.3109 22.0001L16.0009 19.2701L21.7109 25.0001C23.0476 26.3388 23.7984 28.1533 23.7984 30.0451C23.7984 31.9369 23.0476 33.7514 21.7109 35.0901L19.0009 37.7601L13.3009 32.0601C12.6345 31.3973 12.1066 30.6086 11.7478 29.7399C11.389 28.8713 11.2065 27.9399 11.2109 27.0001ZM39.0609 47.7001C37.7383 49.035 35.94 49.7903 34.0609 49.8001C32.1832 49.793 30.385 49.0413 29.0609 47.7101L23.2609 42.0001L26.0009 39.3101C27.3409 37.9758 29.1549 37.2267 31.0459 37.2267C32.9369 37.2267 34.7509 37.9758 36.0909 39.3101L41.7609 45.0001L39.0609 47.7001ZM51.0609 35.7001C50.3978 36.3635 49.6105 36.8897 48.744 37.2488C47.8775 37.6078 46.9488 37.7926 46.0109 37.7926C45.0729 37.7926 44.1442 37.6078 43.2777 37.2488C42.4112 36.8897 41.6239 36.3635 40.9609 35.7001L40.3109 35.0501C38.5194 33.2567 36.2426 32.0262 33.7609 31.5101L38.0009 27.3101C39.3409 25.9758 41.1549 25.2267 43.0459 25.2267C44.9369 25.2267 46.7509 25.9758 48.0909 27.3101L53.7609 33.0001L51.0609 35.7001ZM55.0009 8.37008C55.0046 10.0777 54.6698 11.7691 54.0159 13.3465C53.3619 14.9239 52.4017 16.356 51.1909 17.5601L48.3809 20.3701C46.299 19.4388 44.0112 19.0632 41.7409 19.2801C41.7809 18.8534 41.8009 18.4234 41.8009 17.9901C41.7984 16.1307 41.3995 14.2932 40.6309 12.6001L43.4309 9.80008C44.6369 8.58982 46.071 7.6308 47.6502 6.97853C49.2294 6.32626 50.9223 5.99369 52.6309 6.00008H55.0009V8.37008Z" fill="#007AFF"/>
</svg>
