<svg width="83" height="102" viewBox="0 0 83 102" fill="none" xmlns="http://www.w3.org/2000/svg">
<path d="M74.709 100.517H13.4459C9.79207 100.517 6.83004 97.5545 6.83004 93.9007V8.19399C6.83004 4.54012 9.79208 1.57808 13.4459 1.57808H45L81.3249 37.9836V93.9007C81.3249 97.5545 78.3629 100.517 74.709 100.517Z" fill="white" stroke="#D5D5D5" stroke-width="1.16398"/>
<path d="M19.0508 16.1279H48.7323" stroke="#D1D1D1" stroke-width="2.32796"/>
<path d="M19.0508 30.0957H68.52" stroke="#D1D1D1" stroke-width="2.32796"/>
<path d="M19.0508 44.0635H68.52" stroke="#D1D1D1" stroke-width="2.32796"/>
<path d="M19.0508 58.0312H68.52" stroke="#D1D1D1" stroke-width="2.32796"/>
<path d="M19.0508 71.999H68.52" stroke="#D1D1D1" stroke-width="2.32796"/>
<path d="M19.0508 85.9668H68.52" stroke="#D1D1D1" stroke-width="2.32796"/>
<path d="M46.0193 29.739L46.0193 2.40962L80.4327 37.1547L53.435 37.1547C49.3395 37.1547 46.0193 33.8346 46.0193 29.739Z" fill="#EBEBEB" stroke="#D5D5D5" stroke-width="1.16398"/>
<rect x="0.427734" y="61.5542" width="45.3953" height="20.9517" rx="5.81991" fill="#2D9B45"/>
<path d="M9.20832 77.8833L12.5231 72.5241L9.45656 67.4424H12.1289L14.1148 70.9178L16.0862 67.4424H18.5102L15.5313 72.4511L18.8315 77.8833H16.1446L13.8812 73.999L11.6324 77.8833H9.20832ZM20.3903 77.8833V67.4424H22.756V76.0288H27.0053V77.8833H20.3903ZM32.0696 78.0439C30.6872 78.0439 29.6407 77.7421 28.93 77.1386C28.2194 76.535 27.83 75.6929 27.7618 74.6123H30.0252C30.0837 75.1477 30.2589 75.5663 30.5509 75.8681C30.8527 76.1699 31.359 76.3208 32.0696 76.3208C32.5856 76.3208 32.9993 76.1943 33.3109 75.9411C33.6321 75.6783 33.7927 75.3424 33.7927 74.9336C33.7927 74.5149 33.6564 74.2132 33.3839 74.0282C33.1113 73.8432 32.5905 73.6923 31.8214 73.5755C30.4585 73.4003 29.4898 73.079 28.9154 72.6117C28.3411 72.1347 28.0539 71.3997 28.0539 70.4067C28.0539 69.5014 28.3995 68.7566 29.0907 68.1725C29.7916 67.5884 30.7116 67.2964 31.8506 67.2964C33.0285 67.2964 33.9485 67.5592 34.6105 68.0849C35.2822 68.6106 35.6668 69.3894 35.7641 70.4213H33.5883C33.4423 69.4965 32.863 69.0341 31.8506 69.0341C31.3444 69.0341 30.9549 69.1412 30.6824 69.3553C30.4195 69.5695 30.2881 69.8567 30.2881 70.2169C30.2881 70.6063 30.4147 70.8983 30.6678 71.0931C30.9306 71.278 31.4514 71.4289 32.2303 71.5457C33.5737 71.721 34.5472 72.0374 35.1508 72.4949C35.7544 72.9427 36.0562 73.6826 36.0562 74.7145C36.0562 75.6686 35.6911 76.462 34.961 77.0948C34.2406 77.7275 33.2768 78.0439 32.0696 78.0439Z" fill="white"/>
</svg>
