<svg width="83" height="102" viewBox="0 0 83 102" fill="none" xmlns="http://www.w3.org/2000/svg">
<path d="M75.2754 100.517H14.0123C10.3585 100.517 7.39644 97.5545 7.39644 93.9007V8.19399C7.39644 4.54012 10.3585 1.57808 14.0124 1.57808H45.5664L81.8913 37.9836V93.9007C81.8913 97.5545 78.9293 100.517 75.2754 100.517Z" fill="white" stroke="#D5D5D5" stroke-width="1.16398"/>
<path d="M19.6172 16.1279H49.2987" stroke="#D1D1D1" stroke-width="2.32796"/>
<path d="M19.6172 30.0957H69.0864" stroke="#D1D1D1" stroke-width="2.32796"/>
<path d="M19.6172 44.0635H69.0864" stroke="#D1D1D1" stroke-width="2.32796"/>
<path d="M19.6172 58.0312H69.0864" stroke="#D1D1D1" stroke-width="2.32796"/>
<path d="M19.6172 71.999H69.0864" stroke="#D1D1D1" stroke-width="2.32796"/>
<path d="M19.6172 85.9668H69.0864" stroke="#D1D1D1" stroke-width="2.32796"/>
<path d="M46.5857 29.739L46.5857 2.40962L80.9991 37.1547L54.0014 37.1547C49.9059 37.1547 46.5857 33.8346 46.5857 29.739Z" fill="#EBEBEB" stroke="#D5D5D5" stroke-width="1.16398"/>
<rect x="0.994141" y="61.5542" width="45.3953" height="20.9517" rx="5.81991" fill="#4A6CE4"/>
<path d="M10.7573 76.0038H11.7211C13.785 76.0038 14.8169 74.8891 14.8169 72.6598V72.543C14.8169 71.4429 14.5638 70.6203 14.0575 70.0751C13.5611 69.5202 12.7725 69.2428 11.6919 69.2428H10.7573V76.0038ZM8.3917 77.8438V67.4028H11.8087C13.6 67.4028 14.958 67.8555 15.8829 68.7609C16.8175 69.6662 17.2847 70.9172 17.2847 72.5138V72.6306C17.2847 74.2369 16.8175 75.5073 15.8829 76.4419C14.9483 77.3765 13.5854 77.8438 11.7941 77.8438H8.3917ZM23.8499 76.1206C24.7358 76.1206 25.4367 75.8091 25.9527 75.1861C26.4687 74.5533 26.7266 73.7112 26.7266 72.6598V72.543C26.7266 71.5111 26.4687 70.6836 25.9527 70.0605C25.4367 69.4375 24.7261 69.1259 23.8207 69.1259C22.9153 69.1259 22.2047 69.4375 21.6887 70.0605C21.1727 70.6738 20.9148 71.5062 20.9148 72.5576V72.6744C20.9148 73.7258 21.1873 74.563 21.7325 75.1861C22.2777 75.8091 22.9835 76.1206 23.8499 76.1206ZM27.705 76.5003C26.7218 77.503 25.4221 78.0044 23.8061 78.0044C22.1901 78.0044 20.8904 77.5079 19.9072 76.5149C18.9337 75.5122 18.4469 74.2369 18.4469 72.689V72.5722C18.4469 71.0243 18.9531 69.7539 19.9656 68.7609C20.978 67.7582 22.2631 67.2568 23.8207 67.2568C25.3978 67.2568 26.6877 67.7436 27.6904 68.7171C28.6931 69.6906 29.1945 70.9561 29.1945 72.5138V72.6306C29.1945 74.1979 28.698 75.4878 27.705 76.5003ZM35.611 78.0044C33.9366 78.0044 32.6418 77.5274 31.7267 76.5733C30.8213 75.6193 30.3686 74.3245 30.3686 72.689V72.5722C30.3686 71.0048 30.8554 69.7247 31.8289 68.7317C32.8122 67.7387 34.0534 67.2422 35.5526 67.2422C36.8571 67.2422 37.9231 67.5635 38.7506 68.206C39.5878 68.8485 40.0648 69.7928 40.1816 71.0389H37.7576C37.5824 69.7539 36.8522 69.1113 35.5672 69.1113C34.7397 69.1113 34.0826 69.418 33.5958 70.0313C33.1091 70.6446 32.8657 71.4867 32.8657 72.5576V72.6744C32.8657 73.755 33.1042 74.5971 33.5812 75.2007C34.0582 75.7945 34.7251 76.0914 35.5818 76.0914C36.2438 76.0914 36.7841 75.9259 37.2027 75.5949C37.6213 75.2542 37.8793 74.7528 37.9766 74.0909H40.2985C40.1719 75.3564 39.6852 76.3251 38.8382 76.9968C38.001 77.6685 36.9252 78.0044 35.611 78.0044Z" fill="white"/>
</svg>
