<svg width="63" height="62" viewBox="0 0 63 62" fill="none" xmlns="http://www.w3.org/2000/svg">
<path d="M16 33.7405V43.0005C16.0295 47.791 17.8676 52.3936 21.1462 55.8865C24.4247 59.3795 28.9018 61.5051 33.6809 61.8376C38.4599 62.1701 43.1882 60.685 46.9189 57.6797C50.6496 54.6744 53.1074 50.3708 53.8 45.6305C56.3683 44.9575 58.6064 43.3783 60.1016 41.1843C61.5967 38.9904 62.2479 36.3297 61.9349 33.6932C61.622 31.0567 60.3661 28.6224 58.3989 26.8394C56.4317 25.0564 53.886 24.0451 51.2316 23.992C48.5771 23.9389 45.993 24.8476 43.9561 26.5506C41.9192 28.2535 40.567 30.6356 40.1489 33.2575C39.7308 35.8793 40.275 38.5639 41.6812 40.8159C43.0874 43.0679 45.2607 44.7353 47.8 45.5105C47.2315 48.7342 45.4678 51.6247 42.8611 53.6048C40.2545 55.5848 36.9968 56.5086 33.7388 56.1917C30.4807 55.8747 27.4622 54.3403 25.2861 51.8949C23.11 49.4496 21.9365 46.2733 22 43.0005V33.7405C26.4588 33.0275 30.5179 30.7499 33.4498 27.3159C36.3818 23.8819 37.9949 19.5159 38 15.0005V3.00049C38 2.20484 37.6839 1.44178 37.1213 0.879167C36.5587 0.316558 35.7957 0.000488281 35 0.000488281H27V6.00049H32V15.0005C32 18.4483 30.6304 21.7549 28.1924 24.1929C25.7544 26.6308 22.4478 28.0005 19 28.0005C15.5522 28.0005 12.2456 26.6308 9.80761 24.1929C7.36964 21.7549 6 18.4483 6 15.0005V6.00049H11V0.000488281H3C2.20435 0.000488281 1.44129 0.316558 0.878679 0.879167C0.31607 1.44178 0 2.20484 0 3.00049V15.0005C0.00514875 19.5159 1.61825 23.8819 4.55019 27.3159C7.48213 30.7499 11.5412 33.0275 16 33.7405ZM46 35.0005C46 34.0116 46.2932 33.0449 46.8427 32.2226C47.3921 31.4004 48.173 30.7595 49.0866 30.3811C50.0002 30.0027 51.0055 29.9036 51.9754 30.0966C52.9454 30.2895 53.8363 30.7657 54.5355 31.465C55.2348 32.1642 55.711 33.0551 55.9039 34.025C56.0968 34.9949 55.9978 36.0003 55.6194 36.9139C55.241 37.8275 54.6001 38.6084 53.7779 39.1578C52.9556 39.7072 51.9889 40.0005 51 40.0005C49.6739 40.0005 48.4021 39.4737 47.4645 38.536C46.5268 37.5983 46 36.3266 46 35.0005Z" fill="#007AFF"/>
</svg>
