<svg width="62" height="62" viewBox="0 0 62 62" fill="none" xmlns="http://www.w3.org/2000/svg">
<path d="M42 62.0003H0V7.00025C0 5.14373 0.737498 3.36325 2.05025 2.0505C3.36301 0.737742 5.14348 0.000244141 7 0.000244141H35C36.8565 0.000244141 38.637 0.737742 39.9497 2.0505C41.2625 3.36325 42 5.14373 42 7.00025V62.0003ZM6 56.0003H36V7.00025C36 6.73503 35.8946 6.48067 35.7071 6.29314C35.5196 6.1056 35.2652 6.00025 35 6.00025H7C6.73478 6.00025 6.48043 6.1056 6.29289 6.29314C6.10536 6.48067 6 6.73503 6 7.00025V56.0003Z" fill="#007AFF"/>
<path d="M62 62H36V8H55C56.8565 8 58.637 8.7375 59.9497 10.0503C61.2625 11.363 62 13.1435 62 15V62ZM42 56H56V15C56 14.7348 55.8946 14.4804 55.7071 14.2929C55.5196 14.1054 55.2652 14 55 14H42V56Z" fill="#007AFF"/>
<path d="M24 15.0002H18V21.0002H24V15.0002Z" fill="#007AFF"/>
<path d="M24 29.0007H18V35.0007H24V29.0007Z" fill="#007AFF"/>
<path d="M30 62.0005H12V51.0005C12 48.6135 12.9482 46.3244 14.636 44.6365C16.3239 42.9487 18.6131 42.0005 21 42.0005C23.3869 42.0005 25.6761 42.9487 27.364 44.6365C29.0518 46.3244 30 48.6135 30 51.0005V62.0005ZM18 56.0005H24V51.0005C24 50.2048 23.6839 49.4418 23.1213 48.8792C22.5587 48.3166 21.7956 48.0005 21 48.0005C20.2044 48.0005 19.4413 48.3166 18.8787 48.8792C18.3161 49.4418 18 50.2048 18 51.0005V56.0005Z" fill="#007AFF"/>
<path d="M58 24.0005H40V30.0005H58V24.0005Z" fill="#007AFF"/>
<path d="M58 40.0002H40V46.0002H58V40.0002Z" fill="#007AFF"/>
</svg>
