<svg width="82" height="102" viewBox="0 0 82 102" fill="none" xmlns="http://www.w3.org/2000/svg">
<path d="M74.4922 100.517H13.2291C9.57528 100.517 6.61324 97.5545 6.61324 93.9007V8.19399C6.61324 4.54012 9.57528 1.57808 13.2292 1.57808H44.7832L81.1081 37.9836V93.9007C81.1081 97.5545 78.1461 100.517 74.4922 100.517Z" fill="white" stroke="#D5D5D5" stroke-width="1.16398"/>
<path d="M18.834 16.1279H48.5155" stroke="#D1D1D1" stroke-width="2.32796"/>
<path d="M18.834 30.0957H68.3032" stroke="#D1D1D1" stroke-width="2.32796"/>
<path d="M18.834 44.0635H68.3032" stroke="#D1D1D1" stroke-width="2.32796"/>
<path d="M18.834 58.0312H68.3032" stroke="#D1D1D1" stroke-width="2.32796"/>
<path d="M18.834 71.999H68.3032" stroke="#D1D1D1" stroke-width="2.32796"/>
<path d="M18.834 85.9668H68.3032" stroke="#D1D1D1" stroke-width="2.32796"/>
<path d="M45.8025 29.739L45.8025 2.40962L80.2159 37.1547L53.2182 37.1547C49.1227 37.1547 45.8025 33.8346 45.8025 29.739Z" fill="#EBEBEB" stroke="#D5D5D5" stroke-width="1.16398"/>
<rect x="0.210938" y="61.5542" width="45.3953" height="20.9517" rx="5.81991" fill="#E44A4A"/>
<path d="M9.59941 77.8828V67.4419H13.2063C14.4913 67.4419 15.4746 67.7242 16.156 68.2888C16.8472 68.8535 17.1928 69.681 17.1928 70.7713V70.8297C17.1928 71.9006 16.8472 72.7135 16.156 73.2684C15.4648 73.8135 14.5059 74.0861 13.2793 74.0861H11.9504V77.8828H9.59941ZM11.9504 72.436H13.1479C14.3258 72.436 14.9148 71.9054 14.9148 70.8443V70.7859C14.9148 69.754 14.3258 69.238 13.1479 69.238H11.9504V72.436ZM21.106 76.0429H22.0698C24.1336 76.0429 25.1655 74.9282 25.1655 72.6989V72.582C25.1655 71.482 24.9124 70.6593 24.4062 70.1142C23.9097 69.5593 23.1212 69.2818 22.0406 69.2818H21.106V76.0429ZM18.7404 77.8828V67.4419H22.1574C23.9486 67.4419 25.3067 67.8946 26.2315 68.7999C27.1661 69.7053 27.6334 70.9563 27.6334 72.5528V72.6697C27.6334 74.2759 27.1661 75.5464 26.2315 76.481C25.297 77.4155 23.934 77.8828 22.1428 77.8828H18.7404ZM29.3359 77.8828V67.4419H36.0385V69.2964H31.7015V72.0563H35.1331V73.8379H31.7015V77.8828H29.3359Z" fill="white"/>
</svg>
