<svg width="217" height="48" viewBox="0 0 217 48" fill="none" xmlns="http://www.w3.org/2000/svg">
<rect width="48" height="48" rx="24" fill="#007AFF"/>
<g filter="url(#filter0_d)">
<path d="M35.2716 38.7114H15.8688V34.644H38.4561C38.5654 34.644 38.6491 34.7434 38.6312 34.8512C37.9891 38.7114 35.2716 38.7114 35.2716 38.7114Z" fill="#AFCDFB"/>
<path d="M35.2716 38.7114H15.8688V34.644H38.4561C38.5654 34.644 38.6491 34.7434 38.6312 34.8512C37.9891 38.7114 35.2716 38.7114 35.2716 38.7114Z" fill="url(#paint0_linear)"/>
<g opacity="0.6">
<path d="M38.221 14.2767L16.0435 14.2767C15.9771 14.2767 15.9164 14.3158 15.8852 14.3744C10.0689 25.2899 10.0912 26.2654 10.0912 26.2654L31.0564 31.8881C31.0564 31.8881 31.6645 24.3672 38.3643 14.5621C38.4461 14.4424 38.3659 14.2767 38.221 14.2767Z" fill="#F8FBFF"/>
<path d="M38.221 14.2767L16.0435 14.2767C15.9771 14.2767 15.9164 14.3158 15.8852 14.3744C10.0689 25.2899 10.0912 26.2654 10.0912 26.2654L31.0564 31.8881C31.0564 31.8881 31.6645 24.3672 38.3643 14.5621C38.4461 14.4424 38.3659 14.2767 38.221 14.2767Z" fill="url(#paint1_linear)"/>
<path d="M28.2818 16.0895C28.2433 16.3047 28.0375 16.4488 27.8221 16.4114L19.4732 14.9603C19.2579 14.9229 19.1145 14.7181 19.153 14.5029C19.1915 14.2877 19.3972 14.1436 19.6126 14.1811L27.9615 15.6321C28.1769 15.6696 28.3203 15.8743 28.2818 16.0895Z" fill="black"/>
<path d="M30.3474 17.8693C30.3089 18.0854 30.1024 18.2299 29.8863 18.1922L16.9209 15.9306C16.7047 15.8929 16.5607 15.6872 16.5992 15.4712C16.6377 15.2552 16.8442 15.1106 17.0603 15.1483L30.0257 17.41C30.2419 17.4477 30.3859 17.6533 30.3474 17.8693Z" fill="black"/>
<path d="M29.3891 21.0063L15.4278 18.5445C15.3203 18.5255 15.2481 18.4215 15.2671 18.3136C15.2862 18.2055 15.3895 18.1327 15.4971 18.1516L29.4584 20.6134C29.566 20.6324 29.6381 20.7364 29.6191 20.8443C29.6003 20.9525 29.4967 21.0252 29.3891 21.0063Z" fill="black"/>
<path d="M29.2508 21.8329L15.2895 19.3711C15.1819 19.3522 15.1098 19.2481 15.1288 19.1403C15.1479 19.0321 15.2512 18.9593 15.3588 18.9783L29.3201 21.44C29.4276 21.459 29.4998 21.5631 29.4808 21.6709C29.462 21.7791 29.3584 21.8519 29.2508 21.8329Z" fill="black"/>
<path d="M15.1358 20.2429L23.734 21.759C23.8415 21.778 23.9452 21.7052 23.9639 21.597C23.983 21.4888 23.9108 21.3851 23.8032 21.3661L15.205 19.85C15.0975 19.8311 14.9942 19.9039 14.9751 20.012C14.956 20.1202 15.0282 20.224 15.1358 20.2429Z" fill="black"/>
</g>
<g opacity="0.6">
<path d="M36.7154 12.484L14.48 12.4841C14.4034 12.4841 14.3367 12.5349 14.3118 12.6074C10.2837 24.3054 10.7945 28.7733 10.7945 28.7733L31.2841 29.4556C31.2841 29.4556 32.4048 21.0304 36.8695 12.7515C36.9344 12.6313 36.8519 12.484 36.7154 12.484Z" fill="#F8FBFF"/>
<path d="M36.7154 12.484L14.48 12.4841C14.4034 12.4841 14.3367 12.5349 14.3118 12.6074C10.2837 24.3054 10.7945 28.7733 10.7945 28.7733L31.2841 29.4556C31.2841 29.4556 32.4048 21.0304 36.8695 12.7515C36.9344 12.6313 36.8519 12.484 36.7154 12.484Z" fill="url(#paint2_linear)"/>
<path d="M27.7746 14.795C27.7552 15.0113 27.5641 15.1716 27.3478 15.1531L18.8938 14.4307C18.6775 14.4122 18.5178 14.222 18.5372 14.0058C18.5566 13.7895 18.7476 13.6292 18.9639 13.6477L27.418 14.3701C27.6343 14.3886 27.7939 14.5788 27.7746 14.795Z" fill="black"/>
<path d="M29.9874 16.3875C29.968 16.6048 29.7761 16.7658 29.5587 16.7471L16.4357 15.6205C16.2183 15.6018 16.0579 15.4105 16.0772 15.1932C16.0966 14.976 16.2885 14.8149 16.5058 14.8336L29.6289 15.9603C29.8462 15.9789 30.0067 16.1702 29.9874 16.3875Z" fill="black"/>
<path d="M29.3041 19.5951L15.1814 18.3595C15.0726 18.35 14.9916 18.2526 15.0012 18.1435C15.0107 18.0341 15.1073 17.9526 15.2161 17.9621L29.3389 19.1977C29.4477 19.2072 29.5286 19.3046 29.5191 19.4137C29.5098 19.5231 29.4129 19.6046 29.3041 19.5951Z" fill="black"/>
<path d="M29.2384 20.4307L15.1156 19.1951C15.0068 19.1856 14.9259 19.0882 14.9354 18.9791C14.945 18.8697 15.0416 18.7882 15.1504 18.7977L29.2731 20.0333C29.3819 20.0428 29.4629 20.1402 29.4533 20.2492C29.4441 20.3587 29.3472 20.4402 29.2384 20.4307Z" fill="black"/>
<path d="M15.0385 20.0769L23.7361 20.8379C23.8449 20.8474 23.9418 20.7659 23.9511 20.6564C23.9606 20.547 23.8797 20.45 23.7709 20.4405L15.0732 19.6795C14.9644 19.67 14.8678 19.7515 14.8583 19.8609C14.8487 19.9704 14.9297 20.0674 15.0385 20.0769Z" fill="black"/>
</g>
<path d="M35.196 10.5684C35.3283 10.5684 35.4142 10.7077 35.358 10.8274C30.5569 21.0451 31.2404 31.3839 31.2404 31.3839L31.2398 31.3839C30.953 34.1325 32.2696 38.3377 35.2865 38.7281H16.4503C11.5068 38.7281 9.47592 35.1936 9.47499 31.3842C9.47526 31.3839 9.47526 31.3839 9.47526 31.3839L9.47592 31.3839C9.47592 31.3839 8.78538 20.8509 13.6711 10.6457C13.7009 10.5835 13.7651 10.5435 13.834 10.5435C23.0847 10.5437 29.4599 10.5676 35.196 10.5684Z" fill="url(#paint3_radial)"/>
<rect x="15.2549" y="13.1675" width="6.71619" height="1.41393" rx="0.706967" fill="#C3D1E6"/>
<rect x="12.5684" y="26.9536" width="6.71619" height="1.41393" rx="0.706967" fill="#CFDBEC"/>
<rect x="13.0986" y="20.5908" width="16.4016" height="1.41393" rx="0.706967" fill="#CFDBEC"/>
<rect x="12.5684" y="23.772" width="16.4016" height="1.41393" rx="0.706967" fill="#CFDBEC"/>
<rect x="14.1943" y="16.3491" width="8.58965" height="1.41393" rx="0.706967" fill="#CFDBEC"/>
</g>
<path fill-rule="evenodd" clip-rule="evenodd" d="M27.5644 33.0788C26.9399 34.0643 25.8396 34.7185 24.5865 34.7185C23.9953 34.7185 23.4382 34.5729 22.9489 34.3155L22.0117 34.5667C22.7257 35.1128 23.6182 35.4372 24.5865 35.4372C26.3509 35.4372 27.8637 34.36 28.5031 32.8273L27.5644 33.0788ZM22.4628 34.0066C21.6127 33.3635 21.0635 32.3436 21.0635 31.1954C21.0635 30.7483 21.1468 30.3207 21.2987 29.9271L20.4751 30.1478C20.39 30.4829 20.3447 30.8339 20.3447 31.1954C20.3447 32.3855 20.8348 33.461 21.6241 34.2314L22.4628 34.0066ZM20.6282 29.6676C21.2414 28.0799 22.7824 26.9536 24.5865 26.9536C25.5951 26.9536 26.5215 27.3056 27.2495 27.8935L26.3378 28.1378C25.8219 27.8417 25.224 27.6724 24.5865 27.6724C23.287 27.6724 22.1518 28.376 21.5411 29.423L20.6282 29.6676ZM26.7988 28.4534C27.5983 29.0992 28.1096 30.0876 28.1096 31.1954C28.1096 31.6823 28.0108 32.1461 27.8322 32.5679L28.6712 32.3431C28.7736 31.9781 28.8283 31.5931 28.8283 31.1954C28.8283 30.0426 28.3685 28.9973 27.6222 28.2327L26.7988 28.4534Z" fill="#F23333"/>
<path d="M19.3649 31.6165C19.2624 31.234 19.2112 31.0428 19.2465 30.8768C19.2775 30.7308 19.354 30.5983 19.4649 30.4984C19.5911 30.3848 19.7823 30.3336 20.1647 30.2311L27.9514 28.1447C28.3339 28.0422 28.5251 27.991 28.6911 28.0263C28.8371 28.0573 28.9696 28.1338 29.0695 28.2447C29.1831 28.3708 29.2343 28.5621 29.3368 28.9445L29.8491 30.8566C29.9516 31.239 30.0028 31.4302 29.9675 31.5963C29.9365 31.7423 29.86 31.8748 29.7491 31.9747C29.6229 32.0882 29.4317 32.1395 29.0493 32.2419L21.2626 34.3284C20.8801 34.4309 20.6889 34.4821 20.5229 34.4468C20.3769 34.4158 20.2444 34.3393 20.1445 34.2283C20.0309 34.1022 19.9797 33.911 19.8772 33.5285L19.3649 31.6165Z" fill="#F23333"/>
<path d="M22.0735 30.8845L21.1582 31.1298L21.707 33.1779L22.2982 33.0195L22.1438 32.4433L22.4604 32.3585C22.966 32.223 23.1229 31.8239 23.0163 31.4263C22.9118 31.0362 22.5791 30.749 22.0735 30.8845ZM22.4176 31.5867C22.4711 31.7863 22.3735 31.9202 22.1815 31.9717L22.0254 32.0135L21.8646 31.4133L22.0356 31.3675C22.2187 31.3184 22.3654 31.3917 22.4176 31.5867Z" fill="white"/>
<path d="M23.9337 32.5812L23.9275 32.1439L24.5066 31.9887L24.7169 32.3714L25.3501 32.2017L24.1741 30.3216L23.4299 30.5211L23.347 32.7384L23.9337 32.5812ZM23.9299 30.9226L24.2965 31.5947L23.9154 31.6968L23.9014 30.9302L23.9299 30.9226Z" fill="white"/>
<path d="M26.1259 31.9939L25.5771 29.9457L24.9844 30.1045L25.5332 32.1527L26.1259 31.9939Z" fill="white"/>
<path d="M25.9387 29.8488L26.4875 31.897L27.3532 31.665C28.0014 31.4913 28.1809 31.0026 28.0136 30.3784C27.8488 29.7632 27.4632 29.4403 26.8044 29.6168L25.9387 29.8488ZM26.6544 30.1492L26.8224 30.1041C27.1856 30.0068 27.3316 30.2636 27.4104 30.5577C27.5422 31.0499 27.3563 31.1721 27.1252 31.234L26.9571 31.279L26.6544 30.1492Z" fill="white"/>
<path d="M57.9661 24H61.9226V6.64488H57.9661V24ZM64.9614 24H68.481V16.6696C68.481 14.8006 69.6218 13.8782 71.1268 13.8782C72.6802 13.8782 73.3599 14.7035 73.3599 16.4269V24H76.8794V15.9171C76.8794 12.5189 75.1075 11.014 72.6074 11.014C70.4957 11.014 69.1121 12.0577 68.481 13.3199V11.3053H64.9614V24ZM82.5949 24H86.5514L91.1633 11.3053H87.7651L84.7552 20.3833L81.7211 11.3053H77.9588L82.5949 24ZM97.8838 21.597C95.8934 21.597 94.7769 20.1406 94.7769 17.7133V17.5191C94.7769 15.0918 95.942 13.684 97.8838 13.684C99.8499 13.684 100.991 15.1404 100.991 17.5677V17.7376C100.991 20.1406 99.8499 21.597 97.8838 21.597ZM97.8595 24.267C101.67 24.267 104.559 21.7183 104.559 17.7133V17.5191C104.559 13.5627 101.695 11.014 97.8838 11.014C94.073 11.014 91.1845 13.6112 91.1845 17.592V17.7861C91.1845 21.7426 94.073 24.267 97.8595 24.267ZM106.53 24H110.025V11.3053H106.53V24ZM108.253 9.5819C109.394 9.5819 110.268 8.75662 110.268 7.66434C110.268 6.57206 109.394 5.74679 108.253 5.74679C107.137 5.74679 106.263 6.57206 106.263 7.66434C106.263 8.75662 107.137 9.5819 108.253 9.5819ZM118.527 24.267C122.216 24.267 124.401 22.1795 124.595 19.1697H121.415C121.246 20.796 120.105 21.6213 118.697 21.6213C116.731 21.6213 115.59 20.3105 115.59 17.7619V17.5677C115.59 15.1404 116.804 13.7811 118.624 13.7811C120.056 13.7811 120.954 14.4608 121.197 15.9414H124.522C124.207 12.3005 121.488 11.014 118.551 11.014C114.935 11.014 111.998 13.5141 111.998 17.6162V17.8104C111.998 21.9611 114.813 24.267 118.527 24.267ZM132.171 24.267C135.642 24.267 137.827 22.7378 138.24 19.995H134.914C134.696 21.063 133.895 21.7669 132.268 21.7669C130.351 21.7669 129.21 20.5532 129.113 18.4415H138.264V17.4706C138.264 12.9316 135.351 11.014 132.074 11.014C128.385 11.014 125.545 13.6112 125.545 17.6162V17.8104C125.545 21.864 128.336 24.267 132.171 24.267ZM129.162 16.2812C129.429 14.485 130.497 13.4413 132.074 13.4413C133.749 13.4413 134.72 14.3637 134.841 16.2812H129.162ZM145.293 24H148.813V11.815L153.643 24H154.929L159.736 11.815V24H163.643V6.64488H158.546L154.541 17.4463L150.488 6.64488H145.293V24ZM169.912 24.267C171.902 24.267 173.019 23.4903 173.747 22.4708V24H177.17V15.7229C177.17 12.2762 174.961 11.014 171.854 11.014C168.747 11.014 166.368 12.349 166.15 15.3589H169.475C169.621 14.2666 170.252 13.5627 171.635 13.5627C173.237 13.5627 173.698 14.3879 173.698 15.8929V16.4026H172.266C168.383 16.4026 165.664 17.5191 165.664 20.4804C165.664 23.1504 167.606 24.267 169.912 24.267ZM170.956 21.8154C169.669 21.8154 169.111 21.2086 169.111 20.2862C169.111 18.927 170.3 18.4901 172.339 18.4901H173.698V19.5581C173.698 20.9659 172.509 21.8154 170.956 21.8154ZM179.705 24H183.224V18.0046L187.424 24H191.404L186.428 17.0822L191.04 11.3053H187.302L183.224 16.6696V5.5526H179.705V24ZM197.917 24.267C201.388 24.267 203.572 22.7378 203.985 19.995H200.66C200.441 21.063 199.64 21.7669 198.014 21.7669C196.096 21.7669 194.955 20.5532 194.858 18.4415H204.009V17.4706C204.009 12.9316 201.097 11.014 197.82 11.014C194.13 11.014 191.29 13.6112 191.29 17.6162V17.8104C191.29 21.864 194.082 24.267 197.917 24.267ZM194.907 16.2812C195.174 14.485 196.242 13.4413 197.82 13.4413C199.495 13.4413 200.465 14.3637 200.587 16.2812H194.907ZM205.828 24H209.347V17.6405C209.347 15.2132 210.852 14.3637 213.449 14.3879V11.1111C211.386 11.1354 210.148 12.0335 209.347 13.7326V11.3053H205.828V24Z" fill="black"/>
<path d="M61.128 41.566C62.856 41.566 63.984 40.246 63.984 38.326V38.23C63.984 36.274 62.772 35.074 61.128 35.074C60.216 35.074 59.364 35.626 59.004 36.238V32.182H58.008V41.458H59.004V40.426C59.364 41.05 60.108 41.566 61.128 41.566ZM61.032 40.738C59.808 40.738 58.968 39.982 58.968 38.374V38.278C58.968 36.67 59.856 35.902 61.02 35.902C62.076 35.902 62.952 36.694 62.952 38.278V38.374C62.952 39.898 62.28 40.738 61.032 40.738ZM66.0983 43.642H67.1062L70.5742 35.182H69.5543L67.8143 39.682L65.8942 35.182H64.8262L67.2862 40.81L66.0983 43.642ZM78.1456 41.566C79.8496 41.566 81.1096 40.474 81.1096 39.034C81.1096 37.414 80.1016 36.838 78.1936 36.538C76.4416 36.274 76.1296 35.842 76.1296 35.002C76.1296 34.198 76.7416 33.61 77.9176 33.61C79.1056 33.61 79.7296 34.054 79.9336 35.134H80.8696C80.7016 33.61 79.6336 32.77 77.9176 32.77C76.2976 32.77 75.1576 33.778 75.1576 35.098C75.1576 36.622 76.2256 37.186 78.0256 37.462C79.6576 37.726 80.1016 38.134 80.1016 39.106C80.1016 40.078 79.2496 40.726 78.1456 40.726C76.4176 40.726 76.0096 39.862 75.8776 38.842H74.8696C75.0256 40.306 75.8536 41.566 78.1456 41.566ZM84.517 41.566C85.441 41.566 86.005 41.254 86.473 40.666V41.458H87.469V37.318C87.469 35.566 86.377 35.074 85.177 35.074C83.965 35.074 82.825 35.602 82.693 37.03H83.689C83.785 36.262 84.265 35.902 85.129 35.902C86.089 35.902 86.473 36.322 86.473 37.318V37.774H85.573C83.965 37.774 82.429 38.266 82.429 39.718C82.429 41.002 83.353 41.566 84.517 41.566ZM84.613 40.774C83.737 40.774 83.425 40.366 83.425 39.718C83.425 38.794 84.349 38.482 85.609 38.482H86.473V39.262C86.473 40.234 85.669 40.774 84.613 40.774ZM89.5695 41.458H90.5775V32.182H89.5695V41.458ZM95.0998 41.566C96.0118 41.566 96.8878 40.99 97.2478 40.378V41.458H98.2438V32.182H97.2478V36.19C96.8878 35.578 96.2398 35.074 95.1958 35.074C93.4678 35.074 92.2678 36.43 92.2678 38.35V38.446C92.2678 40.402 93.4558 41.566 95.0998 41.566ZM95.2078 40.738C94.1518 40.738 93.2998 39.982 93.2998 38.398V38.302C93.2998 36.778 94.0438 35.902 95.2918 35.902C96.5158 35.902 97.2838 36.658 97.2838 38.266V38.362C97.2838 39.97 96.3718 40.738 95.2078 40.738ZM102.995 40.738C101.723 40.738 100.943 39.802 100.943 38.374V38.278C100.943 36.838 101.735 35.902 102.995 35.902C104.243 35.902 105.047 36.838 105.047 38.29V38.374C105.047 39.79 104.255 40.738 102.995 40.738ZM102.983 41.566C104.771 41.566 106.079 40.258 106.079 38.362V38.266C106.079 36.382 104.771 35.074 102.995 35.074C101.219 35.074 99.9113 36.394 99.9113 38.278V38.374C99.9113 40.21 101.195 41.566 102.983 41.566ZM110.461 41.458H111.445L112.273 38.986H115.813L116.653 41.458H117.685L114.781 32.878H113.413L110.461 41.458ZM114.049 33.742L115.537 38.158H112.561L114.049 33.742ZM119.243 43.642H120.239V40.426C120.599 41.05 121.331 41.566 122.363 41.566C124.091 41.566 125.219 40.246 125.219 38.326V38.23C125.219 36.274 124.007 35.074 122.363 35.074C121.451 35.074 120.599 35.626 120.239 36.238V35.182H119.243V43.642ZM122.267 40.738C121.043 40.738 120.203 39.982 120.203 38.374V38.278C120.203 36.67 121.091 35.902 122.255 35.902C123.311 35.902 124.187 36.694 124.187 38.278V38.374C124.187 39.898 123.515 40.738 122.267 40.738ZM126.887 43.642H127.883V40.426C128.243 41.05 128.975 41.566 130.007 41.566C131.735 41.566 132.863 40.246 132.863 38.326V38.23C132.863 36.274 131.651 35.074 130.007 35.074C129.095 35.074 128.243 35.626 127.883 36.238V35.182H126.887V43.642ZM129.911 40.738C128.687 40.738 127.847 39.982 127.847 38.374V38.278C127.847 36.67 128.735 35.902 129.899 35.902C130.955 35.902 131.831 36.694 131.831 38.278V38.374C131.831 39.898 131.159 40.738 129.911 40.738ZM136.474 41.566C137.998 41.566 138.778 40.798 138.778 39.658C138.778 38.326 137.866 38.038 136.57 37.798C135.418 37.594 135.106 37.366 135.106 36.802C135.106 36.262 135.574 35.902 136.294 35.902C137.086 35.902 137.47 36.202 137.614 36.886H138.574C138.406 35.53 137.434 35.074 136.306 35.074C135.322 35.074 134.182 35.674 134.182 36.838C134.182 37.93 134.734 38.386 136.366 38.686C137.338 38.866 137.83 39.082 137.83 39.742C137.83 40.414 137.41 40.738 136.462 40.738C135.454 40.738 135.058 40.27 134.986 39.526H134.014C134.074 40.81 134.974 41.566 136.474 41.566Z" fill="#71839C"/>
<defs>
<filter id="filter0_d" x="9.08301" y="10.5435" width="29.9103" height="31.2394" filterUnits="userSpaceOnUse" color-interpolation-filters="sRGB">
<feFlood flood-opacity="0" result="BackgroundImageFix"/>
<feColorMatrix in="SourceAlpha" type="matrix" values="0 0 0 0 0 0 0 0 0 0 0 0 0 0 0 0 0 0 127 0" result="hardAlpha"/>
<feOffset dy="2.69531"/>
<feGaussianBlur stdDeviation="0.179688"/>
<feColorMatrix type="matrix" values="0 0 0 0 0 0 0 0 0 0 0 0 0 0 0 0 0 0 1 0"/>
<feBlend mode="color-dodge" in2="BackgroundImageFix" result="effect1_dropShadow"/>
<feBlend mode="normal" in="SourceGraphic" in2="effect1_dropShadow" result="shape"/>
</filter>
<linearGradient id="paint0_linear" x1="32.4445" y1="37.3086" x2="37.5415" y2="37.3086" gradientUnits="userSpaceOnUse">
<stop stop-color="#9DC4FE"/>
<stop offset="1" stop-color="#CEDFFF"/>
</linearGradient>
<linearGradient id="paint1_linear" x1="17.4777" y1="18.1408" x2="30.0974" y2="22.4861" gradientUnits="userSpaceOnUse">
<stop stop-color="#EFDAD5"/>
<stop offset="0.470672" stop-color="#DEF1D6"/>
<stop offset="1" stop-color="#C5E8F0"/>
</linearGradient>
<linearGradient id="paint2_linear" x1="12.1113" y1="18.9924" x2="32.8939" y2="22.657" gradientUnits="userSpaceOnUse">
<stop stop-color="white"/>
<stop offset="1" stop-color="#96CDFF"/>
</linearGradient>
<radialGradient id="paint3_radial" cx="0" cy="0" r="1" gradientUnits="userSpaceOnUse" gradientTransform="translate(24.1101 6.55726) rotate(90) scale(33.3335 67.1486)">
<stop stop-color="white"/>
<stop offset="0.862545" stop-color="white"/>
<stop offset="0.895833" stop-color="#E2F0FF"/>
<stop offset="0.942708" stop-color="#ADD3FF"/>
<stop offset="1" stop-color="#61A9FE"/>
</radialGradient>
</defs>
</svg>
