<svg width="260" height="226" viewBox="0 0 260 226" fill="none" xmlns="http://www.w3.org/2000/svg">
<rect x="67.9971" y="0.742676" width="124.003" height="124.003" rx="62.0016" fill="#007AFF"/>
<path d="M78.2576 220.63C80.5526 220.63 82.2016 218.896 82.2016 216.04V215.904C82.2016 213.031 80.4846 211.382 78.2576 211.382C76.9486 211.382 75.8436 212.147 75.3506 212.997V207.455H73.2936V220.46H75.3506V219.032C75.8266 219.933 76.8466 220.63 78.2576 220.63ZM77.7476 218.998C76.2516 218.998 75.2826 218.063 75.2826 216.074V215.938C75.2826 213.966 76.3026 212.997 77.7306 212.997C79.0736 212.997 80.0936 213.966 80.0936 215.938V216.074C80.0936 217.978 79.2606 218.998 77.7476 218.998ZM84.7884 223.503H86.8114L91.6564 211.569H89.6504L87.4744 217.298L85.1114 211.569H82.8844L86.4034 219.559L84.7884 223.503ZM101.551 220.63C104.237 220.63 106.022 218.981 106.022 216.873C106.022 214.442 104.543 213.626 101.687 213.235C99.5786 212.929 99.1706 212.436 99.1706 211.45C99.1706 210.515 99.8846 209.852 101.262 209.852C102.656 209.852 103.387 210.396 103.608 211.671H105.682C105.444 209.342 103.88 208.152 101.262 208.152C98.7286 208.152 97.0286 209.648 97.0286 211.637C97.0286 213.915 98.4056 214.799 101.313 215.19C103.285 215.513 103.846 215.938 103.846 217.06C103.846 218.182 102.894 218.93 101.551 218.93C99.4936 218.93 99.0006 217.91 98.8476 216.686H96.6716C96.8416 218.981 98.2356 220.63 101.551 220.63ZM110.37 220.63C111.73 220.63 112.512 220.137 113.09 219.372V220.46H115.113V214.629C115.113 212.198 113.549 211.382 111.56 211.382C109.571 211.382 107.922 212.249 107.752 214.323H109.741C109.843 213.439 110.37 212.929 111.441 212.929C112.648 212.929 113.056 213.524 113.056 214.714V215.173H111.951C109.401 215.173 107.395 215.921 107.395 217.995C107.395 219.848 108.738 220.63 110.37 220.63ZM110.863 219.151C109.843 219.151 109.435 218.658 109.435 217.91C109.435 216.822 110.438 216.465 112.002 216.465H113.056V217.349C113.056 218.488 112.121 219.151 110.863 219.151ZM117.521 220.46H119.578V207.455H117.521V220.46ZM125.418 220.63C126.727 220.63 127.866 219.848 128.342 218.964V220.46H130.399V207.455H128.342V212.929C127.849 212.045 126.948 211.382 125.503 211.382C123.191 211.382 121.508 213.184 121.508 216.023V216.159C121.508 219.049 123.191 220.63 125.418 220.63ZM125.928 218.998C124.602 218.998 123.616 218.063 123.616 216.108V215.972C123.616 214.051 124.5 212.997 126.013 212.997C127.509 212.997 128.41 213.966 128.41 215.921V216.057C128.41 218.046 127.356 218.998 125.928 218.998ZM136.821 219.032C135.257 219.032 134.356 217.893 134.356 216.074V215.938C134.356 214.102 135.291 212.997 136.821 212.997C138.351 212.997 139.269 214.119 139.269 215.955V216.074C139.269 217.893 138.351 219.032 136.821 219.032ZM136.804 220.63C139.422 220.63 141.377 218.828 141.377 216.057V215.921C141.377 213.201 139.422 211.382 136.821 211.382C134.203 211.382 132.248 213.218 132.248 215.972V216.108C132.248 218.811 134.186 220.63 136.804 220.63ZM146.522 220.46H148.647L149.599 217.451H154.24L155.209 220.46H157.555L153.543 208.305H150.585L146.522 220.46ZM151.928 210.158L153.713 215.802H150.126L151.928 210.158ZM159.24 223.503H161.297V219.066C161.773 219.933 162.793 220.63 164.204 220.63C166.499 220.63 168.148 218.896 168.148 216.04V215.904C168.148 213.031 166.431 211.382 164.204 211.382C162.895 211.382 161.79 212.147 161.297 212.997V211.569H159.24V223.503ZM163.694 218.998C162.198 218.998 161.229 218.063 161.229 216.074V215.938C161.229 213.966 162.249 212.997 163.677 212.997C165.02 212.997 166.04 213.966 166.04 215.938V216.074C166.04 217.978 165.207 218.998 163.694 218.998ZM169.998 223.503H172.055V219.066C172.531 219.933 173.551 220.63 174.962 220.63C177.257 220.63 178.906 218.896 178.906 216.04V215.904C178.906 213.031 177.189 211.382 174.962 211.382C173.653 211.382 172.548 212.147 172.055 212.997V211.569H169.998V223.503ZM174.452 218.998C172.956 218.998 171.987 218.063 171.987 216.074V215.938C171.987 213.966 173.007 212.997 174.435 212.997C175.778 212.997 176.798 213.966 176.798 215.938V216.074C176.798 217.978 175.965 218.998 174.452 218.998ZM183.798 220.63C186.076 220.63 187.351 219.593 187.351 217.791C187.351 215.904 186.11 215.394 184.019 215.071C182.608 214.833 182.183 214.578 182.183 213.932C182.183 213.303 182.71 212.878 183.594 212.878C184.546 212.878 185.005 213.252 185.175 214.068H187.079C186.858 212.062 185.413 211.382 183.594 211.382C181.928 211.382 180.262 212.266 180.262 214.051C180.262 215.717 181.129 216.38 183.475 216.754C184.784 216.975 185.379 217.247 185.379 217.978C185.379 218.726 184.886 219.117 183.781 219.117C182.574 219.117 182.115 218.59 182.013 217.689H180.075C180.16 219.576 181.503 220.63 183.798 220.63Z" fill="#71839C"/>
<path d="M3.07702 190H9.27102V162.83H3.07702V190ZM14.7884 190H20.2984V178.524C20.2984 175.598 22.0844 174.154 24.4404 174.154C26.8724 174.154 27.9364 175.446 27.9364 178.144V190H33.4464V177.346C33.4464 172.026 30.6724 169.67 26.7584 169.67C23.4524 169.67 21.2864 171.304 20.2984 173.28V170.126H14.7884V190ZM43.1543 190H49.3483L56.5683 170.126H51.2483L46.5363 184.338L41.7863 170.126H35.8963L43.1543 190ZM67.8495 186.238C64.7335 186.238 62.9855 183.958 62.9855 180.158V179.854C62.9855 176.054 64.8095 173.85 67.8495 173.85C70.9275 173.85 72.7135 176.13 72.7135 179.93V180.196C72.7135 183.958 70.9275 186.238 67.8495 186.238ZM67.8115 190.418C73.7775 190.418 78.2995 186.428 78.2995 180.158V179.854C78.2995 173.66 73.8155 169.67 67.8495 169.67C61.8835 169.67 57.3615 173.736 57.3615 179.968V180.272C57.3615 186.466 61.8835 190.418 67.8115 190.418ZM82.1455 190H87.6175V170.126H82.1455V190ZM84.8435 167.428C86.6295 167.428 87.9975 166.136 87.9975 164.426C87.9975 162.716 86.6295 161.424 84.8435 161.424C83.0955 161.424 81.7275 162.716 81.7275 164.426C81.7275 166.136 83.0955 167.428 84.8435 167.428ZM101.687 190.418C107.463 190.418 110.883 187.15 111.187 182.438H106.209C105.943 184.984 104.157 186.276 101.953 186.276C98.875 186.276 97.089 184.224 97.089 180.234V179.93C97.089 176.13 98.989 174.002 101.839 174.002C104.081 174.002 105.487 175.066 105.867 177.384H111.073C110.579 171.684 106.323 169.67 101.725 169.67C96.063 169.67 91.465 173.584 91.465 180.006V180.31C91.465 186.808 95.873 190.418 101.687 190.418ZM123.808 190.418C129.242 190.418 132.662 188.024 133.308 183.73H128.102C127.76 185.402 126.506 186.504 123.96 186.504C120.958 186.504 119.172 184.604 119.02 181.298H133.346V179.778C133.346 172.672 128.786 169.67 123.656 169.67C117.88 169.67 113.434 173.736 113.434 180.006V180.31C113.434 186.656 117.804 190.418 123.808 190.418ZM119.096 177.916C119.514 175.104 121.186 173.47 123.656 173.47C126.278 173.47 127.798 174.914 127.988 177.916H119.096ZM145.87 190H151.38V170.924L158.942 190H160.956L168.48 170.924V190H174.598V162.83H166.618L160.348 179.74L154.002 162.83H145.87V190ZM185.172 190.418C188.288 190.418 190.036 189.202 191.176 187.606V190H196.534V177.042C196.534 171.646 193.076 169.67 188.212 169.67C183.348 169.67 179.624 171.76 179.282 176.472H184.488C184.716 174.762 185.704 173.66 187.87 173.66C190.378 173.66 191.1 174.952 191.1 177.308V178.106H188.858C182.778 178.106 178.522 179.854 178.522 184.49C178.522 188.67 181.562 190.418 185.172 190.418ZM186.806 186.58C184.792 186.58 183.918 185.63 183.918 184.186C183.918 182.058 185.78 181.374 188.972 181.374H191.1V183.046C191.1 185.25 189.238 186.58 186.806 186.58ZM201.263 190H206.773V180.614L213.347 190H219.579L211.789 179.17L219.009 170.126H213.157L206.773 178.524V161.12H201.263V190ZM230.534 190.418C235.968 190.418 239.388 188.024 240.034 183.73H234.828C234.486 185.402 233.232 186.504 230.686 186.504C227.684 186.504 225.898 184.604 225.746 181.298H240.072V179.778C240.072 172.672 235.512 169.67 230.382 169.67C224.606 169.67 220.16 173.736 220.16 180.006V180.31C220.16 186.656 224.53 190.418 230.534 190.418ZM225.822 177.916C226.24 175.104 227.912 173.47 230.382 173.47C233.004 173.47 234.524 174.914 234.714 177.916H225.822ZM243.679 190H249.189V180.044C249.189 176.244 251.545 174.914 255.611 174.952V169.822C252.381 169.86 250.443 171.266 249.189 173.926V170.126H243.679V190Z" fill="black"/>
<g clip-path="url(#clip0)">
<path d="M159.247 102.951H108.732V90.9731H167.538C167.823 90.9731 168.041 91.2659 167.994 91.5833C166.322 102.951 159.247 102.951 159.247 102.951Z" fill="#AFCDFB"/>
<path d="M159.247 102.951H108.732V90.9731H167.538C167.823 90.9731 168.041 91.2659 167.994 91.5833C166.322 102.951 159.247 102.951 159.247 102.951Z" fill="url(#paint0_linear)"/>
<g opacity="0.6">
<path opacity="0.6" d="M166.925 30.9932H109.186C109.013 30.9932 108.855 31.1083 108.774 31.2809C93.6314 63.4255 93.6895 66.2982 93.6895 66.2982L148.272 82.8563C148.272 82.8563 149.855 60.7083 167.298 31.8336C167.511 31.4811 167.302 30.9932 166.925 30.9932Z" fill="#F8FBFF"/>
<path opacity="0.6" d="M166.925 30.9932H109.186C109.013 30.9932 108.855 31.1083 108.774 31.2809C93.6314 63.4255 93.6895 66.2982 93.6895 66.2982L148.272 82.8563C148.272 82.8563 149.855 60.7083 167.298 31.8336C167.511 31.4811 167.302 30.9932 166.925 30.9932Z" fill="url(#paint1_linear)"/>
<path opacity="0.6" d="M141.049 36.3335C140.948 36.9672 140.413 37.3915 139.852 37.2814L118.116 33.0081C117.555 32.8977 117.182 32.2949 117.282 31.6611C117.382 31.0274 117.918 30.6031 118.478 30.7132L140.215 34.9865C140.775 35.0969 141.149 35.6997 141.049 36.3335Z" fill="black"/>
<path opacity="0.6" d="M146.427 41.573C146.326 42.2094 145.789 42.635 145.226 42.5239L111.471 35.8638C110.908 35.7528 110.533 35.1471 110.633 34.511C110.734 33.8749 111.271 33.4491 111.834 33.5601L145.589 40.2205C146.152 40.3315 146.527 40.937 146.427 41.573Z" fill="black"/>
<path opacity="0.6" d="M143.932 50.8113L107.584 43.5616C107.304 43.506 107.116 43.1994 107.165 42.8819C107.215 42.5633 107.484 42.3489 107.764 42.4049L144.112 49.6542C144.392 49.7102 144.58 50.0167 144.53 50.3342C144.481 50.6528 144.212 50.8672 143.932 50.8113Z" fill="black"/>
<path opacity="0.6" d="M143.57 53.2461L107.222 45.9964C106.942 45.9404 106.754 45.6342 106.804 45.3164C106.854 44.9981 107.122 44.7837 107.403 44.8394L143.751 52.089C144.031 52.1447 144.219 52.4512 144.169 52.769C144.12 53.0876 143.85 53.3017 143.57 53.2461Z" fill="black"/>
<path opacity="0.6" d="M106.822 48.5644L129.207 53.0291C129.487 53.0847 129.757 52.8706 129.806 52.552C129.855 52.2334 129.667 51.9277 129.387 51.872L107.002 47.4073C106.722 47.3514 106.453 47.5658 106.403 47.8844C106.354 48.2027 106.542 48.5084 106.822 48.5644Z" fill="black"/>
</g>
<g opacity="0.6">
<path opacity="0.6" d="M163.004 25.7148H105.114C104.915 25.7148 104.741 25.8647 104.677 26.0782C94.1894 60.5269 95.5193 73.6845 95.5193 73.6845L148.864 75.6938C148.864 75.6938 151.781 50.8828 163.405 26.5026C163.574 26.1486 163.359 25.7148 163.004 25.7148Z" fill="#F8FBFF"/>
<path opacity="0.6" d="M163.004 25.7148H105.114C104.915 25.7148 104.741 25.8647 104.677 26.0782C94.1894 60.5269 95.5193 73.6845 95.5193 73.6845L148.864 75.6938C148.864 75.6938 151.781 50.8828 163.405 26.5026C163.574 26.1486 163.359 25.7148 163.004 25.7148Z" fill="url(#paint2_linear)"/>
<path opacity="0.6" d="M139.727 32.5201C139.677 33.1571 139.179 33.6292 138.616 33.5747L116.606 31.4473C116.043 31.3928 115.627 30.8327 115.678 30.196C115.728 29.5591 116.226 29.087 116.789 29.1415L138.799 31.2689C139.362 31.323 139.778 31.8834 139.727 32.5201Z" fill="black"/>
<path opacity="0.6" d="M145.488 37.2112C145.437 37.8509 144.938 38.3253 144.372 38.2702L110.206 34.9522C109.64 34.8975 109.222 34.3341 109.273 33.6942C109.323 33.0543 109.823 32.5801 110.389 32.6352L144.554 35.9529C145.12 36.008 145.538 36.5713 145.488 37.2112Z" fill="black"/>
<path opacity="0.6" d="M143.709 46.6569L106.941 43.0185C106.658 42.9902 106.447 42.7037 106.472 42.3824C106.496 42.06 106.748 41.8199 107.031 41.8479L143.8 45.4866C144.083 45.5146 144.294 45.8014 144.269 46.1227C144.245 46.4452 143.992 46.6852 143.709 46.6569Z" fill="black"/>
<path opacity="0.6" d="M143.537 49.1168L106.769 45.4782C106.486 45.4502 106.275 45.1634 106.3 44.8421C106.325 44.5199 106.576 44.2799 106.86 44.3079L143.628 47.9466C143.911 47.9745 144.122 48.2614 144.097 48.5826C144.073 48.9048 143.821 49.1448 143.537 49.1168Z" fill="black"/>
<path opacity="0.6" d="M106.568 48.0751L129.212 50.3159C129.495 50.3439 129.747 50.1039 129.772 49.7817C129.796 49.4595 129.586 49.1736 129.303 49.1456L106.658 46.9046C106.375 46.8766 106.123 47.1166 106.099 47.4391C106.074 47.7612 106.285 48.0469 106.568 48.0751Z" fill="black"/>
</g>
<path d="M159.049 20.0736C159.394 20.0736 159.617 20.4838 159.471 20.8363C146.971 50.926 148.751 81.3724 148.751 81.3724H148.749C148.003 89.4666 151.43 101.85 159.285 103H110.245C97.3747 103 92.0873 92.5914 92.0849 81.3732C92.0856 81.3724 92.0856 81.3724 92.0856 81.3724H92.0873C92.0873 81.3724 90.2895 50.3541 103.009 20.3013C103.087 20.1181 103.254 20 103.434 20C127.518 20.0006 144.115 20.0713 159.049 20.0736Z" fill="url(#paint3_radial)"/>
<path d="M122.778 27.7275H108.973C107.957 27.7275 107.133 28.6596 107.133 29.8094C107.133 30.9593 107.957 31.8914 108.973 31.8914H122.778C123.794 31.8914 124.618 30.9593 124.618 29.8094C124.618 28.6596 123.794 27.7275 122.778 27.7275Z" fill="#C3D1E6"/>
<path d="M115.785 68.3267H101.98C100.964 68.3267 100.14 69.2588 100.14 70.4086C100.14 71.5584 100.964 72.4905 101.98 72.4905H115.785C116.801 72.4905 117.625 71.5584 117.625 70.4086C117.625 69.2588 116.801 68.3267 115.785 68.3267Z" fill="#CFDBEC"/>
<path d="M142.379 49.5884H103.359C102.343 49.5884 101.519 50.5205 101.519 51.6703C101.519 52.8201 102.343 53.7522 103.359 53.7522H142.379C143.396 53.7522 144.22 52.8201 144.22 51.6703C144.22 50.5205 143.396 49.5884 142.379 49.5884Z" fill="#CFDBEC"/>
<path d="M141 58.957H101.98C100.964 58.957 100.14 59.8891 100.14 61.0389C100.14 62.1888 100.964 63.1209 101.98 63.1209H141C142.017 63.1209 142.841 62.1888 142.841 61.0389C142.841 59.8891 142.017 58.957 141 58.957Z" fill="#CFDBEC"/>
<path d="M124.895 37.0972H106.213C105.196 37.0972 104.372 38.0293 104.372 39.1791C104.372 40.3289 105.196 41.261 106.213 41.261H124.895C125.911 41.261 126.735 40.3289 126.735 39.1791C126.735 38.0293 125.911 37.0972 124.895 37.0972Z" fill="#CFDBEC"/>
<path fill-rule="evenodd" clip-rule="evenodd" d="M139.181 86.3636C137.555 89.2654 134.691 91.192 131.428 91.192C129.889 91.192 128.439 90.7632 127.165 90.0055L124.725 90.7449C126.584 92.3531 128.907 93.3087 131.428 93.3087C136.022 93.3087 139.96 90.1362 141.625 85.6226L139.181 86.3636ZM125.899 89.0958C123.686 87.2017 122.256 84.1982 122.256 80.8172C122.256 79.5006 122.473 78.241 122.868 77.0822L120.724 77.7322C120.503 78.7187 120.385 79.7523 120.385 80.8172C120.385 84.3216 121.661 87.4891 123.716 89.7575L125.899 89.0958ZM121.123 76.318C122.719 71.6422 126.731 68.3257 131.428 68.3257C134.054 68.3257 136.466 69.3623 138.361 71.0933L135.988 71.8127C134.645 70.9407 133.088 70.4422 131.428 70.4422C128.045 70.4422 125.09 72.5142 123.5 75.5977L121.123 76.318ZM137.188 72.7421C139.269 74.6442 140.601 77.5549 140.601 80.8172C140.601 82.2508 140.343 83.6169 139.878 84.859L142.063 84.1967C142.329 83.1219 142.472 81.9884 142.472 80.8172C142.472 77.4224 141.275 74.3438 139.332 72.0925L137.188 72.7421Z" fill="#F23333"/>
<path d="M117.833 82.0561C117.566 80.9297 117.433 80.3666 117.525 79.8778C117.606 79.4478 117.805 79.0576 118.094 78.7634C118.422 78.4289 118.92 78.2781 119.916 77.9763L140.188 71.8321C141.184 71.5303 141.682 71.3795 142.114 71.4834C142.494 71.5747 142.839 71.8 143.099 72.1266C143.395 72.4979 143.528 73.0613 143.795 74.1874L145.129 79.8183C145.396 80.9444 145.529 81.5075 145.437 81.9966C145.356 82.4265 145.157 82.8167 144.868 83.1109C144.54 83.4452 144.042 83.5962 143.047 83.8978L122.774 90.0422C121.778 90.3441 121.28 90.4949 120.848 90.3909C120.468 90.2996 120.123 90.0743 119.863 89.7475C119.567 89.3761 119.434 88.8131 119.167 87.6866L117.833 82.0561Z" fill="#F23333"/>
<path d="M124.885 79.902L122.502 80.6241L123.931 86.6557L125.47 86.1893L125.068 84.4924L125.892 84.2427C127.209 83.8437 127.617 82.6684 127.339 81.4975C127.067 80.3487 126.201 79.5029 124.885 79.902ZM125.781 81.9699C125.92 82.5577 125.666 82.952 125.166 83.1033L124.76 83.2267L124.341 81.4592L124.786 81.324C125.263 81.1798 125.645 81.3956 125.781 81.9699Z" fill="white"/>
<path d="M129.728 84.8988L129.712 83.6111L131.219 83.154L131.767 84.281L133.415 83.7813L130.354 78.2446L128.416 78.8318L128.2 85.3618L129.728 84.8988ZM129.718 80.0145L130.672 81.9937L129.68 82.2944L129.644 80.0369L129.718 80.0145Z" fill="white"/>
<path d="M135.436 83.1686L134.007 77.1372L132.464 77.6049L133.893 83.6365L135.436 83.1686Z" fill="white"/>
<path d="M134.948 76.8519L136.377 82.8835L138.631 82.2003C140.318 81.6888 140.786 80.2497 140.35 78.4115C139.921 76.5998 138.917 75.6489 137.202 76.1687L134.948 76.8519ZM136.812 77.7365L137.249 77.6037C138.195 77.3172 138.575 78.0734 138.78 78.9395C139.123 80.389 138.639 80.7488 138.037 80.9311L137.6 81.0636L136.812 77.7365Z" fill="white"/>
</g>
<defs>
<linearGradient id="paint0_linear" x1="151.887" y1="98.8197" x2="165.157" y2="98.8197" gradientUnits="userSpaceOnUse">
<stop stop-color="#9DC4FE"/>
<stop offset="1" stop-color="#CEDFFF"/>
</linearGradient>
<linearGradient id="paint1_linear" x1="112.92" y1="42.3724" x2="146.554" y2="52.6109" gradientUnits="userSpaceOnUse">
<stop stop-color="#EFDAD5"/>
<stop offset="0.470672" stop-color="#DEF1D6"/>
<stop offset="1" stop-color="#C5E8F0"/>
</linearGradient>
<linearGradient id="paint2_linear" x1="98.9475" y1="44.8812" x2="153.413" y2="53.3718" gradientUnits="userSpaceOnUse">
<stop stop-color="white"/>
<stop offset="1" stop-color="#96CDFF"/>
</linearGradient>
<radialGradient id="paint3_radial" cx="0" cy="0" r="1" gradientUnits="userSpaceOnUse" gradientTransform="translate(130.187 8.26135) rotate(90) scale(98.1625 174.82)">
<stop stop-color="white"/>
<stop offset="0.862545" stop-color="white"/>
<stop offset="0.895833" stop-color="#E2F0FF"/>
<stop offset="0.942708" stop-color="#ADD3FF"/>
<stop offset="1" stop-color="#61A9FE"/>
</radialGradient>
<clipPath id="clip0">
<rect width="76" height="84" fill="white" transform="translate(92 20)"/>
</clipPath>
</defs>
</svg>
