<svg width="180" height="48" viewBox="0 0 180 48" fill="none" xmlns="http://www.w3.org/2000/svg">
<path d="M60.6343 21H59.0347V11.7578H60.6343V21ZM64.1506 14.1318L64.1951 14.9253C64.7029 14.3117 65.3694 14.0049 66.1946 14.0049C67.6249 14.0049 68.3528 14.8237 68.3782 16.4614V21H66.8357V16.5503C66.8357 16.1144 66.7405 15.7928 66.55 15.5854C66.3638 15.3739 66.057 15.2681 65.6296 15.2681C65.0076 15.2681 64.5442 15.5495 64.2395 16.1123V21H62.697V14.1318H64.1506ZM72.6372 19.0449L74.0908 14.1318H75.6841L73.3037 21H71.9643L69.5649 14.1318H71.1645L72.6372 19.0449ZM76.5217 17.5024C76.5217 16.8296 76.655 16.2244 76.9216 15.687C77.1882 15.1453 77.5627 14.7306 78.0451 14.4429C78.5276 14.1509 79.0819 14.0049 79.7082 14.0049C80.635 14.0049 81.3861 14.3032 81.9616 14.8999C82.5414 15.4966 82.8545 16.2879 82.9011 17.2739L82.9074 17.6357C82.9074 18.3128 82.7763 18.918 82.5139 19.4512C82.2557 19.9844 81.8834 20.397 81.3967 20.689C80.9143 20.981 80.3557 21.127 79.7209 21.127C78.7518 21.127 77.9753 20.8053 77.3913 20.1621C76.8116 19.5146 76.5217 18.6535 76.5217 17.5786V17.5024ZM78.0642 17.6357C78.0642 18.3424 78.2102 18.8968 78.5022 19.2988C78.7942 19.6966 79.2004 19.8955 79.7209 19.8955C80.2414 19.8955 80.6456 19.6924 80.9333 19.2861C81.2253 18.8799 81.3713 18.2853 81.3713 17.5024C81.3713 16.8084 81.2211 16.2583 80.9206 15.8521C80.6244 15.4458 80.2203 15.2427 79.7082 15.2427C79.2046 15.2427 78.8047 15.4437 78.5085 15.8457C78.2123 16.2435 78.0642 16.8402 78.0642 17.6357ZM86.1128 21H84.5703V14.1318H86.1128V21ZM84.4751 12.3481C84.4751 12.1112 84.5491 11.9144 84.6972 11.7578C84.8496 11.6012 85.0654 11.5229 85.3447 11.5229C85.624 11.5229 85.8398 11.6012 85.9921 11.7578C86.1445 11.9144 86.2207 12.1112 86.2207 12.3481C86.2207 12.5809 86.1445 12.7756 85.9921 12.9321C85.8398 13.0845 85.624 13.1606 85.3447 13.1606C85.0654 13.1606 84.8496 13.0845 84.6972 12.9321C84.5491 12.7756 84.4751 12.5809 84.4751 12.3481ZM90.8796 19.8955C91.2647 19.8955 91.5842 19.7834 91.8381 19.5591C92.092 19.3348 92.2274 19.0576 92.2443 18.7275H93.6979C93.681 19.1549 93.5477 19.5549 93.298 19.9272C93.0484 20.2954 92.7098 20.5874 92.2824 20.8032C91.855 21.019 91.3937 21.127 90.8986 21.127C89.938 21.127 89.1763 20.8159 88.6135 20.1938C88.0507 19.5718 87.7692 18.7127 87.7692 17.6167V17.458C87.7692 16.4128 88.0485 15.577 88.6071 14.9507C89.1657 14.3201 89.9274 14.0049 90.8923 14.0049C91.709 14.0049 92.3734 14.244 92.8854 14.7222C93.4017 15.1961 93.6726 15.8203 93.6979 16.5947H92.2443C92.2274 16.2012 92.092 15.8774 91.8381 15.6235C91.5884 15.3696 91.2689 15.2427 90.8796 15.2427C90.3802 15.2427 89.9951 15.4246 89.7243 15.7886C89.4535 16.1483 89.3159 16.6963 89.3117 17.4326V17.6802C89.3117 18.425 89.445 18.9814 89.7116 19.3496C89.9825 19.7135 90.3718 19.8955 90.8796 19.8955ZM98.1474 21.127C97.1699 21.127 96.3764 20.8201 95.767 20.2065C95.1619 19.5887 94.8593 18.7677 94.8593 17.7437V17.5532C94.8593 16.8677 94.9905 16.2562 95.2529 15.7188C95.5195 15.1771 95.8919 14.756 96.3701 14.4556C96.8483 14.1551 97.3815 14.0049 97.9697 14.0049C98.9049 14.0049 99.6264 14.3032 100.134 14.8999C100.646 15.4966 100.902 16.3408 100.902 17.4326V18.0547H96.4145C96.461 18.6217 96.6494 19.0703 96.9794 19.4004C97.3137 19.7305 97.7327 19.8955 98.2363 19.8955C98.943 19.8955 99.5185 19.6099 99.9628 19.0386L100.794 19.832C100.519 20.2425 100.151 20.562 99.6899 20.7905C99.2329 21.0148 98.7187 21.127 98.1474 21.127ZM97.9633 15.2427C97.5401 15.2427 97.1974 15.3908 96.935 15.687C96.6769 15.9832 96.5118 16.3958 96.4399 16.9248H99.3788V16.8105C99.345 16.2943 99.2075 15.9049 98.9663 15.6426C98.725 15.376 98.3907 15.2427 97.9633 15.2427ZM108.094 11.7578L110.76 18.8418L113.419 11.7578H115.495V21H113.895V17.9531L114.054 13.8779L111.325 21H110.176L107.453 13.8843L107.611 17.9531V21H106.012V11.7578H108.094ZM121.614 21C121.546 20.8688 121.487 20.6551 121.436 20.3589C120.945 20.8709 120.344 21.127 119.633 21.127C118.944 21.127 118.381 20.9302 117.945 20.5366C117.509 20.1431 117.291 19.6564 117.291 19.0767C117.291 18.3446 117.562 17.7839 118.104 17.3945C118.65 17.001 119.428 16.8042 120.44 16.8042H121.385V16.3535C121.385 15.998 121.286 15.7145 121.087 15.5029C120.888 15.2871 120.586 15.1792 120.179 15.1792C119.828 15.1792 119.54 15.2681 119.316 15.4458C119.092 15.6193 118.98 15.8415 118.98 16.1123H117.437C117.437 15.7357 117.562 15.3844 117.812 15.0586C118.061 14.7285 118.4 14.4704 118.827 14.2842C119.259 14.098 119.739 14.0049 120.268 14.0049C121.072 14.0049 121.713 14.208 122.192 14.6143C122.67 15.0163 122.915 15.5833 122.928 16.3154V19.4131C122.928 20.0309 123.015 20.5239 123.188 20.8921V21H121.614ZM119.919 19.8892C120.224 19.8892 120.509 19.8151 120.776 19.667C121.047 19.5189 121.25 19.32 121.385 19.0703V17.7754H120.554C119.983 17.7754 119.553 17.8748 119.265 18.0737C118.978 18.2726 118.834 18.554 118.834 18.918C118.834 19.2142 118.931 19.4512 119.126 19.6289C119.325 19.8024 119.589 19.8892 119.919 19.8892ZM127.035 18.0547L126.349 18.7593V21H124.807V11.25H126.349V16.874L126.831 16.271L128.729 14.1318H130.583L128.031 16.9946L130.856 21H129.072L127.035 18.0547ZM134.753 21.127C133.776 21.127 132.982 20.8201 132.373 20.2065C131.768 19.5887 131.465 18.7677 131.465 17.7437V17.5532C131.465 16.8677 131.596 16.2562 131.859 15.7188C132.125 15.1771 132.498 14.756 132.976 14.4556C133.454 14.1551 133.987 14.0049 134.575 14.0049C135.511 14.0049 136.232 14.3032 136.74 14.8999C137.252 15.4966 137.508 16.3408 137.508 17.4326V18.0547H133.02C133.067 18.6217 133.255 19.0703 133.585 19.4004C133.919 19.7305 134.338 19.8955 134.842 19.8955C135.549 19.8955 136.124 19.6099 136.568 19.0386L137.4 19.832C137.125 20.2425 136.757 20.562 136.296 20.7905C135.839 21.0148 135.324 21.127 134.753 21.127ZM134.569 15.2427C134.146 15.2427 133.803 15.3908 133.541 15.687C133.283 15.9832 133.117 16.3958 133.046 16.9248H135.985V16.8105C135.951 16.2943 135.813 15.9049 135.572 15.6426C135.331 15.376 134.996 15.2427 134.569 15.2427ZM142.567 15.541C142.364 15.5072 142.154 15.4902 141.938 15.4902C141.232 15.4902 140.756 15.7611 140.51 16.3027V21H138.968V14.1318H140.44L140.478 14.8999C140.851 14.3032 141.367 14.0049 142.027 14.0049C142.247 14.0049 142.429 14.0345 142.573 14.0938L142.567 15.541Z" fill="black"/>
<path d="M60.0142 38H58.9829V30.1797H60.0142V38ZM62.909 32.1885L62.9412 32.9189C63.3852 32.3604 63.9653 32.0811 64.6814 32.0811C65.9096 32.0811 66.5291 32.7739 66.5398 34.1597V38H65.5462V34.1543C65.5426 33.7354 65.4459 33.4256 65.2561 33.2251C65.0699 33.0246 64.7781 32.9243 64.3806 32.9243C64.0584 32.9243 63.7755 33.0103 63.532 33.1821C63.2885 33.354 63.0987 33.5796 62.9627 33.8589V38H61.969V32.1885H62.909ZM70.1758 36.6519L71.6153 32.1885H72.6304L70.5464 38H69.7891L67.6837 32.1885H68.6988L70.1758 36.6519ZM73.4574 35.0405C73.4574 34.4712 73.5684 33.9591 73.7904 33.5044C74.016 33.0496 74.3275 32.6987 74.7249 32.4517C75.126 32.2046 75.5825 32.0811 76.0946 32.0811C76.8859 32.0811 77.5251 32.355 78.0121 32.9028C78.5026 33.4507 78.7479 34.1794 78.7479 35.0889V35.1587C78.7479 35.7244 78.6387 36.2329 78.4203 36.6841C78.2054 37.1317 77.8957 37.4808 77.4911 37.7314C77.09 37.9821 76.6281 38.1074 76.1053 38.1074C75.3176 38.1074 74.6784 37.8335 74.1878 37.2856C73.7009 36.7378 73.4574 36.0127 73.4574 35.1104V35.0405ZM74.4564 35.1587C74.4564 35.8032 74.605 36.3206 74.9022 36.7109C75.203 37.1012 75.604 37.2964 76.1053 37.2964C76.6102 37.2964 77.0112 37.0994 77.3084 36.7056C77.6056 36.3081 77.7542 35.7531 77.7542 35.0405C77.7542 34.4032 77.6021 33.8875 77.2977 33.4937C76.9969 33.0962 76.5959 32.8975 76.0946 32.8975C75.604 32.8975 75.2083 33.0926 74.9076 33.4829C74.6068 33.8732 74.4564 34.4318 74.4564 35.1587ZM81.2936 38H80.2999V32.1885H81.2936V38ZM80.2194 30.647C80.2194 30.4858 80.2677 30.3498 80.3644 30.2388C80.4646 30.1278 80.6114 30.0723 80.8048 30.0723C80.9982 30.0723 81.145 30.1278 81.2452 30.2388C81.3455 30.3498 81.3956 30.4858 81.3956 30.647C81.3956 30.8081 81.3455 30.9424 81.2452 31.0498C81.145 31.1572 80.9982 31.2109 80.8048 31.2109C80.6114 31.2109 80.4646 31.1572 80.3644 31.0498C80.2677 30.9424 80.2194 30.8081 80.2194 30.647ZM85.4398 37.2964C85.7943 37.2964 86.1041 37.189 86.369 36.9741C86.634 36.7593 86.7808 36.4907 86.8095 36.1685H87.7494C87.7315 36.5015 87.6169 36.8184 87.4057 37.1191C87.1944 37.4199 86.9115 37.6598 86.557 37.8389C86.2061 38.0179 85.8337 38.1074 85.4398 38.1074C84.6485 38.1074 84.0183 37.8442 83.5492 37.3179C83.0837 36.7879 82.851 36.0646 82.851 35.1479V34.9814C82.851 34.4157 82.9548 33.9126 83.1625 33.4722C83.3702 33.0317 83.6674 32.6898 84.0541 32.4463C84.4444 32.2028 84.9045 32.0811 85.4345 32.0811C86.0862 32.0811 86.6269 32.2762 87.0565 32.6665C87.4898 33.0568 87.7208 33.5635 87.7494 34.1865H86.8095C86.7808 33.8105 86.6376 33.5026 86.3798 33.2627C86.1256 33.0192 85.8104 32.8975 85.4345 32.8975C84.9296 32.8975 84.5375 33.0801 84.2582 33.4453C83.9825 33.807 83.8446 34.3315 83.8446 35.019V35.207C83.8446 35.8766 83.9825 36.3923 84.2582 36.7539C84.5339 37.1156 84.9278 37.2964 85.4398 37.2964ZM91.4982 38.1074C90.7105 38.1074 90.0695 37.8496 89.5754 37.334C89.0812 36.8148 88.8342 36.1219 88.8342 35.2554V35.0728C88.8342 34.4963 88.9434 33.9824 89.1618 33.5312C89.3838 33.0765 89.6917 32.722 90.0856 32.4678C90.4831 32.21 90.9128 32.0811 91.3747 32.0811C92.1302 32.0811 92.7175 32.3299 93.1364 32.8276C93.5554 33.3254 93.7648 34.0379 93.7648 34.9653V35.3789H89.8278C89.8421 35.9518 90.0086 36.4155 90.3273 36.77C90.6496 37.1209 91.0578 37.2964 91.5519 37.2964C91.9028 37.2964 92.2 37.2248 92.4435 37.0815C92.687 36.9383 92.9001 36.7485 93.0827 36.5122L93.6896 36.9849C93.2026 37.7332 92.4722 38.1074 91.4982 38.1074ZM91.3747 32.8975C90.9736 32.8975 90.6371 33.0443 90.3649 33.3379C90.0928 33.6279 89.9245 34.0361 89.86 34.5625H92.7712V34.4873C92.7425 33.9824 92.6065 33.5921 92.363 33.3164C92.1195 33.0371 91.7901 32.8975 91.3747 32.8975ZM99.9895 36.5444L101.343 32.1885H102.406L100.07 38.897C99.7084 39.8638 99.1337 40.3472 98.3459 40.3472L98.1579 40.3311L97.7873 40.2612V39.4556L98.0559 39.4771C98.3925 39.4771 98.6539 39.409 98.8401 39.2729C99.0299 39.1369 99.1856 38.888 99.3074 38.5264L99.5276 37.9355L97.4543 32.1885H98.5393L99.9895 36.5444ZM103.169 35.0405C103.169 34.4712 103.28 33.9591 103.502 33.5044C103.728 33.0496 104.039 32.6987 104.437 32.4517C104.838 32.2046 105.294 32.0811 105.806 32.0811C106.598 32.0811 107.237 32.355 107.724 32.9028C108.214 33.4507 108.459 34.1794 108.459 35.0889V35.1587C108.459 35.7244 108.35 36.2329 108.132 36.6841C107.917 37.1317 107.607 37.4808 107.203 37.7314C106.802 37.9821 106.34 38.1074 105.817 38.1074C105.029 38.1074 104.39 37.8335 103.899 37.2856C103.412 36.7378 103.169 36.0127 103.169 35.1104V35.0405ZM104.168 35.1587C104.168 35.8032 104.317 36.3206 104.614 36.7109C104.915 37.1012 105.316 37.2964 105.817 37.2964C106.322 37.2964 106.723 37.0994 107.02 36.7056C107.317 36.3081 107.466 35.7531 107.466 35.0405C107.466 34.4032 107.314 33.8875 107.009 33.4937C106.709 33.0962 106.307 32.8975 105.806 32.8975C105.316 32.8975 104.92 33.0926 104.619 33.4829C104.318 33.8732 104.168 34.4318 104.168 35.1587ZM113.513 37.4253C113.127 37.88 112.559 38.1074 111.811 38.1074C111.191 38.1074 110.719 37.9284 110.393 37.5703C110.071 37.2087 109.908 36.6751 109.904 35.9697V32.1885H110.898V35.9429C110.898 36.8237 111.256 37.2642 111.972 37.2642C112.731 37.2642 113.236 36.9813 113.487 36.4155V32.1885H114.48V38H113.535L113.513 37.4253ZM119.024 33.0801C118.874 33.055 118.711 33.0425 118.535 33.0425C117.884 33.0425 117.441 33.32 117.209 33.875V38H116.215V32.1885H117.182L117.198 32.8599C117.524 32.3407 117.986 32.0811 118.584 32.0811C118.777 32.0811 118.924 32.1061 119.024 32.1562V33.0801ZM125.442 37.2964C125.797 37.2964 126.106 37.189 126.371 36.9741C126.636 36.7593 126.783 36.4907 126.812 36.1685H127.752C127.734 36.5015 127.619 36.8184 127.408 37.1191C127.197 37.4199 126.914 37.6598 126.559 37.8389C126.208 38.0179 125.836 38.1074 125.442 38.1074C124.651 38.1074 124.02 37.8442 123.551 37.3179C123.086 36.7879 122.853 36.0646 122.853 35.1479V34.9814C122.853 34.4157 122.957 33.9126 123.165 33.4722C123.372 33.0317 123.67 32.6898 124.056 32.4463C124.447 32.2028 124.907 32.0811 125.437 32.0811C126.088 32.0811 126.629 32.2762 127.059 32.6665C127.492 33.0568 127.723 33.5635 127.752 34.1865H126.812C126.783 33.8105 126.64 33.5026 126.382 33.2627C126.128 33.0192 125.813 32.8975 125.437 32.8975C124.932 32.8975 124.54 33.0801 124.26 33.4453C123.985 33.807 123.847 34.3315 123.847 35.019V35.207C123.847 35.8766 123.985 36.3923 124.26 36.7539C124.536 37.1156 124.93 37.2964 125.442 37.2964ZM132.677 37.4253C132.29 37.88 131.722 38.1074 130.974 38.1074C130.355 38.1074 129.882 37.9284 129.556 37.5703C129.234 37.2087 129.071 36.6751 129.067 35.9697V32.1885H130.061V35.9429C130.061 36.8237 130.419 37.2642 131.135 37.2642C131.894 37.2642 132.399 36.9813 132.65 36.4155V32.1885H133.643V38H132.698L132.677 37.4253ZM138.762 36.4585C138.762 36.1899 138.66 35.9823 138.456 35.8354C138.255 35.6851 137.903 35.5562 137.398 35.4487C136.896 35.3413 136.497 35.2124 136.2 35.062C135.906 34.9116 135.688 34.7326 135.545 34.5249C135.405 34.3172 135.335 34.0701 135.335 33.7837C135.335 33.3075 135.536 32.9046 135.937 32.5752C136.341 32.2458 136.857 32.0811 137.484 32.0811C138.142 32.0811 138.676 32.2511 139.084 32.5913C139.496 32.9315 139.702 33.3665 139.702 33.8965H138.703C138.703 33.6243 138.586 33.3898 138.354 33.1929C138.125 32.9959 137.835 32.8975 137.484 32.8975C137.122 32.8975 136.839 32.9762 136.635 33.1338C136.431 33.2913 136.329 33.4972 136.329 33.7515C136.329 33.9914 136.424 34.1722 136.613 34.2939C136.803 34.4157 137.145 34.5321 137.639 34.6431C138.137 34.7541 138.54 34.8866 138.848 35.0405C139.156 35.1945 139.383 35.3807 139.53 35.5991C139.68 35.814 139.756 36.0771 139.756 36.3887C139.756 36.9079 139.548 37.325 139.133 37.6401C138.717 37.9517 138.178 38.1074 137.516 38.1074C137.05 38.1074 136.639 38.0251 136.28 37.8604C135.922 37.6956 135.641 37.4665 135.437 37.1729C135.237 36.8757 135.136 36.5552 135.136 36.2114H136.13C136.148 36.5444 136.28 36.8094 136.528 37.0063C136.778 37.1997 137.108 37.2964 137.516 37.2964C137.892 37.2964 138.193 37.2212 138.418 37.0708C138.647 36.9168 138.762 36.7127 138.762 36.4585ZM142.618 30.7812V32.1885H143.703V32.9565H142.618V36.5605C142.618 36.7933 142.666 36.9688 142.763 37.0869C142.86 37.2015 143.025 37.2588 143.257 37.2588C143.372 37.2588 143.529 37.2373 143.73 37.1943V38C143.469 38.0716 143.214 38.1074 142.967 38.1074C142.523 38.1074 142.188 37.9731 141.963 37.7046C141.737 37.436 141.624 37.0547 141.624 36.5605V32.9565H140.566V32.1885H141.624V30.7812H142.618ZM144.718 35.0405C144.718 34.4712 144.829 33.9591 145.051 33.5044C145.277 33.0496 145.588 32.6987 145.986 32.4517C146.387 32.2046 146.843 32.0811 147.355 32.0811C148.147 32.0811 148.786 32.355 149.273 32.9028C149.763 33.4507 150.009 34.1794 150.009 35.0889V35.1587C150.009 35.7244 149.899 36.2329 149.681 36.6841C149.466 37.1317 149.156 37.4808 148.752 37.7314C148.351 37.9821 147.889 38.1074 147.366 38.1074C146.578 38.1074 145.939 37.8335 145.448 37.2856C144.962 36.7378 144.718 36.0127 144.718 35.1104V35.0405ZM145.717 35.1587C145.717 35.8032 145.866 36.3206 146.163 36.7109C146.464 37.1012 146.865 37.2964 147.366 37.2964C147.871 37.2964 148.272 37.0994 148.569 36.7056C148.866 36.3081 149.015 35.7531 149.015 35.0405C149.015 34.4032 148.863 33.8875 148.558 33.4937C148.258 33.0962 147.857 32.8975 147.355 32.8975C146.865 32.8975 146.469 33.0926 146.168 33.4829C145.867 33.8732 145.717 34.4318 145.717 35.1587ZM152.409 32.1885L152.436 32.833C152.862 32.3317 153.437 32.0811 154.16 32.0811C154.973 32.0811 155.526 32.3926 155.82 33.0156C156.013 32.7363 156.264 32.5107 156.572 32.3389C156.883 32.167 157.25 32.0811 157.673 32.0811C158.948 32.0811 159.596 32.756 159.617 34.106V38H158.624V34.165C158.624 33.7497 158.529 33.4399 158.339 33.2358C158.149 33.0282 157.83 32.9243 157.383 32.9243C157.014 32.9243 156.708 33.0353 156.464 33.2573C156.221 33.4757 156.079 33.7712 156.04 34.1436V38H155.041V34.1919C155.041 33.3468 154.627 32.9243 153.8 32.9243C153.149 32.9243 152.703 33.2018 152.463 33.7568V38H151.469V32.1885H152.409ZM163.753 38.1074C162.965 38.1074 162.324 37.8496 161.83 37.334C161.336 36.8148 161.089 36.1219 161.089 35.2554V35.0728C161.089 34.4963 161.198 33.9824 161.416 33.5312C161.638 33.0765 161.946 32.722 162.34 32.4678C162.738 32.21 163.167 32.0811 163.629 32.0811C164.385 32.0811 164.972 32.3299 165.391 32.8276C165.81 33.3254 166.019 34.0379 166.019 34.9653V35.3789H162.082C162.097 35.9518 162.263 36.4155 162.582 36.77C162.904 37.1209 163.312 37.2964 163.806 37.2964C164.157 37.2964 164.455 37.2248 164.698 37.0815C164.942 36.9383 165.155 36.7485 165.337 36.5122L165.944 36.9849C165.457 37.7332 164.727 38.1074 163.753 38.1074ZM163.629 32.8975C163.228 32.8975 162.892 33.0443 162.619 33.3379C162.347 33.6279 162.179 34.0361 162.115 34.5625H165.026V34.4873C164.997 33.9824 164.861 33.5921 164.618 33.3164C164.374 33.0371 164.045 32.8975 163.629 32.8975ZM170.203 33.0801C170.053 33.055 169.89 33.0425 169.714 33.0425C169.063 33.0425 168.621 33.32 168.388 33.875V38H167.394V32.1885H168.361L168.377 32.8599C168.703 32.3407 169.165 32.0811 169.763 32.0811C169.956 32.0811 170.103 32.1061 170.203 32.1562V33.0801ZM174.725 36.4585C174.725 36.1899 174.623 35.9823 174.419 35.8354C174.219 35.6851 173.866 35.5562 173.361 35.4487C172.86 35.3413 172.461 35.2124 172.163 35.062C171.87 34.9116 171.651 34.7326 171.508 34.5249C171.369 34.3172 171.299 34.0701 171.299 33.7837C171.299 33.3075 171.499 32.9046 171.9 32.5752C172.305 32.2458 172.821 32.0811 173.447 32.0811C174.106 32.0811 174.64 32.2511 175.048 32.5913C175.46 32.9315 175.665 33.3665 175.665 33.8965H174.666C174.666 33.6243 174.55 33.3898 174.317 33.1929C174.088 32.9959 173.798 32.8975 173.447 32.8975C173.085 32.8975 172.803 32.9762 172.599 33.1338C172.394 33.2913 172.292 33.4972 172.292 33.7515C172.292 33.9914 172.387 34.1722 172.577 34.2939C172.767 34.4157 173.109 34.5321 173.603 34.6431C174.101 34.7541 174.503 34.8866 174.811 35.0405C175.119 35.1945 175.347 35.3807 175.494 35.5991C175.644 35.814 175.719 36.0771 175.719 36.3887C175.719 36.9079 175.511 37.325 175.096 37.6401C174.681 37.9517 174.142 38.1074 173.479 38.1074C173.014 38.1074 172.602 38.0251 172.244 37.8604C171.886 37.6956 171.605 37.4665 171.401 37.1729C171.2 36.8757 171.1 36.5552 171.1 36.2114H172.094C172.112 36.5444 172.244 36.8094 172.491 37.0063C172.742 37.1997 173.071 37.2964 173.479 37.2964C173.855 37.2964 174.156 37.2212 174.382 37.0708C174.611 36.9168 174.725 36.7127 174.725 36.4585Z" fill="black"/>
<path d="M48 24C48 10.7452 37.2548 0 24 0C10.7452 0 0 10.7452 0 24C0 37.2548 10.7452 48 24 48C37.2548 48 48 37.2548 48 24Z" fill="#007AFF"/>
<path d="M35.2719 38.7119H15.8691V34.6445H38.4564C38.5657 34.6445 38.6494 34.7439 38.6315 34.8517C37.9894 38.7119 35.2719 38.7119 35.2719 38.7119Z" fill="#AFCDFB"/>
<path d="M35.2719 38.7119H15.8691V34.6445H38.4564C38.5657 34.6445 38.6494 34.7439 38.6315 34.8517C37.9894 38.7119 35.2719 38.7119 35.2719 38.7119Z" fill="url(#paint0_linear)"/>
<g opacity="0.6">
<path opacity="0.6" d="M38.2206 14.2769H16.0431C15.9767 14.2769 15.916 14.316 15.8848 14.3746C10.0685 25.2901 10.0908 26.2656 10.0908 26.2656L31.056 31.8883C31.056 31.8883 31.6641 24.3674 38.3639 14.5623C38.4457 14.4426 38.3655 14.2769 38.2206 14.2769Z" fill="#F8FBFF"/>
<path opacity="0.6" d="M38.2206 14.2769H16.0431C15.9767 14.2769 15.916 14.316 15.8848 14.3746C10.0685 25.2901 10.0908 26.2656 10.0908 26.2656L31.056 31.8883C31.056 31.8883 31.6641 24.3674 38.3639 14.5623C38.4457 14.4426 38.3655 14.2769 38.2206 14.2769Z" fill="url(#paint1_linear)"/>
<path opacity="0.6" d="M28.2815 16.0902C28.243 16.3054 28.0372 16.4495 27.8218 16.4121L19.4729 14.961C19.2576 14.9235 19.1142 14.7188 19.1527 14.5036C19.1912 14.2884 19.3969 14.1443 19.6123 14.1817L27.9612 15.6328C28.1766 15.6703 28.32 15.875 28.2815 16.0902Z" fill="black"/>
<path opacity="0.6" d="M30.3472 17.8696C30.3087 18.0857 30.1022 18.2302 29.8861 18.1925L16.9207 15.9309C16.7045 15.8932 16.5605 15.6875 16.599 15.4715C16.6375 15.2555 16.844 15.1109 17.0601 15.1486L30.0255 17.4103C30.2417 17.448 30.3857 17.6536 30.3472 17.8696Z" fill="black"/>
<path opacity="0.6" d="M29.3887 21.0065L15.4274 18.5447C15.3199 18.5258 15.2477 18.4217 15.2667 18.3139C15.2858 18.2057 15.3891 18.1329 15.4967 18.1519L29.458 20.6136C29.5656 20.6326 29.6377 20.7367 29.6187 20.8445C29.5999 20.9527 29.4963 21.0255 29.3887 21.0065Z" fill="black"/>
<path opacity="0.6" d="M29.25 21.8333L15.2887 19.3715C15.1811 19.3525 15.109 19.2485 15.128 19.1406C15.1471 19.0325 15.2504 18.9597 15.358 18.9786L29.3193 21.4404C29.4268 21.4593 29.499 21.5634 29.48 21.6713C29.4612 21.7795 29.3576 21.8522 29.25 21.8333Z" fill="black"/>
<path opacity="0.6" d="M15.1354 20.2436L23.7336 21.7597C23.8411 21.7786 23.9448 21.7059 23.9635 21.5977C23.9826 21.4895 23.9104 21.3857 23.8028 21.3668L15.2046 19.8507C15.0971 19.8317 14.9938 19.9045 14.9747 20.0127C14.9556 20.1208 15.0278 20.2246 15.1354 20.2436Z" fill="black"/>
</g>
<g opacity="0.6">
<path opacity="0.6" d="M36.7152 12.4844H14.4798C14.4032 12.4844 14.3365 12.5353 14.3116 12.6078C10.2835 24.3057 10.7943 28.7737 10.7943 28.7737L31.2839 29.456C31.2839 29.456 32.4046 21.0308 36.8693 12.7519C36.9342 12.6317 36.8517 12.4844 36.7152 12.4844Z" fill="#F8FBFF"/>
<path opacity="0.6" d="M36.7152 12.4844H14.4798C14.4032 12.4844 14.3365 12.5353 14.3116 12.6078C10.2835 24.3057 10.7943 28.7737 10.7943 28.7737L31.2839 29.456C31.2839 29.456 32.4046 21.0308 36.8693 12.7519C36.9342 12.6317 36.8517 12.4844 36.7152 12.4844Z" fill="url(#paint2_linear)"/>
<path opacity="0.6" d="M27.7742 14.7952C27.7548 15.0115 27.5637 15.1718 27.3474 15.1533L18.8934 14.4309C18.6771 14.4124 18.5174 14.2222 18.5368 14.006C18.5562 13.7897 18.7472 13.6294 18.9635 13.6479L27.4176 14.3703C27.6339 14.3887 27.7935 14.579 27.7742 14.7952Z" fill="black"/>
<path opacity="0.6" d="M29.987 16.3884C29.9676 16.6056 29.7757 16.7667 29.5583 16.748L16.4353 15.6213C16.2179 15.6027 16.0575 15.4114 16.0768 15.1941C16.0962 14.9768 16.2881 14.8158 16.5054 14.8345L29.6285 15.9611C29.8458 15.9798 30.0063 16.1711 29.987 16.3884Z" fill="black"/>
<path opacity="0.6" d="M29.3037 19.5957L15.181 18.3602C15.0722 18.3506 14.9912 18.2533 15.0008 18.1442C15.0103 18.0347 15.1069 17.9532 15.2157 17.9627L29.3385 19.1983C29.4473 19.2078 29.5282 19.3052 29.5187 19.4143C29.5094 19.5238 29.4125 19.6053 29.3037 19.5957Z" fill="black"/>
<path opacity="0.6" d="M29.2383 20.4311L15.1155 19.1955C15.0067 19.186 14.9258 19.0886 14.9353 18.9795C14.9449 18.8701 15.0415 18.7886 15.1503 18.7981L29.273 20.0337C29.3818 20.0432 29.4628 20.1406 29.4532 20.2497C29.444 20.3591 29.3471 20.4406 29.2383 20.4311Z" fill="black"/>
<path opacity="0.6" d="M15.0384 20.0775L23.736 20.8384C23.8448 20.8479 23.9417 20.7664 23.951 20.657C23.9605 20.5476 23.8796 20.4505 23.7708 20.441L15.0731 19.68C14.9643 19.6705 14.8677 19.752 14.8582 19.8615C14.8486 19.9709 14.9296 20.0679 15.0384 20.0775Z" fill="black"/>
</g>
<path d="M35.196 10.5689C35.3283 10.5689 35.4142 10.7082 35.358 10.8279C30.5569 21.0456 31.2404 31.3844 31.2404 31.3844H31.2398C30.953 34.133 32.2696 38.3382 35.2865 38.7286H16.4503C11.5068 38.7286 9.47592 35.1941 9.47499 31.3847C9.47526 31.3844 9.47526 31.3844 9.47526 31.3844H9.47592C9.47592 31.3844 8.78538 20.8514 13.6711 10.6462C13.7009 10.584 13.7651 10.5439 13.834 10.5439C23.0847 10.5441 29.4599 10.5681 35.196 10.5689Z" fill="url(#paint3_radial)"/>
<path d="M21.2641 13.168H15.9619C15.5714 13.168 15.2549 13.4845 15.2549 13.8749C15.2549 14.2654 15.5714 14.5819 15.9619 14.5819H21.2641C21.6546 14.5819 21.9711 14.2654 21.9711 13.8749C21.9711 13.4845 21.6546 13.168 21.2641 13.168Z" fill="#C3D1E6"/>
<path d="M18.5776 26.9541H13.2753C12.8849 26.9541 12.5684 27.2706 12.5684 27.6611C12.5684 28.0515 12.8849 28.368 13.2753 28.368H18.5776C18.968 28.368 19.2845 28.0515 19.2845 27.6611C19.2845 27.2706 18.968 26.9541 18.5776 26.9541Z" fill="#CFDBEC"/>
<path d="M28.7933 20.5913H13.8056C13.4152 20.5913 13.0986 20.9078 13.0986 21.2983C13.0986 21.6887 13.4152 22.0052 13.8056 22.0052H28.7933C29.1837 22.0052 29.5002 21.6887 29.5002 21.2983C29.5002 20.9078 29.1837 20.5913 28.7933 20.5913Z" fill="#CFDBEC"/>
<path d="M28.263 23.7725H13.2753C12.8849 23.7725 12.5684 24.089 12.5684 24.4794C12.5684 24.8699 12.8849 25.1864 13.2753 25.1864H28.263C28.6534 25.1864 28.97 24.8699 28.97 24.4794C28.97 24.089 28.6534 23.7725 28.263 23.7725Z" fill="#CFDBEC"/>
<path d="M22.077 16.3496H14.9013C14.5109 16.3496 14.1943 16.6661 14.1943 17.0566C14.1943 17.447 14.5109 17.7635 14.9013 17.7635H22.077C22.4675 17.7635 22.784 17.447 22.784 17.0566C22.784 16.6661 22.4675 16.3496 22.077 16.3496Z" fill="#CFDBEC"/>
<path fill-rule="evenodd" clip-rule="evenodd" d="M27.5644 33.0793C26.9399 34.0647 25.8396 34.7189 24.5865 34.7189C23.9953 34.7189 23.4382 34.5733 22.9489 34.316L22.0117 34.5671C22.7257 35.1132 23.6182 35.4377 24.5865 35.4377C26.3509 35.4377 27.8637 34.3604 28.5031 32.8277L27.5644 33.0793ZM22.4628 34.0071C21.6127 33.3639 21.0635 32.344 21.0635 31.1959C21.0635 30.7488 21.1468 30.3211 21.2987 29.9276L20.4751 30.1483C20.39 30.4833 20.3447 30.8343 20.3447 31.1959C20.3447 32.3859 20.8348 33.4615 21.6241 34.2318L22.4628 34.0071ZM20.6282 29.6681C21.2414 28.0803 22.7824 26.9541 24.5865 26.9541C25.5951 26.9541 26.5215 27.3061 27.2495 27.8939L26.3378 28.1382C25.8219 27.8421 25.224 27.6728 24.5865 27.6728C23.287 27.6728 22.1518 28.3764 21.5411 29.4235L20.6282 29.6681ZM26.7988 28.4538C27.5983 29.0997 28.1096 30.0881 28.1096 31.1959C28.1096 31.6827 28.0108 32.1466 27.8322 32.5684L28.6712 32.3435C28.7736 31.9785 28.8283 31.5936 28.8283 31.1959C28.8283 30.0431 28.3685 28.9977 27.6222 28.2332L26.7988 28.4538Z" fill="#F23333"/>
<path d="M19.3649 31.6165C19.2624 31.234 19.2112 31.0428 19.2465 30.8768C19.2775 30.7308 19.354 30.5983 19.4649 30.4984C19.5911 30.3848 19.7823 30.3336 20.1647 30.2311L27.9514 28.1447C28.3339 28.0422 28.5251 27.991 28.6911 28.0263C28.8371 28.0573 28.9696 28.1338 29.0695 28.2447C29.1831 28.3708 29.2343 28.5621 29.3368 28.9445L29.8491 30.8566C29.9516 31.239 30.0028 31.4302 29.9675 31.5963C29.9365 31.7423 29.86 31.8748 29.7491 31.9747C29.6229 32.0882 29.4317 32.1395 29.0493 32.2419L21.2626 34.3284C20.8801 34.4309 20.6889 34.4821 20.5229 34.4468C20.3769 34.4158 20.2444 34.3393 20.1445 34.2283C20.0309 34.1022 19.9797 33.911 19.8772 33.5285L19.3649 31.6165Z" fill="#F23333"/>
<path d="M22.0735 30.8851L21.1582 31.1303L21.707 33.1785L22.2982 33.0201L22.1438 32.4439L22.4604 32.3591C22.966 32.2236 23.1229 31.8245 23.0163 31.4269C22.9118 31.0368 22.5791 30.7496 22.0735 30.8851ZM22.4176 31.5873C22.4711 31.7869 22.3735 31.9208 22.1815 31.9722L22.0254 32.0141L21.8646 31.4139L22.0356 31.368C22.2187 31.319 22.3654 31.3923 22.4176 31.5873Z" fill="white"/>
<path d="M23.9334 32.5819L23.9272 32.1446L24.5063 31.9894L24.7166 32.3721L25.3498 32.2024L24.1738 30.3223L23.4296 30.5217L23.3467 32.7391L23.9334 32.5819ZM23.9296 30.9233L24.2962 31.5954L23.9151 31.6975L23.9011 30.9309L23.9296 30.9233Z" fill="white"/>
<path d="M26.1259 31.9944L25.5771 29.9463L24.9844 30.1051L25.5332 32.1533L26.1259 31.9944Z" fill="white"/>
<path d="M25.9385 29.8493L26.4873 31.8975L27.353 31.6655C28.0012 31.4918 28.1807 31.0031 28.0134 30.3789C27.8486 29.7637 27.463 29.4408 26.8042 29.6173L25.9385 29.8493ZM26.6542 30.1497L26.8222 30.1046C27.1854 30.0073 27.3314 30.2641 27.4102 30.5582C27.542 31.0504 27.3561 31.1726 27.125 31.2345L26.9569 31.2795L26.6542 30.1497Z" fill="white"/>
<defs>
<linearGradient id="paint0_linear" x1="32.4448" y1="37.309" x2="37.5418" y2="37.309" gradientUnits="userSpaceOnUse">
<stop stop-color="#9DC4FE"/>
<stop offset="1" stop-color="#CEDFFF"/>
</linearGradient>
<linearGradient id="paint1_linear" x1="17.4773" y1="18.141" x2="30.097" y2="22.4863" gradientUnits="userSpaceOnUse">
<stop stop-color="#EFDAD5"/>
<stop offset="0.470672" stop-color="#DEF1D6"/>
<stop offset="1" stop-color="#C5E8F0"/>
</linearGradient>
<linearGradient id="paint2_linear" x1="12.1111" y1="18.9928" x2="32.8937" y2="22.6574" gradientUnits="userSpaceOnUse">
<stop stop-color="white"/>
<stop offset="1" stop-color="#96CDFF"/>
</linearGradient>
<radialGradient id="paint3_radial" cx="0" cy="0" r="1" gradientUnits="userSpaceOnUse" gradientTransform="translate(24.1101 6.5578) rotate(90) scale(33.3335 67.1486)">
<stop stop-color="white"/>
<stop offset="0.862545" stop-color="white"/>
<stop offset="0.895833" stop-color="#E2F0FF"/>
<stop offset="0.942708" stop-color="#ADD3FF"/>
<stop offset="1" stop-color="#61A9FE"/>
</radialGradient>
</defs>
</svg>
