<svg width="180" height="50" viewBox="0 0 180 50" fill="none" xmlns="http://www.w3.org/2000/svg">
<rect width="50" height="50" rx="12" fill="#007AFF"/>
<path d="M59.6343 23H58.0347V13.7578H59.6343V23ZM63.1506 16.1318L63.1951 16.9253C63.7029 16.3117 64.3694 16.0049 65.1946 16.0049C66.6249 16.0049 67.3528 16.8237 67.3782 18.4614V23H65.8357V18.5503C65.8357 18.1144 65.7405 17.7928 65.55 17.5854C65.3638 17.3739 65.057 17.2681 64.6296 17.2681C64.0076 17.2681 63.5442 17.5495 63.2395 18.1123V23H61.697V16.1318H63.1506ZM71.6372 21.0449L73.0908 16.1318H74.6841L72.3037 23H70.9643L68.5649 16.1318H70.1645L71.6372 21.0449ZM75.5217 19.5024C75.5217 18.8296 75.655 18.2244 75.9216 17.687C76.1882 17.1453 76.5627 16.7306 77.0451 16.4429C77.5276 16.1509 78.0819 16.0049 78.7082 16.0049C79.635 16.0049 80.3861 16.3032 80.9616 16.8999C81.5414 17.4966 81.8545 18.2879 81.9011 19.2739L81.9074 19.6357C81.9074 20.3128 81.7763 20.918 81.5139 21.4512C81.2557 21.9844 80.8834 22.397 80.3967 22.689C79.9143 22.981 79.3557 23.127 78.7209 23.127C77.7518 23.127 76.9753 22.8053 76.3913 22.1621C75.8116 21.5146 75.5217 20.6535 75.5217 19.5786V19.5024ZM77.0642 19.6357C77.0642 20.3424 77.2102 20.8968 77.5022 21.2988C77.7942 21.6966 78.2004 21.8955 78.7209 21.8955C79.2414 21.8955 79.6456 21.6924 79.9333 21.2861C80.2253 20.8799 80.3713 20.2853 80.3713 19.5024C80.3713 18.8084 80.2211 18.2583 79.9206 17.8521C79.6244 17.4458 79.2203 17.2427 78.7082 17.2427C78.2046 17.2427 77.8047 17.4437 77.5085 17.8457C77.2123 18.2435 77.0642 18.8402 77.0642 19.6357ZM85.1128 23H83.5703V16.1318H85.1128V23ZM83.4751 14.3481C83.4751 14.1112 83.5491 13.9144 83.6972 13.7578C83.8496 13.6012 84.0654 13.5229 84.3447 13.5229C84.624 13.5229 84.8398 13.6012 84.9921 13.7578C85.1445 13.9144 85.2207 14.1112 85.2207 14.3481C85.2207 14.5809 85.1445 14.7756 84.9921 14.9321C84.8398 15.0845 84.624 15.1606 84.3447 15.1606C84.0654 15.1606 83.8496 15.0845 83.6972 14.9321C83.5491 14.7756 83.4751 14.5809 83.4751 14.3481ZM89.8796 21.8955C90.2647 21.8955 90.5842 21.7834 90.8381 21.5591C91.092 21.3348 91.2274 21.0576 91.2443 20.7275H92.6979C92.681 21.1549 92.5477 21.5549 92.298 21.9272C92.0484 22.2954 91.7098 22.5874 91.2824 22.8032C90.855 23.019 90.3937 23.127 89.8986 23.127C88.938 23.127 88.1763 22.8159 87.6135 22.1938C87.0507 21.5718 86.7692 20.7127 86.7692 19.6167V19.458C86.7692 18.4128 87.0485 17.577 87.6071 16.9507C88.1657 16.3201 88.9274 16.0049 89.8923 16.0049C90.709 16.0049 91.3734 16.244 91.8854 16.7222C92.4017 17.1961 92.6726 17.8203 92.6979 18.5947H91.2443C91.2274 18.2012 91.092 17.8774 90.8381 17.6235C90.5884 17.3696 90.2689 17.2427 89.8796 17.2427C89.3802 17.2427 88.9951 17.4246 88.7243 17.7886C88.4535 18.1483 88.3159 18.6963 88.3117 19.4326V19.6802C88.3117 20.425 88.445 20.9814 88.7116 21.3496C88.9825 21.7135 89.3718 21.8955 89.8796 21.8955ZM97.1474 23.127C96.1699 23.127 95.3764 22.8201 94.767 22.2065C94.1619 21.5887 93.8593 20.7677 93.8593 19.7437V19.5532C93.8593 18.8677 93.9905 18.2562 94.2529 17.7188C94.5195 17.1771 94.8919 16.756 95.3701 16.4556C95.8483 16.1551 96.3815 16.0049 96.9697 16.0049C97.9049 16.0049 98.6264 16.3032 99.1342 16.8999C99.6463 17.4966 99.9023 18.3408 99.9023 19.4326V20.0547H95.4145C95.461 20.6217 95.6494 21.0703 95.9794 21.4004C96.3137 21.7305 96.7327 21.8955 97.2363 21.8955C97.943 21.8955 98.5185 21.6099 98.9628 21.0386L99.7944 21.832C99.5193 22.2425 99.1511 22.562 98.6899 22.7905C98.2329 23.0148 97.7187 23.127 97.1474 23.127ZM96.9633 17.2427C96.5401 17.2427 96.1974 17.3908 95.935 17.687C95.6769 17.9832 95.5118 18.3958 95.4399 18.9248H98.3788V18.8105C98.345 18.2943 98.2075 17.9049 97.9663 17.6426C97.725 17.376 97.3907 17.2427 96.9633 17.2427ZM107.094 13.7578L109.76 20.8418L112.419 13.7578H114.495V23H112.895V19.9531L113.054 15.8779L110.325 23H109.176L106.453 15.8843L106.611 19.9531V23H105.012V13.7578H107.094ZM120.614 23C120.546 22.8688 120.487 22.6551 120.436 22.3589C119.945 22.8709 119.344 23.127 118.633 23.127C117.944 23.127 117.381 22.9302 116.945 22.5366C116.509 22.1431 116.291 21.6564 116.291 21.0767C116.291 20.3446 116.562 19.7839 117.104 19.3945C117.65 19.001 118.428 18.8042 119.44 18.8042H120.385V18.3535C120.385 17.998 120.286 17.7145 120.087 17.5029C119.888 17.2871 119.586 17.1792 119.179 17.1792C118.828 17.1792 118.54 17.2681 118.316 17.4458C118.092 17.6193 117.98 17.8415 117.98 18.1123H116.437C116.437 17.7357 116.562 17.3844 116.812 17.0586C117.061 16.7285 117.4 16.4704 117.827 16.2842C118.259 16.098 118.739 16.0049 119.268 16.0049C120.072 16.0049 120.713 16.208 121.192 16.6143C121.67 17.0163 121.915 17.5833 121.928 18.3154V21.4131C121.928 22.0309 122.015 22.5239 122.188 22.8921V23H120.614ZM118.919 21.8892C119.224 21.8892 119.509 21.8151 119.776 21.667C120.047 21.5189 120.25 21.32 120.385 21.0703V19.7754H119.554C118.983 19.7754 118.553 19.8748 118.265 20.0737C117.978 20.2726 117.834 20.554 117.834 20.918C117.834 21.2142 117.931 21.4512 118.126 21.6289C118.325 21.8024 118.589 21.8892 118.919 21.8892ZM126.035 20.0547L125.349 20.7593V23H123.807V13.25H125.349V18.874L125.831 18.271L127.729 16.1318H129.583L127.031 18.9946L129.856 23H128.072L126.035 20.0547ZM133.753 23.127C132.776 23.127 131.982 22.8201 131.373 22.2065C130.768 21.5887 130.465 20.7677 130.465 19.7437V19.5532C130.465 18.8677 130.596 18.2562 130.859 17.7188C131.125 17.1771 131.498 16.756 131.976 16.4556C132.454 16.1551 132.987 16.0049 133.575 16.0049C134.511 16.0049 135.232 16.3032 135.74 16.8999C136.252 17.4966 136.508 18.3408 136.508 19.4326V20.0547H132.02C132.067 20.6217 132.255 21.0703 132.585 21.4004C132.919 21.7305 133.338 21.8955 133.842 21.8955C134.549 21.8955 135.124 21.6099 135.568 21.0386L136.4 21.832C136.125 22.2425 135.757 22.562 135.296 22.7905C134.839 23.0148 134.324 23.127 133.753 23.127ZM133.569 17.2427C133.146 17.2427 132.803 17.3908 132.541 17.687C132.283 17.9832 132.117 18.3958 132.046 18.9248H134.985V18.8105C134.951 18.2943 134.813 17.9049 134.572 17.6426C134.331 17.376 133.996 17.2427 133.569 17.2427ZM141.567 17.541C141.364 17.5072 141.154 17.4902 140.938 17.4902C140.232 17.4902 139.756 17.7611 139.51 18.3027V23H137.968V16.1318H139.44L139.478 16.8999C139.851 16.3032 140.367 16.0049 141.027 16.0049C141.247 16.0049 141.429 16.0345 141.573 16.0938L141.567 17.541Z" fill="black"/>
<path d="M59.0142 40H57.9829V32.1797H59.0142V40ZM61.909 34.1885L61.9412 34.9189C62.3852 34.3604 62.9653 34.0811 63.6814 34.0811C64.9096 34.0811 65.5291 34.7739 65.5398 36.1597V40H64.5462V36.1543C64.5426 35.7354 64.4459 35.4256 64.2561 35.2251C64.0699 35.0246 63.7781 34.9243 63.3806 34.9243C63.0584 34.9243 62.7755 35.0103 62.532 35.1821C62.2885 35.354 62.0987 35.5796 61.9627 35.8589V40H60.969V34.1885H61.909ZM69.1758 38.6519L70.6153 34.1885H71.6304L69.5464 40H68.7891L66.6837 34.1885H67.6988L69.1758 38.6519ZM72.4574 37.0405C72.4574 36.4712 72.5684 35.9591 72.7904 35.5044C73.016 35.0496 73.3275 34.6987 73.7249 34.4517C74.126 34.2046 74.5825 34.0811 75.0946 34.0811C75.8859 34.0811 76.5251 34.355 77.0121 34.9028C77.5026 35.4507 77.7479 36.1794 77.7479 37.0889V37.1587C77.7479 37.7244 77.6387 38.2329 77.4203 38.6841C77.2054 39.1317 76.8957 39.4808 76.4911 39.7314C76.09 39.9821 75.6281 40.1074 75.1053 40.1074C74.3176 40.1074 73.6784 39.8335 73.1878 39.2856C72.7009 38.7378 72.4574 38.0127 72.4574 37.1104V37.0405ZM73.4564 37.1587C73.4564 37.8032 73.605 38.3206 73.9022 38.7109C74.203 39.1012 74.604 39.2964 75.1053 39.2964C75.6102 39.2964 76.0112 39.0994 76.3084 38.7056C76.6056 38.3081 76.7542 37.7531 76.7542 37.0405C76.7542 36.4032 76.6021 35.8875 76.2977 35.4937C75.9969 35.0962 75.5959 34.8975 75.0946 34.8975C74.604 34.8975 74.2083 35.0926 73.9076 35.4829C73.6068 35.8732 73.4564 36.4318 73.4564 37.1587ZM80.2936 40H79.2999V34.1885H80.2936V40ZM79.2194 32.647C79.2194 32.4858 79.2677 32.3498 79.3644 32.2388C79.4646 32.1278 79.6114 32.0723 79.8048 32.0723C79.9982 32.0723 80.145 32.1278 80.2452 32.2388C80.3455 32.3498 80.3956 32.4858 80.3956 32.647C80.3956 32.8081 80.3455 32.9424 80.2452 33.0498C80.145 33.1572 79.9982 33.2109 79.8048 33.2109C79.6114 33.2109 79.4646 33.1572 79.3644 33.0498C79.2677 32.9424 79.2194 32.8081 79.2194 32.647ZM84.4398 39.2964C84.7943 39.2964 85.1041 39.189 85.369 38.9741C85.634 38.7593 85.7808 38.4907 85.8095 38.1685H86.7494C86.7315 38.5015 86.6169 38.8184 86.4057 39.1191C86.1944 39.4199 85.9115 39.6598 85.557 39.8389C85.2061 40.0179 84.8337 40.1074 84.4398 40.1074C83.6485 40.1074 83.0183 39.8442 82.5492 39.3179C82.0837 38.7879 81.851 38.0646 81.851 37.1479V36.9814C81.851 36.4157 81.9548 35.9126 82.1625 35.4722C82.3702 35.0317 82.6674 34.6898 83.0541 34.4463C83.4444 34.2028 83.9045 34.0811 84.4345 34.0811C85.0862 34.0811 85.6269 34.2762 86.0565 34.6665C86.4898 35.0568 86.7208 35.5635 86.7494 36.1865H85.8095C85.7808 35.8105 85.6376 35.5026 85.3798 35.2627C85.1256 35.0192 84.8104 34.8975 84.4345 34.8975C83.9296 34.8975 83.5375 35.0801 83.2582 35.4453C82.9825 35.807 82.8446 36.3315 82.8446 37.019V37.207C82.8446 37.8766 82.9825 38.3923 83.2582 38.7539C83.5339 39.1156 83.9278 39.2964 84.4398 39.2964ZM90.4982 40.1074C89.7105 40.1074 89.0695 39.8496 88.5754 39.334C88.0812 38.8148 87.8342 38.1219 87.8342 37.2554V37.0728C87.8342 36.4963 87.9434 35.9824 88.1618 35.5312C88.3838 35.0765 88.6917 34.722 89.0856 34.4678C89.4831 34.21 89.9128 34.0811 90.3747 34.0811C91.1302 34.0811 91.7175 34.3299 92.1364 34.8276C92.5554 35.3254 92.7648 36.0379 92.7648 36.9653V37.3789H88.8278C88.8421 37.9518 89.0086 38.4155 89.3273 38.77C89.6496 39.1209 90.0578 39.2964 90.5519 39.2964C90.9028 39.2964 91.2 39.2248 91.4435 39.0815C91.687 38.9383 91.9001 38.7485 92.0827 38.5122L92.6896 38.9849C92.2026 39.7332 91.4722 40.1074 90.4982 40.1074ZM90.3747 34.8975C89.9736 34.8975 89.6371 35.0443 89.3649 35.3379C89.0928 35.6279 88.9245 36.0361 88.86 36.5625H91.7712V36.4873C91.7425 35.9824 91.6065 35.5921 91.363 35.3164C91.1195 35.0371 90.7901 34.8975 90.3747 34.8975ZM98.9895 38.5444L100.343 34.1885H101.406L99.0701 40.897C98.7084 41.8638 98.1337 42.3472 97.3459 42.3472L97.1579 42.3311L96.7873 42.2612V41.4556L97.0559 41.4771C97.3925 41.4771 97.6539 41.409 97.8401 41.2729C98.0299 41.1369 98.1856 40.888 98.3074 40.5264L98.5276 39.9355L96.4543 34.1885H97.5393L98.9895 38.5444ZM102.169 37.0405C102.169 36.4712 102.28 35.9591 102.502 35.5044C102.728 35.0496 103.039 34.6987 103.437 34.4517C103.838 34.2046 104.294 34.0811 104.806 34.0811C105.598 34.0811 106.237 34.355 106.724 34.9028C107.214 35.4507 107.459 36.1794 107.459 37.0889V37.1587C107.459 37.7244 107.35 38.2329 107.132 38.6841C106.917 39.1317 106.607 39.4808 106.203 39.7314C105.802 39.9821 105.34 40.1074 104.817 40.1074C104.029 40.1074 103.39 39.8335 102.899 39.2856C102.412 38.7378 102.169 38.0127 102.169 37.1104V37.0405ZM103.168 37.1587C103.168 37.8032 103.317 38.3206 103.614 38.7109C103.915 39.1012 104.316 39.2964 104.817 39.2964C105.322 39.2964 105.723 39.0994 106.02 38.7056C106.317 38.3081 106.466 37.7531 106.466 37.0405C106.466 36.4032 106.314 35.8875 106.009 35.4937C105.709 35.0962 105.307 34.8975 104.806 34.8975C104.316 34.8975 103.92 35.0926 103.619 35.4829C103.318 35.8732 103.168 36.4318 103.168 37.1587ZM112.513 39.4253C112.127 39.88 111.559 40.1074 110.811 40.1074C110.191 40.1074 109.719 39.9284 109.393 39.5703C109.071 39.2087 108.908 38.6751 108.904 37.9697V34.1885H109.898V37.9429C109.898 38.8237 110.256 39.2642 110.972 39.2642C111.731 39.2642 112.236 38.9813 112.487 38.4155V34.1885H113.48V40H112.535L112.513 39.4253ZM118.024 35.0801C117.874 35.055 117.711 35.0425 117.535 35.0425C116.884 35.0425 116.441 35.32 116.209 35.875V40H115.215V34.1885H116.182L116.198 34.8599C116.524 34.3407 116.986 34.0811 117.584 34.0811C117.777 34.0811 117.924 34.1061 118.024 34.1562V35.0801ZM124.442 39.2964C124.797 39.2964 125.106 39.189 125.371 38.9741C125.636 38.7593 125.783 38.4907 125.812 38.1685H126.752C126.734 38.5015 126.619 38.8184 126.408 39.1191C126.197 39.4199 125.914 39.6598 125.559 39.8389C125.208 40.0179 124.836 40.1074 124.442 40.1074C123.651 40.1074 123.02 39.8442 122.551 39.3179C122.086 38.7879 121.853 38.0646 121.853 37.1479V36.9814C121.853 36.4157 121.957 35.9126 122.165 35.4722C122.372 35.0317 122.67 34.6898 123.056 34.4463C123.447 34.2028 123.907 34.0811 124.437 34.0811C125.088 34.0811 125.629 34.2762 126.059 34.6665C126.492 35.0568 126.723 35.5635 126.752 36.1865H125.812C125.783 35.8105 125.64 35.5026 125.382 35.2627C125.128 35.0192 124.813 34.8975 124.437 34.8975C123.932 34.8975 123.54 35.0801 123.26 35.4453C122.985 35.807 122.847 36.3315 122.847 37.019V37.207C122.847 37.8766 122.985 38.3923 123.26 38.7539C123.536 39.1156 123.93 39.2964 124.442 39.2964ZM131.677 39.4253C131.29 39.88 130.722 40.1074 129.974 40.1074C129.355 40.1074 128.882 39.9284 128.556 39.5703C128.234 39.2087 128.071 38.6751 128.067 37.9697V34.1885H129.061V37.9429C129.061 38.8237 129.419 39.2642 130.135 39.2642C130.894 39.2642 131.399 38.9813 131.65 38.4155V34.1885H132.643V40H131.698L131.677 39.4253ZM137.762 38.4585C137.762 38.1899 137.66 37.9823 137.456 37.8354C137.255 37.6851 136.903 37.5562 136.398 37.4487C135.896 37.3413 135.497 37.2124 135.2 37.062C134.906 36.9116 134.688 36.7326 134.545 36.5249C134.405 36.3172 134.335 36.0701 134.335 35.7837C134.335 35.3075 134.536 34.9046 134.937 34.5752C135.341 34.2458 135.857 34.0811 136.484 34.0811C137.142 34.0811 137.676 34.2511 138.084 34.5913C138.496 34.9315 138.702 35.3665 138.702 35.8965H137.703C137.703 35.6243 137.586 35.3898 137.354 35.1929C137.125 34.9959 136.835 34.8975 136.484 34.8975C136.122 34.8975 135.839 34.9762 135.635 35.1338C135.431 35.2913 135.329 35.4972 135.329 35.7515C135.329 35.9914 135.424 36.1722 135.613 36.2939C135.803 36.4157 136.145 36.5321 136.639 36.6431C137.137 36.7541 137.54 36.8866 137.848 37.0405C138.156 37.1945 138.383 37.3807 138.53 37.5991C138.68 37.814 138.756 38.0771 138.756 38.3887C138.756 38.9079 138.548 39.325 138.133 39.6401C137.717 39.9517 137.178 40.1074 136.516 40.1074C136.05 40.1074 135.639 40.0251 135.28 39.8604C134.922 39.6956 134.641 39.4665 134.437 39.1729C134.237 38.8757 134.136 38.5552 134.136 38.2114H135.13C135.148 38.5444 135.28 38.8094 135.528 39.0063C135.778 39.1997 136.108 39.2964 136.516 39.2964C136.892 39.2964 137.193 39.2212 137.418 39.0708C137.647 38.9168 137.762 38.7127 137.762 38.4585ZM141.618 32.7812V34.1885H142.703V34.9565H141.618V38.5605C141.618 38.7933 141.666 38.9688 141.763 39.0869C141.86 39.2015 142.025 39.2588 142.257 39.2588C142.372 39.2588 142.529 39.2373 142.73 39.1943V40C142.469 40.0716 142.214 40.1074 141.967 40.1074C141.523 40.1074 141.188 39.9731 140.963 39.7046C140.737 39.436 140.624 39.0547 140.624 38.5605V34.9565H139.566V34.1885H140.624V32.7812H141.618ZM143.718 37.0405C143.718 36.4712 143.829 35.9591 144.051 35.5044C144.277 35.0496 144.588 34.6987 144.986 34.4517C145.387 34.2046 145.843 34.0811 146.355 34.0811C147.147 34.0811 147.786 34.355 148.273 34.9028C148.763 35.4507 149.009 36.1794 149.009 37.0889V37.1587C149.009 37.7244 148.899 38.2329 148.681 38.6841C148.466 39.1317 148.156 39.4808 147.752 39.7314C147.351 39.9821 146.889 40.1074 146.366 40.1074C145.578 40.1074 144.939 39.8335 144.448 39.2856C143.962 38.7378 143.718 38.0127 143.718 37.1104V37.0405ZM144.717 37.1587C144.717 37.8032 144.866 38.3206 145.163 38.7109C145.464 39.1012 145.865 39.2964 146.366 39.2964C146.871 39.2964 147.272 39.0994 147.569 38.7056C147.866 38.3081 148.015 37.7531 148.015 37.0405C148.015 36.4032 147.863 35.8875 147.558 35.4937C147.258 35.0962 146.857 34.8975 146.355 34.8975C145.865 34.8975 145.469 35.0926 145.168 35.4829C144.867 35.8732 144.717 36.4318 144.717 37.1587ZM151.409 34.1885L151.436 34.833C151.862 34.3317 152.437 34.0811 153.16 34.0811C153.973 34.0811 154.526 34.3926 154.82 35.0156C155.013 34.7363 155.264 34.5107 155.572 34.3389C155.883 34.167 156.25 34.0811 156.673 34.0811C157.948 34.0811 158.596 34.756 158.617 36.106V40H157.624V36.165C157.624 35.7497 157.529 35.4399 157.339 35.2358C157.149 35.0282 156.83 34.9243 156.383 34.9243C156.014 34.9243 155.708 35.0353 155.464 35.2573C155.221 35.4757 155.079 35.7712 155.04 36.1436V40H154.041V36.1919C154.041 35.3468 153.627 34.9243 152.8 34.9243C152.149 34.9243 151.703 35.2018 151.463 35.7568V40H150.469V34.1885H151.409ZM162.753 40.1074C161.965 40.1074 161.324 39.8496 160.83 39.334C160.336 38.8148 160.089 38.1219 160.089 37.2554V37.0728C160.089 36.4963 160.198 35.9824 160.416 35.5312C160.638 35.0765 160.946 34.722 161.34 34.4678C161.738 34.21 162.167 34.0811 162.629 34.0811C163.385 34.0811 163.972 34.3299 164.391 34.8276C164.81 35.3254 165.019 36.0379 165.019 36.9653V37.3789H161.082C161.097 37.9518 161.263 38.4155 161.582 38.77C161.904 39.1209 162.312 39.2964 162.806 39.2964C163.157 39.2964 163.455 39.2248 163.698 39.0815C163.942 38.9383 164.155 38.7485 164.337 38.5122L164.944 38.9849C164.457 39.7332 163.727 40.1074 162.753 40.1074ZM162.629 34.8975C162.228 34.8975 161.892 35.0443 161.619 35.3379C161.347 35.6279 161.179 36.0361 161.115 36.5625H164.026V36.4873C163.997 35.9824 163.861 35.5921 163.618 35.3164C163.374 35.0371 163.045 34.8975 162.629 34.8975ZM169.203 35.0801C169.053 35.055 168.89 35.0425 168.714 35.0425C168.063 35.0425 167.621 35.32 167.388 35.875V40H166.394V34.1885H167.361L167.377 34.8599C167.703 34.3407 168.165 34.0811 168.763 34.0811C168.956 34.0811 169.103 34.1061 169.203 34.1562V35.0801ZM173.725 38.4585C173.725 38.1899 173.623 37.9823 173.419 37.8354C173.219 37.6851 172.866 37.5562 172.361 37.4487C171.86 37.3413 171.461 37.2124 171.163 37.062C170.87 36.9116 170.651 36.7326 170.508 36.5249C170.369 36.3172 170.299 36.0701 170.299 35.7837C170.299 35.3075 170.499 34.9046 170.9 34.5752C171.305 34.2458 171.821 34.0811 172.447 34.0811C173.106 34.0811 173.64 34.2511 174.048 34.5913C174.46 34.9315 174.665 35.3665 174.665 35.8965H173.666C173.666 35.6243 173.55 35.3898 173.317 35.1929C173.088 34.9959 172.798 34.8975 172.447 34.8975C172.085 34.8975 171.803 34.9762 171.599 35.1338C171.394 35.2913 171.292 35.4972 171.292 35.7515C171.292 35.9914 171.387 36.1722 171.577 36.2939C171.767 36.4157 172.109 36.5321 172.603 36.6431C173.101 36.7541 173.503 36.8866 173.811 37.0405C174.119 37.1945 174.347 37.3807 174.494 37.5991C174.644 37.814 174.719 38.0771 174.719 38.3887C174.719 38.9079 174.511 39.325 174.096 39.6401C173.681 39.9517 173.142 40.1074 172.479 40.1074C172.014 40.1074 171.602 40.0251 171.244 39.8604C170.886 39.6956 170.605 39.4665 170.401 39.1729C170.2 38.8757 170.1 38.5552 170.1 38.2114H171.094C171.112 38.5444 171.244 38.8094 171.491 39.0063C171.742 39.1997 172.071 39.2964 172.479 39.2964C172.855 39.2964 173.156 39.2212 173.382 39.0708C173.611 38.9168 173.725 38.7127 173.725 38.4585Z" fill="black"/>
<path d="M36.2719 40.7119H16.8691V36.6445H39.4564C39.5657 36.6445 39.6494 36.7439 39.6315 36.8517C38.9894 40.7119 36.2719 40.7119 36.2719 40.7119Z" fill="#AFCDFB"/>
<path d="M36.2719 40.7119H16.8691V36.6445H39.4564C39.5657 36.6445 39.6494 36.7439 39.6315 36.8517C38.9894 40.7119 36.2719 40.7119 36.2719 40.7119Z" fill="url(#paint0_linear)"/>
<g opacity="0.6">
<path opacity="0.6" d="M39.2206 16.2769H17.0431C16.9767 16.2769 16.916 16.316 16.8848 16.3746C11.0685 27.2901 11.0908 28.2656 11.0908 28.2656L32.056 33.8883C32.056 33.8883 32.6641 26.3674 39.3639 16.5623C39.4457 16.4426 39.3655 16.2769 39.2206 16.2769Z" fill="#F8FBFF"/>
<path opacity="0.6" d="M39.2206 16.2769H17.0431C16.9767 16.2769 16.916 16.316 16.8848 16.3746C11.0685 27.2901 11.0908 28.2656 11.0908 28.2656L32.056 33.8883C32.056 33.8883 32.6641 26.3674 39.3639 16.5623C39.4457 16.4426 39.3655 16.2769 39.2206 16.2769Z" fill="url(#paint1_linear)"/>
<path opacity="0.6" d="M29.2815 18.0902C29.243 18.3054 29.0372 18.4495 28.8218 18.4121L20.4729 16.961C20.2576 16.9235 20.1142 16.7188 20.1527 16.5036C20.1912 16.2884 20.3969 16.1443 20.6123 16.1817L28.9612 17.6328C29.1766 17.6703 29.32 17.875 29.2815 18.0902Z" fill="black"/>
<path opacity="0.6" d="M31.3472 19.8696C31.3087 20.0857 31.1022 20.2302 30.8861 20.1925L17.9207 17.9309C17.7045 17.8932 17.5605 17.6875 17.599 17.4715C17.6375 17.2555 17.844 17.1109 18.0601 17.1486L31.0255 19.4103C31.2417 19.448 31.3857 19.6536 31.3472 19.8696Z" fill="black"/>
<path opacity="0.6" d="M30.3887 23.0065L16.4274 20.5447C16.3199 20.5258 16.2477 20.4217 16.2667 20.3139C16.2858 20.2057 16.3891 20.1329 16.4967 20.1519L30.458 22.6136C30.5656 22.6326 30.6377 22.7367 30.6187 22.8445C30.5999 22.9527 30.4963 23.0255 30.3887 23.0065Z" fill="black"/>
<path opacity="0.6" d="M30.25 23.8333L16.2887 21.3715C16.1811 21.3525 16.109 21.2485 16.128 21.1406C16.1471 21.0325 16.2504 20.9597 16.358 20.9786L30.3193 23.4404C30.4268 23.4593 30.499 23.5634 30.48 23.6713C30.4612 23.7795 30.3576 23.8522 30.25 23.8333Z" fill="black"/>
<path opacity="0.6" d="M16.1354 22.2436L24.7336 23.7597C24.8411 23.7786 24.9448 23.7059 24.9635 23.5977C24.9826 23.4895 24.9104 23.3857 24.8028 23.3668L16.2046 21.8507C16.0971 21.8317 15.9938 21.9045 15.9747 22.0127C15.9556 22.1208 16.0278 22.2246 16.1354 22.2436Z" fill="black"/>
</g>
<g opacity="0.6">
<path opacity="0.6" d="M37.7152 14.4844H15.4798C15.4032 14.4844 15.3365 14.5353 15.3116 14.6078C11.2835 26.3057 11.7943 30.7737 11.7943 30.7737L32.2839 31.456C32.2839 31.456 33.4046 23.0308 37.8693 14.7519C37.9342 14.6317 37.8517 14.4844 37.7152 14.4844Z" fill="#F8FBFF"/>
<path opacity="0.6" d="M37.7152 14.4844H15.4798C15.4032 14.4844 15.3365 14.5353 15.3116 14.6078C11.2835 26.3057 11.7943 30.7737 11.7943 30.7737L32.2839 31.456C32.2839 31.456 33.4046 23.0308 37.8693 14.7519C37.9342 14.6317 37.8517 14.4844 37.7152 14.4844Z" fill="url(#paint2_linear)"/>
<path opacity="0.6" d="M28.7742 16.7952C28.7548 17.0115 28.5637 17.1718 28.3474 17.1533L19.8934 16.4309C19.6771 16.4124 19.5174 16.2222 19.5368 16.006C19.5562 15.7897 19.7472 15.6294 19.9635 15.6479L28.4176 16.3703C28.6339 16.3887 28.7935 16.579 28.7742 16.7952Z" fill="black"/>
<path opacity="0.6" d="M30.987 18.3884C30.9676 18.6056 30.7757 18.7667 30.5583 18.748L17.4353 17.6213C17.2179 17.6027 17.0575 17.4114 17.0768 17.1941C17.0962 16.9768 17.2881 16.8158 17.5054 16.8345L30.6285 17.9611C30.8458 17.9798 31.0063 18.1711 30.987 18.3884Z" fill="black"/>
<path opacity="0.6" d="M30.3037 21.5957L16.181 20.3602C16.0722 20.3506 15.9912 20.2533 16.0008 20.1442C16.0103 20.0347 16.1069 19.9532 16.2157 19.9627L30.3385 21.1983C30.4473 21.2078 30.5282 21.3052 30.5187 21.4143C30.5094 21.5238 30.4125 21.6053 30.3037 21.5957Z" fill="black"/>
<path opacity="0.6" d="M30.2383 22.4311L16.1155 21.1955C16.0067 21.186 15.9258 21.0886 15.9353 20.9795C15.9449 20.8701 16.0415 20.7886 16.1503 20.7981L30.273 22.0337C30.3818 22.0432 30.4628 22.1406 30.4532 22.2497C30.444 22.3591 30.3471 22.4406 30.2383 22.4311Z" fill="black"/>
<path opacity="0.6" d="M16.0384 22.0775L24.736 22.8384C24.8448 22.8479 24.9417 22.7664 24.951 22.657C24.9605 22.5476 24.8796 22.4505 24.7708 22.441L16.0731 21.68C15.9643 21.6705 15.8677 21.752 15.8582 21.8615C15.8486 21.9709 15.9296 22.0679 16.0384 22.0775Z" fill="black"/>
</g>
<path d="M36.196 12.5689C36.3283 12.5689 36.4142 12.7082 36.358 12.8279C31.5569 23.0456 32.2404 33.3844 32.2404 33.3844H32.2398C31.953 36.133 33.2696 40.3382 36.2865 40.7286H17.4503C12.5068 40.7286 10.4759 37.1941 10.475 33.3847C10.4753 33.3844 10.4753 33.3844 10.4753 33.3844H10.4759C10.4759 33.3844 9.78538 22.8514 14.6711 12.6462C14.7009 12.584 14.7651 12.5439 14.834 12.5439C24.0847 12.5441 30.4599 12.5681 36.196 12.5689Z" fill="url(#paint3_radial)"/>
<path d="M22.2641 15.168H16.9619C16.5714 15.168 16.2549 15.4845 16.2549 15.8749C16.2549 16.2654 16.5714 16.5819 16.9619 16.5819H22.2641C22.6546 16.5819 22.9711 16.2654 22.9711 15.8749C22.9711 15.4845 22.6546 15.168 22.2641 15.168Z" fill="#C3D1E6"/>
<path d="M19.5776 28.9541H14.2753C13.8849 28.9541 13.5684 29.2706 13.5684 29.6611C13.5684 30.0515 13.8849 30.368 14.2753 30.368H19.5776C19.968 30.368 20.2845 30.0515 20.2845 29.6611C20.2845 29.2706 19.968 28.9541 19.5776 28.9541Z" fill="#CFDBEC"/>
<path d="M29.7933 22.5913H14.8056C14.4152 22.5913 14.0986 22.9078 14.0986 23.2983C14.0986 23.6887 14.4152 24.0052 14.8056 24.0052H29.7933C30.1837 24.0052 30.5002 23.6887 30.5002 23.2983C30.5002 22.9078 30.1837 22.5913 29.7933 22.5913Z" fill="#CFDBEC"/>
<path d="M29.263 25.7725H14.2753C13.8849 25.7725 13.5684 26.089 13.5684 26.4794C13.5684 26.8699 13.8849 27.1864 14.2753 27.1864H29.263C29.6534 27.1864 29.97 26.8699 29.97 26.4794C29.97 26.089 29.6534 25.7725 29.263 25.7725Z" fill="#CFDBEC"/>
<path d="M23.077 18.3496H15.9013C15.5109 18.3496 15.1943 18.6661 15.1943 19.0566C15.1943 19.447 15.5109 19.7635 15.9013 19.7635H23.077C23.4675 19.7635 23.784 19.447 23.784 19.0566C23.784 18.6661 23.4675 18.3496 23.077 18.3496Z" fill="#CFDBEC"/>
<path fill-rule="evenodd" clip-rule="evenodd" d="M28.5644 35.0793C27.9399 36.0647 26.8396 36.7189 25.5865 36.7189C24.9953 36.7189 24.4382 36.5733 23.9489 36.316L23.0117 36.5671C23.7257 37.1132 24.6182 37.4377 25.5865 37.4377C27.3509 37.4377 28.8637 36.3604 29.5031 34.8277L28.5644 35.0793ZM23.4628 36.0071C22.6127 35.3639 22.0635 34.344 22.0635 33.1959C22.0635 32.7488 22.1468 32.3211 22.2987 31.9276L21.4751 32.1483C21.39 32.4833 21.3447 32.8343 21.3447 33.1959C21.3447 34.3859 21.8348 35.4615 22.6241 36.2318L23.4628 36.0071ZM21.6282 31.6681C22.2414 30.0803 23.7824 28.9541 25.5865 28.9541C26.5951 28.9541 27.5215 29.3061 28.2495 29.8939L27.3378 30.1382C26.8219 29.8421 26.224 29.6728 25.5865 29.6728C24.287 29.6728 23.1518 30.3764 22.5411 31.4235L21.6282 31.6681ZM27.7988 30.4538C28.5983 31.0997 29.1096 32.0881 29.1096 33.1959C29.1096 33.6827 29.0108 34.1466 28.8322 34.5684L29.6712 34.3435C29.7736 33.9785 29.8283 33.5936 29.8283 33.1959C29.8283 32.0431 29.3685 30.9977 28.6222 30.2332L27.7988 30.4538Z" fill="#F23333"/>
<path d="M20.3649 33.6165C20.2624 33.234 20.2112 33.0428 20.2465 32.8768C20.2775 32.7308 20.354 32.5983 20.4649 32.4984C20.5911 32.3848 20.7823 32.3336 21.1647 32.2311L28.9514 30.1447C29.3339 30.0422 29.5251 29.991 29.6911 30.0263C29.8371 30.0573 29.9696 30.1338 30.0695 30.2447C30.1831 30.3708 30.2343 30.5621 30.3368 30.9445L30.8491 32.8566C30.9516 33.239 31.0028 33.4302 30.9675 33.5963C30.9365 33.7423 30.86 33.8748 30.7491 33.9747C30.6229 34.0882 30.4317 34.1395 30.0493 34.2419L22.2626 36.3284C21.8801 36.4309 21.6889 36.4821 21.5229 36.4468C21.3769 36.4158 21.2444 36.3393 21.1445 36.2283C21.0309 36.1022 20.9797 35.911 20.8772 35.5285L20.3649 33.6165Z" fill="#F23333"/>
<path d="M23.0735 32.8851L22.1582 33.1303L22.707 35.1785L23.2982 35.0201L23.1438 34.4439L23.4604 34.3591C23.966 34.2236 24.1229 33.8245 24.0163 33.4269C23.9118 33.0368 23.5791 32.7496 23.0735 32.8851ZM23.4176 33.5873C23.4711 33.7869 23.3735 33.9208 23.1815 33.9722L23.0254 34.0141L22.8646 33.4139L23.0356 33.368C23.2187 33.319 23.3654 33.3923 23.4176 33.5873Z" fill="white"/>
<path d="M24.9334 34.5819L24.9272 34.1446L25.5063 33.9894L25.7166 34.3721L26.3498 34.2024L25.1738 32.3223L24.4296 32.5217L24.3467 34.7391L24.9334 34.5819ZM24.9296 32.9233L25.2962 33.5954L24.9151 33.6975L24.9011 32.9309L24.9296 32.9233Z" fill="white"/>
<path d="M27.1259 33.9944L26.5771 31.9463L25.9844 32.1051L26.5332 34.1533L27.1259 33.9944Z" fill="white"/>
<path d="M26.9385 31.8493L27.4873 33.8975L28.353 33.6655C29.0012 33.4918 29.1807 33.0031 29.0134 32.3789C28.8486 31.7637 28.463 31.4408 27.8042 31.6173L26.9385 31.8493ZM27.6542 32.1497L27.8222 32.1046C28.1854 32.0073 28.3314 32.2641 28.4102 32.5582C28.542 33.0504 28.3561 33.1726 28.125 33.2345L27.9569 33.2795L27.6542 32.1497Z" fill="white"/>
<defs>
<linearGradient id="paint0_linear" x1="33.4448" y1="39.309" x2="38.5418" y2="39.309" gradientUnits="userSpaceOnUse">
<stop stop-color="#9DC4FE"/>
<stop offset="1" stop-color="#CEDFFF"/>
</linearGradient>
<linearGradient id="paint1_linear" x1="18.4773" y1="20.141" x2="31.097" y2="24.4863" gradientUnits="userSpaceOnUse">
<stop stop-color="#EFDAD5"/>
<stop offset="0.470672" stop-color="#DEF1D6"/>
<stop offset="1" stop-color="#C5E8F0"/>
</linearGradient>
<linearGradient id="paint2_linear" x1="13.1111" y1="20.9928" x2="33.8937" y2="24.6574" gradientUnits="userSpaceOnUse">
<stop stop-color="white"/>
<stop offset="1" stop-color="#96CDFF"/>
</linearGradient>
<radialGradient id="paint3_radial" cx="0" cy="0" r="1" gradientUnits="userSpaceOnUse" gradientTransform="translate(25.1101 8.5578) rotate(90) scale(33.3335 67.1486)">
<stop stop-color="white"/>
<stop offset="0.862545" stop-color="white"/>
<stop offset="0.895833" stop-color="#E2F0FF"/>
<stop offset="0.942708" stop-color="#ADD3FF"/>
<stop offset="1" stop-color="#61A9FE"/>
</radialGradient>
</defs>
</svg>
