<svg width="215" height="49" viewBox="0 0 215 49" fill="none" xmlns="http://www.w3.org/2000/svg">
<path d="M48 24C48 10.7452 37.2548 0 24 0C10.7452 0 0 10.7452 0 24C0 37.2548 10.7452 48 24 48C37.2548 48 48 37.2548 48 24Z" fill="#007AFF"/>
<path d="M35.2719 38.7119H15.8691V34.6445H38.4564C38.5657 34.6445 38.6494 34.7439 38.6315 34.8517C37.9894 38.7119 35.2719 38.7119 35.2719 38.7119Z" fill="#AFCDFB"/>
<path d="M35.2719 38.7119H15.8691V34.6445H38.4564C38.5657 34.6445 38.6494 34.7439 38.6315 34.8517C37.9894 38.7119 35.2719 38.7119 35.2719 38.7119Z" fill="url(#paint0_linear)"/>
<g opacity="0.6">
<path opacity="0.6" d="M38.2206 14.2769H16.0431C15.9767 14.2769 15.916 14.316 15.8848 14.3746C10.0685 25.2901 10.0908 26.2656 10.0908 26.2656L31.056 31.8883C31.056 31.8883 31.6641 24.3674 38.3639 14.5623C38.4457 14.4426 38.3655 14.2769 38.2206 14.2769Z" fill="#F8FBFF"/>
<path opacity="0.6" d="M38.2206 14.2769H16.0431C15.9767 14.2769 15.916 14.316 15.8848 14.3746C10.0685 25.2901 10.0908 26.2656 10.0908 26.2656L31.056 31.8883C31.056 31.8883 31.6641 24.3674 38.3639 14.5623C38.4457 14.4426 38.3655 14.2769 38.2206 14.2769Z" fill="url(#paint1_linear)"/>
<path opacity="0.6" d="M28.2815 16.0902C28.243 16.3054 28.0372 16.4495 27.8218 16.4121L19.4729 14.961C19.2576 14.9235 19.1142 14.7188 19.1527 14.5036C19.1912 14.2884 19.3969 14.1443 19.6123 14.1817L27.9612 15.6328C28.1766 15.6703 28.32 15.875 28.2815 16.0902Z" fill="black"/>
<path opacity="0.6" d="M30.3472 17.8696C30.3087 18.0857 30.1022 18.2302 29.8861 18.1925L16.9207 15.9309C16.7045 15.8932 16.5605 15.6875 16.599 15.4715C16.6375 15.2555 16.844 15.1109 17.0601 15.1486L30.0255 17.4103C30.2417 17.448 30.3857 17.6536 30.3472 17.8696Z" fill="black"/>
<path opacity="0.6" d="M29.3887 21.0065L15.4274 18.5447C15.3199 18.5258 15.2477 18.4217 15.2667 18.3139C15.2858 18.2057 15.3891 18.1329 15.4967 18.1519L29.458 20.6136C29.5656 20.6326 29.6377 20.7367 29.6187 20.8445C29.5999 20.9527 29.4963 21.0255 29.3887 21.0065Z" fill="black"/>
<path opacity="0.6" d="M29.25 21.8333L15.2887 19.3715C15.1811 19.3525 15.109 19.2485 15.128 19.1406C15.1471 19.0325 15.2504 18.9597 15.358 18.9786L29.3193 21.4404C29.4268 21.4593 29.499 21.5634 29.48 21.6713C29.4612 21.7795 29.3576 21.8522 29.25 21.8333Z" fill="black"/>
<path opacity="0.6" d="M15.1354 20.2436L23.7336 21.7597C23.8411 21.7786 23.9448 21.7059 23.9635 21.5977C23.9826 21.4895 23.9104 21.3857 23.8028 21.3668L15.2046 19.8507C15.0971 19.8317 14.9938 19.9045 14.9747 20.0127C14.9556 20.1208 15.0278 20.2246 15.1354 20.2436Z" fill="black"/>
</g>
<g opacity="0.6">
<path opacity="0.6" d="M36.7152 12.4844H14.4798C14.4032 12.4844 14.3365 12.5353 14.3116 12.6078C10.2835 24.3057 10.7943 28.7737 10.7943 28.7737L31.2839 29.456C31.2839 29.456 32.4046 21.0308 36.8693 12.7519C36.9342 12.6317 36.8517 12.4844 36.7152 12.4844Z" fill="#F8FBFF"/>
<path opacity="0.6" d="M36.7152 12.4844H14.4798C14.4032 12.4844 14.3365 12.5353 14.3116 12.6078C10.2835 24.3057 10.7943 28.7737 10.7943 28.7737L31.2839 29.456C31.2839 29.456 32.4046 21.0308 36.8693 12.7519C36.9342 12.6317 36.8517 12.4844 36.7152 12.4844Z" fill="url(#paint2_linear)"/>
<path opacity="0.6" d="M27.7742 14.7952C27.7548 15.0115 27.5637 15.1718 27.3474 15.1533L18.8934 14.4309C18.6771 14.4124 18.5174 14.2222 18.5368 14.006C18.5562 13.7897 18.7472 13.6294 18.9635 13.6479L27.4176 14.3703C27.6339 14.3887 27.7935 14.579 27.7742 14.7952Z" fill="black"/>
<path opacity="0.6" d="M29.987 16.3884C29.9676 16.6056 29.7757 16.7667 29.5583 16.748L16.4353 15.6213C16.2179 15.6027 16.0575 15.4114 16.0768 15.1941C16.0962 14.9768 16.2881 14.8158 16.5054 14.8345L29.6285 15.9611C29.8458 15.9798 30.0063 16.1711 29.987 16.3884Z" fill="black"/>
<path opacity="0.6" d="M29.3037 19.5957L15.181 18.3602C15.0722 18.3506 14.9912 18.2533 15.0008 18.1442C15.0103 18.0347 15.1069 17.9532 15.2157 17.9627L29.3385 19.1983C29.4473 19.2078 29.5282 19.3052 29.5187 19.4143C29.5094 19.5238 29.4125 19.6053 29.3037 19.5957Z" fill="black"/>
<path opacity="0.6" d="M29.2383 20.4311L15.1155 19.1955C15.0067 19.186 14.9258 19.0886 14.9353 18.9795C14.9449 18.8701 15.0415 18.7886 15.1503 18.7981L29.273 20.0337C29.3818 20.0432 29.4628 20.1406 29.4532 20.2497C29.444 20.3591 29.3471 20.4406 29.2383 20.4311Z" fill="black"/>
<path opacity="0.6" d="M15.0384 20.0775L23.736 20.8384C23.8448 20.8479 23.9417 20.7664 23.951 20.657C23.9605 20.5476 23.8796 20.4505 23.7708 20.441L15.0731 19.68C14.9643 19.6705 14.8677 19.752 14.8582 19.8615C14.8486 19.9709 14.9296 20.0679 15.0384 20.0775Z" fill="black"/>
</g>
<path d="M35.196 10.5689C35.3283 10.5689 35.4142 10.7082 35.358 10.8279C30.5569 21.0456 31.2404 31.3844 31.2404 31.3844H31.2398C30.953 34.133 32.2696 38.3382 35.2865 38.7286H16.4503C11.5068 38.7286 9.47592 35.1941 9.47499 31.3847C9.47526 31.3844 9.47526 31.3844 9.47526 31.3844H9.47592C9.47592 31.3844 8.78538 20.8514 13.6711 10.6462C13.7009 10.584 13.7651 10.5439 13.834 10.5439C23.0847 10.5441 29.4599 10.5681 35.196 10.5689Z" fill="url(#paint3_radial)"/>
<path d="M21.2641 13.168H15.9619C15.5714 13.168 15.2549 13.4845 15.2549 13.8749C15.2549 14.2654 15.5714 14.5819 15.9619 14.5819H21.2641C21.6546 14.5819 21.9711 14.2654 21.9711 13.8749C21.9711 13.4845 21.6546 13.168 21.2641 13.168Z" fill="#C3D1E6"/>
<path d="M18.5776 26.9541H13.2753C12.8849 26.9541 12.5684 27.2706 12.5684 27.6611C12.5684 28.0515 12.8849 28.368 13.2753 28.368H18.5776C18.968 28.368 19.2845 28.0515 19.2845 27.6611C19.2845 27.2706 18.968 26.9541 18.5776 26.9541Z" fill="#CFDBEC"/>
<path d="M28.7933 20.5913H13.8056C13.4152 20.5913 13.0986 20.9078 13.0986 21.2983C13.0986 21.6887 13.4152 22.0052 13.8056 22.0052H28.7933C29.1837 22.0052 29.5002 21.6887 29.5002 21.2983C29.5002 20.9078 29.1837 20.5913 28.7933 20.5913Z" fill="#CFDBEC"/>
<path d="M28.263 23.7725H13.2753C12.8849 23.7725 12.5684 24.089 12.5684 24.4794C12.5684 24.8699 12.8849 25.1864 13.2753 25.1864H28.263C28.6534 25.1864 28.97 24.8699 28.97 24.4794C28.97 24.089 28.6534 23.7725 28.263 23.7725Z" fill="#CFDBEC"/>
<path d="M22.077 16.3496H14.9013C14.5109 16.3496 14.1943 16.6661 14.1943 17.0566C14.1943 17.447 14.5109 17.7635 14.9013 17.7635H22.077C22.4675 17.7635 22.784 17.447 22.784 17.0566C22.784 16.6661 22.4675 16.3496 22.077 16.3496Z" fill="#CFDBEC"/>
<path fill-rule="evenodd" clip-rule="evenodd" d="M27.5644 33.0793C26.9399 34.0647 25.8396 34.7189 24.5865 34.7189C23.9953 34.7189 23.4382 34.5733 22.9489 34.316L22.0117 34.5671C22.7257 35.1132 23.6182 35.4377 24.5865 35.4377C26.3509 35.4377 27.8637 34.3604 28.5031 32.8277L27.5644 33.0793ZM22.4628 34.0071C21.6127 33.3639 21.0635 32.344 21.0635 31.1959C21.0635 30.7488 21.1468 30.3211 21.2987 29.9276L20.4751 30.1483C20.39 30.4833 20.3447 30.8343 20.3447 31.1959C20.3447 32.3859 20.8348 33.4615 21.6241 34.2318L22.4628 34.0071ZM20.6282 29.6681C21.2414 28.0803 22.7824 26.9541 24.5865 26.9541C25.5951 26.9541 26.5215 27.3061 27.2495 27.8939L26.3378 28.1382C25.8219 27.8421 25.224 27.6728 24.5865 27.6728C23.287 27.6728 22.1518 28.3764 21.5411 29.4235L20.6282 29.6681ZM26.7988 28.4538C27.5983 29.0997 28.1096 30.0881 28.1096 31.1959C28.1096 31.6827 28.0108 32.1466 27.8322 32.5684L28.6712 32.3435C28.7736 31.9785 28.8283 31.5936 28.8283 31.1959C28.8283 30.0431 28.3685 28.9977 27.6222 28.2332L26.7988 28.4538Z" fill="#F23333"/>
<path d="M19.3649 31.6165C19.2624 31.234 19.2112 31.0428 19.2465 30.8768C19.2775 30.7308 19.354 30.5983 19.4649 30.4984C19.5911 30.3848 19.7823 30.3336 20.1647 30.2311L27.9514 28.1447C28.3339 28.0422 28.5251 27.991 28.6911 28.0263C28.8371 28.0573 28.9696 28.1338 29.0695 28.2447C29.1831 28.3708 29.2343 28.5621 29.3368 28.9445L29.8491 30.8566C29.9516 31.239 30.0028 31.4302 29.9675 31.5963C29.9365 31.7423 29.86 31.8748 29.7491 31.9747C29.6229 32.0882 29.4317 32.1395 29.0493 32.2419L21.2626 34.3284C20.8801 34.4309 20.6889 34.4821 20.5229 34.4468C20.3769 34.4158 20.2444 34.3393 20.1445 34.2283C20.0309 34.1022 19.9797 33.911 19.8772 33.5285L19.3649 31.6165Z" fill="#F23333"/>
<path d="M22.0735 30.8851L21.1582 31.1303L21.707 33.1785L22.2982 33.0201L22.1438 32.4439L22.4604 32.3591C22.966 32.2236 23.1229 31.8245 23.0163 31.4269C22.9118 31.0368 22.5791 30.7496 22.0735 30.8851ZM22.4176 31.5873C22.4711 31.7869 22.3735 31.9208 22.1815 31.9722L22.0254 32.0141L21.8646 31.4139L22.0356 31.368C22.2187 31.319 22.3654 31.3923 22.4176 31.5873Z" fill="white"/>
<path d="M23.9334 32.5819L23.9272 32.1446L24.5063 31.9894L24.7166 32.3721L25.3498 32.2024L24.1738 30.3223L23.4296 30.5217L23.3467 32.7391L23.9334 32.5819ZM23.9296 30.9233L24.2962 31.5954L23.9151 31.6975L23.9011 30.9309L23.9296 30.9233Z" fill="white"/>
<path d="M26.1259 31.9944L25.5771 29.9463L24.9844 30.1051L25.5332 32.1533L26.1259 31.9944Z" fill="white"/>
<path d="M25.9385 29.8493L26.4873 31.8975L27.353 31.6655C28.0012 31.4918 28.1807 31.0031 28.0134 30.3789C27.8486 29.7637 27.463 29.4408 26.8042 29.6173L25.9385 29.8493ZM26.6542 30.1497L26.8222 30.1046C27.1854 30.0073 27.3314 30.2641 27.4102 30.5582C27.542 31.0504 27.3561 31.1726 27.125 31.2345L26.9569 31.2795L26.6542 30.1497Z" fill="white"/>
<path d="M57.9661 28V10.6449H61.9226V28H57.9661ZM64.9614 28V15.3053H68.481V17.3199C68.8208 16.6403 69.3386 16.0901 70.0345 15.6694C70.7465 15.2325 71.6041 15.014 72.6074 15.014C73.9181 15.014 74.9538 15.4266 75.7143 16.2519C76.4911 17.061 76.8794 18.2828 76.8794 19.9171V28H73.3599V20.4269C73.3599 19.553 73.1819 18.9138 72.8259 18.5093C72.4699 18.0886 71.9035 17.8782 71.1268 17.8782C70.3338 17.8782 69.6947 18.1209 69.2092 18.6064C68.7237 19.0757 68.481 19.7634 68.481 20.6696V28H64.9614ZM82.5949 28L77.9588 15.3053H81.7211L84.7552 24.3833L87.7651 15.3053H91.1633L86.5514 28H82.5949ZM95.5779 24.5775C96.1281 25.2572 96.8967 25.597 97.8838 25.597C98.8709 25.597 99.6315 25.2572 100.165 24.5775C100.716 23.8979 100.991 22.9512 100.991 21.7376V21.5677C100.991 20.354 100.716 19.4074 100.165 18.7278C99.6315 18.0319 98.8709 17.684 97.8838 17.684C96.9129 17.684 96.1524 18.0238 95.6022 18.7035C95.052 19.3669 94.7769 20.3055 94.7769 21.5191V21.7133C94.7769 22.927 95.0439 23.8817 95.5779 24.5775ZM97.8595 28.267C95.9339 28.267 94.34 27.6764 93.0778 26.4951C91.8156 25.2976 91.1845 23.728 91.1845 21.7861V21.592C91.1845 19.6339 91.8156 18.0481 93.0778 16.8345C94.34 15.6208 95.942 15.014 97.8838 15.014C99.8257 15.014 101.42 15.6127 102.666 16.8102C103.928 17.9915 104.559 19.5611 104.559 21.5191V21.7133C104.559 23.6875 103.928 25.2733 102.666 26.4708C101.403 27.6683 99.8014 28.267 97.8595 28.267ZM106.53 28V15.3053H110.025V28H106.53ZM109.686 13.0479C109.297 13.4039 108.82 13.5819 108.253 13.5819C107.687 13.5819 107.21 13.4039 106.821 13.0479C106.449 12.6757 106.263 12.2145 106.263 11.6643C106.263 11.1142 106.449 10.6611 106.821 10.3051C107.21 9.93288 107.687 9.74679 108.253 9.74679C108.82 9.74679 109.297 9.93288 109.686 10.3051C110.074 10.6611 110.268 11.1142 110.268 11.6643C110.268 12.2145 110.074 12.6757 109.686 13.0479ZM118.527 28.267C116.617 28.267 115.048 27.7006 113.818 26.5679C112.604 25.419 111.998 23.8332 111.998 21.8104V21.6162C111.998 19.6259 112.621 18.0319 113.867 16.8345C115.129 15.6208 116.69 15.014 118.551 15.014C120.169 15.014 121.529 15.4105 122.629 16.2034C123.746 16.9963 124.377 18.2423 124.522 19.9414H121.197C120.954 18.5012 120.097 17.7811 118.624 17.7811C117.702 17.7811 116.965 18.1128 116.415 18.7763C115.865 19.4398 115.59 20.3702 115.59 21.5677V21.7619C115.59 23.0241 115.857 23.9869 116.391 24.6503C116.941 25.2976 117.71 25.6213 118.697 25.6213C119.425 25.6213 120.04 25.4109 120.542 24.9902C121.043 24.5694 121.335 23.9626 121.415 23.1697H124.595C124.498 24.707 123.916 25.9449 122.848 26.8834C121.78 27.8058 120.339 28.267 118.527 28.267ZM132.171 28.267C130.213 28.267 128.619 27.6925 127.39 26.5436C126.16 25.3785 125.545 23.8008 125.545 21.8104V21.6162C125.545 19.642 126.16 18.0481 127.39 16.8345C128.636 15.6208 130.197 15.014 132.074 15.014C133.854 15.014 135.327 15.5561 136.492 16.6403C137.673 17.7245 138.264 19.3346 138.264 21.4706V22.4415H129.113C129.162 23.4933 129.461 24.3105 130.011 24.8931C130.561 25.4756 131.314 25.7669 132.268 25.7669C133.79 25.7669 134.671 25.1763 134.914 23.995H138.24C138.029 25.3704 137.398 26.4304 136.346 27.1747C135.294 27.9029 133.903 28.267 132.171 28.267ZM129.162 20.2812H134.841C134.728 18.3879 133.806 17.4413 132.074 17.4413C131.281 17.4413 130.626 17.6921 130.108 18.1938C129.607 18.6792 129.291 19.375 129.162 20.2812ZM145.293 28V10.6449H150.488L154.541 21.4463L158.546 10.6449H163.643V28H159.736V15.815L154.929 28H153.643L148.813 15.815V28H145.293ZM169.912 28.267C168.666 28.267 167.646 27.9515 166.854 27.3204C166.061 26.6893 165.664 25.7426 165.664 24.4804C165.664 21.7619 167.865 20.4026 172.266 20.4026H173.698V19.8929C173.698 19.0999 173.545 18.5174 173.237 18.1452C172.93 17.7568 172.396 17.5627 171.635 17.5627C170.357 17.5627 169.637 18.1614 169.475 19.3589H166.15C166.247 17.9187 166.813 16.8345 167.849 16.1063C168.884 15.3781 170.219 15.014 171.854 15.014C175.398 15.014 177.17 16.5837 177.17 19.7229V28H173.747V26.4708C172.889 27.6683 171.611 28.267 169.912 28.267ZM170.956 25.8154C171.749 25.8154 172.404 25.6132 172.922 25.2086C173.44 24.8041 173.698 24.2539 173.698 23.5581V22.4901H172.339C171.271 22.4901 170.462 22.6276 169.912 22.9027C169.378 23.1778 169.111 23.639 169.111 24.2862C169.111 25.3057 169.726 25.8154 170.956 25.8154ZM179.705 28V9.5526H183.224V20.6696L187.302 15.3053H191.04L186.428 21.0822L191.404 28H187.424L183.224 22.0046V28H179.705ZM197.917 28.267C195.959 28.267 194.365 27.6925 193.135 26.5436C191.905 25.3785 191.29 23.8008 191.29 21.8104V21.6162C191.29 19.642 191.905 18.0481 193.135 16.8345C194.381 15.6208 195.943 15.014 197.82 15.014C199.6 15.014 201.072 15.5561 202.237 16.6403C203.419 17.7245 204.009 19.3346 204.009 21.4706V22.4415H194.858C194.907 23.4933 195.206 24.3105 195.756 24.8931C196.307 25.4756 197.059 25.7669 198.014 25.7669C199.535 25.7669 200.417 25.1763 200.66 23.995H203.985C203.775 25.3704 203.144 26.4304 202.092 27.1747C201.04 27.9029 199.648 28.267 197.917 28.267ZM194.907 20.2812H200.587C200.474 18.3879 199.551 17.4413 197.82 17.4413C197.027 17.4413 196.371 17.6921 195.854 18.1938C195.352 18.6792 195.036 19.375 194.907 20.2812ZM205.828 28V15.3053H209.347V17.7326C210.156 16.0011 211.524 15.1273 213.449 15.1111V18.3879C212.09 18.3718 211.062 18.6226 210.367 19.1404C209.687 19.642 209.347 20.4754 209.347 21.6405V28H205.828Z" fill="white"/>
<path d="M61.128 45.566C60.64 45.566 60.212 45.462 59.844 45.254C59.476 45.038 59.196 44.762 59.004 44.426V45.458H58.008V36.182H59.004V40.238C59.196 39.918 59.488 39.646 59.88 39.422C60.272 39.19 60.688 39.074 61.128 39.074C61.968 39.074 62.652 39.362 63.18 39.938C63.716 40.506 63.984 41.27 63.984 42.23V42.326C63.984 43.294 63.72 44.078 63.192 44.678C62.672 45.27 61.984 45.566 61.128 45.566ZM61.032 44.738C61.656 44.738 62.132 44.534 62.46 44.126C62.788 43.718 62.952 43.134 62.952 42.374V42.278C62.952 41.518 62.768 40.934 62.4 40.526C62.04 40.11 61.58 39.902 61.02 39.902C60.412 39.902 59.916 40.106 59.532 40.514C59.156 40.914 58.968 41.502 58.968 42.278V42.374C58.968 43.15 59.152 43.738 59.52 44.138C59.896 44.538 60.4 44.738 61.032 44.738ZM66.0983 47.642L67.2862 44.81L64.8262 39.182H65.8942L67.8143 43.682L69.5543 39.182H70.5742L67.1062 47.642H66.0983ZM78.1456 45.566C77.0816 45.566 76.2896 45.318 75.7696 44.822C75.2576 44.318 74.9576 43.658 74.8696 42.842H75.8776C75.9176 43.122 75.9736 43.366 76.0456 43.574C76.1256 43.782 76.2456 43.978 76.4056 44.162C76.5656 44.346 76.7896 44.486 77.0776 44.582C77.3736 44.678 77.7296 44.726 78.1456 44.726C78.7056 44.726 79.1696 44.578 79.5376 44.282C79.9136 43.978 80.1016 43.586 80.1016 43.106C80.1016 42.61 79.9576 42.246 79.6696 42.014C79.3816 41.774 78.8336 41.59 78.0256 41.462C77.0576 41.318 76.3376 41.07 75.8656 40.718C75.3936 40.358 75.1576 39.818 75.1576 39.098C75.1576 38.434 75.4176 37.882 75.9376 37.442C76.4576 36.994 77.1176 36.77 77.9176 36.77C78.7816 36.77 79.4696 36.974 79.9816 37.382C80.4936 37.79 80.7896 38.374 80.8696 39.134H79.9336C79.8296 38.598 79.6176 38.21 79.2976 37.97C78.9776 37.73 78.5176 37.61 77.9176 37.61C77.3496 37.61 76.9096 37.738 76.5976 37.994C76.2856 38.25 76.1296 38.586 76.1296 39.002C76.1296 39.45 76.2656 39.786 76.5376 40.01C76.8096 40.234 77.3616 40.41 78.1936 40.538C79.2016 40.698 79.9376 40.962 80.4016 41.33C80.8736 41.69 81.1096 42.258 81.1096 43.034C81.1096 43.754 80.8256 44.358 80.2576 44.846C79.6976 45.326 78.9936 45.566 78.1456 45.566ZM84.517 45.566C83.901 45.566 83.397 45.414 83.005 45.11C82.621 44.798 82.429 44.334 82.429 43.718C82.429 43.046 82.725 42.554 83.317 42.242C83.917 41.93 84.669 41.774 85.573 41.774H86.473V41.318C86.473 40.814 86.369 40.454 86.161 40.238C85.953 40.014 85.609 39.902 85.129 39.902C84.265 39.902 83.785 40.278 83.689 41.03H82.693C82.757 40.358 83.021 39.866 83.485 39.554C83.949 39.234 84.513 39.074 85.177 39.074C86.705 39.074 87.469 39.822 87.469 41.318V45.458H86.473V44.666C85.993 45.266 85.341 45.566 84.517 45.566ZM84.613 44.774C85.157 44.774 85.601 44.642 85.945 44.378C86.297 44.106 86.473 43.734 86.473 43.262V42.482H85.609C84.153 42.482 83.425 42.894 83.425 43.718C83.425 44.422 83.821 44.774 84.613 44.774ZM89.5695 45.458V36.182H90.5775V45.458H89.5695ZM95.0998 45.566C94.2598 45.566 93.5758 45.286 93.0478 44.726C92.5278 44.166 92.2678 43.406 92.2678 42.446V42.35C92.2678 41.39 92.5398 40.606 93.0838 39.998C93.6278 39.382 94.3318 39.074 95.1958 39.074C96.1238 39.074 96.8078 39.446 97.2478 40.19V36.182H98.2438V45.458H97.2478V44.378C97.0558 44.698 96.7598 44.978 96.3598 45.218C95.9598 45.45 95.5398 45.566 95.0998 45.566ZM95.2078 44.738C95.8238 44.738 96.3238 44.538 96.7078 44.138C97.0918 43.73 97.2838 43.138 97.2838 42.362V42.266C97.2838 41.482 97.1078 40.894 96.7558 40.502C96.4118 40.102 95.9238 39.902 95.2918 39.902C94.6678 39.902 94.1798 40.114 93.8278 40.538C93.4758 40.954 93.2998 41.542 93.2998 42.302V42.398C93.2998 43.158 93.4758 43.738 93.8278 44.138C94.1878 44.538 94.6478 44.738 95.2078 44.738ZM102.995 44.738C103.619 44.738 104.115 44.522 104.483 44.09C104.859 43.658 105.047 43.086 105.047 42.374V42.29C105.047 41.562 104.859 40.982 104.483 40.55C104.115 40.118 103.619 39.902 102.995 39.902C102.363 39.902 101.863 40.118 101.495 40.55C101.127 40.982 100.943 41.558 100.943 42.278V42.374C100.943 43.094 101.127 43.67 101.495 44.102C101.863 44.526 102.363 44.738 102.995 44.738ZM102.983 45.566C102.095 45.566 101.359 45.266 100.775 44.666C100.199 44.058 99.9113 43.294 99.9113 42.374V42.278C99.9113 41.342 100.199 40.574 100.775 39.974C101.359 39.374 102.099 39.074 102.995 39.074C103.891 39.074 104.627 39.374 105.203 39.974C105.787 40.566 106.079 41.33 106.079 42.266V42.362C106.079 43.306 105.787 44.078 105.203 44.678C104.619 45.27 103.879 45.566 102.983 45.566ZM110.461 45.458L113.413 36.878H114.781L117.685 45.458H116.653L115.813 42.986H112.273L111.445 45.458H110.461ZM114.049 37.742L112.561 42.158H115.537L114.049 37.742ZM119.243 47.642V39.182H120.239V40.238C120.431 39.918 120.723 39.646 121.115 39.422C121.507 39.19 121.923 39.074 122.363 39.074C123.203 39.074 123.887 39.362 124.415 39.938C124.951 40.506 125.219 41.27 125.219 42.23V42.326C125.219 43.294 124.955 44.078 124.427 44.678C123.907 45.27 123.219 45.566 122.363 45.566C121.875 45.566 121.447 45.462 121.079 45.254C120.711 45.038 120.431 44.762 120.239 44.426V47.642H119.243ZM122.267 44.738C122.891 44.738 123.367 44.534 123.695 44.126C124.023 43.718 124.187 43.134 124.187 42.374V42.278C124.187 41.518 124.003 40.934 123.635 40.526C123.275 40.11 122.815 39.902 122.255 39.902C121.647 39.902 121.151 40.106 120.767 40.514C120.391 40.914 120.203 41.502 120.203 42.278V42.374C120.203 43.15 120.387 43.738 120.755 44.138C121.131 44.538 121.635 44.738 122.267 44.738ZM126.887 47.642V39.182H127.883V40.238C128.075 39.918 128.367 39.646 128.759 39.422C129.151 39.19 129.567 39.074 130.007 39.074C130.847 39.074 131.531 39.362 132.059 39.938C132.595 40.506 132.863 41.27 132.863 42.23V42.326C132.863 43.294 132.599 44.078 132.071 44.678C131.551 45.27 130.863 45.566 130.007 45.566C129.519 45.566 129.091 45.462 128.723 45.254C128.355 45.038 128.075 44.762 127.883 44.426V47.642H126.887ZM129.911 44.738C130.535 44.738 131.011 44.534 131.339 44.126C131.667 43.718 131.831 43.134 131.831 42.374V42.278C131.831 41.518 131.647 40.934 131.279 40.526C130.919 40.11 130.459 39.902 129.899 39.902C129.291 39.902 128.795 40.106 128.411 40.514C128.035 40.914 127.847 41.502 127.847 42.278V42.374C127.847 43.15 128.031 43.738 128.399 44.138C128.775 44.538 129.279 44.738 129.911 44.738ZM136.474 45.566C135.722 45.566 135.13 45.386 134.698 45.026C134.274 44.666 134.046 44.166 134.014 43.526H134.986C135.066 44.334 135.558 44.738 136.462 44.738C137.374 44.738 137.83 44.406 137.83 43.742C137.83 43.43 137.714 43.202 137.482 43.058C137.258 42.906 136.886 42.782 136.366 42.686C135.55 42.534 134.982 42.326 134.662 42.062C134.342 41.79 134.182 41.382 134.182 40.838C134.182 40.294 134.398 39.866 134.83 39.554C135.27 39.234 135.762 39.074 136.306 39.074C137.666 39.074 138.422 39.678 138.574 40.886H137.614C137.542 40.542 137.402 40.294 137.194 40.142C136.986 39.982 136.686 39.902 136.294 39.902C135.934 39.902 135.646 39.986 135.43 40.154C135.214 40.314 135.106 40.53 135.106 40.802C135.106 41.09 135.206 41.302 135.406 41.438C135.614 41.574 136.002 41.694 136.57 41.798C136.946 41.87 137.246 41.942 137.47 42.014C137.702 42.078 137.926 42.178 138.142 42.314C138.366 42.45 138.526 42.63 138.622 42.854C138.726 43.07 138.778 43.338 138.778 43.658C138.778 44.242 138.578 44.706 138.178 45.05C137.786 45.394 137.218 45.566 136.474 45.566Z" fill="white" fill-opacity="0.5"/>
<defs>
<linearGradient id="paint0_linear" x1="32.4448" y1="37.309" x2="37.5418" y2="37.309" gradientUnits="userSpaceOnUse">
<stop stop-color="#9DC4FE"/>
<stop offset="1" stop-color="#CEDFFF"/>
</linearGradient>
<linearGradient id="paint1_linear" x1="17.4773" y1="18.141" x2="30.097" y2="22.4863" gradientUnits="userSpaceOnUse">
<stop stop-color="#EFDAD5"/>
<stop offset="0.470672" stop-color="#DEF1D6"/>
<stop offset="1" stop-color="#C5E8F0"/>
</linearGradient>
<linearGradient id="paint2_linear" x1="12.1111" y1="18.9928" x2="32.8937" y2="22.6574" gradientUnits="userSpaceOnUse">
<stop stop-color="white"/>
<stop offset="1" stop-color="#96CDFF"/>
</linearGradient>
<radialGradient id="paint3_radial" cx="0" cy="0" r="1" gradientUnits="userSpaceOnUse" gradientTransform="translate(24.1101 6.5578) rotate(90) scale(33.3335 67.1486)">
<stop stop-color="white"/>
<stop offset="0.862545" stop-color="white"/>
<stop offset="0.895833" stop-color="#E2F0FF"/>
<stop offset="0.942708" stop-color="#ADD3FF"/>
<stop offset="1" stop-color="#61A9FE"/>
</radialGradient>
</defs>
</svg>
