<svg width="180" height="50" viewBox="0 0 180 50" fill="none" xmlns="http://www.w3.org/2000/svg">
<path d="M60.6343 21H59.0347V11.7578H60.6343V21ZM64.1506 14.1318L64.1951 14.9253C64.7029 14.3117 65.3694 14.0049 66.1946 14.0049C67.6249 14.0049 68.3528 14.8237 68.3782 16.4614V21H66.8357V16.5503C66.8357 16.1144 66.7405 15.7928 66.55 15.5854C66.3638 15.3739 66.057 15.2681 65.6296 15.2681C65.0076 15.2681 64.5442 15.5495 64.2395 16.1123V21H62.697V14.1318H64.1506ZM72.6372 19.0449L74.0908 14.1318H75.6841L73.3037 21H71.9643L69.5649 14.1318H71.1645L72.6372 19.0449ZM76.5217 17.5024C76.5217 16.8296 76.655 16.2244 76.9216 15.687C77.1882 15.1453 77.5627 14.7306 78.0451 14.4429C78.5276 14.1509 79.0819 14.0049 79.7082 14.0049C80.635 14.0049 81.3861 14.3032 81.9616 14.8999C82.5414 15.4966 82.8545 16.2879 82.9011 17.2739L82.9074 17.6357C82.9074 18.3128 82.7763 18.918 82.5139 19.4512C82.2557 19.9844 81.8834 20.397 81.3967 20.689C80.9143 20.981 80.3557 21.127 79.7209 21.127C78.7518 21.127 77.9753 20.8053 77.3913 20.1621C76.8116 19.5146 76.5217 18.6535 76.5217 17.5786V17.5024ZM78.0642 17.6357C78.0642 18.3424 78.2102 18.8968 78.5022 19.2988C78.7942 19.6966 79.2004 19.8955 79.7209 19.8955C80.2414 19.8955 80.6456 19.6924 80.9333 19.2861C81.2253 18.8799 81.3713 18.2853 81.3713 17.5024C81.3713 16.8084 81.2211 16.2583 80.9206 15.8521C80.6244 15.4458 80.2203 15.2427 79.7082 15.2427C79.2046 15.2427 78.8047 15.4437 78.5085 15.8457C78.2123 16.2435 78.0642 16.8402 78.0642 17.6357ZM86.1128 21H84.5703V14.1318H86.1128V21ZM84.4751 12.3481C84.4751 12.1112 84.5491 11.9144 84.6972 11.7578C84.8496 11.6012 85.0654 11.5229 85.3447 11.5229C85.624 11.5229 85.8398 11.6012 85.9921 11.7578C86.1445 11.9144 86.2207 12.1112 86.2207 12.3481C86.2207 12.5809 86.1445 12.7756 85.9921 12.9321C85.8398 13.0845 85.624 13.1606 85.3447 13.1606C85.0654 13.1606 84.8496 13.0845 84.6972 12.9321C84.5491 12.7756 84.4751 12.5809 84.4751 12.3481ZM90.8796 19.8955C91.2647 19.8955 91.5842 19.7834 91.8381 19.5591C92.092 19.3348 92.2274 19.0576 92.2443 18.7275H93.6979C93.681 19.1549 93.5477 19.5549 93.298 19.9272C93.0484 20.2954 92.7098 20.5874 92.2824 20.8032C91.855 21.019 91.3937 21.127 90.8986 21.127C89.938 21.127 89.1763 20.8159 88.6135 20.1938C88.0507 19.5718 87.7692 18.7127 87.7692 17.6167V17.458C87.7692 16.4128 88.0485 15.577 88.6071 14.9507C89.1657 14.3201 89.9274 14.0049 90.8923 14.0049C91.709 14.0049 92.3734 14.244 92.8854 14.7222C93.4017 15.1961 93.6726 15.8203 93.6979 16.5947H92.2443C92.2274 16.2012 92.092 15.8774 91.8381 15.6235C91.5884 15.3696 91.2689 15.2427 90.8796 15.2427C90.3802 15.2427 89.9951 15.4246 89.7243 15.7886C89.4535 16.1483 89.3159 16.6963 89.3117 17.4326V17.6802C89.3117 18.425 89.445 18.9814 89.7116 19.3496C89.9825 19.7135 90.3718 19.8955 90.8796 19.8955ZM98.1474 21.127C97.1699 21.127 96.3764 20.8201 95.767 20.2065C95.1619 19.5887 94.8593 18.7677 94.8593 17.7437V17.5532C94.8593 16.8677 94.9905 16.2562 95.2529 15.7188C95.5195 15.1771 95.8919 14.756 96.3701 14.4556C96.8483 14.1551 97.3815 14.0049 97.9697 14.0049C98.9049 14.0049 99.6264 14.3032 100.134 14.8999C100.646 15.4966 100.902 16.3408 100.902 17.4326V18.0547H96.4145C96.461 18.6217 96.6494 19.0703 96.9794 19.4004C97.3137 19.7305 97.7327 19.8955 98.2363 19.8955C98.943 19.8955 99.5185 19.6099 99.9628 19.0386L100.794 19.832C100.519 20.2425 100.151 20.562 99.6899 20.7905C99.2329 21.0148 98.7187 21.127 98.1474 21.127ZM97.9633 15.2427C97.5401 15.2427 97.1974 15.3908 96.935 15.687C96.6769 15.9832 96.5118 16.3958 96.4399 16.9248H99.3788V16.8105C99.345 16.2943 99.2075 15.9049 98.9663 15.6426C98.725 15.376 98.3907 15.2427 97.9633 15.2427ZM108.094 11.7578L110.76 18.8418L113.419 11.7578H115.495V21H113.895V17.9531L114.054 13.8779L111.325 21H110.176L107.453 13.8843L107.611 17.9531V21H106.012V11.7578H108.094ZM121.614 21C121.546 20.8688 121.487 20.6551 121.436 20.3589C120.945 20.8709 120.344 21.127 119.633 21.127C118.944 21.127 118.381 20.9302 117.945 20.5366C117.509 20.1431 117.291 19.6564 117.291 19.0767C117.291 18.3446 117.562 17.7839 118.104 17.3945C118.65 17.001 119.428 16.8042 120.44 16.8042H121.385V16.3535C121.385 15.998 121.286 15.7145 121.087 15.5029C120.888 15.2871 120.586 15.1792 120.179 15.1792C119.828 15.1792 119.54 15.2681 119.316 15.4458C119.092 15.6193 118.98 15.8415 118.98 16.1123H117.437C117.437 15.7357 117.562 15.3844 117.812 15.0586C118.061 14.7285 118.4 14.4704 118.827 14.2842C119.259 14.098 119.739 14.0049 120.268 14.0049C121.072 14.0049 121.713 14.208 122.192 14.6143C122.67 15.0163 122.915 15.5833 122.928 16.3154V19.4131C122.928 20.0309 123.015 20.5239 123.188 20.8921V21H121.614ZM119.919 19.8892C120.224 19.8892 120.509 19.8151 120.776 19.667C121.047 19.5189 121.25 19.32 121.385 19.0703V17.7754H120.554C119.983 17.7754 119.553 17.8748 119.265 18.0737C118.978 18.2726 118.834 18.554 118.834 18.918C118.834 19.2142 118.931 19.4512 119.126 19.6289C119.325 19.8024 119.589 19.8892 119.919 19.8892ZM127.035 18.0547L126.349 18.7593V21H124.807V11.25H126.349V16.874L126.831 16.271L128.729 14.1318H130.583L128.031 16.9946L130.856 21H129.072L127.035 18.0547ZM134.753 21.127C133.776 21.127 132.982 20.8201 132.373 20.2065C131.768 19.5887 131.465 18.7677 131.465 17.7437V17.5532C131.465 16.8677 131.596 16.2562 131.859 15.7188C132.125 15.1771 132.498 14.756 132.976 14.4556C133.454 14.1551 133.987 14.0049 134.575 14.0049C135.511 14.0049 136.232 14.3032 136.74 14.8999C137.252 15.4966 137.508 16.3408 137.508 17.4326V18.0547H133.02C133.067 18.6217 133.255 19.0703 133.585 19.4004C133.919 19.7305 134.338 19.8955 134.842 19.8955C135.549 19.8955 136.124 19.6099 136.568 19.0386L137.4 19.832C137.125 20.2425 136.757 20.562 136.296 20.7905C135.839 21.0148 135.324 21.127 134.753 21.127ZM134.569 15.2427C134.146 15.2427 133.803 15.3908 133.541 15.687C133.283 15.9832 133.117 16.3958 133.046 16.9248H135.985V16.8105C135.951 16.2943 135.813 15.9049 135.572 15.6426C135.331 15.376 134.996 15.2427 134.569 15.2427ZM142.567 15.541C142.364 15.5072 142.154 15.4902 141.938 15.4902C141.232 15.4902 140.756 15.7611 140.51 16.3027V21H138.968V14.1318H140.44L140.478 14.8999C140.851 14.3032 141.367 14.0049 142.027 14.0049C142.247 14.0049 142.429 14.0345 142.573 14.0938L142.567 15.541Z" fill="black"/>
<path d="M60.0142 38H58.9829V30.1797H60.0142V38ZM62.909 32.1885L62.9412 32.9189C63.3852 32.3604 63.9653 32.0811 64.6814 32.0811C65.9096 32.0811 66.5291 32.7739 66.5398 34.1597V38H65.5462V34.1543C65.5426 33.7354 65.4459 33.4256 65.2561 33.2251C65.0699 33.0246 64.7781 32.9243 64.3806 32.9243C64.0584 32.9243 63.7755 33.0103 63.532 33.1821C63.2885 33.354 63.0987 33.5796 62.9627 33.8589V38H61.969V32.1885H62.909ZM70.1758 36.6519L71.6153 32.1885H72.6304L70.5464 38H69.7891L67.6837 32.1885H68.6988L70.1758 36.6519ZM73.4574 35.0405C73.4574 34.4712 73.5684 33.9591 73.7904 33.5044C74.016 33.0496 74.3275 32.6987 74.7249 32.4517C75.126 32.2046 75.5825 32.0811 76.0946 32.0811C76.8859 32.0811 77.5251 32.355 78.0121 32.9028C78.5026 33.4507 78.7479 34.1794 78.7479 35.0889V35.1587C78.7479 35.7244 78.6387 36.2329 78.4203 36.6841C78.2054 37.1317 77.8957 37.4808 77.4911 37.7314C77.09 37.9821 76.6281 38.1074 76.1053 38.1074C75.3176 38.1074 74.6784 37.8335 74.1878 37.2856C73.7009 36.7378 73.4574 36.0127 73.4574 35.1104V35.0405ZM74.4564 35.1587C74.4564 35.8032 74.605 36.3206 74.9022 36.7109C75.203 37.1012 75.604 37.2964 76.1053 37.2964C76.6102 37.2964 77.0112 37.0994 77.3084 36.7056C77.6056 36.3081 77.7542 35.7531 77.7542 35.0405C77.7542 34.4032 77.6021 33.8875 77.2977 33.4937C76.9969 33.0962 76.5959 32.8975 76.0946 32.8975C75.604 32.8975 75.2083 33.0926 74.9076 33.4829C74.6068 33.8732 74.4564 34.4318 74.4564 35.1587ZM81.2936 38H80.2999V32.1885H81.2936V38ZM80.2194 30.647C80.2194 30.4858 80.2677 30.3498 80.3644 30.2388C80.4646 30.1278 80.6114 30.0723 80.8048 30.0723C80.9982 30.0723 81.145 30.1278 81.2452 30.2388C81.3455 30.3498 81.3956 30.4858 81.3956 30.647C81.3956 30.8081 81.3455 30.9424 81.2452 31.0498C81.145 31.1572 80.9982 31.2109 80.8048 31.2109C80.6114 31.2109 80.4646 31.1572 80.3644 31.0498C80.2677 30.9424 80.2194 30.8081 80.2194 30.647ZM85.4398 37.2964C85.7943 37.2964 86.1041 37.189 86.369 36.9741C86.634 36.7593 86.7808 36.4907 86.8095 36.1685H87.7494C87.7315 36.5015 87.6169 36.8184 87.4057 37.1191C87.1944 37.4199 86.9115 37.6598 86.557 37.8389C86.2061 38.0179 85.8337 38.1074 85.4398 38.1074C84.6485 38.1074 84.0183 37.8442 83.5492 37.3179C83.0837 36.7879 82.851 36.0646 82.851 35.1479V34.9814C82.851 34.4157 82.9548 33.9126 83.1625 33.4722C83.3702 33.0317 83.6674 32.6898 84.0541 32.4463C84.4444 32.2028 84.9045 32.0811 85.4345 32.0811C86.0862 32.0811 86.6269 32.2762 87.0565 32.6665C87.4898 33.0568 87.7208 33.5635 87.7494 34.1865H86.8095C86.7808 33.8105 86.6376 33.5026 86.3798 33.2627C86.1256 33.0192 85.8104 32.8975 85.4345 32.8975C84.9296 32.8975 84.5375 33.0801 84.2582 33.4453C83.9825 33.807 83.8446 34.3315 83.8446 35.019V35.207C83.8446 35.8766 83.9825 36.3923 84.2582 36.7539C84.5339 37.1156 84.9278 37.2964 85.4398 37.2964ZM91.4982 38.1074C90.7105 38.1074 90.0695 37.8496 89.5754 37.334C89.0812 36.8148 88.8342 36.1219 88.8342 35.2554V35.0728C88.8342 34.4963 88.9434 33.9824 89.1618 33.5312C89.3838 33.0765 89.6917 32.722 90.0856 32.4678C90.4831 32.21 90.9128 32.0811 91.3747 32.0811C92.1302 32.0811 92.7175 32.3299 93.1364 32.8276C93.5554 33.3254 93.7648 34.0379 93.7648 34.9653V35.3789H89.8278C89.8421 35.9518 90.0086 36.4155 90.3273 36.77C90.6496 37.1209 91.0578 37.2964 91.5519 37.2964C91.9028 37.2964 92.2 37.2248 92.4435 37.0815C92.687 36.9383 92.9001 36.7485 93.0827 36.5122L93.6896 36.9849C93.2026 37.7332 92.4722 38.1074 91.4982 38.1074ZM91.3747 32.8975C90.9736 32.8975 90.6371 33.0443 90.3649 33.3379C90.0928 33.6279 89.9245 34.0361 89.86 34.5625H92.7712V34.4873C92.7425 33.9824 92.6065 33.5921 92.363 33.3164C92.1195 33.0371 91.7901 32.8975 91.3747 32.8975ZM99.9895 36.5444L101.343 32.1885H102.406L100.07 38.897C99.7084 39.8638 99.1337 40.3472 98.3459 40.3472L98.1579 40.3311L97.7873 40.2612V39.4556L98.0559 39.4771C98.3925 39.4771 98.6539 39.409 98.8401 39.2729C99.0299 39.1369 99.1856 38.888 99.3074 38.5264L99.5276 37.9355L97.4543 32.1885H98.5393L99.9895 36.5444ZM103.169 35.0405C103.169 34.4712 103.28 33.9591 103.502 33.5044C103.728 33.0496 104.039 32.6987 104.437 32.4517C104.838 32.2046 105.294 32.0811 105.806 32.0811C106.598 32.0811 107.237 32.355 107.724 32.9028C108.214 33.4507 108.459 34.1794 108.459 35.0889V35.1587C108.459 35.7244 108.35 36.2329 108.132 36.6841C107.917 37.1317 107.607 37.4808 107.203 37.7314C106.802 37.9821 106.34 38.1074 105.817 38.1074C105.029 38.1074 104.39 37.8335 103.899 37.2856C103.412 36.7378 103.169 36.0127 103.169 35.1104V35.0405ZM104.168 35.1587C104.168 35.8032 104.317 36.3206 104.614 36.7109C104.915 37.1012 105.316 37.2964 105.817 37.2964C106.322 37.2964 106.723 37.0994 107.02 36.7056C107.317 36.3081 107.466 35.7531 107.466 35.0405C107.466 34.4032 107.314 33.8875 107.009 33.4937C106.709 33.0962 106.307 32.8975 105.806 32.8975C105.316 32.8975 104.92 33.0926 104.619 33.4829C104.318 33.8732 104.168 34.4318 104.168 35.1587ZM113.513 37.4253C113.127 37.88 112.559 38.1074 111.811 38.1074C111.191 38.1074 110.719 37.9284 110.393 37.5703C110.071 37.2087 109.908 36.6751 109.904 35.9697V32.1885H110.898V35.9429C110.898 36.8237 111.256 37.2642 111.972 37.2642C112.731 37.2642 113.236 36.9813 113.487 36.4155V32.1885H114.48V38H113.535L113.513 37.4253ZM119.024 33.0801C118.874 33.055 118.711 33.0425 118.535 33.0425C117.884 33.0425 117.441 33.32 117.209 33.875V38H116.215V32.1885H117.182L117.198 32.8599C117.524 32.3407 117.986 32.0811 118.584 32.0811C118.777 32.0811 118.924 32.1061 119.024 32.1562V33.0801ZM125.442 37.2964C125.797 37.2964 126.106 37.189 126.371 36.9741C126.636 36.7593 126.783 36.4907 126.812 36.1685H127.752C127.734 36.5015 127.619 36.8184 127.408 37.1191C127.197 37.4199 126.914 37.6598 126.559 37.8389C126.208 38.0179 125.836 38.1074 125.442 38.1074C124.651 38.1074 124.02 37.8442 123.551 37.3179C123.086 36.7879 122.853 36.0646 122.853 35.1479V34.9814C122.853 34.4157 122.957 33.9126 123.165 33.4722C123.372 33.0317 123.67 32.6898 124.056 32.4463C124.447 32.2028 124.907 32.0811 125.437 32.0811C126.088 32.0811 126.629 32.2762 127.059 32.6665C127.492 33.0568 127.723 33.5635 127.752 34.1865H126.812C126.783 33.8105 126.64 33.5026 126.382 33.2627C126.128 33.0192 125.813 32.8975 125.437 32.8975C124.932 32.8975 124.54 33.0801 124.26 33.4453C123.985 33.807 123.847 34.3315 123.847 35.019V35.207C123.847 35.8766 123.985 36.3923 124.26 36.7539C124.536 37.1156 124.93 37.2964 125.442 37.2964ZM132.677 37.4253C132.29 37.88 131.722 38.1074 130.974 38.1074C130.355 38.1074 129.882 37.9284 129.556 37.5703C129.234 37.2087 129.071 36.6751 129.067 35.9697V32.1885H130.061V35.9429C130.061 36.8237 130.419 37.2642 131.135 37.2642C131.894 37.2642 132.399 36.9813 132.65 36.4155V32.1885H133.643V38H132.698L132.677 37.4253ZM138.762 36.4585C138.762 36.1899 138.66 35.9823 138.456 35.8354C138.255 35.6851 137.903 35.5562 137.398 35.4487C136.896 35.3413 136.497 35.2124 136.2 35.062C135.906 34.9116 135.688 34.7326 135.545 34.5249C135.405 34.3172 135.335 34.0701 135.335 33.7837C135.335 33.3075 135.536 32.9046 135.937 32.5752C136.341 32.2458 136.857 32.0811 137.484 32.0811C138.142 32.0811 138.676 32.2511 139.084 32.5913C139.496 32.9315 139.702 33.3665 139.702 33.8965H138.703C138.703 33.6243 138.586 33.3898 138.354 33.1929C138.125 32.9959 137.835 32.8975 137.484 32.8975C137.122 32.8975 136.839 32.9762 136.635 33.1338C136.431 33.2913 136.329 33.4972 136.329 33.7515C136.329 33.9914 136.424 34.1722 136.613 34.2939C136.803 34.4157 137.145 34.5321 137.639 34.6431C138.137 34.7541 138.54 34.8866 138.848 35.0405C139.156 35.1945 139.383 35.3807 139.53 35.5991C139.68 35.814 139.756 36.0771 139.756 36.3887C139.756 36.9079 139.548 37.325 139.133 37.6401C138.717 37.9517 138.178 38.1074 137.516 38.1074C137.05 38.1074 136.639 38.0251 136.28 37.8604C135.922 37.6956 135.641 37.4665 135.437 37.1729C135.237 36.8757 135.136 36.5552 135.136 36.2114H136.13C136.148 36.5444 136.28 36.8094 136.528 37.0063C136.778 37.1997 137.108 37.2964 137.516 37.2964C137.892 37.2964 138.193 37.2212 138.418 37.0708C138.647 36.9168 138.762 36.7127 138.762 36.4585ZM142.618 30.7812V32.1885H143.703V32.9565H142.618V36.5605C142.618 36.7933 142.666 36.9688 142.763 37.0869C142.86 37.2015 143.025 37.2588 143.257 37.2588C143.372 37.2588 143.529 37.2373 143.73 37.1943V38C143.469 38.0716 143.214 38.1074 142.967 38.1074C142.523 38.1074 142.188 37.9731 141.963 37.7046C141.737 37.436 141.624 37.0547 141.624 36.5605V32.9565H140.566V32.1885H141.624V30.7812H142.618ZM144.718 35.0405C144.718 34.4712 144.829 33.9591 145.051 33.5044C145.277 33.0496 145.588 32.6987 145.986 32.4517C146.387 32.2046 146.843 32.0811 147.355 32.0811C148.147 32.0811 148.786 32.355 149.273 32.9028C149.763 33.4507 150.009 34.1794 150.009 35.0889V35.1587C150.009 35.7244 149.899 36.2329 149.681 36.6841C149.466 37.1317 149.156 37.4808 148.752 37.7314C148.351 37.9821 147.889 38.1074 147.366 38.1074C146.578 38.1074 145.939 37.8335 145.448 37.2856C144.962 36.7378 144.718 36.0127 144.718 35.1104V35.0405ZM145.717 35.1587C145.717 35.8032 145.866 36.3206 146.163 36.7109C146.464 37.1012 146.865 37.2964 147.366 37.2964C147.871 37.2964 148.272 37.0994 148.569 36.7056C148.866 36.3081 149.015 35.7531 149.015 35.0405C149.015 34.4032 148.863 33.8875 148.558 33.4937C148.258 33.0962 147.857 32.8975 147.355 32.8975C146.865 32.8975 146.469 33.0926 146.168 33.4829C145.867 33.8732 145.717 34.4318 145.717 35.1587ZM152.409 32.1885L152.436 32.833C152.862 32.3317 153.437 32.0811 154.16 32.0811C154.973 32.0811 155.526 32.3926 155.82 33.0156C156.013 32.7363 156.264 32.5107 156.572 32.3389C156.883 32.167 157.25 32.0811 157.673 32.0811C158.948 32.0811 159.596 32.756 159.617 34.106V38H158.624V34.165C158.624 33.7497 158.529 33.4399 158.339 33.2358C158.149 33.0282 157.83 32.9243 157.383 32.9243C157.014 32.9243 156.708 33.0353 156.464 33.2573C156.221 33.4757 156.079 33.7712 156.04 34.1436V38H155.041V34.1919C155.041 33.3468 154.627 32.9243 153.8 32.9243C153.149 32.9243 152.703 33.2018 152.463 33.7568V38H151.469V32.1885H152.409ZM163.753 38.1074C162.965 38.1074 162.324 37.8496 161.83 37.334C161.336 36.8148 161.089 36.1219 161.089 35.2554V35.0728C161.089 34.4963 161.198 33.9824 161.416 33.5312C161.638 33.0765 161.946 32.722 162.34 32.4678C162.738 32.21 163.167 32.0811 163.629 32.0811C164.385 32.0811 164.972 32.3299 165.391 32.8276C165.81 33.3254 166.019 34.0379 166.019 34.9653V35.3789H162.082C162.097 35.9518 162.263 36.4155 162.582 36.77C162.904 37.1209 163.312 37.2964 163.806 37.2964C164.157 37.2964 164.455 37.2248 164.698 37.0815C164.942 36.9383 165.155 36.7485 165.337 36.5122L165.944 36.9849C165.457 37.7332 164.727 38.1074 163.753 38.1074ZM163.629 32.8975C163.228 32.8975 162.892 33.0443 162.619 33.3379C162.347 33.6279 162.179 34.0361 162.115 34.5625H165.026V34.4873C164.997 33.9824 164.861 33.5921 164.618 33.3164C164.374 33.0371 164.045 32.8975 163.629 32.8975ZM170.203 33.0801C170.053 33.055 169.89 33.0425 169.714 33.0425C169.063 33.0425 168.621 33.32 168.388 33.875V38H167.394V32.1885H168.361L168.377 32.8599C168.703 32.3407 169.165 32.0811 169.763 32.0811C169.956 32.0811 170.103 32.1061 170.203 32.1562V33.0801ZM174.725 36.4585C174.725 36.1899 174.623 35.9823 174.419 35.8354C174.219 35.6851 173.866 35.5562 173.361 35.4487C172.86 35.3413 172.461 35.2124 172.163 35.062C171.87 34.9116 171.651 34.7326 171.508 34.5249C171.369 34.3172 171.299 34.0701 171.299 33.7837C171.299 33.3075 171.499 32.9046 171.9 32.5752C172.305 32.2458 172.821 32.0811 173.447 32.0811C174.106 32.0811 174.64 32.2511 175.048 32.5913C175.46 32.9315 175.665 33.3665 175.665 33.8965H174.666C174.666 33.6243 174.55 33.3898 174.317 33.1929C174.088 32.9959 173.798 32.8975 173.447 32.8975C173.085 32.8975 172.803 32.9762 172.599 33.1338C172.394 33.2913 172.292 33.4972 172.292 33.7515C172.292 33.9914 172.387 34.1722 172.577 34.2939C172.767 34.4157 173.109 34.5321 173.603 34.6431C174.101 34.7541 174.503 34.8866 174.811 35.0405C175.119 35.1945 175.347 35.3807 175.494 35.5991C175.644 35.814 175.719 36.0771 175.719 36.3887C175.719 36.9079 175.511 37.325 175.096 37.6401C174.681 37.9517 174.142 38.1074 173.479 38.1074C173.014 38.1074 172.602 38.0251 172.244 37.8604C171.886 37.6956 171.605 37.4665 171.401 37.1729C171.2 36.8757 171.1 36.5552 171.1 36.2114H172.094C172.112 36.5444 172.244 36.8094 172.491 37.0063C172.742 37.1997 173.071 37.2964 173.479 37.2964C173.855 37.2964 174.156 37.2212 174.382 37.0708C174.611 36.9168 174.725 36.7127 174.725 36.4585Z" fill="black"/>
<rect width="50" height="50" rx="12" fill="#007AFF"/>
<g filter="url(#filter0_d)">
<path d="M36.7367 40.3237H16.5255V36.0869H40.0625C40.1718 36.0869 40.2555 36.1864 40.2377 36.2942C39.5714 40.3237 36.7367 40.3237 36.7367 40.3237Z" fill="#AFCDFB"/>
<path d="M36.7367 40.3237H16.5255V36.0869H40.0625C40.1718 36.0869 40.2555 36.1864 40.2377 36.2942C39.5714 40.3237 36.7367 40.3237 36.7367 40.3237Z" fill="url(#paint0_linear)"/>
<g opacity="0.6">
<path d="M39.8192 14.8686L16.6988 14.8686C16.6325 14.8686 16.5718 14.9077 16.5405 14.9663C10.4798 26.3404 10.503 27.3568 10.503 27.3568L32.3417 33.2137C32.3417 33.2137 32.9757 25.3735 39.9623 15.154C40.0441 15.0343 39.9642 14.8686 39.8192 14.8686Z" fill="#F8FBFF"/>
<path d="M39.8192 14.8686L16.6988 14.8686C16.6325 14.8686 16.5718 14.9077 16.5405 14.9663C10.4798 26.3404 10.503 27.3568 10.503 27.3568L32.3417 33.2137C32.3417 33.2137 32.9757 25.3735 39.9623 15.154C40.0441 15.0343 39.9642 14.8686 39.8192 14.8686Z" fill="url(#paint1_linear)"/>
<path d="M29.4512 16.7583C29.4111 16.9824 29.1967 17.1325 28.9724 17.0935L20.2757 15.582C20.0513 15.543 19.902 15.3297 19.942 15.1056V15.1056C19.9821 14.8814 20.1965 14.7313 20.4209 14.7703L29.1176 16.2818C29.342 16.3208 29.4913 16.5342 29.4512 16.7583V16.7583Z" fill="black"/>
<path d="M31.6068 18.6125C31.5666 18.8375 31.3516 18.9881 31.1264 18.9488L17.6208 16.593C17.3957 16.5537 17.2457 16.3395 17.2858 16.1144V16.1144C17.3259 15.8894 17.5409 15.7389 17.7661 15.7781L31.2717 18.134C31.4968 18.1733 31.6469 18.3875 31.6068 18.6125V18.6125Z" fill="black"/>
<path d="M30.606 21.8805L16.0629 19.3162C15.9509 19.2965 15.8758 19.1881 15.8956 19.0757C15.9154 18.963 16.0231 18.8872 16.1351 18.907L30.6781 21.4713C30.7902 21.4911 30.8653 21.5995 30.8455 21.7118C30.826 21.8245 30.718 21.9003 30.606 21.8805Z" fill="black"/>
<path d="M30.4619 22.7416L15.9189 20.1773C15.8068 20.1575 15.7317 20.0491 15.7515 19.9368C15.7713 19.8241 15.879 19.7483 15.991 19.7681L30.5341 22.3324C30.6461 22.3522 30.7212 22.4606 30.7014 22.5729C30.6819 22.6856 30.5739 22.7614 30.4619 22.7416Z" fill="black"/>
<path d="M15.7587 21.0854L24.7152 22.6647C24.8272 22.6844 24.9352 22.6086 24.9547 22.4959C24.9746 22.3832 24.8994 22.2752 24.7874 22.2554L15.8309 20.6762C15.7189 20.6564 15.6112 20.7322 15.5914 20.8449C15.5715 20.9576 15.6467 21.0656 15.7587 21.0854Z" fill="black"/>
</g>
<g opacity="0.6">
<path d="M38.2522 13.0055L15.0724 13.0055C14.9958 13.0055 14.9292 13.0564 14.9043 13.1288C10.7064 25.3181 11.2386 29.9735 11.2386 29.9735L32.582 30.6842C32.582 30.6842 33.7504 21.9004 38.4062 13.2729C38.471 13.1528 38.3888 13.0055 38.2522 13.0055Z" fill="#F8FBFF"/>
<path d="M38.2522 13.0055L15.0724 13.0055C14.9958 13.0055 14.9292 13.0564 14.9043 13.1288C10.7064 25.3181 11.2386 29.9735 11.2386 29.9735L32.582 30.6842C32.582 30.6842 33.7504 21.9004 38.4062 13.2729C38.471 13.1528 38.3888 13.0055 38.2522 13.0055Z" fill="url(#paint2_linear)"/>
<path d="M28.9275 15.4136C28.9073 15.6388 28.7083 15.8058 28.483 15.7865L19.6767 15.0341C19.4514 15.0148 19.2851 14.8166 19.3053 14.5914V14.5914C19.3254 14.3662 19.5244 14.1992 19.7498 14.2185L28.5561 14.9709C28.7814 14.9902 28.9477 15.1884 28.9275 15.4136V15.4136Z" fill="black"/>
<path d="M31.2364 17.0742C31.2162 17.3006 31.0163 17.4683 30.7899 17.4489L17.1201 16.2753C16.8937 16.2558 16.7265 16.0566 16.7467 15.8302V15.8302C16.7668 15.6039 16.9667 15.4362 17.1931 15.4556L30.863 16.6292C31.0894 16.6487 31.2566 16.8479 31.2364 17.0742V17.0742Z" fill="black"/>
<path d="M30.5195 20.4124L15.8083 19.1253C15.6949 19.1154 15.6106 19.014 15.6206 18.9003C15.6305 18.7864 15.7312 18.7015 15.8445 18.7114L30.5557 19.9984C30.669 20.0083 30.7533 20.1098 30.7434 20.2234C30.7338 20.3374 30.6328 20.4223 30.5195 20.4124Z" fill="black"/>
<path d="M30.451 21.2828L15.7398 19.9957C15.6264 19.9858 15.5421 19.8844 15.5521 19.7707C15.562 19.6567 15.6627 19.5718 15.776 19.5817L30.4872 20.8688C30.6005 20.8787 30.6848 20.9802 30.6749 21.0938C30.6653 21.2078 30.5643 21.2927 30.451 21.2828Z" fill="black"/>
<path d="M15.6594 20.9143L24.7194 21.707C24.8328 21.7169 24.9337 21.632 24.9434 21.518C24.9533 21.404 24.869 21.3029 24.7557 21.293L15.6956 20.5003C15.5823 20.4904 15.4817 20.5753 15.4717 20.6893C15.4617 20.8033 15.5461 20.9044 15.6594 20.9143Z" fill="black"/>
</g>
<path d="M36.6706 11.0079C36.8029 11.0079 36.8888 11.1472 36.8325 11.2669C31.8258 21.9139 32.5383 32.6907 32.5383 32.6907L32.5377 32.6907C32.2389 35.5539 33.6104 39.9343 36.753 40.341H17.132C11.9824 40.341 9.86697 36.6592 9.866 32.691C9.86628 32.6907 9.86627 32.6907 9.86627 32.6907L9.86697 32.6907C9.86697 32.6907 9.14746 21.7159 14.239 11.0842C14.2688 11.0219 14.333 10.9819 14.4019 10.9819C24.047 10.9821 30.6915 11.0071 36.6706 11.0079Z" fill="url(#paint3_radial)"/>
<rect x="15.8877" y="13.7163" width="6.99603" height="1.47285" rx="0.736424" fill="#C3D1E6"/>
<rect x="13.0879" y="28.0781" width="6.99603" height="1.47285" rx="0.736424" fill="#CFDBEC"/>
<rect x="13.6416" y="21.4497" width="17.085" height="1.47285" rx="0.736424" fill="#CFDBEC"/>
<rect x="13.0879" y="24.7637" width="17.085" height="1.47285" rx="0.736424" fill="#CFDBEC"/>
<rect x="14.7812" y="17.0308" width="8.94755" height="1.47285" rx="0.736424" fill="#CFDBEC"/>
</g>
<path fill-rule="evenodd" clip-rule="evenodd" d="M28.7525 34.4442C28.0997 35.4944 26.9355 36.1935 25.608 36.1935C24.9756 36.1935 24.3803 36.0349 23.8597 35.7552L22.9259 36.0054C23.6696 36.5743 24.5993 36.9123 25.608 36.9123C27.4459 36.9123 29.0218 35.7901 29.6877 34.1936L28.7525 34.4442ZM23.3592 35.4319C22.477 34.7557 21.9082 33.6911 21.9082 32.4937C21.9082 32.0319 21.9928 31.5898 22.1474 31.1821L21.3252 31.4024C21.2366 31.7515 21.1895 32.1171 21.1895 32.4937C21.1895 33.7334 21.6999 34.8537 22.5221 35.6562L23.3592 35.4319ZM21.4847 30.9023C22.1235 29.2484 23.7288 28.0752 25.608 28.0752C26.6586 28.0752 27.6235 28.4419 28.3819 29.0542L27.473 29.2977C26.9254 28.9775 26.2881 28.7939 25.608 28.7939C24.2325 28.7939 23.0324 29.5445 22.3948 30.6584L21.4847 30.9023ZM27.9481 29.6279C28.778 30.3063 29.3078 31.3382 29.3078 32.4937C29.3078 32.9968 29.2074 33.4764 29.0256 33.9136L29.8629 33.6892C29.9695 33.309 30.0265 32.908 30.0265 32.4937C30.0265 31.2929 29.5475 30.204 28.7702 29.4076L27.9481 29.6279Z" fill="#F23333"/>
<path d="M20.1691 32.9321C20.0624 32.5337 20.009 32.3345 20.0458 32.1616C20.0781 32.0094 20.1578 31.8715 20.2733 31.7674C20.4047 31.6491 20.6039 31.5957 21.0023 31.489L29.1134 29.3156C29.5118 29.2089 29.711 29.1555 29.8839 29.1922C30.036 29.2246 30.174 29.3042 30.2781 29.4198C30.3964 29.5512 30.4498 29.7504 30.5565 30.1488L31.0902 32.1405C31.1969 32.5389 31.2503 32.7381 31.2135 32.911C31.1812 33.0631 31.1016 33.2011 30.986 33.3052C30.8546 33.4235 30.6554 33.4768 30.257 33.5836L22.1459 35.757C21.7475 35.8637 21.5483 35.9171 21.3754 35.8803C21.2233 35.848 21.0853 35.7683 20.9812 35.6528C20.8629 35.5214 20.8095 35.3222 20.7028 34.9238L20.1691 32.9321Z" fill="#F23333"/>
<path d="M22.9905 32.1703L22.0371 32.4257L22.6088 34.5592L23.2246 34.3942L23.0638 33.794L23.3936 33.7057C23.9203 33.5645 24.0836 33.1489 23.9727 32.7347C23.8638 32.3283 23.5173 32.0291 22.9905 32.1703ZM23.349 32.9018C23.4047 33.1096 23.3031 33.2491 23.103 33.3027L22.9404 33.3463L22.7729 32.7211L22.9511 32.6734C23.1418 32.6223 23.2946 32.6986 23.349 32.9018Z" fill="white"/>
<path d="M24.9282 33.9377L24.9218 33.4821L25.5251 33.3205L25.7441 33.7191L26.4037 33.5424L25.1787 31.584L24.4035 31.7917L24.3171 34.1015L24.9282 33.9377ZM24.9243 32.21L25.3062 32.9101L24.9092 33.0164L24.8946 32.2179L24.9243 32.21Z" fill="white"/>
<path d="M27.2118 33.3259L26.6401 31.1924L26.0227 31.3578L26.5944 33.4913L27.2118 33.3259Z" fill="white"/>
<path d="M27.0168 31.0915L27.5884 33.2249L28.4903 32.9833C29.1655 32.8024 29.3524 32.2933 29.1782 31.6431C29.0065 31.0022 28.6048 30.666 27.9186 30.8498L27.0168 31.0915ZM27.7623 31.4043L27.9374 31.3574C28.3156 31.256 28.4677 31.5235 28.5498 31.8299C28.6871 32.3425 28.4934 32.4698 28.2527 32.5343L28.0777 32.5812L27.7623 31.4043Z" fill="white"/>
<defs>
<filter id="filter0_d" x="9.47266" y="7.15088" width="31.1267" height="36.2448" filterUnits="userSpaceOnUse" color-interpolation-filters="sRGB">
<feFlood flood-opacity="0" result="BackgroundImageFix"/>
<feColorMatrix in="SourceAlpha" type="matrix" values="0 0 0 0 0 0 0 0 0 0 0 0 0 0 0 0 0 0 127 0" result="hardAlpha"/>
<feOffset dy="2.69531"/>
<feGaussianBlur stdDeviation="0.179688"/>
<feColorMatrix type="matrix" values="0 0 0 0 0 0 0 0 0 0 0 0 0 0 0 0 0 0 1 0"/>
<feBlend mode="color-dodge" in2="BackgroundImageFix" result="effect1_dropShadow"/>
<feBlend mode="normal" in="SourceGraphic" in2="effect1_dropShadow" result="shape"/>
</filter>
<linearGradient id="paint0_linear" x1="33.7918" y1="38.8624" x2="39.1012" y2="38.8624" gradientUnits="userSpaceOnUse">
<stop stop-color="#9DC4FE"/>
<stop offset="1" stop-color="#CEDFFF"/>
</linearGradient>
<linearGradient id="paint1_linear" x1="18.1986" y1="18.8919" x2="31.3461" y2="23.419" gradientUnits="userSpaceOnUse">
<stop stop-color="#EFDAD5"/>
<stop offset="0.470672" stop-color="#DEF1D6"/>
<stop offset="1" stop-color="#C5E8F0"/>
</linearGradient>
<linearGradient id="paint2_linear" x1="12.6105" y1="19.7841" x2="34.2623" y2="23.6019" gradientUnits="userSpaceOnUse">
<stop stop-color="white"/>
<stop offset="1" stop-color="#96CDFF"/>
</linearGradient>
<radialGradient id="paint3_radial" cx="0" cy="0" r="1" gradientUnits="userSpaceOnUse" gradientTransform="translate(25.1109 6.82964) rotate(90) scale(34.7224 69.9465)">
<stop stop-color="white"/>
<stop offset="0.862545" stop-color="white"/>
<stop offset="0.895833" stop-color="#E2F0FF"/>
<stop offset="0.942708" stop-color="#ADD3FF"/>
<stop offset="1" stop-color="#61A9FE"/>
</radialGradient>
</defs>
</svg>
