<svg width="260" height="238" viewBox="0 0 260 238" fill="none" xmlns="http://www.w3.org/2000/svg">
<g filter="url(#filter0_d)">
<rect x="67.9971" y="12.7427" width="124.003" height="124.003" rx="62.0016" fill="#007AFF"/>
<g filter="url(#filter1_d)">
<path d="M159.115 112.744H108.99V102.236H167.67C167.779 102.236 167.863 102.337 167.846 102.445C166.288 112.744 159.115 112.744 159.115 112.744Z" fill="#AFCDFB"/>
<path d="M159.115 112.744H108.99V102.236H167.67C167.779 102.236 167.863 102.337 167.846 102.445C166.288 112.744 159.115 112.744 159.115 112.744Z" fill="url(#paint0_linear)"/>
<g opacity="0.6">
<path d="M167.245 49.6178L109.242 49.6177C109.176 49.6177 109.115 49.657 109.084 49.7156C93.9757 78.0601 94.0333 80.5893 94.0333 80.5893L148.195 95.1149C148.195 95.1149 149.785 75.4543 167.384 49.9035C167.466 49.7841 167.39 49.6178 167.245 49.6178Z" fill="#F8FBFF"/>
<path d="M167.245 49.6178L109.242 49.6177C109.176 49.6177 109.115 49.657 109.084 49.7156C93.9757 78.0601 94.0333 80.5893 94.0333 80.5893L148.195 95.1149C148.195 95.1149 149.785 75.4543 167.384 49.9035C167.466 49.7841 167.39 49.6178 167.245 49.6178Z" fill="url(#paint1_linear)"/>
<path d="M141.035 54.2983C140.936 54.8542 140.404 55.2265 139.848 55.1297L118.279 51.381C117.723 51.2843 117.352 50.7553 117.452 50.1994C117.551 49.6435 118.083 49.2713 118.639 49.368L140.208 53.1167C140.764 53.2134 141.135 53.7424 141.035 54.2983Z" fill="black"/>
<path d="M146.382 58.8962C146.282 59.4543 145.749 59.8277 145.191 59.7303L111.696 53.8876C111.137 53.7902 110.765 53.2589 110.865 52.7009C110.964 52.1428 111.498 51.7694 112.056 51.8668L145.551 57.7094C146.109 57.8068 146.481 58.3382 146.382 58.8962Z" fill="black"/>
<path d="M143.916 67.0066L107.848 60.6469C107.57 60.5979 107.384 60.3291 107.433 60.0504C107.482 59.771 107.749 59.5829 108.027 59.6319L144.095 65.9916C144.373 66.0406 144.559 66.3095 144.51 66.5881C144.461 66.8677 144.194 67.0556 143.916 67.0066Z" fill="black"/>
<path d="M143.558 69.1422L107.491 62.7825C107.213 62.7335 107.027 62.4646 107.076 62.186C107.125 61.9066 107.392 61.7185 107.67 61.7675L143.737 68.1272C144.015 68.1762 144.202 68.4451 144.153 68.7237C144.104 69.0033 143.836 69.1911 143.558 69.1422Z" fill="black"/>
<path d="M107.094 65.0346L129.306 68.9513C129.584 69.0002 129.852 68.8123 129.9 68.5327C129.95 68.2533 129.763 67.9853 129.485 67.9363L107.273 64.0196C106.995 63.9706 106.728 64.1587 106.679 64.4381C106.629 64.7176 106.816 64.9856 107.094 65.0346Z" fill="black"/>
</g>
<g opacity="0.6">
<path d="M163.324 44.99L105.204 44.99C105.128 44.99 105.061 45.0411 105.036 45.1135C94.5571 75.4795 95.8824 87.0717 95.8824 87.0717L148.815 88.8344C148.815 88.8344 151.749 66.7804 163.474 45.2574C163.54 45.1375 163.46 44.99 163.324 44.99Z" fill="#F8FBFF"/>
<path d="M163.324 44.99L105.204 44.99C105.128 44.99 105.061 45.0411 105.036 45.1135C94.5571 75.4795 95.8824 87.0717 95.8824 87.0717L148.815 88.8344C148.815 88.8344 151.749 66.7804 163.474 45.2574C163.54 45.1375 163.46 44.99 163.324 44.99Z" fill="url(#paint2_linear)"/>
<path d="M139.747 50.967C139.697 51.5255 139.203 51.9397 138.644 51.8919L116.804 50.0258C116.245 49.978 115.833 49.4865 115.883 48.9279C115.933 48.3693 116.427 47.9552 116.985 48.003L138.826 49.8691C139.384 49.9168 139.797 50.4084 139.747 50.967Z" fill="black"/>
<path d="M145.474 55.0879C145.424 55.6493 144.928 56.0653 144.366 56.0171L110.464 53.1064C109.903 53.0582 109.488 52.5641 109.538 52.0027C109.588 51.4414 110.084 51.0254 110.646 51.0736L144.548 53.9843C145.109 54.0325 145.524 54.5266 145.474 55.0879Z" fill="black"/>
<path d="M143.693 63.3644L107.209 60.1724C106.928 60.1478 106.719 59.8962 106.743 59.6144C106.768 59.3317 107.017 59.1211 107.299 59.1457L143.783 62.3377C144.064 62.3623 144.273 62.6139 144.249 62.8957C144.225 63.1785 143.974 63.389 143.693 63.3644Z" fill="black"/>
<path d="M143.524 65.523L107.039 62.331C106.758 62.3064 106.549 62.0548 106.573 61.773C106.598 61.4903 106.848 61.2797 107.129 61.3043L143.613 64.4963C143.894 64.5209 144.104 64.7725 144.079 65.0543C144.055 65.3371 143.805 65.5476 143.524 65.523Z" fill="black"/>
<path d="M106.84 64.6092L129.309 66.575C129.59 66.5996 129.84 66.389 129.864 66.1063C129.889 65.8236 129.68 65.5729 129.399 65.5483L106.929 63.5825C106.648 63.5579 106.399 63.7685 106.374 64.0512C106.349 64.3338 106.558 64.5846 106.84 64.6092Z" fill="black"/>
</g>
<path d="M159.379 40.0376C159.511 40.0376 159.597 40.1771 159.54 40.2966C146.924 66.8257 148.709 93.8124 148.709 93.8124L148.707 93.8123C147.966 100.913 151.367 111.777 159.161 112.785H110.5C97.7286 112.785 92.4821 103.654 92.4797 93.813C92.4804 93.8123 92.4804 93.8123 92.4804 93.8123L92.4821 93.8124C92.4821 93.8124 90.6909 66.4899 103.398 40.0754C103.428 40.0132 103.492 39.9731 103.561 39.9731C127.8 39.9733 144.406 40.0368 159.379 40.0376Z" fill="url(#paint3_radial)"/>
<rect x="107.419" y="46.7559" width="17.3506" height="3.65276" rx="1.82638" fill="#C3D1E6"/>
<rect x="100.473" y="82.3721" width="17.3506" height="3.65276" rx="1.82638" fill="#CFDBEC"/>
<rect x="101.848" y="65.939" width="42.372" height="3.65276" rx="1.82638" fill="#CFDBEC"/>
<rect x="100.473" y="74.1528" width="42.372" height="3.65276" rx="1.82638" fill="#CFDBEC"/>
<rect x="104.668" y="54.9717" width="22.1905" height="3.65276" rx="1.82638" fill="#CFDBEC"/>
</g>
<path fill-rule="evenodd" clip-rule="evenodd" d="M140.726 97.7826C139.068 101.205 135.562 103.565 131.504 103.565C129.37 103.565 127.389 102.913 125.748 101.796L124.853 102.036C126.697 103.446 129.003 104.284 131.504 104.284C136.062 104.284 139.97 101.502 141.622 97.5425L140.726 97.7826ZM124.669 100.95C122.579 99.0758 121.265 96.3544 121.265 93.326C121.265 92.3109 121.412 91.3303 121.687 90.4046L120.882 90.6202C120.663 91.4857 120.546 92.3922 120.546 93.326C120.546 96.4006 121.812 99.1794 123.852 101.17L124.669 100.95ZM121.278 89.3798C122.862 85.2776 126.843 82.3677 131.504 82.3677C134.11 82.3677 136.503 83.2772 138.384 84.7962L137.509 85.0308C135.822 83.8076 133.747 83.0864 131.504 83.0864C127.338 83.0864 123.754 85.5741 122.154 89.145L121.278 89.3798ZM138.542 85.8884C140.514 87.7548 141.744 90.3967 141.744 93.326C141.744 94.4378 141.566 95.5083 141.239 96.5106L142.056 96.2915C142.321 95.3483 142.462 94.3537 142.462 93.326C142.462 90.3481 141.275 87.6477 139.347 85.6727L138.542 85.8884Z" fill="#F23333"/>
<path d="M118.021 94.4136C117.756 93.4256 117.624 92.9316 117.715 92.5027C117.795 92.1254 117.993 91.7832 118.28 91.5251C118.605 91.2317 119.099 91.0994 120.087 90.8346L140.204 85.4445C141.192 85.1798 141.686 85.0474 142.115 85.1386C142.492 85.2188 142.834 85.4163 143.092 85.703C143.385 86.0288 143.518 86.5228 143.783 87.5108L145.106 92.4504C145.371 93.4385 145.503 93.9325 145.412 94.3614C145.332 94.7386 145.134 95.0808 144.848 95.3389C144.522 95.6323 144.028 95.7647 143.04 96.0294L122.924 101.419C121.936 101.684 121.442 101.817 121.013 101.725C120.636 101.645 120.293 101.448 120.035 101.161C119.742 100.835 119.609 100.341 119.345 99.3532L118.021 94.4136Z" fill="#F23333"/>
<path d="M125.012 92.5234L122.647 93.157L124.065 98.4481L125.592 98.0389L125.194 96.5504L126.012 96.3312C127.318 95.9812 127.723 94.9503 127.448 93.9231C127.178 92.9153 126.318 92.1734 125.012 92.5234ZM125.901 94.3375C126.039 94.8531 125.787 95.199 125.291 95.3319L124.888 95.44L124.472 93.8894L124.914 93.771C125.387 93.6443 125.766 93.8336 125.901 94.3375Z" fill="white"/>
<path d="M129.818 96.9067L129.802 95.7768L131.298 95.3759L131.841 96.3646L133.477 95.9263L130.439 91.0693L128.516 91.5844L128.302 97.3129L129.818 96.9067ZM129.808 92.6218L130.755 94.3581L129.77 94.6219L129.734 92.6416L129.808 92.6218Z" fill="white"/>
<path d="M135.481 95.3893L134.063 90.0981L132.532 90.5084L133.95 95.7995L135.481 95.3893Z" fill="white"/>
<path d="M134.997 89.8478L136.415 95.139L138.652 94.5397C140.326 94.091 140.79 92.8284 140.358 91.2159C139.932 89.6266 138.936 88.7925 137.234 89.2485L134.997 89.8478ZM136.846 90.6237L137.28 90.5074C138.219 90.256 138.596 90.9194 138.799 91.6792C139.14 92.9506 138.66 93.2663 138.063 93.4262L137.628 93.5425L136.846 90.6237Z" fill="white"/>
</g>
<path d="M78.2576 232.63C80.5526 232.63 82.2016 230.896 82.2016 228.04V227.904C82.2016 225.031 80.4846 223.382 78.2576 223.382C76.9486 223.382 75.8436 224.147 75.3506 224.997V219.455H73.2936V232.46H75.3506V231.032C75.8266 231.933 76.8466 232.63 78.2576 232.63ZM77.7476 230.998C76.2516 230.998 75.2826 230.063 75.2826 228.074V227.938C75.2826 225.966 76.3026 224.997 77.7306 224.997C79.0736 224.997 80.0936 225.966 80.0936 227.938V228.074C80.0936 229.978 79.2606 230.998 77.7476 230.998ZM84.7884 235.503H86.8114L91.6564 223.569H89.6504L87.4744 229.298L85.1114 223.569H82.8844L86.4034 231.559L84.7884 235.503ZM101.551 232.63C104.237 232.63 106.022 230.981 106.022 228.873C106.022 226.442 104.543 225.626 101.687 225.235C99.5786 224.929 99.1706 224.436 99.1706 223.45C99.1706 222.515 99.8846 221.852 101.262 221.852C102.656 221.852 103.387 222.396 103.608 223.671H105.682C105.444 221.342 103.88 220.152 101.262 220.152C98.7286 220.152 97.0286 221.648 97.0286 223.637C97.0286 225.915 98.4056 226.799 101.313 227.19C103.285 227.513 103.846 227.938 103.846 229.06C103.846 230.182 102.894 230.93 101.551 230.93C99.4936 230.93 99.0006 229.91 98.8476 228.686H96.6716C96.8416 230.981 98.2356 232.63 101.551 232.63ZM110.37 232.63C111.73 232.63 112.512 232.137 113.09 231.372V232.46H115.113V226.629C115.113 224.198 113.549 223.382 111.56 223.382C109.571 223.382 107.922 224.249 107.752 226.323H109.741C109.843 225.439 110.37 224.929 111.441 224.929C112.648 224.929 113.056 225.524 113.056 226.714V227.173H111.951C109.401 227.173 107.395 227.921 107.395 229.995C107.395 231.848 108.738 232.63 110.37 232.63ZM110.863 231.151C109.843 231.151 109.435 230.658 109.435 229.91C109.435 228.822 110.438 228.465 112.002 228.465H113.056V229.349C113.056 230.488 112.121 231.151 110.863 231.151ZM117.521 232.46H119.578V219.455H117.521V232.46ZM125.418 232.63C126.727 232.63 127.866 231.848 128.342 230.964V232.46H130.399V219.455H128.342V224.929C127.849 224.045 126.948 223.382 125.503 223.382C123.191 223.382 121.508 225.184 121.508 228.023V228.159C121.508 231.049 123.191 232.63 125.418 232.63ZM125.928 230.998C124.602 230.998 123.616 230.063 123.616 228.108V227.972C123.616 226.051 124.5 224.997 126.013 224.997C127.509 224.997 128.41 225.966 128.41 227.921V228.057C128.41 230.046 127.356 230.998 125.928 230.998ZM136.821 231.032C135.257 231.032 134.356 229.893 134.356 228.074V227.938C134.356 226.102 135.291 224.997 136.821 224.997C138.351 224.997 139.269 226.119 139.269 227.955V228.074C139.269 229.893 138.351 231.032 136.821 231.032ZM136.804 232.63C139.422 232.63 141.377 230.828 141.377 228.057V227.921C141.377 225.201 139.422 223.382 136.821 223.382C134.203 223.382 132.248 225.218 132.248 227.972V228.108C132.248 230.811 134.186 232.63 136.804 232.63ZM146.522 232.46H148.647L149.599 229.451H154.24L155.209 232.46H157.555L153.543 220.305H150.585L146.522 232.46ZM151.928 222.158L153.713 227.802H150.126L151.928 222.158ZM159.24 235.503H161.297V231.066C161.773 231.933 162.793 232.63 164.204 232.63C166.499 232.63 168.148 230.896 168.148 228.04V227.904C168.148 225.031 166.431 223.382 164.204 223.382C162.895 223.382 161.79 224.147 161.297 224.997V223.569H159.24V235.503ZM163.694 230.998C162.198 230.998 161.229 230.063 161.229 228.074V227.938C161.229 225.966 162.249 224.997 163.677 224.997C165.02 224.997 166.04 225.966 166.04 227.938V228.074C166.04 229.978 165.207 230.998 163.694 230.998ZM169.998 235.503H172.055V231.066C172.531 231.933 173.551 232.63 174.962 232.63C177.257 232.63 178.906 230.896 178.906 228.04V227.904C178.906 225.031 177.189 223.382 174.962 223.382C173.653 223.382 172.548 224.147 172.055 224.997V223.569H169.998V235.503ZM174.452 230.998C172.956 230.998 171.987 230.063 171.987 228.074V227.938C171.987 225.966 173.007 224.997 174.435 224.997C175.778 224.997 176.798 225.966 176.798 227.938V228.074C176.798 229.978 175.965 230.998 174.452 230.998ZM183.798 232.63C186.076 232.63 187.351 231.593 187.351 229.791C187.351 227.904 186.11 227.394 184.019 227.071C182.608 226.833 182.183 226.578 182.183 225.932C182.183 225.303 182.71 224.878 183.594 224.878C184.546 224.878 185.005 225.252 185.175 226.068H187.079C186.858 224.062 185.413 223.382 183.594 223.382C181.928 223.382 180.262 224.266 180.262 226.051C180.262 227.717 181.129 228.38 183.475 228.754C184.784 228.975 185.379 229.247 185.379 229.978C185.379 230.726 184.886 231.117 183.781 231.117C182.574 231.117 182.115 230.59 182.013 229.689H180.075C180.16 231.576 181.503 232.63 183.798 232.63Z" fill="#71839C"/>
<path d="M3.07702 202H9.27102V174.83H3.07702V202ZM14.7884 202H20.2984V190.524C20.2984 187.598 22.0844 186.154 24.4404 186.154C26.8724 186.154 27.9364 187.446 27.9364 190.144V202H33.4464V189.346C33.4464 184.026 30.6724 181.67 26.7584 181.67C23.4524 181.67 21.2864 183.304 20.2984 185.28V182.126H14.7884V202ZM43.1543 202H49.3483L56.5683 182.126H51.2483L46.5363 196.338L41.7863 182.126H35.8963L43.1543 202ZM67.8495 198.238C64.7335 198.238 62.9855 195.958 62.9855 192.158V191.854C62.9855 188.054 64.8095 185.85 67.8495 185.85C70.9275 185.85 72.7135 188.13 72.7135 191.93V192.196C72.7135 195.958 70.9275 198.238 67.8495 198.238ZM67.8115 202.418C73.7775 202.418 78.2995 198.428 78.2995 192.158V191.854C78.2995 185.66 73.8155 181.67 67.8495 181.67C61.8835 181.67 57.3615 185.736 57.3615 191.968V192.272C57.3615 198.466 61.8835 202.418 67.8115 202.418ZM82.1455 202H87.6175V182.126H82.1455V202ZM84.8435 179.428C86.6295 179.428 87.9975 178.136 87.9975 176.426C87.9975 174.716 86.6295 173.424 84.8435 173.424C83.0955 173.424 81.7275 174.716 81.7275 176.426C81.7275 178.136 83.0955 179.428 84.8435 179.428ZM101.687 202.418C107.463 202.418 110.883 199.15 111.187 194.438H106.209C105.943 196.984 104.157 198.276 101.953 198.276C98.875 198.276 97.089 196.224 97.089 192.234V191.93C97.089 188.13 98.989 186.002 101.839 186.002C104.081 186.002 105.487 187.066 105.867 189.384H111.073C110.579 183.684 106.323 181.67 101.725 181.67C96.063 181.67 91.465 185.584 91.465 192.006V192.31C91.465 198.808 95.873 202.418 101.687 202.418ZM123.808 202.418C129.242 202.418 132.662 200.024 133.308 195.73H128.102C127.76 197.402 126.506 198.504 123.96 198.504C120.958 198.504 119.172 196.604 119.02 193.298H133.346V191.778C133.346 184.672 128.786 181.67 123.656 181.67C117.88 181.67 113.434 185.736 113.434 192.006V192.31C113.434 198.656 117.804 202.418 123.808 202.418ZM119.096 189.916C119.514 187.104 121.186 185.47 123.656 185.47C126.278 185.47 127.798 186.914 127.988 189.916H119.096ZM145.87 202H151.38V182.924L158.942 202H160.956L168.48 182.924V202H174.598V174.83H166.618L160.348 191.74L154.002 174.83H145.87V202ZM185.172 202.418C188.288 202.418 190.036 201.202 191.176 199.606V202H196.534V189.042C196.534 183.646 193.076 181.67 188.212 181.67C183.348 181.67 179.624 183.76 179.282 188.472H184.488C184.716 186.762 185.704 185.66 187.87 185.66C190.378 185.66 191.1 186.952 191.1 189.308V190.106H188.858C182.778 190.106 178.522 191.854 178.522 196.49C178.522 200.67 181.562 202.418 185.172 202.418ZM186.806 198.58C184.792 198.58 183.918 197.63 183.918 196.186C183.918 194.058 185.78 193.374 188.972 193.374H191.1V195.046C191.1 197.25 189.238 198.58 186.806 198.58ZM201.263 202H206.773V192.614L213.347 202H219.579L211.789 191.17L219.009 182.126H213.157L206.773 190.524V173.12H201.263V202ZM230.534 202.418C235.968 202.418 239.388 200.024 240.034 195.73H234.828C234.486 197.402 233.232 198.504 230.686 198.504C227.684 198.504 225.898 196.604 225.746 193.298H240.072V191.778C240.072 184.672 235.512 181.67 230.382 181.67C224.606 181.67 220.16 185.736 220.16 192.006V192.31C220.16 198.656 224.53 202.418 230.534 202.418ZM225.822 189.916C226.24 187.104 227.912 185.47 230.382 185.47C233.004 185.47 234.524 186.914 234.714 189.916H225.822ZM243.679 202H249.189V192.044C249.189 188.244 251.545 186.914 255.611 186.952V181.822C252.381 181.86 250.443 183.266 249.189 185.926V182.126H243.679V202Z" fill="black"/>
<defs>
<filter id="filter0_d" x="37.9971" y="0.742676" width="184.003" height="184.003" filterUnits="userSpaceOnUse" color-interpolation-filters="sRGB">
<feFlood flood-opacity="0" result="BackgroundImageFix"/>
<feColorMatrix in="SourceAlpha" type="matrix" values="0 0 0 0 0 0 0 0 0 0 0 0 0 0 0 0 0 0 127 0" result="hardAlpha"/>
<feOffset dy="18"/>
<feGaussianBlur stdDeviation="15"/>
<feColorMatrix type="matrix" values="0 0 0 0 0.0315104 0 0 0 0 0.232597 0 0 0 0 0.504167 0 0 0 0.06 0"/>
<feBlend mode="normal" in2="BackgroundImageFix" result="effect1_dropShadow"/>
<feBlend mode="normal" in="SourceGraphic" in2="effect1_dropShadow" result="shape"/>
</filter>
<filter id="filter1_d" x="92.0361" y="39.9731" width="76.1715" height="75.867" filterUnits="userSpaceOnUse" color-interpolation-filters="sRGB">
<feFlood flood-opacity="0" result="BackgroundImageFix"/>
<feColorMatrix in="SourceAlpha" type="matrix" values="0 0 0 0 0 0 0 0 0 0 0 0 0 0 0 0 0 0 127 0" result="hardAlpha"/>
<feOffset dy="2.69531"/>
<feGaussianBlur stdDeviation="0.179688"/>
<feColorMatrix type="matrix" values="0 0 0 0 0 0 0 0 0 0 0 0 0 0 0 0 0 0 1 0"/>
<feBlend mode="color-dodge" in2="BackgroundImageFix" result="effect1_dropShadow"/>
<feBlend mode="normal" in="SourceGraphic" in2="effect1_dropShadow" result="shape"/>
</filter>
<linearGradient id="paint0_linear" x1="151.812" y1="109.119" x2="164.979" y2="109.119" gradientUnits="userSpaceOnUse">
<stop stop-color="#9DC4FE"/>
<stop offset="1" stop-color="#CEDFFF"/>
</linearGradient>
<linearGradient id="paint1_linear" x1="113.166" y1="59.5339" x2="145.842" y2="70.7853" gradientUnits="userSpaceOnUse">
<stop stop-color="#EFDAD5"/>
<stop offset="0.470672" stop-color="#DEF1D6"/>
<stop offset="1" stop-color="#C5E8F0"/>
</linearGradient>
<linearGradient id="paint2_linear" x1="99.2908" y1="61.7667" x2="153.103" y2="71.2553" gradientUnits="userSpaceOnUse">
<stop stop-color="white"/>
<stop offset="1" stop-color="#96CDFF"/>
</linearGradient>
<radialGradient id="paint3_radial" cx="0" cy="0" r="1" gradientUnits="userSpaceOnUse" gradientTransform="translate(130.288 29.6752) rotate(90) scale(86.1138 173.472)">
<stop stop-color="white"/>
<stop offset="0.862545" stop-color="white"/>
<stop offset="0.895833" stop-color="#E2F0FF"/>
<stop offset="0.942708" stop-color="#ADD3FF"/>
<stop offset="1" stop-color="#61A9FE"/>
</radialGradient>
</defs>
</svg>
