<svg width="184" height="48" viewBox="0 0 184 48" fill="none" xmlns="http://www.w3.org/2000/svg">
<path d="M60.6343 19H59.0347V9.75781H60.6343V19ZM64.1506 12.1318L64.1951 12.9253C64.7029 12.3117 65.3694 12.0049 66.1946 12.0049C67.6249 12.0049 68.3528 12.8237 68.3782 14.4614V19H66.8357V14.5503C66.8357 14.1144 66.7405 13.7928 66.55 13.5854C66.3638 13.3739 66.057 13.2681 65.6296 13.2681C65.0076 13.2681 64.5442 13.5495 64.2395 14.1123V19H62.697V12.1318H64.1506ZM72.6372 17.0449L74.0908 12.1318H75.6841L73.3037 19H71.9643L69.5649 12.1318H71.1645L72.6372 17.0449ZM76.5217 15.5024C76.5217 14.8296 76.655 14.2244 76.9216 13.687C77.1882 13.1453 77.5627 12.7306 78.0451 12.4429C78.5276 12.1509 79.0819 12.0049 79.7082 12.0049C80.635 12.0049 81.3861 12.3032 81.9616 12.8999C82.5414 13.4966 82.8545 14.2879 82.9011 15.2739L82.9074 15.6357C82.9074 16.3128 82.7763 16.918 82.5139 17.4512C82.2557 17.9844 81.8834 18.397 81.3967 18.689C80.9143 18.981 80.3557 19.127 79.7209 19.127C78.7518 19.127 77.9753 18.8053 77.3913 18.1621C76.8116 17.5146 76.5217 16.6535 76.5217 15.5786V15.5024ZM78.0642 15.6357C78.0642 16.3424 78.2102 16.8968 78.5022 17.2988C78.7942 17.6966 79.2004 17.8955 79.7209 17.8955C80.2414 17.8955 80.6456 17.6924 80.9333 17.2861C81.2253 16.8799 81.3713 16.2853 81.3713 15.5024C81.3713 14.8084 81.2211 14.2583 80.9206 13.8521C80.6244 13.4458 80.2203 13.2427 79.7082 13.2427C79.2046 13.2427 78.8047 13.4437 78.5085 13.8457C78.2123 14.2435 78.0642 14.8402 78.0642 15.6357ZM86.1128 19H84.5703V12.1318H86.1128V19ZM84.4751 10.3481C84.4751 10.1112 84.5491 9.91439 84.6972 9.75781C84.8496 9.60124 85.0654 9.52295 85.3447 9.52295C85.624 9.52295 85.8398 9.60124 85.9921 9.75781C86.1445 9.91439 86.2207 10.1112 86.2207 10.3481C86.2207 10.5809 86.1445 10.7756 85.9921 10.9321C85.8398 11.0845 85.624 11.1606 85.3447 11.1606C85.0654 11.1606 84.8496 11.0845 84.6972 10.9321C84.5491 10.7756 84.4751 10.5809 84.4751 10.3481ZM90.8796 17.8955C91.2647 17.8955 91.5842 17.7834 91.8381 17.5591C92.092 17.3348 92.2274 17.0576 92.2443 16.7275H93.6979C93.681 17.1549 93.5477 17.5549 93.298 17.9272C93.0484 18.2954 92.7098 18.5874 92.2824 18.8032C91.855 19.019 91.3937 19.127 90.8986 19.127C89.938 19.127 89.1763 18.8159 88.6135 18.1938C88.0507 17.5718 87.7692 16.7127 87.7692 15.6167V15.458C87.7692 14.4128 88.0485 13.577 88.6071 12.9507C89.1657 12.3201 89.9274 12.0049 90.8923 12.0049C91.709 12.0049 92.3734 12.244 92.8854 12.7222C93.4017 13.1961 93.6726 13.8203 93.6979 14.5947H92.2443C92.2274 14.2012 92.092 13.8774 91.8381 13.6235C91.5884 13.3696 91.2689 13.2427 90.8796 13.2427C90.3802 13.2427 89.9951 13.4246 89.7243 13.7886C89.4535 14.1483 89.3159 14.6963 89.3117 15.4326V15.6802C89.3117 16.425 89.445 16.9814 89.7116 17.3496C89.9825 17.7135 90.3718 17.8955 90.8796 17.8955ZM98.1474 19.127C97.1699 19.127 96.3764 18.8201 95.767 18.2065C95.1619 17.5887 94.8593 16.7677 94.8593 15.7437V15.5532C94.8593 14.8677 94.9905 14.2562 95.2529 13.7188C95.5195 13.1771 95.8919 12.756 96.3701 12.4556C96.8483 12.1551 97.3815 12.0049 97.9697 12.0049C98.9049 12.0049 99.6264 12.3032 100.134 12.8999C100.646 13.4966 100.902 14.3408 100.902 15.4326V16.0547H96.4145C96.461 16.6217 96.6494 17.0703 96.9794 17.4004C97.3137 17.7305 97.7327 17.8955 98.2363 17.8955C98.943 17.8955 99.5185 17.6099 99.9628 17.0386L100.794 17.832C100.519 18.2425 100.151 18.562 99.6899 18.7905C99.2329 19.0148 98.7187 19.127 98.1474 19.127ZM97.9633 13.2427C97.5401 13.2427 97.1974 13.3908 96.935 13.687C96.6769 13.9832 96.5118 14.3958 96.4399 14.9248H99.3788V14.8105C99.345 14.2943 99.2075 13.9049 98.9663 13.6426C98.725 13.376 98.3907 13.2427 97.9633 13.2427ZM108.094 9.75781L110.76 16.8418L113.419 9.75781H115.495V19H113.895V15.9531L114.054 11.8779L111.325 19H110.176L107.453 11.8843L107.611 15.9531V19H106.012V9.75781H108.094ZM121.614 19C121.546 18.8688 121.487 18.6551 121.436 18.3589C120.945 18.8709 120.344 19.127 119.633 19.127C118.944 19.127 118.381 18.9302 117.945 18.5366C117.509 18.1431 117.291 17.6564 117.291 17.0767C117.291 16.3446 117.562 15.7839 118.104 15.3945C118.65 15.001 119.428 14.8042 120.44 14.8042H121.385V14.3535C121.385 13.998 121.286 13.7145 121.087 13.5029C120.888 13.2871 120.586 13.1792 120.179 13.1792C119.828 13.1792 119.54 13.2681 119.316 13.4458C119.092 13.6193 118.98 13.8415 118.98 14.1123H117.437C117.437 13.7357 117.562 13.3844 117.812 13.0586C118.061 12.7285 118.4 12.4704 118.827 12.2842C119.259 12.098 119.739 12.0049 120.268 12.0049C121.072 12.0049 121.713 12.208 122.192 12.6143C122.67 13.0163 122.915 13.5833 122.928 14.3154V17.4131C122.928 18.0309 123.015 18.5239 123.188 18.8921V19H121.614ZM119.919 17.8892C120.224 17.8892 120.509 17.8151 120.776 17.667C121.047 17.5189 121.25 17.32 121.385 17.0703V15.7754H120.554C119.983 15.7754 119.553 15.8748 119.265 16.0737C118.978 16.2726 118.834 16.554 118.834 16.918C118.834 17.2142 118.931 17.4512 119.126 17.6289C119.325 17.8024 119.589 17.8892 119.919 17.8892ZM127.035 16.0547L126.349 16.7593V19H124.807V9.25H126.349V14.874L126.831 14.271L128.729 12.1318H130.583L128.031 14.9946L130.856 19H129.072L127.035 16.0547ZM134.753 19.127C133.776 19.127 132.982 18.8201 132.373 18.2065C131.768 17.5887 131.465 16.7677 131.465 15.7437V15.5532C131.465 14.8677 131.596 14.2562 131.859 13.7188C132.125 13.1771 132.498 12.756 132.976 12.4556C133.454 12.1551 133.987 12.0049 134.575 12.0049C135.511 12.0049 136.232 12.3032 136.74 12.8999C137.252 13.4966 137.508 14.3408 137.508 15.4326V16.0547H133.02C133.067 16.6217 133.255 17.0703 133.585 17.4004C133.919 17.7305 134.338 17.8955 134.842 17.8955C135.549 17.8955 136.124 17.6099 136.568 17.0386L137.4 17.832C137.125 18.2425 136.757 18.562 136.296 18.7905C135.839 19.0148 135.324 19.127 134.753 19.127ZM134.569 13.2427C134.146 13.2427 133.803 13.3908 133.541 13.687C133.283 13.9832 133.117 14.3958 133.046 14.9248H135.985V14.8105C135.951 14.2943 135.813 13.9049 135.572 13.6426C135.331 13.376 134.996 13.2427 134.569 13.2427ZM142.567 13.541C142.364 13.5072 142.154 13.4902 141.938 13.4902C141.232 13.4902 140.756 13.7611 140.51 14.3027V19H138.968V12.1318H140.44L140.478 12.8999C140.851 12.3032 141.367 12.0049 142.027 12.0049C142.247 12.0049 142.429 12.0345 142.573 12.0938L142.567 13.541Z" fill="black"/>
<path d="M60.0142 36H58.9829V28.1797H60.0142V36ZM62.909 30.1885L62.9412 30.9189C63.3852 30.3604 63.9653 30.0811 64.6814 30.0811C65.9096 30.0811 66.5291 30.7739 66.5398 32.1597V36H65.5462V32.1543C65.5426 31.7354 65.4459 31.4256 65.2561 31.2251C65.0699 31.0246 64.7781 30.9243 64.3806 30.9243C64.0584 30.9243 63.7755 31.0103 63.532 31.1821C63.2885 31.354 63.0987 31.5796 62.9627 31.8589V36H61.969V30.1885H62.909ZM70.1758 34.6519L71.6153 30.1885H72.6304L70.5464 36H69.7891L67.6837 30.1885H68.6988L70.1758 34.6519ZM73.4574 33.0405C73.4574 32.4712 73.5684 31.9591 73.7904 31.5044C74.016 31.0496 74.3275 30.6987 74.7249 30.4517C75.126 30.2046 75.5825 30.0811 76.0946 30.0811C76.8859 30.0811 77.5251 30.355 78.0121 30.9028C78.5026 31.4507 78.7479 32.1794 78.7479 33.0889V33.1587C78.7479 33.7244 78.6387 34.2329 78.4203 34.6841C78.2054 35.1317 77.8957 35.4808 77.4911 35.7314C77.09 35.9821 76.6281 36.1074 76.1053 36.1074C75.3176 36.1074 74.6784 35.8335 74.1878 35.2856C73.7009 34.7378 73.4574 34.0127 73.4574 33.1104V33.0405ZM74.4564 33.1587C74.4564 33.8032 74.605 34.3206 74.9022 34.7109C75.203 35.1012 75.604 35.2964 76.1053 35.2964C76.6102 35.2964 77.0112 35.0994 77.3084 34.7056C77.6056 34.3081 77.7542 33.7531 77.7542 33.0405C77.7542 32.4032 77.6021 31.8875 77.2977 31.4937C76.9969 31.0962 76.5959 30.8975 76.0946 30.8975C75.604 30.8975 75.2083 31.0926 74.9076 31.4829C74.6068 31.8732 74.4564 32.4318 74.4564 33.1587ZM81.2936 36H80.2999V30.1885H81.2936V36ZM80.2194 28.647C80.2194 28.4858 80.2677 28.3498 80.3644 28.2388C80.4646 28.1278 80.6114 28.0723 80.8048 28.0723C80.9982 28.0723 81.145 28.1278 81.2452 28.2388C81.3455 28.3498 81.3956 28.4858 81.3956 28.647C81.3956 28.8081 81.3455 28.9424 81.2452 29.0498C81.145 29.1572 80.9982 29.2109 80.8048 29.2109C80.6114 29.2109 80.4646 29.1572 80.3644 29.0498C80.2677 28.9424 80.2194 28.8081 80.2194 28.647ZM85.4398 35.2964C85.7943 35.2964 86.1041 35.189 86.369 34.9741C86.634 34.7593 86.7808 34.4907 86.8095 34.1685H87.7494C87.7315 34.5015 87.6169 34.8184 87.4057 35.1191C87.1944 35.4199 86.9115 35.6598 86.557 35.8389C86.2061 36.0179 85.8337 36.1074 85.4398 36.1074C84.6485 36.1074 84.0183 35.8442 83.5492 35.3179C83.0837 34.7879 82.851 34.0646 82.851 33.1479V32.9814C82.851 32.4157 82.9548 31.9126 83.1625 31.4722C83.3702 31.0317 83.6674 30.6898 84.0541 30.4463C84.4444 30.2028 84.9045 30.0811 85.4345 30.0811C86.0862 30.0811 86.6269 30.2762 87.0565 30.6665C87.4898 31.0568 87.7208 31.5635 87.7494 32.1865H86.8095C86.7808 31.8105 86.6376 31.5026 86.3798 31.2627C86.1256 31.0192 85.8104 30.8975 85.4345 30.8975C84.9296 30.8975 84.5375 31.0801 84.2582 31.4453C83.9825 31.807 83.8446 32.3315 83.8446 33.019V33.207C83.8446 33.8766 83.9825 34.3923 84.2582 34.7539C84.5339 35.1156 84.9278 35.2964 85.4398 35.2964ZM91.4982 36.1074C90.7105 36.1074 90.0695 35.8496 89.5754 35.334C89.0812 34.8148 88.8342 34.1219 88.8342 33.2554V33.0728C88.8342 32.4963 88.9434 31.9824 89.1618 31.5312C89.3838 31.0765 89.6917 30.722 90.0856 30.4678C90.4831 30.21 90.9128 30.0811 91.3747 30.0811C92.1302 30.0811 92.7175 30.3299 93.1364 30.8276C93.5554 31.3254 93.7648 32.0379 93.7648 32.9653V33.3789H89.8278C89.8421 33.9518 90.0086 34.4155 90.3273 34.77C90.6496 35.1209 91.0578 35.2964 91.5519 35.2964C91.9028 35.2964 92.2 35.2248 92.4435 35.0815C92.687 34.9383 92.9001 34.7485 93.0827 34.5122L93.6896 34.9849C93.2026 35.7332 92.4722 36.1074 91.4982 36.1074ZM91.3747 30.8975C90.9736 30.8975 90.6371 31.0443 90.3649 31.3379C90.0928 31.6279 89.9245 32.0361 89.86 32.5625H92.7712V32.4873C92.7425 31.9824 92.6065 31.5921 92.363 31.3164C92.1195 31.0371 91.7901 30.8975 91.3747 30.8975ZM99.9895 34.5444L101.343 30.1885H102.406L100.07 36.897C99.7084 37.8638 99.1337 38.3472 98.3459 38.3472L98.1579 38.3311L97.7873 38.2612V37.4556L98.0559 37.4771C98.3925 37.4771 98.6539 37.409 98.8401 37.2729C99.0299 37.1369 99.1856 36.888 99.3074 36.5264L99.5276 35.9355L97.4543 30.1885H98.5393L99.9895 34.5444ZM103.169 33.0405C103.169 32.4712 103.28 31.9591 103.502 31.5044C103.728 31.0496 104.039 30.6987 104.437 30.4517C104.838 30.2046 105.294 30.0811 105.806 30.0811C106.598 30.0811 107.237 30.355 107.724 30.9028C108.214 31.4507 108.459 32.1794 108.459 33.0889V33.1587C108.459 33.7244 108.35 34.2329 108.132 34.6841C107.917 35.1317 107.607 35.4808 107.203 35.7314C106.802 35.9821 106.34 36.1074 105.817 36.1074C105.029 36.1074 104.39 35.8335 103.899 35.2856C103.412 34.7378 103.169 34.0127 103.169 33.1104V33.0405ZM104.168 33.1587C104.168 33.8032 104.317 34.3206 104.614 34.7109C104.915 35.1012 105.316 35.2964 105.817 35.2964C106.322 35.2964 106.723 35.0994 107.02 34.7056C107.317 34.3081 107.466 33.7531 107.466 33.0405C107.466 32.4032 107.314 31.8875 107.009 31.4937C106.709 31.0962 106.307 30.8975 105.806 30.8975C105.316 30.8975 104.92 31.0926 104.619 31.4829C104.318 31.8732 104.168 32.4318 104.168 33.1587ZM113.513 35.4253C113.127 35.88 112.559 36.1074 111.811 36.1074C111.191 36.1074 110.719 35.9284 110.393 35.5703C110.071 35.2087 109.908 34.6751 109.904 33.9697V30.1885H110.898V33.9429C110.898 34.8237 111.256 35.2642 111.972 35.2642C112.731 35.2642 113.236 34.9813 113.487 34.4155V30.1885H114.48V36H113.535L113.513 35.4253ZM119.024 31.0801C118.874 31.055 118.711 31.0425 118.535 31.0425C117.884 31.0425 117.441 31.32 117.209 31.875V36H116.215V30.1885H117.182L117.198 30.8599C117.524 30.3407 117.986 30.0811 118.584 30.0811C118.777 30.0811 118.924 30.1061 119.024 30.1562V31.0801ZM125.442 35.2964C125.797 35.2964 126.106 35.189 126.371 34.9741C126.636 34.7593 126.783 34.4907 126.812 34.1685H127.752C127.734 34.5015 127.619 34.8184 127.408 35.1191C127.197 35.4199 126.914 35.6598 126.559 35.8389C126.208 36.0179 125.836 36.1074 125.442 36.1074C124.651 36.1074 124.02 35.8442 123.551 35.3179C123.086 34.7879 122.853 34.0646 122.853 33.1479V32.9814C122.853 32.4157 122.957 31.9126 123.165 31.4722C123.372 31.0317 123.67 30.6898 124.056 30.4463C124.447 30.2028 124.907 30.0811 125.437 30.0811C126.088 30.0811 126.629 30.2762 127.059 30.6665C127.492 31.0568 127.723 31.5635 127.752 32.1865H126.812C126.783 31.8105 126.64 31.5026 126.382 31.2627C126.128 31.0192 125.813 30.8975 125.437 30.8975C124.932 30.8975 124.54 31.0801 124.26 31.4453C123.985 31.807 123.847 32.3315 123.847 33.019V33.207C123.847 33.8766 123.985 34.3923 124.26 34.7539C124.536 35.1156 124.93 35.2964 125.442 35.2964ZM132.677 35.4253C132.29 35.88 131.722 36.1074 130.974 36.1074C130.355 36.1074 129.882 35.9284 129.556 35.5703C129.234 35.2087 129.071 34.6751 129.067 33.9697V30.1885H130.061V33.9429C130.061 34.8237 130.419 35.2642 131.135 35.2642C131.894 35.2642 132.399 34.9813 132.65 34.4155V30.1885H133.643V36H132.698L132.677 35.4253ZM138.762 34.4585C138.762 34.1899 138.66 33.9823 138.456 33.8354C138.255 33.6851 137.903 33.5562 137.398 33.4487C136.896 33.3413 136.497 33.2124 136.2 33.062C135.906 32.9116 135.688 32.7326 135.545 32.5249C135.405 32.3172 135.335 32.0701 135.335 31.7837C135.335 31.3075 135.536 30.9046 135.937 30.5752C136.341 30.2458 136.857 30.0811 137.484 30.0811C138.142 30.0811 138.676 30.2511 139.084 30.5913C139.496 30.9315 139.702 31.3665 139.702 31.8965H138.703C138.703 31.6243 138.586 31.3898 138.354 31.1929C138.125 30.9959 137.835 30.8975 137.484 30.8975C137.122 30.8975 136.839 30.9762 136.635 31.1338C136.431 31.2913 136.329 31.4972 136.329 31.7515C136.329 31.9914 136.424 32.1722 136.613 32.2939C136.803 32.4157 137.145 32.5321 137.639 32.6431C138.137 32.7541 138.54 32.8866 138.848 33.0405C139.156 33.1945 139.383 33.3807 139.53 33.5991C139.68 33.814 139.756 34.0771 139.756 34.3887C139.756 34.9079 139.548 35.325 139.133 35.6401C138.717 35.9517 138.178 36.1074 137.516 36.1074C137.05 36.1074 136.639 36.0251 136.28 35.8604C135.922 35.6956 135.641 35.4665 135.437 35.1729C135.237 34.8757 135.136 34.5552 135.136 34.2114H136.13C136.148 34.5444 136.28 34.8094 136.528 35.0063C136.778 35.1997 137.108 35.2964 137.516 35.2964C137.892 35.2964 138.193 35.2212 138.418 35.0708C138.647 34.9168 138.762 34.7127 138.762 34.4585ZM142.618 28.7812V30.1885H143.703V30.9565H142.618V34.5605C142.618 34.7933 142.666 34.9688 142.763 35.0869C142.86 35.2015 143.025 35.2588 143.257 35.2588C143.372 35.2588 143.529 35.2373 143.73 35.1943V36C143.469 36.0716 143.214 36.1074 142.967 36.1074C142.523 36.1074 142.188 35.9731 141.963 35.7046C141.737 35.436 141.624 35.0547 141.624 34.5605V30.9565H140.566V30.1885H141.624V28.7812H142.618ZM144.718 33.0405C144.718 32.4712 144.829 31.9591 145.051 31.5044C145.277 31.0496 145.588 30.6987 145.986 30.4517C146.387 30.2046 146.843 30.0811 147.355 30.0811C148.147 30.0811 148.786 30.355 149.273 30.9028C149.763 31.4507 150.009 32.1794 150.009 33.0889V33.1587C150.009 33.7244 149.899 34.2329 149.681 34.6841C149.466 35.1317 149.156 35.4808 148.752 35.7314C148.351 35.9821 147.889 36.1074 147.366 36.1074C146.578 36.1074 145.939 35.8335 145.448 35.2856C144.962 34.7378 144.718 34.0127 144.718 33.1104V33.0405ZM145.717 33.1587C145.717 33.8032 145.866 34.3206 146.163 34.7109C146.464 35.1012 146.865 35.2964 147.366 35.2964C147.871 35.2964 148.272 35.0994 148.569 34.7056C148.866 34.3081 149.015 33.7531 149.015 33.0405C149.015 32.4032 148.863 31.8875 148.558 31.4937C148.258 31.0962 147.857 30.8975 147.355 30.8975C146.865 30.8975 146.469 31.0926 146.168 31.4829C145.867 31.8732 145.717 32.4318 145.717 33.1587ZM152.409 30.1885L152.436 30.833C152.862 30.3317 153.437 30.0811 154.16 30.0811C154.973 30.0811 155.526 30.3926 155.82 31.0156C156.013 30.7363 156.264 30.5107 156.572 30.3389C156.883 30.167 157.25 30.0811 157.673 30.0811C158.948 30.0811 159.596 30.756 159.617 32.106V36H158.624V32.165C158.624 31.7497 158.529 31.4399 158.339 31.2358C158.149 31.0282 157.83 30.9243 157.383 30.9243C157.014 30.9243 156.708 31.0353 156.464 31.2573C156.221 31.4757 156.079 31.7712 156.04 32.1436V36H155.041V32.1919C155.041 31.3468 154.627 30.9243 153.8 30.9243C153.149 30.9243 152.703 31.2018 152.463 31.7568V36H151.469V30.1885H152.409ZM163.753 36.1074C162.965 36.1074 162.324 35.8496 161.83 35.334C161.336 34.8148 161.089 34.1219 161.089 33.2554V33.0728C161.089 32.4963 161.198 31.9824 161.416 31.5312C161.638 31.0765 161.946 30.722 162.34 30.4678C162.738 30.21 163.167 30.0811 163.629 30.0811C164.385 30.0811 164.972 30.3299 165.391 30.8276C165.81 31.3254 166.019 32.0379 166.019 32.9653V33.3789H162.082C162.097 33.9518 162.263 34.4155 162.582 34.77C162.904 35.1209 163.312 35.2964 163.806 35.2964C164.157 35.2964 164.455 35.2248 164.698 35.0815C164.942 34.9383 165.155 34.7485 165.337 34.5122L165.944 34.9849C165.457 35.7332 164.727 36.1074 163.753 36.1074ZM163.629 30.8975C163.228 30.8975 162.892 31.0443 162.619 31.3379C162.347 31.6279 162.179 32.0361 162.115 32.5625H165.026V32.4873C164.997 31.9824 164.861 31.5921 164.618 31.3164C164.374 31.0371 164.045 30.8975 163.629 30.8975ZM170.203 31.0801C170.053 31.055 169.89 31.0425 169.714 31.0425C169.063 31.0425 168.621 31.32 168.388 31.875V36H167.394V30.1885H168.361L168.377 30.8599C168.703 30.3407 169.165 30.0811 169.763 30.0811C169.956 30.0811 170.103 30.1061 170.203 30.1562V31.0801ZM174.725 34.4585C174.725 34.1899 174.623 33.9823 174.419 33.8354C174.219 33.6851 173.866 33.5562 173.361 33.4487C172.86 33.3413 172.461 33.2124 172.163 33.062C171.87 32.9116 171.651 32.7326 171.508 32.5249C171.369 32.3172 171.299 32.0701 171.299 31.7837C171.299 31.3075 171.499 30.9046 171.9 30.5752C172.305 30.2458 172.821 30.0811 173.447 30.0811C174.106 30.0811 174.64 30.2511 175.048 30.5913C175.46 30.9315 175.665 31.3665 175.665 31.8965H174.666C174.666 31.6243 174.55 31.3898 174.317 31.1929C174.088 30.9959 173.798 30.8975 173.447 30.8975C173.085 30.8975 172.803 30.9762 172.599 31.1338C172.394 31.2913 172.292 31.4972 172.292 31.7515C172.292 31.9914 172.387 32.1722 172.577 32.2939C172.767 32.4157 173.109 32.5321 173.603 32.6431C174.101 32.7541 174.503 32.8866 174.811 33.0405C175.119 33.1945 175.347 33.3807 175.494 33.5991C175.644 33.814 175.719 34.0771 175.719 34.3887C175.719 34.9079 175.511 35.325 175.096 35.6401C174.681 35.9517 174.142 36.1074 173.479 36.1074C173.014 36.1074 172.602 36.0251 172.244 35.8604C171.886 35.6956 171.605 35.4665 171.401 35.1729C171.2 34.8757 171.1 34.5552 171.1 34.2114H172.094C172.112 34.5444 172.244 34.8094 172.491 35.0063C172.742 35.1997 173.071 35.2964 173.479 35.2964C173.855 35.2964 174.156 35.2212 174.382 35.0708C174.611 34.9168 174.725 34.7127 174.725 34.4585Z" fill="black"/>
<path d="M48 24C48 10.7452 37.2548 0 24 0C10.7452 0 0 10.7452 0 24C0 37.2548 10.7452 48 24 48C37.2548 48 48 37.2548 48 24Z" fill="#007AFF"/>
<path d="M35.2719 38.7119H15.8691V34.6445H38.4564C38.5657 34.6445 38.6494 34.7439 38.6315 34.8517C37.9894 38.7119 35.2719 38.7119 35.2719 38.7119Z" fill="#AFCDFB"/>
<path d="M35.2719 38.7119H15.8691V34.6445H38.4564C38.5657 34.6445 38.6494 34.7439 38.6315 34.8517C37.9894 38.7119 35.2719 38.7119 35.2719 38.7119Z" fill="url(#paint0_linear)"/>
<g opacity="0.6">
<path opacity="0.6" d="M38.2206 14.2769H16.0431C15.9767 14.2769 15.916 14.316 15.8848 14.3746C10.0685 25.2901 10.0908 26.2656 10.0908 26.2656L31.056 31.8883C31.056 31.8883 31.6641 24.3674 38.3639 14.5623C38.4457 14.4426 38.3655 14.2769 38.2206 14.2769Z" fill="#F8FBFF"/>
<path opacity="0.6" d="M38.2206 14.2769H16.0431C15.9767 14.2769 15.916 14.316 15.8848 14.3746C10.0685 25.2901 10.0908 26.2656 10.0908 26.2656L31.056 31.8883C31.056 31.8883 31.6641 24.3674 38.3639 14.5623C38.4457 14.4426 38.3655 14.2769 38.2206 14.2769Z" fill="url(#paint1_linear)"/>
<path opacity="0.6" d="M28.2815 16.0902C28.243 16.3054 28.0372 16.4495 27.8218 16.4121L19.4729 14.961C19.2576 14.9235 19.1142 14.7188 19.1527 14.5036C19.1912 14.2884 19.3969 14.1443 19.6123 14.1817L27.9612 15.6328C28.1766 15.6703 28.32 15.875 28.2815 16.0902Z" fill="black"/>
<path opacity="0.6" d="M30.3472 17.8696C30.3087 18.0857 30.1022 18.2302 29.8861 18.1925L16.9207 15.9309C16.7045 15.8932 16.5605 15.6875 16.599 15.4715C16.6375 15.2555 16.844 15.1109 17.0601 15.1486L30.0255 17.4103C30.2417 17.448 30.3857 17.6536 30.3472 17.8696Z" fill="black"/>
<path opacity="0.6" d="M29.3887 21.0065L15.4274 18.5447C15.3199 18.5258 15.2477 18.4217 15.2667 18.3139C15.2858 18.2057 15.3891 18.1329 15.4967 18.1519L29.458 20.6136C29.5656 20.6326 29.6377 20.7367 29.6187 20.8445C29.5999 20.9527 29.4963 21.0255 29.3887 21.0065Z" fill="black"/>
<path opacity="0.6" d="M29.25 21.8333L15.2887 19.3715C15.1811 19.3525 15.109 19.2485 15.128 19.1406C15.1471 19.0325 15.2504 18.9597 15.358 18.9786L29.3193 21.4404C29.4268 21.4593 29.499 21.5634 29.48 21.6713C29.4612 21.7795 29.3576 21.8522 29.25 21.8333Z" fill="black"/>
<path opacity="0.6" d="M15.1354 20.2436L23.7336 21.7597C23.8411 21.7786 23.9448 21.7059 23.9635 21.5977C23.9826 21.4895 23.9104 21.3857 23.8028 21.3668L15.2046 19.8507C15.0971 19.8317 14.9938 19.9045 14.9747 20.0127C14.9556 20.1208 15.0278 20.2246 15.1354 20.2436Z" fill="black"/>
</g>
<g opacity="0.6">
<path opacity="0.6" d="M36.7152 12.4844H14.4798C14.4032 12.4844 14.3365 12.5353 14.3116 12.6078C10.2835 24.3057 10.7943 28.7737 10.7943 28.7737L31.2839 29.456C31.2839 29.456 32.4046 21.0308 36.8693 12.7519C36.9342 12.6317 36.8517 12.4844 36.7152 12.4844Z" fill="#F8FBFF"/>
<path opacity="0.6" d="M36.7152 12.4844H14.4798C14.4032 12.4844 14.3365 12.5353 14.3116 12.6078C10.2835 24.3057 10.7943 28.7737 10.7943 28.7737L31.2839 29.456C31.2839 29.456 32.4046 21.0308 36.8693 12.7519C36.9342 12.6317 36.8517 12.4844 36.7152 12.4844Z" fill="url(#paint2_linear)"/>
<path opacity="0.6" d="M27.7742 14.7952C27.7548 15.0115 27.5637 15.1718 27.3474 15.1533L18.8934 14.4309C18.6771 14.4124 18.5174 14.2222 18.5368 14.006C18.5562 13.7897 18.7472 13.6294 18.9635 13.6479L27.4176 14.3703C27.6339 14.3887 27.7935 14.579 27.7742 14.7952Z" fill="black"/>
<path opacity="0.6" d="M29.987 16.3884C29.9676 16.6056 29.7757 16.7667 29.5583 16.748L16.4353 15.6213C16.2179 15.6027 16.0575 15.4114 16.0768 15.1941C16.0962 14.9768 16.2881 14.8158 16.5054 14.8345L29.6285 15.9611C29.8458 15.9798 30.0063 16.1711 29.987 16.3884Z" fill="black"/>
<path opacity="0.6" d="M29.3037 19.5957L15.181 18.3602C15.0722 18.3506 14.9912 18.2533 15.0008 18.1442C15.0103 18.0347 15.1069 17.9532 15.2157 17.9627L29.3385 19.1983C29.4473 19.2078 29.5282 19.3052 29.5187 19.4143C29.5094 19.5238 29.4125 19.6053 29.3037 19.5957Z" fill="black"/>
<path opacity="0.6" d="M29.2383 20.4311L15.1155 19.1955C15.0067 19.186 14.9258 19.0886 14.9353 18.9795C14.9449 18.8701 15.0415 18.7886 15.1503 18.7981L29.273 20.0337C29.3818 20.0432 29.4628 20.1406 29.4532 20.2497C29.444 20.3591 29.3471 20.4406 29.2383 20.4311Z" fill="black"/>
<path opacity="0.6" d="M15.0384 20.0775L23.736 20.8384C23.8448 20.8479 23.9417 20.7664 23.951 20.657C23.9605 20.5476 23.8796 20.4505 23.7708 20.441L15.0731 19.68C14.9643 19.6705 14.8677 19.752 14.8582 19.8615C14.8486 19.9709 14.9296 20.0679 15.0384 20.0775Z" fill="black"/>
</g>
<path d="M35.196 10.5689C35.3283 10.5689 35.4142 10.7082 35.358 10.8279C30.5569 21.0456 31.2404 31.3844 31.2404 31.3844H31.2398C30.953 34.133 32.2696 38.3382 35.2865 38.7286H16.4503C11.5068 38.7286 9.47592 35.1941 9.47499 31.3847C9.47526 31.3844 9.47526 31.3844 9.47526 31.3844H9.47592C9.47592 31.3844 8.78538 20.8514 13.6711 10.6462C13.7009 10.584 13.7651 10.5439 13.834 10.5439C23.0847 10.5441 29.4599 10.5681 35.196 10.5689Z" fill="url(#paint3_radial)"/>
<path d="M21.2641 13.168H15.9619C15.5714 13.168 15.2549 13.4845 15.2549 13.8749C15.2549 14.2654 15.5714 14.5819 15.9619 14.5819H21.2641C21.6546 14.5819 21.9711 14.2654 21.9711 13.8749C21.9711 13.4845 21.6546 13.168 21.2641 13.168Z" fill="#C3D1E6"/>
<path d="M18.5776 26.9541H13.2753C12.8849 26.9541 12.5684 27.2706 12.5684 27.6611C12.5684 28.0515 12.8849 28.368 13.2753 28.368H18.5776C18.968 28.368 19.2845 28.0515 19.2845 27.6611C19.2845 27.2706 18.968 26.9541 18.5776 26.9541Z" fill="#CFDBEC"/>
<path d="M28.7933 20.5913H13.8056C13.4152 20.5913 13.0986 20.9078 13.0986 21.2983C13.0986 21.6887 13.4152 22.0052 13.8056 22.0052H28.7933C29.1837 22.0052 29.5002 21.6887 29.5002 21.2983C29.5002 20.9078 29.1837 20.5913 28.7933 20.5913Z" fill="#CFDBEC"/>
<path d="M28.263 23.7725H13.2753C12.8849 23.7725 12.5684 24.089 12.5684 24.4794C12.5684 24.8699 12.8849 25.1864 13.2753 25.1864H28.263C28.6534 25.1864 28.97 24.8699 28.97 24.4794C28.97 24.089 28.6534 23.7725 28.263 23.7725Z" fill="#CFDBEC"/>
<path d="M22.077 16.3496H14.9013C14.5109 16.3496 14.1943 16.6661 14.1943 17.0566C14.1943 17.447 14.5109 17.7635 14.9013 17.7635H22.077C22.4675 17.7635 22.784 17.447 22.784 17.0566C22.784 16.6661 22.4675 16.3496 22.077 16.3496Z" fill="#CFDBEC"/>
<path fill-rule="evenodd" clip-rule="evenodd" d="M27.5644 33.0793C26.9399 34.0647 25.8396 34.7189 24.5865 34.7189C23.9953 34.7189 23.4382 34.5733 22.9489 34.316L22.0117 34.5671C22.7257 35.1132 23.6182 35.4377 24.5865 35.4377C26.3509 35.4377 27.8637 34.3604 28.5031 32.8277L27.5644 33.0793ZM22.4628 34.0071C21.6127 33.3639 21.0635 32.344 21.0635 31.1959C21.0635 30.7488 21.1468 30.3211 21.2987 29.9276L20.4751 30.1483C20.39 30.4833 20.3447 30.8343 20.3447 31.1959C20.3447 32.3859 20.8348 33.4615 21.6241 34.2318L22.4628 34.0071ZM20.6282 29.6681C21.2414 28.0803 22.7824 26.9541 24.5865 26.9541C25.5951 26.9541 26.5215 27.3061 27.2495 27.8939L26.3378 28.1382C25.8219 27.8421 25.224 27.6728 24.5865 27.6728C23.287 27.6728 22.1518 28.3764 21.5411 29.4235L20.6282 29.6681ZM26.7988 28.4538C27.5983 29.0997 28.1096 30.0881 28.1096 31.1959C28.1096 31.6827 28.0108 32.1466 27.8322 32.5684L28.6712 32.3435C28.7736 31.9785 28.8283 31.5936 28.8283 31.1959C28.8283 30.0431 28.3685 28.9977 27.6222 28.2332L26.7988 28.4538Z" fill="#F23333"/>
<path d="M19.3649 31.6165C19.2624 31.234 19.2112 31.0428 19.2465 30.8768C19.2775 30.7308 19.354 30.5983 19.4649 30.4984C19.5911 30.3848 19.7823 30.3336 20.1647 30.2311L27.9514 28.1447C28.3339 28.0422 28.5251 27.991 28.6911 28.0263C28.8371 28.0573 28.9696 28.1338 29.0695 28.2447C29.1831 28.3708 29.2343 28.5621 29.3368 28.9445L29.8491 30.8566C29.9516 31.239 30.0028 31.4302 29.9675 31.5963C29.9365 31.7423 29.86 31.8748 29.7491 31.9747C29.6229 32.0882 29.4317 32.1395 29.0493 32.2419L21.2626 34.3284C20.8801 34.4309 20.6889 34.4821 20.5229 34.4468C20.3769 34.4158 20.2444 34.3393 20.1445 34.2283C20.0309 34.1022 19.9797 33.911 19.8772 33.5285L19.3649 31.6165Z" fill="#F23333"/>
<path d="M22.0735 30.8851L21.1582 31.1303L21.707 33.1785L22.2982 33.0201L22.1438 32.4439L22.4604 32.3591C22.966 32.2236 23.1229 31.8245 23.0163 31.4269C22.9118 31.0368 22.5791 30.7496 22.0735 30.8851ZM22.4176 31.5873C22.4711 31.7869 22.3735 31.9208 22.1815 31.9722L22.0254 32.0141L21.8646 31.4139L22.0356 31.368C22.2187 31.319 22.3654 31.3923 22.4176 31.5873Z" fill="white"/>
<path d="M23.9334 32.5819L23.9272 32.1446L24.5063 31.9894L24.7166 32.3721L25.3498 32.2024L24.1738 30.3223L23.4296 30.5217L23.3467 32.7391L23.9334 32.5819ZM23.9296 30.9233L24.2962 31.5954L23.9151 31.6975L23.9011 30.9309L23.9296 30.9233Z" fill="white"/>
<path d="M26.1259 31.9944L25.5771 29.9463L24.9844 30.1051L25.5332 32.1533L26.1259 31.9944Z" fill="white"/>
<path d="M25.9385 29.8493L26.4873 31.8975L27.353 31.6655C28.0012 31.4918 28.1807 31.0031 28.0134 30.3789C27.8486 29.7637 27.463 29.4408 26.8042 29.6173L25.9385 29.8493ZM26.6542 30.1497L26.8222 30.1046C27.1854 30.0073 27.3314 30.2641 27.4102 30.5582C27.542 31.0504 27.3561 31.1726 27.125 31.2345L26.9569 31.2795L26.6542 30.1497Z" fill="white"/>
<defs>
<linearGradient id="paint0_linear" x1="32.4448" y1="37.309" x2="37.5418" y2="37.309" gradientUnits="userSpaceOnUse">
<stop stop-color="#9DC4FE"/>
<stop offset="1" stop-color="#CEDFFF"/>
</linearGradient>
<linearGradient id="paint1_linear" x1="17.4773" y1="18.141" x2="30.097" y2="22.4863" gradientUnits="userSpaceOnUse">
<stop stop-color="#EFDAD5"/>
<stop offset="0.470672" stop-color="#DEF1D6"/>
<stop offset="1" stop-color="#C5E8F0"/>
</linearGradient>
<linearGradient id="paint2_linear" x1="12.1111" y1="18.9928" x2="32.8937" y2="22.6574" gradientUnits="userSpaceOnUse">
<stop stop-color="white"/>
<stop offset="1" stop-color="#96CDFF"/>
</linearGradient>
<radialGradient id="paint3_radial" cx="0" cy="0" r="1" gradientUnits="userSpaceOnUse" gradientTransform="translate(24.1101 6.5578) rotate(90) scale(33.3335 67.1486)">
<stop stop-color="white"/>
<stop offset="0.862545" stop-color="white"/>
<stop offset="0.895833" stop-color="#E2F0FF"/>
<stop offset="0.942708" stop-color="#ADD3FF"/>
<stop offset="1" stop-color="#61A9FE"/>
</radialGradient>
</defs>
</svg>
