<svg width="217" height="48" viewBox="0 0 217 48" fill="none" xmlns="http://www.w3.org/2000/svg">
<rect width="48" height="48" rx="24" fill="#007AFF"/>
<g filter="url(#filter0_d)">
<path d="M35.2716 38.7119H15.8688V34.6445H38.4561C38.5654 34.6445 38.6491 34.7439 38.6312 34.8517C37.9891 38.7119 35.2716 38.7119 35.2716 38.7119Z" fill="#AFCDFB"/>
<path d="M35.2716 38.7119H15.8688V34.6445H38.4561C38.5654 34.6445 38.6491 34.7439 38.6312 34.8517C37.9891 38.7119 35.2716 38.7119 35.2716 38.7119Z" fill="url(#paint0_linear)"/>
<g opacity="0.6">
<path d="M38.2205 14.2767L16.043 14.2767C15.9766 14.2767 15.9159 14.3158 15.8847 14.3744C10.0685 25.2899 10.0907 26.2654 10.0907 26.2654L31.0559 31.8881C31.0559 31.8881 31.664 24.3672 38.3639 14.5621C38.4456 14.4424 38.3654 14.2767 38.2205 14.2767Z" fill="#F8FBFF"/>
<path d="M38.2205 14.2767L16.043 14.2767C15.9766 14.2767 15.9159 14.3158 15.8847 14.3744C10.0685 25.2899 10.0907 26.2654 10.0907 26.2654L31.0559 31.8881C31.0559 31.8881 31.664 24.3672 38.3639 14.5621C38.4456 14.4424 38.3654 14.2767 38.2205 14.2767Z" fill="url(#paint1_linear)"/>
<path d="M28.2818 16.09C28.2433 16.3052 28.0375 16.4493 27.8221 16.4119L19.4732 14.9608C19.2579 14.9233 19.1145 14.7186 19.153 14.5034C19.1915 14.2882 19.3972 14.1441 19.6126 14.1815L27.9615 15.6326C28.1769 15.6701 28.3203 15.8748 28.2818 16.09Z" fill="black"/>
<path d="M30.3479 17.8693C30.3094 18.0854 30.1029 18.2299 29.8868 18.1922L16.9214 15.9306C16.7052 15.8929 16.5612 15.6872 16.5997 15.4712C16.6382 15.2552 16.8447 15.1106 17.0608 15.1483L30.0262 17.41C30.2423 17.4477 30.3864 17.6533 30.3479 17.8693Z" fill="black"/>
<path d="M29.3896 21.0065L15.4283 18.5447C15.3207 18.5258 15.2486 18.4217 15.2676 18.3139C15.2867 18.2057 15.39 18.1329 15.4976 18.1519L29.4589 20.6136C29.5664 20.6326 29.6386 20.7367 29.6196 20.8445C29.6008 20.9527 29.4972 21.0255 29.3896 21.0065Z" fill="black"/>
<path d="M29.2513 21.8332L15.29 19.3714C15.1824 19.3524 15.1103 19.2484 15.1293 19.1405C15.1484 19.0324 15.2517 18.9596 15.3592 18.9785L29.3206 21.4403C29.4281 21.4592 29.5003 21.5633 29.4813 21.6712C29.4625 21.7794 29.3588 21.8521 29.2513 21.8332Z" fill="black"/>
<path d="M15.1363 20.2432L23.7345 21.7593C23.842 21.7782 23.9457 21.7055 23.9644 21.5973C23.9835 21.4891 23.9113 21.3853 23.8037 21.3664L15.2055 19.8503C15.098 19.8313 14.9946 19.9041 14.9756 20.0123C14.9565 20.1204 15.0287 20.2242 15.1363 20.2432Z" fill="black"/>
</g>
<g opacity="0.6">
<path d="M36.7149 12.4845L14.4795 12.4845C14.4029 12.4845 14.3363 12.5354 14.3113 12.6079C10.2832 24.3058 10.794 28.7738 10.794 28.7738L31.2836 29.4561C31.2836 29.4561 32.4043 21.0309 36.869 12.752C36.9339 12.6318 36.8514 12.4845 36.7149 12.4845Z" fill="#F8FBFF"/>
<path d="M36.7149 12.4845L14.4795 12.4845C14.4029 12.4845 14.3363 12.5354 14.3113 12.6079C10.2832 24.3058 10.794 28.7738 10.794 28.7738L31.2836 29.4561C31.2836 29.4561 32.4043 21.0309 36.869 12.752C36.9339 12.6318 36.8514 12.4845 36.7149 12.4845Z" fill="url(#paint2_linear)"/>
<path d="M27.7746 14.7955C27.7552 15.0118 27.5641 15.1721 27.3478 15.1536L18.8938 14.4312C18.6775 14.4127 18.5178 14.2225 18.5372 14.0063C18.5566 13.79 18.7476 13.6297 18.9639 13.6482L27.418 14.3706C27.6343 14.389 27.7939 14.5793 27.7746 14.7955Z" fill="black"/>
<path d="M29.9878 16.3885C29.9685 16.6057 29.7766 16.7668 29.5592 16.7481L16.4362 15.6214C16.2188 15.6028 16.0583 15.4115 16.0777 15.1942C16.0971 14.9769 16.289 14.8159 16.5063 14.8346L29.6294 15.9612C29.8467 15.9799 30.0072 16.1712 29.9878 16.3885Z" fill="black"/>
<path d="M29.3046 19.5958L15.1819 18.3603C15.0731 18.3507 14.9921 18.2534 15.0017 18.1443C15.0112 18.0348 15.1078 17.9533 15.2166 17.9628L29.3394 19.1984C29.4482 19.2079 29.5291 19.3053 29.5196 19.4144C29.5103 19.5239 29.4134 19.6054 29.3046 19.5958Z" fill="black"/>
<path d="M29.2389 20.4314L15.1161 19.1958C15.0073 19.1863 14.9264 19.0889 14.9359 18.9798C14.9455 18.8704 15.0421 18.7889 15.1509 18.7984L29.2736 20.034C29.3824 20.0435 29.4634 20.1409 29.4538 20.25C29.4446 20.3594 29.3477 20.4409 29.2389 20.4314Z" fill="black"/>
<path d="M15.039 20.0777L23.7366 20.8386C23.8454 20.8481 23.9423 20.7666 23.9515 20.6572C23.9611 20.5478 23.8801 20.4507 23.7713 20.4412L15.0737 19.6802C14.9649 19.6707 14.8683 19.7522 14.8588 19.8617C14.8492 19.9711 14.9302 20.0681 15.039 20.0777Z" fill="black"/>
</g>
<path d="M35.1965 10.5689C35.3288 10.5689 35.4147 10.7082 35.3585 10.8279C30.5574 21.0456 31.2409 31.3844 31.2409 31.3844L31.2403 31.3844C30.9535 34.133 32.2701 38.3382 35.287 38.7286H16.4508C11.5073 38.7286 9.47641 35.1941 9.47548 31.3847C9.47575 31.3844 9.47574 31.3844 9.47574 31.3844L9.47641 31.3844C9.47641 31.3844 8.78587 20.8514 13.6716 10.6462C13.7014 10.584 13.7656 10.5439 13.8345 10.5439C23.0852 10.5441 29.4604 10.5681 35.1965 10.5689Z" fill="url(#paint3_radial)"/>
<rect x="15.2559" y="13.168" width="6.71619" height="1.41393" rx="0.706967" fill="#C3D1E6"/>
<rect x="12.5688" y="26.9541" width="6.71619" height="1.41393" rx="0.706967" fill="#CFDBEC"/>
<rect x="13.0996" y="20.5911" width="16.4016" height="1.41393" rx="0.706967" fill="#CFDBEC"/>
<rect x="12.5688" y="23.7727" width="16.4016" height="1.41393" rx="0.706967" fill="#CFDBEC"/>
<rect x="14.1943" y="16.3494" width="8.58965" height="1.41393" rx="0.706967" fill="#CFDBEC"/>
</g>
<path fill-rule="evenodd" clip-rule="evenodd" d="M27.5649 33.0791C26.9403 34.0645 25.8401 34.7187 24.587 34.7187C23.9958 34.7187 23.4387 34.5731 22.9494 34.3158L22.0122 34.5669C22.7262 35.113 23.6187 35.4375 24.587 35.4375C26.3514 35.4375 27.8642 34.3602 28.5035 32.8275L27.5649 33.0791ZM22.4633 34.0069C21.6132 33.3637 21.064 32.3438 21.064 31.1957C21.064 30.7486 21.1473 30.3209 21.2992 29.9274L20.4756 30.1481C20.3904 30.4831 20.3452 30.8341 20.3452 31.1957C20.3452 32.3857 20.8353 33.4613 21.6246 34.2316L22.4633 34.0069ZM20.6287 29.6679C21.2419 28.0801 22.7829 26.9539 24.587 26.9539C25.5956 26.9539 26.522 27.3059 27.25 27.8937L26.3383 28.138C25.8224 27.8419 25.2245 27.6726 24.587 27.6726C23.2875 27.6726 22.1523 28.3762 21.5416 29.4233L20.6287 29.6679ZM26.7993 28.4536C27.5988 29.0995 28.1101 30.0879 28.1101 31.1957C28.1101 31.6825 28.0113 32.1464 27.8327 32.5682L28.6717 32.3433C28.7741 31.9783 28.8288 31.5934 28.8288 31.1957C28.8288 30.0429 28.369 28.9975 27.6227 28.233L26.7993 28.4536Z" fill="#F23333"/>
<path d="M19.3654 31.6165C19.2629 31.234 19.2117 31.0428 19.247 30.8768C19.278 30.7308 19.3545 30.5983 19.4654 30.4984C19.5916 30.3848 19.7828 30.3336 20.1652 30.2311L27.9519 28.1447C28.3344 28.0422 28.5256 27.991 28.6916 28.0263C28.8376 28.0573 28.9701 28.1338 29.07 28.2447C29.1836 28.3708 29.2348 28.5621 29.3373 28.9445L29.8496 30.8566C29.9521 31.239 30.0033 31.4302 29.968 31.5963C29.937 31.7423 29.8605 31.8748 29.7496 31.9747C29.6234 32.0882 29.4322 32.1395 29.0498 32.2419L21.2631 34.3284C20.8806 34.4309 20.6894 34.4821 20.5234 34.4468C20.3774 34.4158 20.2449 34.3393 20.145 34.2283C20.0314 34.1022 19.9802 33.911 19.8777 33.5285L19.3654 31.6165Z" fill="#F23333"/>
<path d="M22.0735 30.885L21.1582 31.1302L21.707 33.1784L22.2982 33.02L22.1438 32.4438L22.4604 32.359C22.966 32.2235 23.1229 31.8244 23.0163 31.4268C22.9118 31.0367 22.5791 30.7495 22.0735 30.885ZM22.4176 31.5872C22.4711 31.7868 22.3735 31.9207 22.1815 31.9721L22.0254 32.014L21.8646 31.4138L22.0356 31.3679C22.2187 31.3189 22.3654 31.3922 22.4176 31.5872Z" fill="white"/>
<path d="M23.9337 32.5817L23.9275 32.1444L24.5066 31.9892L24.7169 32.3719L25.3501 32.2022L24.1741 30.3221L23.4299 30.5215L23.347 32.7389L23.9337 32.5817ZM23.9299 30.9231L24.2965 31.5952L23.9154 31.6973L23.9014 30.9307L23.9299 30.9231Z" fill="white"/>
<path d="M26.1259 31.9943L25.5771 29.9462L24.9844 30.105L25.5332 32.1532L26.1259 31.9943Z" fill="white"/>
<path d="M25.9387 29.8493L26.4875 31.8975L27.3532 31.6655C28.0014 31.4918 28.1809 31.0031 28.0136 30.3789C27.8488 29.7637 27.4632 29.4408 26.8044 29.6173L25.9387 29.8493ZM26.6544 30.1497L26.8224 30.1046C27.1856 30.0073 27.3316 30.2641 27.4104 30.5582C27.5422 31.0504 27.3563 31.1726 27.1252 31.2345L26.9571 31.2795L26.6544 30.1497Z" fill="white"/>
<path d="M57.9661 24H61.9226V6.64488H57.9661V24ZM64.9614 24H68.481V16.6696C68.481 14.8006 69.6218 13.8782 71.1268 13.8782C72.6802 13.8782 73.3599 14.7035 73.3599 16.4269V24H76.8794V15.9171C76.8794 12.5189 75.1075 11.014 72.6074 11.014C70.4957 11.014 69.1121 12.0577 68.481 13.3199V11.3053H64.9614V24ZM82.5949 24H86.5514L91.1633 11.3053H87.7651L84.7552 20.3833L81.7211 11.3053H77.9588L82.5949 24ZM97.8838 21.597C95.8934 21.597 94.7769 20.1406 94.7769 17.7133V17.5191C94.7769 15.0918 95.942 13.684 97.8838 13.684C99.8499 13.684 100.991 15.1404 100.991 17.5677V17.7376C100.991 20.1406 99.8499 21.597 97.8838 21.597ZM97.8595 24.267C101.67 24.267 104.559 21.7183 104.559 17.7133V17.5191C104.559 13.5627 101.695 11.014 97.8838 11.014C94.073 11.014 91.1845 13.6112 91.1845 17.592V17.7861C91.1845 21.7426 94.073 24.267 97.8595 24.267ZM106.53 24H110.025V11.3053H106.53V24ZM108.253 9.5819C109.394 9.5819 110.268 8.75662 110.268 7.66434C110.268 6.57206 109.394 5.74679 108.253 5.74679C107.137 5.74679 106.263 6.57206 106.263 7.66434C106.263 8.75662 107.137 9.5819 108.253 9.5819ZM118.527 24.267C122.216 24.267 124.401 22.1795 124.595 19.1697H121.415C121.246 20.796 120.105 21.6213 118.697 21.6213C116.731 21.6213 115.59 20.3105 115.59 17.7619V17.5677C115.59 15.1404 116.804 13.7811 118.624 13.7811C120.056 13.7811 120.954 14.4608 121.197 15.9414H124.522C124.207 12.3005 121.488 11.014 118.551 11.014C114.935 11.014 111.998 13.5141 111.998 17.6162V17.8104C111.998 21.9611 114.813 24.267 118.527 24.267ZM132.171 24.267C135.642 24.267 137.827 22.7378 138.24 19.995H134.914C134.696 21.063 133.895 21.7669 132.268 21.7669C130.351 21.7669 129.21 20.5532 129.113 18.4415H138.264V17.4706C138.264 12.9316 135.351 11.014 132.074 11.014C128.385 11.014 125.545 13.6112 125.545 17.6162V17.8104C125.545 21.864 128.336 24.267 132.171 24.267ZM129.162 16.2812C129.429 14.485 130.497 13.4413 132.074 13.4413C133.749 13.4413 134.72 14.3637 134.841 16.2812H129.162ZM145.293 24H148.813V11.815L153.643 24H154.929L159.736 11.815V24H163.643V6.64488H158.546L154.541 17.4463L150.488 6.64488H145.293V24ZM169.912 24.267C171.902 24.267 173.019 23.4903 173.747 22.4708V24H177.17V15.7229C177.17 12.2762 174.961 11.014 171.854 11.014C168.747 11.014 166.368 12.349 166.15 15.3589H169.475C169.621 14.2666 170.252 13.5627 171.635 13.5627C173.237 13.5627 173.698 14.3879 173.698 15.8929V16.4026H172.266C168.383 16.4026 165.664 17.5191 165.664 20.4804C165.664 23.1504 167.606 24.267 169.912 24.267ZM170.956 21.8154C169.669 21.8154 169.111 21.2086 169.111 20.2862C169.111 18.927 170.3 18.4901 172.339 18.4901H173.698V19.5581C173.698 20.9659 172.509 21.8154 170.956 21.8154ZM179.705 24H183.224V18.0046L187.424 24H191.404L186.428 17.0822L191.04 11.3053H187.302L183.224 16.6696V5.5526H179.705V24ZM197.917 24.267C201.388 24.267 203.572 22.7378 203.985 19.995H200.66C200.441 21.063 199.64 21.7669 198.014 21.7669C196.096 21.7669 194.955 20.5532 194.858 18.4415H204.009V17.4706C204.009 12.9316 201.097 11.014 197.82 11.014C194.13 11.014 191.29 13.6112 191.29 17.6162V17.8104C191.29 21.864 194.082 24.267 197.917 24.267ZM194.907 16.2812C195.174 14.485 196.242 13.4413 197.82 13.4413C199.495 13.4413 200.465 14.3637 200.587 16.2812H194.907ZM205.828 24H209.347V17.6405C209.347 15.2132 210.852 14.3637 213.449 14.3879V11.1111C211.386 11.1354 210.148 12.0335 209.347 13.7326V11.3053H205.828V24Z" fill="white"/>
<path d="M61.128 41.566C62.856 41.566 63.984 40.246 63.984 38.326V38.23C63.984 36.274 62.772 35.074 61.128 35.074C60.216 35.074 59.364 35.626 59.004 36.238V32.182H58.008V41.458H59.004V40.426C59.364 41.05 60.108 41.566 61.128 41.566ZM61.032 40.738C59.808 40.738 58.968 39.982 58.968 38.374V38.278C58.968 36.67 59.856 35.902 61.02 35.902C62.076 35.902 62.952 36.694 62.952 38.278V38.374C62.952 39.898 62.28 40.738 61.032 40.738ZM66.0983 43.642H67.1062L70.5742 35.182H69.5543L67.8143 39.682L65.8942 35.182H64.8262L67.2862 40.81L66.0983 43.642ZM78.1456 41.566C79.8496 41.566 81.1096 40.474 81.1096 39.034C81.1096 37.414 80.1016 36.838 78.1936 36.538C76.4416 36.274 76.1296 35.842 76.1296 35.002C76.1296 34.198 76.7416 33.61 77.9176 33.61C79.1056 33.61 79.7296 34.054 79.9336 35.134H80.8696C80.7016 33.61 79.6336 32.77 77.9176 32.77C76.2976 32.77 75.1576 33.778 75.1576 35.098C75.1576 36.622 76.2256 37.186 78.0256 37.462C79.6576 37.726 80.1016 38.134 80.1016 39.106C80.1016 40.078 79.2496 40.726 78.1456 40.726C76.4176 40.726 76.0096 39.862 75.8776 38.842H74.8696C75.0256 40.306 75.8536 41.566 78.1456 41.566ZM84.517 41.566C85.441 41.566 86.005 41.254 86.473 40.666V41.458H87.469V37.318C87.469 35.566 86.377 35.074 85.177 35.074C83.965 35.074 82.825 35.602 82.693 37.03H83.689C83.785 36.262 84.265 35.902 85.129 35.902C86.089 35.902 86.473 36.322 86.473 37.318V37.774H85.573C83.965 37.774 82.429 38.266 82.429 39.718C82.429 41.002 83.353 41.566 84.517 41.566ZM84.613 40.774C83.737 40.774 83.425 40.366 83.425 39.718C83.425 38.794 84.349 38.482 85.609 38.482H86.473V39.262C86.473 40.234 85.669 40.774 84.613 40.774ZM89.5695 41.458H90.5775V32.182H89.5695V41.458ZM95.0998 41.566C96.0118 41.566 96.8878 40.99 97.2478 40.378V41.458H98.2438V32.182H97.2478V36.19C96.8878 35.578 96.2398 35.074 95.1958 35.074C93.4678 35.074 92.2678 36.43 92.2678 38.35V38.446C92.2678 40.402 93.4558 41.566 95.0998 41.566ZM95.2078 40.738C94.1518 40.738 93.2998 39.982 93.2998 38.398V38.302C93.2998 36.778 94.0438 35.902 95.2918 35.902C96.5158 35.902 97.2838 36.658 97.2838 38.266V38.362C97.2838 39.97 96.3718 40.738 95.2078 40.738ZM102.995 40.738C101.723 40.738 100.943 39.802 100.943 38.374V38.278C100.943 36.838 101.735 35.902 102.995 35.902C104.243 35.902 105.047 36.838 105.047 38.29V38.374C105.047 39.79 104.255 40.738 102.995 40.738ZM102.983 41.566C104.771 41.566 106.079 40.258 106.079 38.362V38.266C106.079 36.382 104.771 35.074 102.995 35.074C101.219 35.074 99.9113 36.394 99.9113 38.278V38.374C99.9113 40.21 101.195 41.566 102.983 41.566ZM110.461 41.458H111.445L112.273 38.986H115.813L116.653 41.458H117.685L114.781 32.878H113.413L110.461 41.458ZM114.049 33.742L115.537 38.158H112.561L114.049 33.742ZM119.243 43.642H120.239V40.426C120.599 41.05 121.331 41.566 122.363 41.566C124.091 41.566 125.219 40.246 125.219 38.326V38.23C125.219 36.274 124.007 35.074 122.363 35.074C121.451 35.074 120.599 35.626 120.239 36.238V35.182H119.243V43.642ZM122.267 40.738C121.043 40.738 120.203 39.982 120.203 38.374V38.278C120.203 36.67 121.091 35.902 122.255 35.902C123.311 35.902 124.187 36.694 124.187 38.278V38.374C124.187 39.898 123.515 40.738 122.267 40.738ZM126.887 43.642H127.883V40.426C128.243 41.05 128.975 41.566 130.007 41.566C131.735 41.566 132.863 40.246 132.863 38.326V38.23C132.863 36.274 131.651 35.074 130.007 35.074C129.095 35.074 128.243 35.626 127.883 36.238V35.182H126.887V43.642ZM129.911 40.738C128.687 40.738 127.847 39.982 127.847 38.374V38.278C127.847 36.67 128.735 35.902 129.899 35.902C130.955 35.902 131.831 36.694 131.831 38.278V38.374C131.831 39.898 131.159 40.738 129.911 40.738ZM136.474 41.566C137.998 41.566 138.778 40.798 138.778 39.658C138.778 38.326 137.866 38.038 136.57 37.798C135.418 37.594 135.106 37.366 135.106 36.802C135.106 36.262 135.574 35.902 136.294 35.902C137.086 35.902 137.47 36.202 137.614 36.886H138.574C138.406 35.53 137.434 35.074 136.306 35.074C135.322 35.074 134.182 35.674 134.182 36.838C134.182 37.93 134.734 38.386 136.366 38.686C137.338 38.866 137.83 39.082 137.83 39.742C137.83 40.414 137.41 40.738 136.462 40.738C135.454 40.738 135.058 40.27 134.986 39.526H134.014C134.074 40.81 134.974 41.566 136.474 41.566Z" fill="white" fill-opacity="0.5"/>
<defs>
<filter id="filter0_d" x="9.0835" y="10.5439" width="29.9093" height="31.2394" filterUnits="userSpaceOnUse" color-interpolation-filters="sRGB">
<feFlood flood-opacity="0" result="BackgroundImageFix"/>
<feColorMatrix in="SourceAlpha" type="matrix" values="0 0 0 0 0 0 0 0 0 0 0 0 0 0 0 0 0 0 127 0" result="hardAlpha"/>
<feOffset dy="2.69531"/>
<feGaussianBlur stdDeviation="0.179688"/>
<feColorMatrix type="matrix" values="0 0 0 0 0 0 0 0 0 0 0 0 0 0 0 0 0 0 1 0"/>
<feBlend mode="color-dodge" in2="BackgroundImageFix" result="effect1_dropShadow"/>
<feBlend mode="normal" in="SourceGraphic" in2="effect1_dropShadow" result="shape"/>
</filter>
<linearGradient id="paint0_linear" x1="32.4445" y1="37.309" x2="37.5415" y2="37.309" gradientUnits="userSpaceOnUse">
<stop stop-color="#9DC4FE"/>
<stop offset="1" stop-color="#CEDFFF"/>
</linearGradient>
<linearGradient id="paint1_linear" x1="17.4772" y1="18.1408" x2="30.097" y2="22.4861" gradientUnits="userSpaceOnUse">
<stop stop-color="#EFDAD5"/>
<stop offset="0.470672" stop-color="#DEF1D6"/>
<stop offset="1" stop-color="#C5E8F0"/>
</linearGradient>
<linearGradient id="paint2_linear" x1="12.1108" y1="18.9929" x2="32.8934" y2="22.6575" gradientUnits="userSpaceOnUse">
<stop stop-color="white"/>
<stop offset="1" stop-color="#96CDFF"/>
</linearGradient>
<radialGradient id="paint3_radial" cx="0" cy="0" r="1" gradientUnits="userSpaceOnUse" gradientTransform="translate(24.1106 6.55775) rotate(90) scale(33.3335 67.1486)">
<stop stop-color="white"/>
<stop offset="0.862545" stop-color="white"/>
<stop offset="0.895833" stop-color="#E2F0FF"/>
<stop offset="0.942708" stop-color="#ADD3FF"/>
<stop offset="1" stop-color="#61A9FE"/>
</radialGradient>
</defs>
</svg>
