<svg width="1440" height="615" viewBox="0 0 1440 615" fill="none" xmlns="http://www.w3.org/2000/svg">
<g opacity="0.3">
<g clip-path="url(#clip0)">
<rect width="99.5945" height="141.337" transform="matrix(0.964179 -0.265252 0.25252 0.967592 974.961 519.202)" fill="white"/>
<path d="M1070.58 491.194L974.549 517.612C973.694 517.847 973.186 518.75 973.415 519.628L1009.11 656.385C1009.33 657.263 1010.21 657.784 1011.07 657.549L1107.1 631.131C1107.95 630.896 1108.46 629.993 1108.23 629.115L1072.54 492.358C1072.31 491.481 1071.43 490.959 1070.58 491.194ZM1104.72 628.377L1011.79 653.942L976.928 520.366L1069.86 494.801L1104.72 628.377Z" fill="#CFDBEC"/>
<path d="M1016.15 635.038C1016.16 635.15 1016.23 635.249 1016.33 635.301L1018.62 636.523L1019.82 638.882C1019.87 638.982 1019.97 639.052 1020.08 639.066L1022.64 639.41L1024.55 641.21C1024.63 641.287 1024.74 641.319 1024.85 641.295L1027.38 640.717L1029.77 641.736C1029.87 641.78 1029.99 641.768 1030.08 641.709L1032.26 640.275L1034.85 640.396C1034.88 640.397 1034.92 640.394 1034.95 640.385C1035.02 640.366 1035.08 640.323 1035.13 640.262L1036.7 638.152L1039.17 637.355C1039.28 637.321 1039.36 637.235 1039.39 637.128L1040.17 634.592L1042.22 632.977C1042.31 632.908 1042.36 632.799 1042.35 632.686L1042.24 630.03L1043.64 627.79C1043.7 627.695 1043.71 627.575 1043.66 627.471L1042.67 625.016L1043.23 622.419C1043.25 622.309 1043.22 622.194 1043.15 622.111L1041.4 620.152L1041.06 617.515C1041.05 617.403 1040.98 617.304 1040.88 617.252L1038.59 616.03L1037.39 613.672C1037.34 613.572 1037.25 613.503 1037.14 613.489L1034.57 613.145L1032.66 611.345C1032.58 611.268 1032.47 611.236 1032.36 611.261L1029.83 611.837L1027.44 610.818C1027.34 610.775 1027.22 610.788 1027.13 610.845L1024.95 612.279L1022.36 612.157C1022.25 612.152 1022.15 612.201 1022.08 612.293L1020.5 614.403L1018.04 615.2C1017.93 615.235 1017.85 615.32 1017.82 615.428L1017.04 617.964L1014.98 619.579C1014.9 619.648 1014.85 619.757 1014.85 619.87L1014.97 622.526L1013.58 624.766C1013.52 624.861 1013.51 624.981 1013.55 625.085L1014.55 627.54L1013.98 630.135C1013.96 630.246 1013.99 630.36 1014.07 630.444L1015.81 632.403L1016.15 635.038ZM1014.68 630.108L1015.23 627.582C1015.24 627.511 1015.23 627.439 1015.21 627.374L1014.24 624.985L1015.6 622.804C1015.63 622.745 1015.65 622.673 1015.65 622.603L1015.54 620.017L1017.54 618.444C1017.59 618.4 1017.63 618.341 1017.65 618.272L1018.41 615.803L1020.81 615.028C1020.88 615.007 1020.94 614.965 1020.98 614.909L1022.51 612.854L1025.03 612.973C1025.1 612.976 1025.17 612.957 1025.23 612.919L1027.35 611.523L1029.68 612.515C1029.74 612.542 1029.81 612.55 1029.88 612.533L1032.34 611.972L1034.2 613.724C1034.25 613.773 1034.31 613.803 1034.38 613.813L1036.88 614.148L1038.04 616.443C1038.07 616.506 1038.12 616.558 1038.18 616.591L1040.42 617.78L1040.75 620.346C1040.75 620.417 1040.78 620.482 1040.83 620.536L1042.53 622.443L1041.99 624.971C1041.97 625.041 1041.98 625.113 1042.01 625.179L1042.98 627.568L1041.62 629.748C1041.58 629.808 1041.56 629.879 1041.57 629.95L1041.68 632.536L1039.67 634.107C1039.62 634.151 1039.58 634.21 1039.56 634.279L1038.8 636.748L1036.4 637.523C1036.34 637.544 1036.28 637.586 1036.24 637.642L1034.7 639.696L1032.18 639.578C1032.15 639.577 1032.12 639.58 1032.08 639.589C1032.05 639.598 1032.02 639.612 1031.99 639.632L1029.87 641.027L1027.54 640.035C1027.47 640.008 1027.4 640.001 1027.34 640.017L1024.88 640.58L1023.02 638.828C1022.97 638.779 1022.91 638.749 1022.84 638.739L1020.34 638.404L1019.18 636.108C1019.14 636.045 1019.09 635.993 1019.03 635.96L1016.8 634.77L1016.47 632.205C1016.46 632.134 1016.43 632.069 1016.38 632.015L1014.68 630.108Z" fill="#CFDBEC"/>
<path d="M1031.9 638.904C1038.69 637.038 1042.72 629.856 1040.91 622.893C1039.09 615.931 1032.1 611.783 1025.31 613.649C1018.53 615.514 1014.49 622.696 1016.31 629.66C1018.13 636.621 1025.12 640.77 1031.9 638.904ZM1025.73 615.239C1031.66 613.608 1037.77 617.233 1039.36 623.319C1040.95 629.406 1037.42 635.683 1031.49 637.314C1025.56 638.945 1019.45 635.32 1017.86 629.234C1016.27 623.146 1019.8 616.869 1025.73 615.239Z" fill="#CFDBEC"/>
<path d="M1077.3 617.07C1075.75 617.263 1074.53 617.998 1072.97 617.682C1072.04 617.495 1072.21 616.838 1071.08 617.348C1069.97 617.849 1069.52 619.418 1069.11 620.875C1069.04 618.837 1068.81 616.593 1066.59 617.17C1066.27 617.251 1065.94 617.44 1065.63 617.688C1064.34 617.114 1062.91 616.809 1061.45 616.487C1061.32 616.458 1061.17 616.438 1061.01 616.417C1062.7 613.737 1064.25 610.964 1065.63 608.318C1065.86 607.88 1065.4 607.45 1064.99 607.662C1061.67 609.353 1058.36 612.155 1057.07 615.816C1056.98 616.088 1057.19 616.343 1057.41 616.431C1058.09 616.693 1058.77 616.889 1059.45 617.06C1058.97 617.91 1058.49 618.763 1057.97 619.593C1056.93 621.244 1054.89 622.995 1054.33 624.807C1054.39 624.628 1054.11 624.5 1054.03 624.679C1054 624.759 1053.97 624.842 1053.93 624.923C1053.9 625.008 1053.9 625.126 1054 625.171C1054.03 625.187 1054.06 625.204 1054.1 625.22C1054.17 625.256 1054.26 625.252 1054.32 625.19C1056.55 622.888 1058.59 620.162 1060.45 617.298C1060.85 617.387 1061.26 617.476 1061.66 617.565C1061.99 617.64 1063.58 617.962 1064.85 618.477C1064.3 619.164 1063.96 619.97 1064.08 620.603C1063.72 620.594 1063.39 620.603 1063.18 620.689C1062.33 621.031 1062.05 621.272 1061.62 622.109C1061.46 622.421 1061.65 622.949 1062.06 622.898C1063.36 622.734 1063.65 621.972 1064.34 621.136C1065.08 621.982 1066.83 621.625 1067.92 620.947C1068.04 621.744 1068.1 622.693 1068.29 623.486C1068.4 623.948 1069 623.994 1069.23 623.614C1070.35 621.767 1069.98 619.064 1072.39 618.968C1072.78 618.952 1073.51 619.549 1074.26 619.488C1074.49 619.413 1074.69 619.3 1074.86 619.148C1075.79 618.046 1076.77 617.893 1077.8 618.686C1077.9 618.674 1078.16 618.74 1078.27 618.749C1079.74 618.883 1081.57 617.584 1082.91 617.139C1084.64 616.57 1086.34 616.143 1088.13 615.882C1088.92 615.767 1088.58 614.548 1087.81 614.656C1084.19 615.154 1080.88 616.624 1077.3 617.07ZM1059.2 615.98C1058.4 616.042 1058.18 615.761 1058.54 615.138C1058.67 614.259 1059.11 613.526 1059.84 612.938C1061.07 611.462 1062.55 610.231 1064.17 609.236C1062.99 611.629 1061.32 613.829 1060 616.121C1059.98 616.164 1059.95 616.207 1059.93 616.25C1059.65 616.188 1059.38 616.112 1059.2 615.98ZM1066.17 620.459C1065.96 620.671 1065.41 620.664 1064.82 620.634C1065.44 620.032 1065.94 619.646 1066.34 619.453C1066.54 619.76 1066.54 620.095 1066.17 620.459Z" fill="#CFDBEC"/>
<path d="M1031.07 537.004C1036.6 535.482 1039.89 529.625 1038.41 523.946C1036.93 518.268 1031.23 514.886 1025.69 516.408C1020.16 517.929 1016.87 523.786 1018.35 529.465C1019.83 535.144 1025.54 538.525 1031.07 537.004ZM1026.11 517.998C1030.79 516.711 1035.61 519.572 1036.86 524.372C1038.12 529.175 1035.33 534.127 1030.65 535.414C1025.98 536.7 1021.15 533.84 1019.9 529.039C1018.65 524.238 1021.43 519.285 1026.11 517.998Z" fill="#CFDBEC"/>
<path d="M1063.29 533.252L1001.34 550.296L1001.75 551.886L1063.71 534.842L1063.29 533.252Z" fill="#CFDBEC"/>
<path d="M1046.37 544.726L1021.59 551.543L1022 553.133L1046.78 546.316L1046.37 544.726Z" fill="#CFDBEC"/>
<path d="M1069.93 558.694L1007.98 575.738L1008.39 577.328L1070.35 560.285L1069.93 558.694Z" fill="#CFDBEC"/>
<path d="M1065.4 566.759L1015.84 580.394L1016.25 581.984L1065.81 568.349L1065.4 566.759Z" fill="#CFDBEC"/>
<path d="M1054.67 576.529L1029.88 583.347L1030.3 584.937L1055.08 578.119L1054.67 576.529Z" fill="#CFDBEC"/>
</g>
</g>
<g opacity="0.3">
<g clip-path="url(#clip1)">
<rect x="290.602" y="299.391" width="99.4144" height="141.581" fill="white"/>
<path d="M390.018 297.746H290.603C289.718 297.746 289 298.484 289 299.393V440.973C289 441.882 289.718 442.62 290.603 442.62H390.018C390.903 442.62 391.621 441.882 391.621 440.973V299.393C391.621 298.484 390.903 297.746 390.018 297.746ZM388.414 439.327H292.207V301.039H388.414V439.327Z" fill="#CFDBEC"/>
<path d="M301.184 422.226C301.17 422.338 301.21 422.451 301.29 422.527L303.201 424.318L303.761 426.914C303.785 427.025 303.86 427.117 303.961 427.16L306.354 428.174L307.741 430.419C307.8 430.515 307.901 430.576 308.01 430.581L310.598 430.694L312.65 432.314C312.737 432.383 312.853 432.403 312.957 432.37L315.426 431.565L317.895 432.37C317.929 432.38 317.963 432.387 317.996 432.387C318.07 432.387 318.142 432.362 318.202 432.316L320.254 430.696L322.84 430.582C322.951 430.577 323.052 430.517 323.11 430.421L324.497 428.177L326.889 427.163C326.99 427.12 327.066 427.028 327.09 426.918L327.649 424.322L329.562 422.529C329.644 422.453 329.684 422.339 329.668 422.227L329.325 419.592L330.521 417.233C330.572 417.132 330.572 417.014 330.521 416.913L329.325 414.556L329.666 411.92C329.681 411.808 329.641 411.695 329.561 411.619L327.649 409.828L327.09 407.233C327.066 407.123 326.99 407.031 326.889 406.988L324.495 405.974L323.108 403.728C323.049 403.633 322.948 403.572 322.839 403.567L320.251 403.452L318.197 401.832C318.109 401.762 317.992 401.744 317.891 401.776L315.421 402.581L312.954 401.776C312.849 401.741 312.734 401.761 312.647 401.832L310.593 403.452L308.007 403.565C307.896 403.57 307.795 403.631 307.737 403.726L306.35 405.97L303.957 406.984C303.856 407.027 303.78 407.119 303.756 407.23L303.201 409.828L301.29 411.62C301.208 411.696 301.168 411.81 301.184 411.922L301.526 414.557L300.329 416.915C300.278 417.015 300.278 417.134 300.329 417.234L301.526 419.592L301.184 422.226ZM301.008 417.073L302.172 414.778C302.204 414.714 302.217 414.643 302.207 414.572L301.874 412.007L303.735 410.262C303.787 410.215 303.822 410.15 303.836 410.081L304.38 407.554L306.71 406.566C306.774 406.538 306.828 406.492 306.865 406.431L308.215 404.247L310.731 404.136C310.8 404.133 310.867 404.108 310.922 404.066L312.921 402.488L315.323 403.272C315.389 403.294 315.461 403.294 315.527 403.272L317.931 402.488L319.93 404.066C319.985 404.108 320.052 404.135 320.121 404.136L322.638 404.248L323.989 406.433C324.025 406.494 324.08 406.54 324.144 406.568L326.474 407.556L327.017 410.081C327.032 410.15 327.069 410.215 327.118 410.262L328.98 412.006L328.647 414.571C328.637 414.641 328.65 414.712 328.682 414.776L329.846 417.071L328.682 419.368C328.65 419.432 328.637 419.503 328.647 419.574L328.98 422.139L327.118 423.884C327.067 423.931 327.032 423.996 327.017 424.065L326.472 426.592L324.142 427.578C324.078 427.606 324.024 427.652 323.987 427.713L322.637 429.898L320.121 430.008C320.052 430.011 319.985 430.036 319.93 430.079L317.932 431.656L315.529 430.872C315.495 430.862 315.461 430.856 315.428 430.856C315.394 430.856 315.359 430.861 315.327 430.872L312.923 431.656L310.925 430.079C310.871 430.036 310.803 430.01 310.734 430.008L308.217 429.898L306.867 427.713C306.83 427.652 306.775 427.606 306.711 427.578L304.381 426.59L303.838 424.063C303.823 423.994 303.787 423.93 303.737 423.882L301.877 422.139L302.207 419.574C302.217 419.503 302.204 419.432 302.172 419.368L301.008 417.073Z" fill="#CFDBEC"/>
<path d="M315.426 430.147C322.448 430.147 328.159 424.283 328.159 417.074C328.159 409.867 322.448 404.001 315.426 404.001C308.406 404.001 302.693 409.865 302.693 417.074C302.695 424.282 308.406 430.147 315.426 430.147ZM315.426 405.647C321.564 405.647 326.556 410.774 326.556 417.074C326.556 423.376 321.563 428.501 315.426 428.501C309.29 428.501 304.297 423.375 304.297 417.074C304.298 410.772 309.29 405.647 315.426 405.647Z" fill="#CFDBEC"/>
<path d="M315.428 425.138C319.76 425.138 323.285 421.519 323.285 417.071C323.285 412.623 319.76 409.006 315.428 409.006C311.095 409.006 307.572 412.624 307.572 417.071C307.572 421.518 311.097 425.138 315.428 425.138ZM315.428 409.664C319.406 409.664 322.643 412.987 322.643 417.071C322.643 421.155 319.406 424.479 315.428 424.479C311.449 424.479 308.214 421.155 308.214 417.071C308.214 412.987 311.449 409.664 315.428 409.664Z" fill="#CFDBEC"/>
<path d="M364.776 421.119C363.232 420.894 361.872 421.281 360.44 420.56C359.592 420.133 359.922 419.544 358.703 419.736C357.506 419.926 356.67 421.32 355.913 422.621C356.356 420.632 356.702 418.405 354.406 418.37C354.084 418.365 353.718 418.461 353.349 418.615C352.249 417.718 350.941 417.043 349.618 416.345C349.503 416.284 349.357 416.223 349.209 416.161C351.52 414.022 353.71 411.754 355.715 409.566C356.046 409.203 355.713 408.667 355.259 408.761C351.627 409.513 347.728 411.34 345.558 414.534C345.398 414.771 345.534 415.072 345.733 415.219C346.315 415.65 346.923 416.021 347.543 416.368C346.859 417.06 346.18 417.756 345.468 418.419C344.049 419.738 341.638 420.887 340.645 422.491C340.743 422.333 340.504 422.133 340.387 422.286C340.334 422.356 340.281 422.426 340.227 422.496C340.172 422.568 340.147 422.683 340.227 422.752C340.256 422.777 340.284 422.802 340.312 422.826C340.374 422.881 340.459 422.901 340.533 422.856C343.27 421.226 345.93 419.135 348.451 416.864C348.815 417.056 349.18 417.249 349.549 417.443C349.851 417.603 351.305 418.337 352.397 419.17C351.696 419.689 351.159 420.375 351.117 421.019C350.774 420.915 350.457 420.838 350.229 420.864C349.318 420.968 348.988 421.126 348.363 421.821C348.13 422.079 348.181 422.64 348.589 422.7C349.889 422.887 350.356 422.227 351.239 421.605C351.738 422.617 353.523 422.739 354.74 422.372C354.655 423.174 354.472 424.106 354.456 424.922C354.446 425.398 355.022 425.604 355.339 425.298C356.887 423.811 357.207 421.101 359.555 421.648C359.943 421.738 360.491 422.507 361.237 422.649C361.471 422.636 361.692 422.58 361.901 422.479C363.079 421.663 364.062 421.774 364.853 422.813C364.95 422.828 365.189 422.961 365.29 422.999C366.679 423.52 368.771 422.751 370.184 422.678C371.991 422.586 373.742 422.626 375.538 422.85C376.329 422.948 376.316 421.682 375.538 421.58C371.916 421.1 368.353 421.641 364.776 421.119ZM347.567 415.257C346.78 415.104 346.641 414.774 347.146 414.269C347.497 413.456 348.101 412.863 348.958 412.489C350.513 411.39 352.256 410.595 354.069 410.063C352.333 412.063 350.157 413.742 348.311 415.608C348.276 415.642 348.241 415.677 348.206 415.711C347.952 415.578 347.716 415.435 347.567 415.257ZM353.178 421.437C352.92 421.585 352.387 421.432 351.826 421.246C352.581 420.831 353.162 420.591 353.59 420.508C353.709 420.859 353.622 421.182 353.178 421.437Z" fill="#CFDBEC"/>
<path d="M340.31 331.497C346.036 331.497 350.694 326.714 350.694 320.835C350.694 314.956 346.036 310.174 340.31 310.174C334.584 310.174 329.926 314.956 329.926 320.835C329.926 326.714 334.584 331.497 340.31 331.497ZM340.31 311.82C345.152 311.82 349.09 315.865 349.09 320.835C349.09 325.807 345.151 329.85 340.31 329.85C335.469 329.85 331.529 325.805 331.529 320.835C331.529 315.865 335.467 311.82 340.31 311.82Z" fill="#CFDBEC"/>
<path d="M372.381 336.435H308.242V338.081H372.381V336.435Z" fill="#CFDBEC"/>
<path d="M353.14 343.021H327.484V344.667H353.14V343.021Z" fill="#CFDBEC"/>
<path d="M372.379 362.775H308.24V364.421H372.379V362.775Z" fill="#CFDBEC"/>
<path d="M365.967 369.36H314.656V371.006H365.967V369.36Z" fill="#CFDBEC"/>
<path d="M353.138 375.946H327.482V377.592H353.138V375.946Z" fill="#CFDBEC"/>
</g>
</g>
<g opacity="0.3">
<g clip-path="url(#clip2)">
<rect width="99.5945" height="141.337" transform="matrix(0.964179 0.265252 -0.25252 0.967592 934.652 -25.7075)" fill="white"/>
<path d="M1031.1 -0.877476L935.068 -27.2951C934.213 -27.5303 933.334 -27.0088 933.105 -26.131L897.414 110.626C897.185 111.503 897.693 112.407 898.548 112.642L994.575 139.059C995.43 139.295 996.31 138.773 996.539 137.895L1032.23 1.13881C1032.46 0.261021 1031.95 -0.642274 1031.1 -0.877476ZM993.856 135.453L900.927 109.888L935.787 -23.6886L1028.72 1.87682L993.856 135.453Z" fill="#CFDBEC"/>
<path d="M913.91 95.7548C913.868 95.8591 913.878 95.9795 913.937 96.0739L915.331 98.312L915.217 100.968C915.213 101.081 915.262 101.19 915.349 101.259L917.404 102.874L918.178 105.411C918.211 105.519 918.293 105.605 918.398 105.639L920.869 106.436L922.443 108.546C922.509 108.636 922.616 108.686 922.725 108.682L925.313 108.561L927.495 109.994C927.525 110.013 927.556 110.028 927.588 110.037C927.66 110.057 927.735 110.052 927.804 110.023L930.195 109.004L932.722 109.581C932.83 109.606 932.943 109.574 933.023 109.497L934.928 107.698L937.495 107.354C937.603 107.34 937.699 107.271 937.75 107.171L938.945 104.812L941.245 103.588C941.343 103.537 941.41 103.438 941.423 103.325L941.756 100.688L943.506 98.7275C943.581 98.6441 943.611 98.5296 943.587 98.419L943.026 95.824L944.02 93.3688C944.062 93.2645 944.052 93.1442 943.994 93.0497L942.599 90.8117L942.713 88.1568C942.717 88.0439 942.668 87.9348 942.581 87.8666L940.524 86.2509L939.75 83.7133C939.717 83.6053 939.635 83.5197 939.531 83.4859L937.06 82.6869L935.484 80.5763C935.417 80.4861 935.308 80.4375 935.203 80.4409L932.615 80.5623L930.434 79.1289C930.342 79.0678 930.225 79.0562 930.124 79.1016L927.732 80.1205L925.205 79.543C925.097 79.5184 924.984 79.5503 924.904 79.6272L922.998 81.4261L920.43 81.7695C920.322 81.784 920.226 81.853 920.175 81.9532L918.984 84.3151L916.686 85.5389C916.588 85.5903 916.521 85.6894 916.508 85.8018L916.173 88.4384L914.424 90.3977C914.349 90.4811 914.319 90.5956 914.343 90.7062L914.904 93.3013L913.91 95.7548ZM915.039 90.7306L916.742 88.8232C916.789 88.7697 916.819 88.7048 916.828 88.6338L917.152 86.0677L919.39 84.8768C919.452 84.8443 919.502 84.7917 919.534 84.7287L920.696 82.4322L923.195 82.0972C923.264 82.0872 923.328 82.0572 923.379 82.0081L925.234 80.2567L927.692 80.8187C927.76 80.8338 927.831 80.8279 927.894 80.801L930.223 79.809L932.346 81.2042C932.404 81.2423 932.474 81.2615 932.543 81.2583L935.062 81.1401L936.596 83.1948C936.637 83.2506 936.696 83.294 936.762 83.3139L939.165 84.091L939.919 86.5599C939.939 86.6286 939.98 86.6876 940.035 86.7317L942.036 88.3049L941.925 90.8887C941.921 90.9593 941.941 91.0311 941.977 91.0905L943.336 93.2692L942.367 95.6581C942.34 95.7239 942.334 95.7957 942.349 95.8662L942.895 98.3923L941.192 100.301C941.144 100.355 941.114 100.42 941.106 100.491L940.781 103.057L938.543 104.248C938.481 104.28 938.431 104.333 938.4 104.396L937.236 106.692L934.737 107.025C934.668 107.035 934.604 107.065 934.553 107.114L932.698 108.866L930.24 108.304C930.173 108.289 930.101 108.295 930.038 108.321L927.711 109.314L925.586 107.918C925.556 107.9 925.526 107.885 925.493 107.876C925.461 107.867 925.425 107.862 925.391 107.865L922.872 107.983L921.34 105.929C921.298 105.873 921.24 105.829 921.173 105.809L918.77 105.034L918.016 102.565C917.996 102.496 917.955 102.437 917.9 102.393L915.899 100.82L916.01 98.2346C916.014 98.164 915.995 98.0922 915.959 98.0329L914.601 95.8546L915.567 93.4648C915.594 93.399 915.6 93.3272 915.585 93.2567L915.039 90.7306Z" fill="#CFDBEC"/>
<path d="M925.669 107.191C932.451 109.057 939.446 104.91 941.264 97.9467C943.081 90.9848 939.042 83.8012 932.26 81.9353C925.479 80.0699 918.483 84.216 916.665 91.1795C914.85 98.1418 918.888 105.325 925.669 107.191ZM931.845 83.5255C937.774 85.1566 941.303 91.4349 939.715 97.5206C938.126 103.608 932.011 107.231 926.084 105.601C920.157 103.97 916.626 97.6913 918.214 91.6056C919.804 85.5187 925.918 81.8949 931.845 83.5255Z" fill="#CFDBEC"/>
<path d="M926.933 102.352C931.118 103.504 935.435 100.945 936.556 96.6482C937.677 92.3515 935.185 87.9213 931 86.77C926.815 85.6187 922.5 88.1779 921.379 92.473C920.258 96.7681 922.75 101.201 926.933 102.352ZM930.834 87.4061C934.676 88.4632 936.966 92.5325 935.936 96.4778C934.907 100.423 930.942 102.773 927.099 101.716C923.257 100.659 920.969 96.5887 921.999 92.6434C923.028 88.6981 926.991 86.349 930.834 87.4061Z" fill="#CFDBEC"/>
<path d="M975.614 111.584C974.18 110.956 972.769 110.968 971.567 109.891C970.855 109.254 971.323 108.773 970.097 108.635C968.893 108.499 967.734 109.624 966.675 110.679C967.604 108.876 968.5 106.817 966.291 106.173C965.981 106.083 965.604 106.078 965.209 106.129C964.372 104.97 963.279 103.971 962.177 102.945C962.081 102.855 961.955 102.758 961.828 102.658C964.599 101.206 967.287 99.5971 969.774 98.0163C970.186 97.7547 969.999 97.1477 969.537 97.1177C965.84 96.8793 961.612 97.6082 958.712 100.117C958.497 100.303 958.553 100.63 958.708 100.825C959.161 101.396 959.655 101.915 960.167 102.416C959.331 102.902 958.5 103.394 957.645 103.846C955.942 104.742 953.323 105.211 951.96 106.497C952.095 106.37 951.914 106.114 951.762 106.231C951.694 106.283 951.625 106.338 951.555 106.39C951.484 106.446 951.43 106.55 951.49 106.638C951.512 106.67 951.533 106.701 951.553 106.732C951.6 106.801 951.677 106.843 951.76 106.82C954.814 105.973 957.911 104.66 960.918 103.135C961.221 103.418 961.526 103.701 961.833 103.987C962.084 104.221 963.304 105.317 964.149 106.412C963.341 106.727 962.649 107.247 962.447 107.858C962.141 107.666 961.854 107.507 961.628 107.472C960.722 107.33 960.363 107.395 959.584 107.9C959.294 108.088 959.202 108.644 959.58 108.809C960.789 109.336 961.406 108.823 962.417 108.456C962.643 109.567 964.336 110.159 965.604 110.127C965.32 110.879 964.909 111.731 964.687 112.515C964.558 112.972 965.062 113.324 965.446 113.113C967.315 112.088 968.308 109.556 970.438 110.707C970.79 110.898 971.126 111.786 971.81 112.121C972.04 112.171 972.268 112.175 972.494 112.134C973.839 111.658 974.76 112.027 975.262 113.241C975.352 113.281 975.549 113.474 975.637 113.537C976.848 114.408 979.063 114.222 980.445 114.527C982.214 114.918 983.895 115.422 985.574 116.115C986.312 116.421 986.619 115.195 985.894 114.889C982.516 113.462 978.938 113.039 975.614 111.584ZM960.47 101.349C959.748 100.992 959.696 100.636 960.312 100.282C960.856 99.5903 961.589 99.1784 962.511 99.045C964.29 98.396 966.174 98.0911 968.06 98.0594C965.878 99.53 963.353 100.574 961.1 101.885C961.058 101.909 961.015 101.933 960.972 101.957C960.761 101.761 960.569 101.56 960.47 101.349ZM964.331 108.809C964.045 108.884 963.569 108.594 963.074 108.265C963.908 108.065 964.529 107.988 964.964 108.022C964.99 108.392 964.825 108.681 964.331 108.809Z" fill="#CFDBEC"/>
<path d="M974.573 18.5132C980.104 20.0348 985.809 16.6531 987.291 10.9745C988.773 5.29595 985.479 -0.56135 979.948 -2.08292C974.417 -3.60449 968.712 -0.22278 967.23 5.45579C965.748 11.1344 969.042 16.9917 974.573 18.5132ZM979.533 -0.492729C984.211 0.794065 986.995 5.74764 985.742 10.5484C984.489 15.3508 979.664 18.2094 974.988 16.923C970.312 15.6367 967.526 10.6827 968.779 5.88188C970.032 1.0811 974.856 -1.77952 979.533 -0.492729Z" fill="#CFDBEC"/>
<path d="M1004.31 31.8058L942.354 14.7622L941.939 16.3524L1003.89 33.396L1004.31 31.8058Z" fill="#CFDBEC"/>
<path d="M984.06 33.0543L959.279 26.2368L958.864 27.827L983.645 34.6445L984.06 33.0543Z" fill="#CFDBEC"/>
<path d="M997.666 57.2482L935.713 40.2046L935.298 41.7948L997.251 58.8384L997.666 57.2482Z" fill="#CFDBEC"/>
<path d="M989.812 61.9059L940.25 48.271L939.835 49.8612L989.397 63.4961L989.812 61.9059Z" fill="#CFDBEC"/>
<path d="M975.76 64.856L950.979 58.0386L950.564 59.6288L975.345 66.4462L975.76 64.856Z" fill="#CFDBEC"/>
</g>
</g>
<g opacity="0.3">
<g clip-path="url(#clip3)">
<rect width="99.5945" height="141.337" transform="matrix(0.964179 -0.265252 0.25252 0.967592 -23.0391 84.9048)" fill="white"/>
<path d="M18.3371 187.625C19.2435 185.545 19.8758 182.854 21.1767 180.994C21.762 180.158 20.9914 181.836 20.9061 182.26C20.6983 183.296 20.5192 184.594 20.4338 185.647C20.3241 186.976 20.4457 187.989 20.8744 189.224C20.9588 189.465 21.1604 189.589 21.4085 189.541C23.1215 189.21 21.6113 189.383 23.1416 188.778C23.3859 188.588 23.5953 188.36 23.7714 188.093C24.9745 187.456 26.075 187.417 27.0736 187.974C28.1786 187.997 28.4385 188.548 29.649 188.148C31.2014 187.634 32.0759 186.501 33.7712 185.994C35.134 185.586 36.6088 185.583 37.9957 185.242C41.2792 184.434 44.4591 182.949 47.6313 181.785C48.301 181.54 48.0471 180.478 47.3412 180.674C43.5967 181.712 40.1276 183.584 36.311 184.378C34.883 184.675 33.3438 184.719 32 185.358C29.8614 186.374 29.0077 186.874 26.5099 186.565C24.8889 186.365 24.8479 186.754 23.4349 187.141C20.5529 187.929 21.3342 185.599 21.5905 183.509C21.7435 182.257 21.7952 181.233 21.627 179.991C21.5779 179.631 21.0872 179.64 20.93 179.897C19.7624 181.796 19.1008 184.076 18.2735 186.141C17.432 188.24 15.3983 194.944 12.516 194.815C12.3615 194.808 12.3196 195.074 12.4787 195.098C15.5069 195.564 17.4472 189.666 18.3371 187.625Z" fill="#CFDBEC"/>
<path d="M72.5758 56.8955L-23.4512 83.3132C-24.3061 83.5484 -24.8141 84.4517 -24.585 85.3295L11.1055 222.086C11.3346 222.964 12.2143 223.485 13.0693 223.25L109.096 196.832C109.951 196.597 110.459 195.694 110.23 194.816L74.5396 58.0596C74.3105 57.1819 73.4307 56.6603 72.5758 56.8955ZM106.717 194.078L13.7881 219.644L-21.0723 86.0675L71.8569 60.502L106.717 194.078Z" fill="#CFDBEC"/>
<path d="M64.8457 71.8037L52.4551 75.2124L52.8701 76.8026L65.2607 73.3939L64.8457 71.8037Z" fill="#CFDBEC"/>
<path d="M66.5077 78.1665L54.1172 81.5752L54.5322 83.1654L66.9227 79.7567L66.5077 78.1665Z" fill="#CFDBEC"/>
<path d="M68.168 84.5261L61.9727 86.2305L62.3877 87.8207L68.583 86.1163L68.168 84.5261Z" fill="#CFDBEC"/>
<path d="M35.7674 113.039L-1.4043 123.265L-0.574286 126.446L36.5974 116.219L35.7674 113.039Z" fill="#CFDBEC"/>
<path d="M72.9414 102.812L60.5508 106.221L61.3808 109.402L73.7714 105.993L72.9414 102.812Z" fill="#CFDBEC"/>
<path d="M78.1267 122.692L3.7832 143.144L4.19821 144.734L78.5417 124.282L78.1267 122.692Z" fill="#CFDBEC"/>
<path d="M79.7868 129.051L5.44336 149.503L5.85836 151.093L80.2018 130.641L79.7868 129.051Z" fill="#CFDBEC"/>
<path d="M81.447 135.413L7.10352 155.866L7.51851 157.456L81.8619 137.004L81.447 135.413Z" fill="#CFDBEC"/>
<path d="M83.1051 141.773L8.76172 162.225L9.17671 163.815L83.5201 143.363L83.1051 141.773Z" fill="#CFDBEC"/>
<path d="M59.9861 154.953L10.4238 168.588L10.8388 170.178L60.4011 156.543L59.9861 154.953Z" fill="#CFDBEC"/>
<path d="M37.205 194.881L18.6191 199.994L18.9391 201.22L37.525 196.107L37.205 194.881Z" fill="#CFDBEC"/>
</g>
</g>
<g opacity="0.3">
<g clip-path="url(#clip4)">
<rect x="392.6" y="-13.7539" width="99.4144" height="141.581" fill="white"/>
<path d="M406.672 96.461C408.072 94.6929 409.361 92.2613 411.086 90.8109C411.862 90.159 410.695 91.5748 410.506 91.9617C410.044 92.9066 409.544 94.1134 409.196 95.1077C408.755 96.3622 408.617 97.373 408.719 98.6802C408.74 98.9354 408.904 99.1082 409.156 99.128C410.894 99.263 409.391 99.0292 411.022 98.8514C411.306 98.7329 411.566 98.5682 411.803 98.3575C413.126 98.0612 414.198 98.3164 415.023 99.1198C416.084 99.4359 416.196 100.037 417.466 99.9725C419.095 99.8886 420.226 99.0259 421.991 98.9864C423.41 98.9551 424.836 99.3437 426.261 99.3832C429.636 99.4754 433.082 98.886 436.44 98.6045C437.149 98.5452 437.171 97.4521 436.44 97.4537C432.561 97.4619 428.739 98.3476 424.852 98.1007C423.397 98.0085 421.9 97.6414 420.441 97.9015C418.119 98.3147 417.168 98.5715 414.833 97.6085C413.318 96.9845 413.18 97.35 411.718 97.3483C408.735 97.3434 410.078 95.3004 410.852 93.3495C411.315 92.1806 411.623 91.206 411.774 89.9614C411.817 89.6009 411.341 89.4791 411.125 89.6849C409.518 91.2093 408.304 93.2359 406.984 95.0106C405.642 96.815 401.988 102.75 399.237 101.859C399.089 101.811 398.982 102.057 399.129 102.123C401.937 103.377 405.298 98.1962 406.672 96.461Z" fill="#CFDBEC"/>
<path d="M492.018 -15.4009L392.603 -15.4009C391.718 -15.4009 391 -14.6633 391 -13.7546V127.826C391 128.735 391.718 129.472 392.603 129.472H492.018C492.903 129.472 493.621 128.735 493.621 127.826V-13.7546C493.621 -14.6633 492.903 -15.4009 492.018 -15.4009ZM490.414 126.18H394.207V-12.1083L490.414 -12.1083V126.18Z" fill="#CFDBEC"/>
<path d="M480.794 3.53271H467.967V5.179H480.794V3.53271Z" fill="#CFDBEC"/>
<path d="M480.795 10.1167H474.381V11.763H480.795V10.1167Z" fill="#CFDBEC"/>
<path d="M442.311 29.0483H403.828V32.3409H442.311V29.0483Z" fill="#CFDBEC"/>
<path d="M480.796 29.0483H467.969V32.3409H480.796V29.0483Z" fill="#CFDBEC"/>
<path d="M480.794 49.6284H403.828V51.2747H480.794V49.6284Z" fill="#CFDBEC"/>
<path d="M480.794 56.2114H403.828V57.8577H480.794V56.2114Z" fill="#CFDBEC"/>
<path d="M480.794 62.7988H403.828V64.4451H480.794V62.7988Z" fill="#CFDBEC"/>
<path d="M480.792 69.3823H403.826V71.0286H480.792V69.3823Z" fill="#CFDBEC"/>
<path d="M455.139 75.9702H403.828V77.6165H455.139V75.9702Z" fill="#CFDBEC"/>
<path d="M423.07 108.483H403.828V109.753H423.07V108.483Z" fill="#CFDBEC"/>
</g>
</g>
<g opacity="0.3">
<g clip-path="url(#clip5)">
<rect width="99.5945" height="141.337" transform="matrix(0.964179 0.265252 -0.25252 0.967592 1365.65 353.151)" fill="white"/>
<path d="M1351.46 463.35C1353.26 462.014 1355.11 460.008 1357.15 459.065C1358.06 458.642 1356.58 459.699 1356.3 460.023C1355.61 460.813 1354.82 461.845 1354.24 462.713C1353.5 463.808 1353.11 464.748 1352.88 466.038C1352.83 466.29 1352.95 466.5 1353.19 466.586C1354.83 467.178 1353.44 466.553 1355.06 466.815C1355.36 466.776 1355.65 466.686 1355.94 466.545C1357.29 466.611 1358.26 467.142 1358.85 468.137C1359.8 468.725 1359.76 469.335 1361 469.61C1362.59 469.962 1363.9 469.429 1365.62 469.86C1367 470.207 1368.28 470.961 1369.64 471.378C1372.88 472.364 1376.36 472.71 1379.67 473.331C1380.37 473.462 1380.67 472.412 1379.96 472.219C1376.21 471.196 1372.3 471.036 1368.61 469.765C1367.22 469.289 1365.87 468.537 1364.39 468.4C1362.05 468.182 1361.06 468.178 1359.05 466.627C1357.75 465.622 1357.52 465.938 1356.11 465.548C1353.23 464.751 1355.04 463.134 1356.28 461.455C1357.02 460.449 1357.57 459.59 1358.03 458.428C1358.16 458.091 1357.73 457.847 1357.47 457.988C1355.53 459.033 1353.85 460.668 1352.13 462.032C1350.37 463.418 1345.35 468.18 1342.92 466.588C1342.79 466.503 1342.62 466.711 1342.75 466.814C1345.14 468.772 1349.69 464.661 1351.46 463.35Z" fill="#CFDBEC"/>
<path d="M1462.1 377.979L1366.07 351.561C1365.21 351.326 1364.33 351.848 1364.1 352.725L1328.41 489.482C1328.18 490.36 1328.69 491.263 1329.55 491.498L1425.57 517.916C1426.43 518.151 1427.31 517.63 1427.54 516.752L1463.23 379.995C1463.46 379.117 1462.95 378.214 1462.1 377.979ZM1424.86 514.309L1331.93 488.744L1366.79 355.168L1459.72 380.733L1424.86 514.309Z" fill="#CFDBEC"/>
<path d="M1448.14 386.921L1435.75 383.512L1435.34 385.102L1447.73 388.511L1448.14 386.921Z" fill="#CFDBEC"/>
<path d="M1446.48 393.284L1434.09 389.875L1433.68 391.466L1446.07 394.874L1446.48 393.284Z" fill="#CFDBEC"/>
<path d="M1444.82 399.645L1438.63 397.94L1438.21 399.531L1444.41 401.235L1444.82 399.645Z" fill="#CFDBEC"/>
<path d="M1402.88 407.705L1365.71 397.479L1364.88 400.659L1402.05 410.886L1402.88 407.705Z" fill="#CFDBEC"/>
<path d="M1440.05 417.932L1427.66 414.523L1426.83 417.703L1439.22 421.112L1440.05 417.932Z" fill="#CFDBEC"/>
<path d="M1434.86 437.81L1360.52 417.357L1360.1 418.948L1434.45 439.4L1434.86 437.81Z" fill="#CFDBEC"/>
<path d="M1433.2 444.169L1358.86 423.716L1358.44 425.306L1432.79 445.759L1433.2 444.169Z" fill="#CFDBEC"/>
<path d="M1431.54 450.531L1357.2 430.079L1356.78 431.669L1431.13 452.121L1431.54 450.531Z" fill="#CFDBEC"/>
<path d="M1429.88 456.89L1355.54 436.438L1355.12 438.028L1429.47 458.48L1429.88 456.89Z" fill="#CFDBEC"/>
<path d="M1403.44 456.437L1353.88 442.802L1353.46 444.392L1403.02 458.027L1403.44 456.437Z" fill="#CFDBEC"/>
<path d="M1364.27 479.32L1345.68 474.207L1345.36 475.433L1363.95 480.546L1364.27 479.32Z" fill="#CFDBEC"/>
</g>
</g>
<g opacity="0.3">
<g clip-path="url(#clip6)">
<rect width="99.5945" height="141.337" transform="matrix(0.964179 -0.265252 0.25252 0.967592 507.961 464.787)" fill="white"/>
<path d="M603.576 436.779L507.549 463.196C506.694 463.431 506.187 464.339 506.418 465.225L542.102 601.955C542.333 602.842 543.214 603.368 544.069 603.133L640.096 576.716C640.951 576.48 641.458 575.572 641.227 574.687L605.543 437.955C605.312 437.07 604.431 436.543 603.576 436.779ZM628.587 538.977L637.717 573.961L544.788 599.527L535.658 564.542L509.928 465.951L602.857 440.385L628.587 538.977Z" fill="#CFDBEC"/>
<path d="M552.273 462.822L521.297 471.344L522.127 474.525L553.103 466.003L552.273 462.822Z" fill="#CFDBEC"/>
<path d="M537.213 481.453L524.822 484.862L525.237 486.452L537.628 483.043L537.213 481.453Z" fill="#CFDBEC"/>
<path d="M557.459 482.701L526.482 491.222L526.897 492.813L557.874 484.291L557.459 482.701Z" fill="#CFDBEC"/>
<path d="M595.846 451.689L571.064 458.506L571.479 460.096L596.261 453.279L595.846 451.689Z" fill="#CFDBEC"/>
<path d="M599.166 464.409L574.385 471.227L574.8 472.817L599.581 466L599.166 464.409Z" fill="#CFDBEC"/>
<path d="M600.826 470.772L576.045 477.59L576.46 479.18L601.241 472.362L600.826 470.772Z" fill="#CFDBEC"/>
<path d="M536.64 565.124L536.94 565.041C537.367 564.924 537.621 564.472 537.506 564.034C537.392 563.595 536.952 563.335 536.525 563.452L536.225 563.535C535.798 563.652 535.544 564.104 535.659 564.542C535.773 564.981 536.213 565.241 536.64 565.124Z" fill="#CFDBEC"/>
<path d="M624.673 540.906L625.283 540.739C625.71 540.621 625.963 540.17 625.849 539.731C625.735 539.293 625.295 539.032 624.868 539.15L624.258 539.317C623.831 539.435 623.577 539.886 623.692 540.325C623.806 540.763 624.244 541.024 624.673 540.906Z" fill="#CFDBEC"/>
<path d="M558.263 559.175C558.69 559.057 558.944 558.606 558.829 558.167C558.715 557.729 558.275 557.468 557.848 557.586L557.239 557.753C556.812 557.871 556.558 558.322 556.672 558.761C556.787 559.199 557.226 559.46 557.653 559.342L558.263 559.175Z" fill="#CFDBEC"/>
<path d="M561.31 558.334C561.737 558.216 561.991 557.765 561.876 557.326C561.762 556.888 561.322 556.627 560.895 556.745L560.286 556.912C559.858 557.03 559.605 557.481 559.719 557.92C559.834 558.358 560.273 558.619 560.7 558.501L561.31 558.334Z" fill="#CFDBEC"/>
<path d="M555.218 560.013C555.645 559.895 555.899 559.444 555.785 559.006C555.67 558.567 555.231 558.307 554.803 558.424L554.194 558.592C553.767 558.709 553.513 559.161 553.627 559.599C553.742 560.038 554.181 560.298 554.608 560.181L555.218 560.013Z" fill="#CFDBEC"/>
<path d="M549.126 561.688C549.553 561.57 549.807 561.119 549.693 560.68C549.578 560.242 549.139 559.981 548.712 560.099L548.102 560.267C547.675 560.384 547.421 560.835 547.535 561.274C547.65 561.713 548.089 561.973 548.517 561.856L549.126 561.688Z" fill="#CFDBEC"/>
<path d="M585.267 550.043L584.659 550.211C584.231 550.328 583.978 550.779 584.092 551.218C584.207 551.657 584.646 551.917 585.073 551.8L585.681 551.632C586.109 551.515 586.362 551.063 586.248 550.625C586.133 550.186 585.694 549.926 585.267 550.043Z" fill="#CFDBEC"/>
<path d="M564.355 557.499C564.782 557.382 565.036 556.93 564.921 556.492C564.807 556.053 564.367 555.793 563.94 555.91L563.33 556.078C562.903 556.196 562.65 556.647 562.764 557.085C562.878 557.524 563.318 557.785 563.745 557.667L564.355 557.499Z" fill="#CFDBEC"/>
<path d="M552.171 560.848C552.598 560.731 552.852 560.279 552.738 559.841C552.623 559.402 552.184 559.142 551.757 559.259L551.147 559.427C550.72 559.545 550.466 559.996 550.58 560.434C550.695 560.873 551.134 561.133 551.562 561.016L552.171 560.848Z" fill="#CFDBEC"/>
<path d="M574.95 553.731C575.064 554.169 575.504 554.43 575.931 554.312L576.539 554.145C576.966 554.027 577.22 553.576 577.105 553.138C576.991 552.699 576.551 552.439 576.124 552.556L575.516 552.723C575.089 552.841 574.835 553.292 574.95 553.731Z" fill="#CFDBEC"/>
<path d="M582.218 550.88L581.61 551.047C581.183 551.165 580.929 551.616 581.043 552.054C581.158 552.493 581.597 552.754 582.024 552.636L582.633 552.469C583.06 552.351 583.313 551.9 583.199 551.461C583.085 551.023 582.645 550.762 582.218 550.88Z" fill="#CFDBEC"/>
<path d="M567.402 556.66C567.829 556.543 568.083 556.091 567.968 555.653C567.854 555.214 567.414 554.954 566.987 555.071L566.377 555.239C565.95 555.357 565.696 555.808 565.811 556.246C565.925 556.685 566.365 556.945 566.792 556.828L567.402 556.66Z" fill="#CFDBEC"/>
<path d="M578.567 551.886C578.14 552.003 577.886 552.455 578 552.893C578.115 553.332 578.554 553.592 578.981 553.475L579.59 553.307C580.017 553.19 580.27 552.739 580.156 552.3C580.042 551.861 579.602 551.601 579.175 551.718L578.567 551.886Z" fill="#CFDBEC"/>
<path d="M570.449 555.822C570.876 555.705 571.129 555.253 571.015 554.815C570.901 554.376 570.461 554.116 570.034 554.233L569.424 554.401C568.997 554.519 568.743 554.97 568.858 555.408C568.972 555.847 569.412 556.108 569.839 555.99L570.449 555.822Z" fill="#CFDBEC"/>
<path d="M573.492 554.984C573.919 554.867 574.173 554.416 574.058 553.977C573.944 553.538 573.504 553.278 573.077 553.395L572.469 553.563C572.042 553.68 571.788 554.132 571.903 554.57C572.017 555.009 572.457 555.269 572.884 555.152L573.492 554.984Z" fill="#CFDBEC"/>
<path d="M621.624 541.743L622.234 541.575C622.661 541.458 622.915 541.007 622.8 540.568C622.686 540.13 622.246 539.869 621.819 539.987L621.209 540.154C620.782 540.272 620.528 540.723 620.643 541.162C620.757 541.6 621.197 541.861 621.624 541.743Z" fill="#CFDBEC"/>
<path d="M594.21 549.286L594.818 549.118C595.245 549.001 595.499 548.55 595.385 548.111C595.27 547.673 594.831 547.412 594.403 547.529L593.795 547.697C593.368 547.814 593.114 548.266 593.229 548.704C593.343 549.143 593.783 549.403 594.21 549.286Z" fill="#CFDBEC"/>
<path d="M587.135 550.382C587.25 550.82 587.689 551.081 588.116 550.963L588.724 550.796C589.152 550.678 589.405 550.227 589.291 549.789C589.176 549.35 588.737 549.089 588.31 549.207L587.702 549.374C587.274 549.492 587.021 549.943 587.135 550.382Z" fill="#CFDBEC"/>
<path d="M591.163 550.122L591.771 549.954C592.198 549.837 592.452 549.386 592.338 548.947C592.223 548.508 591.784 548.248 591.357 548.365L590.748 548.533C590.321 548.65 590.067 549.102 590.182 549.54C590.296 549.979 590.736 550.239 591.163 550.122Z" fill="#CFDBEC"/>
<path d="M618.166 540.993C617.739 541.11 617.485 541.561 617.6 542C617.714 542.439 618.154 542.699 618.581 542.582L619.191 542.414C619.618 542.296 619.872 541.845 619.757 541.407C619.643 540.968 619.203 540.707 618.776 540.825L618.166 540.993Z" fill="#CFDBEC"/>
<path d="M600.495 545.854L599.885 546.021C599.458 546.139 599.204 546.59 599.319 547.029C599.433 547.467 599.873 547.728 600.3 547.61L600.91 547.442C601.337 547.325 601.59 546.874 601.476 546.435C601.362 545.997 600.922 545.736 600.495 545.854Z" fill="#CFDBEC"/>
<path d="M539.378 564.372L539.988 564.204C540.415 564.086 540.669 563.635 540.554 563.197C540.44 562.758 540 562.497 539.573 562.615L538.963 562.783C538.536 562.9 538.282 563.352 538.397 563.79C538.511 564.229 538.951 564.489 539.378 564.372Z" fill="#CFDBEC"/>
<path d="M542.423 563.529L543.033 563.361C543.46 563.244 543.713 562.793 543.599 562.354C543.485 561.915 543.045 561.655 542.618 561.772L542.008 561.94C541.581 562.058 541.327 562.509 541.442 562.948C541.556 563.386 541.994 563.647 542.423 563.529Z" fill="#CFDBEC"/>
<path d="M545.47 562.695L546.079 562.527C546.507 562.409 546.76 561.958 546.646 561.52C546.531 561.081 546.092 560.82 545.665 560.938L545.055 561.106C544.628 561.223 544.374 561.675 544.489 562.113C544.603 562.552 545.041 562.813 545.47 562.695Z" fill="#CFDBEC"/>
<path d="M613.097 544.087C613.524 543.97 613.778 543.518 613.663 543.08C613.549 542.641 613.109 542.381 612.682 542.498L612.073 542.666C611.645 542.784 611.392 543.235 611.506 543.673C611.621 544.112 612.06 544.372 612.487 544.255L613.097 544.087Z" fill="#CFDBEC"/>
<path d="M603.958 546.603C604.385 546.485 604.639 546.034 604.525 545.595C604.41 545.157 603.971 544.896 603.544 545.014L602.934 545.181C602.507 545.299 602.253 545.75 602.367 546.189C602.482 546.627 602.921 546.888 603.349 546.77L603.958 546.603Z" fill="#CFDBEC"/>
<path d="M616.142 543.252C616.569 543.134 616.823 542.683 616.708 542.244C616.594 541.806 616.154 541.545 615.727 541.663L615.118 541.83C614.69 541.948 614.437 542.399 614.551 542.838C614.666 543.276 615.105 543.537 615.532 543.419L616.142 543.252Z" fill="#CFDBEC"/>
<path d="M610.05 544.928C610.477 544.81 610.731 544.359 610.617 543.92C610.502 543.482 610.063 543.221 609.635 543.339L609.026 543.507C608.599 543.624 608.345 544.075 608.459 544.514C608.574 544.952 609.013 545.213 609.44 545.096L610.05 544.928Z" fill="#CFDBEC"/>
<path d="M607.005 545.765C607.432 545.648 607.686 545.196 607.572 544.758C607.457 544.319 607.018 544.059 606.591 544.176L605.981 544.344C605.554 544.462 605.3 544.913 605.414 545.351C605.529 545.79 605.968 546.05 606.395 545.933L607.005 545.765Z" fill="#CFDBEC"/>
<path d="M597.867 548.28C598.294 548.162 598.547 547.711 598.433 547.272C598.319 546.834 597.879 546.573 597.452 546.691L596.842 546.858C596.415 546.976 596.161 547.427 596.276 547.866C596.39 548.304 596.83 548.565 597.257 548.447L597.867 548.28Z" fill="#CFDBEC"/>
<path d="M627.605 538.395L627.305 538.478C626.878 538.596 626.624 539.047 626.739 539.485C626.853 539.924 627.293 540.184 627.72 540.067L628.02 539.984C628.447 539.867 628.701 539.416 628.586 538.977C628.472 538.538 628.032 538.278 627.605 538.395Z" fill="#CFDBEC"/>
<path d="M585.234 563.685L548.062 573.911L548.478 575.502L585.649 565.275L585.234 563.685Z" fill="#CFDBEC"/>
<path d="M586.896 570.048L549.725 580.274L550.14 581.864L587.311 571.638L586.896 570.048Z" fill="#CFDBEC"/>
<path d="M588.555 576.408L551.383 586.634L551.798 588.224L588.97 577.998L588.555 576.408Z" fill="#CFDBEC"/>
<path d="M622.408 553.46L603.822 558.573L604.237 560.163L622.823 555.05L622.408 553.46Z" fill="#CFDBEC"/>
<path d="M624.257 560.546L599.476 567.364C599.211 567.436 599.054 567.717 599.125 567.989L600.674 573.925C600.745 574.197 601.018 574.358 601.283 574.286L626.064 567.468C626.329 567.395 626.486 567.115 626.415 566.843L624.866 560.907C624.795 560.633 624.522 560.473 624.257 560.546ZM602.844 572.799L601.506 573.168L600.214 568.217L601.552 567.849L602.844 572.799ZM604.1 572.454L603.325 572.667L602.034 567.717L602.808 567.504L604.1 572.454ZM607.554 571.504L605.06 572.19L603.768 567.239L606.262 566.553L607.554 571.504ZM609.118 571.073L608.514 571.239L607.222 566.289L607.826 566.123L609.118 571.073ZM610.002 570.83L609.598 570.941L608.306 565.991L608.711 565.88L610.002 570.83ZM612.852 570.046L610.963 570.566L609.671 565.616L611.56 565.096L612.852 570.046ZM613.936 569.748L613.332 569.914L612.04 564.964L612.645 564.798L613.936 569.748ZM615.343 569.361L614.418 569.615L613.126 564.665L614.051 564.411L615.343 569.361ZM617.008 568.903L615.823 569.229L614.531 564.279L615.716 563.953L617.008 568.903ZM619.422 568.239L617.968 568.639L616.676 563.688L618.13 563.288L619.422 568.239ZM621.93 567.549L620.384 567.974L619.092 563.024L620.638 562.598L621.93 567.549ZM623.595 567.091L622.889 567.285L621.597 562.335L622.303 562.14L623.595 567.091ZM625.326 566.614L625.037 566.694L623.745 561.744L624.035 561.664L625.326 566.614Z" fill="#CFDBEC"/>
<path d="M562.885 528.93L538.104 535.747L538.519 537.338L563.3 530.52L562.885 528.93Z" fill="#CFDBEC"/>
<path d="M561.336 522.995L536.555 529.812L536.97 531.402L561.751 524.585L561.336 522.995Z" fill="#CFDBEC"/>
<path d="M564.545 535.29L539.764 542.107L540.179 543.698L564.96 536.88L564.545 535.29Z" fill="#CFDBEC"/>
<path d="M579.922 517.882L567.531 521.29L567.946 522.88L580.337 519.472L579.922 517.882Z" fill="#CFDBEC"/>
<path d="M581.471 523.817L569.08 527.226L569.495 528.816L581.886 525.408L581.471 523.817Z" fill="#CFDBEC"/>
<path d="M583.131 530.177L570.74 533.586L571.155 535.176L583.546 531.767L583.131 530.177Z" fill="#CFDBEC"/>
<path d="M566.205 541.651L541.424 548.469L541.839 550.059L566.62 543.241L566.205 541.651Z" fill="#CFDBEC"/>
<path d="M584.791 536.539L572.4 539.948L572.815 541.538L585.206 538.13L584.791 536.539Z" fill="#CFDBEC"/>
<path d="M534.879 517.037L575.148 505.959C576.003 505.724 576.511 504.821 576.282 503.943L573.792 494.402C573.563 493.524 572.683 493.002 571.828 493.237L531.559 504.316C530.704 504.551 530.196 505.454 530.425 506.332L532.915 515.873C533.144 516.751 534.024 517.273 534.879 517.037ZM531.974 505.906L572.243 494.828L574.733 504.369L534.464 515.447L531.974 505.906Z" fill="#CFDBEC"/>
<path d="M584.443 503.4L606.127 497.435C606.982 497.2 607.489 496.296 607.26 495.419L604.77 485.877C604.541 485 603.662 484.478 602.807 484.713L581.123 490.679C580.268 490.914 579.76 491.817 579.989 492.695L582.479 502.236C582.708 503.114 583.588 503.635 584.443 503.4ZM581.538 492.269L603.222 486.304L605.712 495.845L584.028 501.81L581.538 492.269Z" fill="#CFDBEC"/>
</g>
</g>
<g opacity="0.3">
<g clip-path="url(#clip7)">
<rect x="1163.6" y="152.573" width="99.4144" height="141.581" fill="white"/>
<path d="M1263.02 150.927H1163.6C1162.72 150.927 1162 151.669 1162 152.586V294.139C1162 295.058 1162.72 295.8 1163.6 295.8H1263.02C1263.9 295.8 1264.62 295.058 1264.62 294.141V152.586C1264.62 151.669 1263.9 150.927 1263.02 150.927ZM1261.41 256.289V292.508H1165.21V256.289V154.219H1261.41V256.289Z" fill="#CFDBEC"/>
<path d="M1206.9 162.45H1174.83V165.743H1206.9V162.45Z" fill="#CFDBEC"/>
<path d="M1187.66 176.444H1174.83V178.091H1187.66V176.444Z" fill="#CFDBEC"/>
<path d="M1206.9 183.029H1174.83V184.676H1206.9V183.029Z" fill="#CFDBEC"/>
<path d="M1251.79 163.274H1226.14V164.921H1251.79V163.274Z" fill="#CFDBEC"/>
<path d="M1251.79 176.444H1226.14V178.091H1251.79V176.444Z" fill="#CFDBEC"/>
<path d="M1251.79 183.031H1226.14V184.678H1251.79V183.031Z" fill="#CFDBEC"/>
<path d="M1166.01 257.112H1166.32C1166.76 257.112 1167.12 256.743 1167.12 256.289C1167.12 255.835 1166.76 255.467 1166.32 255.467H1166.01C1165.57 255.467 1165.21 255.835 1165.21 256.289C1165.21 256.743 1165.57 257.112 1166.01 257.112Z" fill="#CFDBEC"/>
<path d="M1257.15 257.113H1257.78C1258.22 257.113 1258.58 256.744 1258.58 256.29C1258.58 255.836 1258.22 255.468 1257.78 255.468H1257.15C1256.7 255.468 1256.35 255.836 1256.35 256.29C1256.35 256.744 1256.7 257.113 1257.15 257.113Z" fill="#CFDBEC"/>
<path d="M1188.4 257.111C1188.84 257.111 1189.2 256.743 1189.2 256.289C1189.2 255.835 1188.84 255.466 1188.4 255.466H1187.76C1187.32 255.466 1186.96 255.835 1186.96 256.289C1186.96 256.743 1187.32 257.111 1187.76 257.111H1188.4Z" fill="#CFDBEC"/>
<path d="M1191.55 257.108C1191.99 257.108 1192.35 256.74 1192.35 256.286C1192.35 255.832 1191.99 255.463 1191.55 255.463H1190.92C1190.48 255.463 1190.12 255.832 1190.12 256.286C1190.12 256.74 1190.48 257.108 1190.92 257.108H1191.55Z" fill="#CFDBEC"/>
<path d="M1185.24 257.112C1185.69 257.112 1186.04 256.743 1186.04 256.289C1186.04 255.835 1185.69 255.467 1185.24 255.467H1184.61C1184.17 255.467 1183.81 255.835 1183.81 256.289C1183.81 256.743 1184.17 257.112 1184.61 257.112H1185.24Z" fill="#CFDBEC"/>
<path d="M1178.94 257.111C1179.38 257.111 1179.74 256.742 1179.74 256.288C1179.74 255.834 1179.38 255.466 1178.94 255.466H1178.3C1177.86 255.466 1177.5 255.834 1177.5 256.288C1177.5 256.742 1177.86 257.111 1178.3 257.111H1178.94Z" fill="#CFDBEC"/>
<path d="M1216.78 255.467H1216.15C1215.71 255.467 1215.35 255.835 1215.35 256.289C1215.35 256.743 1215.71 257.112 1216.15 257.112H1216.78C1217.22 257.112 1217.58 256.743 1217.58 256.289C1217.58 255.835 1217.22 255.467 1216.78 255.467Z" fill="#CFDBEC"/>
<path d="M1194.7 257.112C1195.14 257.112 1195.5 256.743 1195.5 256.289C1195.5 255.835 1195.14 255.467 1194.7 255.467H1194.07C1193.63 255.467 1193.27 255.835 1193.27 256.289C1193.27 256.743 1193.63 257.112 1194.07 257.112H1194.7Z" fill="#CFDBEC"/>
<path d="M1182.09 257.11C1182.53 257.11 1182.89 256.741 1182.89 256.287C1182.89 255.833 1182.53 255.465 1182.09 255.465H1181.46C1181.02 255.465 1180.66 255.833 1180.66 256.287C1180.66 256.741 1181.02 257.11 1181.46 257.11H1182.09Z" fill="#CFDBEC"/>
<path d="M1205.89 256.287C1205.89 256.741 1206.25 257.11 1206.69 257.11H1207.32C1207.76 257.11 1208.12 256.741 1208.12 256.287C1208.12 255.833 1207.76 255.465 1207.32 255.465H1206.69C1206.25 255.465 1205.89 255.833 1205.89 256.287Z" fill="#CFDBEC"/>
<path d="M1213.62 255.464H1212.99C1212.55 255.464 1212.19 255.833 1212.19 256.287C1212.19 256.741 1212.55 257.109 1212.99 257.109H1213.62C1214.07 257.109 1214.43 256.741 1214.43 256.287C1214.43 255.833 1214.07 255.464 1213.62 255.464Z" fill="#CFDBEC"/>
<path d="M1197.86 257.111C1198.3 257.111 1198.66 256.742 1198.66 256.288C1198.66 255.834 1198.3 255.466 1197.86 255.466H1197.22C1196.78 255.466 1196.42 255.834 1196.42 256.288C1196.42 256.742 1196.78 257.111 1197.22 257.111H1197.86Z" fill="#CFDBEC"/>
<path d="M1209.84 255.466C1209.4 255.466 1209.04 255.834 1209.04 256.288C1209.04 256.742 1209.4 257.111 1209.84 257.111H1210.47C1210.92 257.111 1211.27 256.742 1211.27 256.288C1211.27 255.834 1210.92 255.466 1210.47 255.466H1209.84Z" fill="#CFDBEC"/>
<path d="M1201.01 257.111C1201.45 257.111 1201.81 256.743 1201.81 256.289C1201.81 255.835 1201.45 255.466 1201.01 255.466H1200.38C1199.94 255.466 1199.58 255.835 1199.58 256.289C1199.58 256.743 1199.94 257.111 1200.38 257.111H1201.01Z" fill="#CFDBEC"/>
<path d="M1204.16 257.111C1204.6 257.111 1204.96 256.742 1204.96 256.288C1204.96 255.834 1204.6 255.466 1204.16 255.466H1203.53C1203.09 255.466 1202.73 255.834 1202.73 256.288C1202.73 256.742 1203.09 257.111 1203.53 257.111H1204.16Z" fill="#CFDBEC"/>
<path d="M1253.99 257.111H1254.62C1255.06 257.111 1255.42 256.742 1255.42 256.288C1255.42 255.834 1255.06 255.466 1254.62 255.466H1253.99C1253.55 255.466 1253.19 255.834 1253.19 256.288C1253.19 256.742 1253.55 257.111 1253.99 257.111Z" fill="#CFDBEC"/>
<path d="M1225.61 257.111H1226.24C1226.68 257.111 1227.04 256.743 1227.04 256.289C1227.04 255.835 1226.68 255.466 1226.24 255.466H1225.61C1225.17 255.466 1224.81 255.835 1224.81 256.289C1224.81 256.743 1225.17 257.111 1225.61 257.111Z" fill="#CFDBEC"/>
<path d="M1218.5 256.29C1218.5 256.744 1218.86 257.112 1219.3 257.112H1219.93C1220.37 257.112 1220.73 256.744 1220.73 256.29C1220.73 255.836 1220.37 255.467 1219.93 255.467H1219.3C1218.86 255.467 1218.5 255.836 1218.5 256.29Z" fill="#CFDBEC"/>
<path d="M1222.46 257.109H1223.09C1223.53 257.109 1223.89 256.741 1223.89 256.287C1223.89 255.833 1223.53 255.464 1223.09 255.464H1222.46C1222.01 255.464 1221.65 255.833 1221.65 256.287C1221.65 256.741 1222.01 257.109 1222.46 257.109Z" fill="#CFDBEC"/>
<path d="M1250.84 255.467C1250.4 255.467 1250.04 255.835 1250.04 256.289C1250.04 256.743 1250.4 257.112 1250.84 257.112H1251.47C1251.91 257.112 1252.27 256.743 1252.27 256.289C1252.27 255.835 1251.91 255.467 1251.47 255.467H1250.84Z" fill="#CFDBEC"/>
<path d="M1232.55 255.467H1231.92C1231.47 255.467 1231.12 255.835 1231.12 256.289C1231.12 256.743 1231.47 257.112 1231.92 257.112H1232.55C1232.99 257.112 1233.35 256.743 1233.35 256.289C1233.35 255.835 1232.99 255.467 1232.55 255.467Z" fill="#CFDBEC"/>
<path d="M1168.84 257.113H1169.47C1169.92 257.113 1170.27 256.744 1170.27 256.29C1170.27 255.836 1169.92 255.468 1169.47 255.468H1168.84C1168.4 255.468 1168.04 255.836 1168.04 256.29C1168.04 256.744 1168.4 257.113 1168.84 257.113Z" fill="#CFDBEC"/>
<path d="M1172 257.108H1172.63C1173.07 257.108 1173.43 256.74 1173.43 256.286C1173.43 255.832 1173.07 255.463 1172.63 255.463H1172C1171.56 255.463 1171.2 255.832 1171.2 256.286C1171.2 256.74 1171.55 257.108 1172 257.108Z" fill="#CFDBEC"/>
<path d="M1175.15 257.112H1175.78C1176.22 257.112 1176.58 256.743 1176.58 256.289C1176.58 255.835 1176.22 255.467 1175.78 255.467H1175.15C1174.71 255.467 1174.35 255.835 1174.35 256.289C1174.35 256.743 1174.71 257.112 1175.15 257.112Z" fill="#CFDBEC"/>
<path d="M1245.16 257.109C1245.61 257.109 1245.97 256.74 1245.97 256.286C1245.97 255.832 1245.61 255.464 1245.16 255.464H1244.53C1244.09 255.464 1243.73 255.832 1243.73 256.286C1243.73 256.74 1244.09 257.109 1244.53 257.109H1245.16Z" fill="#CFDBEC"/>
<path d="M1235.7 257.11C1236.14 257.11 1236.5 256.742 1236.5 256.288C1236.5 255.834 1236.14 255.465 1235.7 255.465H1235.07C1234.63 255.465 1234.27 255.834 1234.27 256.288C1234.27 256.742 1234.63 257.11 1235.07 257.11H1235.7Z" fill="#CFDBEC"/>
<path d="M1248.32 257.111C1248.76 257.111 1249.12 256.742 1249.12 256.288C1249.12 255.834 1248.76 255.466 1248.32 255.466H1247.68C1247.24 255.466 1246.88 255.834 1246.88 256.288C1246.88 256.742 1247.24 257.111 1247.68 257.111H1248.32Z" fill="#CFDBEC"/>
<path d="M1242.01 257.111C1242.45 257.111 1242.81 256.743 1242.81 256.289C1242.81 255.835 1242.45 255.466 1242.01 255.466H1241.38C1240.94 255.466 1240.58 255.835 1240.58 256.289C1240.58 256.743 1240.94 257.111 1241.38 257.111H1242.01Z" fill="#CFDBEC"/>
<path d="M1238.86 257.111C1239.3 257.111 1239.66 256.742 1239.66 256.288C1239.66 255.834 1239.3 255.466 1238.86 255.466H1238.22C1237.78 255.466 1237.42 255.834 1237.42 256.288C1237.42 256.742 1237.78 257.111 1238.22 257.111H1238.86Z" fill="#CFDBEC"/>
<path d="M1229.4 257.111C1229.84 257.111 1230.2 256.743 1230.2 256.289C1230.2 255.835 1229.84 255.466 1229.4 255.466H1228.76C1228.32 255.466 1227.96 255.835 1227.96 256.289C1227.96 256.743 1228.32 257.111 1228.76 257.111H1229.4Z" fill="#CFDBEC"/>
<path d="M1260.61 255.467H1260.3C1259.86 255.467 1259.5 255.835 1259.5 256.289C1259.5 256.743 1259.86 257.112 1260.3 257.112H1260.61C1261.06 257.112 1261.41 256.743 1261.41 256.289C1261.41 255.835 1261.06 255.467 1260.61 255.467Z" fill="#CFDBEC"/>
<path d="M1213.31 268.635H1174.83V270.282H1213.31V268.635Z" fill="#CFDBEC"/>
<path d="M1213.31 275.223H1174.83V276.869H1213.31V275.223Z" fill="#CFDBEC"/>
<path d="M1213.31 281.806H1174.83V283.453H1213.31V281.806Z" fill="#CFDBEC"/>
<path d="M1251.79 268.637H1232.55V270.283H1251.79V268.637Z" fill="#CFDBEC"/>
<path d="M1251.79 275.973H1226.14C1225.87 275.973 1225.64 276.202 1225.64 276.483V282.629C1225.64 282.91 1225.87 283.139 1226.14 283.139H1251.79C1252.07 283.139 1252.29 282.91 1252.29 282.629V276.483C1252.29 276.2 1252.07 275.973 1251.79 275.973ZM1228.02 282.118H1226.64V276.994H1228.02V282.118ZM1229.32 282.118H1228.52V276.994H1229.32V282.118ZM1232.9 282.118H1230.32V276.994H1232.9V282.118ZM1234.52 282.118H1233.89V276.994H1234.52V282.118ZM1235.43 282.118H1235.01V276.994H1235.43V282.118ZM1238.38 282.118H1236.43V276.994H1238.38V282.118ZM1239.51 282.118H1238.88V276.994H1239.51V282.118ZM1240.96 282.118H1240V276.994H1240.96V282.118ZM1242.69 282.118H1241.46V276.994H1242.69V282.118ZM1245.19 282.118H1243.68V276.994H1245.19V282.118ZM1247.78 282.118H1246.18V276.994H1247.78V282.118ZM1249.51 282.118H1248.77V276.994H1249.51V282.118ZM1251.3 282.118H1251V276.994H1251.3V282.118Z" fill="#CFDBEC"/>
<path d="M1200.48 229.125H1174.83V230.772H1200.48V229.125Z" fill="#CFDBEC"/>
<path d="M1200.48 222.981H1174.83V224.627H1200.48V222.981Z" fill="#CFDBEC"/>
<path d="M1200.48 235.709H1174.83V237.356H1200.48V235.709Z" fill="#CFDBEC"/>
<path d="M1219.73 222.98H1206.9V224.627H1219.73V222.98Z" fill="#CFDBEC"/>
<path d="M1219.72 229.125H1206.9V230.772H1219.72V229.125Z" fill="#CFDBEC"/>
<path d="M1219.73 235.71H1206.9V237.356H1219.73V235.71Z" fill="#CFDBEC"/>
<path d="M1200.48 242.295H1174.83V243.941H1200.48V242.295Z" fill="#CFDBEC"/>
<path d="M1219.72 242.296H1206.9V243.943H1219.72V242.296Z" fill="#CFDBEC"/>
<path d="M1176.43 210.196H1218.12C1219 210.196 1219.72 209.458 1219.72 208.549V198.672C1219.72 197.763 1219 197.025 1218.12 197.025H1176.43C1175.54 197.025 1174.83 197.763 1174.83 198.672V208.549C1174.83 209.458 1175.54 210.196 1176.43 210.196ZM1176.43 198.672H1218.12V208.549H1176.43V198.672Z" fill="#CFDBEC"/>
<path d="M1227.74 210.195H1250.19C1251.08 210.195 1251.8 209.458 1251.8 208.549V198.671C1251.8 197.762 1251.08 197.025 1250.19 197.025H1227.74C1226.86 197.025 1226.14 197.762 1226.14 198.671V208.549C1226.14 209.458 1226.86 210.195 1227.74 210.195ZM1227.74 198.671H1250.19V208.549H1227.74V198.671Z" fill="#CFDBEC"/>
</g>
</g>
<g opacity="0.3">
<g clip-path="url(#clip8)">
<rect width="99.5945" height="141.337" transform="matrix(0.964179 0.265252 -0.25252 0.967592 109.652 479.436)" fill="white"/>
<path d="M206.095 504.264L110.068 477.847C109.213 477.612 108.332 478.138 108.101 479.024L72.4178 615.753C72.1862 616.64 72.6929 617.548 73.5479 617.784L169.575 644.201C170.43 644.436 171.311 643.91 171.542 643.024L207.226 506.293C207.457 505.408 206.95 504.5 206.095 504.264ZM177.986 605.611L168.856 640.595L75.9267 615.029L85.0568 580.045L110.787 481.453L203.716 507.019L177.986 605.611Z" fill="#CFDBEC"/>
<path d="M148.982 500.482L118.006 491.96L117.176 495.141L148.152 503.663L148.982 500.482Z" fill="#CFDBEC"/>
<path d="M126.867 508.886L114.477 505.478L114.062 507.068L126.452 510.476L126.867 508.886Z" fill="#CFDBEC"/>
<path d="M143.793 520.359L112.816 511.838L112.401 513.428L143.378 521.95L143.793 520.359Z" fill="#CFDBEC"/>
<path d="M192.141 513.209L167.359 506.391L166.944 507.982L191.726 514.799L192.141 513.209Z" fill="#CFDBEC"/>
<path d="M188.82 525.93L164.039 519.112L163.624 520.702L188.405 527.52L188.82 525.93Z" fill="#CFDBEC"/>
<path d="M187.16 532.293L162.379 525.475L161.964 527.066L186.745 533.883L187.16 532.293Z" fill="#CFDBEC"/>
<path d="M85.6228 581.053L85.923 581.135C86.3501 581.253 86.7897 580.992 86.9041 580.554C87.0186 580.115 86.7648 579.664 86.3377 579.546L86.0375 579.464C85.6103 579.346 85.1708 579.607 85.0563 580.045C84.9419 580.484 85.1956 580.935 85.6228 581.053Z" fill="#CFDBEC"/>
<path d="M173.658 605.271L174.268 605.439C174.695 605.556 175.134 605.296 175.249 604.857C175.363 604.419 175.109 603.968 174.682 603.85L174.073 603.682C173.645 603.565 173.206 603.825 173.091 604.264C172.977 604.702 173.229 605.153 173.658 605.271Z" fill="#CFDBEC"/>
<path d="M107.248 587.001C107.675 587.119 108.115 586.858 108.229 586.419C108.344 585.981 108.09 585.53 107.663 585.412L107.053 585.244C106.626 585.127 106.186 585.387 106.072 585.826C105.958 586.264 106.211 586.716 106.638 586.833L107.248 587.001Z" fill="#CFDBEC"/>
<path d="M110.295 587.836C110.722 587.954 111.162 587.693 111.276 587.255C111.391 586.816 111.137 586.365 110.71 586.247L110.1 586.08C109.673 585.962 109.233 586.223 109.119 586.661C109.004 587.1 109.258 587.551 109.685 587.668L110.295 587.836Z" fill="#CFDBEC"/>
<path d="M104.203 586.164C104.63 586.281 105.07 586.021 105.184 585.582C105.299 585.144 105.045 584.692 104.618 584.575L104.008 584.407C103.581 584.29 103.141 584.55 103.027 584.989C102.913 585.427 103.166 585.879 103.593 585.996L104.203 586.164Z" fill="#CFDBEC"/>
<path d="M98.1095 584.486C98.5366 584.603 98.9761 584.343 99.0906 583.904C99.205 583.466 98.9513 583.014 98.5241 582.897L97.9144 582.729C97.4873 582.612 97.0477 582.872 96.9333 583.311C96.8188 583.749 97.0726 584.201 97.4997 584.318L98.1095 584.486Z" fill="#CFDBEC"/>
<path d="M135.079 592.955L134.471 592.788C134.044 592.67 133.604 592.931 133.49 593.369C133.375 593.808 133.629 594.259 134.056 594.377L134.665 594.544C135.092 594.662 135.531 594.401 135.646 593.962C135.76 593.524 135.506 593.073 135.079 592.955Z" fill="#CFDBEC"/>
<path d="M113.338 588.677C113.765 588.795 114.205 588.534 114.319 588.095C114.434 587.657 114.18 587.206 113.753 587.088L113.143 586.92C112.716 586.803 112.276 587.063 112.162 587.502C112.047 587.94 112.301 588.392 112.728 588.509L113.338 588.677Z" fill="#CFDBEC"/>
<path d="M101.156 585.324C101.583 585.441 102.023 585.181 102.137 584.742C102.252 584.303 101.998 583.852 101.571 583.735L100.961 583.567C100.534 583.449 100.095 583.71 99.9802 584.148C99.8657 584.587 100.119 585.038 100.547 585.156L101.156 585.324Z" fill="#CFDBEC"/>
<path d="M124.349 590.853C124.235 591.292 124.489 591.743 124.916 591.86L125.524 592.028C125.951 592.145 126.391 591.885 126.505 591.446C126.62 591.008 126.366 590.556 125.939 590.439L125.33 590.271C124.903 590.154 124.464 590.415 124.349 590.853Z" fill="#CFDBEC"/>
<path d="M132.032 592.115L131.424 591.947C130.997 591.83 130.558 592.09 130.443 592.529C130.329 592.967 130.582 593.419 131.01 593.536L131.618 593.703C132.045 593.821 132.484 593.56 132.599 593.122C132.713 592.683 132.459 592.232 132.032 592.115Z" fill="#CFDBEC"/>
<path d="M116.387 589.515C116.814 589.632 117.253 589.372 117.368 588.933C117.482 588.495 117.229 588.043 116.801 587.926L116.192 587.758C115.765 587.641 115.325 587.901 115.211 588.34C115.096 588.778 115.35 589.229 115.777 589.347L116.387 589.515Z" fill="#CFDBEC"/>
<path d="M128.379 591.111C127.952 590.994 127.513 591.254 127.398 591.693C127.284 592.131 127.537 592.583 127.965 592.7L128.573 592.868C129 592.985 129.439 592.724 129.554 592.286C129.668 591.847 129.415 591.396 128.987 591.279L128.379 591.111Z" fill="#CFDBEC"/>
<path d="M119.434 590.353C119.861 590.471 120.3 590.21 120.415 589.772C120.529 589.333 120.275 588.882 119.848 588.764L119.239 588.597C118.811 588.479 118.372 588.74 118.258 589.178C118.143 589.617 118.397 590.068 118.824 590.186L119.434 590.353Z" fill="#CFDBEC"/>
<path d="M122.477 591.19C122.904 591.308 123.344 591.047 123.458 590.609C123.573 590.17 123.319 589.719 122.892 589.601L122.284 589.434C121.856 589.317 121.417 589.577 121.302 590.016C121.188 590.454 121.442 590.905 121.869 591.023L122.477 591.19Z" fill="#CFDBEC"/>
<path d="M170.607 604.431L171.217 604.599C171.644 604.717 172.084 604.456 172.198 604.018C172.313 603.579 172.059 603.128 171.632 603.01L171.022 602.843C170.595 602.725 170.155 602.986 170.041 603.424C169.926 603.863 170.18 604.314 170.607 604.431Z" fill="#CFDBEC"/>
<path d="M143.193 596.89L143.801 597.057C144.228 597.175 144.668 596.914 144.782 596.476C144.897 596.037 144.643 595.586 144.216 595.469L143.608 595.301C143.181 595.184 142.741 595.444 142.627 595.883C142.512 596.321 142.766 596.773 143.193 596.89Z" fill="#CFDBEC"/>
<path d="M136.533 594.208C136.418 594.646 136.672 595.097 137.099 595.215L137.708 595.382C138.135 595.5 138.574 595.239 138.689 594.801C138.803 594.362 138.549 593.911 138.122 593.793L137.514 593.626C137.087 593.508 136.647 593.769 136.533 594.208Z" fill="#CFDBEC"/>
<path d="M140.148 596.05L140.756 596.217C141.184 596.335 141.623 596.074 141.737 595.636C141.852 595.197 141.598 594.746 141.171 594.628L140.563 594.461C140.136 594.343 139.696 594.604 139.582 595.042C139.467 595.481 139.721 595.932 140.148 596.05Z" fill="#CFDBEC"/>
<path d="M167.979 602.007C167.552 601.889 167.112 602.15 166.998 602.588C166.883 603.027 167.137 603.478 167.564 603.595L168.174 603.763C168.601 603.881 169.041 603.62 169.155 603.182C169.27 602.743 169.016 602.292 168.589 602.174L167.979 602.007Z" fill="#CFDBEC"/>
<path d="M150.309 597.145L149.7 596.977C149.272 596.86 148.833 597.12 148.718 597.559C148.604 597.997 148.858 598.449 149.285 598.566L149.895 598.734C150.322 598.851 150.761 598.591 150.876 598.152C150.99 597.714 150.736 597.263 150.309 597.145Z" fill="#CFDBEC"/>
<path d="M88.3611 581.807L88.9708 581.974C89.3979 582.092 89.8375 581.831 89.9519 581.393C90.0664 580.954 89.8126 580.503 89.3855 580.385L88.7757 580.218C88.3486 580.1 87.9091 580.361 87.7946 580.799C87.6802 581.238 87.9339 581.689 88.3611 581.807Z" fill="#CFDBEC"/>
<path d="M91.4099 582.641L92.0196 582.808C92.4468 582.926 92.8863 582.665 93.0008 582.227C93.1152 581.788 92.8614 581.337 92.4343 581.219L91.8246 581.052C91.3974 580.934 90.9579 581.195 90.8434 581.633C90.729 582.072 90.9812 582.523 91.4099 582.641Z" fill="#CFDBEC"/>
<path d="M94.4548 583.482L95.0646 583.65C95.4917 583.767 95.9312 583.507 96.0457 583.068C96.1601 582.63 95.9064 582.178 95.4792 582.061L94.8695 581.893C94.4424 581.776 94.0028 582.036 93.8884 582.475C93.7739 582.913 94.0261 583.364 94.4548 583.482Z" fill="#CFDBEC"/>
<path d="M162.082 602.084C162.509 602.202 162.949 601.941 163.063 601.503C163.178 601.064 162.924 600.613 162.497 600.495L161.887 600.328C161.46 600.21 161.02 600.471 160.906 600.909C160.791 601.348 161.045 601.799 161.472 601.917L162.082 602.084Z" fill="#CFDBEC"/>
<path d="M152.943 599.571C153.371 599.688 153.81 599.428 153.925 598.989C154.039 598.551 153.785 598.099 153.358 597.982L152.748 597.814C152.321 597.697 151.882 597.957 151.767 598.396C151.653 598.834 151.907 599.286 152.334 599.403L152.943 599.571Z" fill="#CFDBEC"/>
<path d="M165.127 602.923C165.554 603.041 165.994 602.78 166.108 602.342C166.223 601.903 165.969 601.452 165.542 601.334L164.932 601.167C164.505 601.049 164.065 601.31 163.951 601.748C163.836 602.187 164.09 602.638 164.517 602.756L165.127 602.923Z" fill="#CFDBEC"/>
<path d="M159.035 601.248C159.462 601.366 159.902 601.105 160.016 600.667C160.131 600.228 159.877 599.777 159.45 599.659L158.84 599.491C158.413 599.374 157.974 599.634 157.859 600.073C157.745 600.512 157.998 600.963 158.426 601.08L159.035 601.248Z" fill="#CFDBEC"/>
<path d="M155.99 600.41C156.417 600.527 156.857 600.267 156.971 599.828C157.086 599.39 156.832 598.939 156.405 598.821L155.795 598.653C155.368 598.536 154.929 598.796 154.814 599.235C154.7 599.673 154.953 600.125 155.381 600.242L155.99 600.41Z" fill="#CFDBEC"/>
<path d="M146.85 597.896C147.277 598.013 147.716 597.753 147.831 597.314C147.945 596.876 147.692 596.424 147.264 596.307L146.655 596.139C146.228 596.022 145.788 596.282 145.674 596.721C145.559 597.159 145.813 597.611 146.24 597.728L146.85 597.896Z" fill="#CFDBEC"/>
<path d="M177.42 604.603L177.119 604.52C176.692 604.403 176.253 604.664 176.138 605.102C176.024 605.541 176.278 605.992 176.705 606.109L177.005 606.192C177.432 606.309 177.872 606.049 177.986 605.61C178.101 605.172 177.847 604.721 177.42 604.603Z" fill="#CFDBEC"/>
<path d="M128.41 604.753L91.2383 594.527L90.8233 596.117L127.995 606.343L128.41 604.753Z" fill="#CFDBEC"/>
<path d="M126.75 611.117L89.5781 600.891L89.1631 602.481L126.335 612.707L126.75 611.117Z" fill="#CFDBEC"/>
<path d="M125.088 617.475L87.916 607.249L87.501 608.839L124.673 619.065L125.088 617.475Z" fill="#CFDBEC"/>
<path d="M165.582 614.981L146.996 609.868L146.581 611.458L165.167 616.571L165.582 614.981Z" fill="#CFDBEC"/>
<path d="M125.978 563.181L101.197 556.363L100.782 557.953L125.563 564.771L125.978 563.181Z" fill="#CFDBEC"/>
<path d="M127.529 557.246L102.748 550.428L102.333 552.019L127.114 558.836L127.529 557.246Z" fill="#CFDBEC"/>
<path d="M124.318 569.541L99.5371 562.723L99.1221 564.314L123.903 571.131L124.318 569.541Z" fill="#CFDBEC"/>
<path d="M146.115 562.359L133.725 558.95L133.31 560.54L145.7 563.949L146.115 562.359Z" fill="#CFDBEC"/>
<path d="M144.564 568.294L132.174 564.885L131.759 566.476L144.149 569.884L144.564 568.294Z" fill="#CFDBEC"/>
<path d="M142.906 574.655L130.516 571.246L130.101 572.836L142.491 576.245L142.906 574.655Z" fill="#CFDBEC"/>
<path d="M122.658 575.902L97.877 569.084L97.462 570.675L122.243 577.492L122.658 575.902Z" fill="#CFDBEC"/>
<path d="M141.244 581.016L128.854 577.607L128.439 579.197L140.829 582.606L141.244 581.016Z" fill="#CFDBEC"/>
<path d="M107.516 538.504L147.785 549.582C148.64 549.817 149.52 549.296 149.749 548.418L152.239 538.877C152.468 537.999 151.96 537.096 151.105 536.861L110.836 525.782C109.981 525.547 109.101 526.069 108.872 526.946L106.382 536.488C106.153 537.365 106.661 538.269 107.516 538.504ZM110.421 527.372L150.69 538.451L148.2 547.992L107.931 536.914L110.421 527.372Z" fill="#CFDBEC"/>
<path d="M157.082 552.14L178.766 558.105C179.621 558.34 180.501 557.819 180.73 556.941L183.22 547.4C183.449 546.522 182.941 545.619 182.086 545.383L160.402 539.418C159.547 539.183 158.668 539.704 158.439 540.582L155.948 550.123C155.719 551.001 156.227 551.904 157.082 552.14ZM159.987 541.008L181.671 546.974L179.181 556.515L157.497 550.549L159.987 541.008Z" fill="#CFDBEC"/>
</g>
</g>
<defs>
<clipPath id="clip0">
<rect width="102.807" height="144.624" fill="white" transform="matrix(0.964179 -0.265252 0.25252 0.967592 973 518.038)"/>
</clipPath>
<clipPath id="clip1">
<rect width="102.621" height="144.873" fill="white" transform="translate(289 297.746)"/>
</clipPath>
<clipPath id="clip2">
<rect width="102.807" height="144.624" fill="white" transform="matrix(0.964179 0.265252 -0.25252 0.967592 933.52 -27.7212)"/>
</clipPath>
<clipPath id="clip3">
<rect width="102.807" height="144.624" fill="white" transform="matrix(0.964179 -0.265252 0.25252 0.967592 -25 83.7393)"/>
</clipPath>
<clipPath id="clip4">
<rect width="102.621" height="144.873" fill="white" transform="translate(391 -15.4009)"/>
</clipPath>
<clipPath id="clip5">
<rect width="102.807" height="144.624" fill="white" transform="matrix(0.964179 0.265252 -0.25252 0.967592 1364.52 351.135)"/>
</clipPath>
<clipPath id="clip6">
<rect width="102.807" height="144.624" fill="white" transform="matrix(0.964179 -0.265252 0.25252 0.967592 506 463.622)"/>
</clipPath>
<clipPath id="clip7">
<rect width="102.621" height="144.873" fill="white" transform="translate(1162 150.927)"/>
</clipPath>
<clipPath id="clip8">
<rect width="102.807" height="144.624" fill="white" transform="matrix(0.964179 0.265252 -0.25252 0.967592 108.52 477.421)"/>
</clipPath>
</defs>
</svg>
