<svg width="96" height="111" viewBox="0 0 96 111" fill="none" xmlns="http://www.w3.org/2000/svg">
<rect x="1.3" y="1.3" width="73.65" height="93.8037" rx="5.7" fill="#E6EBF8" stroke="#007AFF" stroke-width="2.1"/>
<path d="M10.6738 71.355H34.5721" stroke="#007AFF" stroke-width="2.1"/>
<path d="M10.6738 77.6099H34.5721" stroke="#007AFF" stroke-width="2.1"/>
<path d="M10.6738 19.709H34.5721" stroke="#007AFF" stroke-width="2.1"/>
<path d="M41.6777 13.4541H65.576" stroke="#007AFF" stroke-width="2.1"/>
<path d="M65.5762 39.167H10.6748" stroke="#007AFF" stroke-width="2.1"/>
<path d="M10.6738 25.9629H34.5721" stroke="#007AFF" stroke-width="2.1"/>
<path d="M41.6777 25.9629H65.576" stroke="#007AFF" stroke-width="2.1"/>
<path d="M48.1367 51.6763L10.6746 51.6763" stroke="#007AFF" stroke-width="2.1"/>
<path d="M41.6777 19.709H65.576" stroke="#007AFF" stroke-width="2.1"/>
<path d="M65.5762 45.4219H10.6748" stroke="#007AFF" stroke-width="2.1"/>
<circle cx="71.875" cy="86.875" r="22.875" fill="white" stroke="#007AFF" stroke-width="2.1"/>
<path d="M86.5 87.2557C86.5 83.1589 83.9521 80.5 80.2038 80.5C78.1882 80.5 76.5009 81.3787 74.6437 83.1703L71.8807 85.8635L69.1063 83.1703C67.2491 81.3787 65.5618 80.5 63.5462 80.5C59.7979 80.5 57.25 83.1589 57.25 87.2557C57.25 91.3525 59.7979 94 63.5462 94C65.5618 94 67.2491 93.1327 69.1063 91.3411L71.8807 88.6479L74.6437 91.3411C76.5009 93.1327 78.1882 94 80.2038 94C83.9521 94 86.5 91.3525 86.5 87.2557ZM70.4425 87.2557L67.6568 89.869C66.2186 91.227 64.973 91.9345 63.5462 91.9345C61.0209 91.9345 59.2997 90.1086 59.2997 87.2557C59.2997 84.4028 61.0209 82.5655 63.5462 82.5655C64.973 82.5655 66.2186 83.273 67.6568 84.631L70.4425 87.2557ZM73.3075 87.2557L76.0932 84.631C77.5314 83.273 78.777 82.5655 80.2038 82.5655C82.7291 82.5655 84.4503 84.4028 84.4503 87.2557C84.4503 90.1086 82.7291 91.9345 80.2038 91.9345C78.777 91.9345 77.5427 91.227 76.0932 89.869L73.3075 87.2557Z" fill="#007AFF"/>
</svg>
