<svg width="110" height="101" viewBox="0 0 110 101" fill="none" xmlns="http://www.w3.org/2000/svg">
<path d="M73.0955 48.24V67.29H80.0227C83.8425 67.29 86.95 64.17 86.95 60.3V57.6148V44.22C86.95 20.4172 67.7221 1.05 44.125 1.05C20.5279 1.05 1.3 20.4172 1.3 44.22V48.24V60.3C1.3 64.17 4.40746 67.29 8.22727 67.29H15.1545V48.24C15.1545 44.4452 12.1574 41.3839 8.42979 41.2731L7.29465 41.2394L7.41711 40.1103C9.44055 21.4541 25.0453 6.99 44.125 6.99C63.2047 6.99 78.8094 21.4541 80.8329 40.1103L80.9553 41.2394L79.8202 41.2731C76.0926 41.3839 73.0955 44.4452 73.0955 48.24Z" fill="#E6EBF8" stroke="#007AFF" stroke-width="2.1"/>
<path d="M10 75V75C10 83.2843 16.7157 90 25 90H40.75" stroke="#007AFF" stroke-width="2.1" stroke-linecap="round"/>
<rect x="34.3" y="86.55" width="15.9" height="6.9" rx="3.45" fill="#E6EBF8" stroke="#007AFF" stroke-width="2.1"/>
<circle cx="85.375" cy="76.125" r="22.875" fill="white" stroke="#007AFF" stroke-width="2.1"/>
<path d="M72.751 81.5H75.0358V78.8666H76.6171C78.6279 78.8666 79.9229 77.6339 79.9229 75.7102V75.6978C79.9229 73.774 78.6279 72.5165 76.6171 72.5165H72.751V81.5ZM76.0692 74.2659C77.0404 74.2659 77.6132 74.7639 77.6132 75.6978V75.7102C77.6132 76.644 77.0404 77.1483 76.0692 77.1483H75.0358V74.2659H76.0692ZM81.6038 81.5H83.8885V78.3561H85.0714L86.6091 81.5H89.1741L87.3811 78.0199C88.3523 77.5903 88.9064 76.588 88.9064 75.4923V75.4799C88.9064 73.6246 87.7173 72.5165 85.5072 72.5165H81.6038V81.5ZM83.8885 76.7935V74.241H85.2395C86.0613 74.241 86.578 74.7515 86.578 75.511V75.5234C86.578 76.3016 86.0737 76.7935 85.252 76.7935H83.8885ZM94.7397 81.7428C97.4417 81.7428 99.1661 79.9312 99.1661 77.0114V76.9989C99.1661 74.0853 97.4354 72.2737 94.7397 72.2737C92.0378 72.2737 90.3071 74.0853 90.3071 76.9989V77.0114C90.3071 79.9312 92.0254 81.7428 94.7397 81.7428ZM94.7397 79.8502C93.4635 79.8502 92.6293 78.7421 92.6293 77.0114V76.9989C92.6293 75.2744 93.476 74.1663 94.7397 74.1663C95.9973 74.1663 96.8378 75.2744 96.8378 76.9989V77.0114C96.8378 78.7421 95.9973 79.8502 94.7397 79.8502Z" fill="#007AFF"/>
</svg>
