<svg width="115" height="92" viewBox="0 0 115 92" fill="none" xmlns="http://www.w3.org/2000/svg">
<rect x="1.55" y="1.8" width="86.4" height="66.15" rx="5.7" fill="#E6EBF8" stroke="#007AFF" stroke-width="2.1"/>
<path d="M1.55 23.55H87.95V62.25C87.95 65.398 85.398 67.95 82.25 67.95H7.25C4.10198 67.95 1.55 65.398 1.55 62.25V23.55Z" fill="#E6EBF8" stroke="#007AFF" stroke-width="2.1"/>
<path d="M2.375 18.375H87.5" stroke="#007AFF" stroke-width="2.1"/>
<path d="M11 54H22.25" stroke="#007AFF" stroke-width="2.85"/>
<path d="M29 54H40.25" stroke="#007AFF" stroke-width="2.85"/>
<path d="M46.25 54H57.5" stroke="#007AFF" stroke-width="2.85"/>
<path d="M2.375 23.625H87.5" stroke="#007AFF" stroke-width="2.1"/>
<circle cx="90.125" cy="67.125" r="22.875" fill="white" stroke="#007AFF" stroke-width="2.1"/>
<path fill-rule="evenodd" clip-rule="evenodd" d="M104.721 67.9883H100.772C100.865 68.8652 101.556 69.1469 102.339 69.1469C103.143 69.1469 103.79 68.9788 104.324 68.7153V70.2237C103.646 70.5854 102.871 70.7589 102.09 70.7235C100.125 70.7235 98.7432 69.5876 98.7432 67.3249C98.7432 65.4211 99.9142 63.9081 101.83 63.9081C103.751 63.9081 104.75 65.3984 104.75 67.3158C104.75 67.4976 104.73 67.8883 104.721 67.9883ZM101.82 65.4348C101.315 65.4348 100.757 65.7665 100.757 66.607H102.839C102.839 65.7665 102.315 65.4348 101.82 65.4348ZM95.5634 70.7235C94.8579 70.7235 94.4268 70.4509 94.1426 70.251L94.1328 72.3547L92.1142 72.75V64.0308H93.9564L93.9956 64.4942C94.4229 64.1184 94.9892 63.9086 95.5781 63.9081C96.999 63.9081 98.3317 65.0895 98.3317 67.2704C98.3317 69.6467 97.0088 70.7235 95.5634 70.7235ZM95.098 65.5665C94.6325 65.5665 94.3435 65.721 94.1328 65.9346L94.1426 68.7153C94.3386 68.9152 94.6227 69.0697 95.098 69.0697C95.8427 69.0697 96.3425 68.32 96.3425 67.3113C96.3425 66.3344 95.8329 65.5665 95.098 65.5665ZM89.3362 64.0308H91.3597V70.5918H89.3362V64.0308ZM89.3362 61.8953L91.3597 61.5V63.0267L89.3362 63.4265V61.8998V61.8953ZM87.2196 66.1436V70.5918H85.201V64.0308H87.0138L87.0726 64.5851C87.5626 63.7809 88.5768 63.9445 88.8462 64.0308V65.7528C88.5915 65.6756 87.7242 65.5575 87.2196 66.1436ZM83.0305 68.2882C83.0305 69.3923 84.3044 69.0515 84.5592 68.9515V70.4782C84.2897 70.6145 83.8046 70.7235 83.1432 70.7235C82.8675 70.731 82.5931 70.6864 82.3366 70.5924C82.0801 70.4984 81.8469 70.357 81.6512 70.1768C81.4555 69.9965 81.3014 69.7813 81.1983 69.5441C81.0951 69.3069 81.045 69.0527 81.0511 68.7971L81.056 62.8131L83.0256 62.4224V64.0308H84.5641V65.6347H83.0305V68.2927V68.2882ZM80.6249 68.6062C80.6249 69.9557 79.4931 70.7235 77.8175 70.7235C77.0655 70.723 76.3218 70.5792 75.6323 70.301V68.5153C76.3084 68.8561 77.1511 69.1106 77.8175 69.1106C78.2682 69.1106 78.5671 69.0015 78.5671 68.6562C78.5671 67.7566 75.5 68.0928 75.5 66.0209C75.5 64.6987 76.6171 63.9081 78.2535 63.9081C78.9198 63.9081 79.5862 63.999 80.2574 64.2489V66.0118C79.6371 65.7091 78.9494 65.5442 78.2486 65.5302C77.8273 65.5302 77.5431 65.6438 77.5431 65.9391C77.5431 66.7797 80.6249 66.3798 80.6249 68.6108V68.6062Z" fill="#007AFF"/>
<rect x="2.75" y="19.5" width="84" height="3" fill="white"/>
</svg>
