<svg width="142" height="99" viewBox="0 0 142 99" fill="none" xmlns="http://www.w3.org/2000/svg">
<mask id="path-1-inside-1" fill="white">
<path fill-rule="evenodd" clip-rule="evenodd" d="M120.376 78.003H87.3322C87.2879 78.0032 87.2437 78.0033 87.1994 78.0033C87.1551 78.0033 87.1108 78.0032 87.0666 78.003H14.5854V78.0025C6.53008 78.0022 0 71.472 0 63.4165C0 55.3609 6.53036 48.8306 14.586 48.8306C15.9162 48.8306 17.2047 49.0086 18.4292 49.3422C18.4039 48.8579 18.3911 48.3703 18.3911 47.8797C18.3911 32.6441 30.742 20.2932 45.9776 20.2932C48.2424 20.2932 50.4434 20.5661 52.5496 21.0809C59.0399 8.55744 72.1203 0 87.1994 0C108.041 0 125.065 16.348 126.146 36.9205C134.958 39.3869 141.421 47.4766 141.421 57.0757C141.421 68.4218 132.392 77.6591 121.126 77.994V78.003H120.61C120.571 78.0033 120.532 78.0034 120.493 78.0034C120.454 78.0034 120.415 78.0033 120.376 78.003Z"/>
</mask>
<path fill-rule="evenodd" clip-rule="evenodd" d="M120.376 78.003H87.3322C87.2879 78.0032 87.2437 78.0033 87.1994 78.0033C87.1551 78.0033 87.1108 78.0032 87.0666 78.003H14.5854V78.0025C6.53008 78.0022 0 71.472 0 63.4165C0 55.3609 6.53036 48.8306 14.586 48.8306C15.9162 48.8306 17.2047 49.0086 18.4292 49.3422C18.4039 48.8579 18.3911 48.3703 18.3911 47.8797C18.3911 32.6441 30.742 20.2932 45.9776 20.2932C48.2424 20.2932 50.4434 20.5661 52.5496 21.0809C59.0399 8.55744 72.1203 0 87.1994 0C108.041 0 125.065 16.348 126.146 36.9205C134.958 39.3869 141.421 47.4766 141.421 57.0757C141.421 68.4218 132.392 77.6591 121.126 77.994V78.003H120.61C120.571 78.0033 120.532 78.0034 120.493 78.0034C120.454 78.0034 120.415 78.0033 120.376 78.003Z" fill="#E6EBF8"/>
<path d="M120.376 78.003L120.388 75.903H120.376V78.003ZM87.3322 78.003V75.903L87.3253 75.9031L87.3322 78.003ZM87.0666 78.003L87.0735 75.903H87.0666V78.003ZM14.5854 78.003H12.4854V80.103H14.5854V78.003ZM14.5854 78.0025H16.6854V75.9026L14.5855 75.9025L14.5854 78.0025ZM18.4292 49.3422L17.8772 51.3684L20.6778 52.1313L20.5264 49.2327L18.4292 49.3422ZM52.5496 21.0809L52.0511 23.1208L53.6546 23.5127L54.4141 22.0471L52.5496 21.0809ZM126.146 36.9205L124.049 37.0307L124.128 38.5363L125.58 38.9427L126.146 36.9205ZM121.126 77.994L121.064 75.8949L119.026 75.9555V77.994H121.126ZM121.126 78.003V80.103H123.226V78.003H121.126ZM120.61 78.003V75.903L120.599 75.9031L120.61 78.003ZM120.376 75.903H87.3322V80.103H120.376V75.903ZM87.3253 75.9031C87.2832 75.9032 87.2413 75.9033 87.1994 75.9033V80.1033C87.2461 80.1033 87.2926 80.1032 87.3391 80.103L87.3253 75.9031ZM87.1994 75.9033C87.1575 75.9033 87.1155 75.9032 87.0735 75.9031L87.0597 80.103C87.1061 80.1032 87.1527 80.1033 87.1994 80.1033V75.9033ZM87.0666 75.903H14.5854V80.103H87.0666V75.903ZM16.6854 78.003V78.0025H12.4854V78.003H16.6854ZM14.5855 75.9025C7.68992 75.9023 2.1 70.3122 2.1 63.4165H-2.1C-2.1 72.6318 5.37024 80.1022 14.5854 80.1025L14.5855 75.9025ZM2.1 63.4165C2.1 56.5207 7.69016 50.9306 14.586 50.9306V46.7306C5.37057 46.7306 -2.1 54.2011 -2.1 63.4165H2.1ZM14.586 50.9306C15.728 50.9306 16.831 51.0833 17.8772 51.3684L18.9812 47.316C17.5785 46.9339 16.1043 46.7306 14.586 46.7306V50.9306ZM20.5264 49.2327C20.503 48.7848 20.4911 48.3338 20.4911 47.8797H16.2911C16.2911 48.4069 16.3049 48.931 16.3321 49.4517L20.5264 49.2327ZM20.4911 47.8797C20.4911 33.8039 31.9018 22.3932 45.9776 22.3932V18.1932C29.5822 18.1932 16.2911 31.4843 16.2911 47.8797H20.4911ZM45.9776 22.3932C48.0731 22.3932 50.1068 22.6457 52.0511 23.1208L53.0482 19.0409C50.7801 18.4866 48.4117 18.1932 45.9776 18.1932V22.3932ZM54.4141 22.0471C60.5576 10.1928 72.9352 2.1 87.1994 2.1V-2.1C71.3054 -2.1 57.5221 6.92211 50.6851 20.1146L54.4141 22.0471ZM87.1994 2.1C106.918 2.1 123.026 17.5678 124.049 37.0307L128.244 36.8102C127.104 15.1283 109.164 -2.1 87.1994 -2.1V2.1ZM125.58 38.9427C133.509 41.162 139.321 48.4428 139.321 57.0757H143.521C143.521 46.5103 136.407 37.6118 126.712 34.8982L125.58 38.9427ZM139.321 57.0757C139.321 67.2829 131.198 75.5937 121.064 75.8949L121.189 80.093C133.586 79.7246 143.521 69.5607 143.521 57.0757H139.321ZM119.026 77.994V78.003H123.226V77.994H119.026ZM121.126 75.903H120.61V80.103H121.126V75.903ZM120.599 75.9031C120.564 75.9033 120.528 75.9034 120.493 75.9034V80.1034C120.536 80.1034 120.579 80.1032 120.622 80.103L120.599 75.9031ZM120.493 75.9034C120.458 75.9034 120.423 75.9033 120.388 75.9031L120.365 80.103C120.407 80.1032 120.45 80.1034 120.493 80.1034V75.9034Z" fill="#007AFF" mask="url(#path-1-inside-1)"/>
<path d="M108.614 94.2628C105.819 96.3088 102.02 96.3088 99.2243 94.2628L88.914 86.7174C87.0723 85.3696 85.8987 83.2953 85.6918 81.0225L84.1171 63.7202C83.8077 60.3208 85.7028 57.1033 88.8259 55.7258L100.711 50.4833C102.755 49.5818 105.084 49.5818 107.128 50.4833L119.013 55.7258C122.136 57.1034 124.031 60.3208 123.722 63.7202L122.147 81.0225C121.94 83.2953 120.766 85.3696 118.925 86.7174L108.614 94.2628Z" fill="white" stroke="#007AFF" stroke-width="2.1"/>
<rect x="97.1699" y="70.5" width="13.5" height="11.25" rx="1.5" stroke="#007AFF" stroke-width="2.1"/>
<path d="M100.648 71.0455V66.7705C100.648 65.7898 101.282 64.9122 102.242 64.7115C102.798 64.5954 103.41 64.5 103.921 64.5C104.432 64.5 105.044 64.5954 105.6 64.7115C106.56 64.9122 107.194 65.7898 107.194 66.7705V71.0455" stroke="#007AFF" stroke-width="2.1"/>
<path d="M87.4196 8.69475C87.4196 8.69475 94.8563 7.60478 103.436 13.3779C112.015 19.1511 113.807 26.4506 113.807 26.4506" stroke="#007AFF" stroke-width="1.875" stroke-linecap="round" stroke-linejoin="round"/>
</svg>
