<svg width="193" height="395" viewBox="0 0 193 395" fill="none" xmlns="http://www.w3.org/2000/svg">
<path fill-rule="evenodd" clip-rule="evenodd" d="M25.2138 0C11.2886 0 0 11.3364 0 25.3205V369.68C0 383.664 11.2886 395 25.2138 395H166.411C180.336 395 191.625 383.664 191.625 369.68V25.3205C191.625 11.3364 180.336 0 166.411 0H25.2138ZM12.6888 16.7708C9.62448 21.0064 9.62448 27.0484 9.62448 39.1323V356.329C9.62448 368.413 9.62448 374.455 12.6888 378.691C13.6785 380.059 14.8764 381.262 16.2385 382.255C20.4562 385.333 26.4727 385.333 38.5057 385.333H153.114C165.147 385.333 171.163 385.333 175.381 382.255C176.743 381.262 177.941 380.059 178.931 378.691C181.995 374.455 181.995 368.413 181.995 356.329V39.1323C181.995 27.0484 181.995 21.0064 178.931 16.7708C177.941 15.4029 176.743 14.2 175.381 13.2061C171.163 10.1288 165.147 10.1288 153.114 10.1288H38.5057C26.4727 10.1288 20.4562 10.1288 16.2385 13.2061C14.8764 14.2 13.6785 15.4029 12.6888 16.7708Z" fill="#3A4245"/>
<path fill-rule="evenodd" clip-rule="evenodd" d="M25.2131 1.84204C12.3006 1.84204 1.83301 12.354 1.83301 25.3211V369.68C1.83301 382.647 12.3006 393.159 25.2131 393.159H166.41C179.323 393.159 189.79 382.647 189.79 369.68V25.3211C189.79 12.354 179.323 1.84204 166.41 1.84204H25.2131ZM12.689 16.7708C9.62467 21.0064 9.62467 27.0484 9.62467 39.1323V356.329C9.62467 368.413 9.62467 374.455 12.689 378.691C13.6787 380.059 14.8766 381.262 16.2387 382.255C20.4564 385.333 26.4729 385.333 38.5059 385.333H153.114C165.147 385.333 171.163 385.333 175.381 382.255C176.743 381.262 177.941 380.059 178.931 378.691C181.995 374.455 181.995 368.413 181.995 356.329V39.1323C181.995 27.0484 181.995 21.0064 178.931 16.7708C177.941 15.4029 176.743 14.2 175.381 13.2061C171.163 10.1288 165.147 10.1288 153.114 10.1288H38.5059C26.4729 10.1288 20.4564 10.1288 16.2387 13.2061C14.8766 14.2 13.6787 15.4029 12.689 16.7708Z" fill="#121515"/>
<path d="M191.625 149.161H192.083C192.59 149.161 193 149.843 193 150.684L193 201.963C193 202.804 192.59 203.485 192.083 203.485H191.625L191.625 149.161Z" fill="#121515"/>
<path d="M191.625 94.3772H192.083C192.59 94.3772 193 95.0589 193 95.8999L193 120.016C193 120.857 192.59 121.539 192.083 121.539H191.625L191.625 94.3772Z" fill="#121515"/>
<ellipse cx="21.7757" cy="22.3293" rx="6.18884" ry="6.21503" fill="#121515"/>
<path fill-rule="evenodd" clip-rule="evenodd" d="M21.7721 26.7019C24.1774 26.7019 26.1272 24.7438 26.1272 22.3284C26.1272 19.9129 24.1774 17.9548 21.7721 17.9548C19.3668 17.9548 17.417 19.9129 17.417 22.3284C17.417 24.7438 19.3668 26.7019 21.7721 26.7019Z" fill="#262C2D"/>
<path fill-rule="evenodd" clip-rule="evenodd" d="M21.7717 25.0619C23.275 25.0619 24.4937 23.8381 24.4937 22.3284C24.4937 20.8188 23.275 19.595 21.7717 19.595C20.2685 19.595 19.0498 20.8188 19.0498 22.3284C19.0498 23.8381 20.2685 25.0619 21.7717 25.0619Z" fill="#121515"/>
<path opacity="0.4" fill-rule="evenodd" clip-rule="evenodd" d="M21.7719 21.7819C22.0726 21.7819 22.3163 21.5371 22.3163 21.2352C22.3163 20.9332 22.0726 20.6885 21.7719 20.6885C21.4713 20.6885 21.2275 20.9332 21.2275 21.2352C21.2275 21.5371 21.4713 21.7819 21.7719 21.7819Z" fill="#636F73"/>
</svg>
