<svg width="195" height="395" viewBox="0 0 195 395" fill="none" xmlns="http://www.w3.org/2000/svg">
<path fill-rule="evenodd" clip-rule="evenodd" d="M2.84937 20.6771C1.38281 25.1847 1.38281 30.7545 1.38281 41.8939V353.106C1.38281 364.246 1.38281 369.815 2.84937 374.323C5.81338 383.433 12.9654 390.575 22.0876 393.535C26.6012 395 32.1784 395 43.3328 395H151.665C162.82 395 168.397 395 172.911 393.535C182.033 390.575 189.185 383.433 192.149 374.323C193.615 369.815 193.615 364.246 193.615 353.106V41.8939C193.615 30.7545 193.615 25.1847 192.149 20.6771C189.185 11.5671 182.033 4.42464 172.911 1.4646C168.397 0 162.82 0 151.665 0H43.3328C32.1784 0 26.6012 0 22.0876 1.4646C12.9654 4.42464 5.81338 11.5671 2.84937 20.6771ZM63.6147 22.0977C58.8188 22.0977 54.8559 18.2433 54.8559 13.4887V11.1408C54.8559 9.84412 53.8589 8.74689 52.551 8.74689H41.9897C32.5042 8.74689 27.7615 8.74689 23.9889 10.2044C18.2989 12.4028 13.8007 16.895 11.5994 22.5774C10.1399 26.3448 10.1399 31.0812 10.1399 40.5541V354.446C10.1399 363.918 10.1399 368.655 11.5994 372.422C13.8007 378.105 18.2989 382.597 23.9889 384.795C27.7615 386.253 32.5042 386.253 41.9897 386.253H153.005C162.491 386.253 167.233 386.253 171.006 384.795C176.696 382.597 181.194 378.105 183.395 372.422C184.855 368.655 184.855 363.918 184.855 354.446V40.5541C184.855 31.0812 184.855 26.3448 183.395 22.5774C181.194 16.895 176.696 12.4028 171.006 10.2044C167.233 8.74689 162.491 8.74689 153.005 8.74689H142.444C141.136 8.74689 140.139 9.84412 140.139 11.1408V13.4887C140.139 18.2433 136.176 22.0977 131.38 22.0977H63.6147Z" fill="#213744"/>
<path fill-rule="evenodd" clip-rule="evenodd" d="M151.851 0.920578H43.1494C32.1307 0.920578 26.7307 0.926258 22.3735 2.34011C13.5319 5.20907 6.59995 12.1317 3.72715 20.9615C2.3114 25.3129 2.30572 30.7057 2.30572 41.7096V353.29C2.30572 364.294 2.3114 369.687 3.72715 374.038C6.59995 382.868 13.5319 389.791 22.3735 392.66C26.7307 394.073 32.1307 394.079 43.1494 394.079H151.851C162.869 394.079 168.269 394.073 172.627 392.66C181.468 389.791 188.4 382.868 191.273 374.038C192.689 369.687 192.694 364.294 192.694 353.29V41.7096C192.694 30.7057 192.689 25.3129 191.273 20.9615C188.4 12.1317 181.468 5.20907 172.627 2.34011C168.269 0.926258 162.869 0.920578 151.851 0.920578ZM3.28872 20.8192C1.84473 25.2575 1.84473 30.7415 1.84473 41.7096V353.29C1.84473 364.258 1.84473 369.742 3.28872 374.18C6.20713 383.15 13.2491 390.183 22.231 393.097C26.6752 394.539 32.1666 394.539 43.1494 394.539H151.851C162.833 394.539 168.325 394.539 172.769 393.097C181.751 390.183 188.793 383.15 191.711 374.18C193.155 369.742 193.155 364.258 193.155 353.29V41.7096C193.155 30.7415 193.155 25.2575 191.711 20.8192C188.793 11.8493 181.751 4.81677 172.769 1.90227C168.325 0.460205 162.833 0.460205 151.851 0.460205H43.1494C32.1666 0.460205 26.6752 0.460205 22.231 1.90227C13.2491 4.81677 6.20713 11.8493 3.28872 20.8192Z" fill="#8EADC1"/>
<path fill-rule="evenodd" clip-rule="evenodd" d="M5.0432 21.3886C3.68945 25.5494 3.68945 30.6907 3.68945 40.9733V354.027C3.68945 364.31 3.68945 369.451 5.0432 373.612C7.7792 382.021 14.381 388.614 22.8016 391.346C26.968 392.698 32.1162 392.698 42.4126 392.698H152.589C162.885 392.698 168.034 392.698 172.2 391.346C180.621 388.614 187.222 382.021 189.958 373.612C191.312 369.451 191.312 364.31 191.312 354.027V40.9733C191.312 30.6907 191.312 25.5494 189.958 21.3886C187.222 12.9793 180.621 6.38628 172.2 3.65394C168.034 2.302 162.885 2.302 152.589 2.302H42.4126C32.1162 2.302 26.968 2.302 22.8016 3.65394C14.381 6.38628 7.7792 12.9793 5.0432 21.3886ZM63.6154 22.0978C58.8195 22.0978 54.8566 18.2434 54.8566 13.4888V11.1409C54.8566 9.84418 53.8596 8.74695 52.5516 8.74695H41.9903C32.5048 8.74695 27.7621 8.74695 23.9896 10.2045C18.2996 12.4028 13.8014 16.895 11.6001 22.5774C10.1406 26.3449 10.1406 31.0813 10.1406 40.5541V354.446C10.1406 363.918 10.1406 368.655 11.6001 372.422C13.8014 378.105 18.2996 382.597 23.9896 384.795C27.7621 386.253 32.5048 386.253 41.9903 386.253H153.006C162.491 386.253 167.234 386.253 171.007 384.795C176.697 382.597 181.195 378.105 183.396 372.422C184.856 368.655 184.856 363.918 184.856 354.446V40.5541C184.856 31.0813 184.856 26.3449 183.396 22.5774C181.195 16.895 176.697 12.4028 171.007 10.2045C167.234 8.74695 162.491 8.74695 153.006 8.74695H142.445C141.137 8.74695 140.14 9.84418 140.14 11.1409V13.4888C140.14 18.2434 136.177 22.0978 131.381 22.0978H63.6154Z" fill="#121515"/>
<path d="M193.617 110.489H194.309C194.691 110.489 195 110.798 195 111.18V152.613C195 152.995 194.691 153.304 194.309 153.304H193.617V110.489Z" fill="#213744"/>
<path d="M1.38281 162.512L0.691326 162.512C0.30943 162.512 -0.000157959 162.203 -0.000157926 161.821L-0.000155669 136.041C-0.000155635 135.659 0.309432 135.35 0.691328 135.35L1.38281 135.35L1.38281 162.512Z" fill="#213744"/>
<path d="M1.38281 127.984L0.691326 127.984C0.30943 127.984 -0.000157959 127.675 -0.000157926 127.294L-0.000155669 101.513C-0.000155635 101.132 0.309432 100.822 0.691328 100.822L1.38281 100.822L1.38281 127.984Z" fill="#213744"/>
<path d="M1.38281 88.8523L0.691328 88.8523C0.309432 88.8523 -0.000156461 88.5431 -0.000156428 88.1617L-0.00015542 76.6524C-0.000155387 76.271 0.309432 75.9619 0.691328 75.9619L1.38281 75.9619L1.38281 88.8523Z" fill="#213744"/>
<path fill-rule="evenodd" clip-rule="evenodd" d="M115.247 17.0331C117.03 17.0331 118.474 15.5903 118.474 13.8105C118.474 12.0307 117.03 10.5879 115.247 10.5879C113.465 10.5879 112.021 12.0307 112.021 13.8105C112.021 15.5903 113.465 17.0331 115.247 17.0331Z" fill="#262C2D"/>
<path fill-rule="evenodd" clip-rule="evenodd" d="M115.247 15.8249C116.361 15.8249 117.264 14.9231 117.264 13.8108C117.264 12.6984 116.361 11.7966 115.247 11.7966C114.133 11.7966 113.23 12.6984 113.23 13.8108C113.23 14.9231 114.133 15.8249 115.247 15.8249Z" fill="#121515"/>
<path opacity="0.4" fill-rule="evenodd" clip-rule="evenodd" d="M115.247 13.4077C115.47 13.4077 115.65 13.2274 115.65 13.0049C115.65 12.7824 115.47 12.6021 115.247 12.6021C115.024 12.6021 114.844 12.7824 114.844 13.0049C114.844 13.2274 115.024 13.4077 115.247 13.4077Z" fill="#636F73"/>
<path fill-rule="evenodd" clip-rule="evenodd" d="M87.5869 13.8118C87.5869 13.049 88.2053 12.4307 88.968 12.4307H106.028C106.791 12.4307 107.409 13.049 107.409 13.8118V13.8118C107.409 14.5746 106.791 15.1929 106.028 15.1929H88.968C88.2053 15.1929 87.5869 14.5746 87.5869 13.8118V13.8118Z" fill="#262C2D"/>
</svg>
