<svg width="195" height="396" viewBox="0 0 195 396" fill="none" xmlns="http://www.w3.org/2000/svg">
<path d="M0.925781 25.8791C0.925781 11.8782 12.2757 0.52832 26.2765 0.52832H168.241C182.241 0.52832 193.591 11.8782 193.591 25.879V370.649C193.591 384.65 182.241 396 168.241 396H26.2765C12.2757 396 0.925781 384.65 0.925781 370.649V25.8791Z" fill="#3A4245"/>
<path d="M2.76904 25.8796C2.76904 12.897 13.2935 2.37256 26.2761 2.37256H168.24C181.223 2.37256 191.747 12.897 191.747 25.8796V370.649C191.747 383.632 181.223 394.156 168.24 394.156H26.2761C13.2935 394.156 2.76904 383.632 2.76904 370.649V25.8796Z" fill="#121515"/>
<path d="M193.591 149.868H194.052C194.561 149.868 194.974 150.55 194.974 151.392L194.974 202.732C194.974 203.574 194.561 204.256 194.052 204.256H193.591L193.591 149.868Z" fill="#121515"/>
<path d="M193.591 95.0181H194.052C194.561 95.0181 194.974 95.7006 194.974 96.5426L194.974 120.688C194.974 121.53 194.561 122.212 194.052 122.212H193.591L193.591 95.0181Z" fill="#121515"/>
<circle cx="22.8201" cy="22.8846" r="6.22245" fill="#121515"/>
<path fill-rule="evenodd" clip-rule="evenodd" d="M22.8163 27.2624C25.2346 27.2624 27.195 25.302 27.195 22.8836C27.195 20.4653 25.2346 18.5049 22.8163 18.5049C20.3979 18.5049 18.4375 20.4653 18.4375 22.8836C18.4375 25.302 20.3979 27.2624 22.8163 27.2624Z" fill="#262C2D"/>
<path fill-rule="evenodd" clip-rule="evenodd" d="M22.8163 25.6204C24.3278 25.6204 25.553 24.3952 25.553 22.8837C25.553 21.3722 24.3278 20.147 22.8163 20.147C21.3049 20.147 20.0796 21.3722 20.0796 22.8837C20.0796 24.3952 21.3049 25.6204 22.8163 25.6204Z" fill="#121515"/>
<path opacity="0.4" fill-rule="evenodd" clip-rule="evenodd" d="M22.8164 22.3364C23.1187 22.3364 23.3637 22.0913 23.3637 21.789C23.3637 21.4868 23.1187 21.2417 22.8164 21.2417C22.5141 21.2417 22.269 21.4868 22.269 21.789C22.269 22.0913 22.5141 22.3364 22.8164 22.3364Z" fill="#636F73"/>
</svg>
