<svg width="196" height="396" viewBox="0 0 196 396" fill="none" xmlns="http://www.w3.org/2000/svg">
<path d="M194.089 110.621H194.78C195.162 110.621 195.472 110.93 195.472 111.312V152.795C195.472 153.177 195.162 153.486 194.78 153.486H194.089V110.621Z" fill="#213744"/>
<path d="M1.8833 162.706L1.19191 162.706C0.810074 162.706 0.500532 162.396 0.500532 162.014L0.500534 136.203C0.500534 135.821 0.810077 135.511 1.19192 135.511L1.8833 135.511L1.8833 162.706Z" fill="#213744"/>
<path d="M1.8833 128.137L1.19191 128.137C0.810074 128.137 0.500532 127.827 0.500532 127.445L0.500534 101.634C0.500534 101.252 0.810077 100.942 1.19192 100.942L1.8833 100.942L1.8833 128.137Z" fill="#213744"/>
<path d="M1.8833 88.958L1.19192 88.958C0.810076 88.958 0.500533 88.6485 0.500533 88.2666L0.500534 76.7436C0.500534 76.3617 0.810077 76.0522 1.19192 76.0522L1.8833 76.0522L1.8833 88.958Z" fill="#213744"/>
<path d="M1.8833 41.9439C1.8833 30.7911 1.8833 25.2148 3.34964 20.7018C6.31322 11.5809 13.4642 4.42992 22.5851 1.46634C27.0981 0 32.6744 0 43.8272 0H152.144C163.297 0 168.873 0 173.386 1.46634C182.507 4.42992 189.658 11.5809 192.622 20.7018C194.088 25.2148 194.088 30.7911 194.088 41.9439V353.527C194.088 364.68 194.088 370.257 192.622 374.769C189.658 383.89 182.507 391.041 173.386 394.005C168.873 395.471 163.297 395.471 152.144 395.471H43.8272C32.6744 395.471 27.0981 395.471 22.5851 394.005C13.4642 391.041 6.31322 383.89 3.34964 374.769C1.8833 370.257 1.8833 364.68 1.8833 353.527V41.9439Z" fill="#213744"/>
<path fill-rule="evenodd" clip-rule="evenodd" d="M152.329 0.92186H43.6434C32.6263 0.92186 27.2271 0.927546 22.8705 2.34309C14.0302 5.21547 7.09926 12.1464 4.22687 20.9867C2.81134 25.3433 2.80565 30.7425 2.80565 41.7595V353.712C2.80565 364.729 2.81134 370.128 4.22687 374.485C7.09926 383.325 14.0302 390.256 22.8705 393.128C27.2271 394.544 32.6263 394.549 43.6434 394.549H152.329C163.346 394.549 168.745 394.544 173.102 393.128C181.942 390.256 188.873 383.325 191.745 374.485C193.161 370.128 193.167 364.729 193.167 353.712V41.7596C193.167 30.7425 193.161 25.3433 191.745 20.9867C188.873 12.1464 181.942 5.21547 173.102 2.34309C168.745 0.927546 163.346 0.92186 152.329 0.92186ZM3.78851 20.8443C2.34473 25.2878 2.34473 30.7784 2.34473 41.7595V353.712C2.34473 364.693 2.34473 370.184 3.78851 374.627C6.70649 383.608 13.7474 390.649 22.728 393.567C27.1716 395.01 32.6622 395.01 43.6434 395.01H152.329C163.31 395.01 168.801 395.01 173.244 393.567C182.225 390.649 189.266 383.608 192.184 374.627C193.627 370.184 193.627 364.693 193.627 353.712V41.7596C193.627 30.7784 193.627 25.2878 192.184 20.8443C189.266 11.8636 182.225 4.8227 173.244 1.90472C168.801 0.460938 163.31 0.460938 152.329 0.460938H43.6434C32.6622 0.460938 27.1716 0.460938 22.728 1.90472C13.7474 4.8227 6.70649 11.8636 3.78851 20.8443Z" fill="#8EADC1"/>
<path d="M4.18799 41.0222C4.18799 30.7273 4.18799 25.5798 5.54154 21.4141C8.27714 12.9947 14.878 6.39384 23.2974 3.65824C27.4631 2.30469 32.6106 2.30469 42.9055 2.30469H153.066C163.361 2.30469 168.508 2.30469 172.674 3.65824C181.093 6.39384 187.694 12.9947 190.43 21.4141C191.783 25.5798 191.783 30.7273 191.783 41.0222V354.449C191.783 364.744 191.783 369.892 190.43 374.057C187.694 382.477 181.093 389.078 172.674 391.813C168.508 393.167 163.361 393.167 153.066 393.167H42.9055C32.6106 393.167 27.4631 393.167 23.2974 391.813C14.878 389.078 8.27714 382.477 5.54154 374.057C4.18799 369.892 4.18799 364.744 4.18799 354.449V41.0222Z" fill="#121515"/>
<path d="M153.067 0H155.832V2.30461H153.067V0Z" fill="#36454C"/>
<path d="M191.783 39.6392H194.087V42.4047H191.783V39.6392Z" fill="#36454C"/>
<path d="M1.88379 39.6392H4.1884V42.4047H1.88379V39.6392Z" fill="#36454C"/>
<path d="M1.88379 353.066H4.1884V355.831H1.88379V353.066Z" fill="#36454C"/>
<path d="M191.783 353.066H194.087V355.831H191.783V353.066Z" fill="#36454C"/>
<path d="M40.1401 393.167H42.9057V395.472H40.1401V393.167Z" fill="#36454C"/>
<path fill-rule="evenodd" clip-rule="evenodd" d="M115.73 17.0535C117.512 17.0535 118.957 15.609 118.957 13.827C118.957 12.0451 117.512 10.6006 115.73 10.6006C113.948 10.6006 112.504 12.0451 112.504 13.827C112.504 15.609 113.948 17.0535 115.73 17.0535Z" fill="#262C2D"/>
<path fill-rule="evenodd" clip-rule="evenodd" d="M115.73 15.8436C116.844 15.8436 117.747 14.9408 117.747 13.8271C117.747 12.7134 116.844 11.8105 115.73 11.8105C114.617 11.8105 113.714 12.7134 113.714 13.8271C113.714 14.9408 114.617 15.8436 115.73 15.8436Z" fill="#121515"/>
<path opacity="0.4" fill-rule="evenodd" clip-rule="evenodd" d="M115.73 13.4238C115.953 13.4238 116.134 13.2432 116.134 13.0205C116.134 12.7978 115.953 12.6172 115.73 12.6172C115.508 12.6172 115.327 12.7978 115.327 13.0205C115.327 13.2432 115.508 13.4238 115.73 13.4238Z" fill="#636F73"/>
<path fill-rule="evenodd" clip-rule="evenodd" d="M88.0742 13.8281C88.0742 13.0644 88.6933 12.4453 89.457 12.4453H106.511C107.275 12.4453 107.894 13.0644 107.894 13.8281C107.894 14.5918 107.275 15.2108 106.511 15.2108H89.457C88.6933 15.2108 88.0742 14.5918 88.0742 13.8281Z" fill="#262C2D"/>
</svg>
