<svg width="23" height="22" viewBox="0 0 23 22" fill="none" xmlns="http://www.w3.org/2000/svg">
<path d="M10.3665 1.26087C10.7401 0.186195 12.2599 0.186193 12.6335 1.26087L14.5174 6.68076C14.6822 7.15485 15.1247 7.47629 15.6265 7.48652L21.3633 7.60343C22.5008 7.62661 22.9704 9.07206 22.0638 9.75942L17.4913 13.226C17.0914 13.5292 16.9224 14.0493 17.0677 14.5298L18.7293 20.0219C19.0588 21.1109 17.8292 22.0042 16.8953 21.3544L12.1854 18.077C11.7734 17.7903 11.2266 17.7903 10.8146 18.077L6.1047 21.3544C5.17081 22.0042 3.94123 21.1109 4.27069 20.0219L5.93228 14.5298C6.07762 14.0493 5.90863 13.5292 5.50867 13.226L0.936214 9.75943C0.0295751 9.07206 0.499229 7.62661 1.63674 7.60343L7.37354 7.48652C7.87535 7.47629 8.31778 7.15485 8.48257 6.68076L10.3665 1.26087Z" fill="#FFA500"/>
</svg>
