<svg width="38" height="44" viewBox="0 0 38 44" fill="none" xmlns="http://www.w3.org/2000/svg">
<path d="M26.3507 29.3195L25.3007 29.9145V43.9145H29.5007V32.3015C32.0777 30.5738 34.1912 28.24 35.6558 25.5049C37.1203 22.7698 37.8912 19.717 37.9007 16.6145C37.9078 13.7403 37.2544 10.903 35.9909 8.32146C34.7274 5.73991 32.8877 3.48319 30.6137 1.72547C29.8709 1.14137 28.979 0.77783 28.0395 0.676336C27.1001 0.574842 26.151 0.739482 25.3007 1.15147C24.4602 1.55016 23.7505 2.17988 23.2547 2.96702C22.7588 3.75416 22.4973 4.66618 22.5007 5.59647V13.8145C22.5007 14.0001 22.4269 14.1782 22.2957 14.3094C22.1644 14.4407 21.9863 14.5145 21.8007 14.5145H16.2007C16.015 14.5145 15.837 14.4407 15.7057 14.3094C15.5744 14.1782 15.5007 14.0001 15.5007 13.8145V5.61047C15.5054 4.679 15.2445 3.76548 14.7486 2.97698C14.2527 2.18848 13.5423 1.55766 12.7007 1.15847C11.8475 0.739815 10.8934 0.570907 9.94836 0.671232C9.00333 0.771556 8.10592 1.13702 7.35968 1.72547C4.57189 3.89414 2.44756 6.80059 1.22763 10.1152C0.00768813 13.4298 -0.259043 17.02 0.45768 20.4785C0.951467 22.8891 1.91608 25.1787 3.29625 27.2159C4.67641 29.2531 6.445 30.998 8.50068 32.3505V43.9145H12.7007V29.9705L11.6507 29.3615C9.8536 28.3383 8.29533 26.9437 7.07981 25.2707C5.8643 23.5977 5.01947 21.6848 4.60168 19.6595C4.04354 16.9639 4.25057 14.1659 5.19935 11.5818C6.14813 8.99766 7.80085 6.73047 9.97068 5.03647C10.0959 4.93022 10.2494 4.86299 10.4124 4.84309C10.5754 4.82318 10.7406 4.85147 10.8877 4.92447C11.0208 4.98366 11.1321 5.08291 11.2062 5.20839C11.2802 5.33387 11.3132 5.47932 11.3007 5.62447V13.8145C11.3007 15.114 11.8169 16.3604 12.7359 17.2793C13.6548 18.1982 14.9011 18.7145 16.2007 18.7145H21.8007C23.1002 18.7145 24.3466 18.1982 25.2655 17.2793C26.1844 16.3604 26.7007 15.114 26.7007 13.8145V5.59647C26.6881 5.45132 26.7212 5.30587 26.7952 5.18039C26.8692 5.05491 26.9806 4.95566 27.1137 4.89647C27.2618 4.82288 27.4282 4.79427 27.5924 4.81417C27.7566 4.83407 27.9114 4.90162 28.0377 5.00847C29.8087 6.37891 31.2407 8.1385 32.2227 10.1511C33.2047 12.1636 33.7104 14.3751 33.7007 16.6145C33.6913 19.1895 33.0078 21.7172 31.7184 23.9462C30.4289 26.1752 28.5783 28.0277 26.3507 29.3195Z" fill="#007AFF"/>
</svg>
