<svg width="38" height="44" viewBox="0 0 38 44" fill="none" xmlns="http://www.w3.org/2000/svg">
<path d="M28.1008 0.514893H9.90078C7.48731 0.514893 5.17269 1.47364 3.46611 3.18022C1.75953 4.8868 0.800781 7.20142 0.800781 9.61489V34.8149C0.800781 37.2284 1.75953 39.543 3.46611 41.2496C5.17269 42.9562 7.48731 43.9149 9.90078 43.9149H28.1008C30.5143 43.9149 32.8289 42.9562 34.5355 41.2496C36.242 39.543 37.2008 37.2284 37.2008 34.8149V9.61489C37.2008 7.20142 36.242 4.8868 34.5355 3.18022C32.8289 1.47364 30.5143 0.514893 28.1008 0.514893ZM33.0008 34.8149C33.0008 36.1145 32.4845 37.3608 31.5656 38.2797C30.6467 39.1986 29.4003 39.7149 28.1008 39.7149H9.90078C8.60122 39.7149 7.35489 39.1986 6.43596 38.2797C5.51703 37.3608 5.00078 36.1145 5.00078 34.8149V9.61489C5.00078 8.31533 5.51703 7.069 6.43596 6.15007C7.35489 5.23114 8.60122 4.71489 9.90078 4.71489H28.1008C29.4003 4.71489 30.6467 5.23114 31.5656 6.15007C32.4845 7.069 33.0008 8.31533 33.0008 9.61489V34.8149Z" fill="#007AFF"/>
<path d="M26 10.3149H12V14.5149H26V10.3149Z" fill="#007AFF"/>
<path d="M26 20.115H12V24.315H26V20.115Z" fill="#007AFF"/>
<path d="M26 29.9148H12V34.1148H26V29.9148Z" fill="#007AFF"/>
</svg>
