<svg width="44" height="44" viewBox="0 0 44 44" fill="none" xmlns="http://www.w3.org/2000/svg">
<path d="M35.6571 0.514928C34.6012 0.511799 33.5552 0.718057 32.5795 1.12177C31.6039 1.52548 30.718 2.11864 29.9731 2.86693L15.3991 17.4479C14.1589 18.6801 13.1757 20.1461 12.5064 21.7611C11.8371 23.376 11.4951 25.1078 11.5001 26.8559V32.7149H17.3591C19.1072 32.7199 20.839 32.3778 22.4539 31.7086C24.0689 31.0393 25.5349 30.056 26.7671 28.8159L41.3481 14.2419C42.4754 13.118 43.2436 11.6846 43.5551 10.1235C43.8666 8.56233 43.7074 6.94385 43.0978 5.47331C42.4881 4.00278 41.4554 2.74645 40.1307 1.86368C38.806 0.980911 37.249 0.511478 35.6571 0.514928ZM38.3731 11.2669L23.7991 25.8479C22.9554 26.6964 21.9518 27.369 20.8463 27.8268C19.7409 28.2846 18.5555 28.5185 17.3591 28.5149H15.7001V26.8559C15.6974 25.6606 15.9318 24.4766 16.3896 23.3724C16.8473 22.2682 17.5194 21.2658 18.3671 20.4229L32.9481 5.84193C33.676 5.15949 34.6408 4.78692 35.6384 4.803C36.6361 4.81908 37.5884 5.22255 38.2939 5.92809C38.9994 6.63363 39.4029 7.58591 39.419 8.58357C39.4351 9.58122 39.0625 10.546 38.3801 11.2739L38.3731 11.2669Z" fill="#007AFF"/>
<path d="M8.00078 43.9147H30.4008C32.443 43.9147 34.4015 43.1035 35.8455 41.6595C37.2895 40.2154 38.1008 38.2569 38.1008 36.2147V29.9147H33.9008V36.2147C33.9008 37.143 33.532 38.0332 32.8757 38.6896C32.2193 39.346 31.329 39.7147 30.4008 39.7147H8.00078C7.07252 39.7147 6.18229 39.346 5.52591 38.6896C4.86953 38.0332 4.50078 37.143 4.50078 36.2147V13.8147C4.50078 12.8865 4.86953 11.9963 5.52591 11.3399C6.18229 10.6835 7.07252 10.3147 8.00078 10.3147H14.3008V6.11475H8.00078C5.95861 6.11475 4.00009 6.92599 2.55606 8.37002C1.11203 9.81405 0.300781 11.7726 0.300781 13.8147V36.2147C0.300781 38.2569 1.11203 40.2154 2.55606 41.6595C4.00009 43.1035 5.95861 43.9147 8.00078 43.9147Z" fill="#007AFF"/>
</svg>
