<svg width="44" height="44" viewBox="0 0 44 44" fill="none" xmlns="http://www.w3.org/2000/svg">
<path d="M8.00078 43.6694H36.0008C38.0429 43.6694 40.0015 42.8617 41.4455 41.4239C42.8895 39.9861 43.7008 38.0361 43.7008 36.0027V8.12394C43.7008 6.09062 42.8895 4.14057 41.4455 2.70279C40.0015 1.26501 38.0429 0.457275 36.0008 0.457275H8.00078C5.95861 0.457275 4.00009 1.26501 2.55606 2.70279C1.11203 4.14057 0.300781 6.09062 0.300781 8.12394V36.0027C0.300781 38.0361 1.11203 39.9861 2.55606 41.4239C4.00009 42.8617 5.95861 43.6694 8.00078 43.6694ZM4.50078 8.12394C4.50078 7.1997 4.86953 6.31332 5.52591 5.65978C6.18229 5.00625 7.07252 4.63909 8.00078 4.63909H36.0008C36.929 4.63909 37.8193 5.00625 38.4757 5.65978C39.132 6.31332 39.5008 7.1997 39.5008 8.12394V36.0027C39.5008 36.927 39.132 37.8134 38.4757 38.4669C37.8193 39.1204 36.929 39.4876 36.0008 39.4876H8.00078C7.07252 39.4876 6.18229 39.1204 5.52591 38.4669C4.86953 37.8134 4.50078 36.927 4.50078 36.0027V8.12394Z" fill="#007AFF"/>
<path d="M22.0012 35.3057C24.6317 35.3057 27.2031 34.529 29.3903 33.0739C31.5774 31.6188 33.2821 29.5506 34.2888 27.1309C35.2954 24.7111 35.5588 22.0485 35.0456 19.4798C34.5324 16.911 33.2657 14.5514 31.4057 12.6994C29.5457 10.8474 27.1758 9.58622 24.5959 9.07526C22.0159 8.56429 19.3417 8.82654 16.9115 9.82883C14.4812 10.8311 12.404 12.5284 10.9426 14.7061C9.4812 16.8838 8.70117 19.4441 8.70117 22.0632C8.70117 25.5753 10.1024 28.9436 12.5967 31.427C15.0909 33.9105 18.4738 35.3057 22.0012 35.3057ZM22.0012 13.0026C23.6864 13.0039 25.3377 13.4747 26.7682 14.3617L20.4332 20.6693L23.4012 23.6244L29.7362 17.3169C30.7916 19.0256 31.2476 21.0348 31.0328 23.0294C30.8179 25.024 29.9444 26.8912 28.549 28.3382C27.1537 29.7853 25.3155 30.7304 23.3227 31.0253C21.3298 31.3203 19.295 30.9484 17.5373 29.968C15.7795 28.9876 14.3983 27.4542 13.61 25.6081C12.8218 23.7619 12.6711 21.7076 13.1817 19.767C13.6923 17.8265 14.8353 16.1095 16.4314 14.8854C18.0274 13.6612 19.9864 12.999 22.0012 13.0026Z" fill="#007AFF"/>
</svg>
