<svg width="42" height="40" viewBox="0 0 42 40" fill="none" xmlns="http://www.w3.org/2000/svg">
<path d="M41.1114 15.2239C40.8706 14.4822 40.4281 13.8222 39.8334 13.3178C39.2388 12.8134 38.5154 12.4845 37.7444 12.3679L28.7984 11.0239L24.7594 2.9389C24.4103 2.24183 23.8742 1.65566 23.2109 1.24601C22.5476 0.836356 21.7834 0.619385 21.0039 0.619385C20.2243 0.619385 19.4601 0.836356 18.7968 1.24601C18.1336 1.65566 17.5974 2.24183 17.2484 2.9389L13.2024 11.0239L4.26338 12.3679C3.49158 12.4835 2.76726 12.8119 2.17166 13.3161C1.57606 13.8204 1.13273 14.4806 0.891406 15.2228C0.650079 15.9649 0.620298 16.7596 0.805405 17.5178C0.990512 18.2759 1.38318 18.9675 1.93938 19.5149L8.29538 25.7799L6.77638 34.9149C6.64862 35.6841 6.73752 36.4737 7.03311 37.1952C7.32869 37.9167 7.8193 38.5417 8.45 39.0002C9.08069 39.4587 9.82656 39.7326 10.6041 39.7912C11.3816 39.8497 12.1601 39.6907 12.8524 39.3319L20.9934 35.1319L29.1344 39.3319C29.8271 39.6946 30.6072 39.8567 31.3871 39.8C32.1669 39.7432 32.9154 39.47 33.5484 39.0109C34.1813 38.5519 34.6735 37.9252 34.9696 37.2016C35.2657 36.4779 35.354 35.686 35.2244 34.9149L33.7054 25.7799L40.0614 19.5149C40.6177 18.9678 41.0106 18.2765 41.1961 17.5186C41.3816 16.7607 41.3522 15.9661 41.1114 15.2239ZM29.2114 24.3239L31.0804 35.6149L21.0004 30.3859L10.9204 35.6149L12.7964 24.3169L4.90038 16.5189L15.9954 14.8459L21.0004 4.8149L26.0194 14.8529L37.1004 16.5189L29.2114 24.3239Z" fill="#007AFF"/>
</svg>
