<svg width="44" height="44" viewBox="0 0 44 44" fill="none" xmlns="http://www.w3.org/2000/svg">
<path d="M0.300781 37.6149C0.300781 39.2858 0.96453 40.8882 2.14601 42.0697C3.32749 43.2511 4.92992 43.9149 6.60078 43.9149H37.4008C39.0716 43.9149 40.6741 43.2511 41.8556 42.0697C43.037 40.8882 43.7008 39.2858 43.7008 37.6149V16.6149C43.7008 14.944 43.037 13.3416 41.8556 12.1601C40.6741 10.9786 39.0716 10.3149 37.4008 10.3149H32.5008V5.41489C32.5008 4.11533 31.9845 2.869 31.0656 1.95007C30.1467 1.03114 28.9003 0.514893 27.6008 0.514893H16.4008C15.1012 0.514893 13.8549 1.03114 12.936 1.95007C12.017 2.869 11.5008 4.11533 11.5008 5.41489V10.3149H6.60078C4.92992 10.3149 3.32749 10.9786 2.14601 12.1601C0.96453 13.3416 0.300781 14.944 0.300781 16.6149V37.6149ZM37.4008 39.7149H6.60078C6.04383 39.7149 5.50968 39.4936 5.11586 39.0998C4.72203 38.706 4.50078 38.1718 4.50078 37.6149V25.2039C9.19082 27.9573 14.4706 29.5508 19.9008 29.8519V34.1149H24.1008V29.8519C29.531 29.5508 34.8107 27.9573 39.5008 25.2039V37.6149C39.5008 38.1718 39.2795 38.706 38.8857 39.0998C38.4919 39.4936 37.9577 39.7149 37.4008 39.7149ZM15.7008 5.41489C15.7008 5.22924 15.7745 5.05119 15.9058 4.91992C16.0371 4.78864 16.2151 4.71489 16.4008 4.71489H27.6008C27.7864 4.71489 27.9645 4.78864 28.0958 4.91992C28.227 5.05119 28.3008 5.22924 28.3008 5.41489V10.3149H15.7008V5.41489ZM6.60078 14.5149H37.4008C37.9577 14.5149 38.4919 14.7361 38.8857 15.13C39.2795 15.5238 39.5008 16.0579 39.5008 16.6149V20.1149L38.8918 20.6049C38.8008 20.6259 33.2008 25.0149 24.1008 25.6379V22.2149H19.9008V25.6379C14.5998 25.3327 9.48399 23.5799 5.10978 20.5699L4.50078 20.1149V16.6149C4.50078 16.0579 4.72203 15.5238 5.11586 15.13C5.50968 14.7361 6.04383 14.5149 6.60078 14.5149Z" fill="#007AFF"/>
</svg>
