<svg width="44" height="45" viewBox="0 0 44 45" fill="none" xmlns="http://www.w3.org/2000/svg">
<path d="M35.3012 16.2147H8.70117V4.31475C8.70117 3.20084 9.14367 2.13255 9.93132 1.3449C10.719 0.557244 11.7873 0.114746 12.9012 0.114746H31.1012C32.2151 0.114746 33.2834 0.557244 34.071 1.3449C34.8587 2.13255 35.3012 3.20084 35.3012 4.31475V16.2147ZM12.9012 12.0147H31.1012V4.31475H12.9012V12.0147Z" fill="#007AFF"/>
<path d="M37.4008 38.6146H31.7168V34.4146H37.4008C37.9577 34.4146 38.4919 34.1934 38.8857 33.7996C39.2795 33.4057 39.5008 32.8716 39.5008 32.3146V18.3146C39.5008 17.7577 39.2795 17.2236 38.8857 16.8297C38.4919 16.4359 37.9577 16.2146 37.4008 16.2146H6.60078C6.04383 16.2146 5.50968 16.4359 5.11586 16.8297C4.72203 17.2236 4.50078 17.7577 4.50078 18.3146V32.3146C4.50078 32.8716 4.72203 33.4057 5.11586 33.7996C5.50968 34.1934 6.04383 34.4146 6.60078 34.4146H12.2008V38.6146H6.60078C4.92992 38.6146 3.32749 37.9509 2.14601 36.7694C0.96453 35.5879 0.300781 33.9855 0.300781 32.3146V18.3146C0.300781 16.6438 0.96453 15.0414 2.14601 13.8599C3.32749 12.6784 4.92992 12.0146 6.60078 12.0146H37.4008C39.0716 12.0146 40.6741 12.6784 41.8556 13.8599C43.037 15.0414 43.7008 16.6438 43.7008 18.3146V32.3146C43.7008 33.9855 43.037 35.5879 41.8556 36.7694C40.6741 37.9509 39.0716 38.6146 37.4008 38.6146Z" fill="#007AFF"/>
<path d="M35.6783 44.9147H8.32227L11.1223 28.1147H32.8783L35.6783 44.9147ZM13.2783 40.7147H30.7223L29.3223 32.3147H14.6783L13.2783 40.7147Z" fill="#007AFF"/>
<path d="M12.2 21.8148C12.2 20.655 11.2598 19.7148 10.1 19.7148C8.9402 19.7148 8 20.655 8 21.8148C8 22.9746 8.9402 23.9148 10.1 23.9148C11.2598 23.9148 12.2 22.9746 12.2 21.8148Z" fill="#007AFF"/>
</svg>
